<?xml version="1.0" encoding="UTF-8" standalone="no"?><svg xmlns="http://www.w3.org/2000/svg" xmlns:xlink="http://www.w3.org/1999/xlink" contentScriptType="application/ecmascript" contentStyleType="text/css" height="732px" preserveAspectRatio="none" style="width:1118px;height:732px;background:#FFFFFF;" version="1.1" viewBox="0 0 1118 732" width="1118px" zoomAndPan="magnify"><defs><filter height="300%" id="fst4iy3h5b8rf" width="300%" x="-1" y="-1"><feGaussianBlur result="blurOut" stdDeviation="2.0"/><feColorMatrix in="blurOut" result="blurOut2" type="matrix" values="0 0 0 0 0 0 0 0 0 0 0 0 0 0 0 0 0 0 .4 0"/><feOffset dx="4.0" dy="4.0" in="blurOut2" result="blurOut3"/><feBlend in="SourceGraphic" in2="blurOut3" mode="normal"/></filter></defs><g><!--MD5=[02e4b9b7573f1156f41e60aa5b4e25a4]
class Company--><rect codeLine="4" fill="#FEFECE" filter="url(#fst4iy3h5b8rf)" height="103.3438" id="Company" style="stroke:#A80036;stroke-width:1.5;" width="124" x="898.07" y="225"/><ellipse cx="930.62" cy="241" fill="#ADD1B2" rx="11" ry="11" style="stroke:#A80036;stroke-width:1.0;"/><path d="M932.62,237.5 Q932.8231,237 933.0575,236.75 Q933.2919,236.5 933.5575,236.5 Q934.0262,236.5 934.3231,236.7813 Q934.62,237.0625 934.62,237.7188 L934.62,239.2813 Q934.62,239.9375 934.3387,240.2188 Q934.0575,240.5 933.62,240.5 Q933.2294,240.5 932.9794,240.3281 Q932.7294,240.1563 932.62,239.7031 Q932.5731,239.3906 932.4012,239.2188 Q932.0887,238.8906 931.5262,238.7031 Q930.9637,238.5 930.4012,238.5 Q929.6981,238.5 929.1044,238.7813 Q928.5262,239.0625 928.0731,239.6875 Q927.62,240.3125 927.62,241.1719 L927.62,242.0938 Q927.62,243.125 928.4637,243.8125 Q929.3075,244.5 930.8075,244.5 Q931.6981,244.5 932.3231,244.2969 Q932.6825,244.1875 933.0887,243.8281 Q933.3544,243.625 933.495,243.5625 Q933.6356,243.5 933.8075,243.5 Q934.1356,243.5 934.37,243.7656 Q934.62,244.0156 934.62,244.375 Q934.62,244.7188 934.2762,245.125 Q933.7762,245.7188 932.9794,246.0469 Q931.9325,246.5 930.6512,246.5 Q929.1512,246.5 927.9481,245.9063 Q926.9794,245.4375 926.2919,244.4219 Q925.62,243.4063 925.62,242.2031 L925.62,241.1094 Q925.62,239.8594 926.2137,238.7656 Q926.8231,237.6719 927.87,237.0938 Q928.9325,236.5 930.12,236.5 Q930.8387,236.5 931.4637,236.75 Q932.0887,237 932.62,237.5 Z " fill="#000000"/><text fill="#000000" font-family="sans-serif" font-size="12" lengthAdjust="spacing" textLength="53" x="948.52" y="245.9102">Company</text><line style="stroke:#A80036;stroke-width:1.5;" x1="899.07" x2="1021.07" y1="257" y2="257"/><rect fill="none" height="6" style="stroke:#C82930;stroke-width:1.0;" width="6" x="906.07" y="265"/><text fill="#000000" font-family="sans-serif" font-size="11" lengthAdjust="spacing" textLength="60" x="918.07" y="272.4189">chemicalLab</text><line style="stroke:#A80036;stroke-width:1.0;" x1="899.07" x2="1021.07" y1="278.8359" y2="278.8359"/><ellipse cx="909.07" cy="289.8359" fill="#84BE84" rx="3" ry="3" style="stroke:#038048;stroke-width:1.0;"/><text fill="#000000" font-family="sans-serif" font-size="11" lengthAdjust="spacing" textLength="75" x="918.07" y="294.2549">getClientStore()</text><ellipse cx="909.07" cy="303.6719" fill="#84BE84" rx="3" ry="3" style="stroke:#038048;stroke-width:1.0;"/><text fill="#000000" font-family="sans-serif" font-size="11" lengthAdjust="spacing" textLength="70" x="918.07" y="308.0908">getTestStore()</text><ellipse cx="909.07" cy="317.5078" fill="#84BE84" rx="3" ry="3" style="stroke:#038048;stroke-width:1.0;"/><text fill="#000000" font-family="sans-serif" font-size="11" lengthAdjust="spacing" textLength="98" x="918.07" y="321.9268">getParameterStore()</text><!--MD5=[cbc95fe8cb64855c72a0b6315975e01b]
class NHSReportUI--><rect codeLine="12" fill="#FEFECE" filter="url(#fst4iy3h5b8rf)" height="48" id="NHSReportUI" style="stroke:#A80036;stroke-width:1.5;" width="107" x="425.57" y="7"/><ellipse cx="440.57" cy="23" fill="#ADD1B2" rx="11" ry="11" style="stroke:#A80036;stroke-width:1.0;"/><path d="M442.57,19.5 Q442.7731,19 443.0075,18.75 Q443.2419,18.5 443.5075,18.5 Q443.9763,18.5 444.2731,18.7813 Q444.57,19.0625 444.57,19.7188 L444.57,21.2813 Q444.57,21.9375 444.2888,22.2188 Q444.0075,22.5 443.57,22.5 Q443.1794,22.5 442.9294,22.3281 Q442.6794,22.1563 442.57,21.7031 Q442.5231,21.3906 442.3513,21.2188 Q442.0388,20.8906 441.4763,20.7031 Q440.9138,20.5 440.3513,20.5 Q439.6481,20.5 439.0544,20.7813 Q438.4763,21.0625 438.0231,21.6875 Q437.57,22.3125 437.57,23.1719 L437.57,24.0938 Q437.57,25.125 438.4138,25.8125 Q439.2575,26.5 440.7575,26.5 Q441.6481,26.5 442.2731,26.2969 Q442.6325,26.1875 443.0388,25.8281 Q443.3044,25.625 443.445,25.5625 Q443.5856,25.5 443.7575,25.5 Q444.0856,25.5 444.32,25.7656 Q444.57,26.0156 444.57,26.375 Q444.57,26.7188 444.2263,27.125 Q443.7263,27.7188 442.9294,28.0469 Q441.8825,28.5 440.6013,28.5 Q439.1013,28.5 437.8981,27.9063 Q436.9294,27.4375 436.2419,26.4219 Q435.57,25.4063 435.57,24.2031 L435.57,23.1094 Q435.57,21.8594 436.1638,20.7656 Q436.7731,19.6719 437.82,19.0938 Q438.8825,18.5 440.07,18.5 Q440.7888,18.5 441.4138,18.75 Q442.0388,19 442.57,19.5 Z " fill="#000000"/><text fill="#000000" font-family="sans-serif" font-size="12" lengthAdjust="spacing" textLength="75" x="454.57" y="27.9102">NHSReportUI</text><line style="stroke:#A80036;stroke-width:1.5;" x1="426.57" x2="531.57" y1="39" y2="39"/><line style="stroke:#A80036;stroke-width:1.5;" x1="426.57" x2="531.57" y1="47" y2="47"/><!--MD5=[693c1a626fe68621708d7afc436c9804]
class SimpleLinearRegressionUI--><rect codeLine="15" fill="#FEFECE" filter="url(#fst4iy3h5b8rf)" height="48" id="SimpleLinearRegressionUI" style="stroke:#A80036;stroke-width:1.5;" width="183" x="77.57" y="252.5"/><ellipse cx="92.57" cy="268.5" fill="#ADD1B2" rx="11" ry="11" style="stroke:#A80036;stroke-width:1.0;"/><path d="M94.57,265 Q94.7731,264.5 95.0075,264.25 Q95.2419,264 95.5075,264 Q95.9763,264 96.2731,264.2813 Q96.57,264.5625 96.57,265.2188 L96.57,266.7813 Q96.57,267.4375 96.2888,267.7188 Q96.0075,268 95.57,268 Q95.1794,268 94.9294,267.8281 Q94.6794,267.6563 94.57,267.2031 Q94.5231,266.8906 94.3513,266.7188 Q94.0388,266.3906 93.4763,266.2031 Q92.9138,266 92.3513,266 Q91.6481,266 91.0544,266.2813 Q90.4763,266.5625 90.0231,267.1875 Q89.57,267.8125 89.57,268.6719 L89.57,269.5938 Q89.57,270.625 90.4138,271.3125 Q91.2575,272 92.7575,272 Q93.6481,272 94.2731,271.7969 Q94.6325,271.6875 95.0388,271.3281 Q95.3044,271.125 95.445,271.0625 Q95.5856,271 95.7575,271 Q96.0856,271 96.32,271.2656 Q96.57,271.5156 96.57,271.875 Q96.57,272.2188 96.2263,272.625 Q95.7263,273.2188 94.9294,273.5469 Q93.8825,274 92.6013,274 Q91.1013,274 89.8981,273.4063 Q88.9294,272.9375 88.2419,271.9219 Q87.57,270.9063 87.57,269.7031 L87.57,268.6094 Q87.57,267.3594 88.1638,266.2656 Q88.7731,265.1719 89.82,264.5938 Q90.8825,264 92.07,264 Q92.7888,264 93.4138,264.25 Q94.0388,264.5 94.57,265 Z " fill="#000000"/><text fill="#000000" font-family="sans-serif" font-size="12" lengthAdjust="spacing" textLength="151" x="106.57" y="273.4102">SimpleLinearRegressionUI</text><line style="stroke:#A80036;stroke-width:1.5;" x1="78.57" x2="259.57" y1="284.5" y2="284.5"/><line style="stroke:#A80036;stroke-width:1.5;" x1="78.57" x2="259.57" y1="292.5" y2="292.5"/><!--MD5=[085412d98094009b0e8dc2c90f4979ff]
class MultiLinearRegressionUI--><rect codeLine="19" fill="#FEFECE" filter="url(#fst4iy3h5b8rf)" height="48" id="MultiLinearRegressionUI" style="stroke:#A80036;stroke-width:1.5;" width="169" x="295.57" y="252.5"/><ellipse cx="310.57" cy="268.5" fill="#ADD1B2" rx="11" ry="11" style="stroke:#A80036;stroke-width:1.0;"/><path d="M312.57,265 Q312.7731,264.5 313.0075,264.25 Q313.2419,264 313.5075,264 Q313.9763,264 314.2731,264.2813 Q314.57,264.5625 314.57,265.2188 L314.57,266.7813 Q314.57,267.4375 314.2888,267.7188 Q314.0075,268 313.57,268 Q313.1794,268 312.9294,267.8281 Q312.6794,267.6563 312.57,267.2031 Q312.5231,266.8906 312.3513,266.7188 Q312.0388,266.3906 311.4763,266.2031 Q310.9138,266 310.3513,266 Q309.6481,266 309.0544,266.2813 Q308.4763,266.5625 308.0231,267.1875 Q307.57,267.8125 307.57,268.6719 L307.57,269.5938 Q307.57,270.625 308.4138,271.3125 Q309.2575,272 310.7575,272 Q311.6481,272 312.2731,271.7969 Q312.6325,271.6875 313.0388,271.3281 Q313.3044,271.125 313.445,271.0625 Q313.5856,271 313.7575,271 Q314.0856,271 314.32,271.2656 Q314.57,271.5156 314.57,271.875 Q314.57,272.2188 314.2263,272.625 Q313.7263,273.2188 312.9294,273.5469 Q311.8825,274 310.6013,274 Q309.1013,274 307.8981,273.4063 Q306.9294,272.9375 306.2419,271.9219 Q305.57,270.9063 305.57,269.7031 L305.57,268.6094 Q305.57,267.3594 306.1638,266.2656 Q306.7731,265.1719 307.82,264.5938 Q308.8825,264 310.07,264 Q310.7888,264 311.4138,264.25 Q312.0388,264.5 312.57,265 Z " fill="#000000"/><text fill="#000000" font-family="sans-serif" font-size="12" lengthAdjust="spacing" textLength="137" x="324.57" y="273.4102">MultiLinearRegressionUI</text><line style="stroke:#A80036;stroke-width:1.5;" x1="296.57" x2="463.57" y1="284.5" y2="284.5"/><line style="stroke:#A80036;stroke-width:1.5;" x1="296.57" x2="463.57" y1="292.5" y2="292.5"/><!--MD5=[0c9ec6b2138997e47eef167176dc6187]
class NHSReportController--><rect codeLine="22" fill="#FEFECE" filter="url(#fst4iy3h5b8rf)" height="48" id="NHSReportController" style="stroke:#A80036;stroke-width:1.5;" width="149" x="404.57" y="116"/><ellipse cx="419.57" cy="132" fill="#ADD1B2" rx="11" ry="11" style="stroke:#A80036;stroke-width:1.0;"/><path d="M421.57,128.5 Q421.7731,128 422.0075,127.75 Q422.2419,127.5 422.5075,127.5 Q422.9763,127.5 423.2731,127.7813 Q423.57,128.0625 423.57,128.7188 L423.57,130.2813 Q423.57,130.9375 423.2888,131.2188 Q423.0075,131.5 422.57,131.5 Q422.1794,131.5 421.9294,131.3281 Q421.6794,131.1563 421.57,130.7031 Q421.5231,130.3906 421.3513,130.2188 Q421.0388,129.8906 420.4763,129.7031 Q419.9138,129.5 419.3513,129.5 Q418.6481,129.5 418.0544,129.7813 Q417.4763,130.0625 417.0231,130.6875 Q416.57,131.3125 416.57,132.1719 L416.57,133.0938 Q416.57,134.125 417.4138,134.8125 Q418.2575,135.5 419.7575,135.5 Q420.6481,135.5 421.2731,135.2969 Q421.6325,135.1875 422.0388,134.8281 Q422.3044,134.625 422.445,134.5625 Q422.5856,134.5 422.7575,134.5 Q423.0856,134.5 423.32,134.7656 Q423.57,135.0156 423.57,135.375 Q423.57,135.7188 423.2263,136.125 Q422.7263,136.7188 421.9294,137.0469 Q420.8825,137.5 419.6013,137.5 Q418.1013,137.5 416.8981,136.9063 Q415.9294,136.4375 415.2419,135.4219 Q414.57,134.4063 414.57,133.2031 L414.57,132.1094 Q414.57,130.8594 415.1638,129.7656 Q415.7731,128.6719 416.82,128.0938 Q417.8825,127.5 419.07,127.5 Q419.7888,127.5 420.4138,127.75 Q421.0388,128 421.57,128.5 Z " fill="#000000"/><text fill="#000000" font-family="sans-serif" font-size="12" lengthAdjust="spacing" textLength="117" x="433.57" y="136.9102">NHSReportController</text><line style="stroke:#A80036;stroke-width:1.5;" x1="405.57" x2="552.57" y1="148" y2="148"/><line style="stroke:#A80036;stroke-width:1.5;" x1="405.57" x2="552.57" y1="156" y2="156"/><!--MD5=[6f57bde7dde74de5002c105391146556]
class MultiLinearRegression--><rect codeLine="25" fill="#FEFECE" filter="url(#fst4iy3h5b8rf)" height="48" id="MultiLinearRegression" style="stroke:#A80036;stroke-width:1.5;" width="157" x="499.57" y="252.5"/><ellipse cx="514.57" cy="268.5" fill="#ADD1B2" rx="11" ry="11" style="stroke:#A80036;stroke-width:1.0;"/><path d="M516.57,265 Q516.7731,264.5 517.0075,264.25 Q517.2419,264 517.5075,264 Q517.9763,264 518.2731,264.2813 Q518.57,264.5625 518.57,265.2188 L518.57,266.7813 Q518.57,267.4375 518.2888,267.7188 Q518.0075,268 517.57,268 Q517.1794,268 516.9294,267.8281 Q516.6794,267.6563 516.57,267.2031 Q516.5231,266.8906 516.3513,266.7188 Q516.0388,266.3906 515.4763,266.2031 Q514.9138,266 514.3513,266 Q513.6481,266 513.0544,266.2813 Q512.4763,266.5625 512.0231,267.1875 Q511.57,267.8125 511.57,268.6719 L511.57,269.5938 Q511.57,270.625 512.4138,271.3125 Q513.2575,272 514.7575,272 Q515.6481,272 516.2731,271.7969 Q516.6325,271.6875 517.0388,271.3281 Q517.3044,271.125 517.445,271.0625 Q517.5856,271 517.7575,271 Q518.0856,271 518.32,271.2656 Q518.57,271.5156 518.57,271.875 Q518.57,272.2188 518.2263,272.625 Q517.7263,273.2188 516.9294,273.5469 Q515.8825,274 514.6013,274 Q513.1013,274 511.8981,273.4063 Q510.9294,272.9375 510.2419,271.9219 Q509.57,270.9063 509.57,269.7031 L509.57,268.6094 Q509.57,267.3594 510.1638,266.2656 Q510.7731,265.1719 511.82,264.5938 Q512.8825,264 514.07,264 Q514.7888,264 515.4138,264.25 Q516.0388,264.5 516.57,265 Z " fill="#000000"/><text fill="#000000" font-family="sans-serif" font-size="12" lengthAdjust="spacing" textLength="125" x="528.57" y="273.4102">MultiLinearRegression</text><line style="stroke:#A80036;stroke-width:1.5;" x1="500.57" x2="655.57" y1="284.5" y2="284.5"/><line style="stroke:#A80036;stroke-width:1.5;" x1="500.57" x2="655.57" y1="292.5" y2="292.5"/><!--MD5=[81164bbe8e5195468dfeb4ce11f58a69]
class SimpleLinearRegression--><rect codeLine="28" fill="#FEFECE" filter="url(#fst4iy3h5b8rf)" height="48" id="SimpleLinearRegression" style="stroke:#A80036;stroke-width:1.5;" width="171" x="691.57" y="252.5"/><ellipse cx="706.57" cy="268.5" fill="#ADD1B2" rx="11" ry="11" style="stroke:#A80036;stroke-width:1.0;"/><path d="M708.57,265 Q708.7731,264.5 709.0075,264.25 Q709.2419,264 709.5075,264 Q709.9762,264 710.2731,264.2813 Q710.57,264.5625 710.57,265.2188 L710.57,266.7813 Q710.57,267.4375 710.2887,267.7188 Q710.0075,268 709.57,268 Q709.1794,268 708.9294,267.8281 Q708.6794,267.6563 708.57,267.2031 Q708.5231,266.8906 708.3512,266.7188 Q708.0387,266.3906 707.4762,266.2031 Q706.9137,266 706.3512,266 Q705.6481,266 705.0544,266.2813 Q704.4762,266.5625 704.0231,267.1875 Q703.57,267.8125 703.57,268.6719 L703.57,269.5938 Q703.57,270.625 704.4137,271.3125 Q705.2575,272 706.7575,272 Q707.6481,272 708.2731,271.7969 Q708.6325,271.6875 709.0387,271.3281 Q709.3044,271.125 709.445,271.0625 Q709.5856,271 709.7575,271 Q710.0856,271 710.32,271.2656 Q710.57,271.5156 710.57,271.875 Q710.57,272.2188 710.2262,272.625 Q709.7262,273.2188 708.9294,273.5469 Q707.8825,274 706.6012,274 Q705.1012,274 703.8981,273.4063 Q702.9294,272.9375 702.2419,271.9219 Q701.57,270.9063 701.57,269.7031 L701.57,268.6094 Q701.57,267.3594 702.1637,266.2656 Q702.7731,265.1719 703.82,264.5938 Q704.8825,264 706.07,264 Q706.7887,264 707.4137,264.25 Q708.0387,264.5 708.57,265 Z " fill="#000000"/><text fill="#000000" font-family="sans-serif" font-size="12" lengthAdjust="spacing" textLength="139" x="720.57" y="273.4102">SimpleLinearRegression</text><line style="stroke:#A80036;stroke-width:1.5;" x1="692.57" x2="861.57" y1="284.5" y2="284.5"/><line style="stroke:#A80036;stroke-width:1.5;" x1="692.57" x2="861.57" y1="292.5" y2="292.5"/><!--MD5=[df38be88ccee13e832d6fafd6288a4ca]
class Test--><rect codeLine="31" fill="#FEFECE" filter="url(#fst4iy3h5b8rf)" height="144.8516" id="Test" style="stroke:#A80036;stroke-width:1.5;" width="93" x="174.57" y="560"/><ellipse cx="206.22" cy="576" fill="#ADD1B2" rx="11" ry="11" style="stroke:#A80036;stroke-width:1.0;"/><path d="M208.22,572.5 Q208.4231,572 208.6575,571.75 Q208.8919,571.5 209.1575,571.5 Q209.6263,571.5 209.9231,571.7813 Q210.22,572.0625 210.22,572.7188 L210.22,574.2813 Q210.22,574.9375 209.9388,575.2188 Q209.6575,575.5 209.22,575.5 Q208.8294,575.5 208.5794,575.3281 Q208.3294,575.1563 208.22,574.7031 Q208.1731,574.3906 208.0013,574.2188 Q207.6888,573.8906 207.1263,573.7031 Q206.5638,573.5 206.0013,573.5 Q205.2981,573.5 204.7044,573.7813 Q204.1263,574.0625 203.6731,574.6875 Q203.22,575.3125 203.22,576.1719 L203.22,577.0938 Q203.22,578.125 204.0638,578.8125 Q204.9075,579.5 206.4075,579.5 Q207.2981,579.5 207.9231,579.2969 Q208.2825,579.1875 208.6888,578.8281 Q208.9544,578.625 209.095,578.5625 Q209.2356,578.5 209.4075,578.5 Q209.7356,578.5 209.97,578.7656 Q210.22,579.0156 210.22,579.375 Q210.22,579.7188 209.8763,580.125 Q209.3763,580.7188 208.5794,581.0469 Q207.5325,581.5 206.2513,581.5 Q204.7513,581.5 203.5481,580.9063 Q202.5794,580.4375 201.8919,579.4219 Q201.22,578.4063 201.22,577.2031 L201.22,576.1094 Q201.22,574.8594 201.8138,573.7656 Q202.4231,572.6719 203.47,572.0938 Q204.5325,571.5 205.72,571.5 Q206.4388,571.5 207.0638,571.75 Q207.6888,572 208.22,572.5 Z " fill="#000000"/><text fill="#000000" font-family="sans-serif" font-size="12" lengthAdjust="spacing" textLength="24" x="223.92" y="580.9102">Test</text><line style="stroke:#A80036;stroke-width:1.5;" x1="175.57" x2="266.57" y1="592" y2="592"/><rect fill="none" height="6" style="stroke:#C82930;stroke-width:1.0;" width="6" x="182.57" y="600"/><text fill="#000000" font-family="sans-serif" font-size="11" lengthAdjust="spacing" textLength="11" x="194.57" y="607.4189">tin</text><rect fill="none" height="6" style="stroke:#C82930;stroke-width:1.0;" width="6" x="182.57" y="613.8359"/><text fill="#000000" font-family="sans-serif" font-size="11" lengthAdjust="spacing" textLength="29" x="194.57" y="621.2549">idTest</text><rect fill="none" height="6" style="stroke:#C82930;stroke-width:1.0;" width="6" x="182.57" y="627.6719"/><text fill="#000000" font-family="sans-serif" font-size="11" lengthAdjust="spacing" textLength="43" x="194.57" y="635.0908">nhsCode</text><rect fill="none" height="6" style="stroke:#C82930;stroke-width:1.0;" width="6" x="182.57" y="641.5078"/><text fill="#000000" font-family="sans-serif" font-size="11" lengthAdjust="spacing" textLength="21" x="194.57" y="648.9268">date</text><rect fill="none" height="6" style="stroke:#C82930;stroke-width:1.0;" width="6" x="182.57" y="655.3438"/><text fill="#000000" font-family="sans-serif" font-size="11" lengthAdjust="spacing" textLength="67" x="194.57" y="662.7627">validationDate</text><rect fill="none" height="6" style="stroke:#C82930;stroke-width:1.0;" width="6" x="182.57" y="669.1797"/><text fill="#000000" font-family="sans-serif" font-size="11" lengthAdjust="spacing" textLength="42" x="194.57" y="676.5986">testType</text><rect fill="none" height="6" style="stroke:#C82930;stroke-width:1.0;" width="6" x="182.57" y="683.0156"/><text fill="#000000" font-family="sans-serif" font-size="11" lengthAdjust="spacing" textLength="25" x="194.57" y="690.4346">State</text><line style="stroke:#A80036;stroke-width:1.5;" x1="175.57" x2="266.57" y1="696.8516" y2="696.8516"/><!--MD5=[0f6f7964b844a64b0496af0dda7914bd]
class TestStore--><rect codeLine="41" fill="#FEFECE" filter="url(#fst4iy3h5b8rf)" height="61.8359" id="TestStore" style="stroke:#A80036;stroke-width:1.5;" width="87" x="177.57" y="406"/><ellipse cx="193.47" cy="422" fill="#ADD1B2" rx="11" ry="11" style="stroke:#A80036;stroke-width:1.0;"/><path d="M195.47,418.5 Q195.6731,418 195.9075,417.75 Q196.1419,417.5 196.4075,417.5 Q196.8763,417.5 197.1731,417.7813 Q197.47,418.0625 197.47,418.7188 L197.47,420.2813 Q197.47,420.9375 197.1888,421.2188 Q196.9075,421.5 196.47,421.5 Q196.0794,421.5 195.8294,421.3281 Q195.5794,421.1563 195.47,420.7031 Q195.4231,420.3906 195.2513,420.2188 Q194.9388,419.8906 194.3763,419.7031 Q193.8138,419.5 193.2513,419.5 Q192.5481,419.5 191.9544,419.7813 Q191.3763,420.0625 190.9231,420.6875 Q190.47,421.3125 190.47,422.1719 L190.47,423.0938 Q190.47,424.125 191.3138,424.8125 Q192.1575,425.5 193.6575,425.5 Q194.5481,425.5 195.1731,425.2969 Q195.5325,425.1875 195.9388,424.8281 Q196.2044,424.625 196.345,424.5625 Q196.4856,424.5 196.6575,424.5 Q196.9856,424.5 197.22,424.7656 Q197.47,425.0156 197.47,425.375 Q197.47,425.7188 197.1263,426.125 Q196.6263,426.7188 195.8294,427.0469 Q194.7825,427.5 193.5013,427.5 Q192.0013,427.5 190.7981,426.9063 Q189.8294,426.4375 189.1419,425.4219 Q188.47,424.4063 188.47,423.2031 L188.47,422.1094 Q188.47,420.8594 189.0638,419.7656 Q189.6731,418.6719 190.72,418.0938 Q191.7825,417.5 192.97,417.5 Q193.6888,417.5 194.3138,417.75 Q194.9388,418 195.47,418.5 Z " fill="#000000"/><text fill="#000000" font-family="sans-serif" font-size="12" lengthAdjust="spacing" textLength="53" x="207.67" y="426.9102">TestStore</text><line style="stroke:#A80036;stroke-width:1.5;" x1="178.57" x2="263.57" y1="438" y2="438"/><line style="stroke:#A80036;stroke-width:1.5;" x1="178.57" x2="263.57" y1="446" y2="446"/><ellipse cx="188.57" cy="457" fill="#84BE84" rx="3" ry="3" style="stroke:#038048;stroke-width:1.0;"/><text fill="#000000" font-family="sans-serif" font-size="11" lengthAdjust="spacing" textLength="61" x="197.57" y="461.4189">getTestList()</text><!--MD5=[55cb992be19579b505cea3c5691093cb]
class ClientStore--><rect codeLine="45" fill="#FEFECE" filter="url(#fst4iy3h5b8rf)" height="61.8359" id="ClientStore" style="stroke:#A80036;stroke-width:1.5;" width="95" x="998.57" y="406"/><ellipse cx="1014.47" cy="422" fill="#ADD1B2" rx="11" ry="11" style="stroke:#A80036;stroke-width:1.0;"/><path d="M1016.47,418.5 Q1016.6731,418 1016.9075,417.75 Q1017.1419,417.5 1017.4075,417.5 Q1017.8762,417.5 1018.1731,417.7813 Q1018.47,418.0625 1018.47,418.7188 L1018.47,420.2813 Q1018.47,420.9375 1018.1887,421.2188 Q1017.9075,421.5 1017.47,421.5 Q1017.0794,421.5 1016.8294,421.3281 Q1016.5794,421.1563 1016.47,420.7031 Q1016.4231,420.3906 1016.2512,420.2188 Q1015.9387,419.8906 1015.3762,419.7031 Q1014.8137,419.5 1014.2512,419.5 Q1013.5481,419.5 1012.9544,419.7813 Q1012.3762,420.0625 1011.9231,420.6875 Q1011.47,421.3125 1011.47,422.1719 L1011.47,423.0938 Q1011.47,424.125 1012.3137,424.8125 Q1013.1575,425.5 1014.6575,425.5 Q1015.5481,425.5 1016.1731,425.2969 Q1016.5325,425.1875 1016.9387,424.8281 Q1017.2044,424.625 1017.345,424.5625 Q1017.4856,424.5 1017.6575,424.5 Q1017.9856,424.5 1018.22,424.7656 Q1018.47,425.0156 1018.47,425.375 Q1018.47,425.7188 1018.1262,426.125 Q1017.6262,426.7188 1016.8294,427.0469 Q1015.7825,427.5 1014.5012,427.5 Q1013.0012,427.5 1011.7981,426.9063 Q1010.8294,426.4375 1010.1419,425.4219 Q1009.47,424.4063 1009.47,423.2031 L1009.47,422.1094 Q1009.47,420.8594 1010.0637,419.7656 Q1010.6731,418.6719 1011.72,418.0938 Q1012.7825,417.5 1013.97,417.5 Q1014.6887,417.5 1015.3137,417.75 Q1015.9387,418 1016.47,418.5 Z " fill="#000000"/><text fill="#000000" font-family="sans-serif" font-size="12" lengthAdjust="spacing" textLength="61" x="1028.67" y="426.9102">ClientStore</text><line style="stroke:#A80036;stroke-width:1.5;" x1="999.57" x2="1092.57" y1="438" y2="438"/><line style="stroke:#A80036;stroke-width:1.5;" x1="999.57" x2="1092.57" y1="446" y2="446"/><ellipse cx="1009.57" cy="457" fill="#84BE84" rx="3" ry="3" style="stroke:#038048;stroke-width:1.0;"/><text fill="#000000" font-family="sans-serif" font-size="11" lengthAdjust="spacing" textLength="69" x="1018.57" y="461.4189">getClientList();</text><!--MD5=[ed6624c6556d5e7b1bd23032162d20b7]
class Client--><rect codeLine="49" fill="#FEFECE" filter="url(#fst4iy3h5b8rf)" height="172.5234" id="Client" style="stroke:#A80036;stroke-width:1.5;" width="117" x="987.57" y="546"/><ellipse cx="1026.42" cy="562" fill="#ADD1B2" rx="11" ry="11" style="stroke:#A80036;stroke-width:1.0;"/><path d="M1028.42,558.5 Q1028.6231,558 1028.8575,557.75 Q1029.0919,557.5 1029.3575,557.5 Q1029.8263,557.5 1030.1231,557.7813 Q1030.42,558.0625 1030.42,558.7188 L1030.42,560.2813 Q1030.42,560.9375 1030.1388,561.2188 Q1029.8575,561.5 1029.42,561.5 Q1029.0294,561.5 1028.7794,561.3281 Q1028.5294,561.1563 1028.42,560.7031 Q1028.3731,560.3906 1028.2013,560.2188 Q1027.8888,559.8906 1027.3263,559.7031 Q1026.7638,559.5 1026.2013,559.5 Q1025.4981,559.5 1024.9044,559.7813 Q1024.3263,560.0625 1023.8731,560.6875 Q1023.42,561.3125 1023.42,562.1719 L1023.42,563.0938 Q1023.42,564.125 1024.2638,564.8125 Q1025.1075,565.5 1026.6075,565.5 Q1027.4981,565.5 1028.1231,565.2969 Q1028.4825,565.1875 1028.8888,564.8281 Q1029.1544,564.625 1029.295,564.5625 Q1029.4356,564.5 1029.6075,564.5 Q1029.9356,564.5 1030.17,564.7656 Q1030.42,565.0156 1030.42,565.375 Q1030.42,565.7188 1030.0763,566.125 Q1029.5763,566.7188 1028.7794,567.0469 Q1027.7325,567.5 1026.4513,567.5 Q1024.9513,567.5 1023.7481,566.9063 Q1022.7794,566.4375 1022.0919,565.4219 Q1021.42,564.4063 1021.42,563.2031 L1021.42,562.1094 Q1021.42,560.8594 1022.0138,559.7656 Q1022.6231,558.6719 1023.67,558.0938 Q1024.7325,557.5 1025.92,557.5 Q1026.6388,557.5 1027.2638,557.75 Q1027.8888,558 1028.42,558.5 Z " fill="#000000"/><text fill="#000000" font-family="sans-serif" font-size="12" lengthAdjust="spacing" textLength="32" x="1045.72" y="566.9102">Client</text><line style="stroke:#A80036;stroke-width:1.5;" x1="988.57" x2="1103.57" y1="578" y2="578"/><rect fill="none" height="6" style="stroke:#C82930;stroke-width:1.0;" width="6" x="995.57" y="586"/><text fill="#000000" font-family="sans-serif" font-size="11" lengthAdjust="spacing" textLength="91" x="1007.57" y="593.4189">citizenCardNumber</text><rect fill="none" height="6" style="stroke:#C82930;stroke-width:1.0;" width="6" x="995.57" y="599.8359"/><text fill="#000000" font-family="sans-serif" font-size="11" lengthAdjust="spacing" textLength="26" x="1007.57" y="607.2549">name</text><rect fill="none" height="6" style="stroke:#C82930;stroke-width:1.0;" width="6" x="995.57" y="613.6719"/><text fill="#000000" font-family="sans-serif" font-size="11" lengthAdjust="spacing" textLength="18" x="1007.57" y="621.0908">sex</text><rect fill="none" height="6" style="stroke:#C82930;stroke-width:1.0;" width="6" x="995.57" y="627.5078"/><text fill="#000000" font-family="sans-serif" font-size="11" lengthAdjust="spacing" textLength="43" x="1007.57" y="634.9268">birthDate</text><rect fill="none" height="6" style="stroke:#C82930;stroke-width:1.0;" width="6" x="995.57" y="641.3438"/><text fill="#000000" font-family="sans-serif" font-size="11" lengthAdjust="spacing" textLength="67" x="1007.57" y="648.7627">phoneNumber</text><rect fill="none" height="6" style="stroke:#C82930;stroke-width:1.0;" width="6" x="995.57" y="655.1797"/><text fill="#000000" font-family="sans-serif" font-size="11" lengthAdjust="spacing" textLength="55" x="1007.57" y="662.5986">nhsNumber</text><rect fill="none" height="6" style="stroke:#C82930;stroke-width:1.0;" width="6" x="995.57" y="669.0156"/><text fill="#000000" font-family="sans-serif" font-size="11" lengthAdjust="spacing" textLength="11" x="1007.57" y="676.4346">tin</text><rect fill="none" height="6" style="stroke:#C82930;stroke-width:1.0;" width="6" x="995.57" y="682.8516"/><text fill="#000000" font-family="sans-serif" font-size="11" lengthAdjust="spacing" textLength="24" x="1007.57" y="690.2705">email</text><rect fill="none" height="6" style="stroke:#C82930;stroke-width:1.0;" width="6" x="995.57" y="696.6875"/><text fill="#000000" font-family="sans-serif" font-size="11" lengthAdjust="spacing" textLength="40" x="1007.57" y="704.1064">address</text><line style="stroke:#A80036;stroke-width:1.5;" x1="988.57" x2="1103.57" y1="710.5234" y2="710.5234"/><!--MD5=[1f6362a5c8f21d8d6a0fce68f3a92a4e]
class Parameter--><rect codeLine="61" fill="#FEFECE" filter="url(#fst4iy3h5b8rf)" height="103.3438" id="Parameter" style="stroke:#A80036;stroke-width:1.5;" width="90" x="677.07" y="581"/><ellipse cx="692.07" cy="597" fill="#ADD1B2" rx="11" ry="11" style="stroke:#A80036;stroke-width:1.0;"/><path d="M694.07,593.5 Q694.2731,593 694.5075,592.75 Q694.7419,592.5 695.0075,592.5 Q695.4762,592.5 695.7731,592.7813 Q696.07,593.0625 696.07,593.7188 L696.07,595.2813 Q696.07,595.9375 695.7887,596.2188 Q695.5075,596.5 695.07,596.5 Q694.6794,596.5 694.4294,596.3281 Q694.1794,596.1563 694.07,595.7031 Q694.0231,595.3906 693.8512,595.2188 Q693.5387,594.8906 692.9762,594.7031 Q692.4137,594.5 691.8512,594.5 Q691.1481,594.5 690.5544,594.7813 Q689.9762,595.0625 689.5231,595.6875 Q689.07,596.3125 689.07,597.1719 L689.07,598.0938 Q689.07,599.125 689.9137,599.8125 Q690.7575,600.5 692.2575,600.5 Q693.1481,600.5 693.7731,600.2969 Q694.1325,600.1875 694.5387,599.8281 Q694.8044,599.625 694.945,599.5625 Q695.0856,599.5 695.2575,599.5 Q695.5856,599.5 695.82,599.7656 Q696.07,600.0156 696.07,600.375 Q696.07,600.7188 695.7262,601.125 Q695.2262,601.7188 694.4294,602.0469 Q693.3825,602.5 692.1012,602.5 Q690.6012,602.5 689.3981,601.9063 Q688.4294,601.4375 687.7419,600.4219 Q687.07,599.4063 687.07,598.2031 L687.07,597.1094 Q687.07,595.8594 687.6637,594.7656 Q688.2731,593.6719 689.32,593.0938 Q690.3825,592.5 691.57,592.5 Q692.2887,592.5 692.9137,592.75 Q693.5387,593 694.07,593.5 Z " fill="#000000"/><text fill="#000000" font-family="sans-serif" font-size="12" lengthAdjust="spacing" textLength="58" x="706.07" y="601.9102">Parameter</text><line style="stroke:#A80036;stroke-width:1.5;" x1="678.07" x2="766.07" y1="613" y2="613"/><rect fill="none" height="6" style="stroke:#C82930;stroke-width:1.0;" width="6" x="685.07" y="621"/><text fill="#000000" font-family="sans-serif" font-size="11" lengthAdjust="spacing" textLength="24" x="697.07" y="628.4189">code</text><rect fill="none" height="6" style="stroke:#C82930;stroke-width:1.0;" width="6" x="685.07" y="634.8359"/><text fill="#000000" font-family="sans-serif" font-size="11" lengthAdjust="spacing" textLength="26" x="697.07" y="642.2549">name</text><rect fill="none" height="6" style="stroke:#C82930;stroke-width:1.0;" width="6" x="685.07" y="648.6719"/><text fill="#000000" font-family="sans-serif" font-size="11" lengthAdjust="spacing" textLength="53" x="697.07" y="656.0908">description</text><rect fill="none" height="6" style="stroke:#C82930;stroke-width:1.0;" width="6" x="685.07" y="662.5078"/><text fill="#000000" font-family="sans-serif" font-size="11" lengthAdjust="spacing" textLength="43" x="697.07" y="669.9268">category</text><line style="stroke:#A80036;stroke-width:1.5;" x1="678.07" x2="766.07" y1="676.3438" y2="676.3438"/><!--MD5=[be7802b157a16874d39c59ca0e2b25be]
class ParameterStore--><rect codeLine="68" fill="#FEFECE" filter="url(#fst4iy3h5b8rf)" height="61.8359" id="ParameterStore" style="stroke:#A80036;stroke-width:1.5;" width="119" x="662.57" y="406"/><ellipse cx="677.57" cy="422" fill="#ADD1B2" rx="11" ry="11" style="stroke:#A80036;stroke-width:1.0;"/><path d="M679.57,418.5 Q679.7731,418 680.0075,417.75 Q680.2419,417.5 680.5075,417.5 Q680.9762,417.5 681.2731,417.7813 Q681.57,418.0625 681.57,418.7188 L681.57,420.2813 Q681.57,420.9375 681.2887,421.2188 Q681.0075,421.5 680.57,421.5 Q680.1794,421.5 679.9294,421.3281 Q679.6794,421.1563 679.57,420.7031 Q679.5231,420.3906 679.3512,420.2188 Q679.0387,419.8906 678.4762,419.7031 Q677.9137,419.5 677.3512,419.5 Q676.6481,419.5 676.0544,419.7813 Q675.4762,420.0625 675.0231,420.6875 Q674.57,421.3125 674.57,422.1719 L674.57,423.0938 Q674.57,424.125 675.4137,424.8125 Q676.2575,425.5 677.7575,425.5 Q678.6481,425.5 679.2731,425.2969 Q679.6325,425.1875 680.0387,424.8281 Q680.3044,424.625 680.445,424.5625 Q680.5856,424.5 680.7575,424.5 Q681.0856,424.5 681.32,424.7656 Q681.57,425.0156 681.57,425.375 Q681.57,425.7188 681.2262,426.125 Q680.7262,426.7188 679.9294,427.0469 Q678.8825,427.5 677.6012,427.5 Q676.1012,427.5 674.8981,426.9063 Q673.9294,426.4375 673.2419,425.4219 Q672.57,424.4063 672.57,423.2031 L672.57,422.1094 Q672.57,420.8594 673.1637,419.7656 Q673.7731,418.6719 674.82,418.0938 Q675.8825,417.5 677.07,417.5 Q677.7887,417.5 678.4137,417.75 Q679.0387,418 679.57,418.5 Z " fill="#000000"/><text fill="#000000" font-family="sans-serif" font-size="12" lengthAdjust="spacing" textLength="87" x="691.57" y="426.9102">ParameterStore</text><line style="stroke:#A80036;stroke-width:1.5;" x1="663.57" x2="780.57" y1="438" y2="438"/><line style="stroke:#A80036;stroke-width:1.5;" x1="663.57" x2="780.57" y1="446" y2="446"/><ellipse cx="673.57" cy="457" fill="#84BE84" rx="3" ry="3" style="stroke:#038048;stroke-width:1.0;"/><text fill="#000000" font-family="sans-serif" font-size="11" lengthAdjust="spacing" textLength="89" x="682.57" y="461.4189">getParameterList()</text><!--MD5=[e9493f965a9a0792351725ca3d44c8e8]
link NHSReportUI to NHSReportController--><path codeLine="74" d="M479.07,55.22 C479.07,71.48 479.07,93.32 479.07,110.62 " fill="none" id="NHSReportUI-to-NHSReportController" style="stroke:#A80036;stroke-width:1.0;stroke-dasharray:7.0,7.0;"/><polygon fill="#A80036" points="479.07,115.83,483.07,106.83,479.07,110.83,475.07,106.83,479.07,115.83" style="stroke:#A80036;stroke-width:1.0;"/><!--MD5=[6d8d22a0e5f4b6cd71453f36fbd00362]
link NHSReportController to Company--><path codeLine="75" d="M553.82,148.6 C636.15,158.79 771.29,180.95 880.07,225 C884.43,226.77 888.82,228.77 893.17,230.93 " fill="none" id="NHSReportController-to-Company" style="stroke:#A80036;stroke-width:1.0;stroke-dasharray:7.0,7.0;"/><polygon fill="#A80036" points="897.88,233.34,891.6874,225.6816,893.4281,231.0639,888.0457,232.8046,897.88,233.34" style="stroke:#A80036;stroke-width:1.0;"/><!--MD5=[8af47b014f48fb6d43a2c2b8320bba18]
link NHSReportController to ParameterStore--><path codeLine="76" d="M404.56,144.94 C296.06,152.41 102.8,172.85 60.07,225 C31.06,260.41 30.42,293.12 60.07,328 C98.64,373.37 498.14,415.18 657.23,430.16 " fill="none" id="NHSReportController-to-ParameterStore" style="stroke:#A80036;stroke-width:1.0;stroke-dasharray:7.0,7.0;"/><polygon fill="#A80036" points="662.32,430.64,653.7378,425.8082,657.3423,430.168,652.9826,433.7725,662.32,430.64" style="stroke:#A80036;stroke-width:1.0;"/><!--MD5=[abb5414428e9113616eb8e27d9f7db24]
link NHSReportController to TestStore--><path codeLine="77" d="M404.53,142.65 C287.85,147.12 71.21,163.67 31.07,225 C6,263.3 8.05,288.43 31.07,328 C61.27,379.89 126.72,408.9 172.32,423.48 " fill="none" id="NHSReportController-to-TestStore" style="stroke:#A80036;stroke-width:1.0;stroke-dasharray:7.0,7.0;"/><polygon fill="#A80036" points="177.22,425.02,169.8339,418.505,172.4501,423.5205,167.4347,426.1368,177.22,425.02" style="stroke:#A80036;stroke-width:1.0;"/><!--MD5=[937d98cda648c05668f4e85bbd9b6dff]
link NHSReportController to ClientStore--><path codeLine="78" d="M553.81,141.17 C691.1,143.19 975.34,155.84 1040.07,225 C1084.17,272.11 1070.44,354.24 1057.58,400.92 " fill="none" id="NHSReportController-to-ClientStore" style="stroke:#A80036;stroke-width:1.0;stroke-dasharray:7.0,7.0;"/><polygon fill="#A80036" points="1056.18,405.88,1062.4719,398.3029,1057.5366,401.0676,1054.772,396.1323,1056.18,405.88" style="stroke:#A80036;stroke-width:1.0;"/><!--MD5=[659e9160ad7c4548ef66baf1500bf64e]
link NHSReportController to SimpleLinearRegressionUI--><path codeLine="79" d="M422.08,164.14 C381.7,180.7 326.36,203.73 278.07,225 C259.93,232.99 240.23,242.01 222.63,250.19 " fill="none" id="NHSReportController-to-SimpleLinearRegressionUI" style="stroke:#A80036;stroke-width:1.0;stroke-dasharray:7.0,7.0;"/><polygon fill="#A80036" points="217.73,252.48,227.5772,252.2971,222.2606,250.3648,224.1928,245.0482,217.73,252.48" style="stroke:#A80036;stroke-width:1.0;"/><!--MD5=[1ad20f791d997f548e8747a8e1deb9e3]
link NHSReportController to MultiLinearRegressionUI--><path codeLine="80" d="M462.05,164.12 C444.91,187.41 418.47,223.34 400.27,248.06 " fill="none" id="NHSReportController-to-MultiLinearRegressionUI" style="stroke:#A80036;stroke-width:1.0;stroke-dasharray:7.0,7.0;"/><polygon fill="#A80036" points="397.2,252.23,405.7584,247.3563,400.1655,248.2044,399.3174,242.6114,397.2,252.23" style="stroke:#A80036;stroke-width:1.0;"/><!--MD5=[785580f52a3e6f70440aa8346937db41]
link NHSReportController to MultiLinearRegression--><path codeLine="81" d="M496.09,164.12 C513.23,187.41 539.68,223.34 557.87,248.06 " fill="none" id="NHSReportController-to-MultiLinearRegression" style="stroke:#A80036;stroke-width:1.0;stroke-dasharray:7.0,7.0;"/><polygon fill="#A80036" points="560.94,252.23,558.8389,242.6079,557.9813,248.1993,552.3899,247.3418,560.94,252.23" style="stroke:#A80036;stroke-width:1.0;"/><!--MD5=[ccdda9312bc8f6c0480c93f603336f80]
link NHSReportController to SimpleLinearRegression--><path codeLine="82" d="M534.87,164.18 C574.04,180.66 627.53,203.58 674.07,225 C691.27,232.91 709.9,241.91 726.52,250.1 " fill="none" id="NHSReportController-to-SimpleLinearRegression" style="stroke:#A80036;stroke-width:1.0;stroke-dasharray:7.0,7.0;"/><polygon fill="#A80036" points="731.16,252.39,724.8603,244.8195,726.6765,250.1768,721.3191,251.9931,731.16,252.39" style="stroke:#A80036;stroke-width:1.0;"/><!--MD5=[daf3d7412afa2c7651483be0b6e971d1]
link Company to ParameterStore--><path codeLine="86" d="M897.85,318.94 C858.54,345.11 808.44,378.48 771.79,402.89 " fill="none" id="Company-to-ParameterStore" style="stroke:#A80036;stroke-width:1.0;"/><polygon fill="#A80036" points="767.39,405.82,777.0999,404.1713,771.5546,403.0531,772.6728,397.5078,767.39,405.82" style="stroke:#A80036;stroke-width:1.0;"/><text fill="#000000" font-family="sans-serif" font-size="13" lengthAdjust="spacing" textLength="28" x="834.07" y="372.4951">uses</text><text fill="#000000" font-family="sans-serif" font-size="13" lengthAdjust="spacing" textLength="7" x="883.2511" y="320.4177">1</text><text fill="#000000" font-family="sans-serif" font-size="13" lengthAdjust="spacing" textLength="7" x="769.0154" y="395.2874">1</text><!--MD5=[7f6cf7f175eae0af66201860de5de971]
link Company to TestStore--><path codeLine="87" d="M897.99,319.94 C892.08,322.97 886.06,325.73 880.07,328 C767.31,370.8 402.5,415.37 269.86,430.56 " fill="none" id="Company-to-TestStore" style="stroke:#A80036;stroke-width:1.0;"/><polygon fill="#A80036" points="264.86,431.13,274.2504,434.0998,269.8287,430.5716,273.3569,426.1498,264.86,431.13" style="stroke:#A80036;stroke-width:1.0;"/><text fill="#000000" font-family="sans-serif" font-size="13" lengthAdjust="spacing" textLength="28" x="759.07" y="372.4951">uses</text><text fill="#000000" font-family="sans-serif" font-size="13" lengthAdjust="spacing" textLength="7" x="882.9974" y="339.7048">1</text><text fill="#000000" font-family="sans-serif" font-size="13" lengthAdjust="spacing" textLength="7" x="272.6924" y="426.3706">1</text><!--MD5=[a11230341c8e65219708844feaa40162]
link Company to ClientStore--><path codeLine="88" d="M987.52,328.09 C1000.46,351.94 1015.58,379.79 1027.21,401.23 " fill="none" id="Company-to-ClientStore" style="stroke:#A80036;stroke-width:1.0;"/><polygon fill="#A80036" points="1029.63,405.7,1028.8565,395.8816,1027.2467,401.3045,1021.8238,399.6948,1029.63,405.7" style="stroke:#A80036;stroke-width:1.0;"/><text fill="#000000" font-family="sans-serif" font-size="13" lengthAdjust="spacing" textLength="28" x="1014.07" y="372.4951">uses</text><text fill="#000000" font-family="sans-serif" font-size="13" lengthAdjust="spacing" textLength="7" x="983.888" y="349.9655">1</text><text fill="#000000" font-family="sans-serif" font-size="13" lengthAdjust="spacing" textLength="7" x="1018.5174" y="395.1427">1</text><!--MD5=[a0992dda039fed1bb57aff5aacace800]
link ParameterStore to Parameter--><path codeLine="90" d="M722.07,468.23 C722.07,496.91 722.07,540.68 722.07,575.69 " fill="none" id="ParameterStore-to-Parameter" style="stroke:#A80036;stroke-width:1.0;"/><polygon fill="#A80036" points="722.07,580.79,726.07,571.79,722.07,575.79,718.07,571.79,722.07,580.79" style="stroke:#A80036;stroke-width:1.0;"/><text fill="#000000" font-family="sans-serif" font-size="13" lengthAdjust="spacing" textLength="21" x="723.07" y="512.4951">has</text><text fill="#000000" font-family="sans-serif" font-size="13" lengthAdjust="spacing" textLength="7" x="714.4028" y="489.2525">1</text><text fill="#000000" font-family="sans-serif" font-size="13" lengthAdjust="spacing" textLength="5" x="716.7341" y="570.2621">*</text><!--MD5=[b0f4f6db8206580012ef9cd998ed01c5]
link TestStore to Test--><path codeLine="91" d="M221.07,468.23 C221.07,491.34 221.07,524.27 221.07,554.5 " fill="none" id="TestStore-to-Test" style="stroke:#A80036;stroke-width:1.0;"/><polygon fill="#A80036" points="221.07,559.72,225.07,550.72,221.07,554.72,217.07,550.72,221.07,559.72" style="stroke:#A80036;stroke-width:1.0;"/><text fill="#000000" font-family="sans-serif" font-size="13" lengthAdjust="spacing" textLength="21" x="222.07" y="512.4951">has</text><text fill="#000000" font-family="sans-serif" font-size="13" lengthAdjust="spacing" textLength="7" x="213.4028" y="489.2525">1</text><text fill="#000000" font-family="sans-serif" font-size="13" lengthAdjust="spacing" textLength="5" x="215.8122" y="548.9105">*</text><!--MD5=[1d934105a045dbf126514c6917bd5072]
link ClientStore to Client--><path codeLine="92" d="M1046.07,468.23 C1046.07,487.87 1046.07,514.58 1046.07,540.71 " fill="none" id="ClientStore-to-Client" style="stroke:#A80036;stroke-width:1.0;"/><polygon fill="#A80036" points="1046.07,545.92,1050.07,536.92,1046.07,540.92,1042.07,536.92,1046.07,545.92" style="stroke:#A80036;stroke-width:1.0;"/><text fill="#000000" font-family="sans-serif" font-size="13" lengthAdjust="spacing" textLength="21" x="1047.07" y="512.4951">has</text><text fill="#000000" font-family="sans-serif" font-size="13" lengthAdjust="spacing" textLength="7" x="1038.4028" y="489.2525">1</text><text fill="#000000" font-family="sans-serif" font-size="13" lengthAdjust="spacing" textLength="5" x="1040.8473" y="535.0285">*</text><!--MD5=[fb91c065ad41daada1a12fe980fa7321]
@startuml
top to bottom direction


class Company {
-chemicalLab
- -
+getClientStore()
+getTestStore()
+getParameterStore()
}

class NHSReportUI{
}

class SimpleLinearRegressionUI{

}

class MultiLinearRegressionUI{
}

class NHSReportController{
}

class MultiLinearRegression{
}

class SimpleLinearRegression{
}

class Test {
    -tin
    -idTest
    -nhsCode
    -date
    -validationDate
    -testType
    -State
}

class TestStore {
+getTestList()
}

class ClientStore {
+getClientList();
}

class Client{
-citizenCardNumber
-name
-sex
-birthDate
-phoneNumber
-nhsNumber
-tin
-email
-address
}

class Parameter {
  -code
  -name
  -description
  -category
}

class ParameterStore {
+getParameterList()
}



NHSReportUI ..> NHSReportController
NHSReportController ..> Company
NHSReportController ..> ParameterStore
NHSReportController ..> TestStore
NHSReportController ..> ClientStore
NHSReportController ..> SimpleLinearRegressionUI
NHSReportController ..> MultiLinearRegressionUI
NHSReportController ..> MultiLinearRegression
NHSReportController ..> SimpleLinearRegression



Company "1" - -> "1" ParameterStore : uses
Company "1" - -> "1" TestStore : uses
Company "1" - -> "1" ClientStore : uses

ParameterStore "1" - -> "*" Parameter : has
TestStore "1" - -> "*" Test : has
ClientStore "1" - -> "*" Client : has


@enduml

PlantUML version 1.2021.7(Sun May 23 13:40:07 BST 2021)
(GPL source distribution)
Java Runtime: OpenJDK Runtime Environment
JVM: Dynamic Code Evolution 64-Bit Server VM
Default Encoding: Cp1252
Language: pt
Country: PT
--></g></svg>