<?xml version="1.0" encoding="UTF-8" standalone="no"?><svg xmlns="http://www.w3.org/2000/svg" xmlns:xlink="http://www.w3.org/1999/xlink" contentScriptType="application/ecmascript" contentStyleType="text/css" height="625px" preserveAspectRatio="none" style="width:1098px;height:625px;background:#FFFFFF;" version="1.1" viewBox="0 0 1098 625" width="1098px" zoomAndPan="magnify"><defs><filter height="300%" id="folilqe9ejw3a" width="300%" x="-1" y="-1"><feGaussianBlur result="blurOut" stdDeviation="2.0"/><feColorMatrix in="blurOut" result="blurOut2" type="matrix" values="0 0 0 0 0 0 0 0 0 0 0 0 0 0 0 0 0 0 .4 0"/><feOffset dx="4.0" dy="4.0" in="blurOut2" result="blurOut3"/><feBlend in="SourceGraphic" in2="blurOut3" mode="normal"/></filter></defs><g><rect fill="#FFFFFF" filter="url(#folilqe9ejw3a)" height="429.8906" style="stroke:#A80036;stroke-width:1.0;" width="10" x="69.5" y="99.6094"/><rect fill="#FFFFFF" filter="url(#folilqe9ejw3a)" height="30.3516" style="stroke:#A80036;stroke-width:1.0;" width="10" x="1025.5" y="121.9609"/><rect fill="#FFFFFF" filter="url(#folilqe9ejw3a)" height="30.3516" style="stroke:#A80036;stroke-width:1.0;" width="10" x="1025.5" y="182.6641"/><rect fill="#FFFFFF" filter="url(#folilqe9ejw3a)" height="55.7031" style="stroke:#A80036;stroke-width:1.0;" width="10" x="1025.5" y="243.3672"/><rect fill="#FFFFFF" filter="url(#folilqe9ejw3a)" height="55.7031" style="stroke:#A80036;stroke-width:1.0;" width="10" x="1025.5" y="329.4219"/><rect fill="#FFFFFF" filter="url(#folilqe9ejw3a)" height="30" style="stroke:#A80036;stroke-width:1.0;" width="10" x="1025.5" y="484.5"/><rect fill="#FFFFFF" filter="url(#folilqe9ejw3a)" height="264.1328" style="stroke:#000000;stroke-width:2.0;" width="1074.5" x="10" y="258.3672"/><rect fill="#FFFFFF" filter="url(#folilqe9ejw3a)" height="94.8906" style="stroke:#000000;stroke-width:2.0;" width="1054.5" x="20" y="344.4219"/><rect fill="#FFFFFF" height="46.1875" style="stroke:none;stroke-width:1.0;" width="1054.5" x="20" y="393.125"/><rect fill="#FFFFFF" height="76.1875" style="stroke:none;stroke-width:1.0;" width="1074.5" x="10" y="446.3125"/><line style="stroke:#A80036;stroke-width:1.0;stroke-dasharray:5.0,5.0;" x1="74" x2="74" y1="89.6094" y2="539.5"/><line style="stroke:#A80036;stroke-width:1.0;stroke-dasharray:5.0,5.0;" x1="1030.5" x2="1030.5" y1="89.6094" y2="539.5"/><text fill="#000000" font-family="sans-serif" font-size="14" lengthAdjust="spacing" textLength="83" x="30" y="86.5332">Administrator</text><ellipse cx="74.5" cy="15" fill="#FEFECE" filter="url(#folilqe9ejw3a)" rx="8" ry="8" style="stroke:#A80036;stroke-width:2.0;"/><path d="M74.5,23 L74.5,50 M61.5,31 L87.5,31 M74.5,50 L61.5,65 M74.5,50 L87.5,65 " fill="none" filter="url(#folilqe9ejw3a)" style="stroke:#A80036;stroke-width:2.0;"/><text fill="#000000" font-family="sans-serif" font-size="14" lengthAdjust="spacing" textLength="83" x="30" y="553.0332">Administrator</text><ellipse cx="74.5" cy="566.1094" fill="#FEFECE" filter="url(#folilqe9ejw3a)" rx="8" ry="8" style="stroke:#A80036;stroke-width:2.0;"/><path d="M74.5,574.1094 L74.5,601.1094 M61.5,582.1094 L87.5,582.1094 M74.5,601.1094 L61.5,616.1094 M74.5,601.1094 L87.5,616.1094 " fill="none" filter="url(#folilqe9ejw3a)" style="stroke:#A80036;stroke-width:2.0;"/><rect fill="#FEFECE" filter="url(#folilqe9ejw3a)" height="31.6094" style="stroke:#A80036;stroke-width:1.5;" width="64" x="996.5" y="53"/><text fill="#000000" font-family="sans-serif" font-size="14" lengthAdjust="spacing" textLength="50" x="1003.5" y="74.5332">:System</text><rect fill="#FEFECE" filter="url(#folilqe9ejw3a)" height="31.6094" style="stroke:#A80036;stroke-width:1.5;" width="64" x="996.5" y="538.5"/><text fill="#000000" font-family="sans-serif" font-size="14" lengthAdjust="spacing" textLength="50" x="1003.5" y="560.0332">:System</text><rect fill="#FFFFFF" filter="url(#folilqe9ejw3a)" height="429.8906" style="stroke:#A80036;stroke-width:1.0;" width="10" x="69.5" y="99.6094"/><rect fill="#FFFFFF" filter="url(#folilqe9ejw3a)" height="30.3516" style="stroke:#A80036;stroke-width:1.0;" width="10" x="1025.5" y="121.9609"/><rect fill="#FFFFFF" filter="url(#folilqe9ejw3a)" height="30.3516" style="stroke:#A80036;stroke-width:1.0;" width="10" x="1025.5" y="182.6641"/><rect fill="#FFFFFF" filter="url(#folilqe9ejw3a)" height="55.7031" style="stroke:#A80036;stroke-width:1.0;" width="10" x="1025.5" y="243.3672"/><rect fill="#FFFFFF" filter="url(#folilqe9ejw3a)" height="55.7031" style="stroke:#A80036;stroke-width:1.0;" width="10" x="1025.5" y="329.4219"/><rect fill="#FFFFFF" filter="url(#folilqe9ejw3a)" height="30" style="stroke:#A80036;stroke-width:1.0;" width="10" x="1025.5" y="484.5"/><polygon fill="#A80036" points="1013.5,117.9609,1023.5,121.9609,1013.5,125.9609,1017.5,121.9609" style="stroke:#A80036;stroke-width:1.0;"/><line style="stroke:#A80036;stroke-width:1.0;" x1="79.5" x2="1019.5" y1="121.9609" y2="121.9609"/><text fill="#000000" font-family="sans-serif" font-size="13" font-weight="bold" lengthAdjust="spacing" textLength="7" x="86.5" y="117.1045">1</text><text fill="#000000" font-family="sans-serif" font-size="13" lengthAdjust="spacing" textLength="169" x="97.5" y="117.1045">asks to send a report to NHS</text><polygon fill="#A80036" points="90.5,148.3125,80.5,152.3125,90.5,156.3125,86.5,152.3125" style="stroke:#A80036;stroke-width:1.0;"/><line style="stroke:#A80036;stroke-width:1.0;stroke-dasharray:2.0,2.0;" x1="84.5" x2="1029.5" y1="152.3125" y2="152.3125"/><text fill="#000000" font-family="sans-serif" font-size="13" font-weight="bold" lengthAdjust="spacing" textLength="7" x="96.5" y="147.4561">2</text><text fill="#000000" font-family="sans-serif" font-size="13" lengthAdjust="spacing" textLength="911" x="107.5" y="147.4561">Asks the required data(type of linear regression, number of historical days, the interval of time, confidence level,significance Level Anova and type of message)</text><polygon fill="#A80036" points="1013.5,178.6641,1023.5,182.6641,1013.5,186.6641,1017.5,182.6641" style="stroke:#A80036;stroke-width:1.0;"/><line style="stroke:#A80036;stroke-width:1.0;" x1="79.5" x2="1019.5" y1="182.6641" y2="182.6641"/><text fill="#000000" font-family="sans-serif" font-size="13" font-weight="bold" lengthAdjust="spacing" textLength="7" x="86.5" y="177.8076">3</text><text fill="#000000" font-family="sans-serif" font-size="13" lengthAdjust="spacing" textLength="108" x="97.5" y="177.8076">types request data</text><polygon fill="#A80036" points="90.5,209.0156,80.5,213.0156,90.5,217.0156,86.5,213.0156" style="stroke:#A80036;stroke-width:1.0;"/><line style="stroke:#A80036;stroke-width:1.0;stroke-dasharray:2.0,2.0;" x1="84.5" x2="1029.5" y1="213.0156" y2="213.0156"/><text fill="#000000" font-family="sans-serif" font-size="13" font-weight="bold" lengthAdjust="spacing" textLength="7" x="96.5" y="208.1592">4</text><text fill="#000000" font-family="sans-serif" font-size="13" lengthAdjust="spacing" textLength="120" x="107.5" y="208.1592">Asks to confirm data</text><polygon fill="#A80036" points="1013.5,239.3672,1023.5,243.3672,1013.5,247.3672,1017.5,243.3672" style="stroke:#A80036;stroke-width:1.0;"/><line style="stroke:#A80036;stroke-width:1.0;" x1="79.5" x2="1019.5" y1="243.3672" y2="243.3672"/><text fill="#000000" font-family="sans-serif" font-size="13" font-weight="bold" lengthAdjust="spacing" textLength="7" x="86.5" y="238.5107">5</text><text fill="#000000" font-family="sans-serif" font-size="13" lengthAdjust="spacing" textLength="80" x="97.5" y="238.5107">Confirms data</text><path d="M10,258.3672 L71,258.3672 L71,266.3672 L61,276.3672 L10,276.3672 L10,258.3672 " fill="#EEEEEE" style="stroke:#000000;stroke-width:1.0;"/><rect fill="none" height="264.1328" style="stroke:#000000;stroke-width:2.0;" width="1074.5" x="10" y="258.3672"/><text fill="#000000" font-family="sans-serif" font-size="13" font-weight="bold" lengthAdjust="spacing" textLength="16" x="25" y="272.8623">alt</text><text fill="#000000" font-family="sans-serif" font-size="11" font-weight="bold" lengthAdjust="spacing" textLength="145" x="86" y="271.7861">[Simple linear regression]</text><polygon fill="#A80036" points="90.5,295.0703,80.5,299.0703,90.5,303.0703,86.5,299.0703" style="stroke:#A80036;stroke-width:1.0;"/><line style="stroke:#A80036;stroke-width:1.0;stroke-dasharray:2.0,2.0;" x1="84.5" x2="1029.5" y1="299.0703" y2="299.0703"/><text fill="#000000" font-family="sans-serif" font-size="13" font-weight="bold" lengthAdjust="spacing" textLength="7" x="96.5" y="294.2139">6</text><text fill="#000000" font-family="sans-serif" font-size="13" lengthAdjust="spacing" textLength="518" x="107.5" y="294.2139">request which independent variable he/she wants to use to do the simple linear regression</text><polygon fill="#A80036" points="1013.5,325.4219,1023.5,329.4219,1013.5,333.4219,1017.5,329.4219" style="stroke:#A80036;stroke-width:1.0;"/><line style="stroke:#A80036;stroke-width:1.0;" x1="79.5" x2="1019.5" y1="329.4219" y2="329.4219"/><text fill="#000000" font-family="sans-serif" font-size="13" font-weight="bold" lengthAdjust="spacing" textLength="7" x="86.5" y="324.5654">7</text><text fill="#000000" font-family="sans-serif" font-size="13" lengthAdjust="spacing" textLength="315" x="97.5" y="324.5654">types the independent variable to be used in the model</text><path d="M20,344.4219 L81,344.4219 L81,352.4219 L71,362.4219 L20,362.4219 L20,344.4219 " fill="#EEEEEE" style="stroke:#000000;stroke-width:1.0;"/><rect fill="none" height="94.8906" style="stroke:#000000;stroke-width:2.0;" width="1054.5" x="20" y="344.4219"/><text fill="#000000" font-family="sans-serif" font-size="13" font-weight="bold" lengthAdjust="spacing" textLength="16" x="35" y="358.917">alt</text><text fill="#000000" font-family="sans-serif" font-size="11" font-weight="bold" lengthAdjust="spacing" textLength="37" x="96" y="357.8408">[covid]</text><polygon fill="#A80036" points="90.5,381.125,80.5,385.125,90.5,389.125,86.5,385.125" style="stroke:#A80036;stroke-width:1.0;"/><line style="stroke:#A80036;stroke-width:1.0;stroke-dasharray:2.0,2.0;" x1="84.5" x2="1029.5" y1="385.125" y2="385.125"/><text fill="#000000" font-family="sans-serif" font-size="13" font-weight="bold" lengthAdjust="spacing" textLength="7" x="96.5" y="380.2686">8</text><text fill="#000000" font-family="sans-serif" font-size="13" lengthAdjust="spacing" textLength="449" x="107.5" y="380.2686">shows covid request data, sends it to the NHS and informs operation success</text><line style="stroke:#000000;stroke-width:1.0;stroke-dasharray:2.0,2.0;" x1="20" x2="1074.5" y1="394.125" y2="394.125"/><text fill="#000000" font-family="sans-serif" font-size="11" font-weight="bold" lengthAdjust="spacing" textLength="62" x="25" y="405.5439">[mean age]</text><polygon fill="#A80036" points="90.5,427.3125,80.5,431.3125,90.5,435.3125,86.5,431.3125" style="stroke:#A80036;stroke-width:1.0;"/><line style="stroke:#A80036;stroke-width:1.0;stroke-dasharray:2.0,2.0;" x1="84.5" x2="1029.5" y1="431.3125" y2="431.3125"/><text fill="#000000" font-family="sans-serif" font-size="13" font-weight="bold" lengthAdjust="spacing" textLength="7" x="96.5" y="426.4561">9</text><text fill="#000000" font-family="sans-serif" font-size="13" lengthAdjust="spacing" textLength="477" x="107.5" y="426.4561">shows mean age request data, sends it to the NHS and informs operation success</text><line style="stroke:#000000;stroke-width:1.0;stroke-dasharray:2.0,2.0;" x1="10" x2="1084.5" y1="447.3125" y2="447.3125"/><text fill="#000000" font-family="sans-serif" font-size="11" font-weight="bold" lengthAdjust="spacing" textLength="134" x="15" y="458.7314">[Multi linear regression]</text><polygon fill="#A80036" points="90.5,480.5,80.5,484.5,90.5,488.5,86.5,484.5" style="stroke:#A80036;stroke-width:1.0;"/><line style="stroke:#A80036;stroke-width:1.0;stroke-dasharray:2.0,2.0;" x1="84.5" x2="1024.5" y1="484.5" y2="484.5"/><text fill="#000000" font-family="sans-serif" font-size="13" font-weight="bold" lengthAdjust="spacing" textLength="14" x="96.5" y="479.6436">10</text><text fill="#000000" font-family="sans-serif" font-size="13" lengthAdjust="spacing" textLength="416" x="114.5" y="479.6436">shows request data, sends it to the NHS and informs operation success</text><!--MD5=[6fc66745ab4c4efcafeeae1e161b3b15]
@startuml
autonumber
actor "Administrator" as ADMIN

activate ADMIN
ADMIN -> ":System" : asks to send a report to NHS
activate ":System"
":System" - -> ADMIN : Asks the required data(type of linear regression, number of historical days, the interval of time, confidence level,significance Level Anova and type of message)
deactivate ":System"
ADMIN -> ":System" : types request data
activate ":System"
":System" - -> ADMIN : Asks to confirm data
deactivate ":System"
ADMIN -> ":System" : Confirms data
alt Simple linear regression
activate ":System"
":System" - -> ADMIN : request which independent variable he/she wants to use to do the simple linear regression
deactivate ":System"
ADMIN -> ":System" : types the independent variable to be used in the model
activate ":System"
alt covid
":System" - -> ADMIN : shows covid request data, sends it to the NHS and informs operation success
deactivate ":System"
else mean age
":System" - -> ADMIN : shows mean age request data, sends it to the NHS and informs operation success
deactivate ":System"
end

else Multi linear regression
":System" - -> ADMIN : shows request data, sends it to the NHS and informs operation success
activate ":System"
deactivate ":System"

end
deactivate ADMIN
@enduml

PlantUML version 1.2021.7(Sun May 23 13:40:07 BST 2021)
(GPL source distribution)
Java Runtime: OpenJDK Runtime Environment
JVM: Dynamic Code Evolution 64-Bit Server VM
Default Encoding: Cp1252
Language: pt
Country: PT
--></g></svg>