<?xml version="1.0" encoding="UTF-8" standalone="no"?><svg xmlns="http://www.w3.org/2000/svg" xmlns:xlink="http://www.w3.org/1999/xlink" contentScriptType="application/ecmascript" contentStyleType="text/css" height="528px" preserveAspectRatio="none" style="width:786px;height:528px;" version="1.1" viewBox="0 0 786 528" width="786.8px" zoomAndPan="magnify"><defs><filter height="300%" id="ftkn5dzfh7ha7" width="300%" x="-1" y="-1"><feGaussianBlur result="blurOut" stdDeviation="0.8"/><feColorMatrix in="blurOut" result="blurOut2" type="matrix" values="0 0 0 0 0 0 0 0 0 0 0 0 0 0 0 0 0 0 .4 0"/><feOffset dx="1.6" dy="1.6" in="blurOut2" result="blurOut3"/><feBlend in="SourceGraphic" in2="blurOut3" mode="normal"/></filter></defs><g><!--MD5=[297be06d1afef927413126346ae76732]
class PerformanceReportUI--><rect codeLine="3" fill="#FEFECE" filter="url(#ftkn5dzfh7ha7)" height="19.2" id="PerformanceReportUI" style="stroke:#A80036;stroke-width:0.6000000000000001;" width="62" x="266.4" y="2.8"/><ellipse cx="272.4" cy="9.2" fill="#ADD1B2" rx="4.4" ry="4.4" style="stroke:#A80036;stroke-width:0.4;"/><path d="M273.3893,11.6572 Q273.1568,11.7768 272.9012,11.8365 Q272.6455,11.8963 272.3633,11.8963 Q271.3605,11.8963 270.8326,11.2355 Q270.3047,10.5748 270.3047,9.3264 Q270.3047,8.0746 270.8326,7.4139 Q271.3605,6.7531 272.3633,6.7531 Q272.6455,6.7531 272.9045,6.8129 Q273.1635,6.8727 273.3893,6.9922 L273.3893,8.0813 Q273.1369,7.8488 272.8995,7.7409 Q272.6621,7.633 272.4098,7.633 Q271.8719,7.633 271.5979,8.0597 Q271.324,8.4863 271.324,9.3264 Q271.324,10.1631 271.5979,10.5897 Q271.8719,11.0164 272.4098,11.0164 Q272.6621,11.0164 272.8995,10.9085 Q273.1369,10.8006 273.3893,10.5682 Z " fill="#000000"/><text fill="#000000" font-family="sans-serif" font-size="4.8" lengthAdjust="spacing" textLength="49.2" x="278" y="11.0141">PerformanceReportUI</text><line style="stroke:#A80036;stroke-width:0.6000000000000001;" x1="266.8" x2="328" y1="15.6" y2="15.6"/><line style="stroke:#A80036;stroke-width:0.6000000000000001;" x1="266.8" x2="328" y1="18.8" y2="18.8"/><!--MD5=[e5f29bf7eaa4039309b76177666bd102]
class GraphPerformanceReportUI--><rect codeLine="7" fill="#FEFECE" filter="url(#ftkn5dzfh7ha7)" height="19.2" id="GraphPerformanceReportUI" style="stroke:#A80036;stroke-width:0.6000000000000001;" width="76.4" x="310.8" y="46.4"/><ellipse cx="316.8" cy="52.8" fill="#ADD1B2" rx="4.4" ry="4.4" style="stroke:#A80036;stroke-width:0.4;"/><path d="M317.7893,55.2572 Q317.5568,55.3768 317.3012,55.4365 Q317.0455,55.4963 316.7633,55.4963 Q315.7605,55.4963 315.2326,54.8355 Q314.7047,54.1748 314.7047,52.9264 Q314.7047,51.6746 315.2326,51.0139 Q315.7605,50.3531 316.7633,50.3531 Q317.0455,50.3531 317.3045,50.4129 Q317.5635,50.4727 317.7893,50.5922 L317.7893,51.6813 Q317.5369,51.4488 317.2995,51.3409 Q317.0621,51.233 316.8098,51.233 Q316.2719,51.233 315.9979,51.6597 Q315.724,52.0863 315.724,52.9264 Q315.724,53.7631 315.9979,54.1897 Q316.2719,54.6164 316.8098,54.6164 Q317.0621,54.6164 317.2995,54.5085 Q317.5369,54.4006 317.7893,54.1682 Z " fill="#000000"/><text fill="#000000" font-family="sans-serif" font-size="4.8" lengthAdjust="spacing" textLength="63.6" x="322.4" y="54.6141">GraphPerformanceReportUI</text><line style="stroke:#A80036;stroke-width:0.6000000000000001;" x1="311.2" x2="386.8" y1="59.2" y2="59.2"/><line style="stroke:#A80036;stroke-width:0.6000000000000001;" x1="311.2" x2="386.8" y1="62.4" y2="62.4"/><!--MD5=[1b49d5c7a8e56889a69357a064a56e54]
class PerformanceReportController--><rect codeLine="11" fill="#FEFECE" filter="url(#ftkn5dzfh7ha7)" height="107.2945" id="PerformanceReportController" style="stroke:#A80036;stroke-width:0.6000000000000001;" width="171.2" x="211.8" y="90"/><ellipse cx="262.1" cy="96.4" fill="#ADD1B2" rx="4.4" ry="4.4" style="stroke:#A80036;stroke-width:0.4;"/><path d="M263.0893,98.8572 Q262.8568,98.9768 262.6012,99.0365 Q262.3455,99.0963 262.0633,99.0963 Q261.0605,99.0963 260.5326,98.4355 Q260.0047,97.7748 260.0047,96.5264 Q260.0047,95.2746 260.5326,94.6139 Q261.0605,93.9531 262.0633,93.9531 Q262.3455,93.9531 262.6045,94.0129 Q262.8635,94.0727 263.0893,94.1922 L263.0893,95.2813 Q262.8369,95.0488 262.5995,94.9409 Q262.3621,94.833 262.1098,94.833 Q261.5719,94.833 261.2979,95.2597 Q261.024,95.6863 261.024,96.5264 Q261.024,97.3631 261.2979,97.7897 Q261.5719,98.2164 262.1098,98.2164 Q262.3621,98.2164 262.5995,98.1085 Q262.8369,98.0006 263.0893,97.7682 Z " fill="#000000"/><text fill="#000000" font-family="sans-serif" font-size="4.8" lengthAdjust="spacing" textLength="67.2" x="270.3" y="98.2141">PerformanceReportController</text><line style="stroke:#A80036;stroke-width:0.6000000000000001;" x1="212.2" x2="382.6" y1="102.8" y2="102.8"/><text fill="#000000" font-family="sans-serif" font-size="4.4" lengthAdjust="spacing" textLength="110.8" x="214.2" y="108.6539">-PerformanceReportStore performanceReportStore;</text><text fill="#000000" font-family="sans-serif" font-size="4.4" lengthAdjust="spacing" textLength="44.4" x="214.2" y="113.8359">-TestStore testStore;</text><text fill="#000000" font-family="sans-serif" font-size="4.4" lengthAdjust="spacing" textLength="56" x="214.2" y="119.018">-ClientsStore clientsStore;</text><text fill="#000000" font-family="sans-serif" font-size="4.4" lengthAdjust="spacing" textLength="88.4" x="214.2" y="124.2">-PerformanceReport performanceReport;</text><text fill="#000000" font-family="sans-serif" font-size="4.4" lengthAdjust="spacing" textLength="4.8" x="214.2" y="129.382">--</text><line style="stroke:#A80036;stroke-width:0.6000000000000001;" x1="212.2" x2="382.6" y1="131.9102" y2="131.9102"/><text fill="#000000" font-family="sans-serif" font-size="4.4" lengthAdjust="spacing" textLength="133.6" x="214.2" y="137.7641">+createReport(Date startDateIn, Date endDateIn, int algorithm)</text><text fill="#000000" font-family="sans-serif" font-size="4.4" lengthAdjust="spacing" textLength="132.4" x="214.2" y="142.9461">-createReport(Date startDateIn, Date endDateIn, int algorithm)</text><text fill="#000000" font-family="sans-serif" font-size="4.4" lengthAdjust="spacing" textLength="137.2" x="214.2" y="148.1281">-countClients(LocalDateTime startDate, LocalDateTime endDate)</text><text fill="#000000" font-family="sans-serif" font-size="4.4" lengthAdjust="spacing" textLength="136.8" x="214.2" y="153.3102">-fillDataArray(LocalDateTime startDate, LocalDateTime endDate)</text><text fill="#000000" font-family="sans-serif" font-size="4.4" lengthAdjust="spacing" textLength="119.2" x="214.2" y="158.4922">-countPeriods(LocalDateTime start, LocalDateTime end)</text><text fill="#000000" font-family="sans-serif" font-size="4.4" lengthAdjust="spacing" textLength="160" x="214.2" y="163.6742">-periodIndex(LocalDateTime start, LocalDateTime end, LocalDateTime tmp)</text><text fill="#000000" font-family="sans-serif" font-size="4.4" lengthAdjust="spacing" textLength="99.6" x="214.2" y="168.8563">-createPeriodicGrowth(int[][] data, int periods)</text><text fill="#000000" font-family="sans-serif" font-size="4.4" lengthAdjust="spacing" textLength="166.4" x="214.2" y="174.0383">-createBasicPeriodicDataList(LocalDateTime startDate, int[][] data, int periods)</text><text fill="#000000" font-family="sans-serif" font-size="4.4" lengthAdjust="spacing" textLength="58" x="214.2" y="179.2203">+savePerformanceReport()</text><text fill="#000000" font-family="sans-serif" font-size="4.4" lengthAdjust="spacing" textLength="84.8" x="214.2" y="184.4023">+getDataPerformanceReportSummary()</text><text fill="#000000" font-family="sans-serif" font-size="4.4" lengthAdjust="spacing" textLength="21.2" x="214.2" y="189.5844">+getList()</text><text fill="#000000" font-family="sans-serif" font-size="4.4" lengthAdjust="spacing" textLength="55.2" x="214.2" y="194.7664">+getPerformanceReport()</text><!--MD5=[02e4b9b7573f1156f41e60aa5b4e25a4]
class Company--><rect codeLine="32" fill="#FEFECE" filter="url(#ftkn5dzfh7ha7)" height="55.4742" id="Company" style="stroke:#A80036;stroke-width:0.6000000000000001;" width="114" x="240.4" y="221.6"/><ellipse cx="284.9" cy="228" fill="#ADD1B2" rx="4.4" ry="4.4" style="stroke:#A80036;stroke-width:0.4;"/><path d="M285.8893,230.4572 Q285.6568,230.5768 285.4012,230.6365 Q285.1455,230.6963 284.8633,230.6963 Q283.8605,230.6963 283.3326,230.0355 Q282.8047,229.3748 282.8047,228.1264 Q282.8047,226.8746 283.3326,226.2139 Q283.8605,225.5531 284.8633,225.5531 Q285.1455,225.5531 285.4045,225.6129 Q285.6635,225.6727 285.8893,225.7922 L285.8893,226.8813 Q285.6369,226.6488 285.3995,226.5409 Q285.1621,226.433 284.9098,226.433 Q284.3719,226.433 284.0979,226.8597 Q283.824,227.2863 283.824,228.1264 Q283.824,228.9631 284.0979,229.3897 Q284.3719,229.8164 284.9098,229.8164 Q285.1621,229.8164 285.3995,229.7085 Q285.6369,229.6006 285.8893,229.3682 Z " fill="#000000"/><text fill="#000000" font-family="sans-serif" font-size="4.8" lengthAdjust="spacing" textLength="21.6" x="293.1" y="229.8141">Company</text><line style="stroke:#A80036;stroke-width:0.6000000000000001;" x1="240.8" x2="354" y1="234.4" y2="234.4"/><text fill="#000000" font-family="sans-serif" font-size="4.4" lengthAdjust="spacing" textLength="41.6" x="242.8" y="240.2539">-String designation</text><text fill="#000000" font-family="sans-serif" font-size="4.4" lengthAdjust="spacing" textLength="109.2" x="242.8" y="245.4359">-PerformanceReportStore PerformanceReportStore</text><text fill="#000000" font-family="sans-serif" font-size="4.4" lengthAdjust="spacing" textLength="43.2" x="242.8" y="250.618">-TestStore testStore</text><text fill="#000000" font-family="sans-serif" font-size="4.4" lengthAdjust="spacing" textLength="54.8" x="242.8" y="255.8">-ClientsStore clientsStore</text><line style="stroke:#A80036;stroke-width:0.4;" x1="240.8" x2="354" y1="258.3281" y2="258.3281"/><text fill="#000000" font-family="sans-serif" font-size="4.4" lengthAdjust="spacing" textLength="66.4" x="242.8" y="264.182">+getPerformanceReportStore()</text><text fill="#000000" font-family="sans-serif" font-size="4.4" lengthAdjust="spacing" textLength="34" x="242.8" y="269.3641">+getTestStore()</text><text fill="#000000" font-family="sans-serif" font-size="4.4" lengthAdjust="spacing" textLength="39.6" x="242.8" y="274.5461">+getClientsStore()</text><!--MD5=[0f6f7964b844a64b0496af0dda7914bd]
class TestStore--><rect codeLine="43" fill="#FEFECE" filter="url(#ftkn5dzfh7ha7)" height="29.5641" id="TestStore" style="stroke:#A80036;stroke-width:0.6000000000000001;" width="51.6" x="2.8" y="331.4"/><ellipse cx="16.54" cy="337.8" fill="#ADD1B2" rx="4.4" ry="4.4" style="stroke:#A80036;stroke-width:0.4;"/><path d="M17.5293,340.2572 Q17.2968,340.3768 17.0412,340.4365 Q16.7855,340.4963 16.5033,340.4963 Q15.5005,340.4963 14.9726,339.8355 Q14.4447,339.1748 14.4447,337.9264 Q14.4447,336.6746 14.9726,336.0139 Q15.5005,335.3531 16.5033,335.3531 Q16.7855,335.3531 17.0445,335.4129 Q17.3035,335.4727 17.5293,335.5922 L17.5293,336.6813 Q17.2769,336.4488 17.0395,336.3409 Q16.8021,336.233 16.5498,336.233 Q16.0119,336.233 15.7379,336.6597 Q15.464,337.0863 15.464,337.9264 Q15.464,338.7631 15.7379,339.1897 Q16.0119,339.6164 16.5498,339.6164 Q16.8021,339.6164 17.0395,339.5085 Q17.2769,339.4006 17.5293,339.1682 Z " fill="#000000"/><text fill="#000000" font-family="sans-serif" font-size="4.8" lengthAdjust="spacing" textLength="21.6" x="23.86" y="339.6141">TestStore</text><line style="stroke:#A80036;stroke-width:0.6000000000000001;" x1="3.2" x2="54" y1="344.2" y2="344.2"/><text fill="#000000" font-family="sans-serif" font-size="4.4" lengthAdjust="spacing" textLength="46.8" x="5.2" y="350.0539">-List&lt;Test&gt; testStore</text><line style="stroke:#A80036;stroke-width:0.4;" x1="3.2" x2="54" y1="352.582" y2="352.582"/><text fill="#000000" font-family="sans-serif" font-size="4.4" lengthAdjust="spacing" textLength="30.4" x="5.2" y="358.4359">+getTestList()</text><!--MD5=[df38be88ccee13e832d6fafd6288a4ca]
class Test--><rect codeLine="49" fill="#FEFECE" filter="url(#ftkn5dzfh7ha7)" height="65.8383" id="Test" style="stroke:#A80036;stroke-width:0.6000000000000001;" width="70.4" x="31" y="435.8"/><ellipse cx="59.5" cy="442.2" fill="#ADD1B2" rx="4.4" ry="4.4" style="stroke:#A80036;stroke-width:0.4;"/><path d="M60.4893,444.6572 Q60.2568,444.7768 60.0012,444.8365 Q59.7455,444.8963 59.4633,444.8963 Q58.4605,444.8963 57.9326,444.2355 Q57.4047,443.5748 57.4047,442.3264 Q57.4047,441.0746 57.9326,440.4139 Q58.4605,439.7531 59.4633,439.7531 Q59.7455,439.7531 60.0045,439.8129 Q60.2635,439.8727 60.4893,439.9922 L60.4893,441.0813 Q60.2369,440.8488 59.9995,440.7409 Q59.7621,440.633 59.5098,440.633 Q58.9719,440.633 58.6979,441.0597 Q58.424,441.4863 58.424,442.3264 Q58.424,443.1631 58.6979,443.5897 Q58.9719,444.0164 59.5098,444.0164 Q59.7621,444.0164 59.9995,443.9085 Q60.2369,443.8006 60.4893,443.5682 Z " fill="#000000"/><text fill="#000000" font-family="sans-serif" font-size="4.8" lengthAdjust="spacing" textLength="10" x="67.7" y="444.0141">Test</text><line style="stroke:#A80036;stroke-width:0.6000000000000001;" x1="31.4" x2="101" y1="448.6" y2="448.6"/><text fill="#000000" font-family="sans-serif" font-size="4.4" lengthAdjust="spacing" textLength="22" x="33.4" y="454.4539">-String tin</text><text fill="#000000" font-family="sans-serif" font-size="4.4" lengthAdjust="spacing" textLength="44" x="33.4" y="459.6359">-LocalDateTime date</text><text fill="#000000" font-family="sans-serif" font-size="4.4" lengthAdjust="spacing" textLength="57.6" x="33.4" y="464.818">-LocalDateTime ResultDate</text><text fill="#000000" font-family="sans-serif" font-size="4.4" lengthAdjust="spacing" textLength="65.6" x="33.4" y="470">-LocalDateTime ValidationDate</text><text fill="#000000" font-family="sans-serif" font-size="4.4" lengthAdjust="spacing" textLength="49.6" x="33.4" y="475.182">-TestReport testReport</text><line style="stroke:#A80036;stroke-width:0.4;" x1="31.4" x2="101" y1="477.7102" y2="477.7102"/><text fill="#000000" font-family="sans-serif" font-size="4.4" lengthAdjust="spacing" textLength="17.2" x="33.4" y="483.5641">+getTin</text><text fill="#000000" font-family="sans-serif" font-size="4.4" lengthAdjust="spacing" textLength="20" x="33.4" y="488.7461">+getDate</text><text fill="#000000" font-family="sans-serif" font-size="4.4" lengthAdjust="spacing" textLength="33.2" x="33.4" y="493.9281">+getResultDate</text><text fill="#000000" font-family="sans-serif" font-size="4.4" lengthAdjust="spacing" textLength="41.2" x="33.4" y="499.1102">+getValidationDate</text><!--MD5=[1440c33e6e2d06f1d65157f758d3adef]
class TestReport--><rect codeLine="62" fill="#FEFECE" filter="url(#ftkn5dzfh7ha7)" height="29.5641" id="TestReport" style="stroke:#A80036;stroke-width:0.6000000000000001;" width="49.2" x="68.4" y="331.4"/><ellipse cx="79.26" cy="337.8" fill="#ADD1B2" rx="4.4" ry="4.4" style="stroke:#A80036;stroke-width:0.4;"/><path d="M80.2493,340.2572 Q80.0168,340.3768 79.7612,340.4365 Q79.5055,340.4963 79.2233,340.4963 Q78.2205,340.4963 77.6926,339.8355 Q77.1647,339.1748 77.1647,337.9264 Q77.1647,336.6746 77.6926,336.0139 Q78.2205,335.3531 79.2233,335.3531 Q79.5055,335.3531 79.7645,335.4129 Q80.0235,335.4727 80.2493,335.5922 L80.2493,336.6813 Q79.9969,336.4488 79.7595,336.3409 Q79.5221,336.233 79.2698,336.233 Q78.7319,336.233 78.4579,336.6597 Q78.184,337.0863 78.184,337.9264 Q78.184,338.7631 78.4579,339.1897 Q78.7319,339.6164 79.2698,339.6164 Q79.5221,339.6164 79.7595,339.5085 Q79.9969,339.4006 80.2493,339.1682 Z " fill="#000000"/><text fill="#000000" font-family="sans-serif" font-size="4.8" lengthAdjust="spacing" textLength="25.6" x="85.94" y="339.6141">TestReport</text><line style="stroke:#A80036;stroke-width:0.6000000000000001;" x1="68.8" x2="117.2" y1="344.2" y2="344.2"/><text fill="#000000" font-family="sans-serif" font-size="4.4" lengthAdjust="spacing" textLength="44.4" x="70.8" y="350.0539">-LocalDateTime Date</text><line style="stroke:#A80036;stroke-width:0.4;" x1="68.8" x2="117.2" y1="352.582" y2="352.582"/><text fill="#000000" font-family="sans-serif" font-size="4.4" lengthAdjust="spacing" textLength="20" x="70.8" y="358.4359">+getDate</text><!--MD5=[51343ca5669a2e9191476a98c5902261]
class ClientsStore--><rect codeLine="68" fill="#FEFECE" filter="url(#ftkn5dzfh7ha7)" height="29.5641" id="ClientsStore" style="stroke:#A80036;stroke-width:0.6000000000000001;" width="61.6" x="131.8" y="331.4"/><ellipse cx="147.7" cy="337.8" fill="#ADD1B2" rx="4.4" ry="4.4" style="stroke:#A80036;stroke-width:0.4;"/><path d="M148.6893,340.2572 Q148.4568,340.3768 148.2012,340.4365 Q147.9455,340.4963 147.6633,340.4963 Q146.6605,340.4963 146.1326,339.8355 Q145.6047,339.1748 145.6047,337.9264 Q145.6047,336.6746 146.1326,336.0139 Q146.6605,335.3531 147.6633,335.3531 Q147.9455,335.3531 148.2045,335.4129 Q148.4635,335.4727 148.6893,335.5922 L148.6893,336.6813 Q148.4369,336.4488 148.1995,336.3409 Q147.9621,336.233 147.7098,336.233 Q147.1719,336.233 146.8979,336.6597 Q146.624,337.0863 146.624,337.9264 Q146.624,338.7631 146.8979,339.1897 Q147.1719,339.6164 147.7098,339.6164 Q147.9621,339.6164 148.1995,339.5085 Q148.4369,339.4006 148.6893,339.1682 Z " fill="#000000"/><text fill="#000000" font-family="sans-serif" font-size="4.8" lengthAdjust="spacing" textLength="26.8" x="155.5" y="339.6141">ClientsStore</text><line style="stroke:#A80036;stroke-width:0.6000000000000001;" x1="132.2" x2="193" y1="344.2" y2="344.2"/><text fill="#000000" font-family="sans-serif" font-size="4.4" lengthAdjust="spacing" textLength="56.8" x="134.2" y="350.0539">-List&lt;Client&gt; ClientsStore</text><line style="stroke:#A80036;stroke-width:0.4;" x1="132.2" x2="193" y1="352.582" y2="352.582"/><text fill="#000000" font-family="sans-serif" font-size="4.4" lengthAdjust="spacing" textLength="36" x="134.2" y="358.4359">+getClientsList()</text><!--MD5=[ed6624c6556d5e7b1bd23032162d20b7]
class Client--><rect codeLine="74" fill="#FEFECE" filter="url(#ftkn5dzfh7ha7)" height="29.5641" id="Client" style="stroke:#A80036;stroke-width:0.6000000000000001;" width="26.8" x="149.2" y="454"/><ellipse cx="155.74" cy="460.4" fill="#ADD1B2" rx="4.4" ry="4.4" style="stroke:#A80036;stroke-width:0.4;"/><path d="M156.7293,462.8572 Q156.4968,462.9768 156.2412,463.0365 Q155.9855,463.0963 155.7033,463.0963 Q154.7005,463.0963 154.1726,462.4355 Q153.6447,461.7748 153.6447,460.5264 Q153.6447,459.2746 154.1726,458.6139 Q154.7005,457.9531 155.7033,457.9531 Q155.9855,457.9531 156.2445,458.0129 Q156.5035,458.0727 156.7293,458.1922 L156.7293,459.2813 Q156.4769,459.0488 156.2395,458.9409 Q156.0021,458.833 155.7498,458.833 Q155.2119,458.833 154.9379,459.2597 Q154.664,459.6863 154.664,460.5264 Q154.664,461.3631 154.9379,461.7897 Q155.2119,462.2164 155.7498,462.2164 Q156.0021,462.2164 156.2395,462.1085 Q156.4769,462.0006 156.7293,461.7682 Z " fill="#000000"/><text fill="#000000" font-family="sans-serif" font-size="4.8" lengthAdjust="spacing" textLength="12.8" x="161.46" y="462.2141">Client</text><line style="stroke:#A80036;stroke-width:0.6000000000000001;" x1="149.6" x2="175.6" y1="466.8" y2="466.8"/><text fill="#000000" font-family="sans-serif" font-size="4.4" lengthAdjust="spacing" textLength="22" x="151.6" y="472.6539">-String tin</text><line style="stroke:#A80036;stroke-width:0.4;" x1="149.6" x2="175.6" y1="475.182" y2="475.182"/><text fill="#000000" font-family="sans-serif" font-size="4.4" lengthAdjust="spacing" textLength="20.4" x="151.6" y="481.0359">+getTin()</text><!--MD5=[ec599613d695be233479fdeda6ef69ac]
class PerformanceReport--><rect codeLine="80" fill="#FEFECE" filter="url(#ftkn5dzfh7ha7)" height="107.2945" id="PerformanceReport" style="stroke:#A80036;stroke-width:0.6000000000000001;" width="118.8" x="204" y="415.2"/><ellipse cx="239.3" cy="421.6" fill="#ADD1B2" rx="4.4" ry="4.4" style="stroke:#A80036;stroke-width:0.4;"/><path d="M240.2893,424.0572 Q240.0568,424.1768 239.8012,424.2365 Q239.5455,424.2963 239.2633,424.2963 Q238.2605,424.2963 237.7326,423.6355 Q237.2047,422.9748 237.2047,421.7264 Q237.2047,420.4746 237.7326,419.8139 Q238.2605,419.1531 239.2633,419.1531 Q239.5455,419.1531 239.8045,419.2129 Q240.0635,419.2727 240.2893,419.3922 L240.2893,420.4813 Q240.0369,420.2488 239.7995,420.1409 Q239.5621,420.033 239.3098,420.033 Q238.7719,420.033 238.4979,420.4597 Q238.224,420.8863 238.224,421.7264 Q238.224,422.5631 238.4979,422.9897 Q238.7719,423.4164 239.3098,423.4164 Q239.5621,423.4164 239.7995,423.3085 Q240.0369,423.2006 240.2893,422.9682 Z " fill="#000000"/><text fill="#000000" font-family="sans-serif" font-size="4.8" lengthAdjust="spacing" textLength="44.8" x="247.5" y="423.4141">PerformanceReport</text><line style="stroke:#A80036;stroke-width:0.6000000000000001;" x1="204.4" x2="322.4" y1="428" y2="428"/><text fill="#000000" font-family="sans-serif" font-size="4.4" lengthAdjust="spacing" textLength="76.8" x="206.4" y="433.8539">+String performanceReportNumber</text><text fill="#000000" font-family="sans-serif" font-size="4.4" lengthAdjust="spacing" textLength="65.6" x="206.4" y="439.0359">+LocalDateTime dateTimeStart</text><text fill="#000000" font-family="sans-serif" font-size="4.4" lengthAdjust="spacing" textLength="63.6" x="206.4" y="444.218">+LocalDateTime dateTimeEnd</text><text fill="#000000" font-family="sans-serif" font-size="4.4" lengthAdjust="spacing" textLength="82.8" x="206.4" y="449.4">+LocalDateTime dateLessEffectiveStart</text><text fill="#000000" font-family="sans-serif" font-size="4.4" lengthAdjust="spacing" textLength="80.8" x="206.4" y="454.582">+LocalDateTime dateLessEffectiveEnd</text><text fill="#000000" font-family="sans-serif" font-size="4.4" lengthAdjust="spacing" textLength="34.8" x="206.4" y="459.7641">+int totalClients</text><text fill="#000000" font-family="sans-serif" font-size="4.4" lengthAdjust="spacing" textLength="31.6" x="206.4" y="464.9461">+int totalTests</text><text fill="#000000" font-family="sans-serif" font-size="4.4" lengthAdjust="spacing" textLength="35.6" x="206.4" y="470.1281">+int totalResults</text><text fill="#000000" font-family="sans-serif" font-size="4.4" lengthAdjust="spacing" textLength="45.2" x="206.4" y="475.3102">+int totalDiagnostics</text><text fill="#000000" font-family="sans-serif" font-size="4.4" lengthAdjust="spacing" textLength="43.6" x="206.4" y="480.4922">+int totalValidations</text><text fill="#000000" font-family="sans-serif" font-size="4.4" lengthAdjust="spacing" textLength="114" x="206.4" y="485.6742">+ArrayList&lt;PerformanceData&gt; basicPeriodicDataList</text><text fill="#000000" font-family="sans-serif" font-size="4.4" lengthAdjust="spacing" textLength="59.2" x="206.4" y="490.8563">+double[][] periodicGrowth</text><text fill="#000000" font-family="sans-serif" font-size="4.4" lengthAdjust="spacing" textLength="51.2" x="206.4" y="496.0383">+int[] analysisSequence</text><text fill="#000000" font-family="sans-serif" font-size="4.4" lengthAdjust="spacing" textLength="47.2" x="206.4" y="501.2203">+int[] subSeqMaxSum</text><line style="stroke:#A80036;stroke-width:0.4;" x1="204.4" x2="322.4" y1="503.7484" y2="503.7484"/><text fill="#000000" font-family="sans-serif" font-size="4.4" lengthAdjust="spacing" textLength="52" x="206.4" y="509.6023">+getAnalysisSequence()</text><text fill="#000000" font-family="sans-serif" font-size="4.4" lengthAdjust="spacing" textLength="77.6" x="206.4" y="514.7844">+dataPerformanceReportSummary()</text><text fill="#000000" font-family="sans-serif" font-size="4.4" lengthAdjust="spacing" textLength="49.2" x="206.4" y="519.9664">-countBasicTotalData()</text><!--MD5=[7b310f299493b5f495e6dc5de2ba7c23]
class PerformanceData--><rect codeLine="101" fill="#FEFECE" filter="url(#ftkn5dzfh7ha7)" height="76.2023" id="PerformanceData" style="stroke:#A80036;stroke-width:0.6000000000000001;" width="61.6" x="207.4" y="308"/><ellipse cx="217.36" cy="314.4" fill="#ADD1B2" rx="4.4" ry="4.4" style="stroke:#A80036;stroke-width:0.4;"/><path d="M218.3493,316.8572 Q218.1168,316.9768 217.8612,317.0365 Q217.6055,317.0963 217.3233,317.0963 Q216.3205,317.0963 215.7926,316.4355 Q215.2647,315.7748 215.2647,314.5264 Q215.2647,313.2746 215.7926,312.6139 Q216.3205,311.9531 217.3233,311.9531 Q217.6055,311.9531 217.8645,312.0129 Q218.1235,312.0727 218.3493,312.1922 L218.3493,313.2813 Q218.0969,313.0488 217.8595,312.9409 Q217.6221,312.833 217.3698,312.833 Q216.8319,312.833 216.5579,313.2597 Q216.284,313.6863 216.284,314.5264 Q216.284,315.3631 216.5579,315.7897 Q216.8319,316.2164 217.3698,316.2164 Q217.6221,316.2164 217.8595,316.1085 Q218.0969,316.0006 218.3493,315.7682 Z " fill="#000000"/><text fill="#000000" font-family="sans-serif" font-size="4.8" lengthAdjust="spacing" textLength="40" x="223.84" y="316.2141">PerformanceData</text><line style="stroke:#A80036;stroke-width:0.6000000000000001;" x1="207.8" x2="268.6" y1="320.8" y2="320.8"/><text fill="#000000" font-family="sans-serif" font-size="4.4" lengthAdjust="spacing" textLength="56.8" x="209.8" y="326.6539">+LocalDateTime dateTime;</text><text fill="#000000" font-family="sans-serif" font-size="4.4" lengthAdjust="spacing" textLength="31.6" x="209.8" y="331.8359">+int newTests;</text><text fill="#000000" font-family="sans-serif" font-size="4.4" lengthAdjust="spacing" textLength="35.6" x="209.8" y="337.018">+int newResults;</text><text fill="#000000" font-family="sans-serif" font-size="4.4" lengthAdjust="spacing" textLength="45.2" x="209.8" y="342.2">+int newDiagnostics;</text><text fill="#000000" font-family="sans-serif" font-size="4.4" lengthAdjust="spacing" textLength="43.6" x="209.8" y="347.382">+int newValidations;</text><text fill="#000000" font-family="sans-serif" font-size="4.4" lengthAdjust="spacing" textLength="4.8" x="209.8" y="352.5641">--</text><line style="stroke:#A80036;stroke-width:0.6000000000000001;" x1="207.8" x2="268.6" y1="355.0922" y2="355.0922"/><text fill="#000000" font-family="sans-serif" font-size="4.4" lengthAdjust="spacing" textLength="33.6" x="209.8" y="360.9461">+getDateTime()</text><text fill="#000000" font-family="sans-serif" font-size="4.4" lengthAdjust="spacing" textLength="34" x="209.8" y="366.1281">+getNewTests()</text><text fill="#000000" font-family="sans-serif" font-size="4.4" lengthAdjust="spacing" textLength="38" x="209.8" y="371.3102">+getNewResults()</text><text fill="#000000" font-family="sans-serif" font-size="4.4" lengthAdjust="spacing" textLength="47.6" x="209.8" y="376.4922">+getNewDiagnostics()</text><text fill="#000000" font-family="sans-serif" font-size="4.4" lengthAdjust="spacing" textLength="46" x="209.8" y="381.6742">+getNewValidations()</text><!--MD5=[356a92a7db410f73b10cc8e1feaff909]
class PerformanceReportStore--><rect codeLine="115" fill="#FEFECE" filter="url(#ftkn5dzfh7ha7)" height="50.2922" id="PerformanceReportStore" style="stroke:#A80036;stroke-width:0.6000000000000001;" width="373.2" x="283.2" y="321"/><ellipse cx="439.9" cy="327.4" fill="#ADD1B2" rx="4.4" ry="4.4" style="stroke:#A80036;stroke-width:0.4;"/><path d="M440.8893,329.8572 Q440.6568,329.9768 440.4012,330.0365 Q440.1455,330.0963 439.8633,330.0963 Q438.8605,330.0963 438.3326,329.4355 Q437.8047,328.7748 437.8047,327.5264 Q437.8047,326.2746 438.3326,325.6139 Q438.8605,324.9531 439.8633,324.9531 Q440.1455,324.9531 440.4045,325.0129 Q440.6635,325.0727 440.8893,325.1922 L440.8893,326.2813 Q440.6369,326.0488 440.3995,325.9409 Q440.1621,325.833 439.9098,325.833 Q439.3719,325.833 439.0979,326.2597 Q438.824,326.6863 438.824,327.5264 Q438.824,328.3631 439.0979,328.7897 Q439.3719,329.2164 439.9098,329.2164 Q440.1621,329.2164 440.3995,329.1085 Q440.6369,329.0006 440.8893,328.7682 Z " fill="#000000"/><text fill="#000000" font-family="sans-serif" font-size="4.8" lengthAdjust="spacing" textLength="56.4" x="448.1" y="329.2141">PerformanceReportStore</text><line style="stroke:#A80036;stroke-width:0.6000000000000001;" x1="283.6" x2="656" y1="333.8" y2="333.8"/><text fill="#000000" font-family="sans-serif" font-size="4.4" lengthAdjust="spacing" textLength="112.8" x="285.6" y="339.6539">-List&lt;PerformanceReport&gt; PerformanceReportStore</text><line style="stroke:#A80036;stroke-width:0.4;" x1="283.6" x2="656" y1="342.182" y2="342.182"/><text fill="#000000" font-family="sans-serif" font-size="4.4" lengthAdjust="spacing" textLength="368.4" x="285.6" y="348.0359">+createPerformanceReport(String Number, LDT Start, LDT End, LDT LessEffStart, LDT LessEffEnd, List&lt;PData&gt; DataList, double[][] Growth, int Clients,  int[] Seq, int[] subSeq)</text><text fill="#000000" font-family="sans-serif" font-size="4.4" lengthAdjust="spacing" textLength="149.6" x="285.6" y="353.218">+validatePerformanceReport(PerformanceReport performanceReport)</text><text fill="#000000" font-family="sans-serif" font-size="4.4" lengthAdjust="spacing" textLength="142.8" x="285.6" y="358.4">+savePerformanceReport(PerformanceReport performanceReport)</text><text fill="#000000" font-family="sans-serif" font-size="4.4" lengthAdjust="spacing" textLength="62.8" x="285.6" y="363.582">+getPerformanceReportList()</text><text fill="#000000" font-family="sans-serif" font-size="4.4" lengthAdjust="spacing" textLength="64" x="285.6" y="368.7641">+getLastPerformanceReport()</text><!--MD5=[906c13292466ef8f691e0eddcb38335d]
class PerformanceAlgorithms--><rect codeLine="125" fill="#FEFECE" filter="url(#ftkn5dzfh7ha7)" height="29.5641" id="PerformanceAlgorithms" style="stroke:#A80036;stroke-width:0.6000000000000001;" width="110.8" x="670.4" y="331.4"/><ellipse cx="697.3" cy="337.8" fill="#ADD1B2" rx="4.4" ry="4.4" style="stroke:#A80036;stroke-width:0.4;"/><path d="M698.2893,340.2572 Q698.0568,340.3768 697.8012,340.4365 Q697.5455,340.4963 697.2633,340.4963 Q696.2605,340.4963 695.7326,339.8355 Q695.2047,339.1748 695.2047,337.9264 Q695.2047,336.6746 695.7326,336.0139 Q696.2605,335.3531 697.2633,335.3531 Q697.5455,335.3531 697.8045,335.4129 Q698.0635,335.4727 698.2893,335.5922 L698.2893,336.6813 Q698.0369,336.4488 697.7995,336.3409 Q697.5621,336.233 697.3098,336.233 Q696.7719,336.233 696.4979,336.6597 Q696.224,337.0863 696.224,337.9264 Q696.224,338.7631 696.4979,339.1897 Q696.7719,339.6164 697.3098,339.6164 Q697.5621,339.6164 697.7995,339.5085 Q698.0369,339.4006 698.2893,339.1682 Z " fill="#000000"/><text fill="#000000" font-family="sans-serif" font-size="4.8" lengthAdjust="spacing" textLength="53.6" x="705.5" y="339.6141">PerformanceAlgorithms</text><line style="stroke:#A80036;stroke-width:0.6000000000000001;" x1="670.8" x2="780.8" y1="344.2" y2="344.2"/><line style="stroke:#A80036;stroke-width:0.4;" x1="670.8" x2="780.8" y1="347.4" y2="347.4"/><text fill="#000000" font-family="sans-serif" font-size="4.4" lengthAdjust="spacing" textLength="69.6" x="672.8" y="353.2539">+bruteForceAlgorithm(int[] seq)</text><text fill="#000000" font-family="sans-serif" font-size="4.4" lengthAdjust="spacing" textLength="106" x="672.8" y="358.4359">+findSubSeqIndexes(int[] sequence, int[] subSeq)</text><!--MD5=[8bed13622182c85e1acbcb7746c50587]
link PerformanceReportUI to PerformanceReportController--><path codeLine="131" d="M297.4,22.072 C297.4,35.856 297.4,62.804 297.4,87.792 " fill="none" id="PerformanceReportUI-to-PerformanceReportController" style="stroke:#A80036;stroke-width:0.4;stroke-dasharray:7.0,7.0;"/><polygon fill="#A80036" points="297.4,89.892,299,86.292,297.4,87.892,295.8,86.292,297.4,89.892" style="stroke:#A80036;stroke-width:0.4;"/><!--MD5=[72dc46e23f041376a037a4e88bd6e736]
link PerformanceReportUI to GraphPerformanceReportUI--><path codeLine="132" d="M308.596,22.088 C316.744,28.844 327.788,38.008 336.272,45.044 " fill="none" id="PerformanceReportUI-to-GraphPerformanceReportUI" style="stroke:#A80036;stroke-width:0.4;stroke-dasharray:7.0,7.0;"/><polygon fill="#A80036" points="337.824,46.332,336.0736,42.8027,336.2843,45.0556,334.0314,45.2662,337.824,46.332" style="stroke:#A80036;stroke-width:0.4;"/><!--MD5=[31f7fa550dfd89a895df9af84d6395f8]
link GraphPerformanceReportUI to PerformanceReportController--><path codeLine="133" d="M343.476,65.688 C340.016,71.512 335.24,79.544 330.068,88.248 " fill="none" id="GraphPerformanceReportUI-to-PerformanceReportController" style="stroke:#A80036;stroke-width:0.4;stroke-dasharray:7.0,7.0;"/><polygon fill="#A80036" points="329.028,89.996,332.2433,87.7196,330.0503,88.277,329.4929,86.084,329.028,89.996" style="stroke:#A80036;stroke-width:0.4;"/><!--MD5=[eedafb012d4228dd02d988603bfee394]
link PerformanceReportController to Company--><path codeLine="134" d="M297.4,197.268 C297.4,204.86 297.4,212.428 297.4,219.344 " fill="none" id="PerformanceReportController-to-Company" style="stroke:#A80036;stroke-width:0.4;stroke-dasharray:7.0,7.0;"/><polygon fill="#A80036" points="297.4,221.464,299,217.864,297.4,219.464,295.8,217.864,297.4,221.464" style="stroke:#A80036;stroke-width:0.4;"/><!--MD5=[6de4e70039993d094a4bf502c7365bf6]
link PerformanceReportController to TestStore--><path codeLine="135" d="M211.68,197.036 C171.092,223.292 122.6,256.344 81.4,289.2 C66.268,301.268 51.448,317.672 41.38,329.716 " fill="none" id="PerformanceReportController-to-TestStore" style="stroke:#A80036;stroke-width:0.4;stroke-dasharray:7.0,7.0;"/><polygon fill="#A80036" points="40.056,331.308,43.5892,329.5654,41.3358,329.7711,41.1301,327.5177,40.056,331.308" style="stroke:#A80036;stroke-width:0.4;"/><!--MD5=[3fa28fbfeee5a957ee80611d9871c8fa]
link PerformanceReportController to ClientsStore--><path codeLine="136" d="M251.5,197.24 C245.196,205.236 238.976,213.516 233.4,221.6 C207.92,258.536 183.12,305.244 170.744,329.504 " fill="none" id="PerformanceReportController-to-ClientsStore" style="stroke:#A80036;stroke-width:0.4;stroke-dasharray:7.0,7.0;"/><polygon fill="#A80036" points="169.804,331.352,172.8674,328.875,170.7144,329.5712,170.0182,327.4183,169.804,331.352" style="stroke:#A80036;stroke-width:0.4;"/><!--MD5=[4cb676c1f43b0af0cc115a6aa0bd1e09]
link PerformanceReportController to PerformanceReportStore--><path codeLine="137" d="M342.92,197.284 C376.488,236.576 420.736,288.368 447.124,319.26 " fill="none" id="PerformanceReportController-to-PerformanceReportStore" style="stroke:#A80036;stroke-width:0.4;stroke-dasharray:7.0,7.0;"/><polygon fill="#A80036" points="448.524,320.896,447.396,317.1214,447.2224,319.3775,444.9663,319.2039,448.524,320.896" style="stroke:#A80036;stroke-width:0.4;"/><!--MD5=[0675037507f4191c977322154e70f4da]
link PerformanceReportController to PerformanceAlgorithms--><path codeLine="138" d="M383.008,175.104 C453.708,201.992 555.84,243.628 640.6,289.2 C663.356,301.436 687.768,318.048 704.604,330.108 " fill="none" id="PerformanceReportController-to-PerformanceAlgorithms" style="stroke:#A80036;stroke-width:0.4;stroke-dasharray:7.0,7.0;"/><polygon fill="#A80036" points="706.312,331.332,704.3238,327.931,704.6884,330.1641,702.4552,330.5287,706.312,331.332" style="stroke:#A80036;stroke-width:0.4;"/><!--MD5=[7f6cf7f175eae0af66201860de5de971]
link Company to TestStore--><path codeLine="139" d="M240.28,254.124 C190.02,260.1 116.48,274.312 61.4,308 C52.58,313.396 44.872,321.944 39.148,329.544 " fill="none" id="Company-to-TestStore" style="stroke:#A80036;stroke-width:0.4;"/><polygon fill="#A80036" points="37.884,331.252,41.3118,329.3104,39.0739,329.6445,38.7398,327.4065,37.884,331.252" style="stroke:#A80036;stroke-width:0.4;"/><text fill="#000000" font-family="sans-serif" font-size="5.2" lengthAdjust="spacing" textLength="11.6" x="97" y="294.6273">uses</text><!--MD5=[d6730d41cff7bdf094104b6d25f919b3]
link Company to ClientsStore--><path codeLine="140" d="M246.26,277.2 C230.924,286.256 214.416,296.88 200.2,308 C191.932,314.468 183.608,322.624 176.904,329.704 " fill="none" id="Company-to-ClientsStore" style="stroke:#A80036;stroke-width:0.4;"/><polygon fill="#A80036" points="175.408,331.292,179.0372,329.7595,176.7757,329.8327,176.7024,327.5712,175.408,331.292" style="stroke:#A80036;stroke-width:0.4;"/><text fill="#000000" font-family="sans-serif" font-size="5.2" lengthAdjust="spacing" textLength="11.6" x="226.2" y="294.6273">uses</text><!--MD5=[ff2fcec02343aced1af8f685b6ea6727]
link Company to PerformanceReportStore--><path codeLine="141" d="M342.86,277.236 C353.48,283.504 364.788,290.064 375.4,296 C389.676,303.988 405.332,312.388 419.72,319.968 " fill="none" id="Company-to-PerformanceReportStore" style="stroke:#A80036;stroke-width:0.4;"/><polygon fill="#A80036" points="421.652,320.984,419.2103,317.8924,419.8818,320.0532,417.721,320.7248,421.652,320.984" style="stroke:#A80036;stroke-width:0.4;"/><text fill="#000000" font-family="sans-serif" font-size="5.2" lengthAdjust="spacing" textLength="11.6" x="375.8" y="294.6273">uses</text><!--MD5=[e382b36a1e56a8534ae300d7fbd8445d]
link Company to PerformanceAlgorithms--><path codeLine="142" d="M354.436,252.084 C427.92,256.536 558.66,269.628 663.4,308 C678.08,313.376 693.108,322.356 704.74,330.216 " fill="none" id="Company-to-PerformanceAlgorithms" style="stroke:#A80036;stroke-width:0.4;"/><polygon fill="#A80036" points="706.432,331.364,704.3532,328.0176,704.7776,330.2402,702.555,330.6646,706.432,331.364" style="stroke:#A80036;stroke-width:0.4;"/><text fill="#000000" font-family="sans-serif" font-size="5.2" lengthAdjust="spacing" textLength="11.6" x="625.4" y="294.6273">uses</text><!--MD5=[b0f4f6db8206580012ef9cd998ed01c5]
link TestStore to Test--><path codeLine="143" d="M33.06,361.052 C38.556,378.856 48.08,409.704 55.512,433.776 " fill="none" id="TestStore-to-Test" style="stroke:#A80036;stroke-width:0.4;"/><polygon fill="#A80036" points="56.132,435.788,56.6034,431.8768,55.5442,433.8763,53.5447,432.8172,56.132,435.788" style="stroke:#A80036;stroke-width:0.4;"/><text fill="#000000" font-family="sans-serif" font-size="5.2" lengthAdjust="spacing" textLength="27.2" x="45.8" y="401.8273">can access</text><!--MD5=[675d6c7c498151618f076cb352fafe57]
link TestReport to Test--><path codeLine="144" d="M89.82,361.052 C85.904,378.856 79.116,409.704 73.82,433.776 " fill="none" id="TestReport-to-Test" style="stroke:#A80036;stroke-width:0.4;"/><polygon fill="#A80036" points="73.376,435.788,75.71,432.6143,73.8044,433.8344,72.5843,431.9288,73.376,435.788" style="stroke:#A80036;stroke-width:0.4;"/><text fill="#000000" font-family="sans-serif" font-size="5.2" lengthAdjust="spacing" textLength="22.8" x="82.6" y="401.8273">is part of</text><!--MD5=[d154f8eb5e1b6254e928a26cd21d4a49]
link ClientsStore to Client--><path codeLine="145" d="M162.6,361.052 C162.6,383.804 162.6,427.86 162.6,451.852 " fill="none" id="ClientsStore-to-Client" style="stroke:#A80036;stroke-width:0.4;"/><polygon fill="#A80036" points="162.6,453.968,164.2,450.368,162.6,451.968,161,450.368,162.6,453.968" style="stroke:#A80036;stroke-width:0.4;"/><text fill="#000000" font-family="sans-serif" font-size="5.2" lengthAdjust="spacing" textLength="27.2" x="163" y="401.8273">can access</text><!--MD5=[6f7506cf43b376c23a6450d9658184f8]
link PerformanceReportStore to PerformanceReport--><path codeLine="146" d="M427.66,371.468 C398.004,388.968 357.852,412.664 324.668,432.244 " fill="none" id="PerformanceReportStore-to-PerformanceReport" style="stroke:#A80036;stroke-width:0.4;"/><polygon fill="#A80036" points="322.892,433.292,326.8069,432.8521,324.6175,432.2807,325.1888,430.0913,322.892,433.292" style="stroke:#A80036;stroke-width:0.4;"/><text fill="#000000" font-family="sans-serif" font-size="5.2" lengthAdjust="spacing" textLength="27.2" x="385.4" y="401.8273">can access</text><!--MD5=[9ce3cddd2829aec2fcb94dc330cdca38]
link PerformanceData to PerformanceReport--><path codeLine="147" d="M246.036,384.472 C247.912,393.532 249.952,403.392 251.952,413.064 " fill="none" id="PerformanceData-to-PerformanceReport" style="stroke:#A80036;stroke-width:0.4;"/><polygon fill="#A80036" points="252.376,415.124,253.2108,411.2739,251.9695,413.1658,250.0776,411.9244,252.376,415.124" style="stroke:#A80036;stroke-width:0.4;"/><text fill="#000000" font-family="sans-serif" font-size="5.2" lengthAdjust="spacing" textLength="22.8" x="249.8" y="401.8273">is part of</text><!--MD5=[68013e7cd8a615f59b495e52a6813f74]
@startuml
skinparam classAttributeIconSize 0

class PerformanceReportUI {

}

class GraphPerformanceReportUI {

}

class PerformanceReportController {
 -PerformanceReportStore performanceReportStore;
 -TestStore testStore;
 -ClientsStore clientsStore;
 -PerformanceReport performanceReport;
  - -
  +createReport(Date startDateIn, Date endDateIn, int algorithm)
  -createReport(Date startDateIn, Date endDateIn, int algorithm)
 -countClients(LocalDateTime startDate, LocalDateTime endDate)
 -fillDataArray(LocalDateTime startDate, LocalDateTime endDate)
 -countPeriods(LocalDateTime start, LocalDateTime end)
  -periodIndex(LocalDateTime start, LocalDateTime end, LocalDateTime tmp)
  -createPeriodicGrowth(int[][] data, int periods)
  -createBasicPeriodicDataList(LocalDateTime startDate, int[][] data, int periods)
  +savePerformanceReport()
  +getDataPerformanceReportSummary()
  +getList()
  +getPerformanceReport()
}


class Company{
    -String designation
    -PerformanceReportStore PerformanceReportStore
    -TestStore testStore
    -ClientsStore clientsStore
    - -
    +getPerformanceReportStore()
    +getTestStore()
    +getClientsStore()
}

class TestStore{
    -List<Test> testStore
    - -
    +getTestList()
}

class Test{
    -String tin
    -LocalDateTime date
    -LocalDateTime ResultDate
    -LocalDateTime ValidationDate
    -TestReport testReport
    - -
     +getTin
     +getDate
     +getResultDate
     +getValidationDate
}

class TestReport{
    -LocalDateTime Date
    - -
    +getDate
}

class ClientsStore{
    -List<Client> ClientsStore
    - -
    +getClientsList()
}

class Client{
    -String tin
    - -
    +getTin()
}

class PerformanceReport{
    +String performanceReportNumber
    +LocalDateTime dateTimeStart
    +LocalDateTime dateTimeEnd
    +LocalDateTime dateLessEffectiveStart
    +LocalDateTime dateLessEffectiveEnd
    +int totalClients
    +int totalTests
    +int totalResults
    +int totalDiagnostics
    +int totalValidations
    +ArrayList<PerformanceData> basicPeriodicDataList
    +double[][] periodicGrowth
    +int[] analysisSequence
    +int[] subSeqMaxSum
    - -
    +getAnalysisSequence()
    +dataPerformanceReportSummary()
    -countBasicTotalData()
}

class PerformanceData{
  +LocalDateTime dateTime;
  +int newTests;
  +int newResults;
  +int newDiagnostics;
  +int newValidations;
    - -
    +getDateTime()
    +getNewTests()
    +getNewResults()
    +getNewDiagnostics()
    +getNewValidations()
}

class PerformanceReportStore{
    -List<PerformanceReport> PerformanceReportStore
    - -
    +createPerformanceReport(String Number, LDT Start, LDT End, LDT LessEffStart, LDT LessEffEnd, List<PData> DataList, double[][] Growth, int Clients,  int[] Seq, int[] subSeq)
    +validatePerformanceReport(PerformanceReport performanceReport)
    +savePerformanceReport(PerformanceReport performanceReport)
    +getPerformanceReportList()
    +getLastPerformanceReport()
}

class PerformanceAlgorithms{
    - -
    +bruteForceAlgorithm(int[] seq)
    +findSubSeqIndexes(int[] sequence, int[] subSeq)
}

PerformanceReportUI ..> PerformanceReportController
PerformanceReportUI ..> GraphPerformanceReportUI
GraphPerformanceReportUI ..> PerformanceReportController
PerformanceReportController ..> Company
PerformanceReportController ..> TestStore
PerformanceReportController ..> ClientsStore
PerformanceReportController ..> PerformanceReportStore
PerformanceReportController ..> PerformanceAlgorithms
Company - -> TestStore : uses
Company - -> ClientsStore : uses
Company - -> PerformanceReportStore : uses
Company - -> PerformanceAlgorithms : uses
TestStore - -> Test : can access
TestReport - -> Test : is part of
ClientsStore - -> Client : can access
PerformanceReportStore - -> PerformanceReport : can access
PerformanceData - -> PerformanceReport : is part of


@enduml

PlantUML version 1.2021.00(Sun Jan 10 10:25:05 WET 2021)
(GPL source distribution)
Java Runtime: OpenJDK Runtime Environment
JVM: OpenJDK 64-Bit Server VM
Default Encoding: UTF-8
Language: en
Country: PT
--></g></svg>