<?xml version="1.0" encoding="UTF-8" standalone="no"?><svg xmlns="http://www.w3.org/2000/svg" xmlns:xlink="http://www.w3.org/1999/xlink" contentScriptType="application/ecmascript" contentStyleType="text/css" height="486px" preserveAspectRatio="none" style="width:580px;height:486px;" version="1.1" viewBox="0 0 580 486" width="580px" zoomAndPan="magnify"><defs><filter height="300%" id="f3zuniac0d98b" width="300%" x="-1" y="-1"><feGaussianBlur result="blurOut" stdDeviation="2.0"/><feColorMatrix in="blurOut" result="blurOut2" type="matrix" values="0 0 0 0 0 0 0 0 0 0 0 0 0 0 0 0 0 0 .4 0"/><feOffset dx="4.0" dy="4.0" in="blurOut2" result="blurOut3"/><feBlend in="SourceGraphic" in2="blurOut3" mode="normal"/></filter></defs><g><rect fill="#FFFFFF" filter="url(#f3zuniac0d98b)" height="285.1055" style="stroke:#A80036;stroke-width:1.0;" width="10" x="84" y="98.4883"/><rect fill="#FFFFFF" filter="url(#f3zuniac0d98b)" height="29.3105" style="stroke:#A80036;stroke-width:1.0;" width="10" x="530" y="119.7988"/><rect fill="#FFFFFF" filter="url(#f3zuniac0d98b)" height="29.3105" style="stroke:#A80036;stroke-width:1.0;" width="10" x="530" y="178.4199"/><rect fill="#FFFFFF" filter="url(#f3zuniac0d98b)" height="29.3105" style="stroke:#A80036;stroke-width:1.0;" width="10" x="530" y="237.041"/><rect fill="#FFFFFF" filter="url(#f3zuniac0d98b)" height="29.3105" style="stroke:#A80036;stroke-width:1.0;" width="10" x="530" y="295.6621"/><rect fill="#FFFFFF" filter="url(#f3zuniac0d98b)" height="29.3105" style="stroke:#A80036;stroke-width:1.0;" width="10" x="530" y="354.2832"/><line style="stroke:#A80036;stroke-width:1.0;stroke-dasharray:5.0,5.0;" x1="89" x2="89" y1="88.4883" y2="401.5938"/><line style="stroke:#A80036;stroke-width:1.0;stroke-dasharray:5.0,5.0;" x1="535" x2="535" y1="88.4883" y2="401.5938"/><text fill="#000000" font-family="sans-serif" font-size="14" lengthAdjust="spacing" textLength="162" x="5" y="85.5352">Laboratory Coordinator</text><ellipse cx="89" cy="15" fill="#FEFECE" filter="url(#f3zuniac0d98b)" rx="8" ry="8" style="stroke:#A80036;stroke-width:2.0;"/><path d="M89,23 L89,50 M76,31 L102,31 M89,50 L76,65 M89,50 L102,65 " fill="none" filter="url(#f3zuniac0d98b)" style="stroke:#A80036;stroke-width:2.0;"/><text fill="#000000" font-family="sans-serif" font-size="14" lengthAdjust="spacing" textLength="162" x="5" y="414.1289">Laboratory Coordinator</text><ellipse cx="89" cy="427.082" fill="#FEFECE" filter="url(#f3zuniac0d98b)" rx="8" ry="8" style="stroke:#A80036;stroke-width:2.0;"/><path d="M89,435.082 L89,462.082 M76,443.082 L102,443.082 M89,462.082 L76,477.082 M89,462.082 L102,477.082 " fill="none" filter="url(#f3zuniac0d98b)" style="stroke:#A80036;stroke-width:2.0;"/><rect fill="#FEFECE" filter="url(#f3zuniac0d98b)" height="30.4883" style="stroke:#A80036;stroke-width:1.5;" width="66" x="500" y="53"/><text fill="#000000" font-family="sans-serif" font-size="14" lengthAdjust="spacing" textLength="52" x="507" y="73.5352">:System</text><rect fill="#FEFECE" filter="url(#f3zuniac0d98b)" height="30.4883" style="stroke:#A80036;stroke-width:1.5;" width="66" x="500" y="400.5938"/><text fill="#000000" font-family="sans-serif" font-size="14" lengthAdjust="spacing" textLength="52" x="507" y="421.1289">:System</text><rect fill="#FFFFFF" filter="url(#f3zuniac0d98b)" height="285.1055" style="stroke:#A80036;stroke-width:1.0;" width="10" x="84" y="98.4883"/><rect fill="#FFFFFF" filter="url(#f3zuniac0d98b)" height="29.3105" style="stroke:#A80036;stroke-width:1.0;" width="10" x="530" y="119.7988"/><rect fill="#FFFFFF" filter="url(#f3zuniac0d98b)" height="29.3105" style="stroke:#A80036;stroke-width:1.0;" width="10" x="530" y="178.4199"/><rect fill="#FFFFFF" filter="url(#f3zuniac0d98b)" height="29.3105" style="stroke:#A80036;stroke-width:1.0;" width="10" x="530" y="237.041"/><rect fill="#FFFFFF" filter="url(#f3zuniac0d98b)" height="29.3105" style="stroke:#A80036;stroke-width:1.0;" width="10" x="530" y="295.6621"/><rect fill="#FFFFFF" filter="url(#f3zuniac0d98b)" height="29.3105" style="stroke:#A80036;stroke-width:1.0;" width="10" x="530" y="354.2832"/><polygon fill="#A80036" points="518,115.7988,528,119.7988,518,123.7988,522,119.7988" style="stroke:#A80036;stroke-width:1.0;"/><line style="stroke:#A80036;stroke-width:1.0;" x1="94" x2="524" y1="119.7988" y2="119.7988"/><text fill="#000000" font-family="sans-serif" font-size="13" font-weight="bold" lengthAdjust="spacing" textLength="9" x="101" y="115.0566">1</text><text fill="#000000" font-family="sans-serif" font-size="13" lengthAdjust="spacing" textLength="249" x="114" y="115.0566">asks to make a new performance report</text><polygon fill="#A80036" points="105,145.1094,95,149.1094,105,153.1094,101,149.1094" style="stroke:#A80036;stroke-width:1.0;"/><line style="stroke:#A80036;stroke-width:1.0;stroke-dasharray:2.0,2.0;" x1="99" x2="534" y1="149.1094" y2="149.1094"/><text fill="#000000" font-family="sans-serif" font-size="13" font-weight="bold" lengthAdjust="spacing" textLength="9" x="111" y="144.3672">2</text><text fill="#000000" font-family="sans-serif" font-size="13" lengthAdjust="spacing" textLength="273" x="124" y="144.3672">requests start and end date for the analysis</text><polygon fill="#A80036" points="518,174.4199,528,178.4199,518,182.4199,522,178.4199" style="stroke:#A80036;stroke-width:1.0;"/><line style="stroke:#A80036;stroke-width:1.0;" x1="94" x2="524" y1="178.4199" y2="178.4199"/><text fill="#000000" font-family="sans-serif" font-size="13" font-weight="bold" lengthAdjust="spacing" textLength="9" x="101" y="173.6777">3</text><text fill="#000000" font-family="sans-serif" font-size="13" lengthAdjust="spacing" textLength="75" x="114" y="173.6777">select dates</text><polygon fill="#A80036" points="105,203.7305,95,207.7305,105,211.7305,101,207.7305" style="stroke:#A80036;stroke-width:1.0;"/><line style="stroke:#A80036;stroke-width:1.0;stroke-dasharray:2.0,2.0;" x1="99" x2="534" y1="207.7305" y2="207.7305"/><text fill="#000000" font-family="sans-serif" font-size="13" font-weight="bold" lengthAdjust="spacing" textLength="9" x="111" y="202.9883">4</text><text fill="#000000" font-family="sans-serif" font-size="13" lengthAdjust="spacing" textLength="245" x="124" y="202.9883">request selection of analysis algorithm</text><polygon fill="#A80036" points="518,233.041,528,237.041,518,241.041,522,237.041" style="stroke:#A80036;stroke-width:1.0;"/><line style="stroke:#A80036;stroke-width:1.0;" x1="94" x2="524" y1="237.041" y2="237.041"/><text fill="#000000" font-family="sans-serif" font-size="13" font-weight="bold" lengthAdjust="spacing" textLength="9" x="101" y="232.2988">5</text><text fill="#000000" font-family="sans-serif" font-size="13" lengthAdjust="spacing" textLength="102" x="114" y="232.2988">select algorithm</text><polygon fill="#A80036" points="105,262.3516,95,266.3516,105,270.3516,101,266.3516" style="stroke:#A80036;stroke-width:1.0;"/><line style="stroke:#A80036;stroke-width:1.0;stroke-dasharray:2.0,2.0;" x1="99" x2="534" y1="266.3516" y2="266.3516"/><text fill="#000000" font-family="sans-serif" font-size="13" font-weight="bold" lengthAdjust="spacing" textLength="9" x="111" y="261.6094">6</text><text fill="#000000" font-family="sans-serif" font-size="13" lengthAdjust="spacing" textLength="97" x="124" y="261.6094">ask for confirm</text><polygon fill="#A80036" points="518,291.6621,528,295.6621,518,299.6621,522,295.6621" style="stroke:#A80036;stroke-width:1.0;"/><line style="stroke:#A80036;stroke-width:1.0;" x1="94" x2="524" y1="295.6621" y2="295.6621"/><text fill="#000000" font-family="sans-serif" font-size="13" font-weight="bold" lengthAdjust="spacing" textLength="9" x="101" y="290.9199">7</text><text fill="#000000" font-family="sans-serif" font-size="13" lengthAdjust="spacing" textLength="115" x="114" y="290.9199">confirms the tests</text><polygon fill="#A80036" points="105,320.9727,95,324.9727,105,328.9727,101,324.9727" style="stroke:#A80036;stroke-width:1.0;"/><line style="stroke:#A80036;stroke-width:1.0;stroke-dasharray:2.0,2.0;" x1="99" x2="534" y1="324.9727" y2="324.9727"/><text fill="#000000" font-family="sans-serif" font-size="13" font-weight="bold" lengthAdjust="spacing" textLength="9" x="111" y="320.2305">8</text><text fill="#000000" font-family="sans-serif" font-size="13" lengthAdjust="spacing" textLength="399" x="124" y="320.2305">show all graphs and statistic information and ask if its for save</text><polygon fill="#A80036" points="518,350.2832,528,354.2832,518,358.2832,522,354.2832" style="stroke:#A80036;stroke-width:1.0;"/><line style="stroke:#A80036;stroke-width:1.0;" x1="94" x2="524" y1="354.2832" y2="354.2832"/><text fill="#000000" font-family="sans-serif" font-size="13" font-weight="bold" lengthAdjust="spacing" textLength="9" x="101" y="349.541">9</text><text fill="#000000" font-family="sans-serif" font-size="13" lengthAdjust="spacing" textLength="83" x="114" y="349.541">asks for save</text><polygon fill="#A80036" points="100,379.5938,90,383.5938,100,387.5938,96,383.5938" style="stroke:#A80036;stroke-width:1.0;"/><line style="stroke:#A80036;stroke-width:1.0;stroke-dasharray:2.0,2.0;" x1="94" x2="534" y1="383.5938" y2="383.5938"/><text fill="#000000" font-family="sans-serif" font-size="13" font-weight="bold" lengthAdjust="spacing" textLength="18" x="106" y="378.8516">10</text><text fill="#000000" font-family="sans-serif" font-size="13" lengthAdjust="spacing" textLength="167" x="128" y="378.8516">informs operation success</text><!--MD5=[134e3a5563a0dcb5b5b8e023cabab68b]
@startuml
autonumber
actor "Laboratory Coordinator" as OE

activate OE
OE -> ":System" : asks to make a new performance report
activate ":System"
":System" - -> OE : requests start and end date for the analysis
deactivate ":System"

OE -> ":System" : select dates
activate ":System"
":System" - -> OE : request selection of analysis algorithm
deactivate ":System"

OE -> ":System" : select algorithm
activate ":System"
":System" - -> OE : ask for confirm
deactivate ":System"

OE -> ":System" : confirms the tests
activate ":System"
":System" - -> OE : show all graphs and statistic information and ask if its for save
deactivate ":System"

OE -> ":System" : asks for save
activate ":System"
":System" - -> OE : informs operation success
deactivate ":System"

deactivate OE

@enduml

PlantUML version 1.2021.00(Sun Jan 10 10:25:05 WET 2021)
(GPL source distribution)
Java Runtime: OpenJDK Runtime Environment
JVM: OpenJDK 64-Bit Server VM
Default Encoding: UTF-8
Language: en
Country: PT
--></g></svg>