<?xml version="1.0" encoding="UTF-8" standalone="no"?><svg xmlns="http://www.w3.org/2000/svg" xmlns:xlink="http://www.w3.org/1999/xlink" contentScriptType="application/ecmascript" contentStyleType="text/css" height="604.8px" preserveAspectRatio="none" style="width:259px;height:604px;" version="1.1" viewBox="0 0 259 604" width="259.2px" zoomAndPan="magnify"><defs><filter height="300%" id="f1gznmsfljzo5s" width="300%" x="-1" y="-1"><feGaussianBlur result="blurOut" stdDeviation="1.2"/><feColorMatrix in="blurOut" result="blurOut2" type="matrix" values="0 0 0 0 0 0 0 0 0 0 0 0 0 0 0 0 0 0 .4 0"/><feOffset dx="2.4" dy="2.4" in="blurOut2" result="blurOut3"/><feBlend in="SourceGraphic" in2="blurOut3" mode="normal"/></filter></defs><g><!--MD5=[02e4b9b7573f1156f41e60aa5b4e25a4]
class Company--><rect codeLine="4" fill="#FEFECE" filter="url(#f1gznmsfljzo5s)" height="31.773" id="Company" style="stroke:#A80036;stroke-width:0.8999999999999999;" width="51.6" x="4.2" y="4.2"/><ellipse cx="13.2" cy="13.8" fill="#ADD1B2" rx="6.6" ry="6.6" style="stroke:#A80036;stroke-width:0.6;"/><path d="M14.6839,17.4858 Q14.3353,17.6651 13.9518,17.7548 Q13.5683,17.8444 13.1449,17.8444 Q11.6408,17.8444 10.8489,16.8533 Q10.057,15.8622 10.057,13.9896 Q10.057,12.1119 10.8489,11.1208 Q11.6408,10.1297 13.1449,10.1297 Q13.5683,10.1297 13.9567,10.2193 Q14.3452,10.309 14.6839,10.4883 L14.6839,12.1219 Q14.3054,11.7732 13.9493,11.6114 Q13.5932,11.4495 13.2146,11.4495 Q12.4078,11.4495 11.9969,12.0895 Q11.586,12.7295 11.586,13.9896 Q11.586,15.2446 11.9969,15.8846 Q12.4078,16.5246 13.2146,16.5246 Q13.5932,16.5246 13.9493,16.3627 Q14.3054,16.2009 14.6839,15.8522 Z " fill="#000000"/><text fill="#000000" font-family="sans-serif" font-size="7.2" lengthAdjust="spacing" textLength="32.4" x="21.6" y="16.5211">Company</text><line style="stroke:#A80036;stroke-width:0.8999999999999999;" x1="4.8" x2="55.2" y1="23.4" y2="23.4"/><text fill="#000000" font-family="sans-serif" font-size="6.6" lengthAdjust="spacing" textLength="43.2" x="7.8" y="32.1809">-chemicalLab</text><!--MD5=[df38be88ccee13e832d6fafd6288a4ca]
class Test--><rect codeLine="8" fill="#FEFECE" filter="url(#f1gznmsfljzo5s)" height="55.0922" id="Test" style="stroke:#A80036;stroke-width:0.8999999999999999;" width="56.4" x="19.2" y="370.2"/><ellipse cx="38.19" cy="379.8" fill="#ADD1B2" rx="6.6" ry="6.6" style="stroke:#A80036;stroke-width:0.6;"/><path d="M39.6739,383.4858 Q39.3253,383.6651 38.9418,383.7548 Q38.5583,383.8444 38.1349,383.8444 Q36.6308,383.8444 35.8389,382.8533 Q35.047,381.8622 35.047,379.9896 Q35.047,378.1119 35.8389,377.1208 Q36.6308,376.1297 38.1349,376.1297 Q38.5583,376.1297 38.9467,376.2193 Q39.3352,376.309 39.6739,376.4883 L39.6739,378.1219 Q39.2954,377.7732 38.9393,377.6114 Q38.5832,377.4495 38.2046,377.4495 Q37.3978,377.4495 36.9869,378.0895 Q36.576,378.7295 36.576,379.9896 Q36.576,381.2446 36.9869,381.8846 Q37.3978,382.5246 38.2046,382.5246 Q38.5832,382.5246 38.9393,382.3627 Q39.2954,382.2009 39.6739,381.8522 Z " fill="#000000"/><text fill="#000000" font-family="sans-serif" font-size="7.2" lengthAdjust="spacing" textLength="15" x="48.81" y="382.5211">Test</text><line style="stroke:#A80036;stroke-width:0.8999999999999999;" x1="19.8" x2="75" y1="389.4" y2="389.4"/><text fill="#000000" font-family="sans-serif" font-size="6.6" lengthAdjust="spacing" textLength="19.2" x="22.8" y="398.1809">-state</text><text fill="#000000" font-family="sans-serif" font-size="6.6" lengthAdjust="spacing" textLength="17.4" x="22.8" y="405.9539">-date</text><text fill="#000000" font-family="sans-serif" font-size="6.6" lengthAdjust="spacing" textLength="46.2" x="22.8" y="413.727">-analyzedDate</text><text fill="#000000" font-family="sans-serif" font-size="6.6" lengthAdjust="spacing" textLength="49.2" x="22.8" y="421.5">-validationDate</text><!--MD5=[ec599613d695be233479fdeda6ef69ac]
class PerformanceReport--><rect codeLine="15" fill="#FEFECE" filter="url(#f1gznmsfljzo5s)" height="132.8227" id="PerformanceReport" style="stroke:#A80036;stroke-width:0.8999999999999999;" width="99.6" x="57.6" y="82.2"/><ellipse cx="72.54" cy="91.8" fill="#ADD1B2" rx="6.6" ry="6.6" style="stroke:#A80036;stroke-width:0.6;"/><path d="M74.0239,95.4858 Q73.6753,95.6651 73.2918,95.7548 Q72.9083,95.8444 72.4849,95.8444 Q70.9808,95.8444 70.1889,94.8533 Q69.397,93.8622 69.397,91.9896 Q69.397,90.1119 70.1889,89.1208 Q70.9808,88.1297 72.4849,88.1297 Q72.9083,88.1297 73.2967,88.2193 Q73.6852,88.309 74.0239,88.4883 L74.0239,90.1219 Q73.6454,89.7732 73.2893,89.6114 Q72.9332,89.4495 72.5546,89.4495 Q71.7478,89.4495 71.3369,90.0895 Q70.926,90.7295 70.926,91.9896 Q70.926,93.2446 71.3369,93.8846 Q71.7478,94.5246 72.5546,94.5246 Q72.9332,94.5246 73.2893,94.3627 Q73.6454,94.2009 74.0239,93.8522 Z " fill="#000000"/><text fill="#000000" font-family="sans-serif" font-size="7.2" lengthAdjust="spacing" textLength="67.2" x="82.26" y="94.5211">PerformanceReport</text><line style="stroke:#A80036;stroke-width:0.8999999999999999;" x1="58.2" x2="156.6" y1="101.4" y2="101.4"/><text fill="#000000" font-family="sans-serif" font-size="6.6" lengthAdjust="spacing" textLength="92.4" x="61.2" y="110.1809">-performanceReportNumber</text><text fill="#000000" font-family="sans-serif" font-size="6.6" lengthAdjust="spacing" textLength="48" x="61.2" y="117.9539">-dateTimeStart</text><text fill="#000000" font-family="sans-serif" font-size="6.6" lengthAdjust="spacing" textLength="45" x="61.2" y="125.727">-dateTimeEnd</text><text fill="#000000" font-family="sans-serif" font-size="6.6" lengthAdjust="spacing" textLength="73.8" x="61.2" y="133.5">-dateLessEffectiveStart</text><text fill="#000000" font-family="sans-serif" font-size="6.6" lengthAdjust="spacing" textLength="70.8" x="61.2" y="141.273">-dateLessEffectiveEnd</text><text fill="#000000" font-family="sans-serif" font-size="6.6" lengthAdjust="spacing" textLength="40.2" x="61.2" y="149.0461">-totalClients</text><text fill="#000000" font-family="sans-serif" font-size="6.6" lengthAdjust="spacing" textLength="35.4" x="61.2" y="156.8191">-totalTests</text><text fill="#000000" font-family="sans-serif" font-size="6.6" lengthAdjust="spacing" textLength="41.4" x="61.2" y="164.5922">-totalResults</text><text fill="#000000" font-family="sans-serif" font-size="6.6" lengthAdjust="spacing" textLength="55.8" x="61.2" y="172.3652">-totalDiagnostics</text><text fill="#000000" font-family="sans-serif" font-size="6.6" lengthAdjust="spacing" textLength="53.4" x="61.2" y="180.1383">-totalValidations</text><text fill="#000000" font-family="sans-serif" font-size="6.6" lengthAdjust="spacing" textLength="40.8" x="61.2" y="187.9113">-GrowthRate</text><text fill="#000000" font-family="sans-serif" font-size="6.6" lengthAdjust="spacing" textLength="34.2" x="61.2" y="195.6844">-Sequence</text><text fill="#000000" font-family="sans-serif" font-size="6.6" lengthAdjust="spacing" textLength="55.8" x="61.2" y="203.4574">-SubSeq MaxSum</text><text fill="#000000" font-family="sans-serif" font-size="6.6" lengthAdjust="spacing" textLength="80.4" x="61.2" y="211.2305">-List of PerformanceData</text><!--MD5=[7b310f299493b5f495e6dc5de2ba7c23]
class PerformanceData--><rect codeLine="32" fill="#FEFECE" filter="url(#f1gznmsfljzo5s)" height="62.8652" id="PerformanceData" style="stroke:#A80036;stroke-width:0.8999999999999999;" width="79.2" x="78" y="261"/><ellipse cx="87" cy="270.6" fill="#ADD1B2" rx="6.6" ry="6.6" style="stroke:#A80036;stroke-width:0.6;"/><path d="M88.4839,274.2858 Q88.1353,274.4651 87.7518,274.5548 Q87.3683,274.6444 86.9449,274.6444 Q85.4408,274.6444 84.6489,273.6533 Q83.857,272.6622 83.857,270.7896 Q83.857,268.9119 84.6489,267.9208 Q85.4408,266.9297 86.9449,266.9297 Q87.3683,266.9297 87.7567,267.0193 Q88.1452,267.109 88.4839,267.2883 L88.4839,268.9219 Q88.1054,268.5732 87.7493,268.4114 Q87.3932,268.2495 87.0146,268.2495 Q86.2078,268.2495 85.7969,268.8895 Q85.386,269.5295 85.386,270.7896 Q85.386,272.0446 85.7969,272.6846 Q86.2078,273.3246 87.0146,273.3246 Q87.3932,273.3246 87.7493,273.1627 Q88.1054,273.0009 88.4839,272.6522 Z " fill="#000000"/><text fill="#000000" font-family="sans-serif" font-size="7.2" lengthAdjust="spacing" textLength="60" x="95.4" y="273.3211">PerformanceData</text><line style="stroke:#A80036;stroke-width:0.8999999999999999;" x1="78.6" x2="156.6" y1="280.2" y2="280.2"/><text fill="#000000" font-family="sans-serif" font-size="6.6" lengthAdjust="spacing" textLength="33" x="81.6" y="288.9809">-dateTime</text><text fill="#000000" font-family="sans-serif" font-size="6.6" lengthAdjust="spacing" textLength="33.6" x="81.6" y="296.7539">-newTests</text><text fill="#000000" font-family="sans-serif" font-size="6.6" lengthAdjust="spacing" textLength="39.6" x="81.6" y="304.527">-newResults</text><text fill="#000000" font-family="sans-serif" font-size="6.6" lengthAdjust="spacing" textLength="54" x="81.6" y="312.3">-newDiagnostics</text><text fill="#000000" font-family="sans-serif" font-size="6.6" lengthAdjust="spacing" textLength="51.6" x="81.6" y="320.073">-newValidations</text><!--MD5=[1440c33e6e2d06f1d65157f758d3adef]
class TestReport--><rect codeLine="40" fill="#FEFECE" filter="url(#f1gznmsfljzo5s)" height="39.5461" id="TestReport" style="stroke:#A80036;stroke-width:0.8999999999999999;" width="57.6" x="55.8" y="471.6"/><ellipse cx="64.8" cy="481.2" fill="#ADD1B2" rx="6.6" ry="6.6" style="stroke:#A80036;stroke-width:0.6;"/><path d="M66.2839,484.8858 Q65.9353,485.0651 65.5518,485.1548 Q65.1683,485.2444 64.7449,485.2444 Q63.2408,485.2444 62.4489,484.2533 Q61.657,483.2622 61.657,481.3896 Q61.657,479.5119 62.4489,478.5208 Q63.2408,477.5297 64.7449,477.5297 Q65.1683,477.5297 65.5567,477.6193 Q65.9452,477.709 66.2839,477.8883 L66.2839,479.5219 Q65.9054,479.1732 65.5493,479.0114 Q65.1932,478.8495 64.8146,478.8495 Q64.0078,478.8495 63.5969,479.4895 Q63.186,480.1295 63.186,481.3896 Q63.186,482.6446 63.5969,483.2846 Q64.0078,483.9246 64.8146,483.9246 Q65.1932,483.9246 65.5493,483.7627 Q65.9054,483.6009 66.2839,483.2522 Z " fill="#000000"/><text fill="#000000" font-family="sans-serif" font-size="7.2" lengthAdjust="spacing" textLength="38.4" x="73.2" y="483.9211">TestReport</text><line style="stroke:#A80036;stroke-width:0.8999999999999999;" x1="56.4" x2="112.8" y1="490.8" y2="490.8"/><text fill="#000000" font-family="sans-serif" font-size="6.6" lengthAdjust="spacing" textLength="17.4" x="59.4" y="499.5809">-date</text><text fill="#000000" font-family="sans-serif" font-size="6.6" lengthAdjust="spacing" textLength="41.4" x="59.4" y="507.3539">-information</text><!--MD5=[57e3c8a04059ff4826a5f4587a33ba8c]
class TestDiagnosis--><rect codeLine="54" fill="#FEFECE" filter="url(#f1gznmsfljzo5s)" height="39.5461" id="TestDiagnosis" style="stroke:#A80036;stroke-width:0.8999999999999999;" width="67.2" x="51" y="557.4"/><ellipse cx="60" cy="567" fill="#ADD1B2" rx="6.6" ry="6.6" style="stroke:#A80036;stroke-width:0.6;"/><path d="M61.4839,570.6858 Q61.1353,570.8651 60.7518,570.9548 Q60.3683,571.0444 59.9449,571.0444 Q58.4408,571.0444 57.6489,570.0533 Q56.857,569.0622 56.857,567.1896 Q56.857,565.3119 57.6489,564.3208 Q58.4408,563.3297 59.9449,563.3297 Q60.3683,563.3297 60.7567,563.4193 Q61.1452,563.509 61.4839,563.6883 L61.4839,565.3219 Q61.1054,564.9732 60.7493,564.8114 Q60.3932,564.6495 60.0146,564.6495 Q59.2078,564.6495 58.7969,565.2895 Q58.386,565.9295 58.386,567.1896 Q58.386,568.4446 58.7969,569.0846 Q59.2078,569.7246 60.0146,569.7246 Q60.3932,569.7246 60.7493,569.5627 Q61.1054,569.4009 61.4839,569.0522 Z " fill="#000000"/><text fill="#000000" font-family="sans-serif" font-size="7.2" lengthAdjust="spacing" textLength="48" x="68.4" y="569.7211">TestDiagnosis</text><line style="stroke:#A80036;stroke-width:0.8999999999999999;" x1="51.6" x2="117.6" y1="576.6" y2="576.6"/><text fill="#000000" font-family="sans-serif" font-size="6.6" lengthAdjust="spacing" textLength="41.4" x="54.6" y="585.3809">-information</text><text fill="#000000" font-family="sans-serif" font-size="6.6" lengthAdjust="spacing" textLength="41.4" x="54.6" y="593.1539">-information</text><!--MD5=[ed6624c6556d5e7b1bd23032162d20b7]
class Client--><rect codeLine="49" fill="#FEFECE" filter="url(#f1gznmsfljzo5s)" height="39.5461" id="Client" style="stroke:#A80036;stroke-width:0.8999999999999999;" width="48.6" x="202.5" y="378"/><ellipse cx="216.09" cy="387.6" fill="#ADD1B2" rx="6.6" ry="6.6" style="stroke:#A80036;stroke-width:0.6;"/><path d="M217.5739,391.2858 Q217.2253,391.4651 216.8418,391.5548 Q216.4583,391.6444 216.0349,391.6444 Q214.5308,391.6444 213.7389,390.6533 Q212.947,389.6622 212.947,387.7896 Q212.947,385.9119 213.7389,384.9208 Q214.5308,383.9297 216.0349,383.9297 Q216.4583,383.9297 216.8467,384.0193 Q217.2352,384.109 217.5739,384.2883 L217.5739,385.9219 Q217.1954,385.5732 216.8393,385.4114 Q216.4832,385.2495 216.1046,385.2495 Q215.2978,385.2495 214.8869,385.8895 Q214.476,386.5295 214.476,387.7896 Q214.476,389.0446 214.8869,389.6846 Q215.2978,390.3246 216.1046,390.3246 Q216.4832,390.3246 216.8393,390.1627 Q217.1954,390.0009 217.5739,389.6522 Z " fill="#000000"/><text fill="#000000" font-family="sans-serif" font-size="7.2" lengthAdjust="spacing" textLength="19.2" x="225.51" y="390.3211">Client</text><line style="stroke:#A80036;stroke-width:0.8999999999999999;" x1="203.1" x2="250.5" y1="397.2" y2="397.2"/><text fill="#000000" font-family="sans-serif" font-size="6.6" lengthAdjust="spacing" textLength="17.4" x="206.1" y="405.9809">-date</text><text fill="#000000" font-family="sans-serif" font-size="6.6" lengthAdjust="spacing" textLength="41.4" x="206.1" y="413.7539">-information</text><!--MD5=[7e4bc624457760b649895ff2ead938fa]
link Company to Test--><path codeLine="58" d="M29.346,36.138 C27.552,83.544 23.586,231.132 37.8,352.2 C38.478,357.99 39.552,364.14 40.74,369.972 " fill="none" id="Company-Test" style="stroke:#A80036;stroke-width:0.6;"/><polygon fill="#000000" points="33.1023,240.9914,34.6795,235.5074,31.1549,235.6277,33.1023,240.9914" style="stroke:#000000;stroke-width:0.6;"/><text fill="#000000" font-family="sans-serif" font-size="7.8" lengthAdjust="spacing" textLength="34.2" x="38.4" y="240.941">performs</text><text fill="#000000" font-family="sans-serif" font-size="7.8" lengthAdjust="spacing" textLength="4.8" x="23.8779" y="48.195">1</text><text fill="#000000" font-family="sans-serif" font-size="7.8" lengthAdjust="spacing" textLength="3.6" x="35.8974" y="363.7864">*</text><!--MD5=[2d71882fbece197af46afaabf4aaa172]
link Company to PerformanceReport--><path codeLine="59" d="M39.336,36.042 C46.452,47.736 56.784,64.716 67.254,81.924 " fill="none" id="Company-PerformanceReport" style="stroke:#A80036;stroke-width:0.6;"/><polygon fill="#000000" points="59.7594,61.756,58.4448,56.2032,55.432,58.0364,59.7594,61.756" style="stroke:#000000;stroke-width:0.6;"/><text fill="#000000" font-family="sans-serif" font-size="7.8" lengthAdjust="spacing" textLength="34.2" x="63.6" y="62.141">performs</text><text fill="#000000" font-family="sans-serif" font-size="7.8" lengthAdjust="spacing" textLength="4.8" x="36.14" y="48.3349">1</text><text fill="#000000" font-family="sans-serif" font-size="7.8" lengthAdjust="spacing" textLength="3.6" x="60.8358" y="75.6884">*</text><!--MD5=[09cc44baddbf98ba1e46adf36d3ca1a0]
link PerformanceReport to PerformanceData--><path codeLine="60" d="M112.098,214.86 C113.244,230.886 114.414,247.302 115.38,260.838 " fill="none" id="PerformanceReport-PerformanceData" style="stroke:#A80036;stroke-width:0.6;"/><polygon fill="#000000" points="117.2136,240.9856,118.5861,235.4467,115.0683,235.6978,117.2136,240.9856" style="stroke:#000000;stroke-width:0.6;"/><text fill="#000000" font-family="sans-serif" font-size="7.8" lengthAdjust="spacing" textLength="32.4" x="122.4" y="240.941">contains</text><text fill="#000000" font-family="sans-serif" font-size="7.8" lengthAdjust="spacing" textLength="4.8" x="107.4596" y="227.3821">1</text><text fill="#000000" font-family="sans-serif" font-size="7.8" lengthAdjust="spacing" textLength="3.6" x="111.2398" y="254.5413">*</text><!--MD5=[bf2c4a24c3ba26e9822e5aa7c016b9db]
link Test to TestReport--><path codeLine="61" d="M54.426,425.466 C57.102,434.55 60.432,444.642 64.2,453.6 C66.714,459.576 69.912,465.834 73.026,471.486 " fill="none" id="Test-TestReport" style="stroke:#A80036;stroke-width:0.6;"/><polygon fill="#000000" points="68.3242,451.3746,67.9254,445.6822,64.6557,447.0037,68.3242,451.3746" style="stroke:#000000;stroke-width:0.6;"/><text fill="#000000" font-family="sans-serif" font-size="7.8" lengthAdjust="spacing" textLength="32.4" x="72.6" y="451.541">contains</text><text fill="#000000" font-family="sans-serif" font-size="7.8" lengthAdjust="spacing" textLength="4.8" x="50.2765" y="437.551">1</text><text fill="#000000" font-family="sans-serif" font-size="7.8" lengthAdjust="spacing" textLength="4.8" x="65.3439" y="465.0164">1</text><!--MD5=[22a19bb96da0008c608c0131bff393cb]
link TestReport to TestDiagnosis--><path codeLine="62" d="M84.6,511.41 C84.6,525.168 84.6,543.546 84.6,557.28 " fill="none" id="TestReport-TestDiagnosis" style="stroke:#A80036;stroke-width:0.6;"/><polygon fill="#000000" points="87.6,537.3932,89.3634,531.9661,85.8366,531.9661,87.6,537.3932" style="stroke:#000000;stroke-width:0.6;"/><text fill="#000000" font-family="sans-serif" font-size="7.8" lengthAdjust="spacing" textLength="32.4" x="93" y="537.341">contains</text><text fill="#000000" font-family="sans-serif" font-size="7.8" lengthAdjust="spacing" textLength="4.8" x="79.3575" y="523.4922">1</text><text fill="#000000" font-family="sans-serif" font-size="7.8" lengthAdjust="spacing" textLength="4.8" x="79.305" y="550.8092">1</text><!--MD5=[7959a61aa5fc137b730ed30862fd4d7f]
link PerformanceData to Test--><path codeLine="63" d="M77.856,310.572 C65.208,318.264 52.674,328.65 45.6,342 C41.112,350.472 40.404,360.75 41.208,370.128 " fill="none" id="PerformanceData-Test" style="stroke:#A80036;stroke-width:0.6;"/><polygon fill="#000000" points="47.0278,349.7482,51.3738,346.0503,48.3702,344.202,47.0278,349.7482" style="stroke:#000000;stroke-width:0.6;"/><text fill="#000000" font-family="sans-serif" font-size="7.8" lengthAdjust="spacing" textLength="51" x="54" y="350.141">get Info From</text><text fill="#000000" font-family="sans-serif" font-size="7.8" lengthAdjust="spacing" textLength="4.8" x="68.4465" y="310.615">1</text><text fill="#000000" font-family="sans-serif" font-size="7.8" lengthAdjust="spacing" textLength="3.6" x="40.5355" y="363.7652">*</text><!--MD5=[02fa72181fba7c866945bb5de12943b2]
link PerformanceData to TestReport--><path codeLine="64" d="M120.228,324.102 C121.998,357.054 121.908,410.274 108,453.6 C106.02,459.774 102.774,465.948 99.318,471.444 " fill="none" id="PerformanceData-TestReport" style="stroke:#A80036;stroke-width:0.6;"/><polygon fill="#000000" points="123.1785,400.8634,125.6869,395.738,122.1952,395.2424,123.1785,400.8634" style="stroke:#000000;stroke-width:0.6;"/><text fill="#000000" font-family="sans-serif" font-size="7.8" lengthAdjust="spacing" textLength="51" x="129" y="400.841">get Info From</text><text fill="#000000" font-family="sans-serif" font-size="7.8" lengthAdjust="spacing" textLength="4.8" x="115.4572" y="336.2892">1</text><text fill="#000000" font-family="sans-serif" font-size="7.8" lengthAdjust="spacing" textLength="3.6" x="98.2612" y="465.1939">*</text><!--MD5=[263fff04b4579e70879e2b044ee126c6]
link PerformanceData to Client--><path codeLine="65" d="M150.066,324.054 C168.426,341.55 190.8,362.886 206.64,377.982 " fill="none" id="PerformanceData-Client" style="stroke:#A80036;stroke-width:0.6;"/><polygon fill="#000000" points="183.3715,349.2631,180.6599,344.2422,178.2265,346.7949,183.3715,349.2631" style="stroke:#000000;stroke-width:0.6;"/><text fill="#000000" font-family="sans-serif" font-size="7.8" lengthAdjust="spacing" textLength="51" x="186.6" y="350.141">get Info From</text><text fill="#000000" font-family="sans-serif" font-size="7.8" lengthAdjust="spacing" textLength="4.8" x="149.1182" y="336.235">1</text><text fill="#000000" font-family="sans-serif" font-size="7.8" lengthAdjust="spacing" textLength="3.6" x="198.5108" y="371.5322">*</text><!--MD5=[f6b0515eab61d1ad1a36aa62d33d7821]
@startuml
hide methods
skinparam classAttributeIconSize 0

class Company{
-chemicalLab
}

class Test{
-state
-date
-analyzedDate
-validationDate
}

class PerformanceReport{
-performanceReportNumber
-dateTimeStart
-dateTimeEnd
-dateLessEffectiveStart
-dateLessEffectiveEnd
-totalClients
-totalTests
-totalResults
-totalDiagnostics
-totalValidations
-GrowthRate
-Sequence
-SubSeq MaxSum
-List of PerformanceData
}

class PerformanceData{
  -dateTime
  -newTests
  -newResults
  -newDiagnostics
  -newValidations
}

class TestReport{
-date
-information
}

class TestDiagnosis {
-information
}

class Client{
-date
-information
}

class TestDiagnosis {
-information
}

Company "1" - - "*" Test : performs >
Company "1" - - "*" PerformanceReport : performs >
PerformanceReport "1" - - "*" PerformanceData : contains >
Test "1" - - "1" TestReport : contains >
TestReport "1" - - "1" TestDiagnosis : contains >
PerformanceData "1" - - "*" Test : get Info From >
PerformanceData "1" - - "*" TestReport : get Info From >
PerformanceData "1" - - "*" Client : get Info From >


@enduml

PlantUML version 1.2021.00(Sun Jan 10 10:25:05 WET 2021)
(GPL source distribution)
Java Runtime: OpenJDK Runtime Environment
JVM: OpenJDK 64-Bit Server VM
Default Encoding: UTF-8
Language: en
Country: PT
--></g></svg>