<?xml version="1.0" encoding="UTF-8" standalone="no"?><svg xmlns="http://www.w3.org/2000/svg" xmlns:xlink="http://www.w3.org/1999/xlink" contentScriptType="application/ecmascript" contentStyleType="text/css" height="446px" preserveAspectRatio="none" style="width:1240px;height:446px;" version="1.1" viewBox="0 0 1240 446" width="1240px" zoomAndPan="magnify"><defs><filter height="300%" id="fff7ozxxkvu9t" width="300%" x="-1" y="-1"><feGaussianBlur result="blurOut" stdDeviation="2.0"/><feColorMatrix in="blurOut" result="blurOut2" type="matrix" values="0 0 0 0 0 0 0 0 0 0 0 0 0 0 0 0 0 0 .4 0"/><feOffset dx="4.0" dy="4.0" in="blurOut2" result="blurOut3"/><feBlend in="SourceGraphic" in2="blurOut3" mode="normal"/></filter></defs><g><!--MD5=[8ae808d068a8995f06b9b3ec51357f0b]
class AuthFacade--><rect codeLine="4" fill="#FEFECE" filter="url(#fff7ozxxkvu9t)" height="75.6719" id="AuthFacade" style="stroke:#A80036;stroke-width:1.5;" width="144" x="548" y="7"/><ellipse cx="584.15" cy="23" fill="#ADD1B2" rx="11" ry="11" style="stroke:#A80036;stroke-width:1.0;"/><path d="M586.15,19.5 Q586.3531,19 586.5875,18.75 Q586.8219,18.5 587.0875,18.5 Q587.5563,18.5 587.8531,18.7813 Q588.15,19.0625 588.15,19.7188 L588.15,21.2813 Q588.15,21.9375 587.8688,22.2188 Q587.5875,22.5 587.15,22.5 Q586.7594,22.5 586.5094,22.3281 Q586.2594,22.1563 586.15,21.7031 Q586.1031,21.3906 585.9313,21.2188 Q585.6188,20.8906 585.0563,20.7031 Q584.4938,20.5 583.9313,20.5 Q583.2281,20.5 582.6344,20.7813 Q582.0563,21.0625 581.6031,21.6875 Q581.15,22.3125 581.15,23.1719 L581.15,24.0938 Q581.15,25.125 581.9938,25.8125 Q582.8375,26.5 584.3375,26.5 Q585.2281,26.5 585.8531,26.2969 Q586.2125,26.1875 586.6188,25.8281 Q586.8844,25.625 587.025,25.5625 Q587.1656,25.5 587.3375,25.5 Q587.6656,25.5 587.9,25.7656 Q588.15,26.0156 588.15,26.375 Q588.15,26.7188 587.8063,27.125 Q587.3063,27.7188 586.5094,28.0469 Q585.4625,28.5 584.1813,28.5 Q582.6813,28.5 581.4781,27.9063 Q580.5094,27.4375 579.8219,26.4219 Q579.15,25.4063 579.15,24.2031 L579.15,23.1094 Q579.15,21.8594 579.7438,20.7656 Q580.3531,19.6719 581.4,19.0938 Q582.4625,18.5 583.65,18.5 Q584.3688,18.5 584.9938,18.75 Q585.6188,19 586.15,19.5 Z " fill="#000000"/><text fill="#000000" font-family="sans-serif" font-size="12" lengthAdjust="spacing" textLength="65" x="602.85" y="27.9102">AuthFacade</text><line style="stroke:#A80036;stroke-width:1.5;" x1="549" x2="691" y1="39" y2="39"/><line style="stroke:#A80036;stroke-width:1.0;" x1="549" x2="691" y1="47" y2="47"/><text fill="#000000" font-family="sans-serif" font-size="11" lengthAdjust="spacing" textLength="132" x="554" y="62.4189">+doLogin(email, password)</text><text fill="#000000" font-family="sans-serif" font-size="11" lengthAdjust="spacing" textLength="104" x="554" y="76.2549">+getCurrentSession()</text><!--MD5=[c5b08e60048ef1bcd788d24cf324082e]
class UserSession--><rect codeLine="10" fill="#FEFECE" filter="url(#fff7ozxxkvu9t)" height="61.8359" id="UserSession" style="stroke:#A80036;stroke-width:1.5;" width="128" x="556" y="118"/><ellipse cx="581.35" cy="134" fill="#ADD1B2" rx="11" ry="11" style="stroke:#A80036;stroke-width:1.0;"/><path d="M583.35,130.5 Q583.5531,130 583.7875,129.75 Q584.0219,129.5 584.2875,129.5 Q584.7563,129.5 585.0531,129.7813 Q585.35,130.0625 585.35,130.7188 L585.35,132.2813 Q585.35,132.9375 585.0688,133.2188 Q584.7875,133.5 584.35,133.5 Q583.9594,133.5 583.7094,133.3281 Q583.4594,133.1563 583.35,132.7031 Q583.3031,132.3906 583.1313,132.2188 Q582.8188,131.8906 582.2563,131.7031 Q581.6938,131.5 581.1313,131.5 Q580.4281,131.5 579.8344,131.7813 Q579.2563,132.0625 578.8031,132.6875 Q578.35,133.3125 578.35,134.1719 L578.35,135.0938 Q578.35,136.125 579.1938,136.8125 Q580.0375,137.5 581.5375,137.5 Q582.4281,137.5 583.0531,137.2969 Q583.4125,137.1875 583.8188,136.8281 Q584.0844,136.625 584.225,136.5625 Q584.3656,136.5 584.5375,136.5 Q584.8656,136.5 585.1,136.7656 Q585.35,137.0156 585.35,137.375 Q585.35,137.7188 585.0063,138.125 Q584.5063,138.7188 583.7094,139.0469 Q582.6625,139.5 581.3813,139.5 Q579.8813,139.5 578.6781,138.9063 Q577.7094,138.4375 577.0219,137.4219 Q576.35,136.4063 576.35,135.2031 L576.35,134.1094 Q576.35,132.8594 576.9438,131.7656 Q577.5531,130.6719 578.6,130.0938 Q579.6625,129.5 580.85,129.5 Q581.5688,129.5 582.1938,129.75 Q582.8188,130 583.35,130.5 Z " fill="#000000"/><text fill="#000000" font-family="sans-serif" font-size="12" lengthAdjust="spacing" textLength="73" x="597.65" y="138.9102">UserSession</text><line style="stroke:#A80036;stroke-width:1.5;" x1="557" x2="683" y1="150" y2="150"/><line style="stroke:#A80036;stroke-width:1.0;" x1="557" x2="683" y1="158" y2="158"/><text fill="#000000" font-family="sans-serif" font-size="11" lengthAdjust="spacing" textLength="116" x="562" y="173.4189">+isLoggedInWithRole(id)</text><!--MD5=[36afb6bbd95a8ac778c4537c55a683d5]
class ParameterCategory--><rect codeLine="15" fill="#FEFECE" filter="url(#fff7ozxxkvu9t)" height="75.6719" id="ParameterCategory" style="stroke:#A80036;stroke-width:1.5;" width="139" x="1087" y="251"/><ellipse cx="1102" cy="267" fill="#ADD1B2" rx="11" ry="11" style="stroke:#A80036;stroke-width:1.0;"/><path d="M1104,263.5 Q1104.2031,263 1104.4375,262.75 Q1104.6719,262.5 1104.9375,262.5 Q1105.4063,262.5 1105.7031,262.7813 Q1106,263.0625 1106,263.7188 L1106,265.2813 Q1106,265.9375 1105.7188,266.2188 Q1105.4375,266.5 1105,266.5 Q1104.6094,266.5 1104.3594,266.3281 Q1104.1094,266.1563 1104,265.7031 Q1103.9531,265.3906 1103.7813,265.2188 Q1103.4688,264.8906 1102.9063,264.7031 Q1102.3438,264.5 1101.7813,264.5 Q1101.0781,264.5 1100.4844,264.7813 Q1099.9063,265.0625 1099.4531,265.6875 Q1099,266.3125 1099,267.1719 L1099,268.0938 Q1099,269.125 1099.8438,269.8125 Q1100.6875,270.5 1102.1875,270.5 Q1103.0781,270.5 1103.7031,270.2969 Q1104.0625,270.1875 1104.4688,269.8281 Q1104.7344,269.625 1104.875,269.5625 Q1105.0156,269.5 1105.1875,269.5 Q1105.5156,269.5 1105.75,269.7656 Q1106,270.0156 1106,270.375 Q1106,270.7188 1105.6563,271.125 Q1105.1563,271.7188 1104.3594,272.0469 Q1103.3125,272.5 1102.0313,272.5 Q1100.5313,272.5 1099.3281,271.9063 Q1098.3594,271.4375 1097.6719,270.4219 Q1097,269.4063 1097,268.2031 L1097,267.1094 Q1097,265.8594 1097.5938,264.7656 Q1098.2031,263.6719 1099.25,263.0938 Q1100.3125,262.5 1101.5,262.5 Q1102.2188,262.5 1102.8438,262.75 Q1103.4688,263 1104,263.5 Z " fill="#000000"/><text fill="#000000" font-family="sans-serif" font-size="12" lengthAdjust="spacing" textLength="107" x="1116" y="271.9102">ParameterCategory</text><line style="stroke:#A80036;stroke-width:1.5;" x1="1088" x2="1225" y1="283" y2="283"/><text fill="#000000" font-family="sans-serif" font-size="11" lengthAdjust="spacing" textLength="28" x="1093" y="298.4189">-code</text><text fill="#000000" font-family="sans-serif" font-size="11" lengthAdjust="spacing" textLength="30" x="1093" y="312.2549">-name</text><line style="stroke:#A80036;stroke-width:1.5;" x1="1088" x2="1225" y1="318.6719" y2="318.6719"/><!--MD5=[d802db621b5b215a6f0466f93cefcb42]
class ParameterCategoryStore--><rect codeLine="20" fill="#FEFECE" filter="url(#fff7ozxxkvu9t)" height="117.1797" id="ParameterCategoryStore" style="stroke:#A80036;stroke-width:1.5;" width="203" x="783" y="286.5"/><ellipse cx="813.75" cy="302.5" fill="#ADD1B2" rx="11" ry="11" style="stroke:#A80036;stroke-width:1.0;"/><path d="M815.75,299 Q815.9531,298.5 816.1875,298.25 Q816.4219,298 816.6875,298 Q817.1563,298 817.4531,298.2813 Q817.75,298.5625 817.75,299.2188 L817.75,300.7813 Q817.75,301.4375 817.4688,301.7188 Q817.1875,302 816.75,302 Q816.3594,302 816.1094,301.8281 Q815.8594,301.6563 815.75,301.2031 Q815.7031,300.8906 815.5313,300.7188 Q815.2188,300.3906 814.6563,300.2031 Q814.0938,300 813.5313,300 Q812.8281,300 812.2344,300.2813 Q811.6563,300.5625 811.2031,301.1875 Q810.75,301.8125 810.75,302.6719 L810.75,303.5938 Q810.75,304.625 811.5938,305.3125 Q812.4375,306 813.9375,306 Q814.8281,306 815.4531,305.7969 Q815.8125,305.6875 816.2188,305.3281 Q816.4844,305.125 816.625,305.0625 Q816.7656,305 816.9375,305 Q817.2656,305 817.5,305.2656 Q817.75,305.5156 817.75,305.875 Q817.75,306.2188 817.4063,306.625 Q816.9063,307.2188 816.1094,307.5469 Q815.0625,308 813.7813,308 Q812.2813,308 811.0781,307.4063 Q810.1094,306.9375 809.4219,305.9219 Q808.75,304.9063 808.75,303.7031 L808.75,302.6094 Q808.75,301.3594 809.3438,300.2656 Q809.9531,299.1719 811,298.5938 Q812.0625,298 813.25,298 Q813.9688,298 814.5938,298.25 Q815.2188,298.5 815.75,299 Z " fill="#000000"/><text fill="#000000" font-family="sans-serif" font-size="12" lengthAdjust="spacing" textLength="136" x="831.25" y="307.4102">ParameterCategoryStore</text><line style="stroke:#A80036;stroke-width:1.5;" x1="784" x2="985" y1="318.5" y2="318.5"/><line style="stroke:#A80036;stroke-width:1.5;" x1="784" x2="985" y1="326.5" y2="326.5"/><text fill="#000000" font-family="sans-serif" font-size="11" lengthAdjust="spacing" textLength="191" x="789" y="341.9189">+createParameterCategory(code,name)</text><text fill="#000000" font-family="sans-serif" font-size="11" lengthAdjust="spacing" textLength="156" x="789" y="355.7549">+validateParameterCategory(pc)</text><text fill="#000000" font-family="sans-serif" font-size="11" lengthAdjust="spacing" textLength="143" x="789" y="369.5908">+saveParameterCategory(pc)</text><text fill="#000000" font-family="sans-serif" font-size="11" lengthAdjust="spacing" textLength="137" x="789" y="383.4268">+addParameterCategory(pc)</text><text fill="#000000" font-family="sans-serif" font-size="11" lengthAdjust="spacing" textLength="134" x="789" y="397.2627">+getParameterCategory(pc)</text><!--MD5=[99b8db98afdc2c8404e39242ef4c1e65]
class Platform--><rect codeLine="28" fill="#FEFECE" filter="url(#fff7ozxxkvu9t)" height="75.6719" id="Platform" style="stroke:#A80036;stroke-width:1.5;" width="146" x="547" y="357"/><ellipse cx="592.75" cy="373" fill="#ADD1B2" rx="11" ry="11" style="stroke:#A80036;stroke-width:1.0;"/><path d="M594.75,369.5 Q594.9531,369 595.1875,368.75 Q595.4219,368.5 595.6875,368.5 Q596.1563,368.5 596.4531,368.7813 Q596.75,369.0625 596.75,369.7188 L596.75,371.2813 Q596.75,371.9375 596.4688,372.2188 Q596.1875,372.5 595.75,372.5 Q595.3594,372.5 595.1094,372.3281 Q594.8594,372.1563 594.75,371.7031 Q594.7031,371.3906 594.5313,371.2188 Q594.2188,370.8906 593.6563,370.7031 Q593.0938,370.5 592.5313,370.5 Q591.8281,370.5 591.2344,370.7813 Q590.6563,371.0625 590.2031,371.6875 Q589.75,372.3125 589.75,373.1719 L589.75,374.0938 Q589.75,375.125 590.5938,375.8125 Q591.4375,376.5 592.9375,376.5 Q593.8281,376.5 594.4531,376.2969 Q594.8125,376.1875 595.2188,375.8281 Q595.4844,375.625 595.625,375.5625 Q595.7656,375.5 595.9375,375.5 Q596.2656,375.5 596.5,375.7656 Q596.75,376.0156 596.75,376.375 Q596.75,376.7188 596.4063,377.125 Q595.9063,377.7188 595.1094,378.0469 Q594.0625,378.5 592.7813,378.5 Q591.2813,378.5 590.0781,377.9063 Q589.1094,377.4375 588.4219,376.4219 Q587.75,375.4063 587.75,374.2031 L587.75,373.1094 Q587.75,371.8594 588.3438,370.7656 Q588.9531,369.6719 590,369.0938 Q591.0625,368.5 592.25,368.5 Q592.9688,368.5 593.5938,368.75 Q594.2188,369 594.75,369.5 Z " fill="#000000"/><text fill="#000000" font-family="sans-serif" font-size="12" lengthAdjust="spacing" textLength="46" x="613.25" y="377.9102">Platform</text><line style="stroke:#A80036;stroke-width:1.5;" x1="548" x2="692" y1="389" y2="389"/><text fill="#000000" font-family="sans-serif" font-size="11" lengthAdjust="spacing" textLength="59" x="553" y="404.4189">-designation</text><line style="stroke:#A80036;stroke-width:1.5;" x1="548" x2="692" y1="410.8359" y2="410.8359"/><text fill="#000000" font-family="sans-serif" font-size="11" lengthAdjust="spacing" textLength="134" x="553" y="426.2549">+getParameterCategory(pc)</text><!--MD5=[6017f56a87b244e108fd0d8749edd53c]
class CreateParameterCategoryUI--><rect codeLine="33" fill="#FEFECE" filter="url(#fff7ozxxkvu9t)" height="48" id="CreateParameterCategoryUI" style="stroke:#A80036;stroke-width:1.5;" width="188" x="7" y="209"/><ellipse cx="22" cy="225" fill="#ADD1B2" rx="11" ry="11" style="stroke:#A80036;stroke-width:1.0;"/><path d="M24,221.5 Q24.2031,221 24.4375,220.75 Q24.6719,220.5 24.9375,220.5 Q25.4063,220.5 25.7031,220.7813 Q26,221.0625 26,221.7188 L26,223.2813 Q26,223.9375 25.7188,224.2188 Q25.4375,224.5 25,224.5 Q24.6094,224.5 24.3594,224.3281 Q24.1094,224.1563 24,223.7031 Q23.9531,223.3906 23.7813,223.2188 Q23.4688,222.8906 22.9063,222.7031 Q22.3438,222.5 21.7813,222.5 Q21.0781,222.5 20.4844,222.7813 Q19.9063,223.0625 19.4531,223.6875 Q19,224.3125 19,225.1719 L19,226.0938 Q19,227.125 19.8438,227.8125 Q20.6875,228.5 22.1875,228.5 Q23.0781,228.5 23.7031,228.2969 Q24.0625,228.1875 24.4688,227.8281 Q24.7344,227.625 24.875,227.5625 Q25.0156,227.5 25.1875,227.5 Q25.5156,227.5 25.75,227.7656 Q26,228.0156 26,228.375 Q26,228.7188 25.6563,229.125 Q25.1563,229.7188 24.3594,230.0469 Q23.3125,230.5 22.0313,230.5 Q20.5313,230.5 19.3281,229.9063 Q18.3594,229.4375 17.6719,228.4219 Q17,227.4063 17,226.2031 L17,225.1094 Q17,223.8594 17.5938,222.7656 Q18.2031,221.6719 19.25,221.0938 Q20.3125,220.5 21.5,220.5 Q22.2188,220.5 22.8438,220.75 Q23.4688,221 24,221.5 Z " fill="#000000"/><text fill="#000000" font-family="sans-serif" font-size="12" lengthAdjust="spacing" textLength="156" x="36" y="229.9102">CreateParameterCategoryUI</text><line style="stroke:#A80036;stroke-width:1.5;" x1="8" x2="194" y1="241" y2="241"/><line style="stroke:#A80036;stroke-width:1.5;" x1="8" x2="194" y1="249" y2="249"/><!--MD5=[43bb81d93caae6cc68206df5797cd1c4]
class CreateParameterCategoryController--><rect codeLine="35" fill="#FEFECE" filter="url(#fff7ozxxkvu9t)" height="75.6719" id="CreateParameterCategoryController" style="stroke:#A80036;stroke-width:1.5;" width="230" x="256" y="195"/><ellipse cx="271" cy="211" fill="#ADD1B2" rx="11" ry="11" style="stroke:#A80036;stroke-width:1.0;"/><path d="M273,207.5 Q273.2031,207 273.4375,206.75 Q273.6719,206.5 273.9375,206.5 Q274.4063,206.5 274.7031,206.7813 Q275,207.0625 275,207.7188 L275,209.2813 Q275,209.9375 274.7188,210.2188 Q274.4375,210.5 274,210.5 Q273.6094,210.5 273.3594,210.3281 Q273.1094,210.1563 273,209.7031 Q272.9531,209.3906 272.7813,209.2188 Q272.4688,208.8906 271.9063,208.7031 Q271.3438,208.5 270.7813,208.5 Q270.0781,208.5 269.4844,208.7813 Q268.9063,209.0625 268.4531,209.6875 Q268,210.3125 268,211.1719 L268,212.0938 Q268,213.125 268.8438,213.8125 Q269.6875,214.5 271.1875,214.5 Q272.0781,214.5 272.7031,214.2969 Q273.0625,214.1875 273.4688,213.8281 Q273.7344,213.625 273.875,213.5625 Q274.0156,213.5 274.1875,213.5 Q274.5156,213.5 274.75,213.7656 Q275,214.0156 275,214.375 Q275,214.7188 274.6563,215.125 Q274.1563,215.7188 273.3594,216.0469 Q272.3125,216.5 271.0313,216.5 Q269.5313,216.5 268.3281,215.9063 Q267.3594,215.4375 266.6719,214.4219 Q266,213.4063 266,212.2031 L266,211.1094 Q266,209.8594 266.5938,208.7656 Q267.2031,207.6719 268.25,207.0938 Q269.3125,206.5 270.5,206.5 Q271.2188,206.5 271.8438,206.75 Q272.4688,207 273,207.5 Z " fill="#000000"/><text fill="#000000" font-family="sans-serif" font-size="12" lengthAdjust="spacing" textLength="198" x="285" y="215.9102">CreateParameterCategoryController</text><line style="stroke:#A80036;stroke-width:1.5;" x1="257" x2="485" y1="227" y2="227"/><line style="stroke:#A80036;stroke-width:1.5;" x1="257" x2="485" y1="235" y2="235"/><text fill="#000000" font-family="sans-serif" font-size="11" lengthAdjust="spacing" textLength="191" x="262" y="250.4189">+createParameterCategory(code,name)</text><text fill="#000000" font-family="sans-serif" font-size="11" lengthAdjust="spacing" textLength="131" x="262" y="264.2549">+saveParameterCategory()</text><!--MD5=[93b1b9218398b0464d36d46d0f539949]
link CreateParameterCategoryUI to CreateParameterCategoryController--><path codeLine="40" d="M195.36,233 C213.17,233 232.04,233 250.54,233 " fill="none" id="CreateParameterCategoryUI-to-CreateParameterCategoryController" style="stroke:#A80036;stroke-width:1.0;stroke-dasharray:7.0,7.0;"/><polygon fill="#A80036" points="255.74,233,246.74,229,250.74,233,246.74,237,255.74,233" style="stroke:#A80036;stroke-width:1.0;"/><!--MD5=[41e383d00f85b2ce56264b47d650ceff]
link CreateParameterCategoryController to AuthFacade--><path codeLine="41" d="M421.98,194.96 C463.36,163.46 522.05,118.79 564.6,86.41 " fill="none" id="CreateParameterCategoryController-to-AuthFacade" style="stroke:#A80036;stroke-width:1.0;stroke-dasharray:7.0,7.0;"/><polygon fill="#A80036" points="568.67,83.31,559.0879,85.5868,564.6942,86.3419,563.939,91.9482,568.67,83.31" style="stroke:#A80036;stroke-width:1.0;"/><!--MD5=[fd219f4828306a8f450332f04f019e2f]
link CreateParameterCategoryController to UserSession--><path codeLine="42" d="M483.94,194.93 C506.74,187.18 530.08,179.24 550.8,172.19 " fill="none" id="CreateParameterCategoryController-to-UserSession" style="stroke:#A80036;stroke-width:1.0;stroke-dasharray:7.0,7.0;"/><polygon fill="#A80036" points="555.73,170.52,545.9203,169.6422,550.9981,172.1354,548.505,177.2132,555.73,170.52" style="stroke:#A80036;stroke-width:1.0;"/><!--MD5=[6c8829d2dcd55cf61483b7cefc41af9a]
link CreateParameterCategoryController to Platform--><path codeLine="43" d="M427.82,271.16 C454.4,289.19 486.71,310.9 516,330 C528.17,337.94 541.23,346.3 553.83,354.28 " fill="none" id="CreateParameterCategoryController-to-Platform" style="stroke:#A80036;stroke-width:1.0;stroke-dasharray:7.0,7.0;"/><polygon fill="#A80036" points="558.08,356.98,552.6076,348.7914,553.8529,354.3095,548.3348,355.5548,558.08,356.98" style="stroke:#A80036;stroke-width:1.0;"/><!--MD5=[869a0022b647c5cba08cf9438b652be2]
link CreateParameterCategoryController to ParameterCategory--><path codeLine="44" d="M486.16,237.68 C609.56,243.21 811.96,253.64 986,269 C1017.39,271.77 1051.95,275.69 1081.63,279.33 " fill="none" id="CreateParameterCategoryController-to-ParameterCategory" style="stroke:#A80036;stroke-width:1.0;stroke-dasharray:7.0,7.0;"/><polygon fill="#A80036" points="1086.73,279.95,1078.2759,274.8975,1081.7662,279.3492,1077.3146,282.8396,1086.73,279.95" style="stroke:#A80036;stroke-width:1.0;"/><!--MD5=[be6e87e2c6f1800ec3da53612c46e11a]
link CreateParameterCategoryController to ParameterCategoryStore--><path codeLine="45" d="M486.15,258 C573.34,277.09 692.58,303.19 777.63,321.82 " fill="none" id="CreateParameterCategoryController-to-ParameterCategoryStore" style="stroke:#A80036;stroke-width:1.0;stroke-dasharray:7.0,7.0;"/><polygon fill="#A80036" points="782.68,322.92,774.7457,317.085,777.7961,321.849,773.0321,324.8993,782.68,322.92" style="stroke:#A80036;stroke-width:1.0;"/><!--MD5=[46db4adb1bbce10e1e4e87065d1f66a9]
link Platform to ParameterCategoryStore--><path codeLine="46" d="M693.08,381.27 C719.19,376.3 749.25,370.57 777.67,365.16 " fill="none" id="Platform-to-ParameterCategoryStore" style="stroke:#A80036;stroke-width:1.0;"/><polygon fill="#A80036" points="782.58,364.22,772.9875,361.9875,777.6696,365.1621,774.4949,369.8442,782.58,364.22" style="stroke:#A80036;stroke-width:1.0;"/><text fill="#000000" font-family="sans-serif" font-size="13" lengthAdjust="spacing" textLength="28" x="724" y="366.4951">uses</text><text fill="#000000" font-family="sans-serif" font-size="13" lengthAdjust="spacing" textLength="7" x="700.9773" y="394.2093">1</text><text fill="#000000" font-family="sans-serif" font-size="13" lengthAdjust="spacing" textLength="7" x="767.8382" y="379.7204">1</text><!--MD5=[d6274e3b73b5bc8f467c6cfbf5bf003e]
link ParameterCategoryStore to ParameterCategory--><path codeLine="47" d="M986.04,324.15 C1017.79,317.56 1052.26,310.41 1081.77,304.29 " fill="none" id="ParameterCategoryStore-to-ParameterCategory" style="stroke:#A80036;stroke-width:1.0;"/><polygon fill="#A80036" points="1086.84,303.24,1077.216,301.1473,1081.9438,304.2535,1078.8376,308.9813,1086.84,303.24" style="stroke:#A80036;stroke-width:1.0;"/><text fill="#000000" font-family="sans-serif" font-size="13" lengthAdjust="spacing" textLength="39" x="1017" y="306.4951">adopts</text><text fill="#000000" font-family="sans-serif" font-size="13" lengthAdjust="spacing" textLength="7" x="994.0821" y="336.6679">1</text><text fill="#000000" font-family="sans-serif" font-size="13" lengthAdjust="spacing" textLength="5" x="1073.9475" y="319.2048">*</text><!--MD5=[77749a6bd0ae6021c3f142931f1c47e3]
@startuml
skinparam classAttributeIconSize 0
left to right direction

class AuthFacade{
    - -
    +doLogin(email, password)
    +getCurrentSession()
}

class UserSession{
    - -
    +isLoggedInWithRole(id)
}

class ParameterCategory {
  -code
  -name
}

class ParameterCategoryStore{
    +createParameterCategory(code,name)
    +validateParameterCategory(pc)
    +saveParameterCategory(pc)
    +addParameterCategory(pc)
    +getParameterCategory(pc)
}

class Platform {
  -designation
  +getParameterCategory(pc)
}

class CreateParameterCategoryUI{}

class CreateParameterCategoryController{
    +createParameterCategory(code,name)
    +saveParameterCategory()
}

CreateParameterCategoryUI ..> CreateParameterCategoryController
CreateParameterCategoryController ..> AuthFacade
CreateParameterCategoryController ..> UserSession
CreateParameterCategoryController ..> Platform
CreateParameterCategoryController ..> ParameterCategory
CreateParameterCategoryController ..> ParameterCategoryStore
Platform "1" - -> "1" ParameterCategoryStore : uses
ParameterCategoryStore "1" - -> "*" ParameterCategory : adopts


@enduml

PlantUML version 1.2021.2(Sun Mar 07 11:10:27 GMT 2021)
(GPL source distribution)
Java Runtime: OpenJDK Runtime Environment
JVM: OpenJDK 64-Bit Server VM
Default Encoding: Cp1252
Language: pt
Country: PT
--></g></svg>