<?xml version="1.0" encoding="UTF-8" standalone="no"?><svg xmlns="http://www.w3.org/2000/svg" xmlns:xlink="http://www.w3.org/1999/xlink" contentScriptType="application/ecmascript" contentStyleType="text/css" height="431px" preserveAspectRatio="none" style="width:1004px;height:431px;" version="1.1" viewBox="0 0 1004 431" width="1004px" zoomAndPan="magnify"><defs><filter height="300%" id="f1jauyatufg3ek" width="300%" x="-1" y="-1"><feGaussianBlur result="blurOut" stdDeviation="2.0"/><feColorMatrix in="blurOut" result="blurOut2" type="matrix" values="0 0 0 0 0 0 0 0 0 0 0 0 0 0 0 0 0 0 .4 0"/><feOffset dx="4.0" dy="4.0" in="blurOut2" result="blurOut3"/><feBlend in="SourceGraphic" in2="blurOut3" mode="normal"/></filter></defs><g><!--MD5=[8ae808d068a8995f06b9b3ec51357f0b]
class AuthFacade--><rect codeLine="4" fill="#FEFECE" filter="url(#f1jauyatufg3ek)" height="75.6719" id="AuthFacade" style="stroke:#A80036;stroke-width:1.5;" width="144" x="576.5" y="7"/><ellipse cx="612.65" cy="23" fill="#ADD1B2" rx="11" ry="11" style="stroke:#A80036;stroke-width:1.0;"/><path d="M614.65,19.5 Q614.8531,19 615.0875,18.75 Q615.3219,18.5 615.5875,18.5 Q616.0563,18.5 616.3531,18.7813 Q616.65,19.0625 616.65,19.7188 L616.65,21.2813 Q616.65,21.9375 616.3688,22.2188 Q616.0875,22.5 615.65,22.5 Q615.2594,22.5 615.0094,22.3281 Q614.7594,22.1563 614.65,21.7031 Q614.6031,21.3906 614.4313,21.2188 Q614.1188,20.8906 613.5563,20.7031 Q612.9938,20.5 612.4313,20.5 Q611.7281,20.5 611.1344,20.7813 Q610.5563,21.0625 610.1031,21.6875 Q609.65,22.3125 609.65,23.1719 L609.65,24.0938 Q609.65,25.125 610.4938,25.8125 Q611.3375,26.5 612.8375,26.5 Q613.7281,26.5 614.3531,26.2969 Q614.7125,26.1875 615.1188,25.8281 Q615.3844,25.625 615.525,25.5625 Q615.6656,25.5 615.8375,25.5 Q616.1656,25.5 616.4,25.7656 Q616.65,26.0156 616.65,26.375 Q616.65,26.7188 616.3063,27.125 Q615.8063,27.7188 615.0094,28.0469 Q613.9625,28.5 612.6813,28.5 Q611.1813,28.5 609.9781,27.9063 Q609.0094,27.4375 608.3219,26.4219 Q607.65,25.4063 607.65,24.2031 L607.65,23.1094 Q607.65,21.8594 608.2438,20.7656 Q608.8531,19.6719 609.9,19.0938 Q610.9625,18.5 612.15,18.5 Q612.8688,18.5 613.4938,18.75 Q614.1188,19 614.65,19.5 Z " fill="#000000"/><text fill="#000000" font-family="sans-serif" font-size="12" lengthAdjust="spacing" textLength="65" x="631.35" y="27.9102">AuthFacade</text><line style="stroke:#A80036;stroke-width:1.5;" x1="577.5" x2="719.5" y1="39" y2="39"/><line style="stroke:#A80036;stroke-width:1.0;" x1="577.5" x2="719.5" y1="47" y2="47"/><text fill="#000000" font-family="sans-serif" font-size="11" lengthAdjust="spacing" textLength="132" x="582.5" y="62.4189">+doLogin(email, password)</text><text fill="#000000" font-family="sans-serif" font-size="11" lengthAdjust="spacing" textLength="104" x="582.5" y="76.2549">+getCurrentSession()</text><!--MD5=[c5b08e60048ef1bcd788d24cf324082e]
class UserSession--><rect codeLine="10" fill="#FEFECE" filter="url(#f1jauyatufg3ek)" height="61.8359" id="UserSession" style="stroke:#A80036;stroke-width:1.5;" width="128" x="584.5" y="118"/><ellipse cx="609.85" cy="134" fill="#ADD1B2" rx="11" ry="11" style="stroke:#A80036;stroke-width:1.0;"/><path d="M611.85,130.5 Q612.0531,130 612.2875,129.75 Q612.5219,129.5 612.7875,129.5 Q613.2563,129.5 613.5531,129.7813 Q613.85,130.0625 613.85,130.7188 L613.85,132.2813 Q613.85,132.9375 613.5688,133.2188 Q613.2875,133.5 612.85,133.5 Q612.4594,133.5 612.2094,133.3281 Q611.9594,133.1563 611.85,132.7031 Q611.8031,132.3906 611.6313,132.2188 Q611.3188,131.8906 610.7563,131.7031 Q610.1938,131.5 609.6313,131.5 Q608.9281,131.5 608.3344,131.7813 Q607.7563,132.0625 607.3031,132.6875 Q606.85,133.3125 606.85,134.1719 L606.85,135.0938 Q606.85,136.125 607.6938,136.8125 Q608.5375,137.5 610.0375,137.5 Q610.9281,137.5 611.5531,137.2969 Q611.9125,137.1875 612.3188,136.8281 Q612.5844,136.625 612.725,136.5625 Q612.8656,136.5 613.0375,136.5 Q613.3656,136.5 613.6,136.7656 Q613.85,137.0156 613.85,137.375 Q613.85,137.7188 613.5063,138.125 Q613.0063,138.7188 612.2094,139.0469 Q611.1625,139.5 609.8813,139.5 Q608.3813,139.5 607.1781,138.9063 Q606.2094,138.4375 605.5219,137.4219 Q604.85,136.4063 604.85,135.2031 L604.85,134.1094 Q604.85,132.8594 605.4438,131.7656 Q606.0531,130.6719 607.1,130.0938 Q608.1625,129.5 609.35,129.5 Q610.0688,129.5 610.6938,129.75 Q611.3188,130 611.85,130.5 Z " fill="#000000"/><text fill="#000000" font-family="sans-serif" font-size="12" lengthAdjust="spacing" textLength="73" x="626.15" y="138.9102">UserSession</text><line style="stroke:#A80036;stroke-width:1.5;" x1="585.5" x2="711.5" y1="150" y2="150"/><line style="stroke:#A80036;stroke-width:1.0;" x1="585.5" x2="711.5" y1="158" y2="158"/><text fill="#000000" font-family="sans-serif" font-size="11" lengthAdjust="spacing" textLength="116" x="590.5" y="173.4189">+isLoggedInWithRole(id)</text><!--MD5=[36afb6bbd95a8ac778c4537c55a683d5]
class ParameterCategory--><rect codeLine="15" fill="#FEFECE" filter="url(#f1jauyatufg3ek)" height="75.6719" id="ParameterCategory" style="stroke:#A80036;stroke-width:1.5;" width="139" x="851" y="255"/><ellipse cx="866" cy="271" fill="#ADD1B2" rx="11" ry="11" style="stroke:#A80036;stroke-width:1.0;"/><path d="M868,267.5 Q868.2031,267 868.4375,266.75 Q868.6719,266.5 868.9375,266.5 Q869.4063,266.5 869.7031,266.7813 Q870,267.0625 870,267.7188 L870,269.2813 Q870,269.9375 869.7188,270.2188 Q869.4375,270.5 869,270.5 Q868.6094,270.5 868.3594,270.3281 Q868.1094,270.1563 868,269.7031 Q867.9531,269.3906 867.7813,269.2188 Q867.4688,268.8906 866.9063,268.7031 Q866.3438,268.5 865.7813,268.5 Q865.0781,268.5 864.4844,268.7813 Q863.9063,269.0625 863.4531,269.6875 Q863,270.3125 863,271.1719 L863,272.0938 Q863,273.125 863.8438,273.8125 Q864.6875,274.5 866.1875,274.5 Q867.0781,274.5 867.7031,274.2969 Q868.0625,274.1875 868.4688,273.8281 Q868.7344,273.625 868.875,273.5625 Q869.0156,273.5 869.1875,273.5 Q869.5156,273.5 869.75,273.7656 Q870,274.0156 870,274.375 Q870,274.7188 869.6563,275.125 Q869.1563,275.7188 868.3594,276.0469 Q867.3125,276.5 866.0313,276.5 Q864.5313,276.5 863.3281,275.9063 Q862.3594,275.4375 861.6719,274.4219 Q861,273.4063 861,272.2031 L861,271.1094 Q861,269.8594 861.5938,268.7656 Q862.2031,267.6719 863.25,267.0938 Q864.3125,266.5 865.5,266.5 Q866.2188,266.5 866.8438,266.75 Q867.4688,267 868,267.5 Z " fill="#000000"/><text fill="#000000" font-family="sans-serif" font-size="12" lengthAdjust="spacing" textLength="107" x="880" y="275.9102">ParameterCategory</text><line style="stroke:#A80036;stroke-width:1.5;" x1="852" x2="989" y1="287" y2="287"/><text fill="#000000" font-family="sans-serif" font-size="11" lengthAdjust="spacing" textLength="28" x="857" y="302.4189">-code</text><text fill="#000000" font-family="sans-serif" font-size="11" lengthAdjust="spacing" textLength="30" x="857" y="316.2549">-name</text><line style="stroke:#A80036;stroke-width:1.5;" x1="852" x2="989" y1="322.6719" y2="322.6719"/><!--MD5=[99b8db98afdc2c8404e39242ef4c1e65]
class Platform--><rect codeLine="20" fill="#FEFECE" filter="url(#f1jauyatufg3ek)" height="131.0156" id="Platform" style="stroke:#A80036;stroke-width:1.5;" width="203" x="547" y="286.5"/><ellipse cx="621.25" cy="302.5" fill="#ADD1B2" rx="11" ry="11" style="stroke:#A80036;stroke-width:1.0;"/><path d="M623.25,299 Q623.4531,298.5 623.6875,298.25 Q623.9219,298 624.1875,298 Q624.6563,298 624.9531,298.2813 Q625.25,298.5625 625.25,299.2188 L625.25,300.7813 Q625.25,301.4375 624.9688,301.7188 Q624.6875,302 624.25,302 Q623.8594,302 623.6094,301.8281 Q623.3594,301.6563 623.25,301.2031 Q623.2031,300.8906 623.0313,300.7188 Q622.7188,300.3906 622.1563,300.2031 Q621.5938,300 621.0313,300 Q620.3281,300 619.7344,300.2813 Q619.1563,300.5625 618.7031,301.1875 Q618.25,301.8125 618.25,302.6719 L618.25,303.5938 Q618.25,304.625 619.0938,305.3125 Q619.9375,306 621.4375,306 Q622.3281,306 622.9531,305.7969 Q623.3125,305.6875 623.7188,305.3281 Q623.9844,305.125 624.125,305.0625 Q624.2656,305 624.4375,305 Q624.7656,305 625,305.2656 Q625.25,305.5156 625.25,305.875 Q625.25,306.2188 624.9063,306.625 Q624.4063,307.2188 623.6094,307.5469 Q622.5625,308 621.2813,308 Q619.7813,308 618.5781,307.4063 Q617.6094,306.9375 616.9219,305.9219 Q616.25,304.9063 616.25,303.7031 L616.25,302.6094 Q616.25,301.3594 616.8438,300.2656 Q617.4531,299.1719 618.5,298.5938 Q619.5625,298 620.75,298 Q621.4688,298 622.0938,298.25 Q622.7188,298.5 623.25,299 Z " fill="#000000"/><text fill="#000000" font-family="sans-serif" font-size="12" lengthAdjust="spacing" textLength="46" x="641.75" y="307.4102">Platform</text><line style="stroke:#A80036;stroke-width:1.5;" x1="548" x2="749" y1="318.5" y2="318.5"/><text fill="#000000" font-family="sans-serif" font-size="11" lengthAdjust="spacing" textLength="59" x="553" y="333.9189">-designation</text><line style="stroke:#A80036;stroke-width:1.5;" x1="548" x2="749" y1="340.3359" y2="340.3359"/><text fill="#000000" font-family="sans-serif" font-size="11" lengthAdjust="spacing" textLength="191" x="553" y="355.7549">+createParameterCategory(code,name)</text><text fill="#000000" font-family="sans-serif" font-size="11" lengthAdjust="spacing" textLength="156" x="553" y="369.5908">+validateParameterCategory(pc)</text><text fill="#000000" font-family="sans-serif" font-size="11" lengthAdjust="spacing" textLength="143" x="553" y="383.4268">+saveParameterCategory(pc)</text><text fill="#000000" font-family="sans-serif" font-size="11" lengthAdjust="spacing" textLength="137" x="553" y="397.2627">+addParameterCategory(pc)</text><text fill="#000000" font-family="sans-serif" font-size="11" lengthAdjust="spacing" textLength="134" x="553" y="411.0986">+getParameterCategory(pc)</text><!--MD5=[6017f56a87b244e108fd0d8749edd53c]
class CreateParameterCategoryUI--><rect codeLine="29" fill="#FEFECE" filter="url(#f1jauyatufg3ek)" height="48" id="CreateParameterCategoryUI" style="stroke:#A80036;stroke-width:1.5;" width="188" x="7" y="167"/><ellipse cx="22" cy="183" fill="#ADD1B2" rx="11" ry="11" style="stroke:#A80036;stroke-width:1.0;"/><path d="M24,179.5 Q24.2031,179 24.4375,178.75 Q24.6719,178.5 24.9375,178.5 Q25.4063,178.5 25.7031,178.7813 Q26,179.0625 26,179.7188 L26,181.2813 Q26,181.9375 25.7188,182.2188 Q25.4375,182.5 25,182.5 Q24.6094,182.5 24.3594,182.3281 Q24.1094,182.1563 24,181.7031 Q23.9531,181.3906 23.7813,181.2188 Q23.4688,180.8906 22.9063,180.7031 Q22.3438,180.5 21.7813,180.5 Q21.0781,180.5 20.4844,180.7813 Q19.9063,181.0625 19.4531,181.6875 Q19,182.3125 19,183.1719 L19,184.0938 Q19,185.125 19.8438,185.8125 Q20.6875,186.5 22.1875,186.5 Q23.0781,186.5 23.7031,186.2969 Q24.0625,186.1875 24.4688,185.8281 Q24.7344,185.625 24.875,185.5625 Q25.0156,185.5 25.1875,185.5 Q25.5156,185.5 25.75,185.7656 Q26,186.0156 26,186.375 Q26,186.7188 25.6563,187.125 Q25.1563,187.7188 24.3594,188.0469 Q23.3125,188.5 22.0313,188.5 Q20.5313,188.5 19.3281,187.9063 Q18.3594,187.4375 17.6719,186.4219 Q17,185.4063 17,184.2031 L17,183.1094 Q17,181.8594 17.5938,180.7656 Q18.2031,179.6719 19.25,179.0938 Q20.3125,178.5 21.5,178.5 Q22.2188,178.5 22.8438,178.75 Q23.4688,179 24,179.5 Z " fill="#000000"/><text fill="#000000" font-family="sans-serif" font-size="12" lengthAdjust="spacing" textLength="156" x="36" y="187.9102">CreateParameterCategoryUI</text><line style="stroke:#A80036;stroke-width:1.5;" x1="8" x2="194" y1="199" y2="199"/><line style="stroke:#A80036;stroke-width:1.5;" x1="8" x2="194" y1="207" y2="207"/><!--MD5=[43bb81d93caae6cc68206df5797cd1c4]
class CreateParameterCategoryController--><rect codeLine="31" fill="#FEFECE" filter="url(#f1jauyatufg3ek)" height="75.6719" id="CreateParameterCategoryController" style="stroke:#A80036;stroke-width:1.5;" width="230" x="256" y="153"/><ellipse cx="271" cy="169" fill="#ADD1B2" rx="11" ry="11" style="stroke:#A80036;stroke-width:1.0;"/><path d="M273,165.5 Q273.2031,165 273.4375,164.75 Q273.6719,164.5 273.9375,164.5 Q274.4063,164.5 274.7031,164.7813 Q275,165.0625 275,165.7188 L275,167.2813 Q275,167.9375 274.7188,168.2188 Q274.4375,168.5 274,168.5 Q273.6094,168.5 273.3594,168.3281 Q273.1094,168.1563 273,167.7031 Q272.9531,167.3906 272.7813,167.2188 Q272.4688,166.8906 271.9063,166.7031 Q271.3438,166.5 270.7813,166.5 Q270.0781,166.5 269.4844,166.7813 Q268.9063,167.0625 268.4531,167.6875 Q268,168.3125 268,169.1719 L268,170.0938 Q268,171.125 268.8438,171.8125 Q269.6875,172.5 271.1875,172.5 Q272.0781,172.5 272.7031,172.2969 Q273.0625,172.1875 273.4688,171.8281 Q273.7344,171.625 273.875,171.5625 Q274.0156,171.5 274.1875,171.5 Q274.5156,171.5 274.75,171.7656 Q275,172.0156 275,172.375 Q275,172.7188 274.6563,173.125 Q274.1563,173.7188 273.3594,174.0469 Q272.3125,174.5 271.0313,174.5 Q269.5313,174.5 268.3281,173.9063 Q267.3594,173.4375 266.6719,172.4219 Q266,171.4063 266,170.2031 L266,169.1094 Q266,167.8594 266.5938,166.7656 Q267.2031,165.6719 268.25,165.0938 Q269.3125,164.5 270.5,164.5 Q271.2188,164.5 271.8438,164.75 Q272.4688,165 273,165.5 Z " fill="#000000"/><text fill="#000000" font-family="sans-serif" font-size="12" lengthAdjust="spacing" textLength="198" x="285" y="173.9102">CreateParameterCategoryController</text><line style="stroke:#A80036;stroke-width:1.5;" x1="257" x2="485" y1="185" y2="185"/><line style="stroke:#A80036;stroke-width:1.5;" x1="257" x2="485" y1="193" y2="193"/><text fill="#000000" font-family="sans-serif" font-size="11" lengthAdjust="spacing" textLength="191" x="262" y="208.4189">+createParameterCategory(code,name)</text><text fill="#000000" font-family="sans-serif" font-size="11" lengthAdjust="spacing" textLength="131" x="262" y="222.2549">+saveParameterCategory()</text><!--MD5=[93b1b9218398b0464d36d46d0f539949]
link CreateParameterCategoryUI to CreateParameterCategoryController--><path codeLine="36" d="M195.36,191 C213.17,191 232.04,191 250.54,191 " fill="none" id="CreateParameterCategoryUI-to-CreateParameterCategoryController" style="stroke:#A80036;stroke-width:1.0;stroke-dasharray:7.0,7.0;"/><polygon fill="#A80036" points="255.74,191,246.74,187,250.74,191,246.74,195,255.74,191" style="stroke:#A80036;stroke-width:1.0;"/><!--MD5=[41e383d00f85b2ce56264b47d650ceff]
link CreateParameterCategoryController to AuthFacade--><path codeLine="37" d="M444.02,152.83 C483.24,132.05 531.75,106.34 571.56,85.24 " fill="none" id="CreateParameterCategoryController-to-AuthFacade" style="stroke:#A80036;stroke-width:1.0;stroke-dasharray:7.0,7.0;"/><polygon fill="#A80036" points="576.37,82.69,566.5434,83.3512,571.9476,85.0229,570.2759,90.4271,576.37,82.69" style="stroke:#A80036;stroke-width:1.0;"/><!--MD5=[fd219f4828306a8f450332f04f019e2f]
link CreateParameterCategoryController to UserSession--><path codeLine="38" d="M486.05,173.61 C517.68,168.79 551.03,163.71 579.16,159.42 " fill="none" id="CreateParameterCategoryController-to-UserSession" style="stroke:#A80036;stroke-width:1.0;stroke-dasharray:7.0,7.0;"/><polygon fill="#A80036" points="584.35,158.63,574.8481,156.0388,579.4076,159.3871,576.0594,163.9466,584.35,158.63" style="stroke:#A80036;stroke-width:1.0;"/><!--MD5=[6c8829d2dcd55cf61483b7cefc41af9a]
link CreateParameterCategoryController to Platform--><path codeLine="39" d="M437.29,229.15 C468.58,247.44 506.85,269.81 542.12,290.42 " fill="none" id="CreateParameterCategoryController-to-Platform" style="stroke:#A80036;stroke-width:1.0;stroke-dasharray:7.0,7.0;"/><polygon fill="#A80036" points="546.85,293.18,541.1079,285.1782,542.5363,290.6518,537.0627,292.0801,546.85,293.18" style="stroke:#A80036;stroke-width:1.0;"/><!--MD5=[869a0022b647c5cba08cf9438b652be2]
link CreateParameterCategoryController to ParameterCategory--><path codeLine="40" d="M486.11,212.26 C594.22,232.4 753.4,262.05 845.75,279.26 " fill="none" id="CreateParameterCategoryController-to-ParameterCategory" style="stroke:#A80036;stroke-width:1.0;stroke-dasharray:7.0,7.0;"/><polygon fill="#A80036" points="850.91,280.22,842.8092,274.6185,845.9969,279.2917,841.3238,282.4794,850.91,280.22" style="stroke:#A80036;stroke-width:1.0;"/><!--MD5=[22b7b7c9c071c7d98b9f37ca5629dc8c]
link Platform to ParameterCategory--><path codeLine="41" d="M750.04,330.03 C781.79,323.09 816.26,315.56 845.77,309.11 " fill="none" id="Platform-to-ParameterCategory" style="stroke:#A80036;stroke-width:1.0;"/><polygon fill="#A80036" points="850.84,308,841.1976,305.9938,845.9531,309.0574,842.8895,313.8129,850.84,308" style="stroke:#A80036;stroke-width:1.0;"/><text fill="#000000" font-family="sans-serif" font-size="13" lengthAdjust="spacing" textLength="39" x="781" y="311.4951">adopts</text><text fill="#000000" font-family="sans-serif" font-size="13" lengthAdjust="spacing" textLength="7" x="758.0821" y="342.4684">1</text><text fill="#000000" font-family="sans-serif" font-size="13" lengthAdjust="spacing" textLength="5" x="837.9475" y="324.0479">*</text><!--MD5=[ad2ab8b1c20049d9af2ba95c79f71aef]
@startuml
skinparam classAttributeIconSize 0
left to right direction

class AuthFacade{
    - -
    +doLogin(email, password)
    +getCurrentSession()
}

class UserSession{
    - -
    +isLoggedInWithRole(id)
}

class ParameterCategory {
  -code
  -name
}

class Platform {
  -designation
  +createParameterCategory(code,name)
  +validateParameterCategory(pc)
  +saveParameterCategory(pc)
  +addParameterCategory(pc)
  +getParameterCategory(pc)
}

class CreateParameterCategoryUI{}

class CreateParameterCategoryController{
    +createParameterCategory(code,name)
    +saveParameterCategory()
}

CreateParameterCategoryUI ..> CreateParameterCategoryController
CreateParameterCategoryController ..> AuthFacade
CreateParameterCategoryController ..> UserSession
CreateParameterCategoryController ..> Platform
CreateParameterCategoryController ..> ParameterCategory
Platform "1" - -> "*" ParameterCategory : adopts


@enduml

PlantUML version 1.2021.2(Sun Mar 07 11:10:27 GMT 2021)
(GPL source distribution)
Java Runtime: OpenJDK Runtime Environment
JVM: OpenJDK 64-Bit Server VM
Default Encoding: Cp1252
Language: pt
Country: PT
--></g></svg>