<?xml version="1.0" encoding="UTF-8" standalone="no"?><svg xmlns="http://www.w3.org/2000/svg" xmlns:xlink="http://www.w3.org/1999/xlink" contentScriptType="application/ecmascript" contentStyleType="text/css" height="219px" preserveAspectRatio="none" style="width:672px;height:219px;" version="1.1" viewBox="0 0 672 219" width="672px" zoomAndPan="magnify"><defs><filter height="300%" id="fkiebwm0jy36t" width="300%" x="-1" y="-1"><feGaussianBlur result="blurOut" stdDeviation="2.0"/><feColorMatrix in="blurOut" result="blurOut2" type="matrix" values="0 0 0 0 0 0 0 0 0 0 0 0 0 0 0 0 0 0 .4 0"/><feOffset dx="4.0" dy="4.0" in="blurOut2" result="blurOut3"/><feBlend in="SourceGraphic" in2="blurOut3" mode="normal"/></filter></defs><g><!--MD5=[02e4b9b7573f1156f41e60aa5b4e25a4]
class Company--><rect codeLine="5" fill="#FEFECE" filter="url(#fkiebwm0jy36t)" height="53.8359" id="Company" style="stroke:#A80036;stroke-width:1.5;" width="85" x="7" y="95"/><ellipse cx="22" cy="111" fill="#ADD1B2" rx="11" ry="11" style="stroke:#A80036;stroke-width:1.0;"/><path d="M24,107.5 Q24.2031,107 24.4375,106.75 Q24.6719,106.5 24.9375,106.5 Q25.4063,106.5 25.7031,106.7813 Q26,107.0625 26,107.7188 L26,109.2813 Q26,109.9375 25.7188,110.2188 Q25.4375,110.5 25,110.5 Q24.6094,110.5 24.3594,110.3281 Q24.1094,110.1563 24,109.7031 Q23.9531,109.3906 23.7813,109.2188 Q23.4688,108.8906 22.9063,108.7031 Q22.3438,108.5 21.7813,108.5 Q21.0781,108.5 20.4844,108.7813 Q19.9063,109.0625 19.4531,109.6875 Q19,110.3125 19,111.1719 L19,112.0938 Q19,113.125 19.8438,113.8125 Q20.6875,114.5 22.1875,114.5 Q23.0781,114.5 23.7031,114.2969 Q24.0625,114.1875 24.4688,113.8281 Q24.7344,113.625 24.875,113.5625 Q25.0156,113.5 25.1875,113.5 Q25.5156,113.5 25.75,113.7656 Q26,114.0156 26,114.375 Q26,114.7188 25.6563,115.125 Q25.1563,115.7188 24.3594,116.0469 Q23.3125,116.5 22.0313,116.5 Q20.5313,116.5 19.3281,115.9063 Q18.3594,115.4375 17.6719,114.4219 Q17,113.4063 17,112.2031 L17,111.1094 Q17,109.8594 17.5938,108.7656 Q18.2031,107.6719 19.25,107.0938 Q20.3125,106.5 21.5,106.5 Q22.2188,106.5 22.8438,106.75 Q23.4688,107 24,107.5 Z " fill="#000000"/><text fill="#000000" font-family="sans-serif" font-size="12" lengthAdjust="spacing" textLength="53" x="36" y="115.9102">Company</text><line style="stroke:#A80036;stroke-width:1.5;" x1="8" x2="91" y1="127" y2="127"/><text fill="#000000" font-family="sans-serif" font-size="11" lengthAdjust="spacing" textLength="64" x="13" y="142.4189">-chemicalLab</text><!--MD5=[57e3c8a04059ff4826a5f4587a33ba8c]
class TestDiagnosis--><rect codeLine="10" fill="#FEFECE" filter="url(#fkiebwm0jy36t)" height="53.8359" id="TestDiagnosis" style="stroke:#A80036;stroke-width:1.5;" width="113" x="227" y="7"/><ellipse cx="242" cy="23" fill="#ADD1B2" rx="11" ry="11" style="stroke:#A80036;stroke-width:1.0;"/><path d="M244,19.5 Q244.2031,19 244.4375,18.75 Q244.6719,18.5 244.9375,18.5 Q245.4063,18.5 245.7031,18.7813 Q246,19.0625 246,19.7188 L246,21.2813 Q246,21.9375 245.7188,22.2188 Q245.4375,22.5 245,22.5 Q244.6094,22.5 244.3594,22.3281 Q244.1094,22.1563 244,21.7031 Q243.9531,21.3906 243.7813,21.2188 Q243.4688,20.8906 242.9063,20.7031 Q242.3438,20.5 241.7813,20.5 Q241.0781,20.5 240.4844,20.7813 Q239.9063,21.0625 239.4531,21.6875 Q239,22.3125 239,23.1719 L239,24.0938 Q239,25.125 239.8438,25.8125 Q240.6875,26.5 242.1875,26.5 Q243.0781,26.5 243.7031,26.2969 Q244.0625,26.1875 244.4688,25.8281 Q244.7344,25.625 244.875,25.5625 Q245.0156,25.5 245.1875,25.5 Q245.5156,25.5 245.75,25.7656 Q246,26.0156 246,26.375 Q246,26.7188 245.6563,27.125 Q245.1563,27.7188 244.3594,28.0469 Q243.3125,28.5 242.0313,28.5 Q240.5313,28.5 239.3281,27.9063 Q238.3594,27.4375 237.6719,26.4219 Q237,25.4063 237,24.2031 L237,23.1094 Q237,21.8594 237.5938,20.7656 Q238.2031,19.6719 239.25,19.0938 Q240.3125,18.5 241.5,18.5 Q242.2188,18.5 242.8438,18.75 Q243.4688,19 244,19.5 Z " fill="#000000"/><text fill="#000000" font-family="sans-serif" font-size="12" lengthAdjust="spacing" textLength="81" x="256" y="27.9102">TestDiagnosis</text><line style="stroke:#A80036;stroke-width:1.5;" x1="228" x2="339" y1="39" y2="39"/><text fill="#000000" font-family="sans-serif" font-size="11" lengthAdjust="spacing" textLength="57" x="233" y="54.4189">-information</text><!--MD5=[1440c33e6e2d06f1d65157f758d3adef]
class TestReport--><rect codeLine="14" fill="#FEFECE" filter="url(#fkiebwm0jy36t)" height="53.8359" id="TestReport" style="stroke:#A80036;stroke-width:1.5;" width="93" x="565" y="7"/><ellipse cx="580" cy="23" fill="#ADD1B2" rx="11" ry="11" style="stroke:#A80036;stroke-width:1.0;"/><path d="M582,19.5 Q582.2031,19 582.4375,18.75 Q582.6719,18.5 582.9375,18.5 Q583.4063,18.5 583.7031,18.7813 Q584,19.0625 584,19.7188 L584,21.2813 Q584,21.9375 583.7188,22.2188 Q583.4375,22.5 583,22.5 Q582.6094,22.5 582.3594,22.3281 Q582.1094,22.1563 582,21.7031 Q581.9531,21.3906 581.7813,21.2188 Q581.4688,20.8906 580.9063,20.7031 Q580.3438,20.5 579.7813,20.5 Q579.0781,20.5 578.4844,20.7813 Q577.9063,21.0625 577.4531,21.6875 Q577,22.3125 577,23.1719 L577,24.0938 Q577,25.125 577.8438,25.8125 Q578.6875,26.5 580.1875,26.5 Q581.0781,26.5 581.7031,26.2969 Q582.0625,26.1875 582.4688,25.8281 Q582.7344,25.625 582.875,25.5625 Q583.0156,25.5 583.1875,25.5 Q583.5156,25.5 583.75,25.7656 Q584,26.0156 584,26.375 Q584,26.7188 583.6563,27.125 Q583.1563,27.7188 582.3594,28.0469 Q581.3125,28.5 580.0313,28.5 Q578.5313,28.5 577.3281,27.9063 Q576.3594,27.4375 575.6719,26.4219 Q575,25.4063 575,24.2031 L575,23.1094 Q575,21.8594 575.5938,20.7656 Q576.2031,19.6719 577.25,19.0938 Q578.3125,18.5 579.5,18.5 Q580.2188,18.5 580.8438,18.75 Q581.4688,19 582,19.5 Z " fill="#000000"/><text fill="#000000" font-family="sans-serif" font-size="12" lengthAdjust="spacing" textLength="61" x="594" y="27.9102">TestReport</text><line style="stroke:#A80036;stroke-width:1.5;" x1="566" x2="657" y1="39" y2="39"/><text fill="#000000" font-family="sans-serif" font-size="11" lengthAdjust="spacing" textLength="57" x="571" y="54.4189">-information</text><!--MD5=[df38be88ccee13e832d6fafd6288a4ca]
class Test--><rect codeLine="18" fill="#FEFECE" filter="url(#fkiebwm0jy36t)" height="109.1797" id="Test" style="stroke:#A80036;stroke-width:1.5;" width="77" x="245" y="96.5"/><ellipse cx="269.45" cy="112.5" fill="#ADD1B2" rx="11" ry="11" style="stroke:#A80036;stroke-width:1.0;"/><path d="M271.45,109 Q271.6531,108.5 271.8875,108.25 Q272.1219,108 272.3875,108 Q272.8563,108 273.1531,108.2813 Q273.45,108.5625 273.45,109.2188 L273.45,110.7813 Q273.45,111.4375 273.1688,111.7188 Q272.8875,112 272.45,112 Q272.0594,112 271.8094,111.8281 Q271.5594,111.6563 271.45,111.2031 Q271.4031,110.8906 271.2313,110.7188 Q270.9188,110.3906 270.3563,110.2031 Q269.7938,110 269.2313,110 Q268.5281,110 267.9344,110.2813 Q267.3563,110.5625 266.9031,111.1875 Q266.45,111.8125 266.45,112.6719 L266.45,113.5938 Q266.45,114.625 267.2938,115.3125 Q268.1375,116 269.6375,116 Q270.5281,116 271.1531,115.7969 Q271.5125,115.6875 271.9188,115.3281 Q272.1844,115.125 272.325,115.0625 Q272.4656,115 272.6375,115 Q272.9656,115 273.2,115.2656 Q273.45,115.5156 273.45,115.875 Q273.45,116.2188 273.1063,116.625 Q272.6063,117.2188 271.8094,117.5469 Q270.7625,118 269.4813,118 Q267.9813,118 266.7781,117.4063 Q265.8094,116.9375 265.1219,115.9219 Q264.45,114.9063 264.45,113.7031 L264.45,112.6094 Q264.45,111.3594 265.0438,110.2656 Q265.6531,109.1719 266.7,108.5938 Q267.7625,108 268.95,108 Q269.6688,108 270.2938,108.25 Q270.9188,108.5 271.45,109 Z " fill="#000000"/><text fill="#000000" font-family="sans-serif" font-size="12" lengthAdjust="spacing" textLength="24" x="285.55" y="117.4102">Test</text><line style="stroke:#A80036;stroke-width:1.5;" x1="246" x2="321" y1="128.5" y2="128.5"/><text fill="#000000" font-family="sans-serif" font-size="11" lengthAdjust="spacing" textLength="33" x="251" y="143.9189">-idTest</text><text fill="#000000" font-family="sans-serif" font-size="11" lengthAdjust="spacing" textLength="47" x="251" y="157.7549">-nhsCode</text><text fill="#000000" font-family="sans-serif" font-size="11" lengthAdjust="spacing" textLength="15" x="251" y="171.5908">-tin</text><text fill="#000000" font-family="sans-serif" font-size="11" lengthAdjust="spacing" textLength="65" x="251" y="185.4268">-creationDate</text><text fill="#000000" font-family="sans-serif" font-size="11" lengthAdjust="spacing" textLength="28" x="251" y="199.2627">-state</text><!--MD5=[0dfad68c940d8b06ac0078ce42f581e6]
link Company to TestDiagnosis--><path codeLine="26" d="M92.24,106.17 C129.82,91.91 185.32,70.86 226.69,55.17 " fill="none" id="Company-TestDiagnosis" style="stroke:#A80036;stroke-width:1.0;"/><polygon fill="#000000" points="131.675,56.4025,122.1755,56.8626,124.2602,62.3583,131.675,56.4025" style="stroke:#000000;stroke-width:1.0;"/><text fill="#000000" font-family="sans-serif" font-size="13" lengthAdjust="spacing" textLength="60" x="136" y="63.4951">can acess</text><text fill="#000000" font-family="sans-serif" font-size="13" lengthAdjust="spacing" textLength="7" x="99.8985" y="118.411">1</text><text fill="#000000" font-family="sans-serif" font-size="13" lengthAdjust="spacing" textLength="5" x="214.0909" y="72.4356">*</text><!--MD5=[7e4bc624457760b649895ff2ead938fa]
link Company to Test--><path codeLine="27" d="M92.24,127.22 C135.69,132.65 203.1,141.08 244.93,146.3 " fill="none" id="Company-Test" style="stroke:#A80036;stroke-width:1.0;"/><polygon fill="#000000" points="136.9614,122.7958,128.3505,118.758,127.6217,124.5905,136.9614,122.7958" style="stroke:#000000;stroke-width:1.0;"/><text fill="#000000" font-family="sans-serif" font-size="13" lengthAdjust="spacing" textLength="50" x="141" y="127.4951">performs</text><text fill="#000000" font-family="sans-serif" font-size="13" lengthAdjust="spacing" textLength="7" x="99.8985" y="142.9474">1</text><text fill="#000000" font-family="sans-serif" font-size="13" lengthAdjust="spacing" textLength="5" x="232.101" y="160.4406">*</text><!--MD5=[953ab60379ef55181e4437b26a98b286]
link TestDiagnosis to TestReport--><path codeLine="28" d="M340.17,34 C403.55,34 505.89,34 564.79,34 " fill="none" id="TestDiagnosis-TestReport" style="stroke:#A80036;stroke-width:1.0;"/><polygon fill="#000000" points="380,25.1758,370.9549,22.2369,370.9549,28.1147,380,25.1758" style="stroke:#000000;stroke-width:1.0;"/><text fill="#000000" font-family="sans-serif" font-size="13" lengthAdjust="spacing" textLength="150" x="384" y="30.4951">information used to create</text><text fill="#000000" font-family="sans-serif" font-size="13" lengthAdjust="spacing" textLength="7" x="347.8793" y="48.5531">1</text><text fill="#000000" font-family="sans-serif" font-size="13" lengthAdjust="spacing" textLength="7" x="550.1016" y="48.7596">1</text><!--MD5=[4ebf155bef98fbb4bff4b1cecb24b7f3]
@startuml
hide methods
left to right direction
skinparam classAttributeIconSize 0

class Company{
-chemicalLab
}


class TestDiagnosis {
-information
}

class TestReport{
-information
}

class Test{
-idTest
-nhsCode
-tin
-creationDate
-state
}

Company "1" - - "*" TestDiagnosis : can acess >
Company "1" - - "*" Test : performs >
TestDiagnosis "1" - - "1" TestReport : information used to create >
@enduml

PlantUML version 1.2021.2(Sun Mar 07 11:10:27 GMT 2021)
(GPL source distribution)
Java Runtime: OpenJDK Runtime Environment
JVM: OpenJDK 64-Bit Server VM
Default Encoding: Cp1252
Language: pt
Country: PT
--></g></svg>