<?xml version="1.0" encoding="UTF-8" standalone="no"?><svg xmlns="http://www.w3.org/2000/svg" xmlns:xlink="http://www.w3.org/1999/xlink" contentScriptType="application/ecmascript" contentStyleType="text/css" height="887px" preserveAspectRatio="none" style="width:694px;height:887px;" version="1.1" viewBox="0 0 694 887" width="694px" zoomAndPan="magnify"><defs><filter height="300%" id="fkrl8c5sh2xkc" width="300%" x="-1" y="-1"><feGaussianBlur result="blurOut" stdDeviation="2.0"/><feColorMatrix in="blurOut" result="blurOut2" type="matrix" values="0 0 0 0 0 0 0 0 0 0 0 0 0 0 0 0 0 0 .4 0"/><feOffset dx="4.0" dy="4.0" in="blurOut2" result="blurOut3"/><feBlend in="SourceGraphic" in2="blurOut3" mode="normal"/></filter></defs><g><!--MD5=[51de5e7b448e98e1f71289edad994864]
class CreateTaskController--><rect codeLine="3" fill="#FEFECE" filter="url(#fkrl8c5sh2xkc)" height="172.5234" id="CreateTaskController" style="stroke:#A80036;stroke-width:1.5;" width="338" x="149" y="116"/><ellipse cx="254.75" cy="132" fill="#ADD1B2" rx="11" ry="11" style="stroke:#A80036;stroke-width:1.0;"/><path d="M256.75,128.5 Q256.9531,128 257.1875,127.75 Q257.4219,127.5 257.6875,127.5 Q258.1563,127.5 258.4531,127.7813 Q258.75,128.0625 258.75,128.7188 L258.75,130.2813 Q258.75,130.9375 258.4688,131.2188 Q258.1875,131.5 257.75,131.5 Q257.3594,131.5 257.1094,131.3281 Q256.8594,131.1563 256.75,130.7031 Q256.7031,130.3906 256.5313,130.2188 Q256.2188,129.8906 255.6563,129.7031 Q255.0938,129.5 254.5313,129.5 Q253.8281,129.5 253.2344,129.7813 Q252.6563,130.0625 252.2031,130.6875 Q251.75,131.3125 251.75,132.1719 L251.75,133.0938 Q251.75,134.125 252.5938,134.8125 Q253.4375,135.5 254.9375,135.5 Q255.8281,135.5 256.4531,135.2969 Q256.8125,135.1875 257.2188,134.8281 Q257.4844,134.625 257.625,134.5625 Q257.7656,134.5 257.9375,134.5 Q258.2656,134.5 258.5,134.7656 Q258.75,135.0156 258.75,135.375 Q258.75,135.7188 258.4063,136.125 Q257.9063,136.7188 257.1094,137.0469 Q256.0625,137.5 254.7813,137.5 Q253.2813,137.5 252.0781,136.9063 Q251.1094,136.4375 250.4219,135.4219 Q249.75,134.4063 249.75,133.2031 L249.75,132.1094 Q249.75,130.8594 250.3438,129.7656 Q250.9531,128.6719 252,128.0938 Q253.0625,127.5 254.25,127.5 Q254.9688,127.5 255.5938,127.75 Q256.2188,128 256.75,128.5 Z " fill="#000000"/><text fill="#000000" font-family="sans-serif" font-size="12" lengthAdjust="spacing" textLength="118" x="275.25" y="136.9102">CreateTaskController</text><line style="stroke:#A80036;stroke-width:1.5;" x1="150" x2="486" y1="148" y2="148"/><text fill="#000000" font-family="sans-serif" font-size="11" lengthAdjust="spacing" textLength="162" x="155" y="163.4189">-TestReportStore testReportStore</text><text fill="#000000" font-family="sans-serif" font-size="11" lengthAdjust="spacing" textLength="98" x="155" y="177.2549">-TestStore testStore</text><text fill="#000000" font-family="sans-serif" font-size="11" lengthAdjust="spacing" textLength="140" x="155" y="191.0908">-TestDiagnosis testDiagnosis</text><text fill="#000000" font-family="sans-serif" font-size="11" lengthAdjust="spacing" textLength="110" x="155" y="204.9268">-TestReport testReport</text><line style="stroke:#A80036;stroke-width:1.0;" x1="150" x2="486" y1="211.3438" y2="211.3438"/><text fill="#000000" font-family="sans-serif" font-size="11" lengthAdjust="spacing" textLength="152" x="155" y="226.7627">+createDiagnosis(String idTest)</text><text fill="#000000" font-family="sans-serif" font-size="11" lengthAdjust="spacing" textLength="326" x="155" y="240.5986">+createReport(String idTest, TestDiagnosis diagnosis, String report)</text><text fill="#000000" font-family="sans-serif" font-size="11" lengthAdjust="spacing" textLength="176" x="155" y="254.4346">+saveReport(TestReport testReport)</text><text fill="#000000" font-family="sans-serif" font-size="11" lengthAdjust="spacing" textLength="76" x="155" y="268.2705">+getDiagnosis()</text><text fill="#000000" font-family="sans-serif" font-size="11" lengthAdjust="spacing" textLength="114" x="155" y="282.1064">+setState(String idTest)</text><!--MD5=[788566af22260aef45bcb38e0a2dd266]
class CreateTaskUI--><rect codeLine="16" fill="#FEFECE" filter="url(#fkrl8c5sh2xkc)" height="48" id="CreateTaskUI" style="stroke:#A80036;stroke-width:1.5;" width="108" x="264" y="7"/><ellipse cx="279" cy="23" fill="#ADD1B2" rx="11" ry="11" style="stroke:#A80036;stroke-width:1.0;"/><path d="M281,19.5 Q281.2031,19 281.4375,18.75 Q281.6719,18.5 281.9375,18.5 Q282.4063,18.5 282.7031,18.7813 Q283,19.0625 283,19.7188 L283,21.2813 Q283,21.9375 282.7188,22.2188 Q282.4375,22.5 282,22.5 Q281.6094,22.5 281.3594,22.3281 Q281.1094,22.1563 281,21.7031 Q280.9531,21.3906 280.7813,21.2188 Q280.4688,20.8906 279.9063,20.7031 Q279.3438,20.5 278.7813,20.5 Q278.0781,20.5 277.4844,20.7813 Q276.9063,21.0625 276.4531,21.6875 Q276,22.3125 276,23.1719 L276,24.0938 Q276,25.125 276.8438,25.8125 Q277.6875,26.5 279.1875,26.5 Q280.0781,26.5 280.7031,26.2969 Q281.0625,26.1875 281.4688,25.8281 Q281.7344,25.625 281.875,25.5625 Q282.0156,25.5 282.1875,25.5 Q282.5156,25.5 282.75,25.7656 Q283,26.0156 283,26.375 Q283,26.7188 282.6563,27.125 Q282.1563,27.7188 281.3594,28.0469 Q280.3125,28.5 279.0313,28.5 Q277.5313,28.5 276.3281,27.9063 Q275.3594,27.4375 274.6719,26.4219 Q274,25.4063 274,24.2031 L274,23.1094 Q274,21.8594 274.5938,20.7656 Q275.2031,19.6719 276.25,19.0938 Q277.3125,18.5 278.5,18.5 Q279.2188,18.5 279.8438,18.75 Q280.4688,19 281,19.5 Z " fill="#000000"/><text fill="#000000" font-family="sans-serif" font-size="12" lengthAdjust="spacing" textLength="76" x="293" y="27.9102">CreateTaskUI</text><line style="stroke:#A80036;stroke-width:1.5;" x1="265" x2="371" y1="39" y2="39"/><line style="stroke:#A80036;stroke-width:1.5;" x1="265" x2="371" y1="47" y2="47"/><!--MD5=[02e4b9b7573f1156f41e60aa5b4e25a4]
class Company--><rect codeLine="20" fill="#FEFECE" filter="url(#fkrl8c5sh2xkc)" height="117.1797" id="Company" style="stroke:#A80036;stroke-width:1.5;" width="174" x="20" y="350"/><ellipse cx="76.25" cy="366" fill="#ADD1B2" rx="11" ry="11" style="stroke:#A80036;stroke-width:1.0;"/><path d="M78.25,362.5 Q78.4531,362 78.6875,361.75 Q78.9219,361.5 79.1875,361.5 Q79.6563,361.5 79.9531,361.7813 Q80.25,362.0625 80.25,362.7188 L80.25,364.2813 Q80.25,364.9375 79.9688,365.2188 Q79.6875,365.5 79.25,365.5 Q78.8594,365.5 78.6094,365.3281 Q78.3594,365.1563 78.25,364.7031 Q78.2031,364.3906 78.0313,364.2188 Q77.7188,363.8906 77.1563,363.7031 Q76.5938,363.5 76.0313,363.5 Q75.3281,363.5 74.7344,363.7813 Q74.1563,364.0625 73.7031,364.6875 Q73.25,365.3125 73.25,366.1719 L73.25,367.0938 Q73.25,368.125 74.0938,368.8125 Q74.9375,369.5 76.4375,369.5 Q77.3281,369.5 77.9531,369.2969 Q78.3125,369.1875 78.7188,368.8281 Q78.9844,368.625 79.125,368.5625 Q79.2656,368.5 79.4375,368.5 Q79.7656,368.5 80,368.7656 Q80.25,369.0156 80.25,369.375 Q80.25,369.7188 79.9063,370.125 Q79.4063,370.7188 78.6094,371.0469 Q77.5625,371.5 76.2813,371.5 Q74.7813,371.5 73.5781,370.9063 Q72.6094,370.4375 71.9219,369.4219 Q71.25,368.4063 71.25,367.2031 L71.25,366.1094 Q71.25,364.8594 71.8438,363.7656 Q72.4531,362.6719 73.5,362.0938 Q74.5625,361.5 75.75,361.5 Q76.4688,361.5 77.0938,361.75 Q77.7188,362 78.25,362.5 Z " fill="#000000"/><text fill="#000000" font-family="sans-serif" font-size="12" lengthAdjust="spacing" textLength="53" x="96.75" y="370.9102">Company</text><line style="stroke:#A80036;stroke-width:1.5;" x1="21" x2="193" y1="382" y2="382"/><text fill="#000000" font-family="sans-serif" font-size="11" lengthAdjust="spacing" textLength="90" x="26" y="397.4189">-String designation</text><text fill="#000000" font-family="sans-serif" font-size="11" lengthAdjust="spacing" textLength="162" x="26" y="411.2549">-TestReportStore testReportStore</text><text fill="#000000" font-family="sans-serif" font-size="11" lengthAdjust="spacing" textLength="98" x="26" y="425.0908">-TestStore testStore</text><line style="stroke:#A80036;stroke-width:1.0;" x1="21" x2="193" y1="431.5078" y2="431.5078"/><text fill="#000000" font-family="sans-serif" font-size="11" lengthAdjust="spacing" textLength="108" x="26" y="446.9268">+getTestReportStore()</text><text fill="#000000" font-family="sans-serif" font-size="11" lengthAdjust="spacing" textLength="76" x="26" y="460.7627">+getTestStore()</text><!--MD5=[1440c33e6e2d06f1d65157f758d3adef]
class TestReport--><rect codeLine="29" fill="#FEFECE" filter="url(#fkrl8c5sh2xkc)" height="89.5078" id="TestReport" style="stroke:#A80036;stroke-width:1.5;" width="133" x="229.5" y="784"/><ellipse cx="262.5" cy="800" fill="#ADD1B2" rx="11" ry="11" style="stroke:#A80036;stroke-width:1.0;"/><path d="M264.5,796.5 Q264.7031,796 264.9375,795.75 Q265.1719,795.5 265.4375,795.5 Q265.9063,795.5 266.2031,795.7813 Q266.5,796.0625 266.5,796.7188 L266.5,798.2813 Q266.5,798.9375 266.2188,799.2188 Q265.9375,799.5 265.5,799.5 Q265.1094,799.5 264.8594,799.3281 Q264.6094,799.1563 264.5,798.7031 Q264.4531,798.3906 264.2813,798.2188 Q263.9688,797.8906 263.4063,797.7031 Q262.8438,797.5 262.2813,797.5 Q261.5781,797.5 260.9844,797.7813 Q260.4063,798.0625 259.9531,798.6875 Q259.5,799.3125 259.5,800.1719 L259.5,801.0938 Q259.5,802.125 260.3438,802.8125 Q261.1875,803.5 262.6875,803.5 Q263.5781,803.5 264.2031,803.2969 Q264.5625,803.1875 264.9688,802.8281 Q265.2344,802.625 265.375,802.5625 Q265.5156,802.5 265.6875,802.5 Q266.0156,802.5 266.25,802.7656 Q266.5,803.0156 266.5,803.375 Q266.5,803.7188 266.1563,804.125 Q265.6563,804.7188 264.8594,805.0469 Q263.8125,805.5 262.5313,805.5 Q261.0313,805.5 259.8281,804.9063 Q258.8594,804.4375 258.1719,803.4219 Q257.5,802.4063 257.5,801.2031 L257.5,800.1094 Q257.5,798.8594 258.0938,797.7656 Q258.7031,796.6719 259.75,796.0938 Q260.8125,795.5 262,795.5 Q262.7188,795.5 263.3438,795.75 Q263.9688,796 264.5,796.5 Z " fill="#000000"/><text fill="#000000" font-family="sans-serif" font-size="12" lengthAdjust="spacing" textLength="61" x="280.5" y="804.9102">TestReport</text><line style="stroke:#A80036;stroke-width:1.5;" x1="230.5" x2="361.5" y1="816" y2="816"/><text fill="#000000" font-family="sans-serif" font-size="11" lengthAdjust="spacing" textLength="64" x="235.5" y="831.4189">-String idTest</text><text fill="#000000" font-family="sans-serif" font-size="11" lengthAdjust="spacing" textLength="121" x="235.5" y="845.2549">-TestDiagnosis diagnosis</text><text fill="#000000" font-family="sans-serif" font-size="11" lengthAdjust="spacing" textLength="64" x="235.5" y="859.0908">-String report</text><line style="stroke:#A80036;stroke-width:1.5;" x1="230.5" x2="361.5" y1="865.5078" y2="865.5078"/><!--MD5=[57e3c8a04059ff4826a5f4587a33ba8c]
class TestDiagnosis--><rect codeLine="35" fill="#FEFECE" filter="url(#fkrl8c5sh2xkc)" height="75.6719" id="TestDiagnosis" style="stroke:#A80036;stroke-width:1.5;" width="290" x="270" y="497"/><ellipse cx="370.25" cy="513" fill="#ADD1B2" rx="11" ry="11" style="stroke:#A80036;stroke-width:1.0;"/><path d="M372.25,509.5 Q372.4531,509 372.6875,508.75 Q372.9219,508.5 373.1875,508.5 Q373.6563,508.5 373.9531,508.7813 Q374.25,509.0625 374.25,509.7188 L374.25,511.2813 Q374.25,511.9375 373.9688,512.2188 Q373.6875,512.5 373.25,512.5 Q372.8594,512.5 372.6094,512.3281 Q372.3594,512.1563 372.25,511.7031 Q372.2031,511.3906 372.0313,511.2188 Q371.7188,510.8906 371.1563,510.7031 Q370.5938,510.5 370.0313,510.5 Q369.3281,510.5 368.7344,510.7813 Q368.1563,511.0625 367.7031,511.6875 Q367.25,512.3125 367.25,513.1719 L367.25,514.0938 Q367.25,515.125 368.0938,515.8125 Q368.9375,516.5 370.4375,516.5 Q371.3281,516.5 371.9531,516.2969 Q372.3125,516.1875 372.7188,515.8281 Q372.9844,515.625 373.125,515.5625 Q373.2656,515.5 373.4375,515.5 Q373.7656,515.5 374,515.7656 Q374.25,516.0156 374.25,516.375 Q374.25,516.7188 373.9063,517.125 Q373.4063,517.7188 372.6094,518.0469 Q371.5625,518.5 370.2813,518.5 Q368.7813,518.5 367.5781,517.9063 Q366.6094,517.4375 365.9219,516.4219 Q365.25,515.4063 365.25,514.2031 L365.25,513.1094 Q365.25,511.8594 365.8438,510.7656 Q366.4531,509.6719 367.5,509.0938 Q368.5625,508.5 369.75,508.5 Q370.4688,508.5 371.0938,508.75 Q371.7188,509 372.25,509.5 Z " fill="#000000"/><text fill="#000000" font-family="sans-serif" font-size="12" lengthAdjust="spacing" textLength="81" x="390.75" y="517.9102">TestDiagnosis</text><line style="stroke:#A80036;stroke-width:1.5;" x1="271" x2="559" y1="529" y2="529"/><text fill="#000000" font-family="sans-serif" font-size="11" lengthAdjust="spacing" textLength="81" x="276" y="544.4189">-String diagnosis</text><line style="stroke:#A80036;stroke-width:1.0;" x1="271" x2="559" y1="550.8359" y2="550.8359"/><text fill="#000000" font-family="sans-serif" font-size="11" lengthAdjust="spacing" textLength="278" x="276" y="566.2549">+createDiagnosis(List&lt;TestParameter&gt; testParameterList)</text><!--MD5=[1ff1bfbbcbf479255e0754c35514d0f2]
class TestReportStore--><rect codeLine="41" fill="#FEFECE" filter="url(#fkrl8c5sh2xkc)" height="103.3438" id="TestReportStore" style="stroke:#A80036;stroke-width:1.5;" width="338" x="7" y="603"/><ellipse cx="126.75" cy="619" fill="#ADD1B2" rx="11" ry="11" style="stroke:#A80036;stroke-width:1.0;"/><path d="M128.75,615.5 Q128.9531,615 129.1875,614.75 Q129.4219,614.5 129.6875,614.5 Q130.1563,614.5 130.4531,614.7813 Q130.75,615.0625 130.75,615.7188 L130.75,617.2813 Q130.75,617.9375 130.4688,618.2188 Q130.1875,618.5 129.75,618.5 Q129.3594,618.5 129.1094,618.3281 Q128.8594,618.1563 128.75,617.7031 Q128.7031,617.3906 128.5313,617.2188 Q128.2188,616.8906 127.6563,616.7031 Q127.0938,616.5 126.5313,616.5 Q125.8281,616.5 125.2344,616.7813 Q124.6563,617.0625 124.2031,617.6875 Q123.75,618.3125 123.75,619.1719 L123.75,620.0938 Q123.75,621.125 124.5938,621.8125 Q125.4375,622.5 126.9375,622.5 Q127.8281,622.5 128.4531,622.2969 Q128.8125,622.1875 129.2188,621.8281 Q129.4844,621.625 129.625,621.5625 Q129.7656,621.5 129.9375,621.5 Q130.2656,621.5 130.5,621.7656 Q130.75,622.0156 130.75,622.375 Q130.75,622.7188 130.4063,623.125 Q129.9063,623.7188 129.1094,624.0469 Q128.0625,624.5 126.7813,624.5 Q125.2813,624.5 124.0781,623.9063 Q123.1094,623.4375 122.4219,622.4219 Q121.75,621.4063 121.75,620.2031 L121.75,619.1094 Q121.75,617.8594 122.3438,616.7656 Q122.9531,615.6719 124,615.0938 Q125.0625,614.5 126.25,614.5 Q126.9688,614.5 127.5938,614.75 Q128.2188,615 128.75,615.5 Z " fill="#000000"/><text fill="#000000" font-family="sans-serif" font-size="12" lengthAdjust="spacing" textLength="90" x="147.25" y="623.9102">TestReportStore</text><line style="stroke:#A80036;stroke-width:1.5;" x1="8" x2="344" y1="635" y2="635"/><text fill="#000000" font-family="sans-serif" font-size="11" lengthAdjust="spacing" textLength="165" x="13" y="650.4189">-List&lt;TestReport&gt; testReportStore</text><line style="stroke:#A80036;stroke-width:1.0;" x1="8" x2="344" y1="656.8359" y2="656.8359"/><text fill="#000000" font-family="sans-serif" font-size="11" lengthAdjust="spacing" textLength="326" x="13" y="672.2549">+createReport(String idTest, TestDiagnosis diagnosis, String report)</text><text fill="#000000" font-family="sans-serif" font-size="11" lengthAdjust="spacing" textLength="189" x="13" y="686.0908">+validateReport(TestReport testReport)</text><text fill="#000000" font-family="sans-serif" font-size="11" lengthAdjust="spacing" textLength="176" x="13" y="699.9268">+saveReport(TestReport testReport)</text><!--MD5=[0f6f7964b844a64b0496af0dda7914bd]
class TestStore--><rect codeLine="49" fill="#FEFECE" filter="url(#fkrl8c5sh2xkc)" height="89.5078" id="TestStore" style="stroke:#A80036;stroke-width:1.5;" width="135" x="371.5" y="363.5"/><ellipse cx="409" cy="379.5" fill="#ADD1B2" rx="11" ry="11" style="stroke:#A80036;stroke-width:1.0;"/><path d="M411,376 Q411.2031,375.5 411.4375,375.25 Q411.6719,375 411.9375,375 Q412.4063,375 412.7031,375.2813 Q413,375.5625 413,376.2188 L413,377.7813 Q413,378.4375 412.7188,378.7188 Q412.4375,379 412,379 Q411.6094,379 411.3594,378.8281 Q411.1094,378.6563 411,378.2031 Q410.9531,377.8906 410.7813,377.7188 Q410.4688,377.3906 409.9063,377.2031 Q409.3438,377 408.7813,377 Q408.0781,377 407.4844,377.2813 Q406.9063,377.5625 406.4531,378.1875 Q406,378.8125 406,379.6719 L406,380.5938 Q406,381.625 406.8438,382.3125 Q407.6875,383 409.1875,383 Q410.0781,383 410.7031,382.7969 Q411.0625,382.6875 411.4688,382.3281 Q411.7344,382.125 411.875,382.0625 Q412.0156,382 412.1875,382 Q412.5156,382 412.75,382.2656 Q413,382.5156 413,382.875 Q413,383.2188 412.6563,383.625 Q412.1563,384.2188 411.3594,384.5469 Q410.3125,385 409.0313,385 Q407.5313,385 406.3281,384.4063 Q405.3594,383.9375 404.6719,382.9219 Q404,381.9063 404,380.7031 L404,379.6094 Q404,378.3594 404.5938,377.2656 Q405.2031,376.1719 406.25,375.5938 Q407.3125,375 408.5,375 Q409.2188,375 409.8438,375.25 Q410.4688,375.5 411,376 Z " fill="#000000"/><text fill="#000000" font-family="sans-serif" font-size="12" lengthAdjust="spacing" textLength="53" x="428" y="384.4102">TestStore</text><line style="stroke:#A80036;stroke-width:1.5;" x1="372.5" x2="505.5" y1="395.5" y2="395.5"/><text fill="#000000" font-family="sans-serif" font-size="11" lengthAdjust="spacing" textLength="101" x="377.5" y="410.9189">-List&lt;Test&gt; testStore</text><line style="stroke:#A80036;stroke-width:1.0;" x1="372.5" x2="505.5" y1="417.3359" y2="417.3359"/><text fill="#000000" font-family="sans-serif" font-size="11" lengthAdjust="spacing" textLength="123" x="377.5" y="432.7549">+checkState(String state)</text><text fill="#000000" font-family="sans-serif" font-size="11" lengthAdjust="spacing" textLength="67" x="377.5" y="446.5908">+getTestList()</text><!--MD5=[144698ec4d0188f6929a3b58a3eeb1f6]
class TestMapper--><rect codeLine="56" fill="#FEFECE" filter="url(#fkrl8c5sh2xkc)" height="61.8359" id="TestMapper" style="stroke:#A80036;stroke-width:1.5;" width="139" x="541.5" y="377.5"/><ellipse cx="575.4" cy="393.5" fill="#ADD1B2" rx="11" ry="11" style="stroke:#A80036;stroke-width:1.0;"/><path d="M577.4,390 Q577.6031,389.5 577.8375,389.25 Q578.0719,389 578.3375,389 Q578.8063,389 579.1031,389.2813 Q579.4,389.5625 579.4,390.2188 L579.4,391.7813 Q579.4,392.4375 579.1188,392.7188 Q578.8375,393 578.4,393 Q578.0094,393 577.7594,392.8281 Q577.5094,392.6563 577.4,392.2031 Q577.3531,391.8906 577.1813,391.7188 Q576.8688,391.3906 576.3063,391.2031 Q575.7438,391 575.1813,391 Q574.4781,391 573.8844,391.2813 Q573.3063,391.5625 572.8531,392.1875 Q572.4,392.8125 572.4,393.6719 L572.4,394.5938 Q572.4,395.625 573.2438,396.3125 Q574.0875,397 575.5875,397 Q576.4781,397 577.1031,396.7969 Q577.4625,396.6875 577.8688,396.3281 Q578.1344,396.125 578.275,396.0625 Q578.4156,396 578.5875,396 Q578.9156,396 579.15,396.2656 Q579.4,396.5156 579.4,396.875 Q579.4,397.2188 579.0563,397.625 Q578.5563,398.2188 577.7594,398.5469 Q576.7125,399 575.4313,399 Q573.9313,399 572.7281,398.4063 Q571.7594,397.9375 571.0719,396.9219 Q570.4,395.9063 570.4,394.7031 L570.4,393.6094 Q570.4,392.3594 570.9938,391.2656 Q571.6031,390.1719 572.65,389.5938 Q573.7125,389 574.9,389 Q575.6188,389 576.2438,389.25 Q576.8688,389.5 577.4,390 Z " fill="#000000"/><text fill="#000000" font-family="sans-serif" font-size="12" lengthAdjust="spacing" textLength="65" x="593.6" y="398.4102">TestMapper</text><line style="stroke:#A80036;stroke-width:1.5;" x1="542.5" x2="679.5" y1="409.5" y2="409.5"/><line style="stroke:#A80036;stroke-width:1.5;" x1="542.5" x2="679.5" y1="417.5" y2="417.5"/><text fill="#000000" font-family="sans-serif" font-size="11" lengthAdjust="spacing" textLength="127" x="547.5" y="432.9189">+toDto(List&lt;Test&gt; testList)</text><!--MD5=[3c2021faa4730756a46abeb810188647]
link CreateTaskUI to CreateTaskController--><path codeLine="60" d="M318,55.21 C318,69.92 318,90 318,110.57 " fill="none" id="CreateTaskUI-to-CreateTaskController" style="stroke:#A80036;stroke-width:1.0;stroke-dasharray:7.0,7.0;"/><polygon fill="#A80036" points="318,115.8,322,106.8,318,110.8,314,106.8,318,115.8" style="stroke:#A80036;stroke-width:1.0;"/><!--MD5=[7f979c8575d10bb1687e6dd5e09a77c6]
link CreateTaskController to Company--><path codeLine="61" d="M229.43,289.13 C209.56,308.35 188.86,328.36 170.25,346.34 " fill="none" id="CreateTaskController-to-Company" style="stroke:#A80036;stroke-width:1.0;stroke-dasharray:7.0,7.0;"/><polygon fill="#A80036" points="166.56,349.91,175.8151,346.5422,170.1592,346.4393,170.2621,340.7834,166.56,349.91" style="stroke:#A80036;stroke-width:1.0;"/><!--MD5=[c851bd61a63a61b56457fdc561c4bcaf]
link CreateTaskController to TestReportStore--><path codeLine="62" d="M290.96,289.2 C262.33,379.9 218,520.4 193.6,597.73 " fill="none" id="CreateTaskController-to-TestReportStore" style="stroke:#A80036;stroke-width:1.0;stroke-dasharray:7.0,7.0;"/><polygon fill="#A80036" points="192.02,602.73,198.5413,595.3495,193.5236,597.9614,190.9116,592.9437,192.02,602.73" style="stroke:#A80036;stroke-width:1.0;"/><!--MD5=[5e67e5eadf30b27fffed8a4af7585a5e]
link CreateTaskController to TestDiagnosis--><path codeLine="63" d="M316.94,289.01 C319.3,342.42 328,411.37 354,467 C358.29,476.19 364.29,484.99 370.86,493.03 " fill="none" id="CreateTaskController-to-TestDiagnosis" style="stroke:#A80036;stroke-width:1.0;stroke-dasharray:7.0,7.0;"/><polygon fill="#A80036" points="374.13,496.91,371.4066,487.4452,370.915,493.0806,365.2796,492.5891,374.13,496.91" style="stroke:#A80036;stroke-width:1.0;"/><!--MD5=[8f9e78c47d4dc5cec4c50e6d7cd8fea9]
link CreateTaskController to TestMapper--><path codeLine="64" d="M440.98,289.13 C484.15,319.18 530.11,351.18 563.35,374.32 " fill="none" id="CreateTaskController-to-TestMapper" style="stroke:#A80036;stroke-width:1.0;stroke-dasharray:7.0,7.0;"/><polygon fill="#A80036" points="567.75,377.39,562.653,368.9626,563.6478,374.5313,558.0791,375.5261,567.75,377.39" style="stroke:#A80036;stroke-width:1.0;"/><!--MD5=[e6cd01d45db0351233489c5c6c4c2717]
link CreateTaskController to TestStore--><path codeLine="65" d="M368.79,289.13 C382.92,312.95 397.77,337.99 410.16,358.88 " fill="none" id="CreateTaskController-to-TestStore" style="stroke:#A80036;stroke-width:1.0;stroke-dasharray:7.0,7.0;"/><polygon fill="#A80036" points="412.77,363.27,411.6319,353.4871,410.2249,358.9662,404.7458,357.5593,412.77,363.27" style="stroke:#A80036;stroke-width:1.0;"/><!--MD5=[008e18fcfcea10a74787e1d894b1b1e0]
link Company to TestReportStore--><path codeLine="66" d="M123.26,467.02 C134.44,506.52 149.19,558.69 160.25,597.8 " fill="none" id="Company-to-TestReportStore" style="stroke:#A80036;stroke-width:1.0;"/><polygon fill="#A80036" points="161.72,602.99,163.128,593.2423,160.3634,598.1776,155.4281,595.4129,161.72,602.99" style="stroke:#A80036;stroke-width:1.0;"/><text fill="#000000" font-family="sans-serif" font-size="13" lengthAdjust="spacing" textLength="28" x="153" y="540.4951">uses</text><!--MD5=[aa14684521c50ecb607508101c65e86c]
link TestReportStore to TestReport--><path codeLine="67" d="M211.35,706.32 C227.5,729.53 246.52,756.87 262.43,779.75 " fill="none" id="TestReportStore-to-TestReport" style="stroke:#A80036;stroke-width:1.0;"/><polygon fill="#A80036" points="265.37,783.97,263.5061,774.2991,262.5113,779.8678,256.9426,778.873,265.37,783.97" style="stroke:#A80036;stroke-width:1.0;"/><text fill="#000000" font-family="sans-serif" font-size="13" lengthAdjust="spacing" textLength="67" x="245" y="750.4951">can access</text><!--MD5=[953ab60379ef55181e4437b26a98b286]
link TestDiagnosis to TestReport--><path codeLine="68" d="M405.63,573.21 C396.32,608.16 380.74,661.56 362,706 C351.52,730.86 337.57,757.32 325.2,779.23 " fill="none" id="TestDiagnosis-to-TestReport" style="stroke:#A80036;stroke-width:1.0;"/><polygon fill="#A80036" points="322.58,783.83,330.5079,777.9863,325.053,779.4844,323.5549,774.0295,322.58,783.83" style="stroke:#A80036;stroke-width:1.0;"/><text fill="#000000" font-family="sans-serif" font-size="13" lengthAdjust="spacing" textLength="50" x="398" y="659.9951">is part of</text><!--MD5=[c99cb316d381e1ffeb71ec0277bd831f]
@startuml
skinparam classAttributeIconSize 0

class CreateTaskController {
  -TestReportStore testReportStore
  -TestStore testStore
  -TestDiagnosis testDiagnosis
  -TestReport testReport
  - -
  +createDiagnosis(String idTest)
  +createReport(String idTest, TestDiagnosis diagnosis, String report)
  +saveReport(TestReport testReport)
  +getDiagnosis()
  +setState(String idTest)
}

class CreateTaskUI {

}

class Company{
    -String designation
    -TestReportStore testReportStore
    -TestStore testStore
    - -
    +getTestReportStore()
    +getTestStore()
}

class TestReport{
    -String idTest
    -TestDiagnosis diagnosis
    -String report
}

class TestDiagnosis{
    -String diagnosis
    - -
    +createDiagnosis(List<TestParameter> testParameterList)
}

class TestReportStore{
    -List<TestReport> testReportStore
    - -
    +createReport(String idTest, TestDiagnosis diagnosis, String report)
    +validateReport(TestReport testReport)
    +saveReport(TestReport testReport)
}

class TestStore{
    -List<Test> testStore
    - -
    +checkState(String state)
    +getTestList()
}

class TestMapper{
    +toDto(List<Test> testList)
}

CreateTaskUI ..> CreateTaskController
CreateTaskController ..> Company
CreateTaskController ..> TestReportStore
CreateTaskController ..> TestDiagnosis
CreateTaskController ..> TestMapper
CreateTaskController ..> TestStore
Company - -> TestReportStore : uses
TestReportStore - -> TestReport : can access
TestDiagnosis - -> TestReport : is part of


@enduml

PlantUML version 1.2021.2(Sun Mar 07 11:10:27 GMT 2021)
(GPL source distribution)
Java Runtime: OpenJDK Runtime Environment
JVM: OpenJDK 64-Bit Server VM
Default Encoding: Cp1252
Language: pt
Country: PT
--></g></svg>