<?xml version="1.0" encoding="UTF-8" standalone="no"?><svg xmlns="http://www.w3.org/2000/svg" xmlns:xlink="http://www.w3.org/1999/xlink" contentScriptType="application/ecmascript" contentStyleType="text/css" height="238.75px" preserveAspectRatio="none" style="width:1522px;height:238px;" version="1.1" viewBox="0 0 1522 238" width="1522.5px" zoomAndPan="magnify"><defs><filter height="300%" id="fs5bfr2vf0v9l" width="300%" x="-1" y="-1"><feGaussianBlur result="blurOut" stdDeviation="2.5"/><feColorMatrix in="blurOut" result="blurOut2" type="matrix" values="0 0 0 0 0 0 0 0 0 0 0 0 0 0 0 0 0 0 .4 0"/><feOffset dx="5.0" dy="5.0" in="blurOut2" result="blurOut3"/><feBlend in="SourceGraphic" in2="blurOut3" mode="normal"/></filter></defs><g><!--MD5=[df38be88ccee13e832d6fafd6288a4ca]
class Test--><rect codeLine="5" fill="#FEFECE" filter="url(#fs5bfr2vf0v9l)" height="136.4746" id="Test" style="stroke:#A80036;stroke-width:1.875;" width="115" x="255" y="51.875"/><ellipse cx="294" cy="71.875" fill="#ADD1B2" rx="13.75" ry="13.75" style="stroke:#A80036;stroke-width:1.25;"/><path d="M296.5,67.5 Q296.7539,66.875 297.0469,66.5625 Q297.3398,66.25 297.6719,66.25 Q298.2578,66.25 298.6289,66.6016 Q299,66.9531 299,67.7734 L299,69.7266 Q299,70.5469 298.6484,70.8984 Q298.2969,71.25 297.75,71.25 Q297.2617,71.25 296.9492,71.0352 Q296.6367,70.8203 296.5,70.2539 Q296.4414,69.8633 296.2266,69.6484 Q295.8359,69.2383 295.1328,69.0039 Q294.4297,68.75 293.7266,68.75 Q292.8477,68.75 292.1055,69.1016 Q291.3828,69.4531 290.8164,70.2344 Q290.25,71.0156 290.25,72.0898 L290.25,73.2422 Q290.25,74.5313 291.3047,75.3906 Q292.3594,76.25 294.2344,76.25 Q295.3477,76.25 296.1289,75.9961 Q296.5781,75.8594 297.0859,75.4102 Q297.418,75.1563 297.5938,75.0781 Q297.7695,75 297.9844,75 Q298.3945,75 298.6875,75.332 Q299,75.6445 299,76.0938 Q299,76.5234 298.5703,77.0313 Q297.9453,77.7734 296.9492,78.1836 Q295.6406,78.75 294.0391,78.75 Q292.1641,78.75 290.6602,78.0078 Q289.4492,77.4219 288.5898,76.1523 Q287.75,74.8828 287.75,73.3789 L287.75,72.0117 Q287.75,70.4492 288.4922,69.082 Q289.2539,67.7148 290.5625,66.9922 Q291.8906,66.25 293.375,66.25 Q294.2734,66.25 295.0547,66.5625 Q295.8359,66.875 296.5,67.5 Z " fill="#000000"/><text fill="#000000" font-family="sans-serif" font-size="15" lengthAdjust="spacing" textLength="30" x="316" y="78.0127">Test</text><line style="stroke:#A80036;stroke-width:1.875;" x1="256.25" x2="368.75" y1="91.875" y2="91.875"/><text fill="#000000" font-family="sans-serif" font-size="13.75" lengthAdjust="spacing" textLength="41.25" x="262.5" y="111.1487">-idTest</text><text fill="#000000" font-family="sans-serif" font-size="13.75" lengthAdjust="spacing" textLength="58.75" x="262.5" y="128.4436">-nhsCode</text><text fill="#000000" font-family="sans-serif" font-size="13.75" lengthAdjust="spacing" textLength="100" x="262.5" y="145.7385">-clientTinNumber</text><text fill="#000000" font-family="sans-serif" font-size="13.75" lengthAdjust="spacing" textLength="81.25" x="262.5" y="163.0334">-creationDate</text><text fill="#000000" font-family="sans-serif" font-size="13.75" lengthAdjust="spacing" textLength="35" x="262.5" y="180.3284">-state</text><!--MD5=[02e4b9b7573f1156f41e60aa5b4e25a4]
class Company--><rect codeLine="13" fill="#FEFECE" filter="url(#fs5bfr2vf0v9l)" height="67.2949" id="Company" style="stroke:#A80036;stroke-width:1.875;" width="106.25" x="8.75" y="86.25"/><ellipse cx="27.5" cy="106.25" fill="#ADD1B2" rx="13.75" ry="13.75" style="stroke:#A80036;stroke-width:1.25;"/><path d="M30,101.875 Q30.2539,101.25 30.5469,100.9375 Q30.8398,100.625 31.1719,100.625 Q31.7578,100.625 32.1289,100.9766 Q32.5,101.3281 32.5,102.1484 L32.5,104.1016 Q32.5,104.9219 32.1484,105.2734 Q31.7969,105.625 31.25,105.625 Q30.7617,105.625 30.4492,105.4102 Q30.1367,105.1953 30,104.6289 Q29.9414,104.2383 29.7266,104.0234 Q29.3359,103.6133 28.6328,103.3789 Q27.9297,103.125 27.2266,103.125 Q26.3477,103.125 25.6055,103.4766 Q24.8828,103.8281 24.3164,104.6094 Q23.75,105.3906 23.75,106.4648 L23.75,107.6172 Q23.75,108.9063 24.8047,109.7656 Q25.8594,110.625 27.7344,110.625 Q28.8477,110.625 29.6289,110.3711 Q30.0781,110.2344 30.5859,109.7852 Q30.918,109.5313 31.0938,109.4531 Q31.2695,109.375 31.4844,109.375 Q31.8945,109.375 32.1875,109.707 Q32.5,110.0195 32.5,110.4688 Q32.5,110.8984 32.0703,111.4063 Q31.4453,112.1484 30.4492,112.5586 Q29.1406,113.125 27.5391,113.125 Q25.6641,113.125 24.1602,112.3828 Q22.9492,111.7969 22.0898,110.5273 Q21.25,109.2578 21.25,107.7539 L21.25,106.3867 Q21.25,104.8242 21.9922,103.457 Q22.7539,102.0898 24.0625,101.3672 Q25.3906,100.625 26.875,100.625 Q27.7734,100.625 28.5547,100.9375 Q29.3359,101.25 30,101.875 Z " fill="#000000"/><text fill="#000000" font-family="sans-serif" font-size="15" lengthAdjust="spacing" textLength="66.25" x="45" y="112.3877">Company</text><line style="stroke:#A80036;stroke-width:1.875;" x1="10" x2="113.75" y1="126.25" y2="126.25"/><text fill="#000000" font-family="sans-serif" font-size="13.75" lengthAdjust="spacing" textLength="80" x="16.25" y="145.5237">-chemicalLab</text><!--MD5=[aeb3272166074d8737a70b61b1e71682]
class TestType--><rect codeLine="17" fill="#FEFECE" filter="url(#fs5bfr2vf0v9l)" height="101.8848" id="TestType" style="stroke:#A80036;stroke-width:1.875;" width="127.5" x="616.875" y="8.75"/><ellipse cx="646.875" cy="28.75" fill="#ADD1B2" rx="13.75" ry="13.75" style="stroke:#A80036;stroke-width:1.25;"/><path d="M649.375,24.375 Q649.6289,23.75 649.9219,23.4375 Q650.2148,23.125 650.5469,23.125 Q651.1328,23.125 651.5039,23.4766 Q651.875,23.8281 651.875,24.6484 L651.875,26.6016 Q651.875,27.4219 651.5234,27.7734 Q651.1719,28.125 650.625,28.125 Q650.1367,28.125 649.8242,27.9102 Q649.5117,27.6953 649.375,27.1289 Q649.3164,26.7383 649.1016,26.5234 Q648.7109,26.1133 648.0078,25.8789 Q647.3047,25.625 646.6016,25.625 Q645.7227,25.625 644.9805,25.9766 Q644.2578,26.3281 643.6914,27.1094 Q643.125,27.8906 643.125,28.9648 L643.125,30.1172 Q643.125,31.4063 644.1797,32.2656 Q645.2344,33.125 647.1094,33.125 Q648.2227,33.125 649.0039,32.8711 Q649.4531,32.7344 649.9609,32.2852 Q650.293,32.0313 650.4688,31.9531 Q650.6445,31.875 650.8594,31.875 Q651.2695,31.875 651.5625,32.207 Q651.875,32.5195 651.875,32.9688 Q651.875,33.3984 651.4453,33.9063 Q650.8203,34.6484 649.8242,35.0586 Q648.5156,35.625 646.9141,35.625 Q645.0391,35.625 643.5352,34.8828 Q642.3242,34.2969 641.4648,33.0273 Q640.625,31.7578 640.625,30.2539 L640.625,28.8867 Q640.625,27.3242 641.3672,25.957 Q642.1289,24.5898 643.4375,23.8672 Q644.7656,23.125 646.25,23.125 Q647.1484,23.125 647.9297,23.4375 Q648.7109,23.75 649.375,24.375 Z " fill="#000000"/><text fill="#000000" font-family="sans-serif" font-size="15" lengthAdjust="spacing" textLength="62.5" x="666.875" y="34.8877">TestType</text><line style="stroke:#A80036;stroke-width:1.875;" x1="618.125" x2="743.125" y1="48.75" y2="48.75"/><text fill="#000000" font-family="sans-serif" font-size="13.75" lengthAdjust="spacing" textLength="35" x="624.375" y="68.0237">-code</text><text fill="#000000" font-family="sans-serif" font-size="13.75" lengthAdjust="spacing" textLength="71.25" x="624.375" y="85.3186">-description</text><text fill="#000000" font-family="sans-serif" font-size="13.75" lengthAdjust="spacing" textLength="112.5" x="624.375" y="102.6135">-collectingMethods</text><!--MD5=[e1d86066171c3a502f759e19a2a6ce90]
class TestParameters--><rect codeLine="23" fill="#FEFECE" filter="url(#fs5bfr2vf0v9l)" height="50" id="TestParameters" style="stroke:#A80036;stroke-width:1.875;" width="151.25" x="605" y="155"/><ellipse cx="623.75" cy="175" fill="#ADD1B2" rx="13.75" ry="13.75" style="stroke:#A80036;stroke-width:1.25;"/><path d="M626.25,170.625 Q626.5039,170 626.7969,169.6875 Q627.0898,169.375 627.4219,169.375 Q628.0078,169.375 628.3789,169.7266 Q628.75,170.0781 628.75,170.8984 L628.75,172.8516 Q628.75,173.6719 628.3984,174.0234 Q628.0469,174.375 627.5,174.375 Q627.0117,174.375 626.6992,174.1602 Q626.3867,173.9453 626.25,173.3789 Q626.1914,172.9883 625.9766,172.7734 Q625.5859,172.3633 624.8828,172.1289 Q624.1797,171.875 623.4766,171.875 Q622.5977,171.875 621.8555,172.2266 Q621.1328,172.5781 620.5664,173.3594 Q620,174.1406 620,175.2148 L620,176.3672 Q620,177.6563 621.0547,178.5156 Q622.1094,179.375 623.9844,179.375 Q625.0977,179.375 625.8789,179.1211 Q626.3281,178.9844 626.8359,178.5352 Q627.168,178.2813 627.3438,178.2031 Q627.5195,178.125 627.7344,178.125 Q628.1445,178.125 628.4375,178.457 Q628.75,178.7695 628.75,179.2188 Q628.75,179.6484 628.3203,180.1563 Q627.6953,180.8984 626.6992,181.3086 Q625.3906,181.875 623.7891,181.875 Q621.9141,181.875 620.4102,181.1328 Q619.1992,180.5469 618.3398,179.2773 Q617.5,178.0078 617.5,176.5039 L617.5,175.1367 Q617.5,173.5742 618.2422,172.207 Q619.0039,170.8398 620.3125,170.1172 Q621.6406,169.375 623.125,169.375 Q624.0234,169.375 624.8047,169.6875 Q625.5859,170 626.25,170.625 Z " fill="#000000"/><text fill="#000000" font-family="sans-serif" font-size="15" lengthAdjust="spacing" textLength="111.25" x="641.25" y="181.1377">TestParameters</text><line style="stroke:#A80036;stroke-width:1.875;" x1="606.25" x2="755" y1="195" y2="195"/><!--MD5=[56f671791a7bc69038cb91d87520b796]
class Parameters--><rect codeLine="26" fill="#FEFECE" filter="url(#fs5bfr2vf0v9l)" height="84.5898" id="Parameters" style="stroke:#A80036;stroke-width:1.875;" width="121.25" x="991.25" y="137.5"/><ellipse cx="1010" cy="157.5" fill="#ADD1B2" rx="13.75" ry="13.75" style="stroke:#A80036;stroke-width:1.25;"/><path d="M1012.5,153.125 Q1012.7539,152.5 1013.0469,152.1875 Q1013.3398,151.875 1013.6719,151.875 Q1014.2578,151.875 1014.6289,152.2266 Q1015,152.5781 1015,153.3984 L1015,155.3516 Q1015,156.1719 1014.6484,156.5234 Q1014.2969,156.875 1013.75,156.875 Q1013.2617,156.875 1012.9492,156.6602 Q1012.6367,156.4453 1012.5,155.8789 Q1012.4414,155.4883 1012.2266,155.2734 Q1011.8359,154.8633 1011.1328,154.6289 Q1010.4297,154.375 1009.7266,154.375 Q1008.8477,154.375 1008.1055,154.7266 Q1007.3828,155.0781 1006.8164,155.8594 Q1006.25,156.6406 1006.25,157.7148 L1006.25,158.8672 Q1006.25,160.1563 1007.3047,161.0156 Q1008.3594,161.875 1010.2344,161.875 Q1011.3477,161.875 1012.1289,161.6211 Q1012.5781,161.4844 1013.0859,161.0352 Q1013.418,160.7813 1013.5938,160.7031 Q1013.7695,160.625 1013.9844,160.625 Q1014.3945,160.625 1014.6875,160.957 Q1015,161.2695 1015,161.7188 Q1015,162.1484 1014.5703,162.6563 Q1013.9453,163.3984 1012.9492,163.8086 Q1011.6406,164.375 1010.0391,164.375 Q1008.1641,164.375 1006.6602,163.6328 Q1005.4492,163.0469 1004.5898,161.7773 Q1003.75,160.5078 1003.75,159.0039 L1003.75,157.6367 Q1003.75,156.0742 1004.4922,154.707 Q1005.2539,153.3398 1006.5625,152.6172 Q1007.8906,151.875 1009.375,151.875 Q1010.2734,151.875 1011.0547,152.1875 Q1011.8359,152.5 1012.5,153.125 Z " fill="#000000"/><text fill="#000000" font-family="sans-serif" font-size="15" lengthAdjust="spacing" textLength="81.25" x="1027.5" y="163.6377">Parameters</text><line style="stroke:#A80036;stroke-width:1.875;" x1="992.5" x2="1111.25" y1="177.5" y2="177.5"/><text fill="#000000" font-family="sans-serif" font-size="13.75" lengthAdjust="spacing" textLength="76.25" x="998.75" y="196.7737">-idParameter</text><text fill="#000000" font-family="sans-serif" font-size="13.75" lengthAdjust="spacing" textLength="71.25" x="998.75" y="214.0686">-description</text><!--MD5=[ba81b7e447edea0958a46a7826f9111d]
class Parameter_Category--><rect codeLine="31" fill="#FEFECE" filter="url(#fs5bfr2vf0v9l)" height="84.5898" id="Parameter_Category" style="stroke:#A80036;stroke-width:1.875;" width="182.5" x="1322.5" y="137.5"/><ellipse cx="1341.25" cy="157.5" fill="#ADD1B2" rx="13.75" ry="13.75" style="stroke:#A80036;stroke-width:1.25;"/><path d="M1343.75,153.125 Q1344.0039,152.5 1344.2969,152.1875 Q1344.5898,151.875 1344.9219,151.875 Q1345.5078,151.875 1345.8789,152.2266 Q1346.25,152.5781 1346.25,153.3984 L1346.25,155.3516 Q1346.25,156.1719 1345.8984,156.5234 Q1345.5469,156.875 1345,156.875 Q1344.5117,156.875 1344.1992,156.6602 Q1343.8867,156.4453 1343.75,155.8789 Q1343.6914,155.4883 1343.4766,155.2734 Q1343.0859,154.8633 1342.3828,154.6289 Q1341.6797,154.375 1340.9766,154.375 Q1340.0977,154.375 1339.3555,154.7266 Q1338.6328,155.0781 1338.0664,155.8594 Q1337.5,156.6406 1337.5,157.7148 L1337.5,158.8672 Q1337.5,160.1563 1338.5547,161.0156 Q1339.6094,161.875 1341.4844,161.875 Q1342.5977,161.875 1343.3789,161.6211 Q1343.8281,161.4844 1344.3359,161.0352 Q1344.668,160.7813 1344.8438,160.7031 Q1345.0195,160.625 1345.2344,160.625 Q1345.6445,160.625 1345.9375,160.957 Q1346.25,161.2695 1346.25,161.7188 Q1346.25,162.1484 1345.8203,162.6563 Q1345.1953,163.3984 1344.1992,163.8086 Q1342.8906,164.375 1341.2891,164.375 Q1339.4141,164.375 1337.9102,163.6328 Q1336.6992,163.0469 1335.8398,161.7773 Q1335,160.5078 1335,159.0039 L1335,157.6367 Q1335,156.0742 1335.7422,154.707 Q1336.5039,153.3398 1337.8125,152.6172 Q1339.1406,151.875 1340.625,151.875 Q1341.5234,151.875 1342.3047,152.1875 Q1343.0859,152.5 1343.75,153.125 Z " fill="#000000"/><text fill="#000000" font-family="sans-serif" font-size="15" lengthAdjust="spacing" textLength="142.5" x="1358.75" y="163.6377">Parameter_Category</text><line style="stroke:#A80036;stroke-width:1.875;" x1="1323.75" x2="1503.75" y1="177.5" y2="177.5"/><text fill="#000000" font-family="sans-serif" font-size="13.75" lengthAdjust="spacing" textLength="70" x="1330" y="196.7737">-idCategory</text><text fill="#000000" font-family="sans-serif" font-size="13.75" lengthAdjust="spacing" textLength="37.5" x="1330" y="214.0686">-name</text><!--MD5=[7e4bc624457760b649895ff2ead938fa]
link Company to Test--><path codeLine="38" d="M115.1375,120 C156.0625,120 213,120 254.9875,120 " fill="none" id="Company-Test" style="stroke:#A80036;stroke-width:1.25;"/><text fill="#000000" font-family="sans-serif" font-size="16.25" lengthAdjust="spacing" textLength="62.5" x="153.75" y="115.6189">performs</text><text fill="#000000" font-family="sans-serif" font-size="16.25" lengthAdjust="spacing" textLength="8.75" x="125.0439" y="138.643">1</text><text fill="#000000" font-family="sans-serif" font-size="16.25" lengthAdjust="spacing" textLength="6.25" x="238.6944" y="138.5429">*</text><!--MD5=[e981d4f96c4342412d1e68160b30cf70]
link Test to TestType--><path codeLine="39" d="M370.075,110.7625 C436.7875,99.8125 547.55,81.6375 616.85,70.2625 " fill="none" id="Test-TestType" style="stroke:#A80036;stroke-width:1.25;"/><polygon fill="#000000" points="475.5425,67.9575,463.7904,66.1634,464.9803,73.4138,475.5425,67.9575" style="stroke:#000000;stroke-width:1.25;"/><text fill="#000000" font-family="sans-serif" font-size="16.25" lengthAdjust="spacing" textLength="30" x="480.625" y="75.6189">is of</text><text fill="#000000" font-family="sans-serif" font-size="16.25" lengthAdjust="spacing" textLength="6.25" x="380.1284" y="127.7755">*</text><text fill="#000000" font-family="sans-serif" font-size="16.25" lengthAdjust="spacing" textLength="8.75" x="598.0905" y="90.1849">1</text><!--MD5=[e80eb7b358ff3844f1d066086bf7c32a]
link Test to TestParameters--><path codeLine="40" d="M370.2125,130.825 C382.5,133.0875 395.425,135.425 407.5,137.5 C474.125,148.925 550.1625,160.7 604.85,168.95 " fill="none" id="Test-TestParameters" style="stroke:#A80036;stroke-width:1.25;"/><polygon fill="#000000" points="419.9191,127.4721,409.3483,122.0327,408.1699,129.2849,419.9191,127.4721" style="stroke:#000000;stroke-width:1.25;"/><text fill="#000000" font-family="sans-serif" font-size="16.25" lengthAdjust="spacing" textLength="141.25" x="425" y="133.1189">request analysis for</text><text fill="#000000" font-family="sans-serif" font-size="16.25" lengthAdjust="spacing" textLength="6.25" x="379.9085" y="151.03">*</text><text fill="#000000" font-family="sans-serif" font-size="16.25" lengthAdjust="spacing" textLength="8.75" x="586.3317" y="185.7177">1</text><!--MD5=[679a8412ce247ddc3b9f0d47cb5185d2]
link TestParameters to Parameters--><path codeLine="41" d="M756.5,180 C825.525,180 926.825,180 990.7125,180 " fill="none" id="TestParameters-Parameters" style="stroke:#A80036;stroke-width:1.25;"/><polygon fill="#000000" points="806.25,168.9697,794.9436,165.2961,794.9436,172.6434,806.25,168.9697" style="stroke:#000000;stroke-width:1.25;"/><text fill="#000000" font-family="sans-serif" font-size="16.25" lengthAdjust="spacing" textLength="141.25" x="811.25" y="175.6189">request analysis for</text><text fill="#000000" font-family="sans-serif" font-size="16.25" lengthAdjust="spacing" textLength="8.75" x="766.2805" y="198.1144">1</text><text fill="#000000" font-family="sans-serif" font-size="16.25" lengthAdjust="spacing" textLength="6.25" x="975.0203" y="198.4">*</text><!--MD5=[1a178c3b32523475582b6cfe0f1466a5]
link Parameters to Parameter_Category--><path codeLine="42" d="M1112.875,180 C1169.95,180 1256.7625,180 1322.2625,180 " fill="none" id="Parameters-Parameter_Category" style="stroke:#A80036;stroke-width:1.25;"/><polygon fill="#000000" points="1162.5,168.9697,1151.1936,165.2961,1151.1936,172.6434,1162.5,168.9697" style="stroke:#000000;stroke-width:1.25;"/><text fill="#000000" font-family="sans-serif" font-size="16.25" lengthAdjust="spacing" textLength="116.25" x="1167.5" y="175.6189">presented under</text><text fill="#000000" font-family="sans-serif" font-size="16.25" lengthAdjust="spacing" textLength="6.25" x="1122.6941" y="198.4652">*</text><text fill="#000000" font-family="sans-serif" font-size="16.25" lengthAdjust="spacing" textLength="8.75" x="1303.6267" y="197.944">1</text><!--MD5=[73749b8d9787c478ad9c6b0635fb1956]
@startuml
hide methods
left to right direction
skinparam classAttributeIconSize 0

class Test {
  -idTest
  -nhsCode
  -clientTinNumber
  -creationDate
  -state
}

class Company{
    -chemicalLab
}

class TestType {
  -code
  -description
  -collectingMethods
}

class TestParameters {
}

class Parameters {
   -idParameter
   -description
}

class Parameter_Category {
   -idCategory
   -name
}



Company "1" - - "*" Test : performs
Test "*" - - "1" TestType : is of >
Test "*" - - "1" TestParameters : request analysis for >
TestParameters "1" - - "*" Parameters : request analysis for >
Parameters "*" - - "1" Parameter_Category : presented under >

@enduml

PlantUML version 1.2021.2(Sun Mar 07 11:10:27 GMT 2021)
(GPL source distribution)
Java Runtime: OpenJDK Runtime Environment
JVM: OpenJDK 64-Bit Server VM
Default Encoding: Cp1252
Language: pt
Country: PT
--></g></svg>