<?xml version="1.0" encoding="UTF-8" standalone="no"?><svg xmlns="http://www.w3.org/2000/svg" xmlns:xlink="http://www.w3.org/1999/xlink" contentScriptType="application/ecmascript" contentStyleType="text/css" height="1211.25px" preserveAspectRatio="none" style="width:1497px;height:1211px;" version="1.1" viewBox="0 0 1497 1211" width="1497.5px" zoomAndPan="magnify"><defs><filter height="300%" id="forrxlcat57zo" width="300%" x="-1" y="-1"><feGaussianBlur result="blurOut" stdDeviation="2.5"/><feColorMatrix in="blurOut" result="blurOut2" type="matrix" values="0 0 0 0 0 0 0 0 0 0 0 0 0 0 0 0 0 0 .4 0"/><feOffset dx="5.0" dy="5.0" in="blurOut2" result="blurOut3"/><feBlend in="SourceGraphic" in2="blurOut3" mode="normal"/></filter></defs><g><!--MD5=[df38be88ccee13e832d6fafd6288a4ca]
class Test--><rect codeLine="3" fill="#FEFECE" filter="url(#forrxlcat57zo)" height="111.8848" id="Test" style="stroke:#A80036;stroke-width:1.875;" width="273.75" x="11.25" y="907.5"/><ellipse cx="127.8125" cy="927.5" fill="#ADD1B2" rx="13.75" ry="13.75" style="stroke:#A80036;stroke-width:1.25;"/><path d="M130.3125,923.125 Q130.5664,922.5 130.8594,922.1875 Q131.1523,921.875 131.4844,921.875 Q132.0703,921.875 132.4414,922.2266 Q132.8125,922.5781 132.8125,923.3984 L132.8125,925.3516 Q132.8125,926.1719 132.4609,926.5234 Q132.1094,926.875 131.5625,926.875 Q131.0742,926.875 130.7617,926.6602 Q130.4492,926.4453 130.3125,925.8789 Q130.2539,925.4883 130.0391,925.2734 Q129.6484,924.8633 128.9453,924.6289 Q128.2422,924.375 127.5391,924.375 Q126.6602,924.375 125.918,924.7266 Q125.1953,925.0781 124.6289,925.8594 Q124.0625,926.6406 124.0625,927.7148 L124.0625,928.8672 Q124.0625,930.1563 125.1172,931.0156 Q126.1719,931.875 128.0469,931.875 Q129.1602,931.875 129.9414,931.6211 Q130.3906,931.4844 130.8984,931.0352 Q131.2305,930.7813 131.4063,930.7031 Q131.582,930.625 131.7969,930.625 Q132.207,930.625 132.5,930.957 Q132.8125,931.2695 132.8125,931.7188 Q132.8125,932.1484 132.3828,932.6563 Q131.7578,933.3984 130.7617,933.8086 Q129.4531,934.375 127.8516,934.375 Q125.9766,934.375 124.4727,933.6328 Q123.2617,933.0469 122.4023,931.7773 Q121.5625,930.5078 121.5625,929.0039 L121.5625,927.6367 Q121.5625,926.0742 122.3047,924.707 Q123.0664,923.3398 124.375,922.6172 Q125.7031,921.875 127.1875,921.875 Q128.0859,921.875 128.8672,922.1875 Q129.6484,922.5 130.3125,923.125 Z " fill="#000000"/><text fill="#000000" font-family="sans-serif" font-size="15" lengthAdjust="spacing" textLength="30" x="153.4375" y="933.6377">Test</text><line style="stroke:#A80036;stroke-width:1.875;" x1="12.5" x2="283.75" y1="947.5" y2="947.5"/><line style="stroke:#A80036;stroke-width:1.875;" x1="12.5" x2="283.75" y1="957.5" y2="957.5"/><ellipse cx="25" cy="971.25" fill="#84BE84" rx="3.75" ry="3.75" style="stroke:#038048;stroke-width:1.25;"/><text fill="#000000" font-family="sans-serif" font-size="13.75" lengthAdjust="spacing" textLength="207.5" x="36.25" y="976.7737">Test(tin,id,nhsCode,testType,date)</text><ellipse cx="25" cy="988.5449" fill="#84BE84" rx="3.75" ry="3.75" style="stroke:#038048;stroke-width:1.25;"/><text fill="#000000" font-family="sans-serif" font-size="13.75" lengthAdjust="spacing" textLength="137.5" x="36.25" y="994.0686">getTestParameterList()</text><ellipse cx="25" cy="1005.8398" fill="#84BE84" rx="3.75" ry="3.75" style="stroke:#038048;stroke-width:1.25;"/><text fill="#000000" font-family="sans-serif" font-size="13.75" lengthAdjust="spacing" textLength="241.25" x="36.25" y="1011.3635">testParameterCreator(idTest, paramList)</text><!--MD5=[02e4b9b7573f1156f41e60aa5b4e25a4]
class Company--><rect codeLine="9" fill="#FEFECE" filter="url(#forrxlcat57zo)" height="146.4746" id="Company" style="stroke:#A80036;stroke-width:1.875;" width="210" x="985.625" y="420"/><ellipse cx="1052.1875" cy="440" fill="#ADD1B2" rx="13.75" ry="13.75" style="stroke:#A80036;stroke-width:1.25;"/><path d="M1054.6875,435.625 Q1054.9414,435 1055.2344,434.6875 Q1055.5273,434.375 1055.8594,434.375 Q1056.4453,434.375 1056.8164,434.7266 Q1057.1875,435.0781 1057.1875,435.8984 L1057.1875,437.8516 Q1057.1875,438.6719 1056.8359,439.0234 Q1056.4844,439.375 1055.9375,439.375 Q1055.4492,439.375 1055.1367,439.1602 Q1054.8242,438.9453 1054.6875,438.3789 Q1054.6289,437.9883 1054.4141,437.7734 Q1054.0234,437.3633 1053.3203,437.1289 Q1052.6172,436.875 1051.9141,436.875 Q1051.0352,436.875 1050.293,437.2266 Q1049.5703,437.5781 1049.0039,438.3594 Q1048.4375,439.1406 1048.4375,440.2148 L1048.4375,441.3672 Q1048.4375,442.6563 1049.4922,443.5156 Q1050.5469,444.375 1052.4219,444.375 Q1053.5352,444.375 1054.3164,444.1211 Q1054.7656,443.9844 1055.2734,443.5352 Q1055.6055,443.2813 1055.7813,443.2031 Q1055.957,443.125 1056.1719,443.125 Q1056.582,443.125 1056.875,443.457 Q1057.1875,443.7695 1057.1875,444.2188 Q1057.1875,444.6484 1056.7578,445.1563 Q1056.1328,445.8984 1055.1367,446.3086 Q1053.8281,446.875 1052.2266,446.875 Q1050.3516,446.875 1048.8477,446.1328 Q1047.6367,445.5469 1046.7773,444.2773 Q1045.9375,443.0078 1045.9375,441.5039 L1045.9375,440.1367 Q1045.9375,438.5742 1046.6797,437.207 Q1047.4414,435.8398 1048.75,435.1172 Q1050.0781,434.375 1051.5625,434.375 Q1052.4609,434.375 1053.2422,434.6875 Q1054.0234,435 1054.6875,435.625 Z " fill="#000000"/><text fill="#000000" font-family="sans-serif" font-size="15" lengthAdjust="spacing" textLength="66.25" x="1077.8125" y="446.1377">Company</text><line style="stroke:#A80036;stroke-width:1.875;" x1="986.875" x2="1194.375" y1="460" y2="460"/><rect fill="none" height="7.5" style="stroke:#C82930;stroke-width:1.25;" width="7.5" x="995.625" y="470"/><text fill="#000000" font-family="sans-serif" font-size="13.75" lengthAdjust="spacing" textLength="75" x="1010.625" y="479.2737">chemicalLab</text><line style="stroke:#A80036;stroke-width:1.875;" x1="986.875" x2="1194.375" y1="487.2949" y2="487.2949"/><ellipse cx="999.375" cy="501.0449" fill="#84BE84" rx="3.75" ry="3.75" style="stroke:#038048;stroke-width:1.25;"/><text fill="#000000" font-family="sans-serif" font-size="13.75" lengthAdjust="spacing" textLength="117.5" x="1010.625" y="506.5686">getTestTypeStore()</text><ellipse cx="999.375" cy="518.3398" fill="#84BE84" rx="3.75" ry="3.75" style="stroke:#038048;stroke-width:1.25;"/><text fill="#000000" font-family="sans-serif" font-size="13.75" lengthAdjust="spacing" textLength="122.5" x="1010.625" y="523.8635">getParameterStore()</text><ellipse cx="999.375" cy="535.6348" fill="#84BE84" rx="3.75" ry="3.75" style="stroke:#038048;stroke-width:1.25;"/><text fill="#000000" font-family="sans-serif" font-size="13.75" lengthAdjust="spacing" textLength="177.5" x="1010.625" y="541.1584">getParameterCategoryStore()</text><ellipse cx="999.375" cy="552.9297" fill="#84BE84" rx="3.75" ry="3.75" style="stroke:#038048;stroke-width:1.25;"/><text fill="#000000" font-family="sans-serif" font-size="13.75" lengthAdjust="spacing" textLength="93.75" x="1010.625" y="558.4534">getClientStore()</text><!--MD5=[92f70f89e9f3cc4b172fe964212d1829]
class CreateTestUI--><rect codeLine="17" fill="#FEFECE" filter="url(#forrxlcat57zo)" height="60" id="CreateTestUI" style="stroke:#A80036;stroke-width:1.875;" width="131.25" x="525" y="8.75"/><ellipse cx="543.75" cy="28.75" fill="#ADD1B2" rx="13.75" ry="13.75" style="stroke:#A80036;stroke-width:1.25;"/><path d="M546.25,24.375 Q546.5039,23.75 546.7969,23.4375 Q547.0898,23.125 547.4219,23.125 Q548.0078,23.125 548.3789,23.4766 Q548.75,23.8281 548.75,24.6484 L548.75,26.6016 Q548.75,27.4219 548.3984,27.7734 Q548.0469,28.125 547.5,28.125 Q547.0117,28.125 546.6992,27.9102 Q546.3867,27.6953 546.25,27.1289 Q546.1914,26.7383 545.9766,26.5234 Q545.5859,26.1133 544.8828,25.8789 Q544.1797,25.625 543.4766,25.625 Q542.5977,25.625 541.8555,25.9766 Q541.1328,26.3281 540.5664,27.1094 Q540,27.8906 540,28.9648 L540,30.1172 Q540,31.4063 541.0547,32.2656 Q542.1094,33.125 543.9844,33.125 Q545.0977,33.125 545.8789,32.8711 Q546.3281,32.7344 546.8359,32.2852 Q547.168,32.0313 547.3438,31.9531 Q547.5195,31.875 547.7344,31.875 Q548.1445,31.875 548.4375,32.207 Q548.75,32.5195 548.75,32.9688 Q548.75,33.3984 548.3203,33.9063 Q547.6953,34.6484 546.6992,35.0586 Q545.3906,35.625 543.7891,35.625 Q541.9141,35.625 540.4102,34.8828 Q539.1992,34.2969 538.3398,33.0273 Q537.5,31.7578 537.5,30.2539 L537.5,28.8867 Q537.5,27.3242 538.2422,25.957 Q539.0039,24.5898 540.3125,23.8672 Q541.6406,23.125 543.125,23.125 Q544.0234,23.125 544.8047,23.4375 Q545.5859,23.75 546.25,24.375 Z " fill="#000000"/><text fill="#000000" font-family="sans-serif" font-size="15" lengthAdjust="spacing" textLength="91.25" x="561.25" y="34.8877">CreateTestUI</text><line style="stroke:#A80036;stroke-width:1.875;" x1="526.25" x2="655" y1="48.75" y2="48.75"/><line style="stroke:#A80036;stroke-width:1.875;" x1="526.25" x2="655" y1="58.75" y2="58.75"/><!--MD5=[0f07739f46effee96e095e9c408da841]
class TestParameter--><rect codeLine="20" fill="#FEFECE" filter="url(#forrxlcat57zo)" height="77.2949" id="TestParameter" style="stroke:#A80036;stroke-width:1.875;" width="232.5" x="31.875" y="1117.5"/><ellipse cx="91.5625" cy="1137.5" fill="#ADD1B2" rx="13.75" ry="13.75" style="stroke:#A80036;stroke-width:1.25;"/><path d="M94.0625,1133.125 Q94.3164,1132.5 94.6094,1132.1875 Q94.9023,1131.875 95.2344,1131.875 Q95.8203,1131.875 96.1914,1132.2266 Q96.5625,1132.5781 96.5625,1133.3984 L96.5625,1135.3516 Q96.5625,1136.1719 96.2109,1136.5234 Q95.8594,1136.875 95.3125,1136.875 Q94.8242,1136.875 94.5117,1136.6602 Q94.1992,1136.4453 94.0625,1135.8789 Q94.0039,1135.4883 93.7891,1135.2734 Q93.3984,1134.8633 92.6953,1134.6289 Q91.9922,1134.375 91.2891,1134.375 Q90.4102,1134.375 89.668,1134.7266 Q88.9453,1135.0781 88.3789,1135.8594 Q87.8125,1136.6406 87.8125,1137.7148 L87.8125,1138.8672 Q87.8125,1140.1563 88.8672,1141.0156 Q89.9219,1141.875 91.7969,1141.875 Q92.9102,1141.875 93.6914,1141.6211 Q94.1406,1141.4844 94.6484,1141.0352 Q94.9805,1140.7813 95.1563,1140.7031 Q95.332,1140.625 95.5469,1140.625 Q95.957,1140.625 96.25,1140.957 Q96.5625,1141.2695 96.5625,1141.7188 Q96.5625,1142.1484 96.1328,1142.6563 Q95.5078,1143.3984 94.5117,1143.8086 Q93.2031,1144.375 91.6016,1144.375 Q89.7266,1144.375 88.2227,1143.6328 Q87.0117,1143.0469 86.1523,1141.7773 Q85.3125,1140.5078 85.3125,1139.0039 L85.3125,1137.6367 Q85.3125,1136.0742 86.0547,1134.707 Q86.8164,1133.3398 88.125,1132.6172 Q89.4531,1131.875 90.9375,1131.875 Q91.8359,1131.875 92.6172,1132.1875 Q93.3984,1132.5 94.0625,1133.125 Z " fill="#000000"/><text fill="#000000" font-family="sans-serif" font-size="15" lengthAdjust="spacing" textLength="102.5" x="117.1875" y="1143.6377">TestParameter</text><line style="stroke:#A80036;stroke-width:1.875;" x1="33.125" x2="263.125" y1="1157.5" y2="1157.5"/><line style="stroke:#A80036;stroke-width:1.875;" x1="33.125" x2="263.125" y1="1167.5" y2="1167.5"/><ellipse cx="45.625" cy="1181.25" fill="#84BE84" rx="3.75" ry="3.75" style="stroke:#038048;stroke-width:1.25;"/><text fill="#000000" font-family="sans-serif" font-size="13.75" lengthAdjust="spacing" textLength="200" x="56.875" y="1186.7737">TestParameter(idTest, paramList)</text><!--MD5=[5e1e8a05fc56bf5d2b271193c1a467fb]
class CreateTestController--><rect codeLine="24" fill="#FEFECE" filter="url(#forrxlcat57zo)" height="198.3594" id="CreateTestController" style="stroke:#A80036;stroke-width:1.875;" width="305" x="438.125" y="145"/><ellipse cx="513.4375" cy="165" fill="#ADD1B2" rx="13.75" ry="13.75" style="stroke:#A80036;stroke-width:1.25;"/><path d="M515.9375,160.625 Q516.1914,160 516.4844,159.6875 Q516.7773,159.375 517.1094,159.375 Q517.6953,159.375 518.0664,159.7266 Q518.4375,160.0781 518.4375,160.8984 L518.4375,162.8516 Q518.4375,163.6719 518.0859,164.0234 Q517.7344,164.375 517.1875,164.375 Q516.6992,164.375 516.3867,164.1602 Q516.0742,163.9453 515.9375,163.3789 Q515.8789,162.9883 515.6641,162.7734 Q515.2734,162.3633 514.5703,162.1289 Q513.8672,161.875 513.1641,161.875 Q512.2852,161.875 511.543,162.2266 Q510.8203,162.5781 510.2539,163.3594 Q509.6875,164.1406 509.6875,165.2148 L509.6875,166.3672 Q509.6875,167.6563 510.7422,168.5156 Q511.7969,169.375 513.6719,169.375 Q514.7852,169.375 515.5664,169.1211 Q516.0156,168.9844 516.5234,168.5352 Q516.8555,168.2813 517.0313,168.2031 Q517.207,168.125 517.4219,168.125 Q517.832,168.125 518.125,168.457 Q518.4375,168.7695 518.4375,169.2188 Q518.4375,169.6484 518.0078,170.1563 Q517.3828,170.8984 516.3867,171.3086 Q515.0781,171.875 513.4766,171.875 Q511.6016,171.875 510.0977,171.1328 Q508.8867,170.5469 508.0273,169.2773 Q507.1875,168.0078 507.1875,166.5039 L507.1875,165.1367 Q507.1875,163.5742 507.9297,162.207 Q508.6914,160.8398 510,160.1172 Q511.3281,159.375 512.8125,159.375 Q513.7109,159.375 514.4922,159.6875 Q515.2734,160 515.9375,160.625 Z " fill="#000000"/><text fill="#000000" font-family="sans-serif" font-size="15" lengthAdjust="spacing" textLength="143.75" x="539.0625" y="171.1377">CreateTestController</text><line style="stroke:#A80036;stroke-width:1.875;" x1="439.375" x2="741.875" y1="185" y2="185"/><line style="stroke:#A80036;stroke-width:1.875;" x1="439.375" x2="741.875" y1="195" y2="195"/><ellipse cx="451.875" cy="208.75" fill="#84BE84" rx="3.75" ry="3.75" style="stroke:#038048;stroke-width:1.25;"/><text fill="#000000" font-family="sans-serif" font-size="13.75" lengthAdjust="spacing" textLength="78.75" x="463.125" y="214.2737">findClient(tin)</text><ellipse cx="451.875" cy="226.0449" fill="#84BE84" rx="3.75" ry="3.75" style="stroke:#038048;stroke-width:1.25;"/><text fill="#000000" font-family="sans-serif" font-size="13.75" lengthAdjust="spacing" textLength="225" x="463.125" y="231.5686">nhsCodeVerification(String nhsCode)</text><ellipse cx="451.875" cy="243.3398" fill="#84BE84" rx="3.75" ry="3.75" style="stroke:#038048;stroke-width:1.25;"/><text fill="#000000" font-family="sans-serif" font-size="13.75" lengthAdjust="spacing" textLength="85" x="463.125" y="248.8635">getTestType()</text><ellipse cx="451.875" cy="260.6348" fill="#84BE84" rx="3.75" ry="3.75" style="stroke:#038048;stroke-width:1.25;"/><text fill="#000000" font-family="sans-serif" font-size="13.75" lengthAdjust="spacing" textLength="145" x="463.125" y="266.1584">getParameterCategory()</text><ellipse cx="451.875" cy="277.9297" fill="#84BE84" rx="3.75" ry="3.75" style="stroke:#038048;stroke-width:1.25;"/><text fill="#000000" font-family="sans-serif" font-size="13.75" lengthAdjust="spacing" textLength="56.25" x="463.125" y="283.4534">getDate()</text><ellipse cx="451.875" cy="295.2246" fill="#84BE84" rx="3.75" ry="3.75" style="stroke:#038048;stroke-width:1.25;"/><text fill="#000000" font-family="sans-serif" font-size="13.75" lengthAdjust="spacing" textLength="90" x="463.125" y="300.7483">getParameter()</text><ellipse cx="451.875" cy="312.5195" fill="#84BE84" rx="3.75" ry="3.75" style="stroke:#038048;stroke-width:1.25;"/><text fill="#000000" font-family="sans-serif" font-size="13.75" lengthAdjust="spacing" textLength="272.5" x="463.125" y="318.0432">createTest(tin,nhsCode,testType, paramList )</text><ellipse cx="451.875" cy="329.8145" fill="#84BE84" rx="3.75" ry="3.75" style="stroke:#038048;stroke-width:1.25;"/><text fill="#000000" font-family="sans-serif" font-size="13.75" lengthAdjust="spacing" textLength="66.25" x="463.125" y="335.3381">saveTest()</text><!--MD5=[724ead17d3ca940995455a91cefd1e12]
class TestTypeMapper--><rect codeLine="35" fill="#FEFECE" filter="url(#forrxlcat57zo)" height="77.2949" id="TestTypeMapper" style="stroke:#A80036;stroke-width:1.875;" width="153.75" x="311.25" y="454.375"/><ellipse cx="330" cy="474.375" fill="#ADD1B2" rx="13.75" ry="13.75" style="stroke:#A80036;stroke-width:1.25;"/><path d="M332.5,470 Q332.7539,469.375 333.0469,469.0625 Q333.3398,468.75 333.6719,468.75 Q334.2578,468.75 334.6289,469.1016 Q335,469.4531 335,470.2734 L335,472.2266 Q335,473.0469 334.6484,473.3984 Q334.2969,473.75 333.75,473.75 Q333.2617,473.75 332.9492,473.5352 Q332.6367,473.3203 332.5,472.7539 Q332.4414,472.3633 332.2266,472.1484 Q331.8359,471.7383 331.1328,471.5039 Q330.4297,471.25 329.7266,471.25 Q328.8477,471.25 328.1055,471.6016 Q327.3828,471.9531 326.8164,472.7344 Q326.25,473.5156 326.25,474.5898 L326.25,475.7422 Q326.25,477.0313 327.3047,477.8906 Q328.3594,478.75 330.2344,478.75 Q331.3477,478.75 332.1289,478.4961 Q332.5781,478.3594 333.0859,477.9102 Q333.418,477.6563 333.5938,477.5781 Q333.7695,477.5 333.9844,477.5 Q334.3945,477.5 334.6875,477.832 Q335,478.1445 335,478.5938 Q335,479.0234 334.5703,479.5313 Q333.9453,480.2734 332.9492,480.6836 Q331.6406,481.25 330.0391,481.25 Q328.1641,481.25 326.6602,480.5078 Q325.4492,479.9219 324.5898,478.6523 Q323.75,477.3828 323.75,475.8789 L323.75,474.5117 Q323.75,472.9492 324.4922,471.582 Q325.2539,470.2148 326.5625,469.4922 Q327.8906,468.75 329.375,468.75 Q330.2734,468.75 331.0547,469.0625 Q331.8359,469.375 332.5,470 Z " fill="#000000"/><text fill="#000000" font-family="sans-serif" font-size="15" lengthAdjust="spacing" textLength="113.75" x="347.5" y="480.5127">TestTypeMapper</text><line style="stroke:#A80036;stroke-width:1.875;" x1="312.5" x2="463.75" y1="494.375" y2="494.375"/><line style="stroke:#A80036;stroke-width:1.875;" x1="312.5" x2="463.75" y1="504.375" y2="504.375"/><text fill="#000000" font-family="sans-serif" font-size="13.75" lengthAdjust="spacing" textLength="101.25" x="318.75" y="523.6487">toDto(testTypes)</text><!--MD5=[e0569d1bc34b9d21face98cd33d75fba]
class ParameterMapper--><rect codeLine="39" fill="#FEFECE" filter="url(#forrxlcat57zo)" height="77.2949" id="ParameterMapper" style="stroke:#A80036;stroke-width:1.875;" width="163.75" x="508.75" y="454.375"/><ellipse cx="527.5" cy="474.375" fill="#ADD1B2" rx="13.75" ry="13.75" style="stroke:#A80036;stroke-width:1.25;"/><path d="M530,470 Q530.2539,469.375 530.5469,469.0625 Q530.8398,468.75 531.1719,468.75 Q531.7578,468.75 532.1289,469.1016 Q532.5,469.4531 532.5,470.2734 L532.5,472.2266 Q532.5,473.0469 532.1484,473.3984 Q531.7969,473.75 531.25,473.75 Q530.7617,473.75 530.4492,473.5352 Q530.1367,473.3203 530,472.7539 Q529.9414,472.3633 529.7266,472.1484 Q529.3359,471.7383 528.6328,471.5039 Q527.9297,471.25 527.2266,471.25 Q526.3477,471.25 525.6055,471.6016 Q524.8828,471.9531 524.3164,472.7344 Q523.75,473.5156 523.75,474.5898 L523.75,475.7422 Q523.75,477.0313 524.8047,477.8906 Q525.8594,478.75 527.7344,478.75 Q528.8477,478.75 529.6289,478.4961 Q530.0781,478.3594 530.5859,477.9102 Q530.918,477.6563 531.0938,477.5781 Q531.2695,477.5 531.4844,477.5 Q531.8945,477.5 532.1875,477.832 Q532.5,478.1445 532.5,478.5938 Q532.5,479.0234 532.0703,479.5313 Q531.4453,480.2734 530.4492,480.6836 Q529.1406,481.25 527.5391,481.25 Q525.6641,481.25 524.1602,480.5078 Q522.9492,479.9219 522.0898,478.6523 Q521.25,477.3828 521.25,475.8789 L521.25,474.5117 Q521.25,472.9492 521.9922,471.582 Q522.7539,470.2148 524.0625,469.4922 Q525.3906,468.75 526.875,468.75 Q527.7734,468.75 528.5547,469.0625 Q529.3359,469.375 530,470 Z " fill="#000000"/><text fill="#000000" font-family="sans-serif" font-size="15" lengthAdjust="spacing" textLength="123.75" x="545" y="480.5127">ParameterMapper</text><line style="stroke:#A80036;stroke-width:1.875;" x1="510" x2="671.25" y1="494.375" y2="494.375"/><line style="stroke:#A80036;stroke-width:1.875;" x1="510" x2="671.25" y1="504.375" y2="504.375"/><text fill="#000000" font-family="sans-serif" font-size="13.75" lengthAdjust="spacing" textLength="110" x="516.25" y="523.6487">toDto(parameters)</text><!--MD5=[fab6cba0d8a30102bb3e071a5ce00b91]
class ParameterCategoryMapper--><rect codeLine="43" fill="#FEFECE" filter="url(#forrxlcat57zo)" height="77.2949" id="ParameterCategoryMapper" style="stroke:#A80036;stroke-width:1.875;" width="225" x="716.875" y="454.375"/><ellipse cx="735.625" cy="474.375" fill="#ADD1B2" rx="13.75" ry="13.75" style="stroke:#A80036;stroke-width:1.25;"/><path d="M738.125,470 Q738.3789,469.375 738.6719,469.0625 Q738.9648,468.75 739.2969,468.75 Q739.8828,468.75 740.2539,469.1016 Q740.625,469.4531 740.625,470.2734 L740.625,472.2266 Q740.625,473.0469 740.2734,473.3984 Q739.9219,473.75 739.375,473.75 Q738.8867,473.75 738.5742,473.5352 Q738.2617,473.3203 738.125,472.7539 Q738.0664,472.3633 737.8516,472.1484 Q737.4609,471.7383 736.7578,471.5039 Q736.0547,471.25 735.3516,471.25 Q734.4727,471.25 733.7305,471.6016 Q733.0078,471.9531 732.4414,472.7344 Q731.875,473.5156 731.875,474.5898 L731.875,475.7422 Q731.875,477.0313 732.9297,477.8906 Q733.9844,478.75 735.8594,478.75 Q736.9727,478.75 737.7539,478.4961 Q738.2031,478.3594 738.7109,477.9102 Q739.043,477.6563 739.2188,477.5781 Q739.3945,477.5 739.6094,477.5 Q740.0195,477.5 740.3125,477.832 Q740.625,478.1445 740.625,478.5938 Q740.625,479.0234 740.1953,479.5313 Q739.5703,480.2734 738.5742,480.6836 Q737.2656,481.25 735.6641,481.25 Q733.7891,481.25 732.2852,480.5078 Q731.0742,479.9219 730.2148,478.6523 Q729.375,477.3828 729.375,475.8789 L729.375,474.5117 Q729.375,472.9492 730.1172,471.582 Q730.8789,470.2148 732.1875,469.4922 Q733.5156,468.75 735,468.75 Q735.8984,468.75 736.6797,469.0625 Q737.4609,469.375 738.125,470 Z " fill="#000000"/><text fill="#000000" font-family="sans-serif" font-size="15" lengthAdjust="spacing" textLength="185" x="753.125" y="480.5127">ParameterCategoryMapper</text><line style="stroke:#A80036;stroke-width:1.875;" x1="718.125" x2="940.625" y1="494.375" y2="494.375"/><line style="stroke:#A80036;stroke-width:1.875;" x1="718.125" x2="940.625" y1="504.375" y2="504.375"/><text fill="#000000" font-family="sans-serif" font-size="13.75" lengthAdjust="spacing" textLength="105" x="724.375" y="523.6487">toDto(categories)</text><!--MD5=[6ba72ddf03822b91e8d41ca71de58ed3]
class TestTypeStore--><rect codeLine="47" fill="#FEFECE" filter="url(#forrxlcat57zo)" height="77.2949" id="TestTypeStore" style="stroke:#A80036;stroke-width:1.875;" width="138.75" x="1021.25" y="698.125"/><ellipse cx="1040" cy="718.125" fill="#ADD1B2" rx="13.75" ry="13.75" style="stroke:#A80036;stroke-width:1.25;"/><path d="M1042.5,713.75 Q1042.7539,713.125 1043.0469,712.8125 Q1043.3398,712.5 1043.6719,712.5 Q1044.2578,712.5 1044.6289,712.8516 Q1045,713.2031 1045,714.0234 L1045,715.9766 Q1045,716.7969 1044.6484,717.1484 Q1044.2969,717.5 1043.75,717.5 Q1043.2617,717.5 1042.9492,717.2852 Q1042.6367,717.0703 1042.5,716.5039 Q1042.4414,716.1133 1042.2266,715.8984 Q1041.8359,715.4883 1041.1328,715.2539 Q1040.4297,715 1039.7266,715 Q1038.8477,715 1038.1055,715.3516 Q1037.3828,715.7031 1036.8164,716.4844 Q1036.25,717.2656 1036.25,718.3398 L1036.25,719.4922 Q1036.25,720.7813 1037.3047,721.6406 Q1038.3594,722.5 1040.2344,722.5 Q1041.3477,722.5 1042.1289,722.2461 Q1042.5781,722.1094 1043.0859,721.6602 Q1043.418,721.4063 1043.5938,721.3281 Q1043.7695,721.25 1043.9844,721.25 Q1044.3945,721.25 1044.6875,721.582 Q1045,721.8945 1045,722.3438 Q1045,722.7734 1044.5703,723.2813 Q1043.9453,724.0234 1042.9492,724.4336 Q1041.6406,725 1040.0391,725 Q1038.1641,725 1036.6602,724.2578 Q1035.4492,723.6719 1034.5898,722.4023 Q1033.75,721.1328 1033.75,719.6289 L1033.75,718.2617 Q1033.75,716.6992 1034.4922,715.332 Q1035.2539,713.9648 1036.5625,713.2422 Q1037.8906,712.5 1039.375,712.5 Q1040.2734,712.5 1041.0547,712.8125 Q1041.8359,713.125 1042.5,713.75 Z " fill="#000000"/><text fill="#000000" font-family="sans-serif" font-size="15" lengthAdjust="spacing" textLength="98.75" x="1057.5" y="724.2627">TestTypeStore</text><line style="stroke:#A80036;stroke-width:1.875;" x1="1022.5" x2="1158.75" y1="738.125" y2="738.125"/><line style="stroke:#A80036;stroke-width:1.875;" x1="1022.5" x2="1158.75" y1="748.125" y2="748.125"/><text fill="#000000" font-family="sans-serif" font-size="13.75" lengthAdjust="spacing" textLength="106.25" x="1028.75" y="767.3987">getTestTypeList()</text><!--MD5=[be7802b157a16874d39c59ca0e2b25be]
class ParameterStore--><rect codeLine="51" fill="#FEFECE" filter="url(#forrxlcat57zo)" height="77.2949" id="ParameterStore" style="stroke:#A80036;stroke-width:1.875;" width="148.75" x="771.25" y="698.125"/><ellipse cx="790" cy="718.125" fill="#ADD1B2" rx="13.75" ry="13.75" style="stroke:#A80036;stroke-width:1.25;"/><path d="M792.5,713.75 Q792.7539,713.125 793.0469,712.8125 Q793.3398,712.5 793.6719,712.5 Q794.2578,712.5 794.6289,712.8516 Q795,713.2031 795,714.0234 L795,715.9766 Q795,716.7969 794.6484,717.1484 Q794.2969,717.5 793.75,717.5 Q793.2617,717.5 792.9492,717.2852 Q792.6367,717.0703 792.5,716.5039 Q792.4414,716.1133 792.2266,715.8984 Q791.8359,715.4883 791.1328,715.2539 Q790.4297,715 789.7266,715 Q788.8477,715 788.1055,715.3516 Q787.3828,715.7031 786.8164,716.4844 Q786.25,717.2656 786.25,718.3398 L786.25,719.4922 Q786.25,720.7813 787.3047,721.6406 Q788.3594,722.5 790.2344,722.5 Q791.3477,722.5 792.1289,722.2461 Q792.5781,722.1094 793.0859,721.6602 Q793.418,721.4063 793.5938,721.3281 Q793.7695,721.25 793.9844,721.25 Q794.3945,721.25 794.6875,721.582 Q795,721.8945 795,722.3438 Q795,722.7734 794.5703,723.2813 Q793.9453,724.0234 792.9492,724.4336 Q791.6406,725 790.0391,725 Q788.1641,725 786.6602,724.2578 Q785.4492,723.6719 784.5898,722.4023 Q783.75,721.1328 783.75,719.6289 L783.75,718.2617 Q783.75,716.6992 784.4922,715.332 Q785.2539,713.9648 786.5625,713.2422 Q787.8906,712.5 789.375,712.5 Q790.2734,712.5 791.0547,712.8125 Q791.8359,713.125 792.5,713.75 Z " fill="#000000"/><text fill="#000000" font-family="sans-serif" font-size="15" lengthAdjust="spacing" textLength="108.75" x="807.5" y="724.2627">ParameterStore</text><line style="stroke:#A80036;stroke-width:1.875;" x1="772.5" x2="918.75" y1="738.125" y2="738.125"/><line style="stroke:#A80036;stroke-width:1.875;" x1="772.5" x2="918.75" y1="748.125" y2="748.125"/><ellipse cx="785" cy="761.875" fill="#84BE84" rx="3.75" ry="3.75" style="stroke:#038048;stroke-width:1.25;"/><text fill="#000000" font-family="sans-serif" font-size="13.75" lengthAdjust="spacing" textLength="111.25" x="796.25" y="767.3987">getParameterList()</text><!--MD5=[d802db621b5b215a6f0466f93cefcb42]
class ParameterCategoryStore--><rect codeLine="55" fill="#FEFECE" filter="url(#forrxlcat57zo)" height="77.2949" id="ParameterCategoryStore" style="stroke:#A80036;stroke-width:1.875;" width="210" x="400.625" y="698.125"/><ellipse cx="419.375" cy="718.125" fill="#ADD1B2" rx="13.75" ry="13.75" style="stroke:#A80036;stroke-width:1.25;"/><path d="M421.875,713.75 Q422.1289,713.125 422.4219,712.8125 Q422.7148,712.5 423.0469,712.5 Q423.6328,712.5 424.0039,712.8516 Q424.375,713.2031 424.375,714.0234 L424.375,715.9766 Q424.375,716.7969 424.0234,717.1484 Q423.6719,717.5 423.125,717.5 Q422.6367,717.5 422.3242,717.2852 Q422.0117,717.0703 421.875,716.5039 Q421.8164,716.1133 421.6016,715.8984 Q421.2109,715.4883 420.5078,715.2539 Q419.8047,715 419.1016,715 Q418.2227,715 417.4805,715.3516 Q416.7578,715.7031 416.1914,716.4844 Q415.625,717.2656 415.625,718.3398 L415.625,719.4922 Q415.625,720.7813 416.6797,721.6406 Q417.7344,722.5 419.6094,722.5 Q420.7227,722.5 421.5039,722.2461 Q421.9531,722.1094 422.4609,721.6602 Q422.793,721.4063 422.9688,721.3281 Q423.1445,721.25 423.3594,721.25 Q423.7695,721.25 424.0625,721.582 Q424.375,721.8945 424.375,722.3438 Q424.375,722.7734 423.9453,723.2813 Q423.3203,724.0234 422.3242,724.4336 Q421.0156,725 419.4141,725 Q417.5391,725 416.0352,724.2578 Q414.8242,723.6719 413.9648,722.4023 Q413.125,721.1328 413.125,719.6289 L413.125,718.2617 Q413.125,716.6992 413.8672,715.332 Q414.6289,713.9648 415.9375,713.2422 Q417.2656,712.5 418.75,712.5 Q419.6484,712.5 420.4297,712.8125 Q421.2109,713.125 421.875,713.75 Z " fill="#000000"/><text fill="#000000" font-family="sans-serif" font-size="15" lengthAdjust="spacing" textLength="170" x="436.875" y="724.2627">ParameterCategoryStore</text><line style="stroke:#A80036;stroke-width:1.875;" x1="401.875" x2="609.375" y1="738.125" y2="738.125"/><line style="stroke:#A80036;stroke-width:1.875;" x1="401.875" x2="609.375" y1="748.125" y2="748.125"/><ellipse cx="414.375" cy="761.875" fill="#84BE84" rx="3.75" ry="3.75" style="stroke:#038048;stroke-width:1.25;"/><text fill="#000000" font-family="sans-serif" font-size="13.75" lengthAdjust="spacing" textLength="65" x="425.625" y="767.3987">getPcList()</text><!--MD5=[55cb992be19579b505cea3c5691093cb]
class ClientStore--><rect codeLine="59" fill="#FEFECE" filter="url(#forrxlcat57zo)" height="77.2949" id="ClientStore" style="stroke:#A80036;stroke-width:1.875;" width="270" x="1210.625" y="698.125"/><ellipse cx="1302.1875" cy="718.125" fill="#ADD1B2" rx="13.75" ry="13.75" style="stroke:#A80036;stroke-width:1.25;"/><path d="M1304.6875,713.75 Q1304.9414,713.125 1305.2344,712.8125 Q1305.5273,712.5 1305.8594,712.5 Q1306.4453,712.5 1306.8164,712.8516 Q1307.1875,713.2031 1307.1875,714.0234 L1307.1875,715.9766 Q1307.1875,716.7969 1306.8359,717.1484 Q1306.4844,717.5 1305.9375,717.5 Q1305.4492,717.5 1305.1367,717.2852 Q1304.8242,717.0703 1304.6875,716.5039 Q1304.6289,716.1133 1304.4141,715.8984 Q1304.0234,715.4883 1303.3203,715.2539 Q1302.6172,715 1301.9141,715 Q1301.0352,715 1300.293,715.3516 Q1299.5703,715.7031 1299.0039,716.4844 Q1298.4375,717.2656 1298.4375,718.3398 L1298.4375,719.4922 Q1298.4375,720.7813 1299.4922,721.6406 Q1300.5469,722.5 1302.4219,722.5 Q1303.5352,722.5 1304.3164,722.2461 Q1304.7656,722.1094 1305.2734,721.6602 Q1305.6055,721.4063 1305.7813,721.3281 Q1305.957,721.25 1306.1719,721.25 Q1306.582,721.25 1306.875,721.582 Q1307.1875,721.8945 1307.1875,722.3438 Q1307.1875,722.7734 1306.7578,723.2813 Q1306.1328,724.0234 1305.1367,724.4336 Q1303.8281,725 1302.2266,725 Q1300.3516,725 1298.8477,724.2578 Q1297.6367,723.6719 1296.7773,722.4023 Q1295.9375,721.1328 1295.9375,719.6289 L1295.9375,718.2617 Q1295.9375,716.6992 1296.6797,715.332 Q1297.4414,713.9648 1298.75,713.2422 Q1300.0781,712.5 1301.5625,712.5 Q1302.4609,712.5 1303.2422,712.8125 Q1304.0234,713.125 1304.6875,713.75 Z " fill="#000000"/><text fill="#000000" font-family="sans-serif" font-size="15" lengthAdjust="spacing" textLength="76.25" x="1327.8125" y="724.2627">ClientStore</text><line style="stroke:#A80036;stroke-width:1.875;" x1="1211.875" x2="1479.375" y1="738.125" y2="738.125"/><line style="stroke:#A80036;stroke-width:1.875;" x1="1211.875" x2="1479.375" y1="748.125" y2="748.125"/><rect fill="#F24D5C" height="7.5" style="stroke:#C82930;stroke-width:1.25;" width="7.5" x="1220.625" y="758.125"/><text fill="#000000" font-family="sans-serif" font-size="13.75" lengthAdjust="spacing" textLength="237.5" x="1235.625" y="767.3987">verifyExistingClient(citizenCardNumber)</text><!--MD5=[0f6f7964b844a64b0496af0dda7914bd]
class TestStore--><rect codeLine="63" fill="#FEFECE" filter="url(#forrxlcat57zo)" height="146.4746" id="TestStore" style="stroke:#A80036;stroke-width:1.875;" width="278.75" x="8.75" y="663.75"/><ellipse cx="109.6875" cy="683.75" fill="#ADD1B2" rx="13.75" ry="13.75" style="stroke:#A80036;stroke-width:1.25;"/><path d="M112.1875,679.375 Q112.4414,678.75 112.7344,678.4375 Q113.0273,678.125 113.3594,678.125 Q113.9453,678.125 114.3164,678.4766 Q114.6875,678.8281 114.6875,679.6484 L114.6875,681.6016 Q114.6875,682.4219 114.3359,682.7734 Q113.9844,683.125 113.4375,683.125 Q112.9492,683.125 112.6367,682.9102 Q112.3242,682.6953 112.1875,682.1289 Q112.1289,681.7383 111.9141,681.5234 Q111.5234,681.1133 110.8203,680.8789 Q110.1172,680.625 109.4141,680.625 Q108.5352,680.625 107.793,680.9766 Q107.0703,681.3281 106.5039,682.1094 Q105.9375,682.8906 105.9375,683.9648 L105.9375,685.1172 Q105.9375,686.4063 106.9922,687.2656 Q108.0469,688.125 109.9219,688.125 Q111.0352,688.125 111.8164,687.8711 Q112.2656,687.7344 112.7734,687.2852 Q113.1055,687.0313 113.2813,686.9531 Q113.457,686.875 113.6719,686.875 Q114.082,686.875 114.375,687.207 Q114.6875,687.5195 114.6875,687.9688 Q114.6875,688.3984 114.2578,688.9063 Q113.6328,689.6484 112.6367,690.0586 Q111.3281,690.625 109.7266,690.625 Q107.8516,690.625 106.3477,689.8828 Q105.1367,689.2969 104.2773,688.0273 Q103.4375,686.7578 103.4375,685.2539 L103.4375,683.8867 Q103.4375,682.3242 104.1797,680.957 Q104.9414,679.5898 106.25,678.8672 Q107.5781,678.125 109.0625,678.125 Q109.9609,678.125 110.7422,678.4375 Q111.5234,678.75 112.1875,679.375 Z " fill="#000000"/><text fill="#000000" font-family="sans-serif" font-size="15" lengthAdjust="spacing" textLength="66.25" x="135.3125" y="689.8877">TestStore</text><line style="stroke:#A80036;stroke-width:1.875;" x1="10" x2="286.25" y1="703.75" y2="703.75"/><line style="stroke:#A80036;stroke-width:1.875;" x1="10" x2="286.25" y1="713.75" y2="713.75"/><ellipse cx="22.5" cy="727.5" fill="#84BE84" rx="3.75" ry="3.75" style="stroke:#038048;stroke-width:1.25;"/><text fill="#000000" font-family="sans-serif" font-size="13.75" lengthAdjust="spacing" textLength="246.25" x="33.75" y="733.0237">createTest(tin,id,nhsCode,testType,date)</text><ellipse cx="22.5" cy="744.7949" fill="#84BE84" rx="3.75" ry="3.75" style="stroke:#038048;stroke-width:1.25;"/><text fill="#000000" font-family="sans-serif" font-size="13.75" lengthAdjust="spacing" textLength="200" x="33.75" y="750.3186">verifyExistingNhsCode(nhsCode)</text><rect fill="#F24D5C" height="7.5" style="stroke:#C82930;stroke-width:1.25;" width="7.5" x="18.75" y="758.3398"/><text fill="#000000" font-family="sans-serif" font-size="13.75" lengthAdjust="spacing" textLength="82.5" x="33.75" y="767.6135">validateTest()</text><rect fill="#F24D5C" height="7.5" style="stroke:#C82930;stroke-width:1.25;" width="7.5" x="18.75" y="775.6348"/><text fill="#000000" font-family="sans-serif" font-size="13.75" lengthAdjust="spacing" textLength="58.75" x="33.75" y="784.9084">createId()</text><rect fill="#F24D5C" height="7.5" style="stroke:#C82930;stroke-width:1.25;" width="7.5" x="18.75" y="792.9297"/><text fill="#000000" font-family="sans-serif" font-size="13.75" lengthAdjust="spacing" textLength="66.25" x="33.75" y="802.2034">saveTest()</text><!--MD5=[530b2bbbe0543e9500e772e9984c0ae9]
link CreateTestUI to CreateTestController--><path codeLine="71" d="M590.625,69.1 C590.625,87.6125 590.625,112.8125 590.625,138.2875 " fill="none" id="CreateTestUI-to-CreateTestController" style="stroke:#A80036;stroke-width:1.25;stroke-dasharray:7.0,7.0;"/><polygon fill="#A80036" points="590.625,144.775,595.625,133.525,590.625,138.525,585.625,133.525,590.625,144.775" style="stroke:#A80036;stroke-width:1.25;"/><!--MD5=[1e599a7b02367bd15a30ec01145a73b9]
link CreateTestController to Company--><path codeLine="72" d="M743.225,313.9 C811.125,345.0875 891.7125,383.225 963.125,420 C968.6375,422.8375 974.25,425.7875 979.9,428.8 " fill="none" id="CreateTestController-to-Company" style="stroke:#A80036;stroke-width:1.25;stroke-dasharray:7.0,7.0;"/><polygon fill="#A80036" points="985.5625,431.825,978.007,422.1051,980.0533,428.8736,973.2847,430.9199,985.5625,431.825" style="stroke:#A80036;stroke-width:1.25;"/><!--MD5=[d53d7490e5836ca5709858d7326f212b]
link Company to ParameterCategoryStore--><path codeLine="73" d="M985.55,555.3125 C978.025,559.15 970.5,562.825 963.125,566.25 C847.8875,619.65 710.675,668.6125 616.775,700 " fill="none" id="Company-to-ParameterCategoryStore" style="stroke:#A80036;stroke-width:1.25;"/><polygon fill="#A80036" points="610.65,702.05,622.9049,703.2248,616.5775,700.0682,619.734,693.7408,610.65,702.05" style="stroke:#A80036;stroke-width:1.25;"/><text fill="#000000" font-family="sans-serif" font-size="16.25" lengthAdjust="spacing" textLength="48.75" x="866.875" y="621.8689">adopts</text><text fill="#000000" font-family="sans-serif" font-size="16.25" lengthAdjust="spacing" textLength="8.75" x="966.7101" y="557.0023">1</text><text fill="#000000" font-family="sans-serif" font-size="16.25" lengthAdjust="spacing" textLength="8.75" x="620.7353" y="694.8163">1</text><!--MD5=[141c3afa12b2b3c0a39ffce56dbd5f19]
link Company to TestTypeStore--><path codeLine="74" d="M1078.75,566.4875 C1076.75,585.875 1075.6625,606.8375 1076.875,626.25 C1078.2125,647.7 1081.025,671.375 1083.7625,691.2 " fill="none" id="Company-to-TestTypeStore" style="stroke:#A80036;stroke-width:1.25;"/><polygon fill="#A80036" points="1084.6875,697.775,1088.0606,685.935,1083.8111,691.5867,1078.1594,687.3372,1084.6875,697.775" style="stroke:#A80036;stroke-width:1.25;"/><text fill="#000000" font-family="sans-serif" font-size="16.25" lengthAdjust="spacing" textLength="48.75" x="1078.125" y="621.8689">adopts</text><text fill="#000000" font-family="sans-serif" font-size="16.25" lengthAdjust="spacing" textLength="8.75" x="1068.0195" y="593.5293">1</text><text fill="#000000" font-family="sans-serif" font-size="16.25" lengthAdjust="spacing" textLength="8.75" x="1073.8105" y="684.5835">1</text><!--MD5=[daf3d7412afa2c7651483be0b6e971d1]
link Company to ParameterStore--><path codeLine="75" d="M1017.45,566.425 C975.4875,607.7625 924.2375,658.2125 888.6875,693.2125 " fill="none" id="Company-to-ParameterStore" style="stroke:#A80036;stroke-width:1.25;"/><polygon fill="#A80036" points="884,697.8375,895.5345,693.5344,888.4638,693.4629,888.5353,686.3922,884,697.8375" style="stroke:#A80036;stroke-width:1.25;"/><text fill="#000000" font-family="sans-serif" font-size="16.25" lengthAdjust="spacing" textLength="48.75" x="976.875" y="621.8689">adopts</text><text fill="#000000" font-family="sans-serif" font-size="16.25" lengthAdjust="spacing" textLength="8.75" x="999.2486" y="593.4592">1</text><text fill="#000000" font-family="sans-serif" font-size="16.25" lengthAdjust="spacing" textLength="8.75" x="882.2625" y="684.6589">1</text><!--MD5=[a11230341c8e65219708844feaa40162]
link Company to ClientStore--><path codeLine="76" d="M1166.7875,566.425 C1210.4625,607.7625 1263.8,658.2125 1300.8,693.2125 " fill="none" id="Company-to-ClientStore" style="stroke:#A80036;stroke-width:1.25;"/><polygon fill="#A80036" points="1305.6875,697.8375,1300.9679,686.467,1301.1536,693.5356,1294.0849,693.7213,1305.6875,697.8375" style="stroke:#A80036;stroke-width:1.25;"/><text fill="#000000" font-family="sans-serif" font-size="16.25" lengthAdjust="spacing" textLength="48.75" x="1226.875" y="621.8689">adopts</text><text fill="#000000" font-family="sans-serif" font-size="16.25" lengthAdjust="spacing" textLength="8.75" x="1166.7866" y="593.4592">1</text><text fill="#000000" font-family="sans-serif" font-size="16.25" lengthAdjust="spacing" textLength="8.75" x="1287.798" y="684.6589">1</text><!--MD5=[7f6cf7f175eae0af66201860de5de971]
link Company to TestStore--><path codeLine="77" d="M985.5,557.275 C978.05,560.5875 970.55,563.625 963.125,566.25 C900.9875,588.175 442.225,648.475 378.125,663.75 C350.7,670.2875 321.7625,678.3625 294.025,686.725 " fill="none" id="Company-to-TestStore" style="stroke:#A80036;stroke-width:1.25;"/><polygon fill="#A80036" points="287.75,688.625,299.9686,690.1313,293.729,686.8045,297.0558,680.565,287.75,688.625" style="stroke:#A80036;stroke-width:1.25;"/><text fill="#000000" font-family="sans-serif" font-size="16.25" lengthAdjust="spacing" textLength="48.75" x="750.625" y="621.8689">adopts</text><text fill="#000000" font-family="sans-serif" font-size="16.25" lengthAdjust="spacing" textLength="8.75" x="966.9977" y="580.7574">1</text><text fill="#000000" font-family="sans-serif" font-size="16.25" lengthAdjust="spacing" textLength="8.75" x="297.425" y="681.5874">1</text><!--MD5=[b0f4f6db8206580012ef9cd998ed01c5]
link TestStore to Test--><path codeLine="78" d="M148.125,810.35 C148.125,839.65 148.125,873.1375 148.125,901.2125 " fill="none" id="TestStore-to-Test" style="stroke:#A80036;stroke-width:1.25;"/><polygon fill="#A80036" points="148.125,907.4875,153.125,896.2375,148.125,901.2375,143.125,896.2375,148.125,907.4875" style="stroke:#A80036;stroke-width:1.25;"/><text fill="#000000" font-family="sans-serif" font-size="16.25" lengthAdjust="spacing" textLength="45" x="149.375" y="865.6189">stores</text><text fill="#000000" font-family="sans-serif" font-size="16.25" lengthAdjust="spacing" textLength="8.75" x="138.8691" y="836.8831">1</text><text fill="#000000" font-family="sans-serif" font-size="16.25" lengthAdjust="spacing" textLength="6.25" x="141.377" y="893.8799">*</text><!--MD5=[f24c888dadeb846430474fe80a58922b]
link Test to TestParameter--><path codeLine="79" d="M148.125,1020.4625 C148.125,1049.2625 148.125,1083.9625 148.125,1110.9125 " fill="none" id="Test-to-TestParameter" style="stroke:#A80036;stroke-width:1.25;"/><polygon fill="#A80036" points="148.125,1117.2375,153.125,1105.9875,148.125,1110.9875,143.125,1105.9875,148.125,1117.2375" style="stroke:#A80036;stroke-width:1.25;"/><text fill="#000000" font-family="sans-serif" font-size="16.25" lengthAdjust="spacing" textLength="145" x="149.375" y="1075.6189">requests analysis of</text><text fill="#000000" font-family="sans-serif" font-size="16.25" lengthAdjust="spacing" textLength="8.75" x="138.7871" y="1046.3668">1</text><text fill="#000000" font-family="sans-serif" font-size="16.25" lengthAdjust="spacing" textLength="6.25" x="141.2305" y="1104.064">*</text><!--MD5=[7f71e9253d7fc92f5f32c8b21cbc461c]
link CreateTestController to ParameterStore--><path codeLine="80" d="M438.0625,296.2 C380.9625,323.4125 322.05,363.325 289.375,420 C256.9125,476.3125 250.2125,514.375 289.375,566.25 C384.75,692.5625 480.7125,616.85 631.875,663.75 C676.0625,677.4625 725.0125,693.825 764.9,707.475 " fill="none" id="CreateTestController-to-ParameterStore" style="stroke:#A80036;stroke-width:1.25;stroke-dasharray:7.0,7.0;"/><polygon fill="#A80036" points="771.2125,709.65,762.1812,701.2835,765.2977,707.6307,758.9504,710.7472,771.2125,709.65" style="stroke:#A80036;stroke-width:1.25;"/><!--MD5=[bb834861019513a5c3c3d91dd7fce220]
link CreateTestController to TestStore--><path codeLine="81" d="M437.8125,278.525 C362.2875,299.6625 272.4625,332.5125 201.875,381.25 C116.7875,440 119.5125,571.7875 131.9,657.05 " fill="none" id="CreateTestController-to-TestStore" style="stroke:#A80036;stroke-width:1.25;stroke-dasharray:7.0,7.0;"/><polygon fill="#A80036" points="132.8875,663.6125,136.16,651.7443,131.9586,657.4319,126.2711,653.2305,132.8875,663.6125" style="stroke:#A80036;stroke-width:1.25;"/><!--MD5=[816033eb33a7980b6e219a70260e6348]
link CreateTestController to ClientStore--><path codeLine="82" d="M743.3,262.875 C924.1625,286.825 1209.075,336.8625 1273.125,420 C1335.325,500.7375 1345.7875,625.3875 1346.6,691.2875 " fill="none" id="CreateTestController-to-ClientStore" style="stroke:#A80036;stroke-width:1.25;stroke-dasharray:7.0,7.0;"/><polygon fill="#A80036" points="1346.65,697.8625,1351.5856,686.5841,1346.6143,691.6126,1341.5858,686.6413,1346.65,697.8625" style="stroke:#A80036;stroke-width:1.25;"/><!--MD5=[07729de09ecbcca9f766dd2c74b6004a]
link CreateTestController to TestTypeStore--><path codeLine="83" d="M743.15,267.825 C908.7375,295.25 1157.6875,347.375 1218.125,420 C1276.9375,490.6875 1275.2125,543.8625 1234.375,626.25 C1231.8625,631.3125 1186.675,665.3 1147.625,694.0625 " fill="none" id="CreateTestController-to-TestTypeStore" style="stroke:#A80036;stroke-width:1.25;stroke-dasharray:7.0,7.0;"/><polygon fill="#A80036" points="1142.4125,697.9,1154.4402,695.2736,1147.4508,694.2017,1148.5228,687.2123,1142.4125,697.9" style="stroke:#A80036;stroke-width:1.25;"/><!--MD5=[e083977c19ee8e19ddb6ad147fb23aaf]
link CreateTestController to ParameterCategoryStore--><path codeLine="84" d="M437.925,258.9875 C356.55,274.775 262.9375,308.725 211.875,381.25 C164.5375,448.475 170.7375,495.05 211.875,566.25 C251.0375,634.0375 328.7875,677.1 394.4625,702.8375 " fill="none" id="CreateTestController-to-ParameterCategoryStore" style="stroke:#A80036;stroke-width:1.25;stroke-dasharray:7.0,7.0;"/><polygon fill="#A80036" points="400.3625,705.125,391.6626,696.4144,394.5305,702.8778,388.0671,705.7457,400.3625,705.125" style="stroke:#A80036;stroke-width:1.25;"/><!--MD5=[fe43dac58d043006188d9600aecef076]
link CreateTestController to ParameterCategoryMapper--><path codeLine="85" d="M686.0125,344.0125 C721.525,380.6375 759.9875,420.3 788.125,449.325 " fill="none" id="CreateTestController-to-ParameterCategoryMapper" style="stroke:#A80036;stroke-width:1.25;stroke-dasharray:7.0,7.0;"/><polygon fill="#A80036" points="792.55,453.8875,788.2935,442.3357,788.1935,449.406,781.1232,449.306,792.55,453.8875" style="stroke:#A80036;stroke-width:1.25;"/><!--MD5=[36b6a665c17e13d43600f7dd234dc26e]
link CreateTestController to ParameterMapper--><path codeLine="86" d="M590.625,344.0125 C590.625,379.875 590.625,418.675 590.625,447.5125 " fill="none" id="CreateTestController-to-ParameterMapper" style="stroke:#A80036;stroke-width:1.25;stroke-dasharray:7.0,7.0;"/><polygon fill="#A80036" points="590.625,453.8875,595.625,442.6375,590.625,447.6375,585.625,442.6375,590.625,453.8875" style="stroke:#A80036;stroke-width:1.25;"/><!--MD5=[e0b8a41bfc3d5c8029c654e548a9b285]
link CreateTestController to TestTypeMapper--><path codeLine="87" d="M509.7125,344.0125 C479.725,380.4875 447.25,419.975 423.4125,448.9625 " fill="none" id="CreateTestController-to-TestTypeMapper" style="stroke:#A80036;stroke-width:1.25;stroke-dasharray:7.0,7.0;"/><polygon fill="#A80036" points="419.3625,453.8875,430.3595,448.3533,423.3232,449.0527,422.6238,442.0163,419.3625,453.8875" style="stroke:#A80036;stroke-width:1.25;"/><!--MD5=[b0c17000e470839ffb7490991c4dbabf]
@startuml
top to bottom direction

class Test {
    +Test(tin,id,nhsCode,testType,date)
    +getTestParameterList()
    +testParameterCreator(idTest, paramList)
}

class Company {
    -chemicalLab
    +getTestTypeStore()
    +getParameterStore()
    +getParameterCategoryStore()
    +getClientStore()
}

class CreateTestUI {
}

class TestParameter {
    +TestParameter(idTest, paramList)
}

class CreateTestController {
    +findClient(tin)
    +nhsCodeVerification(String nhsCode)
    +getTestType()
    +getParameterCategory()
    +getDate()
    +getParameter()
    +createTest(tin,nhsCode,testType, paramList )
    +saveTest()
}

class TestTypeMapper {
    toDto(testTypes)
}

class ParameterMapper{
    toDto(parameters)
}

class ParameterCategoryMapper {
    toDto(categories)
}

class TestTypeStore{
    getTestTypeList()
}

class ParameterStore {
    +getParameterList()
}

class ParameterCategoryStore {
    +getPcList()
}

class ClientStore {
    -verifyExistingClient(citizenCardNumber)
}

class TestStore {
    +createTest(tin,id,nhsCode,testType,date)
    +verifyExistingNhsCode(nhsCode)
    -validateTest()
    -createId()
    -saveTest()
}

CreateTestUI ..> CreateTestController
CreateTestController ..> Company
Company"1" - -> "1"ParameterCategoryStore : adopts
Company"1" - -> "1"TestTypeStore : adopts
Company"1" - -> "1"ParameterStore :adopts
Company"1" - -> "1"ClientStore : adopts
Company"1" - -> "1"TestStore : adopts
TestStore"1" - -> "*"Test : stores
Test"1" - -> "*"TestParameter : requests analysis of
CreateTestController ..> ParameterStore
CreateTestController ..> TestStore
CreateTestController ..> ClientStore
CreateTestController ..> TestTypeStore
CreateTestController ..> ParameterCategoryStore
CreateTestController ..> ParameterCategoryMapper
CreateTestController ..> ParameterMapper
CreateTestController ..> TestTypeMapper
@enduml

PlantUML version 1.2021.2(Sun Mar 07 11:10:27 GMT 2021)
(GPL source distribution)
Java Runtime: OpenJDK Runtime Environment
JVM: OpenJDK 64-Bit Server VM
Default Encoding: Cp1252
Language: pt
Country: PT
--></g></svg>