<?xml version="1.0" encoding="UTF-8" standalone="no"?><svg xmlns="http://www.w3.org/2000/svg" xmlns:xlink="http://www.w3.org/1999/xlink" contentScriptType="application/ecmascript" contentStyleType="text/css" height="393px" preserveAspectRatio="none" style="width:437px;height:393px;" version="1.1" viewBox="0 0 437 393" width="437px" zoomAndPan="magnify"><defs><filter height="300%" id="fzlz9vodjndqq" width="300%" x="-1" y="-1"><feGaussianBlur result="blurOut" stdDeviation="2.0"/><feColorMatrix in="blurOut" result="blurOut2" type="matrix" values="0 0 0 0 0 0 0 0 0 0 0 0 0 0 0 0 0 0 .4 0"/><feOffset dx="4.0" dy="4.0" in="blurOut2" result="blurOut3"/><feBlend in="SourceGraphic" in2="blurOut3" mode="normal"/></filter></defs><g><rect fill="#FFFFFF" filter="url(#fzlz9vodjndqq)" height="190.4609" style="stroke:#A80036;stroke-width:1.0;" width="10" x="42" y="99.6094"/><rect fill="#FFFFFF" filter="url(#fzlz9vodjndqq)" height="46.7031" style="stroke:#A80036;stroke-width:1.0;" width="10" x="390" y="121.9609"/><rect fill="#FFFFFF" filter="url(#fzlz9vodjndqq)" height="30.3516" style="stroke:#A80036;stroke-width:1.0;" width="10" x="390" y="199.0156"/><rect fill="#FFFFFF" filter="url(#fzlz9vodjndqq)" height="30.3516" style="stroke:#A80036;stroke-width:1.0;" width="10" x="390" y="259.7188"/><line style="stroke:#A80036;stroke-width:1.0;stroke-dasharray:5.0,5.0;" x1="47" x2="47" y1="89.6094" y2="308.0703"/><line style="stroke:#A80036;stroke-width:1.0;stroke-dasharray:5.0,5.0;" x1="395" x2="395" y1="89.6094" y2="308.0703"/><text fill="#000000" font-family="sans-serif" font-size="14" lengthAdjust="spacing" textLength="78" x="5" y="86.5332">Receptionist</text><ellipse cx="47" cy="15" fill="#FEFECE" filter="url(#fzlz9vodjndqq)" rx="8" ry="8" style="stroke:#A80036;stroke-width:2.0;"/><path d="M47,23 L47,50 M34,31 L60,31 M47,50 L34,65 M47,50 L60,65 " fill="none" filter="url(#fzlz9vodjndqq)" style="stroke:#A80036;stroke-width:2.0;"/><text fill="#000000" font-family="sans-serif" font-size="14" lengthAdjust="spacing" textLength="78" x="5" y="321.6035">Receptionist</text><ellipse cx="47" cy="334.6797" fill="#FEFECE" filter="url(#fzlz9vodjndqq)" rx="8" ry="8" style="stroke:#A80036;stroke-width:2.0;"/><path d="M47,342.6797 L47,369.6797 M34,350.6797 L60,350.6797 M47,369.6797 L34,384.6797 M47,369.6797 L60,384.6797 " fill="none" filter="url(#fzlz9vodjndqq)" style="stroke:#A80036;stroke-width:2.0;"/><rect fill="#FEFECE" filter="url(#fzlz9vodjndqq)" height="49.2188" style="stroke:#A80036;stroke-width:1.5;" width="60" x="363" y="35.3906"/><text fill="#000000" font-family="sans-serif" font-size="14" lengthAdjust="spacing" textLength="4" x="391" y="56.9238">:</text><text fill="#000000" font-family="sans-serif" font-size="14" lengthAdjust="spacing" textLength="46" x="370" y="74.5332">System</text><rect fill="#FEFECE" filter="url(#fzlz9vodjndqq)" height="49.2188" style="stroke:#A80036;stroke-width:1.5;" width="60" x="363" y="307.0703"/><text fill="#000000" font-family="sans-serif" font-size="14" lengthAdjust="spacing" textLength="4" x="391" y="328.6035">:</text><text fill="#000000" font-family="sans-serif" font-size="14" lengthAdjust="spacing" textLength="46" x="370" y="346.2129">System</text><rect fill="#FFFFFF" filter="url(#fzlz9vodjndqq)" height="190.4609" style="stroke:#A80036;stroke-width:1.0;" width="10" x="42" y="99.6094"/><rect fill="#FFFFFF" filter="url(#fzlz9vodjndqq)" height="46.7031" style="stroke:#A80036;stroke-width:1.0;" width="10" x="390" y="121.9609"/><rect fill="#FFFFFF" filter="url(#fzlz9vodjndqq)" height="30.3516" style="stroke:#A80036;stroke-width:1.0;" width="10" x="390" y="199.0156"/><rect fill="#FFFFFF" filter="url(#fzlz9vodjndqq)" height="30.3516" style="stroke:#A80036;stroke-width:1.0;" width="10" x="390" y="259.7188"/><polygon fill="#A80036" points="378,117.9609,388,121.9609,378,125.9609,382,121.9609" style="stroke:#A80036;stroke-width:1.0;"/><line style="stroke:#A80036;stroke-width:1.0;" x1="52" x2="384" y1="121.9609" y2="121.9609"/><text fill="#000000" font-family="sans-serif" font-size="13" font-weight="bold" lengthAdjust="spacing" textLength="7" x="59" y="117.1045">1</text><text fill="#000000" font-family="sans-serif" font-size="13" lengthAdjust="spacing" textLength="170" x="70" y="117.1045">starts registering a new client</text><polygon fill="#A80036" points="63,164.6641,53,168.6641,63,172.6641,59,168.6641" style="stroke:#A80036;stroke-width:1.0;"/><line style="stroke:#A80036;stroke-width:1.0;stroke-dasharray:2.0,2.0;" x1="57" x2="394" y1="168.6641" y2="168.6641"/><text fill="#000000" font-family="sans-serif" font-size="13" font-weight="bold" lengthAdjust="spacing" textLength="7" x="69" y="155.6318">2</text><text fill="#000000" font-family="sans-serif" font-size="13" lengthAdjust="spacing" textLength="299" x="80" y="147.4561">requests some data (i.e. citizenCardNumber, name,</text><text fill="#000000" font-family="sans-serif" font-size="13" lengthAdjust="spacing" textLength="263" x="80" y="163.8076">birthDate, sex, nhsNumber, tin, phone, email)</text><polygon fill="#A80036" points="378,195.0156,388,199.0156,378,203.0156,382,199.0156" style="stroke:#A80036;stroke-width:1.0;"/><line style="stroke:#A80036;stroke-width:1.0;" x1="52" x2="384" y1="199.0156" y2="199.0156"/><text fill="#000000" font-family="sans-serif" font-size="13" font-weight="bold" lengthAdjust="spacing" textLength="7" x="59" y="194.1592">3</text><text fill="#000000" font-family="sans-serif" font-size="13" lengthAdjust="spacing" textLength="122" x="70" y="194.1592">types requested data</text><polygon fill="#A80036" points="63,225.3672,53,229.3672,63,233.3672,59,229.3672" style="stroke:#A80036;stroke-width:1.0;"/><line style="stroke:#A80036;stroke-width:1.0;stroke-dasharray:2.0,2.0;" x1="57" x2="394" y1="229.3672" y2="229.3672"/><text fill="#000000" font-family="sans-serif" font-size="13" font-weight="bold" lengthAdjust="spacing" textLength="7" x="69" y="224.5107">4</text><text fill="#000000" font-family="sans-serif" font-size="13" lengthAdjust="spacing" textLength="252" x="80" y="224.5107">shows the data and requests a confirmation</text><polygon fill="#A80036" points="378,255.7188,388,259.7188,378,263.7188,382,259.7188" style="stroke:#A80036;stroke-width:1.0;"/><line style="stroke:#A80036;stroke-width:1.0;" x1="52" x2="384" y1="259.7188" y2="259.7188"/><text fill="#000000" font-family="sans-serif" font-size="13" font-weight="bold" lengthAdjust="spacing" textLength="7" x="59" y="254.8623">5</text><text fill="#000000" font-family="sans-serif" font-size="13" lengthAdjust="spacing" textLength="100" x="70" y="254.8623">confirms the data</text><polygon fill="#A80036" points="58,286.0703,48,290.0703,58,294.0703,54,290.0703" style="stroke:#A80036;stroke-width:1.0;"/><line style="stroke:#A80036;stroke-width:1.0;stroke-dasharray:2.0,2.0;" x1="52" x2="394" y1="290.0703" y2="290.0703"/><text fill="#000000" font-family="sans-serif" font-size="13" font-weight="bold" lengthAdjust="spacing" textLength="7" x="64" y="285.2139">6</text><text fill="#000000" font-family="sans-serif" font-size="13" lengthAdjust="spacing" textLength="152" x="75" y="285.2139">informs operation success</text><!--MD5=[b8911f73600f094fbdc1dc172ccd9184]
@startuml
autonumber
actor "Receptionist" as RCT

participant ":\nSystem" as SYST

activate RCT
RCT -> SYST : starts registering a new client
activate SYST
SYST - -> RCT : requests some data (i.e. citizenCardNumber, name, \nbirthDate, sex, nhsNumber, tin, phone, email)
deactivate SYST

RCT -> SYST : types requested data
activate SYST
SYST - -> RCT : shows the data and requests a confirmation
deactivate SYST

RCT -> SYST : confirms the data
activate SYST
SYST - -> RCT : informs operation success
deactivate SYST

deactivate RCT

@enduml

PlantUML version 1.2021.5(Sun Apr 25 12:20:28 BST 2021)
(GPL source distribution)
Java Runtime: OpenJDK Runtime Environment
JVM: Dynamic Code Evolution 64-Bit Server VM
Default Encoding: Cp1252
Language: pt
Country: PT
--></g></svg>