<?xml version="1.0" encoding="UTF-8" standalone="no"?><svg xmlns="http://www.w3.org/2000/svg" xmlns:xlink="http://www.w3.org/1999/xlink" contentScriptType="application/ecmascript" contentStyleType="text/css" height="171px" preserveAspectRatio="none" style="width:718px;height:171px;" version="1.1" viewBox="0 0 718 171" width="718px" zoomAndPan="magnify"><defs><filter height="300%" id="f1nm1dl2k6mk5m" width="300%" x="-1" y="-1"><feGaussianBlur result="blurOut" stdDeviation="2.0"/><feColorMatrix in="blurOut" result="blurOut2" type="matrix" values="0 0 0 0 0 0 0 0 0 0 0 0 0 0 0 0 0 0 .4 0"/><feOffset dx="4.0" dy="4.0" in="blurOut2" result="blurOut3"/><feBlend in="SourceGraphic" in2="blurOut3" mode="normal"/></filter></defs><g><!--MD5=[02e4b9b7573f1156f41e60aa5b4e25a4]
class Company--><rect codeLine="7" fill="#FEFECE" filter="url(#f1nm1dl2k6mk5m)" height="53.8359" id="Company" style="stroke:#A80036;stroke-width:1.5;" width="85" x="7" y="55.5"/><ellipse cx="22" cy="71.5" fill="#ADD1B2" rx="11" ry="11" style="stroke:#A80036;stroke-width:1.0;"/><path d="M24,68 Q24.2031,67.5 24.4375,67.25 Q24.6719,67 24.9375,67 Q25.4063,67 25.7031,67.2813 Q26,67.5625 26,68.2188 L26,69.7813 Q26,70.4375 25.7188,70.7188 Q25.4375,71 25,71 Q24.6094,71 24.3594,70.8281 Q24.1094,70.6563 24,70.2031 Q23.9531,69.8906 23.7813,69.7188 Q23.4688,69.3906 22.9063,69.2031 Q22.3438,69 21.7813,69 Q21.0781,69 20.4844,69.2813 Q19.9063,69.5625 19.4531,70.1875 Q19,70.8125 19,71.6719 L19,72.5938 Q19,73.625 19.8438,74.3125 Q20.6875,75 22.1875,75 Q23.0781,75 23.7031,74.7969 Q24.0625,74.6875 24.4688,74.3281 Q24.7344,74.125 24.875,74.0625 Q25.0156,74 25.1875,74 Q25.5156,74 25.75,74.2656 Q26,74.5156 26,74.875 Q26,75.2188 25.6563,75.625 Q25.1563,76.2188 24.3594,76.5469 Q23.3125,77 22.0313,77 Q20.5313,77 19.3281,76.4063 Q18.3594,75.9375 17.6719,74.9219 Q17,73.9063 17,72.7031 L17,71.6094 Q17,70.3594 17.5938,69.2656 Q18.2031,68.1719 19.25,67.5938 Q20.3125,67 21.5,67 Q22.2188,67 22.8438,67.25 Q23.4688,67.5 24,68 Z " fill="#000000"/><text fill="#000000" font-family="sans-serif" font-size="12" lengthAdjust="spacing" textLength="53" x="36" y="76.4102">Company</text><line style="stroke:#A80036;stroke-width:1.5;" x1="8" x2="91" y1="87.5" y2="87.5"/><text fill="#000000" font-family="sans-serif" font-size="11" lengthAdjust="spacing" textLength="59" x="13" y="102.9189">-designation</text><!--MD5=[ed6624c6556d5e7b1bd23032162d20b7]
class Client--><rect codeLine="11" fill="#FEFECE" filter="url(#f1nm1dl2k6mk5m)" height="150.6875" id="Client" style="stroke:#A80036;stroke-width:1.5;" width="122" x="178.5" y="7"/><ellipse cx="219.6" cy="23" fill="#ADD1B2" rx="11" ry="11" style="stroke:#A80036;stroke-width:1.0;"/><path d="M221.6,19.5 Q221.8031,19 222.0375,18.75 Q222.2719,18.5 222.5375,18.5 Q223.0063,18.5 223.3031,18.7813 Q223.6,19.0625 223.6,19.7188 L223.6,21.2813 Q223.6,21.9375 223.3188,22.2188 Q223.0375,22.5 222.6,22.5 Q222.2094,22.5 221.9594,22.3281 Q221.7094,22.1563 221.6,21.7031 Q221.5531,21.3906 221.3813,21.2188 Q221.0688,20.8906 220.5063,20.7031 Q219.9438,20.5 219.3813,20.5 Q218.6781,20.5 218.0844,20.7813 Q217.5063,21.0625 217.0531,21.6875 Q216.6,22.3125 216.6,23.1719 L216.6,24.0938 Q216.6,25.125 217.4438,25.8125 Q218.2875,26.5 219.7875,26.5 Q220.6781,26.5 221.3031,26.2969 Q221.6625,26.1875 222.0688,25.8281 Q222.3344,25.625 222.475,25.5625 Q222.6156,25.5 222.7875,25.5 Q223.1156,25.5 223.35,25.7656 Q223.6,26.0156 223.6,26.375 Q223.6,26.7188 223.2563,27.125 Q222.7563,27.7188 221.9594,28.0469 Q220.9125,28.5 219.6313,28.5 Q218.1313,28.5 216.9281,27.9063 Q215.9594,27.4375 215.2719,26.4219 Q214.6,25.4063 214.6,24.2031 L214.6,23.1094 Q214.6,21.8594 215.1938,20.7656 Q215.8031,19.6719 216.85,19.0938 Q217.9125,18.5 219.1,18.5 Q219.8188,18.5 220.4438,18.75 Q221.0688,19 221.6,19.5 Z " fill="#000000"/><text fill="#000000" font-family="sans-serif" font-size="12" lengthAdjust="spacing" textLength="32" x="239.4" y="27.9102">Client</text><line style="stroke:#A80036;stroke-width:1.5;" x1="179.5" x2="299.5" y1="39" y2="39"/><text fill="#000000" font-family="sans-serif" font-size="11" lengthAdjust="spacing" textLength="95" x="184.5" y="54.4189">-citizenCardNumber</text><text fill="#000000" font-family="sans-serif" font-size="11" lengthAdjust="spacing" textLength="30" x="184.5" y="68.2549">-name</text><text fill="#000000" font-family="sans-serif" font-size="11" lengthAdjust="spacing" textLength="59" x="184.5" y="82.0908">-nhsNumber</text><text fill="#000000" font-family="sans-serif" font-size="11" lengthAdjust="spacing" textLength="47" x="184.5" y="95.9268">-birthDate</text><text fill="#000000" font-family="sans-serif" font-size="11" lengthAdjust="spacing" textLength="22" x="184.5" y="109.7627">-sex</text><text fill="#000000" font-family="sans-serif" font-size="11" lengthAdjust="spacing" textLength="110" x="184.5" y="123.5986">-taxIdenticationNumber</text><text fill="#000000" font-family="sans-serif" font-size="11" lengthAdjust="spacing" textLength="71" x="184.5" y="137.4346">-phoneNumber</text><text fill="#000000" font-family="sans-serif" font-size="11" lengthAdjust="spacing" textLength="70" x="184.5" y="151.2705">-emailAddress</text><!--MD5=[3fd616f346a44cd59a91eb10b19e157c]
class User--><rect codeLine="22" fill="#FEFECE" filter="url(#f1nm1dl2k6mk5m)" height="81.5078" id="User" style="stroke:#A80036;stroke-width:1.5;" width="66" x="390.5" y="41.5"/><ellipse cx="408.65" cy="57.5" fill="#ADD1B2" rx="11" ry="11" style="stroke:#A80036;stroke-width:1.0;"/><path d="M410.65,54 Q410.8531,53.5 411.0875,53.25 Q411.3219,53 411.5875,53 Q412.0563,53 412.3531,53.2813 Q412.65,53.5625 412.65,54.2188 L412.65,55.7813 Q412.65,56.4375 412.3688,56.7188 Q412.0875,57 411.65,57 Q411.2594,57 411.0094,56.8281 Q410.7594,56.6563 410.65,56.2031 Q410.6031,55.8906 410.4313,55.7188 Q410.1188,55.3906 409.5563,55.2031 Q408.9938,55 408.4313,55 Q407.7281,55 407.1344,55.2813 Q406.5563,55.5625 406.1031,56.1875 Q405.65,56.8125 405.65,57.6719 L405.65,58.5938 Q405.65,59.625 406.4938,60.3125 Q407.3375,61 408.8375,61 Q409.7281,61 410.3531,60.7969 Q410.7125,60.6875 411.1188,60.3281 Q411.3844,60.125 411.525,60.0625 Q411.6656,60 411.8375,60 Q412.1656,60 412.4,60.2656 Q412.65,60.5156 412.65,60.875 Q412.65,61.2188 412.3063,61.625 Q411.8063,62.2188 411.0094,62.5469 Q409.9625,63 408.6813,63 Q407.1813,63 405.9781,62.4063 Q405.0094,61.9375 404.3219,60.9219 Q403.65,59.9063 403.65,58.7031 L403.65,57.6094 Q403.65,56.3594 404.2438,55.2656 Q404.8531,54.1719 405.9,53.5938 Q406.9625,53 408.15,53 Q408.8688,53 409.4938,53.25 Q410.1188,53.5 410.65,54 Z " fill="#000000"/><text fill="#000000" font-family="sans-serif" font-size="12" lengthAdjust="spacing" textLength="27" x="423.35" y="62.4102">User</text><line style="stroke:#A80036;stroke-width:1.5;" x1="391.5" x2="455.5" y1="73.5" y2="73.5"/><text fill="#000000" font-family="sans-serif" font-size="11" lengthAdjust="spacing" textLength="30" x="396.5" y="88.9189">-name</text><text fill="#000000" font-family="sans-serif" font-size="11" lengthAdjust="spacing" textLength="28" x="396.5" y="102.7549">-email</text><text fill="#000000" font-family="sans-serif" font-size="11" lengthAdjust="spacing" textLength="54" x="396.5" y="116.5908">-password</text><path d="M491.5,69.5 L491.5,78.5 L456.69,82.5 L491.5,86.5 L491.5,95.8516 A0,0 0 0 0 491.5,95.8516 L709.5,95.8516 A0,0 0 0 0 709.5,95.8516 L709.5,79.5 L699.5,69.5 L491.5,69.5 A0,0 0 0 0 491.5,69.5 " fill="#FBFB77" filter="url(#f1nm1dl2k6mk5m)" style="stroke:#A80036;stroke-width:1.0;"/><path d="M699.5,69.5 L699.5,79.5 L709.5,79.5 L699.5,69.5 " fill="#FBFB77" style="stroke:#A80036;stroke-width:1.0;"/><text fill="#000000" font-family="sans-serif" font-size="13" lengthAdjust="spacing" textLength="197" x="497.5" y="87.9951">"Concept of the 'Auth' component"</text><!--MD5=[6eee883fdf517d3604e8bd0f2058e9aa]
link Company to Client--><path codeLine="29" d="M92.14,82.5 C117.52,82.5 150.16,82.5 178.26,82.5 " fill="none" id="Company-Client" style="stroke:#A80036;stroke-width:1.0;"/><polygon fill="#000000" points="119.25,70.6758,110.2049,67.7369,110.2049,73.6147,119.25,70.6758" style="stroke:#000000;stroke-width:1.0;"/><text fill="#000000" font-family="sans-serif" font-size="13" lengthAdjust="spacing" textLength="37" x="123.25" y="75.9951">knows</text><text fill="#000000" font-family="sans-serif" font-size="13" lengthAdjust="spacing" textLength="7" x="100.0703" y="78.6644">1</text><text fill="#000000" font-family="sans-serif" font-size="13" lengthAdjust="spacing" textLength="5" x="165.4917" y="79.0606">*</text><!--MD5=[9a8dc34b38f85b9f3fcdb440f4bffc6a]
link Client to User--><path codeLine="31" d="M300.51,82.5 C330.43,82.5 365.3,82.5 390.25,82.5 " fill="none" id="Client-User" style="stroke:#A80036;stroke-width:1.0;"/><text fill="#000000" font-family="sans-serif" font-size="13" lengthAdjust="spacing" textLength="53" x="319" y="75.9951">becomes</text><text fill="#000000" font-family="sans-serif" font-size="13" lengthAdjust="spacing" textLength="22" x="308.3861" y="96.9064">0..1</text><text fill="#000000" font-family="sans-serif" font-size="13" lengthAdjust="spacing" textLength="7" x="375.6703" y="78.4321">1</text><!--MD5=[caa6a6342878eec2ce1d7d52cfbcb012]
@startuml
skinparam classAttributeIconSize 0
hide methods
'left to right direction

'title "US 3 - Domain Model Excerpt"

class Company {
-designation
}

class Client {
-citizenCardNumber
-name
-nhsNumber
-birthDate
-sex
-taxIdenticationNumber
-phoneNumber
-emailAddress
}

class User {
-name
-email
-password
}
note right: "Concept of the 'Auth' component"

Company "1" -right- "*" Client: knows >

Client "0..1" -right- "1" User: becomes


@enduml

@startuml
skinparam classAttributeIconSize 0
hide methods


class Company {
-designation
}

class Client {
-citizenCardNumber
-name
-nhsNumber
-birthDate
-sex
-taxIdenticationNumber
-phoneNumber
-emailAddress
}

class User {
-name
-email
-password
}
note right: "Concept of the 'Auth' component"

Company "1" -right- "*" Client: knows >

Client "0..1" -right- "1" User: becomes


@enduml

PlantUML version 1.2021.5(Sun Apr 25 12:20:28 BST 2021)
(GPL source distribution)
Java Runtime: OpenJDK Runtime Environment
JVM: Dynamic Code Evolution 64-Bit Server VM
Default Encoding: Cp1252
Language: pt
Country: PT
--></g></svg>