<?xml version="1.0" encoding="UTF-8" standalone="no"?><svg xmlns="http://www.w3.org/2000/svg" xmlns:xlink="http://www.w3.org/1999/xlink" contentScriptType="application/ecmascript" contentStyleType="text/css" height="535px" preserveAspectRatio="none" style="width:763px;height:535px;" version="1.1" viewBox="0 0 763 535" width="763px" zoomAndPan="magnify"><defs><filter height="300%" id="f193rclt21f172" width="300%" x="-1" y="-1"><feGaussianBlur result="blurOut" stdDeviation="2.0"/><feColorMatrix in="blurOut" result="blurOut2" type="matrix" values="0 0 0 0 0 0 0 0 0 0 0 0 0 0 0 0 0 0 .4 0"/><feOffset dx="4.0" dy="4.0" in="blurOut2" result="blurOut3"/><feBlend in="SourceGraphic" in2="blurOut3" mode="normal"/></filter></defs><g><rect fill="#FFFFFF" filter="url(#f193rclt21f172)" height="339.8672" style="stroke:#A80036;stroke-width:1.0;" width="10" x="136.5" y="99.6094"/><rect fill="#FFFFFF" filter="url(#f193rclt21f172)" height="30.3516" style="stroke:#A80036;stroke-width:1.0;" width="10" x="680.5" y="121.9609"/><rect fill="#FFFFFF" filter="url(#f193rclt21f172)" height="30.3516" style="stroke:#A80036;stroke-width:1.0;" width="10" x="680.5" y="208.0156"/><rect fill="#FFFFFF" filter="url(#f193rclt21f172)" height="55.7031" style="stroke:#A80036;stroke-width:1.0;" width="10" x="680.5" y="294.0703"/><rect fill="#FFFFFF" filter="url(#f193rclt21f172)" height="30.3516" style="stroke:#A80036;stroke-width:1.0;" width="10" x="680.5" y="380.125"/><rect fill="#FFFFFF" filter="url(#f193rclt21f172)" height="265.1641" style="stroke:#000000;stroke-width:2.0;" width="739.5" x="10" y="167.3125"/><rect fill="#FFFFFF" filter="url(#f193rclt21f172)" height="172.1094" style="stroke:#000000;stroke-width:2.0;" width="719.5" x="20" y="253.3672"/><rect fill="#FFFFFF" filter="url(#f193rclt21f172)" height="109.4063" style="stroke:#000000;stroke-width:2.0;" width="699.5" x="30" y="309.0703"/><line style="stroke:#A80036;stroke-width:1.0;stroke-dasharray:5.0,5.0;" x1="141" x2="141" y1="89.6094" y2="449.4766"/><line style="stroke:#A80036;stroke-width:1.0;stroke-dasharray:5.0,5.0;" x1="685.5" x2="685.5" y1="89.6094" y2="449.4766"/><text fill="#000000" font-family="sans-serif" font-size="14" lengthAdjust="spacing" textLength="197" x="40" y="86.5332">Clinical Chemistry Technologist</text><ellipse cx="141.5" cy="15" fill="#FEFECE" filter="url(#f193rclt21f172)" rx="8" ry="8" style="stroke:#A80036;stroke-width:2.0;"/><path d="M141.5,23 L141.5,50 M128.5,31 L154.5,31 M141.5,50 L128.5,65 M141.5,50 L154.5,65 " fill="none" filter="url(#f193rclt21f172)" style="stroke:#A80036;stroke-width:2.0;"/><text fill="#000000" font-family="sans-serif" font-size="14" lengthAdjust="spacing" textLength="197" x="40" y="463.0098">Clinical Chemistry Technologist</text><ellipse cx="141.5" cy="476.0859" fill="#FEFECE" filter="url(#f193rclt21f172)" rx="8" ry="8" style="stroke:#A80036;stroke-width:2.0;"/><path d="M141.5,484.0859 L141.5,511.0859 M128.5,492.0859 L154.5,492.0859 M141.5,511.0859 L128.5,526.0859 M141.5,511.0859 L154.5,526.0859 " fill="none" filter="url(#f193rclt21f172)" style="stroke:#A80036;stroke-width:2.0;"/><rect fill="#FEFECE" filter="url(#f193rclt21f172)" height="31.6094" style="stroke:#A80036;stroke-width:1.5;" width="64" x="651.5" y="53"/><text fill="#000000" font-family="sans-serif" font-size="14" lengthAdjust="spacing" textLength="50" x="658.5" y="74.5332">:System</text><rect fill="#FEFECE" filter="url(#f193rclt21f172)" height="31.6094" style="stroke:#A80036;stroke-width:1.5;" width="64" x="651.5" y="448.4766"/><text fill="#000000" font-family="sans-serif" font-size="14" lengthAdjust="spacing" textLength="50" x="658.5" y="470.0098">:System</text><rect fill="#FFFFFF" filter="url(#f193rclt21f172)" height="339.8672" style="stroke:#A80036;stroke-width:1.0;" width="10" x="136.5" y="99.6094"/><rect fill="#FFFFFF" filter="url(#f193rclt21f172)" height="30.3516" style="stroke:#A80036;stroke-width:1.0;" width="10" x="680.5" y="121.9609"/><rect fill="#FFFFFF" filter="url(#f193rclt21f172)" height="30.3516" style="stroke:#A80036;stroke-width:1.0;" width="10" x="680.5" y="208.0156"/><rect fill="#FFFFFF" filter="url(#f193rclt21f172)" height="55.7031" style="stroke:#A80036;stroke-width:1.0;" width="10" x="680.5" y="294.0703"/><rect fill="#FFFFFF" filter="url(#f193rclt21f172)" height="30.3516" style="stroke:#A80036;stroke-width:1.0;" width="10" x="680.5" y="380.125"/><polygon fill="#A80036" points="668.5,117.9609,678.5,121.9609,668.5,125.9609,672.5,121.9609" style="stroke:#A80036;stroke-width:1.0;"/><line style="stroke:#A80036;stroke-width:1.0;" x1="146.5" x2="674.5" y1="121.9609" y2="121.9609"/><text fill="#000000" font-family="sans-serif" font-size="13" font-weight="bold" lengthAdjust="spacing" textLength="7" x="153.5" y="117.1045">1</text><text fill="#000000" font-family="sans-serif" font-size="13" lengthAdjust="spacing" textLength="261" x="164.5" y="117.1045">requests to see the historical tests of a client</text><polygon fill="#A80036" points="157.5,148.3125,147.5,152.3125,157.5,156.3125,153.5,152.3125" style="stroke:#A80036;stroke-width:1.0;"/><line style="stroke:#A80036;stroke-width:1.0;stroke-dasharray:2.0,2.0;" x1="151.5" x2="684.5" y1="152.3125" y2="152.3125"/><text fill="#000000" font-family="sans-serif" font-size="13" font-weight="bold" lengthAdjust="spacing" textLength="7" x="163.5" y="147.4561">2</text><text fill="#000000" font-family="sans-serif" font-size="13" lengthAdjust="spacing" textLength="320" x="174.5" y="147.4561">asks to choose the order of the client list (TIN or Name)</text><path d="M10,167.3125 L83,167.3125 L83,175.3125 L73,185.3125 L10,185.3125 L10,167.3125 " fill="#EEEEEE" style="stroke:#000000;stroke-width:1.0;"/><rect fill="none" height="265.1641" style="stroke:#000000;stroke-width:2.0;" width="739.5" x="10" y="167.3125"/><text fill="#000000" font-family="sans-serif" font-size="13" font-weight="bold" lengthAdjust="spacing" textLength="28" x="25" y="181.8076">loop</text><text fill="#000000" font-family="sans-serif" font-size="11" font-weight="bold" lengthAdjust="spacing" textLength="173" x="98" y="180.7314">[until the actor decides to stop]</text><polygon fill="#A80036" points="668.5,204.0156,678.5,208.0156,668.5,212.0156,672.5,208.0156" style="stroke:#A80036;stroke-width:1.0;"/><line style="stroke:#A80036;stroke-width:1.0;" x1="146.5" x2="674.5" y1="208.0156" y2="208.0156"/><text fill="#000000" font-family="sans-serif" font-size="13" font-weight="bold" lengthAdjust="spacing" textLength="7" x="153.5" y="203.1592">3</text><text fill="#000000" font-family="sans-serif" font-size="13" lengthAdjust="spacing" textLength="104" x="164.5" y="203.1592">chooses the order</text><polygon fill="#A80036" points="157.5,234.3672,147.5,238.3672,157.5,242.3672,153.5,238.3672" style="stroke:#A80036;stroke-width:1.0;"/><line style="stroke:#A80036;stroke-width:1.0;stroke-dasharray:2.0,2.0;" x1="151.5" x2="684.5" y1="238.3672" y2="238.3672"/><text fill="#000000" font-family="sans-serif" font-size="13" font-weight="bold" lengthAdjust="spacing" textLength="7" x="163.5" y="233.5107">4</text><text fill="#000000" font-family="sans-serif" font-size="13" lengthAdjust="spacing" textLength="258" x="174.5" y="233.5107">shows the clients list and asks to select one</text><path d="M20,253.3672 L93,253.3672 L93,261.3672 L83,271.3672 L20,271.3672 L20,253.3672 " fill="#EEEEEE" style="stroke:#000000;stroke-width:1.0;"/><rect fill="none" height="172.1094" style="stroke:#000000;stroke-width:2.0;" width="719.5" x="20" y="253.3672"/><text fill="#000000" font-family="sans-serif" font-size="13" font-weight="bold" lengthAdjust="spacing" textLength="28" x="35" y="267.8623">loop</text><text fill="#000000" font-family="sans-serif" font-size="11" font-weight="bold" lengthAdjust="spacing" textLength="348" x="108" y="266.7861">[until the actor changes the order of the list or decides to stop]</text><polygon fill="#A80036" points="668.5,290.0703,678.5,294.0703,668.5,298.0703,672.5,294.0703" style="stroke:#A80036;stroke-width:1.0;"/><line style="stroke:#A80036;stroke-width:1.0;" x1="146.5" x2="674.5" y1="294.0703" y2="294.0703"/><text fill="#000000" font-family="sans-serif" font-size="13" font-weight="bold" lengthAdjust="spacing" textLength="7" x="153.5" y="289.2139">5</text><text fill="#000000" font-family="sans-serif" font-size="13" lengthAdjust="spacing" textLength="95" x="164.5" y="289.2139">chooses a client</text><path d="M30,309.0703 L103,309.0703 L103,317.0703 L93,327.0703 L30,327.0703 L30,309.0703 " fill="#EEEEEE" style="stroke:#000000;stroke-width:1.0;"/><rect fill="none" height="109.4063" style="stroke:#000000;stroke-width:2.0;" width="699.5" x="30" y="309.0703"/><text fill="#000000" font-family="sans-serif" font-size="13" font-weight="bold" lengthAdjust="spacing" textLength="28" x="45" y="323.5654">loop</text><text fill="#000000" font-family="sans-serif" font-size="11" font-weight="bold" lengthAdjust="spacing" textLength="271" x="118" y="322.4893">[until the actor changes client or decides to stop]</text><polygon fill="#A80036" points="157.5,345.7734,147.5,349.7734,157.5,353.7734,153.5,349.7734" style="stroke:#A80036;stroke-width:1.0;"/><line style="stroke:#A80036;stroke-width:1.0;stroke-dasharray:2.0,2.0;" x1="151.5" x2="684.5" y1="349.7734" y2="349.7734"/><text fill="#000000" font-family="sans-serif" font-size="13" font-weight="bold" lengthAdjust="spacing" textLength="7" x="163.5" y="344.917">6</text><text fill="#000000" font-family="sans-serif" font-size="13" lengthAdjust="spacing" textLength="499" x="174.5" y="344.917">shows the test list from that client with the "VALIDATED" state and asks to select one</text><polygon fill="#A80036" points="668.5,376.125,678.5,380.125,668.5,384.125,672.5,380.125" style="stroke:#A80036;stroke-width:1.0;"/><line style="stroke:#A80036;stroke-width:1.0;" x1="146.5" x2="674.5" y1="380.125" y2="380.125"/><text fill="#000000" font-family="sans-serif" font-size="13" font-weight="bold" lengthAdjust="spacing" textLength="7" x="153.5" y="375.2686">7</text><text fill="#000000" font-family="sans-serif" font-size="13" lengthAdjust="spacing" textLength="86" x="164.5" y="375.2686">chooses a test</text><polygon fill="#A80036" points="157.5,406.4766,147.5,410.4766,157.5,414.4766,153.5,410.4766" style="stroke:#A80036;stroke-width:1.0;"/><line style="stroke:#A80036;stroke-width:1.0;stroke-dasharray:2.0,2.0;" x1="151.5" x2="684.5" y1="410.4766" y2="410.4766"/><text fill="#000000" font-family="sans-serif" font-size="13" font-weight="bold" lengthAdjust="spacing" textLength="7" x="163.5" y="405.6201">8</text><text fill="#000000" font-family="sans-serif" font-size="13" lengthAdjust="spacing" textLength="229" x="174.5" y="405.6201">shows the test's information and results</text><!--MD5=[7e860d665d1e0b52edbb8b0852dae02d]
@startuml
autonumber
actor "Clinical Chemistry Technologist" as LC

activate LC


LC -> ":System" : requests to see the historical tests of a client
activate ":System"

":System" - -> LC : asks to choose the order of the client list (TIN or Name)
deactivate ":System"

loop until the actor decides to stop
LC -> ":System" : chooses the order
activate ":System"

":System" - -> LC : shows the clients list and asks to select one
deactivate ":System"

loop until the actor changes the order of the list or decides to stop
LC -> ":System" : chooses a client
activate ":System"

loop until the actor changes client or decides to stop
    ":System" - -> LC : shows the test list from that client with the "VALIDATED" state and asks to select one
    deactivate ":System"

    LC -> ":System" : chooses a test
    activate ":System"
    ":System" - -> LC : shows the test's information and results
    deactivate ":System"
end loop
end loop
end loop
deactivate LC
@enduml

PlantUML version 1.2021.2(Sun Mar 07 11:10:27 GMT 2021)
(GPL source distribution)
Java Runtime: OpenJDK Runtime Environment
JVM: OpenJDK 64-Bit Server VM
Default Encoding: Cp1252
Language: pt
Country: PT
--></g></svg>