<?xml version="1.0" encoding="UTF-8" standalone="no"?><svg xmlns="http://www.w3.org/2000/svg" xmlns:xlink="http://www.w3.org/1999/xlink" contentScriptType="application/ecmascript" contentStyleType="text/css" height="237px" preserveAspectRatio="none" style="width:1497px;height:237px;" version="1.1" viewBox="0 0 1497 237" width="1497px" zoomAndPan="magnify"><defs><filter height="300%" id="f1rh3j9lwwd9kd" width="300%" x="-1" y="-1"><feGaussianBlur result="blurOut" stdDeviation="2.0"/><feColorMatrix in="blurOut" result="blurOut2" type="matrix" values="0 0 0 0 0 0 0 0 0 0 0 0 0 0 0 0 0 0 .4 0"/><feOffset dx="4.0" dy="4.0" in="blurOut2" result="blurOut3"/><feBlend in="SourceGraphic" in2="blurOut3" mode="normal"/></filter></defs><g><!--MD5=[02e4b9b7573f1156f41e60aa5b4e25a4]
class Company--><rect codeLine="5" fill="#FEFECE" filter="url(#f1rh3j9lwwd9kd)" height="53.8359" id="Company" style="stroke:#A80036;stroke-width:1.5;" width="85" x="7" y="59.5"/><ellipse cx="22" cy="75.5" fill="#ADD1B2" rx="11" ry="11" style="stroke:#A80036;stroke-width:1.0;"/><path d="M24,72 Q24.2031,71.5 24.4375,71.25 Q24.6719,71 24.9375,71 Q25.4063,71 25.7031,71.2813 Q26,71.5625 26,72.2188 L26,73.7813 Q26,74.4375 25.7188,74.7188 Q25.4375,75 25,75 Q24.6094,75 24.3594,74.8281 Q24.1094,74.6563 24,74.2031 Q23.9531,73.8906 23.7813,73.7188 Q23.4688,73.3906 22.9063,73.2031 Q22.3438,73 21.7813,73 Q21.0781,73 20.4844,73.2813 Q19.9063,73.5625 19.4531,74.1875 Q19,74.8125 19,75.6719 L19,76.5938 Q19,77.625 19.8438,78.3125 Q20.6875,79 22.1875,79 Q23.0781,79 23.7031,78.7969 Q24.0625,78.6875 24.4688,78.3281 Q24.7344,78.125 24.875,78.0625 Q25.0156,78 25.1875,78 Q25.5156,78 25.75,78.2656 Q26,78.5156 26,78.875 Q26,79.2188 25.6563,79.625 Q25.1563,80.2188 24.3594,80.5469 Q23.3125,81 22.0313,81 Q20.5313,81 19.3281,80.4063 Q18.3594,79.9375 17.6719,78.9219 Q17,77.9063 17,76.7031 L17,75.6094 Q17,74.3594 17.5938,73.2656 Q18.2031,72.1719 19.25,71.5938 Q20.3125,71 21.5,71 Q22.2188,71 22.8438,71.25 Q23.4688,71.5 24,72 Z " fill="#000000"/><text fill="#000000" font-family="sans-serif" font-size="12" lengthAdjust="spacing" textLength="53" x="36" y="80.4102">Company</text><line style="stroke:#A80036;stroke-width:1.5;" x1="8" x2="91" y1="91.5" y2="91.5"/><text fill="#000000" font-family="sans-serif" font-size="11" lengthAdjust="spacing" textLength="64" x="13" y="106.9189">-chemicalLab</text><!--MD5=[df38be88ccee13e832d6fafd6288a4ca]
class Test--><rect codeLine="9" fill="#FEFECE" filter="url(#f1rh3j9lwwd9kd)" height="109.1797" id="Test" style="stroke:#A80036;stroke-width:1.5;" width="77" x="582.5" y="7"/><ellipse cx="606.95" cy="23" fill="#ADD1B2" rx="11" ry="11" style="stroke:#A80036;stroke-width:1.0;"/><path d="M608.95,19.5 Q609.1531,19 609.3875,18.75 Q609.6219,18.5 609.8875,18.5 Q610.3563,18.5 610.6531,18.7813 Q610.95,19.0625 610.95,19.7188 L610.95,21.2813 Q610.95,21.9375 610.6688,22.2188 Q610.3875,22.5 609.95,22.5 Q609.5594,22.5 609.3094,22.3281 Q609.0594,22.1563 608.95,21.7031 Q608.9031,21.3906 608.7313,21.2188 Q608.4188,20.8906 607.8563,20.7031 Q607.2938,20.5 606.7313,20.5 Q606.0281,20.5 605.4344,20.7813 Q604.8563,21.0625 604.4031,21.6875 Q603.95,22.3125 603.95,23.1719 L603.95,24.0938 Q603.95,25.125 604.7938,25.8125 Q605.6375,26.5 607.1375,26.5 Q608.0281,26.5 608.6531,26.2969 Q609.0125,26.1875 609.4188,25.8281 Q609.6844,25.625 609.825,25.5625 Q609.9656,25.5 610.1375,25.5 Q610.4656,25.5 610.7,25.7656 Q610.95,26.0156 610.95,26.375 Q610.95,26.7188 610.6063,27.125 Q610.1063,27.7188 609.3094,28.0469 Q608.2625,28.5 606.9813,28.5 Q605.4813,28.5 604.2781,27.9063 Q603.3094,27.4375 602.6219,26.4219 Q601.95,25.4063 601.95,24.2031 L601.95,23.1094 Q601.95,21.8594 602.5438,20.7656 Q603.1531,19.6719 604.2,19.0938 Q605.2625,18.5 606.45,18.5 Q607.1688,18.5 607.7938,18.75 Q608.4188,19 608.95,19.5 Z " fill="#000000"/><text fill="#000000" font-family="sans-serif" font-size="12" lengthAdjust="spacing" textLength="24" x="623.05" y="27.9102">Test</text><line style="stroke:#A80036;stroke-width:1.5;" x1="583.5" x2="658.5" y1="39" y2="39"/><text fill="#000000" font-family="sans-serif" font-size="11" lengthAdjust="spacing" textLength="15" x="588.5" y="54.4189">-tin</text><text fill="#000000" font-family="sans-serif" font-size="11" lengthAdjust="spacing" textLength="33" x="588.5" y="68.2549">-idTest</text><text fill="#000000" font-family="sans-serif" font-size="11" lengthAdjust="spacing" textLength="47" x="588.5" y="82.0908">-nhsCode</text><text fill="#000000" font-family="sans-serif" font-size="11" lengthAdjust="spacing" textLength="65" x="588.5" y="95.9268">-creationDate</text><text fill="#000000" font-family="sans-serif" font-size="11" lengthAdjust="spacing" textLength="28" x="588.5" y="109.7627">-state</text><!--MD5=[ed6624c6556d5e7b1bd23032162d20b7]
class Client--><rect codeLine="17" fill="#FEFECE" filter="url(#f1rh3j9lwwd9kd)" height="136.8516" id="Client" style="stroke:#A80036;stroke-width:1.5;" width="107" x="337" y="87"/><ellipse cx="371.35" cy="103" fill="#ADD1B2" rx="11" ry="11" style="stroke:#A80036;stroke-width:1.0;"/><path d="M373.35,99.5 Q373.5531,99 373.7875,98.75 Q374.0219,98.5 374.2875,98.5 Q374.7563,98.5 375.0531,98.7813 Q375.35,99.0625 375.35,99.7188 L375.35,101.2813 Q375.35,101.9375 375.0688,102.2188 Q374.7875,102.5 374.35,102.5 Q373.9594,102.5 373.7094,102.3281 Q373.4594,102.1563 373.35,101.7031 Q373.3031,101.3906 373.1313,101.2188 Q372.8188,100.8906 372.2563,100.7031 Q371.6938,100.5 371.1313,100.5 Q370.4281,100.5 369.8344,100.7813 Q369.2563,101.0625 368.8031,101.6875 Q368.35,102.3125 368.35,103.1719 L368.35,104.0938 Q368.35,105.125 369.1938,105.8125 Q370.0375,106.5 371.5375,106.5 Q372.4281,106.5 373.0531,106.2969 Q373.4125,106.1875 373.8188,105.8281 Q374.0844,105.625 374.225,105.5625 Q374.3656,105.5 374.5375,105.5 Q374.8656,105.5 375.1,105.7656 Q375.35,106.0156 375.35,106.375 Q375.35,106.7188 375.0063,107.125 Q374.5063,107.7188 373.7094,108.0469 Q372.6625,108.5 371.3813,108.5 Q369.8813,108.5 368.6781,107.9063 Q367.7094,107.4375 367.0219,106.4219 Q366.35,105.4063 366.35,104.2031 L366.35,103.1094 Q366.35,101.8594 366.9438,100.7656 Q367.5531,99.6719 368.6,99.0938 Q369.6625,98.5 370.85,98.5 Q371.5688,98.5 372.1938,98.75 Q372.8188,99 373.35,99.5 Z " fill="#000000"/><text fill="#000000" font-family="sans-serif" font-size="12" lengthAdjust="spacing" textLength="32" x="389.65" y="107.9102">Client</text><line style="stroke:#A80036;stroke-width:1.5;" x1="338" x2="443" y1="119" y2="119"/><text fill="#000000" font-family="sans-serif" font-size="11" lengthAdjust="spacing" textLength="95" x="343" y="134.4189">-citizenCardNumber</text><text fill="#000000" font-family="sans-serif" font-size="11" lengthAdjust="spacing" textLength="93" x="343" y="148.2549">-healthCareService</text><text fill="#000000" font-family="sans-serif" font-size="11" lengthAdjust="spacing" textLength="15" x="343" y="162.0908">-tin</text><text fill="#000000" font-family="sans-serif" font-size="11" lengthAdjust="spacing" textLength="46" x="343" y="175.9268">-birthdate</text><text fill="#000000" font-family="sans-serif" font-size="11" lengthAdjust="spacing" textLength="30" x="343" y="189.7627">-name</text><text fill="#000000" font-family="sans-serif" font-size="11" lengthAdjust="spacing" textLength="71" x="343" y="203.5986">-phoneNumber</text><text fill="#000000" font-family="sans-serif" font-size="11" lengthAdjust="spacing" textLength="22" x="343" y="217.4346">-sex</text><!--MD5=[0f07739f46effee96e095e9c408da841]
class TestParameter--><rect codeLine="27" fill="#FEFECE" filter="url(#f1rh3j9lwwd9kd)" height="40" id="TestParameter" style="stroke:#A80036;stroke-width:1.5;" width="114" x="857" y="136.5"/><ellipse cx="872" cy="152.5" fill="#ADD1B2" rx="11" ry="11" style="stroke:#A80036;stroke-width:1.0;"/><path d="M874,149 Q874.2031,148.5 874.4375,148.25 Q874.6719,148 874.9375,148 Q875.4063,148 875.7031,148.2813 Q876,148.5625 876,149.2188 L876,150.7813 Q876,151.4375 875.7188,151.7188 Q875.4375,152 875,152 Q874.6094,152 874.3594,151.8281 Q874.1094,151.6563 874,151.2031 Q873.9531,150.8906 873.7813,150.7188 Q873.4688,150.3906 872.9063,150.2031 Q872.3438,150 871.7813,150 Q871.0781,150 870.4844,150.2813 Q869.9063,150.5625 869.4531,151.1875 Q869,151.8125 869,152.6719 L869,153.5938 Q869,154.625 869.8438,155.3125 Q870.6875,156 872.1875,156 Q873.0781,156 873.7031,155.7969 Q874.0625,155.6875 874.4688,155.3281 Q874.7344,155.125 874.875,155.0625 Q875.0156,155 875.1875,155 Q875.5156,155 875.75,155.2656 Q876,155.5156 876,155.875 Q876,156.2188 875.6563,156.625 Q875.1563,157.2188 874.3594,157.5469 Q873.3125,158 872.0313,158 Q870.5313,158 869.3281,157.4063 Q868.3594,156.9375 867.6719,155.9219 Q867,154.9063 867,153.7031 L867,152.6094 Q867,151.3594 867.5938,150.2656 Q868.2031,149.1719 869.25,148.5938 Q870.3125,148 871.5,148 Q872.2188,148 872.8438,148.25 Q873.4688,148.5 874,149 Z " fill="#000000"/><text fill="#000000" font-family="sans-serif" font-size="12" lengthAdjust="spacing" textLength="82" x="886" y="157.4102">TestParameter</text><line style="stroke:#A80036;stroke-width:1.5;" x1="858" x2="970" y1="168.5" y2="168.5"/><!--MD5=[4e608140b854dae633589343bce77383]
class TestParameterResult--><rect codeLine="30" fill="#FEFECE" filter="url(#f1rh3j9lwwd9kd)" height="81.5078" id="TestParameterResult" style="stroke:#A80036;stroke-width:1.5;" width="150" x="1095" y="115.5"/><ellipse cx="1110" cy="131.5" fill="#ADD1B2" rx="11" ry="11" style="stroke:#A80036;stroke-width:1.0;"/><path d="M1112,128 Q1112.2031,127.5 1112.4375,127.25 Q1112.6719,127 1112.9375,127 Q1113.4063,127 1113.7031,127.2813 Q1114,127.5625 1114,128.2188 L1114,129.7813 Q1114,130.4375 1113.7188,130.7188 Q1113.4375,131 1113,131 Q1112.6094,131 1112.3594,130.8281 Q1112.1094,130.6563 1112,130.2031 Q1111.9531,129.8906 1111.7813,129.7188 Q1111.4688,129.3906 1110.9063,129.2031 Q1110.3438,129 1109.7813,129 Q1109.0781,129 1108.4844,129.2813 Q1107.9063,129.5625 1107.4531,130.1875 Q1107,130.8125 1107,131.6719 L1107,132.5938 Q1107,133.625 1107.8438,134.3125 Q1108.6875,135 1110.1875,135 Q1111.0781,135 1111.7031,134.7969 Q1112.0625,134.6875 1112.4688,134.3281 Q1112.7344,134.125 1112.875,134.0625 Q1113.0156,134 1113.1875,134 Q1113.5156,134 1113.75,134.2656 Q1114,134.5156 1114,134.875 Q1114,135.2188 1113.6563,135.625 Q1113.1563,136.2188 1112.3594,136.5469 Q1111.3125,137 1110.0313,137 Q1108.5313,137 1107.3281,136.4063 Q1106.3594,135.9375 1105.6719,134.9219 Q1105,133.9063 1105,132.7031 L1105,131.6094 Q1105,130.3594 1105.5938,129.2656 Q1106.2031,128.1719 1107.25,127.5938 Q1108.3125,127 1109.5,127 Q1110.2188,127 1110.8438,127.25 Q1111.4688,127.5 1112,128 Z " fill="#000000"/><text fill="#000000" font-family="sans-serif" font-size="12" lengthAdjust="spacing" textLength="118" x="1124" y="136.4102">TestParameterResult</text><line style="stroke:#A80036;stroke-width:1.5;" x1="1096" x2="1244" y1="147.5" y2="147.5"/><text fill="#000000" font-family="sans-serif" font-size="11" lengthAdjust="spacing" textLength="52" x="1101" y="162.9189">-createdAt</text><text fill="#000000" font-family="sans-serif" font-size="11" lengthAdjust="spacing" textLength="30" x="1101" y="176.7549">-value</text><text fill="#000000" font-family="sans-serif" font-size="11" lengthAdjust="spacing" textLength="33" x="1101" y="190.5908">-metric</text><!--MD5=[1c357e7e7fdba398bcadd6e61afe49f5]
class ReferenceValue--><rect codeLine="36" fill="#FEFECE" filter="url(#f1rh3j9lwwd9kd)" height="40" id="ReferenceValue" style="stroke:#A80036;stroke-width:1.5;" width="120" x="1363" y="136.5"/><ellipse cx="1378" cy="152.5" fill="#ADD1B2" rx="11" ry="11" style="stroke:#A80036;stroke-width:1.0;"/><path d="M1380,149 Q1380.2031,148.5 1380.4375,148.25 Q1380.6719,148 1380.9375,148 Q1381.4063,148 1381.7031,148.2813 Q1382,148.5625 1382,149.2188 L1382,150.7813 Q1382,151.4375 1381.7188,151.7188 Q1381.4375,152 1381,152 Q1380.6094,152 1380.3594,151.8281 Q1380.1094,151.6563 1380,151.2031 Q1379.9531,150.8906 1379.7813,150.7188 Q1379.4688,150.3906 1378.9063,150.2031 Q1378.3438,150 1377.7813,150 Q1377.0781,150 1376.4844,150.2813 Q1375.9063,150.5625 1375.4531,151.1875 Q1375,151.8125 1375,152.6719 L1375,153.5938 Q1375,154.625 1375.8438,155.3125 Q1376.6875,156 1378.1875,156 Q1379.0781,156 1379.7031,155.7969 Q1380.0625,155.6875 1380.4688,155.3281 Q1380.7344,155.125 1380.875,155.0625 Q1381.0156,155 1381.1875,155 Q1381.5156,155 1381.75,155.2656 Q1382,155.5156 1382,155.875 Q1382,156.2188 1381.6563,156.625 Q1381.1563,157.2188 1380.3594,157.5469 Q1379.3125,158 1378.0313,158 Q1376.5313,158 1375.3281,157.4063 Q1374.3594,156.9375 1373.6719,155.9219 Q1373,154.9063 1373,153.7031 L1373,152.6094 Q1373,151.3594 1373.5938,150.2656 Q1374.2031,149.1719 1375.25,148.5938 Q1376.3125,148 1377.5,148 Q1378.2188,148 1378.8438,148.25 Q1379.4688,148.5 1380,149 Z " fill="#000000"/><text fill="#000000" font-family="sans-serif" font-size="12" lengthAdjust="spacing" textLength="88" x="1392" y="157.4102">ReferenceValue</text><line style="stroke:#A80036;stroke-width:1.5;" x1="1364" x2="1482" y1="168.5" y2="168.5"/><!--MD5=[1f6362a5c8f21d8d6a0fce68f3a92a4e]
class Parameter--><rect codeLine="40" fill="#FEFECE" filter="url(#f1rh3j9lwwd9kd)" height="67.6719" id="Parameter" style="stroke:#A80036;stroke-width:1.5;" width="90" x="576" y="151.5"/><ellipse cx="591" cy="167.5" fill="#ADD1B2" rx="11" ry="11" style="stroke:#A80036;stroke-width:1.0;"/><path d="M593,164 Q593.2031,163.5 593.4375,163.25 Q593.6719,163 593.9375,163 Q594.4063,163 594.7031,163.2813 Q595,163.5625 595,164.2188 L595,165.7813 Q595,166.4375 594.7188,166.7188 Q594.4375,167 594,167 Q593.6094,167 593.3594,166.8281 Q593.1094,166.6563 593,166.2031 Q592.9531,165.8906 592.7813,165.7188 Q592.4688,165.3906 591.9063,165.2031 Q591.3438,165 590.7813,165 Q590.0781,165 589.4844,165.2813 Q588.9063,165.5625 588.4531,166.1875 Q588,166.8125 588,167.6719 L588,168.5938 Q588,169.625 588.8438,170.3125 Q589.6875,171 591.1875,171 Q592.0781,171 592.7031,170.7969 Q593.0625,170.6875 593.4688,170.3281 Q593.7344,170.125 593.875,170.0625 Q594.0156,170 594.1875,170 Q594.5156,170 594.75,170.2656 Q595,170.5156 595,170.875 Q595,171.2188 594.6563,171.625 Q594.1563,172.2188 593.3594,172.5469 Q592.3125,173 591.0313,173 Q589.5313,173 588.3281,172.4063 Q587.3594,171.9375 586.6719,170.9219 Q586,169.9063 586,168.7031 L586,167.6094 Q586,166.3594 586.5938,165.2656 Q587.2031,164.1719 588.25,163.5938 Q589.3125,163 590.5,163 Q591.2188,163 591.8438,163.25 Q592.4688,163.5 593,164 Z " fill="#000000"/><text fill="#000000" font-family="sans-serif" font-size="12" lengthAdjust="spacing" textLength="58" x="605" y="172.4102">Parameter</text><line style="stroke:#A80036;stroke-width:1.5;" x1="577" x2="665" y1="183.5" y2="183.5"/><text fill="#000000" font-family="sans-serif" font-size="11" lengthAdjust="spacing" textLength="61" x="582" y="198.9189">-idParameter</text><text fill="#000000" font-family="sans-serif" font-size="11" lengthAdjust="spacing" textLength="57" x="582" y="212.7549">-description</text><!--MD5=[6eee883fdf517d3604e8bd0f2058e9aa]
link Company to Client--><path codeLine="45" d="M92.07,94.96 C153.68,107.5 269.22,131.02 336.73,144.76 " fill="none" id="Company-Client" style="stroke:#A80036;stroke-width:1.0;"/><polygon fill="#000000" points="131.8995,93.6731,123.6224,88.9891,122.45,94.7488,131.8995,93.6731" style="stroke:#000000;stroke-width:1.0;"/><text fill="#000000" font-family="sans-serif" font-size="13" lengthAdjust="spacing" textLength="170" x="136" y="97.9951">can access the information of</text><text fill="#000000" font-family="sans-serif" font-size="13" lengthAdjust="spacing" textLength="7" x="99.9883" y="111.3285">1</text><text fill="#000000" font-family="sans-serif" font-size="13" lengthAdjust="spacing" textLength="5" x="324.1687" y="157.9205">*</text><!--MD5=[7e4bc624457760b649895ff2ead938fa]
link Company to Test--><path codeLine="46" d="M92.36,79.17 C102.06,77.72 112.37,76.37 122,75.5 C293.42,59.97 499.26,60.12 582.42,60.96 " fill="none" id="Company-Test" style="stroke:#A80036;stroke-width:1.0;"/><polygon fill="#000000" points="367.9966,52.4901,358.8486,49.8891,359.0668,55.7629,367.9966,52.4901" style="stroke:#000000;stroke-width:1.0;"/><text fill="#000000" font-family="sans-serif" font-size="13" lengthAdjust="spacing" textLength="50" x="372" y="57.9951">performs</text><text fill="#000000" font-family="sans-serif" font-size="13" lengthAdjust="spacing" textLength="7" x="100.0384" y="92.8188">1</text><text fill="#000000" font-family="sans-serif" font-size="13" lengthAdjust="spacing" textLength="5" x="569.5891" y="75.8936">*</text><!--MD5=[502b51bc079239060389dab43b7d3470]
link Client to Test--><path codeLine="47" d="M444.21,133.82 C486.39,116.47 544.51,92.56 582.17,77.06 " fill="none" id="Client-Test" style="stroke:#A80036;stroke-width:1.0;"/><polygon fill="#000000" points="483.6239,84.7734,474.1409,85.497,476.3774,90.9327,483.6239,84.7734" style="stroke:#000000;stroke-width:1.0;"/><text fill="#000000" font-family="sans-serif" font-size="13" lengthAdjust="spacing" textLength="57" x="488" y="91.9951">asks for a</text><text fill="#000000" font-family="sans-serif" font-size="13" lengthAdjust="spacing" textLength="7" x="451.8976" y="145.5105">1</text><text fill="#000000" font-family="sans-serif" font-size="13" lengthAdjust="spacing" textLength="5" x="569.5498" y="94.9148">*</text><!--MD5=[f24c888dadeb846430474fe80a58922b]
link Test to TestParameter--><path codeLine="48" d="M659.74,73.82 C709.88,90.19 798.84,119.23 856.86,138.17 " fill="none" id="Test-TestParameter" style="stroke:#A80036;stroke-width:1.0;"/><polygon fill="#000000" points="705.7531,80.2274,698.0667,74.6266,696.2426,80.2143,705.7531,80.2274" style="stroke:#000000;stroke-width:1.0;"/><text fill="#000000" font-family="sans-serif" font-size="13" lengthAdjust="spacing" textLength="116" x="710" y="83.9951">requests analysis of</text><text fill="#000000" font-family="sans-serif" font-size="13" lengthAdjust="spacing" textLength="7" x="667.528" y="91.0775">1</text><text fill="#000000" font-family="sans-serif" font-size="13" lengthAdjust="spacing" textLength="5" x="843.8459" y="150.3006">*</text><!--MD5=[0e00e25ac6b8c14659aaff2cf7e5df08]
link TestParameter to TestParameterResult--><path codeLine="49" d="M971.06,156.5 C1007.43,156.5 1055.24,156.5 1094.77,156.5 " fill="none" id="TestParameter-TestParameterResult" style="stroke:#A80036;stroke-width:1.0;"/><polygon fill="#000000" points="1011,147.6758,1001.9549,144.7369,1001.9549,150.6147,1011,147.6758" style="stroke:#000000;stroke-width:1.0;"/><text fill="#000000" font-family="sans-serif" font-size="13" lengthAdjust="spacing" textLength="49" x="1015" y="152.9951">contains</text><text fill="#000000" font-family="sans-serif" font-size="13" lengthAdjust="spacing" textLength="7" x="978.8192" y="171.0426">1</text><text fill="#000000" font-family="sans-serif" font-size="13" lengthAdjust="spacing" textLength="22" x="1065.0901" y="170.7452">0..1</text><!--MD5=[dab4a90b4cb7e97efbac2bbfae23b642]
link Parameter to TestParameter--><path codeLine="50" d="M666.2,181.1 C717.23,176.01 801.29,167.63 856.89,162.09 " fill="none" id="Parameter-TestParameter" style="stroke:#A80036;stroke-width:1.0;"/><polygon fill="#000000" points="738.9753,157.1798,729.6833,155.1526,730.2664,161.0015,738.9753,157.1798" style="stroke:#000000;stroke-width:1.0;"/><text fill="#000000" font-family="sans-serif" font-size="13" lengthAdjust="spacing" textLength="50" x="743" y="162.9951">is part of</text><text fill="#000000" font-family="sans-serif" font-size="13" lengthAdjust="spacing" textLength="7" x="673.9616" y="195.223">1</text><text fill="#000000" font-family="sans-serif" font-size="13" lengthAdjust="spacing" textLength="7" x="842.1243" y="177.3489">1</text><!--MD5=[52200cc2361fa0ac0481dd6ffcdb824b]
link TestParameterResult to ReferenceValue--><path codeLine="51" d="M1245.29,156.5 C1282.73,156.5 1327.51,156.5 1362.62,156.5 " fill="none" id="TestParameterResult-ReferenceValue" style="stroke:#A80036;stroke-width:1.0;"/><polygon fill="#000000" points="1285,147.6758,1275.9549,144.7369,1275.9549,150.6147,1285,147.6758" style="stroke:#000000;stroke-width:1.0;"/><text fill="#000000" font-family="sans-serif" font-size="13" lengthAdjust="spacing" textLength="43" x="1289" y="152.9951">records</text><text fill="#000000" font-family="sans-serif" font-size="13" lengthAdjust="spacing" textLength="7" x="1253.0459" y="170.8241">1</text><text fill="#000000" font-family="sans-serif" font-size="13" lengthAdjust="spacing" textLength="7" x="1347.8346" y="170.9915">1</text><!--MD5=[59190128ee983e0f9dcbc3df0c3a5cfa]
@startuml
hide methods
left to right direction
skinparam classAttributeIconSize 0

class Company{
-chemicalLab
}

class Test{
-tin
-idTest
-nhsCode
-creationDate
-state
}

class Client{
-citizenCardNumber
-healthCareService
-tin
-birthdate
-name
-phoneNumber
-sex
}

class TestParameter{
}

class TestParameterResult{
-createdAt
-value
-metric
}

class ReferenceValue{

}

class Parameter{
-idParameter
-description
}

Company "1" - - "*" Client : can access the information of >
Company "1" - - "*" Test : performs >
Client "1" - - "*" Test : asks for a >
Test "1" - - "*" TestParameter : requests analysis of >
TestParameter "1" - - "0..1" TestParameterResult : contains >
Parameter "1" - - "1" TestParameter : is part of >
TestParameterResult "1" - - "1" ReferenceValue : records >

@enduml

PlantUML version 1.2021.2(Sun Mar 07 11:10:27 GMT 2021)
(GPL source distribution)
Java Runtime: OpenJDK Runtime Environment
JVM: OpenJDK 64-Bit Server VM
Default Encoding: Cp1252
Language: pt
Country: PT
--></g></svg>