<?xml version="1.0" encoding="UTF-8" standalone="no"?><svg xmlns="http://www.w3.org/2000/svg" xmlns:xlink="http://www.w3.org/1999/xlink" contentScriptType="application/ecmascript" contentStyleType="text/css" height="2253px" preserveAspectRatio="none" style="width:987px;height:2253px;" version="1.1" viewBox="0 0 987 2253" width="987px" zoomAndPan="magnify"><defs><filter height="300%" id="ffgj3i6xbl5s" width="300%" x="-1" y="-1"><feGaussianBlur result="blurOut" stdDeviation="2.0"/><feColorMatrix in="blurOut" result="blurOut2" type="matrix" values="0 0 0 0 0 0 0 0 0 0 0 0 0 0 0 0 0 0 .4 0"/><feOffset dx="4.0" dy="4.0" in="blurOut2" result="blurOut3"/><feBlend in="SourceGraphic" in2="blurOut3" mode="normal"/></filter></defs><g><!--MD5=[02e4b9b7573f1156f41e60aa5b4e25a4]
class Company--><rect codeLine="6" fill="#FEFECE" filter="url(#ffgj3i6xbl5s)" height="53.8359" id="Company" style="stroke:#A80036;stroke-width:1.5;" width="85" x="237" y="7"/><ellipse cx="252" cy="23" fill="#ADD1B2" rx="11" ry="11" style="stroke:#A80036;stroke-width:1.0;"/><path d="M254,19.5 Q254.2031,19 254.4375,18.75 Q254.6719,18.5 254.9375,18.5 Q255.4063,18.5 255.7031,18.7813 Q256,19.0625 256,19.7188 L256,21.2813 Q256,21.9375 255.7188,22.2188 Q255.4375,22.5 255,22.5 Q254.6094,22.5 254.3594,22.3281 Q254.1094,22.1563 254,21.7031 Q253.9531,21.3906 253.7813,21.2188 Q253.4688,20.8906 252.9063,20.7031 Q252.3438,20.5 251.7813,20.5 Q251.0781,20.5 250.4844,20.7813 Q249.9063,21.0625 249.4531,21.6875 Q249,22.3125 249,23.1719 L249,24.0938 Q249,25.125 249.8438,25.8125 Q250.6875,26.5 252.1875,26.5 Q253.0781,26.5 253.7031,26.2969 Q254.0625,26.1875 254.4688,25.8281 Q254.7344,25.625 254.875,25.5625 Q255.0156,25.5 255.1875,25.5 Q255.5156,25.5 255.75,25.7656 Q256,26.0156 256,26.375 Q256,26.7188 255.6563,27.125 Q255.1563,27.7188 254.3594,28.0469 Q253.3125,28.5 252.0313,28.5 Q250.5313,28.5 249.3281,27.9063 Q248.3594,27.4375 247.6719,26.4219 Q247,25.4063 247,24.2031 L247,23.1094 Q247,21.8594 247.5938,20.7656 Q248.2031,19.6719 249.25,19.0938 Q250.3125,18.5 251.5,18.5 Q252.2188,18.5 252.8438,18.75 Q253.4688,19 254,19.5 Z " fill="#000000"/><text fill="#000000" font-family="sans-serif" font-size="12" lengthAdjust="spacing" textLength="53" x="266" y="27.9102">Company</text><line style="stroke:#A80036;stroke-width:1.5;" x1="238" x2="321" y1="39" y2="39"/><text fill="#000000" font-family="sans-serif" font-size="11" lengthAdjust="spacing" textLength="60" x="243" y="54.4189">chemicalLab</text><!--MD5=[a8cdb1e9a553f5119d5d6ee12fd8c3d3]
class ChemicalLab--><rect codeLine="10" fill="#FEFECE" filter="url(#ffgj3i6xbl5s)" height="95.3438" id="ChemicalLab" style="stroke:#A80036;stroke-width:1.5;" width="106" x="300.5" y="146"/><ellipse cx="315.5" cy="162" fill="#ADD1B2" rx="11" ry="11" style="stroke:#A80036;stroke-width:1.0;"/><path d="M317.5,158.5 Q317.7031,158 317.9375,157.75 Q318.1719,157.5 318.4375,157.5 Q318.9063,157.5 319.2031,157.7813 Q319.5,158.0625 319.5,158.7188 L319.5,160.2813 Q319.5,160.9375 319.2188,161.2188 Q318.9375,161.5 318.5,161.5 Q318.1094,161.5 317.8594,161.3281 Q317.6094,161.1563 317.5,160.7031 Q317.4531,160.3906 317.2813,160.2188 Q316.9688,159.8906 316.4063,159.7031 Q315.8438,159.5 315.2813,159.5 Q314.5781,159.5 313.9844,159.7813 Q313.4063,160.0625 312.9531,160.6875 Q312.5,161.3125 312.5,162.1719 L312.5,163.0938 Q312.5,164.125 313.3438,164.8125 Q314.1875,165.5 315.6875,165.5 Q316.5781,165.5 317.2031,165.2969 Q317.5625,165.1875 317.9688,164.8281 Q318.2344,164.625 318.375,164.5625 Q318.5156,164.5 318.6875,164.5 Q319.0156,164.5 319.25,164.7656 Q319.5,165.0156 319.5,165.375 Q319.5,165.7188 319.1563,166.125 Q318.6563,166.7188 317.8594,167.0469 Q316.8125,167.5 315.5313,167.5 Q314.0313,167.5 312.8281,166.9063 Q311.8594,166.4375 311.1719,165.4219 Q310.5,164.4063 310.5,163.2031 L310.5,162.1094 Q310.5,160.8594 311.0938,159.7656 Q311.7031,158.6719 312.75,158.0938 Q313.8125,157.5 315,157.5 Q315.7188,157.5 316.3438,157.75 Q316.9688,158 317.5,158.5 Z " fill="#000000"/><text fill="#000000" font-family="sans-serif" font-size="12" lengthAdjust="spacing" textLength="74" x="329.5" y="166.9102">ChemicalLab</text><line style="stroke:#A80036;stroke-width:1.5;" x1="301.5" x2="405.5" y1="178" y2="178"/><text fill="#000000" font-family="sans-serif" font-size="11" lengthAdjust="spacing" textLength="26" x="306.5" y="193.4189">name</text><text fill="#000000" font-family="sans-serif" font-size="11" lengthAdjust="spacing" textLength="40" x="306.5" y="207.2549">address</text><text fill="#000000" font-family="sans-serif" font-size="11" lengthAdjust="spacing" textLength="67" x="306.5" y="221.0908">phoneNumber</text><text fill="#000000" font-family="sans-serif" font-size="11" lengthAdjust="spacing" textLength="11" x="306.5" y="234.9268">tin</text><!--MD5=[1934a092c0e7d4da7dc7075b6f4b6b03]
class ClinicalAnalysisLaboratory--><rect codeLine="17" fill="#FEFECE" filter="url(#ffgj3i6xbl5s)" height="109.1797" id="ClinicalAnalysisLaboratory" style="stroke:#A80036;stroke-width:1.5;" width="177" x="26" y="278"/><ellipse cx="41" cy="294" fill="#ADD1B2" rx="11" ry="11" style="stroke:#A80036;stroke-width:1.0;"/><path d="M43,290.5 Q43.2031,290 43.4375,289.75 Q43.6719,289.5 43.9375,289.5 Q44.4063,289.5 44.7031,289.7813 Q45,290.0625 45,290.7188 L45,292.2813 Q45,292.9375 44.7188,293.2188 Q44.4375,293.5 44,293.5 Q43.6094,293.5 43.3594,293.3281 Q43.1094,293.1563 43,292.7031 Q42.9531,292.3906 42.7813,292.2188 Q42.4688,291.8906 41.9063,291.7031 Q41.3438,291.5 40.7813,291.5 Q40.0781,291.5 39.4844,291.7813 Q38.9063,292.0625 38.4531,292.6875 Q38,293.3125 38,294.1719 L38,295.0938 Q38,296.125 38.8438,296.8125 Q39.6875,297.5 41.1875,297.5 Q42.0781,297.5 42.7031,297.2969 Q43.0625,297.1875 43.4688,296.8281 Q43.7344,296.625 43.875,296.5625 Q44.0156,296.5 44.1875,296.5 Q44.5156,296.5 44.75,296.7656 Q45,297.0156 45,297.375 Q45,297.7188 44.6563,298.125 Q44.1563,298.7188 43.3594,299.0469 Q42.3125,299.5 41.0313,299.5 Q39.5313,299.5 38.3281,298.9063 Q37.3594,298.4375 36.6719,297.4219 Q36,296.4063 36,295.2031 L36,294.1094 Q36,292.8594 36.5938,291.7656 Q37.2031,290.6719 38.25,290.0938 Q39.3125,289.5 40.5,289.5 Q41.2188,289.5 41.8438,289.75 Q42.4688,290 43,290.5 Z " fill="#000000"/><text fill="#000000" font-family="sans-serif" font-size="12" lengthAdjust="spacing" textLength="145" x="55" y="298.9102">ClinicalAnalysisLaboratory</text><line style="stroke:#A80036;stroke-width:1.5;" x1="27" x2="202" y1="310" y2="310"/><text fill="#000000" font-family="sans-serif" font-size="11" lengthAdjust="spacing" textLength="61" x="32" y="325.4189">idLaboratory</text><text fill="#000000" font-family="sans-serif" font-size="11" lengthAdjust="spacing" textLength="26" x="32" y="339.2549">name</text><text fill="#000000" font-family="sans-serif" font-size="11" lengthAdjust="spacing" textLength="40" x="32" y="353.0908">address</text><text fill="#000000" font-family="sans-serif" font-size="11" lengthAdjust="spacing" textLength="67" x="32" y="366.9268">phoneNumber</text><text fill="#000000" font-family="sans-serif" font-size="11" lengthAdjust="spacing" textLength="11" x="32" y="380.7627">tin</text><!--MD5=[f1a07dce2bbf9d5d1136bcee60ab0add]
class CovidReport--><rect codeLine="25" fill="#FEFECE" filter="url(#ffgj3i6xbl5s)" height="109.1797" id="CovidReport" style="stroke:#A80036;stroke-width:1.5;" width="125" x="7" y="139"/><ellipse cx="33.25" cy="155" fill="#ADD1B2" rx="11" ry="11" style="stroke:#A80036;stroke-width:1.0;"/><path d="M35.25,151.5 Q35.4531,151 35.6875,150.75 Q35.9219,150.5 36.1875,150.5 Q36.6563,150.5 36.9531,150.7813 Q37.25,151.0625 37.25,151.7188 L37.25,153.2813 Q37.25,153.9375 36.9688,154.2188 Q36.6875,154.5 36.25,154.5 Q35.8594,154.5 35.6094,154.3281 Q35.3594,154.1563 35.25,153.7031 Q35.2031,153.3906 35.0313,153.2188 Q34.7188,152.8906 34.1563,152.7031 Q33.5938,152.5 33.0313,152.5 Q32.3281,152.5 31.7344,152.7813 Q31.1563,153.0625 30.7031,153.6875 Q30.25,154.3125 30.25,155.1719 L30.25,156.0938 Q30.25,157.125 31.0938,157.8125 Q31.9375,158.5 33.4375,158.5 Q34.3281,158.5 34.9531,158.2969 Q35.3125,158.1875 35.7188,157.8281 Q35.9844,157.625 36.125,157.5625 Q36.2656,157.5 36.4375,157.5 Q36.7656,157.5 37,157.7656 Q37.25,158.0156 37.25,158.375 Q37.25,158.7188 36.9063,159.125 Q36.4063,159.7188 35.6094,160.0469 Q34.5625,160.5 33.2813,160.5 Q31.7813,160.5 30.5781,159.9063 Q29.6094,159.4375 28.9219,158.4219 Q28.25,157.4063 28.25,156.2031 L28.25,155.1094 Q28.25,153.8594 28.8438,152.7656 Q29.4531,151.6719 30.5,151.0938 Q31.5625,150.5 32.75,150.5 Q33.4688,150.5 34.0938,150.75 Q34.7188,151 35.25,151.5 Z " fill="#000000"/><text fill="#000000" font-family="sans-serif" font-size="12" lengthAdjust="spacing" textLength="68" x="49.75" y="159.9102">CovidReport</text><line style="stroke:#A80036;stroke-width:1.5;" x1="8" x2="131" y1="171" y2="171"/><text fill="#000000" font-family="sans-serif" font-size="11" lengthAdjust="spacing" textLength="113" x="13" y="186.4189">numberTestsPerformed</text><text fill="#000000" font-family="sans-serif" font-size="11" lengthAdjust="spacing" textLength="109" x="13" y="200.2549">numberPositiveResults</text><text fill="#000000" font-family="sans-serif" font-size="11" lengthAdjust="spacing" textLength="92" x="13" y="214.0908">numberPositiveDay</text><text fill="#000000" font-family="sans-serif" font-size="11" lengthAdjust="spacing" textLength="100" x="13" y="227.9268">numberPositiveWeek</text><text fill="#000000" font-family="sans-serif" font-size="11" lengthAdjust="spacing" textLength="102" x="13" y="241.7627">numberPositiveMonth</text><!--MD5=[79bc1da95cabcae0fad243a585601473]
class SampleIdentification--><rect codeLine="33" fill="#FEFECE" filter="url(#ffgj3i6xbl5s)" height="81.5078" id="SampleIdentification" style="stroke:#A80036;stroke-width:1.5;" width="144" x="281.5" y="1665"/><ellipse cx="296.5" cy="1681" fill="#ADD1B2" rx="11" ry="11" style="stroke:#A80036;stroke-width:1.0;"/><path d="M298.5,1677.5 Q298.7031,1677 298.9375,1676.75 Q299.1719,1676.5 299.4375,1676.5 Q299.9063,1676.5 300.2031,1676.7813 Q300.5,1677.0625 300.5,1677.7188 L300.5,1679.2813 Q300.5,1679.9375 300.2188,1680.2188 Q299.9375,1680.5 299.5,1680.5 Q299.1094,1680.5 298.8594,1680.3281 Q298.6094,1680.1563 298.5,1679.7031 Q298.4531,1679.3906 298.2813,1679.2188 Q297.9688,1678.8906 297.4063,1678.7031 Q296.8438,1678.5 296.2813,1678.5 Q295.5781,1678.5 294.9844,1678.7813 Q294.4063,1679.0625 293.9531,1679.6875 Q293.5,1680.3125 293.5,1681.1719 L293.5,1682.0938 Q293.5,1683.125 294.3438,1683.8125 Q295.1875,1684.5 296.6875,1684.5 Q297.5781,1684.5 298.2031,1684.2969 Q298.5625,1684.1875 298.9688,1683.8281 Q299.2344,1683.625 299.375,1683.5625 Q299.5156,1683.5 299.6875,1683.5 Q300.0156,1683.5 300.25,1683.7656 Q300.5,1684.0156 300.5,1684.375 Q300.5,1684.7188 300.1563,1685.125 Q299.6563,1685.7188 298.8594,1686.0469 Q297.8125,1686.5 296.5313,1686.5 Q295.0313,1686.5 293.8281,1685.9063 Q292.8594,1685.4375 292.1719,1684.4219 Q291.5,1683.4063 291.5,1682.2031 L291.5,1681.1094 Q291.5,1679.8594 292.0938,1678.7656 Q292.7031,1677.6719 293.75,1677.0938 Q294.8125,1676.5 296,1676.5 Q296.7188,1676.5 297.3438,1676.75 Q297.9688,1677 298.5,1677.5 Z " fill="#000000"/><text fill="#000000" font-family="sans-serif" font-size="12" lengthAdjust="spacing" textLength="112" x="310.5" y="1685.9102">SampleIdentification</text><line style="stroke:#A80036;stroke-width:1.5;" x1="282.5" x2="424.5" y1="1697" y2="1697"/><text fill="#000000" font-family="sans-serif" font-size="11" lengthAdjust="spacing" textLength="34" x="287.5" y="1712.4189">idClient</text><text fill="#000000" font-family="sans-serif" font-size="11" lengthAdjust="spacing" textLength="29" x="287.5" y="1726.2549">idTest</text><text fill="#000000" font-family="sans-serif" font-size="11" lengthAdjust="spacing" textLength="40" x="287.5" y="1740.0908">barcode</text><!--MD5=[9681492165142af2a4a3a169d90ee8d4]
class Sample--><rect codeLine="39" fill="#FEFECE" filter="url(#ffgj3i6xbl5s)" height="81.5078" id="Sample" style="stroke:#A80036;stroke-width:1.5;" width="127" x="155" y="1477.5"/><ellipse cx="193.4" cy="1493.5" fill="#ADD1B2" rx="11" ry="11" style="stroke:#A80036;stroke-width:1.0;"/><path d="M195.4,1490 Q195.6031,1489.5 195.8375,1489.25 Q196.0719,1489 196.3375,1489 Q196.8063,1489 197.1031,1489.2813 Q197.4,1489.5625 197.4,1490.2188 L197.4,1491.7813 Q197.4,1492.4375 197.1188,1492.7188 Q196.8375,1493 196.4,1493 Q196.0094,1493 195.7594,1492.8281 Q195.5094,1492.6563 195.4,1492.2031 Q195.3531,1491.8906 195.1813,1491.7188 Q194.8688,1491.3906 194.3063,1491.2031 Q193.7438,1491 193.1813,1491 Q192.4781,1491 191.8844,1491.2813 Q191.3063,1491.5625 190.8531,1492.1875 Q190.4,1492.8125 190.4,1493.6719 L190.4,1494.5938 Q190.4,1495.625 191.2438,1496.3125 Q192.0875,1497 193.5875,1497 Q194.4781,1497 195.1031,1496.7969 Q195.4625,1496.6875 195.8688,1496.3281 Q196.1344,1496.125 196.275,1496.0625 Q196.4156,1496 196.5875,1496 Q196.9156,1496 197.15,1496.2656 Q197.4,1496.5156 197.4,1496.875 Q197.4,1497.2188 197.0563,1497.625 Q196.5563,1498.2188 195.7594,1498.5469 Q194.7125,1499 193.4313,1499 Q191.9313,1499 190.7281,1498.4063 Q189.7594,1497.9375 189.0719,1496.9219 Q188.4,1495.9063 188.4,1494.7031 L188.4,1493.6094 Q188.4,1492.3594 188.9938,1491.2656 Q189.6031,1490.1719 190.65,1489.5938 Q191.7125,1489 192.9,1489 Q193.6188,1489 194.2438,1489.25 Q194.8688,1489.5 195.4,1490 Z " fill="#000000"/><text fill="#000000" font-family="sans-serif" font-size="12" lengthAdjust="spacing" textLength="43" x="212.6" y="1498.4102">Sample</text><line style="stroke:#A80036;stroke-width:1.5;" x1="156" x2="281" y1="1509.5" y2="1509.5"/><text fill="#000000" font-family="sans-serif" font-size="11" lengthAdjust="spacing" textLength="43" x="161" y="1524.9189">idSample</text><text fill="#000000" font-family="sans-serif" font-size="11" lengthAdjust="spacing" textLength="115" x="161" y="1538.7549">sampleCollectionMethod</text><text fill="#000000" font-family="sans-serif" font-size="11" lengthAdjust="spacing" textLength="67" x="161" y="1552.5908">collectionDate</text><!--MD5=[df38be88ccee13e832d6fafd6288a4ca]
class Test--><rect codeLine="45" fill="#FEFECE" filter="url(#ffgj3i6xbl5s)" height="81.5078" id="Test" style="stroke:#A80036;stroke-width:1.5;" width="129" x="593" y="1262.5"/><ellipse cx="641.25" cy="1278.5" fill="#ADD1B2" rx="11" ry="11" style="stroke:#A80036;stroke-width:1.0;"/><path d="M643.25,1275 Q643.4531,1274.5 643.6875,1274.25 Q643.9219,1274 644.1875,1274 Q644.6563,1274 644.9531,1274.2813 Q645.25,1274.5625 645.25,1275.2188 L645.25,1276.7813 Q645.25,1277.4375 644.9688,1277.7188 Q644.6875,1278 644.25,1278 Q643.8594,1278 643.6094,1277.8281 Q643.3594,1277.6563 643.25,1277.2031 Q643.2031,1276.8906 643.0313,1276.7188 Q642.7188,1276.3906 642.1563,1276.2031 Q641.5938,1276 641.0313,1276 Q640.3281,1276 639.7344,1276.2813 Q639.1563,1276.5625 638.7031,1277.1875 Q638.25,1277.8125 638.25,1278.6719 L638.25,1279.5938 Q638.25,1280.625 639.0938,1281.3125 Q639.9375,1282 641.4375,1282 Q642.3281,1282 642.9531,1281.7969 Q643.3125,1281.6875 643.7188,1281.3281 Q643.9844,1281.125 644.125,1281.0625 Q644.2656,1281 644.4375,1281 Q644.7656,1281 645,1281.2656 Q645.25,1281.5156 645.25,1281.875 Q645.25,1282.2188 644.9063,1282.625 Q644.4063,1283.2188 643.6094,1283.5469 Q642.5625,1284 641.2813,1284 Q639.7813,1284 638.5781,1283.4063 Q637.6094,1282.9375 636.9219,1281.9219 Q636.25,1280.9063 636.25,1279.7031 L636.25,1278.6094 Q636.25,1277.3594 636.8438,1276.2656 Q637.4531,1275.1719 638.5,1274.5938 Q639.5625,1274 640.75,1274 Q641.4688,1274 642.0938,1274.25 Q642.7188,1274.5 643.25,1275 Z " fill="#000000"/><text fill="#000000" font-family="sans-serif" font-size="12" lengthAdjust="spacing" textLength="24" x="661.75" y="1283.4102">Test</text><line style="stroke:#A80036;stroke-width:1.5;" x1="594" x2="721" y1="1294.5" y2="1294.5"/><text fill="#000000" font-family="sans-serif" font-size="11" lengthAdjust="spacing" textLength="29" x="599" y="1309.9189">idTest</text><text fill="#000000" font-family="sans-serif" font-size="11" lengthAdjust="spacing" textLength="43" x="599" y="1323.7549">nhsCode</text><text fill="#000000" font-family="sans-serif" font-size="11" lengthAdjust="spacing" textLength="117" x="599" y="1337.5908">clientCitizenCardNumber</text><!--MD5=[fdca102e342db1d5733f5f3c41f4f0c8]
class TypeTest--><rect codeLine="51" fill="#FEFECE" filter="url(#ffgj3i6xbl5s)" height="67.6719" id="TypeTest" style="stroke:#A80036;stroke-width:1.5;" width="82" x="537.5" y="1484.5"/><ellipse cx="552.5" cy="1500.5" fill="#ADD1B2" rx="11" ry="11" style="stroke:#A80036;stroke-width:1.0;"/><path d="M554.5,1497 Q554.7031,1496.5 554.9375,1496.25 Q555.1719,1496 555.4375,1496 Q555.9063,1496 556.2031,1496.2813 Q556.5,1496.5625 556.5,1497.2188 L556.5,1498.7813 Q556.5,1499.4375 556.2188,1499.7188 Q555.9375,1500 555.5,1500 Q555.1094,1500 554.8594,1499.8281 Q554.6094,1499.6563 554.5,1499.2031 Q554.4531,1498.8906 554.2813,1498.7188 Q553.9688,1498.3906 553.4063,1498.2031 Q552.8438,1498 552.2813,1498 Q551.5781,1498 550.9844,1498.2813 Q550.4063,1498.5625 549.9531,1499.1875 Q549.5,1499.8125 549.5,1500.6719 L549.5,1501.5938 Q549.5,1502.625 550.3438,1503.3125 Q551.1875,1504 552.6875,1504 Q553.5781,1504 554.2031,1503.7969 Q554.5625,1503.6875 554.9688,1503.3281 Q555.2344,1503.125 555.375,1503.0625 Q555.5156,1503 555.6875,1503 Q556.0156,1503 556.25,1503.2656 Q556.5,1503.5156 556.5,1503.875 Q556.5,1504.2188 556.1563,1504.625 Q555.6563,1505.2188 554.8594,1505.5469 Q553.8125,1506 552.5313,1506 Q551.0313,1506 549.8281,1505.4063 Q548.8594,1504.9375 548.1719,1503.9219 Q547.5,1502.9063 547.5,1501.7031 L547.5,1500.6094 Q547.5,1499.3594 548.0938,1498.2656 Q548.7031,1497.1719 549.75,1496.5938 Q550.8125,1496 552,1496 Q552.7188,1496 553.3438,1496.25 Q553.9688,1496.5 554.5,1497 Z " fill="#000000"/><text fill="#000000" font-family="sans-serif" font-size="12" lengthAdjust="spacing" textLength="50" x="566.5" y="1505.4102">TypeTest</text><line style="stroke:#A80036;stroke-width:1.5;" x1="538.5" x2="618.5" y1="1516.5" y2="1516.5"/><text fill="#000000" font-family="sans-serif" font-size="11" lengthAdjust="spacing" textLength="29" x="543.5" y="1531.9189">idTest</text><text fill="#000000" font-family="sans-serif" font-size="11" lengthAdjust="spacing" textLength="21" x="543.5" y="1545.7549">type</text><!--MD5=[eb1936cc1c6e778bd93c35f46d0f804b]
class SampleAnalysis--><rect codeLine="56" fill="#FEFECE" filter="url(#ffgj3i6xbl5s)" height="81.5078" id="SampleAnalysis" style="stroke:#A80036;stroke-width:1.5;" width="121" x="792" y="673.5"/><ellipse cx="807" cy="689.5" fill="#ADD1B2" rx="11" ry="11" style="stroke:#A80036;stroke-width:1.0;"/><path d="M809,686 Q809.2031,685.5 809.4375,685.25 Q809.6719,685 809.9375,685 Q810.4063,685 810.7031,685.2813 Q811,685.5625 811,686.2188 L811,687.7813 Q811,688.4375 810.7188,688.7188 Q810.4375,689 810,689 Q809.6094,689 809.3594,688.8281 Q809.1094,688.6563 809,688.2031 Q808.9531,687.8906 808.7813,687.7188 Q808.4688,687.3906 807.9063,687.2031 Q807.3438,687 806.7813,687 Q806.0781,687 805.4844,687.2813 Q804.9063,687.5625 804.4531,688.1875 Q804,688.8125 804,689.6719 L804,690.5938 Q804,691.625 804.8438,692.3125 Q805.6875,693 807.1875,693 Q808.0781,693 808.7031,692.7969 Q809.0625,692.6875 809.4688,692.3281 Q809.7344,692.125 809.875,692.0625 Q810.0156,692 810.1875,692 Q810.5156,692 810.75,692.2656 Q811,692.5156 811,692.875 Q811,693.2188 810.6563,693.625 Q810.1563,694.2188 809.3594,694.5469 Q808.3125,695 807.0313,695 Q805.5313,695 804.3281,694.4063 Q803.3594,693.9375 802.6719,692.9219 Q802,691.9063 802,690.7031 L802,689.6094 Q802,688.3594 802.5938,687.2656 Q803.2031,686.1719 804.25,685.5938 Q805.3125,685 806.5,685 Q807.2188,685 807.8438,685.25 Q808.4688,685.5 809,686 Z " fill="#000000"/><text fill="#000000" font-family="sans-serif" font-size="12" lengthAdjust="spacing" textLength="89" x="821" y="694.4102">SampleAnalysis</text><line style="stroke:#A80036;stroke-width:1.5;" x1="793" x2="912" y1="705.5" y2="705.5"/><text fill="#000000" font-family="sans-serif" font-size="11" lengthAdjust="spacing" textLength="54" x="798" y="720.9189">idEmployee</text><text fill="#000000" font-family="sans-serif" font-size="11" lengthAdjust="spacing" textLength="29" x="798" y="734.7549">idTest</text><text fill="#000000" font-family="sans-serif" font-size="11" lengthAdjust="spacing" textLength="38" x="798" y="748.5908">idResult</text><!--MD5=[5e6ae5ca2322ea7d8c17b0187d1bbc44]
class TestResults--><rect codeLine="62" fill="#FEFECE" filter="url(#ffgj3i6xbl5s)" height="95.3438" id="TestResults" style="stroke:#A80036;stroke-width:1.5;" width="118" x="793.5" y="847"/><ellipse cx="817.05" cy="863" fill="#ADD1B2" rx="11" ry="11" style="stroke:#A80036;stroke-width:1.0;"/><path d="M819.05,859.5 Q819.2531,859 819.4875,858.75 Q819.7219,858.5 819.9875,858.5 Q820.4563,858.5 820.7531,858.7813 Q821.05,859.0625 821.05,859.7188 L821.05,861.2813 Q821.05,861.9375 820.7688,862.2188 Q820.4875,862.5 820.05,862.5 Q819.6594,862.5 819.4094,862.3281 Q819.1594,862.1563 819.05,861.7031 Q819.0031,861.3906 818.8313,861.2188 Q818.5188,860.8906 817.9563,860.7031 Q817.3938,860.5 816.8313,860.5 Q816.1281,860.5 815.5344,860.7813 Q814.9563,861.0625 814.5031,861.6875 Q814.05,862.3125 814.05,863.1719 L814.05,864.0938 Q814.05,865.125 814.8938,865.8125 Q815.7375,866.5 817.2375,866.5 Q818.1281,866.5 818.7531,866.2969 Q819.1125,866.1875 819.5188,865.8281 Q819.7844,865.625 819.925,865.5625 Q820.0656,865.5 820.2375,865.5 Q820.5656,865.5 820.8,865.7656 Q821.05,866.0156 821.05,866.375 Q821.05,866.7188 820.7063,867.125 Q820.2063,867.7188 819.4094,868.0469 Q818.3625,868.5 817.0813,868.5 Q815.5813,868.5 814.3781,867.9063 Q813.4094,867.4375 812.7219,866.4219 Q812.05,865.4063 812.05,864.2031 L812.05,863.1094 Q812.05,861.8594 812.6438,860.7656 Q813.2531,859.6719 814.3,859.0938 Q815.3625,858.5 816.55,858.5 Q817.2688,858.5 817.8938,858.75 Q818.5188,859 819.05,859.5 Z " fill="#000000"/><text fill="#000000" font-family="sans-serif" font-size="12" lengthAdjust="spacing" textLength="67" x="832.95" y="867.9102">TestResults</text><line style="stroke:#A80036;stroke-width:1.5;" x1="794.5" x2="910.5" y1="879" y2="879"/><text fill="#000000" font-family="sans-serif" font-size="11" lengthAdjust="spacing" textLength="38" x="799.5" y="894.4189">idResult</text><text fill="#000000" font-family="sans-serif" font-size="11" lengthAdjust="spacing" textLength="106" x="799.5" y="908.2549">chemicalAnalysisDate</text><text fill="#000000" font-family="sans-serif" font-size="11" lengthAdjust="spacing" textLength="68" x="799.5" y="922.0908">diagnosisDate</text><text fill="#000000" font-family="sans-serif" font-size="11" lengthAdjust="spacing" textLength="54" x="799.5" y="935.9268">testResults</text><!--MD5=[10d06bcee75aaf74ab8f6040820ceef2]
class Diagnosis--><rect codeLine="69" fill="#FEFECE" filter="url(#ffgj3i6xbl5s)" height="95.3438" id="Diagnosis" style="stroke:#A80036;stroke-width:1.5;" width="89" x="176" y="667"/><ellipse cx="191" cy="683" fill="#ADD1B2" rx="11" ry="11" style="stroke:#A80036;stroke-width:1.0;"/><path d="M193,679.5 Q193.2031,679 193.4375,678.75 Q193.6719,678.5 193.9375,678.5 Q194.4063,678.5 194.7031,678.7813 Q195,679.0625 195,679.7188 L195,681.2813 Q195,681.9375 194.7188,682.2188 Q194.4375,682.5 194,682.5 Q193.6094,682.5 193.3594,682.3281 Q193.1094,682.1563 193,681.7031 Q192.9531,681.3906 192.7813,681.2188 Q192.4688,680.8906 191.9063,680.7031 Q191.3438,680.5 190.7813,680.5 Q190.0781,680.5 189.4844,680.7813 Q188.9063,681.0625 188.4531,681.6875 Q188,682.3125 188,683.1719 L188,684.0938 Q188,685.125 188.8438,685.8125 Q189.6875,686.5 191.1875,686.5 Q192.0781,686.5 192.7031,686.2969 Q193.0625,686.1875 193.4688,685.8281 Q193.7344,685.625 193.875,685.5625 Q194.0156,685.5 194.1875,685.5 Q194.5156,685.5 194.75,685.7656 Q195,686.0156 195,686.375 Q195,686.7188 194.6563,687.125 Q194.1563,687.7188 193.3594,688.0469 Q192.3125,688.5 191.0313,688.5 Q189.5313,688.5 188.3281,687.9063 Q187.3594,687.4375 186.6719,686.4219 Q186,685.4063 186,684.2031 L186,683.1094 Q186,681.8594 186.5938,680.7656 Q187.2031,679.6719 188.25,679.0938 Q189.3125,678.5 190.5,678.5 Q191.2188,678.5 191.8438,678.75 Q192.4688,679 193,679.5 Z " fill="#000000"/><text fill="#000000" font-family="sans-serif" font-size="12" lengthAdjust="spacing" textLength="57" x="205" y="687.9102">Diagnosis</text><line style="stroke:#A80036;stroke-width:1.5;" x1="177" x2="264" y1="699" y2="699"/><text fill="#000000" font-family="sans-serif" font-size="11" lengthAdjust="spacing" textLength="54" x="182" y="714.4189">idEmployee</text><text fill="#000000" font-family="sans-serif" font-size="11" lengthAdjust="spacing" textLength="55" x="182" y="728.2549">idDiagnosis</text><text fill="#000000" font-family="sans-serif" font-size="11" lengthAdjust="spacing" textLength="38" x="182" y="742.0908">idResult</text><text fill="#000000" font-family="sans-serif" font-size="11" lengthAdjust="spacing" textLength="47" x="182" y="755.9268">Diagnosis</text><!--MD5=[c18fe2235af84d27f50ab7ae87a88372]
class TestValidation--><rect codeLine="76" fill="#FEFECE" filter="url(#ffgj3i6xbl5s)" height="109.1797" id="TestValidation" style="stroke:#A80036;stroke-width:1.5;" width="110" x="602.5" y="660"/><ellipse cx="617.5" cy="676" fill="#ADD1B2" rx="11" ry="11" style="stroke:#A80036;stroke-width:1.0;"/><path d="M619.5,672.5 Q619.7031,672 619.9375,671.75 Q620.1719,671.5 620.4375,671.5 Q620.9063,671.5 621.2031,671.7813 Q621.5,672.0625 621.5,672.7188 L621.5,674.2813 Q621.5,674.9375 621.2188,675.2188 Q620.9375,675.5 620.5,675.5 Q620.1094,675.5 619.8594,675.3281 Q619.6094,675.1563 619.5,674.7031 Q619.4531,674.3906 619.2813,674.2188 Q618.9688,673.8906 618.4063,673.7031 Q617.8438,673.5 617.2813,673.5 Q616.5781,673.5 615.9844,673.7813 Q615.4063,674.0625 614.9531,674.6875 Q614.5,675.3125 614.5,676.1719 L614.5,677.0938 Q614.5,678.125 615.3438,678.8125 Q616.1875,679.5 617.6875,679.5 Q618.5781,679.5 619.2031,679.2969 Q619.5625,679.1875 619.9688,678.8281 Q620.2344,678.625 620.375,678.5625 Q620.5156,678.5 620.6875,678.5 Q621.0156,678.5 621.25,678.7656 Q621.5,679.0156 621.5,679.375 Q621.5,679.7188 621.1563,680.125 Q620.6563,680.7188 619.8594,681.0469 Q618.8125,681.5 617.5313,681.5 Q616.0313,681.5 614.8281,680.9063 Q613.8594,680.4375 613.1719,679.4219 Q612.5,678.4063 612.5,677.2031 L612.5,676.1094 Q612.5,674.8594 613.0938,673.7656 Q613.7031,672.6719 614.75,672.0938 Q615.8125,671.5 617,671.5 Q617.7188,671.5 618.3438,671.75 Q618.9688,672 619.5,672.5 Z " fill="#000000"/><text fill="#000000" font-family="sans-serif" font-size="12" lengthAdjust="spacing" textLength="78" x="631.5" y="680.9102">TestValidation</text><line style="stroke:#A80036;stroke-width:1.5;" x1="603.5" x2="711.5" y1="692" y2="692"/><text fill="#000000" font-family="sans-serif" font-size="11" lengthAdjust="spacing" textLength="54" x="608.5" y="707.4189">idEmployee</text><text fill="#000000" font-family="sans-serif" font-size="11" lengthAdjust="spacing" textLength="76" x="608.5" y="721.2549">idTestValidation</text><text fill="#000000" font-family="sans-serif" font-size="11" lengthAdjust="spacing" textLength="55" x="608.5" y="735.0908">idDiagnosis</text><text fill="#000000" font-family="sans-serif" font-size="11" lengthAdjust="spacing" textLength="68" x="608.5" y="748.9268">validateStatus</text><text fill="#000000" font-family="sans-serif" font-size="11" lengthAdjust="spacing" textLength="65" x="608.5" y="762.7627">validatedDate</text><!--MD5=[ed6624c6556d5e7b1bd23032162d20b7]
class Client--><rect codeLine="84" fill="#FEFECE" filter="url(#ffgj3i6xbl5s)" height="136.8516" id="Client" style="stroke:#A80036;stroke-width:1.5;" width="138" x="588.5" y="1020"/><ellipse cx="637.25" cy="1036" fill="#ADD1B2" rx="11" ry="11" style="stroke:#A80036;stroke-width:1.0;"/><path d="M639.25,1032.5 Q639.4531,1032 639.6875,1031.75 Q639.9219,1031.5 640.1875,1031.5 Q640.6563,1031.5 640.9531,1031.7813 Q641.25,1032.0625 641.25,1032.7188 L641.25,1034.2813 Q641.25,1034.9375 640.9688,1035.2188 Q640.6875,1035.5 640.25,1035.5 Q639.8594,1035.5 639.6094,1035.3281 Q639.3594,1035.1563 639.25,1034.7031 Q639.2031,1034.3906 639.0313,1034.2188 Q638.7188,1033.8906 638.1563,1033.7031 Q637.5938,1033.5 637.0313,1033.5 Q636.3281,1033.5 635.7344,1033.7813 Q635.1563,1034.0625 634.7031,1034.6875 Q634.25,1035.3125 634.25,1036.1719 L634.25,1037.0938 Q634.25,1038.125 635.0938,1038.8125 Q635.9375,1039.5 637.4375,1039.5 Q638.3281,1039.5 638.9531,1039.2969 Q639.3125,1039.1875 639.7188,1038.8281 Q639.9844,1038.625 640.125,1038.5625 Q640.2656,1038.5 640.4375,1038.5 Q640.7656,1038.5 641,1038.7656 Q641.25,1039.0156 641.25,1039.375 Q641.25,1039.7188 640.9063,1040.125 Q640.4063,1040.7188 639.6094,1041.0469 Q638.5625,1041.5 637.2813,1041.5 Q635.7813,1041.5 634.5781,1040.9063 Q633.6094,1040.4375 632.9219,1039.4219 Q632.25,1038.4063 632.25,1037.2031 L632.25,1036.1094 Q632.25,1034.8594 632.8438,1033.7656 Q633.4531,1032.6719 634.5,1032.0938 Q635.5625,1031.5 636.75,1031.5 Q637.4688,1031.5 638.0938,1031.75 Q638.7188,1032 639.25,1032.5 Z " fill="#000000"/><text fill="#000000" font-family="sans-serif" font-size="12" lengthAdjust="spacing" textLength="32" x="657.75" y="1040.9102">Client</text><line style="stroke:#A80036;stroke-width:1.5;" x1="589.5" x2="725.5" y1="1052" y2="1052"/><text fill="#000000" font-family="sans-serif" font-size="11" lengthAdjust="spacing" textLength="91" x="594.5" y="1067.4189">citizenCardNumber</text><text fill="#000000" font-family="sans-serif" font-size="11" lengthAdjust="spacing" textLength="126" x="594.5" y="1081.2549">nationalHealthcareService</text><text fill="#000000" font-family="sans-serif" font-size="11" lengthAdjust="spacing" textLength="43" x="594.5" y="1095.0908">birthDate</text><text fill="#000000" font-family="sans-serif" font-size="11" lengthAdjust="spacing" textLength="9" x="594.5" y="1108.9268">tif</text><text fill="#000000" font-family="sans-serif" font-size="11" lengthAdjust="spacing" textLength="67" x="594.5" y="1122.7627">phoneNumber</text><text fill="#000000" font-family="sans-serif" font-size="11" lengthAdjust="spacing" textLength="24" x="594.5" y="1136.5986">email</text><text fill="#000000" font-family="sans-serif" font-size="11" lengthAdjust="spacing" textLength="26" x="594.5" y="1150.4346">name</text><!--MD5=[da547346deef918ea16944ba046651ef]
class Administrator--><rect codeLine="94" fill="#FEFECE" filter="url(#ffgj3i6xbl5s)" height="136.8516" id="Administrator" style="stroke:#A80036;stroke-width:1.5;" width="105" x="666" y="2103"/><ellipse cx="681" cy="2119" fill="#ADD1B2" rx="11" ry="11" style="stroke:#A80036;stroke-width:1.0;"/><path d="M683,2115.5 Q683.2031,2115 683.4375,2114.75 Q683.6719,2114.5 683.9375,2114.5 Q684.4063,2114.5 684.7031,2114.7813 Q685,2115.0625 685,2115.7188 L685,2117.2813 Q685,2117.9375 684.7188,2118.2188 Q684.4375,2118.5 684,2118.5 Q683.6094,2118.5 683.3594,2118.3281 Q683.1094,2118.1563 683,2117.7031 Q682.9531,2117.3906 682.7813,2117.2188 Q682.4688,2116.8906 681.9063,2116.7031 Q681.3438,2116.5 680.7813,2116.5 Q680.0781,2116.5 679.4844,2116.7813 Q678.9063,2117.0625 678.4531,2117.6875 Q678,2118.3125 678,2119.1719 L678,2120.0938 Q678,2121.125 678.8438,2121.8125 Q679.6875,2122.5 681.1875,2122.5 Q682.0781,2122.5 682.7031,2122.2969 Q683.0625,2122.1875 683.4688,2121.8281 Q683.7344,2121.625 683.875,2121.5625 Q684.0156,2121.5 684.1875,2121.5 Q684.5156,2121.5 684.75,2121.7656 Q685,2122.0156 685,2122.375 Q685,2122.7188 684.6563,2123.125 Q684.1563,2123.7188 683.3594,2124.0469 Q682.3125,2124.5 681.0313,2124.5 Q679.5313,2124.5 678.3281,2123.9063 Q677.3594,2123.4375 676.6719,2122.4219 Q676,2121.4063 676,2120.2031 L676,2119.1094 Q676,2117.8594 676.5938,2116.7656 Q677.2031,2115.6719 678.25,2115.0938 Q679.3125,2114.5 680.5,2114.5 Q681.2188,2114.5 681.8438,2114.75 Q682.4688,2115 683,2115.5 Z " fill="#000000"/><text fill="#000000" font-family="sans-serif" font-size="12" lengthAdjust="spacing" textLength="73" x="695" y="2123.9102">Administrator</text><line style="stroke:#A80036;stroke-width:1.5;" x1="667" x2="770" y1="2135" y2="2135"/><text fill="#000000" font-family="sans-serif" font-size="11" lengthAdjust="spacing" textLength="54" x="672" y="2150.4189">idEmployee</text><text fill="#000000" font-family="sans-serif" font-size="11" lengthAdjust="spacing" textLength="80" x="672" y="2164.2549">organizationRole</text><text fill="#000000" font-family="sans-serif" font-size="11" lengthAdjust="spacing" textLength="26" x="672" y="2178.0908">name</text><text fill="#000000" font-family="sans-serif" font-size="11" lengthAdjust="spacing" textLength="34" x="672" y="2191.9268">adress</text><text fill="#000000" font-family="sans-serif" font-size="11" lengthAdjust="spacing" textLength="24" x="672" y="2205.7627">email</text><text fill="#000000" font-family="sans-serif" font-size="11" lengthAdjust="spacing" textLength="67" x="672" y="2219.5986">phoneNumber</text><text fill="#000000" font-family="sans-serif" font-size="11" lengthAdjust="spacing" textLength="18" x="672" y="2233.4346">soc</text><!--MD5=[03960189e81aa2c066c762ffabbee709]
class Receptionist--><rect codeLine="104" fill="#FEFECE" filter="url(#ffgj3i6xbl5s)" height="136.8516" id="Receptionist" style="stroke:#A80036;stroke-width:1.5;" width="101" x="853" y="1450"/><ellipse cx="868" cy="1466" fill="#ADD1B2" rx="11" ry="11" style="stroke:#A80036;stroke-width:1.0;"/><path d="M870,1462.5 Q870.2031,1462 870.4375,1461.75 Q870.6719,1461.5 870.9375,1461.5 Q871.4063,1461.5 871.7031,1461.7813 Q872,1462.0625 872,1462.7188 L872,1464.2813 Q872,1464.9375 871.7188,1465.2188 Q871.4375,1465.5 871,1465.5 Q870.6094,1465.5 870.3594,1465.3281 Q870.1094,1465.1563 870,1464.7031 Q869.9531,1464.3906 869.7813,1464.2188 Q869.4688,1463.8906 868.9063,1463.7031 Q868.3438,1463.5 867.7813,1463.5 Q867.0781,1463.5 866.4844,1463.7813 Q865.9063,1464.0625 865.4531,1464.6875 Q865,1465.3125 865,1466.1719 L865,1467.0938 Q865,1468.125 865.8438,1468.8125 Q866.6875,1469.5 868.1875,1469.5 Q869.0781,1469.5 869.7031,1469.2969 Q870.0625,1469.1875 870.4688,1468.8281 Q870.7344,1468.625 870.875,1468.5625 Q871.0156,1468.5 871.1875,1468.5 Q871.5156,1468.5 871.75,1468.7656 Q872,1469.0156 872,1469.375 Q872,1469.7188 871.6563,1470.125 Q871.1563,1470.7188 870.3594,1471.0469 Q869.3125,1471.5 868.0313,1471.5 Q866.5313,1471.5 865.3281,1470.9063 Q864.3594,1470.4375 863.6719,1469.4219 Q863,1468.4063 863,1467.2031 L863,1466.1094 Q863,1464.8594 863.5938,1463.7656 Q864.2031,1462.6719 865.25,1462.0938 Q866.3125,1461.5 867.5,1461.5 Q868.2188,1461.5 868.8438,1461.75 Q869.4688,1462 870,1462.5 Z " fill="#000000"/><text fill="#000000" font-family="sans-serif" font-size="12" lengthAdjust="spacing" textLength="69" x="882" y="1470.9102">Receptionist</text><line style="stroke:#A80036;stroke-width:1.5;" x1="854" x2="953" y1="1482" y2="1482"/><text fill="#000000" font-family="sans-serif" font-size="11" lengthAdjust="spacing" textLength="54" x="859" y="1497.4189">idEmployee</text><text fill="#000000" font-family="sans-serif" font-size="11" lengthAdjust="spacing" textLength="80" x="859" y="1511.2549">organizationRole</text><text fill="#000000" font-family="sans-serif" font-size="11" lengthAdjust="spacing" textLength="26" x="859" y="1525.0908">name</text><text fill="#000000" font-family="sans-serif" font-size="11" lengthAdjust="spacing" textLength="34" x="859" y="1538.9268">adress</text><text fill="#000000" font-family="sans-serif" font-size="11" lengthAdjust="spacing" textLength="24" x="859" y="1552.7627">email</text><text fill="#000000" font-family="sans-serif" font-size="11" lengthAdjust="spacing" textLength="67" x="859" y="1566.5986">phoneNumber</text><text fill="#000000" font-family="sans-serif" font-size="11" lengthAdjust="spacing" textLength="18" x="859" y="1580.4346">soc</text><!--MD5=[aecf777879c9b57ecd87deb43958b955]
class MedicalLabTechnicians--><rect codeLine="114" fill="#FEFECE" filter="url(#ffgj3i6xbl5s)" height="136.8516" id="MedicalLabTechnicians" style="stroke:#A80036;stroke-width:1.5;" width="162" x="137.5" y="1235"/><ellipse cx="152.5" cy="1251" fill="#ADD1B2" rx="11" ry="11" style="stroke:#A80036;stroke-width:1.0;"/><path d="M154.5,1247.5 Q154.7031,1247 154.9375,1246.75 Q155.1719,1246.5 155.4375,1246.5 Q155.9063,1246.5 156.2031,1246.7813 Q156.5,1247.0625 156.5,1247.7188 L156.5,1249.2813 Q156.5,1249.9375 156.2188,1250.2188 Q155.9375,1250.5 155.5,1250.5 Q155.1094,1250.5 154.8594,1250.3281 Q154.6094,1250.1563 154.5,1249.7031 Q154.4531,1249.3906 154.2813,1249.2188 Q153.9688,1248.8906 153.4063,1248.7031 Q152.8438,1248.5 152.2813,1248.5 Q151.5781,1248.5 150.9844,1248.7813 Q150.4063,1249.0625 149.9531,1249.6875 Q149.5,1250.3125 149.5,1251.1719 L149.5,1252.0938 Q149.5,1253.125 150.3438,1253.8125 Q151.1875,1254.5 152.6875,1254.5 Q153.5781,1254.5 154.2031,1254.2969 Q154.5625,1254.1875 154.9688,1253.8281 Q155.2344,1253.625 155.375,1253.5625 Q155.5156,1253.5 155.6875,1253.5 Q156.0156,1253.5 156.25,1253.7656 Q156.5,1254.0156 156.5,1254.375 Q156.5,1254.7188 156.1563,1255.125 Q155.6563,1255.7188 154.8594,1256.0469 Q153.8125,1256.5 152.5313,1256.5 Q151.0313,1256.5 149.8281,1255.9063 Q148.8594,1255.4375 148.1719,1254.4219 Q147.5,1253.4063 147.5,1252.2031 L147.5,1251.1094 Q147.5,1249.8594 148.0938,1248.7656 Q148.7031,1247.6719 149.75,1247.0938 Q150.8125,1246.5 152,1246.5 Q152.7188,1246.5 153.3438,1246.75 Q153.9688,1247 154.5,1247.5 Z " fill="#000000"/><text fill="#000000" font-family="sans-serif" font-size="12" lengthAdjust="spacing" textLength="130" x="166.5" y="1255.9102">MedicalLabTechnicians</text><line style="stroke:#A80036;stroke-width:1.5;" x1="138.5" x2="298.5" y1="1267" y2="1267"/><text fill="#000000" font-family="sans-serif" font-size="11" lengthAdjust="spacing" textLength="54" x="143.5" y="1282.4189">idEmployee</text><text fill="#000000" font-family="sans-serif" font-size="11" lengthAdjust="spacing" textLength="80" x="143.5" y="1296.2549">organizationRole</text><text fill="#000000" font-family="sans-serif" font-size="11" lengthAdjust="spacing" textLength="26" x="143.5" y="1310.0908">name</text><text fill="#000000" font-family="sans-serif" font-size="11" lengthAdjust="spacing" textLength="34" x="143.5" y="1323.9268">adress</text><text fill="#000000" font-family="sans-serif" font-size="11" lengthAdjust="spacing" textLength="24" x="143.5" y="1337.7627">email</text><text fill="#000000" font-family="sans-serif" font-size="11" lengthAdjust="spacing" textLength="67" x="143.5" y="1351.5986">phoneNumber</text><text fill="#000000" font-family="sans-serif" font-size="11" lengthAdjust="spacing" textLength="18" x="143.5" y="1365.4346">soc</text><!--MD5=[1d2f3d5e54c9664a612b7009d6f7f68b]
class ChemistryTechnologist--><rect codeLine="124" fill="#FEFECE" filter="url(#ffgj3i6xbl5s)" height="150.6875" id="ChemistryTechnologist" style="stroke:#A80036;stroke-width:1.5;" width="159" x="773" y="424"/><ellipse cx="788" cy="440" fill="#ADD1B2" rx="11" ry="11" style="stroke:#A80036;stroke-width:1.0;"/><path d="M790,436.5 Q790.2031,436 790.4375,435.75 Q790.6719,435.5 790.9375,435.5 Q791.4063,435.5 791.7031,435.7813 Q792,436.0625 792,436.7188 L792,438.2813 Q792,438.9375 791.7188,439.2188 Q791.4375,439.5 791,439.5 Q790.6094,439.5 790.3594,439.3281 Q790.1094,439.1563 790,438.7031 Q789.9531,438.3906 789.7813,438.2188 Q789.4688,437.8906 788.9063,437.7031 Q788.3438,437.5 787.7813,437.5 Q787.0781,437.5 786.4844,437.7813 Q785.9063,438.0625 785.4531,438.6875 Q785,439.3125 785,440.1719 L785,441.0938 Q785,442.125 785.8438,442.8125 Q786.6875,443.5 788.1875,443.5 Q789.0781,443.5 789.7031,443.2969 Q790.0625,443.1875 790.4688,442.8281 Q790.7344,442.625 790.875,442.5625 Q791.0156,442.5 791.1875,442.5 Q791.5156,442.5 791.75,442.7656 Q792,443.0156 792,443.375 Q792,443.7188 791.6563,444.125 Q791.1563,444.7188 790.3594,445.0469 Q789.3125,445.5 788.0313,445.5 Q786.5313,445.5 785.3281,444.9063 Q784.3594,444.4375 783.6719,443.4219 Q783,442.4063 783,441.2031 L783,440.1094 Q783,438.8594 783.5938,437.7656 Q784.2031,436.6719 785.25,436.0938 Q786.3125,435.5 787.5,435.5 Q788.2188,435.5 788.8438,435.75 Q789.4688,436 790,436.5 Z " fill="#000000"/><text fill="#000000" font-family="sans-serif" font-size="12" lengthAdjust="spacing" textLength="127" x="802" y="444.9102">ChemistryTechnologist</text><line style="stroke:#A80036;stroke-width:1.5;" x1="774" x2="931" y1="456" y2="456"/><text fill="#000000" font-family="sans-serif" font-size="11" lengthAdjust="spacing" textLength="54" x="779" y="471.4189">idEmployee</text><text fill="#000000" font-family="sans-serif" font-size="11" lengthAdjust="spacing" textLength="61" x="779" y="485.2549">idLaboratory</text><text fill="#000000" font-family="sans-serif" font-size="11" lengthAdjust="spacing" textLength="80" x="779" y="499.0908">organizationRole</text><text fill="#000000" font-family="sans-serif" font-size="11" lengthAdjust="spacing" textLength="26" x="779" y="512.9268">name</text><text fill="#000000" font-family="sans-serif" font-size="11" lengthAdjust="spacing" textLength="34" x="779" y="526.7627">adress</text><text fill="#000000" font-family="sans-serif" font-size="11" lengthAdjust="spacing" textLength="24" x="779" y="540.5986">email</text><text fill="#000000" font-family="sans-serif" font-size="11" lengthAdjust="spacing" textLength="67" x="779" y="554.4346">phoneNumber</text><text fill="#000000" font-family="sans-serif" font-size="11" lengthAdjust="spacing" textLength="18" x="779" y="568.2705">soc</text><!--MD5=[7d96fd15f3014691d2fcaf89c5791e2a]
class SpecialistDoctor--><rect codeLine="135" fill="#FEFECE" filter="url(#ffgj3i6xbl5s)" height="164.5234" id="SpecialistDoctor" style="stroke:#A80036;stroke-width:1.5;" width="122" x="175.5" y="417"/><ellipse cx="190.5" cy="433" fill="#ADD1B2" rx="11" ry="11" style="stroke:#A80036;stroke-width:1.0;"/><path d="M192.5,429.5 Q192.7031,429 192.9375,428.75 Q193.1719,428.5 193.4375,428.5 Q193.9063,428.5 194.2031,428.7813 Q194.5,429.0625 194.5,429.7188 L194.5,431.2813 Q194.5,431.9375 194.2188,432.2188 Q193.9375,432.5 193.5,432.5 Q193.1094,432.5 192.8594,432.3281 Q192.6094,432.1563 192.5,431.7031 Q192.4531,431.3906 192.2813,431.2188 Q191.9688,430.8906 191.4063,430.7031 Q190.8438,430.5 190.2813,430.5 Q189.5781,430.5 188.9844,430.7813 Q188.4063,431.0625 187.9531,431.6875 Q187.5,432.3125 187.5,433.1719 L187.5,434.0938 Q187.5,435.125 188.3438,435.8125 Q189.1875,436.5 190.6875,436.5 Q191.5781,436.5 192.2031,436.2969 Q192.5625,436.1875 192.9688,435.8281 Q193.2344,435.625 193.375,435.5625 Q193.5156,435.5 193.6875,435.5 Q194.0156,435.5 194.25,435.7656 Q194.5,436.0156 194.5,436.375 Q194.5,436.7188 194.1563,437.125 Q193.6563,437.7188 192.8594,438.0469 Q191.8125,438.5 190.5313,438.5 Q189.0313,438.5 187.8281,437.9063 Q186.8594,437.4375 186.1719,436.4219 Q185.5,435.4063 185.5,434.2031 L185.5,433.1094 Q185.5,431.8594 186.0938,430.7656 Q186.7031,429.6719 187.75,429.0938 Q188.8125,428.5 190,428.5 Q190.7188,428.5 191.3438,428.75 Q191.9688,429 192.5,429.5 Z " fill="#000000"/><text fill="#000000" font-family="sans-serif" font-size="12" lengthAdjust="spacing" textLength="90" x="204.5" y="437.9102">SpecialistDoctor</text><line style="stroke:#A80036;stroke-width:1.5;" x1="176.5" x2="296.5" y1="449" y2="449"/><text fill="#000000" font-family="sans-serif" font-size="11" lengthAdjust="spacing" textLength="54" x="181.5" y="464.4189">idEmployee</text><text fill="#000000" font-family="sans-serif" font-size="11" lengthAdjust="spacing" textLength="61" x="181.5" y="478.2549">idLaboratory</text><text fill="#000000" font-family="sans-serif" font-size="11" lengthAdjust="spacing" textLength="94" x="181.5" y="492.0908">doctorIndexNumber</text><text fill="#000000" font-family="sans-serif" font-size="11" lengthAdjust="spacing" textLength="80" x="181.5" y="505.9268">organizationRole</text><text fill="#000000" font-family="sans-serif" font-size="11" lengthAdjust="spacing" textLength="26" x="181.5" y="519.7627">name</text><text fill="#000000" font-family="sans-serif" font-size="11" lengthAdjust="spacing" textLength="34" x="181.5" y="533.5986">adress</text><text fill="#000000" font-family="sans-serif" font-size="11" lengthAdjust="spacing" textLength="24" x="181.5" y="547.4346">email</text><text fill="#000000" font-family="sans-serif" font-size="11" lengthAdjust="spacing" textLength="67" x="181.5" y="561.2705">phoneNumber</text><text fill="#000000" font-family="sans-serif" font-size="11" lengthAdjust="spacing" textLength="18" x="181.5" y="575.1064">soc</text><!--MD5=[052425de1c0eb6cc1c1b48342b0bb88f]
class LaboratoryCoordinator--><rect codeLine="147" fill="#FEFECE" filter="url(#ffgj3i6xbl5s)" height="150.6875" id="LaboratoryCoordinator" style="stroke:#A80036;stroke-width:1.5;" width="155" x="407" y="424"/><ellipse cx="422" cy="440" fill="#ADD1B2" rx="11" ry="11" style="stroke:#A80036;stroke-width:1.0;"/><path d="M424,436.5 Q424.2031,436 424.4375,435.75 Q424.6719,435.5 424.9375,435.5 Q425.4063,435.5 425.7031,435.7813 Q426,436.0625 426,436.7188 L426,438.2813 Q426,438.9375 425.7188,439.2188 Q425.4375,439.5 425,439.5 Q424.6094,439.5 424.3594,439.3281 Q424.1094,439.1563 424,438.7031 Q423.9531,438.3906 423.7813,438.2188 Q423.4688,437.8906 422.9063,437.7031 Q422.3438,437.5 421.7813,437.5 Q421.0781,437.5 420.4844,437.7813 Q419.9063,438.0625 419.4531,438.6875 Q419,439.3125 419,440.1719 L419,441.0938 Q419,442.125 419.8438,442.8125 Q420.6875,443.5 422.1875,443.5 Q423.0781,443.5 423.7031,443.2969 Q424.0625,443.1875 424.4688,442.8281 Q424.7344,442.625 424.875,442.5625 Q425.0156,442.5 425.1875,442.5 Q425.5156,442.5 425.75,442.7656 Q426,443.0156 426,443.375 Q426,443.7188 425.6563,444.125 Q425.1563,444.7188 424.3594,445.0469 Q423.3125,445.5 422.0313,445.5 Q420.5313,445.5 419.3281,444.9063 Q418.3594,444.4375 417.6719,443.4219 Q417,442.4063 417,441.2031 L417,440.1094 Q417,438.8594 417.5938,437.7656 Q418.2031,436.6719 419.25,436.0938 Q420.3125,435.5 421.5,435.5 Q422.2188,435.5 422.8438,435.75 Q423.4688,436 424,436.5 Z " fill="#000000"/><text fill="#000000" font-family="sans-serif" font-size="12" lengthAdjust="spacing" textLength="123" x="436" y="444.9102">LaboratoryCoordinator</text><line style="stroke:#A80036;stroke-width:1.5;" x1="408" x2="561" y1="456" y2="456"/><text fill="#000000" font-family="sans-serif" font-size="11" lengthAdjust="spacing" textLength="54" x="413" y="471.4189">idEmployee</text><text fill="#000000" font-family="sans-serif" font-size="11" lengthAdjust="spacing" textLength="61" x="413" y="485.2549">idLaboratory</text><text fill="#000000" font-family="sans-serif" font-size="11" lengthAdjust="spacing" textLength="80" x="413" y="499.0908">organizationRole</text><text fill="#000000" font-family="sans-serif" font-size="11" lengthAdjust="spacing" textLength="26" x="413" y="512.9268">name</text><text fill="#000000" font-family="sans-serif" font-size="11" lengthAdjust="spacing" textLength="40" x="413" y="526.7627">address</text><text fill="#000000" font-family="sans-serif" font-size="11" lengthAdjust="spacing" textLength="24" x="413" y="540.5986">email</text><text fill="#000000" font-family="sans-serif" font-size="11" lengthAdjust="spacing" textLength="67" x="413" y="554.4346">phoneNumber</text><text fill="#000000" font-family="sans-serif" font-size="11" lengthAdjust="spacing" textLength="18" x="413" y="568.2705">soc</text><!--MD5=[56f671791a7bc69038cb91d87520b796]
class Parameters--><rect codeLine="158" fill="#FEFECE" filter="url(#ffgj3i6xbl5s)" height="53.8359" id="Parameters" style="stroke:#A80036;stroke-width:1.5;" width="97" x="670" y="1679"/><ellipse cx="685" cy="1695" fill="#ADD1B2" rx="11" ry="11" style="stroke:#A80036;stroke-width:1.0;"/><path d="M687,1691.5 Q687.2031,1691 687.4375,1690.75 Q687.6719,1690.5 687.9375,1690.5 Q688.4063,1690.5 688.7031,1690.7813 Q689,1691.0625 689,1691.7188 L689,1693.2813 Q689,1693.9375 688.7188,1694.2188 Q688.4375,1694.5 688,1694.5 Q687.6094,1694.5 687.3594,1694.3281 Q687.1094,1694.1563 687,1693.7031 Q686.9531,1693.3906 686.7813,1693.2188 Q686.4688,1692.8906 685.9063,1692.7031 Q685.3438,1692.5 684.7813,1692.5 Q684.0781,1692.5 683.4844,1692.7813 Q682.9063,1693.0625 682.4531,1693.6875 Q682,1694.3125 682,1695.1719 L682,1696.0938 Q682,1697.125 682.8438,1697.8125 Q683.6875,1698.5 685.1875,1698.5 Q686.0781,1698.5 686.7031,1698.2969 Q687.0625,1698.1875 687.4688,1697.8281 Q687.7344,1697.625 687.875,1697.5625 Q688.0156,1697.5 688.1875,1697.5 Q688.5156,1697.5 688.75,1697.7656 Q689,1698.0156 689,1698.375 Q689,1698.7188 688.6563,1699.125 Q688.1563,1699.7188 687.3594,1700.0469 Q686.3125,1700.5 685.0313,1700.5 Q683.5313,1700.5 682.3281,1699.9063 Q681.3594,1699.4375 680.6719,1698.4219 Q680,1697.4063 680,1696.2031 L680,1695.1094 Q680,1693.8594 680.5938,1692.7656 Q681.2031,1691.6719 682.25,1691.0938 Q683.3125,1690.5 684.5,1690.5 Q685.2188,1690.5 685.8438,1690.75 Q686.4688,1691 687,1691.5 Z " fill="#000000"/><text fill="#000000" font-family="sans-serif" font-size="12" lengthAdjust="spacing" textLength="65" x="699" y="1699.9102">Parameters</text><line style="stroke:#A80036;stroke-width:1.5;" x1="671" x2="766" y1="1711" y2="1711"/><text fill="#000000" font-family="sans-serif" font-size="11" lengthAdjust="spacing" textLength="49" x="676" y="1726.4189">parameter</text><!--MD5=[a96594a83e2ecdc78cbf17c2ddf01934]
class Category--><rect codeLine="164" fill="#FEFECE" filter="url(#ffgj3i6xbl5s)" height="53.8359" id="Category" style="stroke:#A80036;stroke-width:1.5;" width="81" x="678" y="1971"/><ellipse cx="693" cy="1987" fill="#ADD1B2" rx="11" ry="11" style="stroke:#A80036;stroke-width:1.0;"/><path d="M695,1983.5 Q695.2031,1983 695.4375,1982.75 Q695.6719,1982.5 695.9375,1982.5 Q696.4063,1982.5 696.7031,1982.7813 Q697,1983.0625 697,1983.7188 L697,1985.2813 Q697,1985.9375 696.7188,1986.2188 Q696.4375,1986.5 696,1986.5 Q695.6094,1986.5 695.3594,1986.3281 Q695.1094,1986.1563 695,1985.7031 Q694.9531,1985.3906 694.7813,1985.2188 Q694.4688,1984.8906 693.9063,1984.7031 Q693.3438,1984.5 692.7813,1984.5 Q692.0781,1984.5 691.4844,1984.7813 Q690.9063,1985.0625 690.4531,1985.6875 Q690,1986.3125 690,1987.1719 L690,1988.0938 Q690,1989.125 690.8438,1989.8125 Q691.6875,1990.5 693.1875,1990.5 Q694.0781,1990.5 694.7031,1990.2969 Q695.0625,1990.1875 695.4688,1989.8281 Q695.7344,1989.625 695.875,1989.5625 Q696.0156,1989.5 696.1875,1989.5 Q696.5156,1989.5 696.75,1989.7656 Q697,1990.0156 697,1990.375 Q697,1990.7188 696.6563,1991.125 Q696.1563,1991.7188 695.3594,1992.0469 Q694.3125,1992.5 693.0313,1992.5 Q691.5313,1992.5 690.3281,1991.9063 Q689.3594,1991.4375 688.6719,1990.4219 Q688,1989.4063 688,1988.2031 L688,1987.1094 Q688,1985.8594 688.5938,1984.7656 Q689.2031,1983.6719 690.25,1983.0938 Q691.3125,1982.5 692.5,1982.5 Q693.2188,1982.5 693.8438,1982.75 Q694.4688,1983 695,1983.5 Z " fill="#000000"/><text fill="#000000" font-family="sans-serif" font-size="12" lengthAdjust="spacing" textLength="49" x="707" y="1991.9102">Category</text><line style="stroke:#A80036;stroke-width:1.5;" x1="679" x2="758" y1="2003" y2="2003"/><text fill="#000000" font-family="sans-serif" font-size="11" lengthAdjust="spacing" textLength="43" x="684" y="2018.4189">category</text><!--MD5=[07fac490821434e9349ca2c87b2e9012]
class Test_Parameters--><rect codeLine="168" fill="#FEFECE" filter="url(#ffgj3i6xbl5s)" height="67.6719" id="Test_Parameters" style="stroke:#A80036;stroke-width:1.5;" width="128" x="654.5" y="1484.5"/><ellipse cx="669.5" cy="1500.5" fill="#ADD1B2" rx="11" ry="11" style="stroke:#A80036;stroke-width:1.0;"/><path d="M671.5,1497 Q671.7031,1496.5 671.9375,1496.25 Q672.1719,1496 672.4375,1496 Q672.9063,1496 673.2031,1496.2813 Q673.5,1496.5625 673.5,1497.2188 L673.5,1498.7813 Q673.5,1499.4375 673.2188,1499.7188 Q672.9375,1500 672.5,1500 Q672.1094,1500 671.8594,1499.8281 Q671.6094,1499.6563 671.5,1499.2031 Q671.4531,1498.8906 671.2813,1498.7188 Q670.9688,1498.3906 670.4063,1498.2031 Q669.8438,1498 669.2813,1498 Q668.5781,1498 667.9844,1498.2813 Q667.4063,1498.5625 666.9531,1499.1875 Q666.5,1499.8125 666.5,1500.6719 L666.5,1501.5938 Q666.5,1502.625 667.3438,1503.3125 Q668.1875,1504 669.6875,1504 Q670.5781,1504 671.2031,1503.7969 Q671.5625,1503.6875 671.9688,1503.3281 Q672.2344,1503.125 672.375,1503.0625 Q672.5156,1503 672.6875,1503 Q673.0156,1503 673.25,1503.2656 Q673.5,1503.5156 673.5,1503.875 Q673.5,1504.2188 673.1563,1504.625 Q672.6563,1505.2188 671.8594,1505.5469 Q670.8125,1506 669.5313,1506 Q668.0313,1506 666.8281,1505.4063 Q665.8594,1504.9375 665.1719,1503.9219 Q664.5,1502.9063 664.5,1501.7031 L664.5,1500.6094 Q664.5,1499.3594 665.0938,1498.2656 Q665.7031,1497.1719 666.75,1496.5938 Q667.8125,1496 669,1496 Q669.7188,1496 670.3438,1496.25 Q670.9688,1496.5 671.5,1497 Z " fill="#000000"/><text fill="#000000" font-family="sans-serif" font-size="12" lengthAdjust="spacing" textLength="96" x="683.5" y="1505.4102">Test_Parameters</text><line style="stroke:#A80036;stroke-width:1.5;" x1="655.5" x2="781.5" y1="1516.5" y2="1516.5"/><text fill="#000000" font-family="sans-serif" font-size="11" lengthAdjust="spacing" textLength="29" x="660.5" y="1531.9189">idTest</text><text fill="#000000" font-family="sans-serif" font-size="11" lengthAdjust="spacing" textLength="63" x="660.5" y="1545.7549">idParameters</text><!--MD5=[c2bf8570e5c2c10251f834c2bbd094ec]
class Parameters_Category--><rect codeLine="173" fill="#FEFECE" filter="url(#ffgj3i6xbl5s)" height="67.6719" id="Parameters_Category" style="stroke:#A80036;stroke-width:1.5;" width="153" x="642" y="1825"/><ellipse cx="657" cy="1841" fill="#ADD1B2" rx="11" ry="11" style="stroke:#A80036;stroke-width:1.0;"/><path d="M659,1837.5 Q659.2031,1837 659.4375,1836.75 Q659.6719,1836.5 659.9375,1836.5 Q660.4063,1836.5 660.7031,1836.7813 Q661,1837.0625 661,1837.7188 L661,1839.2813 Q661,1839.9375 660.7188,1840.2188 Q660.4375,1840.5 660,1840.5 Q659.6094,1840.5 659.3594,1840.3281 Q659.1094,1840.1563 659,1839.7031 Q658.9531,1839.3906 658.7813,1839.2188 Q658.4688,1838.8906 657.9063,1838.7031 Q657.3438,1838.5 656.7813,1838.5 Q656.0781,1838.5 655.4844,1838.7813 Q654.9063,1839.0625 654.4531,1839.6875 Q654,1840.3125 654,1841.1719 L654,1842.0938 Q654,1843.125 654.8438,1843.8125 Q655.6875,1844.5 657.1875,1844.5 Q658.0781,1844.5 658.7031,1844.2969 Q659.0625,1844.1875 659.4688,1843.8281 Q659.7344,1843.625 659.875,1843.5625 Q660.0156,1843.5 660.1875,1843.5 Q660.5156,1843.5 660.75,1843.7656 Q661,1844.0156 661,1844.375 Q661,1844.7188 660.6563,1845.125 Q660.1563,1845.7188 659.3594,1846.0469 Q658.3125,1846.5 657.0313,1846.5 Q655.5313,1846.5 654.3281,1845.9063 Q653.3594,1845.4375 652.6719,1844.4219 Q652,1843.4063 652,1842.2031 L652,1841.1094 Q652,1839.8594 652.5938,1838.7656 Q653.2031,1837.6719 654.25,1837.0938 Q655.3125,1836.5 656.5,1836.5 Q657.2188,1836.5 657.8438,1836.75 Q658.4688,1837 659,1837.5 Z " fill="#000000"/><text fill="#000000" font-family="sans-serif" font-size="12" lengthAdjust="spacing" textLength="121" x="671" y="1845.9102">Parameters_Category</text><line style="stroke:#A80036;stroke-width:1.5;" x1="643" x2="794" y1="1857" y2="1857"/><text fill="#000000" font-family="sans-serif" font-size="11" lengthAdjust="spacing" textLength="63" x="648" y="1872.4189">idParameters</text><text fill="#000000" font-family="sans-serif" font-size="11" lengthAdjust="spacing" textLength="52" x="648" y="1886.2549">idCategory</text><!--MD5=[76b5e19c9337179d2d7ae334371d68c8]
class Notification--><rect codeLine="178" fill="#FEFECE" filter="url(#ffgj3i6xbl5s)" height="53.8359" id="Notification" style="stroke:#A80036;stroke-width:1.5;" width="93" x="611" y="867.5"/><ellipse cx="626" cy="883.5" fill="#ADD1B2" rx="11" ry="11" style="stroke:#A80036;stroke-width:1.0;"/><path d="M628,880 Q628.2031,879.5 628.4375,879.25 Q628.6719,879 628.9375,879 Q629.4063,879 629.7031,879.2813 Q630,879.5625 630,880.2188 L630,881.7813 Q630,882.4375 629.7188,882.7188 Q629.4375,883 629,883 Q628.6094,883 628.3594,882.8281 Q628.1094,882.6563 628,882.2031 Q627.9531,881.8906 627.7813,881.7188 Q627.4688,881.3906 626.9063,881.2031 Q626.3438,881 625.7813,881 Q625.0781,881 624.4844,881.2813 Q623.9063,881.5625 623.4531,882.1875 Q623,882.8125 623,883.6719 L623,884.5938 Q623,885.625 623.8438,886.3125 Q624.6875,887 626.1875,887 Q627.0781,887 627.7031,886.7969 Q628.0625,886.6875 628.4688,886.3281 Q628.7344,886.125 628.875,886.0625 Q629.0156,886 629.1875,886 Q629.5156,886 629.75,886.2656 Q630,886.5156 630,886.875 Q630,887.2188 629.6563,887.625 Q629.1563,888.2188 628.3594,888.5469 Q627.3125,889 626.0313,889 Q624.5313,889 623.3281,888.4063 Q622.3594,887.9375 621.6719,886.9219 Q621,885.9063 621,884.7031 L621,883.6094 Q621,882.3594 621.5938,881.2656 Q622.2031,880.1719 623.25,879.5938 Q624.3125,879 625.5,879 Q626.2188,879 626.8438,879.25 Q627.4688,879.5 628,880 Z " fill="#000000"/><text fill="#000000" font-family="sans-serif" font-size="12" lengthAdjust="spacing" textLength="61" x="640" y="888.4102">Notification</text><line style="stroke:#A80036;stroke-width:1.5;" x1="612" x2="703" y1="899.5" y2="899.5"/><text fill="#000000" font-family="sans-serif" font-size="11" lengthAdjust="spacing" textLength="21" x="617" y="914.9189">type</text><!--MD5=[e7782590a7c561973da3493ba56a1e8f]
class ReportNHS--><rect codeLine="182" fill="#FEFECE" filter="url(#ffgj3i6xbl5s)" height="53.8359" id="ReportNHS" style="stroke:#A80036;stroke-width:1.5;" width="95" x="448" y="166.5"/><ellipse cx="463" cy="182.5" fill="#ADD1B2" rx="11" ry="11" style="stroke:#A80036;stroke-width:1.0;"/><path d="M465,179 Q465.2031,178.5 465.4375,178.25 Q465.6719,178 465.9375,178 Q466.4063,178 466.7031,178.2813 Q467,178.5625 467,179.2188 L467,180.7813 Q467,181.4375 466.7188,181.7188 Q466.4375,182 466,182 Q465.6094,182 465.3594,181.8281 Q465.1094,181.6563 465,181.2031 Q464.9531,180.8906 464.7813,180.7188 Q464.4688,180.3906 463.9063,180.2031 Q463.3438,180 462.7813,180 Q462.0781,180 461.4844,180.2813 Q460.9063,180.5625 460.4531,181.1875 Q460,181.8125 460,182.6719 L460,183.5938 Q460,184.625 460.8438,185.3125 Q461.6875,186 463.1875,186 Q464.0781,186 464.7031,185.7969 Q465.0625,185.6875 465.4688,185.3281 Q465.7344,185.125 465.875,185.0625 Q466.0156,185 466.1875,185 Q466.5156,185 466.75,185.2656 Q467,185.5156 467,185.875 Q467,186.2188 466.6563,186.625 Q466.1563,187.2188 465.3594,187.5469 Q464.3125,188 463.0313,188 Q461.5313,188 460.3281,187.4063 Q459.3594,186.9375 458.6719,185.9219 Q458,184.9063 458,183.7031 L458,182.6094 Q458,181.3594 458.5938,180.2656 Q459.2031,179.1719 460.25,178.5938 Q461.3125,178 462.5,178 Q463.2188,178 463.8438,178.25 Q464.4688,178.5 465,179 Z " fill="#000000"/><text fill="#000000" font-family="sans-serif" font-size="12" lengthAdjust="spacing" textLength="63" x="477" y="187.4102">ReportNHS</text><line style="stroke:#A80036;stroke-width:1.5;" x1="449" x2="542" y1="198.5" y2="198.5"/><text fill="#000000" font-family="sans-serif" font-size="11" lengthAdjust="spacing" textLength="53" x="454" y="213.9189">information</text><!--MD5=[f8a1b4d6e8615d9b2288a1baa978680f]
class NHSAPI--><rect codeLine="186" fill="#FEFECE" filter="url(#ffgj3i6xbl5s)" height="40" id="NHSAPI" style="stroke:#A80036;stroke-width:1.5;" width="76" x="463.5" y="14"/><ellipse cx="478.5" cy="30" fill="#ADD1B2" rx="11" ry="11" style="stroke:#A80036;stroke-width:1.0;"/><path d="M480.5,26.5 Q480.7031,26 480.9375,25.75 Q481.1719,25.5 481.4375,25.5 Q481.9063,25.5 482.2031,25.7813 Q482.5,26.0625 482.5,26.7188 L482.5,28.2813 Q482.5,28.9375 482.2188,29.2188 Q481.9375,29.5 481.5,29.5 Q481.1094,29.5 480.8594,29.3281 Q480.6094,29.1563 480.5,28.7031 Q480.4531,28.3906 480.2813,28.2188 Q479.9688,27.8906 479.4063,27.7031 Q478.8438,27.5 478.2813,27.5 Q477.5781,27.5 476.9844,27.7813 Q476.4063,28.0625 475.9531,28.6875 Q475.5,29.3125 475.5,30.1719 L475.5,31.0938 Q475.5,32.125 476.3438,32.8125 Q477.1875,33.5 478.6875,33.5 Q479.5781,33.5 480.2031,33.2969 Q480.5625,33.1875 480.9688,32.8281 Q481.2344,32.625 481.375,32.5625 Q481.5156,32.5 481.6875,32.5 Q482.0156,32.5 482.25,32.7656 Q482.5,33.0156 482.5,33.375 Q482.5,33.7188 482.1563,34.125 Q481.6563,34.7188 480.8594,35.0469 Q479.8125,35.5 478.5313,35.5 Q477.0313,35.5 475.8281,34.9063 Q474.8594,34.4375 474.1719,33.4219 Q473.5,32.4063 473.5,31.2031 L473.5,30.1094 Q473.5,28.8594 474.0938,27.7656 Q474.7031,26.6719 475.75,26.0938 Q476.8125,25.5 478,25.5 Q478.7188,25.5 479.3438,25.75 Q479.9688,26 480.5,26.5 Z " fill="#000000"/><text fill="#000000" font-family="sans-serif" font-size="12" lengthAdjust="spacing" textLength="44" x="492.5" y="34.9102">NHSAPI</text><line style="stroke:#A80036;stroke-width:1.5;" x1="464.5" x2="538.5" y1="46" y2="46"/><!--MD5=[e671f3231fffda95da92cdb61ed3f059]
class BarcodeAPI--><rect codeLine="190" fill="#FEFECE" filter="url(#ffgj3i6xbl5s)" height="40" id="BarcodeAPI" style="stroke:#A80036;stroke-width:1.5;" width="96" x="406.5" y="1498.5"/><ellipse cx="421.5" cy="1514.5" fill="#ADD1B2" rx="11" ry="11" style="stroke:#A80036;stroke-width:1.0;"/><path d="M423.5,1511 Q423.7031,1510.5 423.9375,1510.25 Q424.1719,1510 424.4375,1510 Q424.9063,1510 425.2031,1510.2813 Q425.5,1510.5625 425.5,1511.2188 L425.5,1512.7813 Q425.5,1513.4375 425.2188,1513.7188 Q424.9375,1514 424.5,1514 Q424.1094,1514 423.8594,1513.8281 Q423.6094,1513.6563 423.5,1513.2031 Q423.4531,1512.8906 423.2813,1512.7188 Q422.9688,1512.3906 422.4063,1512.2031 Q421.8438,1512 421.2813,1512 Q420.5781,1512 419.9844,1512.2813 Q419.4063,1512.5625 418.9531,1513.1875 Q418.5,1513.8125 418.5,1514.6719 L418.5,1515.5938 Q418.5,1516.625 419.3438,1517.3125 Q420.1875,1518 421.6875,1518 Q422.5781,1518 423.2031,1517.7969 Q423.5625,1517.6875 423.9688,1517.3281 Q424.2344,1517.125 424.375,1517.0625 Q424.5156,1517 424.6875,1517 Q425.0156,1517 425.25,1517.2656 Q425.5,1517.5156 425.5,1517.875 Q425.5,1518.2188 425.1563,1518.625 Q424.6563,1519.2188 423.8594,1519.5469 Q422.8125,1520 421.5313,1520 Q420.0313,1520 418.8281,1519.4063 Q417.8594,1518.9375 417.1719,1517.9219 Q416.5,1516.9063 416.5,1515.7031 L416.5,1514.6094 Q416.5,1513.3594 417.0938,1512.2656 Q417.7031,1511.1719 418.75,1510.5938 Q419.8125,1510 421,1510 Q421.7188,1510 422.3438,1510.25 Q422.9688,1510.5 423.5,1511 Z " fill="#000000"/><text fill="#000000" font-family="sans-serif" font-size="12" lengthAdjust="spacing" textLength="64" x="435.5" y="1519.4102">BarcodeAPI</text><line style="stroke:#A80036;stroke-width:1.5;" x1="407.5" x2="501.5" y1="1530.5" y2="1530.5"/><!--MD5=[716357c211271db9a8372f951bd0601d]
class AutomaticValidation--><rect codeLine="194" fill="#FEFECE" filter="url(#ffgj3i6xbl5s)" height="40" id="AutomaticValidation" style="stroke:#A80036;stroke-width:1.5;" width="140" x="597.5" y="479.5"/><ellipse cx="612.5" cy="495.5" fill="#ADD1B2" rx="11" ry="11" style="stroke:#A80036;stroke-width:1.0;"/><path d="M614.5,492 Q614.7031,491.5 614.9375,491.25 Q615.1719,491 615.4375,491 Q615.9063,491 616.2031,491.2813 Q616.5,491.5625 616.5,492.2188 L616.5,493.7813 Q616.5,494.4375 616.2188,494.7188 Q615.9375,495 615.5,495 Q615.1094,495 614.8594,494.8281 Q614.6094,494.6563 614.5,494.2031 Q614.4531,493.8906 614.2813,493.7188 Q613.9688,493.3906 613.4063,493.2031 Q612.8438,493 612.2813,493 Q611.5781,493 610.9844,493.2813 Q610.4063,493.5625 609.9531,494.1875 Q609.5,494.8125 609.5,495.6719 L609.5,496.5938 Q609.5,497.625 610.3438,498.3125 Q611.1875,499 612.6875,499 Q613.5781,499 614.2031,498.7969 Q614.5625,498.6875 614.9688,498.3281 Q615.2344,498.125 615.375,498.0625 Q615.5156,498 615.6875,498 Q616.0156,498 616.25,498.2656 Q616.5,498.5156 616.5,498.875 Q616.5,499.2188 616.1563,499.625 Q615.6563,500.2188 614.8594,500.5469 Q613.8125,501 612.5313,501 Q611.0313,501 609.8281,500.4063 Q608.8594,499.9375 608.1719,498.9219 Q607.5,497.9063 607.5,496.7031 L607.5,495.6094 Q607.5,494.3594 608.0938,493.2656 Q608.7031,492.1719 609.75,491.5938 Q610.8125,491 612,491 Q612.7188,491 613.3438,491.25 Q613.9688,491.5 614.5,492 Z " fill="#000000"/><text fill="#000000" font-family="sans-serif" font-size="12" lengthAdjust="spacing" textLength="108" x="626.5" y="500.4102">AutomaticValidation</text><line style="stroke:#A80036;stroke-width:1.5;" x1="598.5" x2="736.5" y1="511.5" y2="511.5"/><!--MD5=[6074d13d675c7f36203c2f4fa4699d0f]
link Company to ChemicalLab--><path codeLine="198" d="M291.72,61.01 C302.52,83.99 318.52,118.05 331.54,145.75 " fill="none" id="Company-ChemicalLab" style="stroke:#A80036;stroke-width:1.0;"/><polygon fill="#000000" points="319.6265,104.7011,318.4395,95.2648,313.1198,97.7647,319.6265,104.7011" style="stroke:#000000;stroke-width:1.0;"/><text fill="#000000" font-family="sans-serif" font-size="13" lengthAdjust="spacing" textLength="30" x="326.5" y="105.4951">owns</text><text fill="#000000" font-family="sans-serif" font-size="13" lengthAdjust="spacing" textLength="7" x="286.6275" y="82.22">1</text><text fill="#000000" font-family="sans-serif" font-size="13" lengthAdjust="spacing" textLength="7" x="320.8006" y="135.0574">1</text><!--MD5=[aafc5d8a5829a6a8d6dc892cb1ff5d24]
link Company to ClinicalAnalysisLaboratory--><path codeLine="199" d="M265,61.05 C238.11,109.38 179.99,213.81 144.36,277.84 " fill="none" id="Company-ClinicalAnalysisLaboratory" style="stroke:#A80036;stroke-width:1.0;"/><polygon fill="#000000" points="250.0687,104.5448,257.035,98.0702,251.8989,95.212,250.0687,104.5448" style="stroke:#000000;stroke-width:1.0;"/><text fill="#000000" font-family="sans-serif" font-size="13" lengthAdjust="spacing" textLength="30" x="261.5" y="105.4951">owns</text><text fill="#000000" font-family="sans-serif" font-size="13" lengthAdjust="spacing" textLength="7" x="254.0625" y="82.2687">1</text><text fill="#000000" font-family="sans-serif" font-size="13" lengthAdjust="spacing" textLength="5" x="142.8655" y="267.3178">*</text><!--MD5=[7048eb257bae2750d747ca61a113ed73]
link Client to Receptionist--><path codeLine="200" d="M726.66,1150.32 C786.73,1208.15 869.43,1301.08 904.5,1402 C909.73,1417.06 911.62,1433.9 911.73,1449.97 " fill="none" id="Client-Receptionist" style="stroke:#A80036;stroke-width:1.0;"/><polygon fill="#000000" points="898.1274,1307.9298,895.8749,1298.6899,890.8739,1301.7785,898.1274,1307.9298" style="stroke:#000000;stroke-width:1.0;"/><text fill="#000000" font-family="sans-serif" font-size="13" lengthAdjust="spacing" textLength="75" x="904.5" y="1308.9951">registered by</text><text fill="#000000" font-family="sans-serif" font-size="13" lengthAdjust="spacing" textLength="5" x="734.4978" y="1153.729">*</text><text fill="#000000" font-family="sans-serif" font-size="13" lengthAdjust="spacing" textLength="7" x="905.2473" y="1439.122">1</text><!--MD5=[502b51bc079239060389dab43b7d3470]
link Client to Test--><path codeLine="201" d="M657.5,1157.19 C657.5,1191.78 657.5,1232.71 657.5,1262.3 " fill="none" id="Client-Test" style="stroke:#A80036;stroke-width:1.0;"/><polygon fill="#000000" points="662.5,1201.1758,665.4389,1192.1307,659.5611,1192.1307,662.5,1201.1758" style="stroke:#000000;stroke-width:1.0;"/><text fill="#000000" font-family="sans-serif" font-size="13" lengthAdjust="spacing" textLength="46" x="671.5" y="1201.4951">asks for</text><text fill="#000000" font-family="sans-serif" font-size="13" lengthAdjust="spacing" textLength="7" x="650.1555" y="1178.2589">1</text><text fill="#000000" font-family="sans-serif" font-size="13" lengthAdjust="spacing" textLength="5" x="652.0859" y="1251.7162">*</text><!--MD5=[10af4306acabee641eea198ac06587b8]
link Test to Receptionist--><path codeLine="202" d="M714,1344.7 C737.03,1361.71 763.57,1382.17 786.5,1402 C809.06,1421.51 832.7,1444.34 852.77,1464.53 " fill="none" id="Test-Receptionist" style="stroke:#A80036;stroke-width:1.0;"/><polygon fill="#000000" points="815.2843,1414.4436,810.3592,1406.3077,806.5176,1410.7564,815.2843,1414.4436" style="stroke:#000000;stroke-width:1.0;"/><text fill="#000000" font-family="sans-serif" font-size="13" lengthAdjust="spacing" textLength="75" x="820.5" y="1416.4951">registered by</text><text fill="#000000" font-family="sans-serif" font-size="13" lengthAdjust="spacing" textLength="5" x="716.9313" y="1365.4833">*</text><text fill="#000000" font-family="sans-serif" font-size="13" lengthAdjust="spacing" textLength="7" x="838.1439" y="1453.3457">1</text><!--MD5=[b2b9bf91e1a4ebd84260ddbcccd04c97]
link Test to Test_Parameters--><path codeLine="203" d="M650.4,1344.6 C647.88,1367.2 647.23,1395.69 654.5,1420 C661.52,1443.47 676.2,1466.54 689.73,1484.34 " fill="none" id="Test-Test_Parameters" style="stroke:#A80036;stroke-width:1.0;"/><polygon fill="#000000" points="660.8546,1415.9888,661.2331,1406.4858,655.5751,1408.0782,660.8546,1415.9888" style="stroke:#000000;stroke-width:1.0;"/><text fill="#000000" font-family="sans-serif" font-size="13" lengthAdjust="spacing" textLength="113" x="668.5" y="1416.4951">request analysis for</text><text fill="#000000" font-family="sans-serif" font-size="13" lengthAdjust="spacing" textLength="5" x="643.99" y="1365.3686">*</text><text fill="#000000" font-family="sans-serif" font-size="13" lengthAdjust="spacing" textLength="7" x="676.3768" y="1473.6018">1</text><!--MD5=[8c28f2a590b3bd08381d4dd7f7570784]
link Test_Parameters to Parameters--><path codeLine="204" d="M718.5,1552.66 C718.5,1588.72 718.5,1645.61 718.5,1678.71 " fill="none" id="Test_Parameters-Parameters" style="stroke:#A80036;stroke-width:1.0;"/><polygon fill="#000000" points="723.5,1631.1758,726.4389,1622.1307,720.5611,1622.1307,723.5,1631.1758" style="stroke:#000000;stroke-width:1.0;"/><text fill="#000000" font-family="sans-serif" font-size="13" lengthAdjust="spacing" textLength="113" x="732.5" y="1631.4951">request analysis for</text><text fill="#000000" font-family="sans-serif" font-size="13" lengthAdjust="spacing" textLength="7" x="710.8766" y="1573.7254">1</text><text fill="#000000" font-family="sans-serif" font-size="13" lengthAdjust="spacing" textLength="5" x="712.9219" y="1668.1039">*</text><!--MD5=[ab4a93f67fde72e5ff45a4a9446fb195]
link Parameters to Parameters_Category--><path codeLine="205" d="M718.5,1733.3 C718.5,1758.74 718.5,1797.36 718.5,1824.88 " fill="none" id="Parameters-Parameters_Category" style="stroke:#A80036;stroke-width:1.0;"/><polygon fill="#000000" points="723.5,1791.1758,726.4389,1782.1307,720.5611,1782.1307,723.5,1791.1758" style="stroke:#000000;stroke-width:1.0;"/><text fill="#000000" font-family="sans-serif" font-size="13" lengthAdjust="spacing" textLength="93" x="732.5" y="1791.4951">presented under</text><text fill="#000000" font-family="sans-serif" font-size="13" lengthAdjust="spacing" textLength="5" x="712.9844" y="1754.1289">*</text><text fill="#000000" font-family="sans-serif" font-size="13" lengthAdjust="spacing" textLength="7" x="710.8109" y="1814.1496">1</text><!--MD5=[300c8d11f51cf32803916a0a625704f3]
link Parameters_Category to Category--><path codeLine="206" d="M718.5,1893.16 C718.5,1917.08 718.5,1948.91 718.5,1970.99 " fill="none" id="Parameters_Category-Category" style="stroke:#A80036;stroke-width:1.0;"/><polygon fill="#000000" points="723.5,1937.1758,726.4389,1928.1307,720.5611,1928.1307,723.5,1937.1758" style="stroke:#000000;stroke-width:1.0;"/><text fill="#000000" font-family="sans-serif" font-size="13" lengthAdjust="spacing" textLength="93" x="732.5" y="1937.4951">presented under</text><text fill="#000000" font-family="sans-serif" font-size="13" lengthAdjust="spacing" textLength="7" x="710.8766" y="1914.2254">1</text><text fill="#000000" font-family="sans-serif" font-size="13" lengthAdjust="spacing" textLength="5" x="712.8906" y="1960.0143">*</text><!--MD5=[2c46651aa9ea3a6d986170fabc83ad48]
link Category to Administrator--><path codeLine="207" d="M718.5,2025.05 C718.5,2045.66 718.5,2075.42 718.5,2102.65 " fill="none" id="Category-Administrator" style="stroke:#A80036;stroke-width:1.0;"/><polygon fill="#000000" points="723.5,2069.1758,726.4389,2060.1307,720.5611,2060.1307,723.5,2069.1758" style="stroke:#000000;stroke-width:1.0;"/><text fill="#000000" font-family="sans-serif" font-size="13" lengthAdjust="spacing" textLength="61" x="732.5" y="2069.4951">created by</text><text fill="#000000" font-family="sans-serif" font-size="13" lengthAdjust="spacing" textLength="7" x="710.7344" y="2046.2687">1</text><text fill="#000000" font-family="sans-serif" font-size="13" lengthAdjust="spacing" textLength="5" x="713.2422" y="2092.2457">*</text><!--MD5=[fd6b760e043a37fa7bae8a9e02ccd38f]
link Client to MedicalLabTechnicians--><path codeLine="208" d="M588.42,1123.02 C510.19,1160.97 382.83,1222.77 299.86,1263.03 " fill="none" id="Client-MedicalLabTechnicians" style="stroke:#A80036;stroke-width:1.0;"/><polygon fill="#000000" points="452.0016,1198.3584,461.4223,1197.0541,458.8564,1191.7659,452.0016,1198.3584" style="stroke:#000000;stroke-width:1.0;"/><text fill="#000000" font-family="sans-serif" font-size="13" lengthAdjust="spacing" textLength="66" x="465.5" y="1201.4951">is called by</text><text fill="#000000" font-family="sans-serif" font-size="13" lengthAdjust="spacing" textLength="7" x="573.4816" y="1123.4431">1</text><text fill="#000000" font-family="sans-serif" font-size="13" lengthAdjust="spacing" textLength="7" x="307.4178" y="1256.2305">1</text><!--MD5=[33f23954fbc2d9bbc6df581743bf099e]
link MedicalLabTechnicians to Sample--><path codeLine="209" d="M218.5,1372.19 C218.5,1406.78 218.5,1447.71 218.5,1477.3 " fill="none" id="MedicalLabTechnicians-Sample" style="stroke:#A80036;stroke-width:1.0;"/><polygon fill="#000000" points="223.5,1416.1758,226.4389,1407.1307,220.5611,1407.1307,223.5,1416.1758" style="stroke:#000000;stroke-width:1.0;"/><text fill="#000000" font-family="sans-serif" font-size="13" lengthAdjust="spacing" textLength="38" x="232.5" y="1416.4951">collect</text><text fill="#000000" font-family="sans-serif" font-size="13" lengthAdjust="spacing" textLength="7" x="211.1555" y="1393.2589">1</text><text fill="#000000" font-family="sans-serif" font-size="13" lengthAdjust="spacing" textLength="7" x="210.9203" y="1466.7162">1</text><!--MD5=[86ff5fa333b7b0e2a198ebb908e50f68]
link Sample to SampleIdentification--><path codeLine="210" d="M207.12,1559.75 C202.84,1583.34 201.85,1612.78 215.5,1635 C230.19,1658.92 255.88,1674.98 281.15,1685.6 " fill="none" id="Sample-SampleIdentification" style="stroke:#A80036;stroke-width:1.0;"/><polygon fill="#000000" points="223.0351,1630.4854,220.9822,1621.1991,215.9159,1624.1793,223.0351,1630.4854" style="stroke:#000000;stroke-width:1.0;"/><text fill="#000000" font-family="sans-serif" font-size="13" lengthAdjust="spacing" textLength="97" x="229.5" y="1631.4951">identifies sample</text><text fill="#000000" font-family="sans-serif" font-size="13" lengthAdjust="spacing" textLength="7" x="197.9345" y="1580.5407">1</text><text fill="#000000" font-family="sans-serif" font-size="13" lengthAdjust="spacing" textLength="7" x="266.328" y="1680.2099">1</text><!--MD5=[dcd4ea9c59ac87137b5907bf43b66272]
link ClinicalAnalysisLaboratory to MedicalLabTechnicians--><path codeLine="211" d="M115.69,387.09 C116.87,444.65 118.5,538.79 118.5,620 C118.5,620 118.5,620 118.5,1089.5 C118.5,1141.59 143.31,1194.62 168.21,1234.75 " fill="none" id="ClinicalAnalysisLaboratory-MedicalLabTechnicians" style="stroke:#A80036;stroke-width:1.0;"/><polygon fill="#000000" points="123.8092,813.1662,126.1832,803.9567,120.3165,804.3202,123.8092,813.1662" style="stroke:#000000;stroke-width:1.0;"/><text fill="#000000" font-family="sans-serif" font-size="13" lengthAdjust="spacing" textLength="49" x="132.5" y="813.4951">employs</text><text fill="#000000" font-family="sans-serif" font-size="13" lengthAdjust="spacing" textLength="7" x="108.394" y="408.6155">1</text><text fill="#000000" font-family="sans-serif" font-size="13" lengthAdjust="spacing" textLength="5" x="157.766" y="1224.3561">*</text><!--MD5=[3d81d0ac41240a70c60f2ad97b52bd4d]
link SampleIdentification to ChemicalLab--><path codeLine="212" d="M353.5,1664.83 C353.5,1627.26 353.5,1569.58 353.5,1519.5 C353.5,498.5 353.5,498.5 353.5,498.5 C353.5,407.33 353.5,300.77 353.5,241.11 " fill="none" id="SampleIdentification-ChemicalLab" style="stroke:#A80036;stroke-width:1.0;"/><polygon fill="#000000" points="358.5,976.1758,355.5611,985.2209,361.4389,985.2209,358.5,976.1758" style="stroke:#000000;stroke-width:1.0;"/><text fill="#000000" font-family="sans-serif" font-size="13" lengthAdjust="spacing" textLength="96" x="367.5" y="986.4951">sends sample to</text><text fill="#000000" font-family="sans-serif" font-size="13" lengthAdjust="spacing" textLength="7" x="345.9203" y="1654.2512">1</text><text fill="#000000" font-family="sans-serif" font-size="13" lengthAdjust="spacing" textLength="7" x="345.9859" y="262.7734">1</text><!--MD5=[160b8bcb9e97c954b63f2c4dd810af24]
link Company to CovidReport--><path codeLine="213" d="M236.59,40.12 C180.55,47.78 87.1,64.28 66.5,91 C56.17,104.4 54,122.03 55.34,138.82 " fill="none" id="Company-CovidReport" style="stroke:#A80036;stroke-width:1.0;"/><polygon fill="#000000" points="67.1089,102.567,76.458,100.8223,73.647,95.6602,67.1089,102.567" style="stroke:#000000;stroke-width:1.0;"/><text fill="#000000" font-family="sans-serif" font-size="13" lengthAdjust="spacing" textLength="112" x="80.5" y="105.4951">reports covid cases</text><text fill="#000000" font-family="sans-serif" font-size="13" lengthAdjust="spacing" textLength="7" x="221.9033" y="37.3464">1</text><text fill="#000000" font-family="sans-serif" font-size="13" lengthAdjust="spacing" textLength="5" x="48.2054" y="128.2953">*</text><!--MD5=[6a78d4182d6fda39a50da59bb7cd1efd]
link ChemicalLab to ChemistryTechnologist--><path codeLine="214" d="M406.88,235.97 C414.52,240.58 422.5,244.76 430.5,248 C507.31,279.07 540.05,241.63 614.5,278 C684.85,312.37 748.97,374.42 792.88,423.96 " fill="none" id="ChemicalLab-ChemistryTechnologist" style="stroke:#A80036;stroke-width:1.0;"/><polygon fill="#000000" points="762.9952,334.8651,756.1501,328.2624,753.5765,333.5469,762.9952,334.8651" style="stroke:#000000;stroke-width:1.0;"/><text fill="#000000" font-family="sans-serif" font-size="13" lengthAdjust="spacing" textLength="75" x="767.5" y="337.9951">gives sample</text><text fill="#000000" font-family="sans-serif" font-size="13" lengthAdjust="spacing" textLength="7" x="414.5233" y="238.0975">1</text><text fill="#000000" font-family="sans-serif" font-size="13" lengthAdjust="spacing" textLength="5" x="781.7651" y="413.2643">*</text><!--MD5=[8c58dc53fccb62901f18da015a0eac30]
link ChemicalLab to SpecialistDoctor--><path codeLine="215" d="M300.42,219.72 C277.68,233.52 253.42,252.96 240.5,278 C218.69,320.28 217.11,373.46 221.26,417 " fill="none" id="ChemicalLab-SpecialistDoctor" style="stroke:#A80036;stroke-width:1.0;"/><polygon fill="#000000" points="243.638,337.3162,249.7339,330.0161,244.2788,327.8272,243.638,337.3162" style="stroke:#000000;stroke-width:1.0;"/><text fill="#000000" font-family="sans-serif" font-size="13" lengthAdjust="spacing" textLength="72" x="254.5" y="337.9951">gives results</text><text fill="#000000" font-family="sans-serif" font-size="13" lengthAdjust="spacing" textLength="7" x="285.4634" y="219.7779">1</text><text fill="#000000" font-family="sans-serif" font-size="13" lengthAdjust="spacing" textLength="5" x="214.6246" y="406.1903">*</text><!--MD5=[ea4a37a070b547a484eb1acc58a2b0bb]
link SpecialistDoctor to Diagnosis--><path codeLine="216" d="M220.96,582.2 C219.53,592.21 218.32,602.31 217.5,612 C216.83,619.97 217.36,622 217.5,630 C217.71,641.89 218.1,654.73 218.52,666.7 " fill="none" id="SpecialistDoctor-Diagnosis" style="stroke:#A80036;stroke-width:1.0;"/><polygon fill="#000000" points="222.3557,626.1737,225.5545,617.2172,219.6791,617.0476,222.3557,626.1737" style="stroke:#000000;stroke-width:1.0;"/><text fill="#000000" font-family="sans-serif" font-size="13" lengthAdjust="spacing" textLength="95" x="231.5" y="626.4951">create diagnosis</text><text fill="#000000" font-family="sans-serif" font-size="13" lengthAdjust="spacing" textLength="7" x="212.4428" y="602.9558">1</text><text fill="#000000" font-family="sans-serif" font-size="13" lengthAdjust="spacing" textLength="7" x="210.7151" y="656.0001">1</text><!--MD5=[f9354208f6c52822cd622185925e008e]
link ChemistryTechnologist to SampleAnalysis--><path codeLine="217" d="M852.5,575.3 C852.5,608.26 852.5,645.68 852.5,673.27 " fill="none" id="ChemistryTechnologist-SampleAnalysis" style="stroke:#A80036;stroke-width:1.0;"/><polygon fill="#000000" points="857.5,626.1758,860.4389,617.1307,854.5611,617.1307,857.5,626.1758" style="stroke:#000000;stroke-width:1.0;"/><text fill="#000000" font-family="sans-serif" font-size="13" lengthAdjust="spacing" textLength="94" x="866.5" y="626.4951">analysis sample</text><text fill="#000000" font-family="sans-serif" font-size="13" lengthAdjust="spacing" textLength="7" x="845.1883" y="596.2881">1</text><text fill="#000000" font-family="sans-serif" font-size="13" lengthAdjust="spacing" textLength="7" x="844.9203" y="662.6813">1</text><!--MD5=[77378369948a9d63cee70a468eee3821]
link SampleAnalysis to TestResults--><path codeLine="218" d="M852.5,755.89 C852.5,782.97 852.5,818.71 852.5,846.98 " fill="none" id="SampleAnalysis-TestResults" style="stroke:#A80036;stroke-width:1.0;"/><polygon fill="#000000" points="857.5,813.1758,860.4389,804.1307,854.5611,804.1307,857.5,813.1758" style="stroke:#000000;stroke-width:1.0;"/><text fill="#000000" font-family="sans-serif" font-size="13" lengthAdjust="spacing" textLength="87" x="866.5" y="813.4951">sends analysis</text><text fill="#000000" font-family="sans-serif" font-size="13" lengthAdjust="spacing" textLength="7" x="845.0078" y="776.3899">1</text><text fill="#000000" font-family="sans-serif" font-size="13" lengthAdjust="spacing" textLength="7" x="844.9641" y="835.9742">1</text><!--MD5=[d5a15d1668da80a95098d8d17770a1da]
link ChemicalLab to LaboratoryCoordinator--><path codeLine="219" d="M373.54,241 C394.5,289.65 427.73,366.76 452.36,423.92 " fill="none" id="ChemicalLab-LaboratoryCoordinator" style="stroke:#A80036;stroke-width:1.0;"/><polygon fill="#000000" points="442.4786,337.2676,441.5983,327.7979,436.2002,330.1239,442.4786,337.2676" style="stroke:#000000;stroke-width:1.0;"/><text fill="#000000" font-family="sans-serif" font-size="13" lengthAdjust="spacing" textLength="156" x="449.5" y="337.9951">gives results and diagnosis</text><text fill="#000000" font-family="sans-serif" font-size="13" lengthAdjust="spacing" textLength="7" x="369.0727" y="262.9942">1</text><text fill="#000000" font-family="sans-serif" font-size="13" lengthAdjust="spacing" textLength="5" x="443.9501" y="413.2204">*</text><!--MD5=[da9610dcfcc5c6c9ebaa2371f73724f5]
link LaboratoryCoordinator to TestValidation--><path codeLine="220" d="M545.25,575.3 C567.93,603.23 593.22,634.36 614.04,659.99 " fill="none" id="LaboratoryCoordinator-TestValidation" style="stroke:#A80036;stroke-width:1.0;"/><polygon fill="#000000" points="594.6524,625.0568,591.2309,616.183,586.6684,619.8889,594.6524,625.0568" style="stroke:#000000;stroke-width:1.0;"/><text fill="#000000" font-family="sans-serif" font-size="13" lengthAdjust="spacing" textLength="28" x="600.5" y="626.4951">does</text><text fill="#000000" font-family="sans-serif" font-size="13" lengthAdjust="spacing" textLength="7" x="543.3488" y="596.2881">1</text><text fill="#000000" font-family="sans-serif" font-size="13" lengthAdjust="spacing" textLength="7" x="600.7298" y="649.0969">1</text><!--MD5=[036c9872ad7515ab1af27a534778c04f]
link TestValidation to Notification--><path codeLine="221" d="M657.5,769.39 C657.5,801.72 657.5,841.42 657.5,867.08 " fill="none" id="TestValidation-Notification" style="stroke:#A80036;stroke-width:1.0;"/><polygon fill="#000000" points="662.5,813.1758,665.4389,804.1307,659.5611,804.1307,662.5,813.1758" style="stroke:#000000;stroke-width:1.0;"/><text fill="#000000" font-family="sans-serif" font-size="13" lengthAdjust="spacing" textLength="36" x="671.5" y="813.4951">create</text><text fill="#000000" font-family="sans-serif" font-size="13" lengthAdjust="spacing" textLength="7" x="650.0734" y="790.5603">1</text><text fill="#000000" font-family="sans-serif" font-size="13" lengthAdjust="spacing" textLength="7" x="649.6906" y="856.4439">1</text><!--MD5=[c1a9c7f16ec55f9c4038f73c31b8becd]
link Notification to Client--><path codeLine="222" d="M657.5,921.79 C657.5,946.96 657.5,985.98 657.5,1019.84 " fill="none" id="Notification-Client" style="stroke:#A80036;stroke-width:1.0;"/><polygon fill="#000000" points="662.5,986.1758,665.4389,977.1307,659.5611,977.1307,662.5,986.1758" style="stroke:#000000;stroke-width:1.0;"/><text fill="#000000" font-family="sans-serif" font-size="13" lengthAdjust="spacing" textLength="79" x="671.5" y="986.4951">is received by</text><text fill="#000000" font-family="sans-serif" font-size="13" lengthAdjust="spacing" textLength="7" x="649.7781" y="942.6169">1</text><text fill="#000000" font-family="sans-serif" font-size="13" lengthAdjust="spacing" textLength="7" x="650.1172" y="1008.9778">1</text><!--MD5=[1a560b33699bcbb6db0e496f6c13d252]
link Company to ReportNHS--><path codeLine="223" d="M321.1,61.07 C335.36,70.27 351.29,80.85 365.5,91 C399.87,115.54 437.79,145.5 463.76,166.48 " fill="none" id="Company-ReportNHS" style="stroke:#A80036;stroke-width:1.0;"/><polygon fill="#000000" points="396.5213,103.1471,390.9932,95.4082,387.5002,100.1356,396.5213,103.1471" style="stroke:#000000;stroke-width:1.0;"/><text fill="#000000" font-family="sans-serif" font-size="13" lengthAdjust="spacing" textLength="40" x="401.5" y="105.4951">reports</text><text fill="#000000" font-family="sans-serif" font-size="13" lengthAdjust="spacing" textLength="7" x="322.4344" y="82.2931">1</text><text fill="#000000" font-family="sans-serif" font-size="13" lengthAdjust="spacing" textLength="5" x="450.414" y="155.5018">*</text><!--MD5=[d3ae7769497738fc37df075e7f5b88c6]
link NHSAPI to ReportNHS--><path codeLine="224" d="M500.76,54.31 C499.69,82.49 497.69,134.93 496.49,166.48 " fill="none" id="NHSAPI-ReportNHS" style="stroke:#A80036;stroke-width:1.0;"/><polygon fill="#000000" points="504.3098,105.1722,507.5907,96.2454,501.7171,96.0218,504.3098,105.1722" style="stroke:#000000;stroke-width:1.0;"/><text fill="#000000" font-family="sans-serif" font-size="13" lengthAdjust="spacing" textLength="57" x="513.5" y="105.4951">is used to</text><text fill="#000000" font-family="sans-serif" font-size="13" lengthAdjust="spacing" textLength="7" x="492.6205" y="75.4607">1</text><text fill="#000000" font-family="sans-serif" font-size="13" lengthAdjust="spacing" textLength="5" x="491.1219" y="155.5018">*</text><!--MD5=[681c2f77fd9090b3e88506587fe94b51]
link BarcodeAPI to SampleIdentification--><path codeLine="225" d="M444.07,1538.65 C427.94,1568.27 396.6,1625.85 375.35,1664.86 " fill="none" id="BarcodeAPI-SampleIdentification" style="stroke:#A80036;stroke-width:1.0;"/><polygon fill="#000000" points="404.109,1630.567,411.0155,1624.0286,405.8532,1621.2178,404.109,1630.567" style="stroke:#000000;stroke-width:1.0;"/><text fill="#000000" font-family="sans-serif" font-size="13" lengthAdjust="spacing" textLength="57" x="415.5" y="1631.4951">is used to</text><text fill="#000000" font-family="sans-serif" font-size="13" lengthAdjust="spacing" textLength="7" x="433.1522" y="1560.1117">1</text><text fill="#000000" font-family="sans-serif" font-size="13" lengthAdjust="spacing" textLength="5" x="373.5548" y="1654.2862">*</text><!--MD5=[0f419ccd7bac3edb98862e360145f8c4]
link AutomaticValidation to TestValidation--><path codeLine="226" d="M666.59,519.78 C665.12,551.11 662.16,614.19 660.02,659.87 " fill="none" id="AutomaticValidation-TestValidation" style="stroke:#A80036;stroke-width:1.0;"/><polygon fill="#000000" points="667.2658,626.1703,670.6252,617.2728,664.7538,616.9975,667.2658,626.1703" style="stroke:#000000;stroke-width:1.0;"/><text fill="#000000" font-family="sans-serif" font-size="13" lengthAdjust="spacing" textLength="57" x="676.5" y="626.4951">is used to</text><text fill="#000000" font-family="sans-serif" font-size="13" lengthAdjust="spacing" textLength="7" x="658.4048" y="540.9226">1</text><text fill="#000000" font-family="sans-serif" font-size="13" lengthAdjust="spacing" textLength="5" x="655.0227" y="648.9608">*</text><!--MD5=[10703025a3b63e82c20de66e27dc03a1]
link Test to TypeTest--><path codeLine="227" d="M632.45,1344.58 C622.6,1361.75 611.89,1382.34 604.5,1402 C594.37,1428.93 587.55,1460.95 583.44,1484.44 " fill="none" id="Test-TypeTest" style="stroke:#A80036;stroke-width:1.0;"/><polygon fill="#000000" points="607.8465,1415.8945,613.6113,1408.3302,608.0642,1406.3864,607.8465,1415.8945" style="stroke:#000000;stroke-width:1.0;"/><text fill="#000000" font-family="sans-serif" font-size="13" lengthAdjust="spacing" textLength="24" x="618.5" y="1416.4951">is of</text><text fill="#000000" font-family="sans-serif" font-size="13" lengthAdjust="spacing" textLength="5" x="623.2314" y="1365.6551">*</text><text fill="#000000" font-family="sans-serif" font-size="13" lengthAdjust="spacing" textLength="7" x="576.7235" y="1473.7215">1</text><!--MD5=[978a05568058d70e7e1abb280ff33310]
@startuml
hide methods
top to bottom direction
skinparam classAttributeIconSize 0


class Company {
    chemicalLab
}

class ChemicalLab {
    name
    address
    phoneNumber
    tin
}

class ClinicalAnalysisLaboratory {
    idLaboratory
    name
    address
    phoneNumber
    tin
}

class CovidReport {
    numberTestsPerformed
    numberPositiveResults
    numberPositiveDay
    numberPositiveWeek
    numberPositiveMonth
}

class SampleIdentification {
    idClient
    idTest
    barcode
}

class Sample{
    idSample
    sampleCollectionMethod
    collectionDate
}

class Test{
    idTest
    nhsCode
    clientCitizenCardNumber
}

class TypeTest{
    idTest
    type
}

class SampleAnalysis {
    idEmployee
    idTest
    idResult
}

class TestResults {
    idResult
    chemicalAnalysisDate
    diagnosisDate
    testResults
}

class Diagnosis{
    idEmployee
    idDiagnosis
    idResult
    Diagnosis
}

class TestValidation {
    idEmployee
    idTestValidation
    idDiagnosis
    validateStatus
    validatedDate
}

class Client {
    citizenCardNumber
    nationalHealthcareService
    birthDate
    tif
    phoneNumber
    email
    name
}

class Administrator{
    idEmployee
    organizationRole
    name
    adress
    email
    phoneNumber
    soc
}

class Receptionist {
    idEmployee
    organizationRole
    name
    adress
    email
    phoneNumber
    soc
}

class MedicalLabTechnicians{
    idEmployee
    organizationRole
    name
    adress
    email
    phoneNumber
    soc
}

class ChemistryTechnologist{
    idEmployee
    idLaboratory
    organizationRole
    name
    adress
    email
    phoneNumber
    soc
}

class SpecialistDoctor{
    idEmployee
    idLaboratory
    doctorIndexNumber
    organizationRole
    name
    adress
    email
    phoneNumber
    soc
}

class LaboratoryCoordinator{
    idEmployee
    idLaboratory
    organizationRole
    name
    address
    email
    phoneNumber
    soc
}

class Parameters{
    parameter
}



class Category{
    category
}

class Test_Parameters{
    idTest
    idParameters
}

class Parameters_Category{
    idParameters
    idCategory
}

class Notification{
    type
}

class ReportNHS{
    information
}
 
class NHSAPI{

}

class BarcodeAPI{

}

class AutomaticValidation{

}

Company "1" - - "1" ChemicalLab : owns >
Company "1" - - "*" ClinicalAnalysisLaboratory : owns >
Client "*" - - "1" Receptionist : registered by >
Client "1" - - "*" Test : asks for >
Test "*" - - "1" Receptionist : registered by >
Test "*" - - "1" Test_Parameters : request analysis for >
Test_Parameters "1" - - "*" Parameters : request analysis for >
Parameters "*" - - "1" Parameters_Category : presented under >
Parameters_Category "1" - - "*" Category : presented under >
Category "1" - - "*" Administrator : created by >
Client "1" - - "1" MedicalLabTechnicians : is called by >
MedicalLabTechnicians "1" - - "1" Sample : collect >
Sample "1" - - "1" SampleIdentification : identifies sample >
ClinicalAnalysisLaboratory "1" - - "*" MedicalLabTechnicians : employs >
SampleIdentification "1" - - "1" ChemicalLab : sends sample to >
Company "1" - - "*" CovidReport : reports covid cases >
ChemicalLab "1" - - "*" ChemistryTechnologist : gives sample >
ChemicalLab "1" - - "*" SpecialistDoctor : gives results >
SpecialistDoctor "1" - - "1" Diagnosis : create diagnosis >
ChemistryTechnologist "1" - - "1" SampleAnalysis : analysis sample >
SampleAnalysis "1" - - "1" TestResults : sends analysis >
ChemicalLab "1" - - "*" LaboratoryCoordinator : gives results and diagnosis >
LaboratoryCoordinator "1" - - "1" TestValidation : does >
TestValidation "1" - - "1" Notification : create >
Notification "1" - - "1" Client : is received by >
Company "1" - - "*" ReportNHS : reports >
NHSAPI "1" - - "*" ReportNHS : is used to >
BarcodeAPI "1" - - "*" SampleIdentification : is used to >
AutomaticValidation "1" - - "*" TestValidation : is used to >
Test "*" - - "1" TypeTest : is of >
@enduml

PlantUML version 1.2021.2(Sun Mar 07 11:10:27 GMT 2021)
(GPL source distribution)
Java Runtime: OpenJDK Runtime Environment
JVM: OpenJDK 64-Bit Server VM
Default Encoding: Cp1252
Language: pt
Country: PT
--></g></svg>