<?xml version="1.0" encoding="UTF-8" standalone="no"?><svg xmlns="http://www.w3.org/2000/svg" xmlns:xlink="http://www.w3.org/1999/xlink" contentScriptType="application/ecmascript" contentStyleType="text/css" height="661px" preserveAspectRatio="none" style="width:453px;height:661px;" version="1.1" viewBox="0 0 453 661" width="453px" zoomAndPan="magnify"><defs><filter height="300%" id="fcdhhnqewbz8a" width="300%" x="-1" y="-1"><feGaussianBlur result="blurOut" stdDeviation="2.0"/><feColorMatrix in="blurOut" result="blurOut2" type="matrix" values="0 0 0 0 0 0 0 0 0 0 0 0 0 0 0 0 0 0 .4 0"/><feOffset dx="4.0" dy="4.0" in="blurOut2" result="blurOut3"/><feBlend in="SourceGraphic" in2="blurOut3" mode="normal"/></filter></defs><g><rect fill="#FFFFFF" filter="url(#fcdhhnqewbz8a)" height="458.5156" style="stroke:#A80036;stroke-width:1.0;" width="10" x="116.5" y="99.6094"/><rect fill="#FFFFFF" filter="url(#fcdhhnqewbz8a)" height="55.3516" style="stroke:#A80036;stroke-width:1.0;" width="10" x="390.5" y="121.9609"/><rect fill="#FFFFFF" filter="url(#fcdhhnqewbz8a)" height="97.0547" style="stroke:#A80036;stroke-width:1.0;" width="10" x="390.5" y="232.6641"/><rect fill="#FFFFFF" filter="url(#fcdhhnqewbz8a)" height="62.3516" style="stroke:#A80036;stroke-width:1.0;" width="10" x="390.5" y="385.0703"/><rect fill="#FFFFFF" filter="url(#fcdhhnqewbz8a)" height="55.3516" style="stroke:#A80036;stroke-width:1.0;" width="10" x="390.5" y="502.7734"/><rect fill="#FFFFFF" filter="url(#fcdhhnqewbz8a)" height="120.4063" style="stroke:#000000;stroke-width:2.0;" width="429.5" x="10" y="272.6641"/><line style="stroke:#A80036;stroke-width:1.0;stroke-dasharray:5.0,5.0;" x1="121" x2="121" y1="89.6094" y2="576.125"/><line style="stroke:#A80036;stroke-width:1.0;stroke-dasharray:5.0,5.0;" x1="395.5" x2="395.5" y1="89.6094" y2="576.125"/><text fill="#000000" font-family="sans-serif" font-size="14" lengthAdjust="spacing" textLength="197" x="20" y="86.5332">Clinical Chemistry Technologist</text><ellipse cx="121.5" cy="15" fill="#FEFECE" filter="url(#fcdhhnqewbz8a)" rx="8" ry="8" style="stroke:#A80036;stroke-width:2.0;"/><path d="M121.5,23 L121.5,50 M108.5,31 L134.5,31 M121.5,50 L108.5,65 M121.5,50 L134.5,65 " fill="none" filter="url(#fcdhhnqewbz8a)" style="stroke:#A80036;stroke-width:2.0;"/><text fill="#000000" font-family="sans-serif" font-size="14" lengthAdjust="spacing" textLength="197" x="20" y="589.6582">Clinical Chemistry Technologist</text><ellipse cx="121.5" cy="602.7344" fill="#FEFECE" filter="url(#fcdhhnqewbz8a)" rx="8" ry="8" style="stroke:#A80036;stroke-width:2.0;"/><path d="M121.5,610.7344 L121.5,637.7344 M108.5,618.7344 L134.5,618.7344 M121.5,637.7344 L108.5,652.7344 M121.5,637.7344 L134.5,652.7344 " fill="none" filter="url(#fcdhhnqewbz8a)" style="stroke:#A80036;stroke-width:2.0;"/><rect fill="#FEFECE" filter="url(#fcdhhnqewbz8a)" height="31.6094" style="stroke:#A80036;stroke-width:1.5;" width="64" x="361.5" y="53"/><text fill="#000000" font-family="sans-serif" font-size="14" lengthAdjust="spacing" textLength="50" x="368.5" y="74.5332">:System</text><rect fill="#FEFECE" filter="url(#fcdhhnqewbz8a)" height="31.6094" style="stroke:#A80036;stroke-width:1.5;" width="64" x="361.5" y="575.125"/><text fill="#000000" font-family="sans-serif" font-size="14" lengthAdjust="spacing" textLength="50" x="368.5" y="596.6582">:System</text><rect fill="#FFFFFF" filter="url(#fcdhhnqewbz8a)" height="458.5156" style="stroke:#A80036;stroke-width:1.0;" width="10" x="116.5" y="99.6094"/><rect fill="#FFFFFF" filter="url(#fcdhhnqewbz8a)" height="55.3516" style="stroke:#A80036;stroke-width:1.0;" width="10" x="390.5" y="121.9609"/><rect fill="#FFFFFF" filter="url(#fcdhhnqewbz8a)" height="97.0547" style="stroke:#A80036;stroke-width:1.0;" width="10" x="390.5" y="232.6641"/><rect fill="#FFFFFF" filter="url(#fcdhhnqewbz8a)" height="62.3516" style="stroke:#A80036;stroke-width:1.0;" width="10" x="390.5" y="385.0703"/><rect fill="#FFFFFF" filter="url(#fcdhhnqewbz8a)" height="55.3516" style="stroke:#A80036;stroke-width:1.0;" width="10" x="390.5" y="502.7734"/><polygon fill="#A80036" points="378.5,117.9609,388.5,121.9609,378.5,125.9609,382.5,121.9609" style="stroke:#A80036;stroke-width:1.0;"/><line style="stroke:#A80036;stroke-width:1.0;" x1="126.5" x2="384.5" y1="121.9609" y2="121.9609"/><text fill="#000000" font-family="sans-serif" font-size="13" font-weight="bold" lengthAdjust="spacing" textLength="7" x="133.5" y="117.1045">1</text><text fill="#000000" font-family="sans-serif" font-size="13" lengthAdjust="spacing" textLength="232" x="144.5" y="117.1045">asks to record the results of a given test</text><polygon fill="#A80036" points="137.5,173.3125,127.5,177.3125,137.5,181.3125,133.5,177.3125" style="stroke:#A80036;stroke-width:1.0;"/><line style="stroke:#A80036;stroke-width:1.0;stroke-dasharray:2.0,2.0;" x1="131.5" x2="394.5" y1="177.3125" y2="177.3125"/><text fill="#000000" font-family="sans-serif" font-size="13" font-weight="bold" lengthAdjust="spacing" textLength="7" x="143.5" y="172.4561">2</text><text fill="#000000" font-family="sans-serif" font-size="13" lengthAdjust="spacing" textLength="168" x="154.5" y="172.4561">requests the sample barcode</text><polygon fill="#A80036" points="378.5,228.6641,388.5,232.6641,378.5,236.6641,382.5,232.6641" style="stroke:#A80036;stroke-width:1.0;"/><line style="stroke:#A80036;stroke-width:1.0;" x1="126.5" x2="384.5" y1="232.6641" y2="232.6641"/><text fill="#000000" font-family="sans-serif" font-size="13" font-weight="bold" lengthAdjust="spacing" textLength="7" x="133.5" y="227.8076">3</text><text fill="#000000" font-family="sans-serif" font-size="13" lengthAdjust="spacing" textLength="150" x="144.5" y="227.8076">types the sample barcode</text><path d="M10,272.6641 L83,272.6641 L83,280.6641 L73,290.6641 L10,290.6641 L10,272.6641 " fill="#EEEEEE" style="stroke:#000000;stroke-width:1.0;"/><rect fill="none" height="120.4063" style="stroke:#000000;stroke-width:2.0;" width="429.5" x="10" y="272.6641"/><text fill="#000000" font-family="sans-serif" font-size="13" font-weight="bold" lengthAdjust="spacing" textLength="28" x="25" y="287.1592">loop</text><text fill="#000000" font-family="sans-serif" font-size="11" font-weight="bold" lengthAdjust="spacing" textLength="114" x="98" y="286.083">[for each parameter]</text><polygon fill="#A80036" points="137.5,325.7188,127.5,329.7188,137.5,333.7188,133.5,329.7188" style="stroke:#A80036;stroke-width:1.0;"/><line style="stroke:#A80036;stroke-width:1.0;stroke-dasharray:2.0,2.0;" x1="131.5" x2="394.5" y1="329.7188" y2="329.7188"/><text fill="#000000" font-family="sans-serif" font-size="13" font-weight="bold" lengthAdjust="spacing" textLength="7" x="143.5" y="316.6865">4</text><text fill="#000000" font-family="sans-serif" font-size="13" lengthAdjust="spacing" textLength="210" x="154.5" y="308.5107">shows one parameter at a cycle and</text><text fill="#000000" font-family="sans-serif" font-size="13" lengthAdjust="spacing" textLength="196" x="158.5" y="324.8623">request the respective result value</text><polygon fill="#A80036" points="378.5,381.0703,388.5,385.0703,378.5,389.0703,382.5,385.0703" style="stroke:#A80036;stroke-width:1.0;"/><line style="stroke:#A80036;stroke-width:1.0;" x1="126.5" x2="384.5" y1="385.0703" y2="385.0703"/><text fill="#000000" font-family="sans-serif" font-size="13" font-weight="bold" lengthAdjust="spacing" textLength="7" x="133.5" y="380.2139">5</text><text fill="#000000" font-family="sans-serif" font-size="13" lengthAdjust="spacing" textLength="123" x="144.5" y="380.2139">types the result value</text><polygon fill="#A80036" points="137.5,443.4219,127.5,447.4219,137.5,451.4219,133.5,447.4219" style="stroke:#A80036;stroke-width:1.0;"/><line style="stroke:#A80036;stroke-width:1.0;stroke-dasharray:2.0,2.0;" x1="131.5" x2="394.5" y1="447.4219" y2="447.4219"/><text fill="#000000" font-family="sans-serif" font-size="13" font-weight="bold" lengthAdjust="spacing" textLength="7" x="143.5" y="442.5654">6</text><text fill="#000000" font-family="sans-serif" font-size="13" lengthAdjust="spacing" textLength="229" x="154.5" y="442.5654">shows all data and request confirmation</text><polygon fill="#A80036" points="378.5,498.7734,388.5,502.7734,378.5,506.7734,382.5,502.7734" style="stroke:#A80036;stroke-width:1.0;"/><line style="stroke:#A80036;stroke-width:1.0;" x1="126.5" x2="384.5" y1="502.7734" y2="502.7734"/><text fill="#000000" font-family="sans-serif" font-size="13" font-weight="bold" lengthAdjust="spacing" textLength="7" x="133.5" y="497.917">7</text><text fill="#000000" font-family="sans-serif" font-size="13" lengthAdjust="spacing" textLength="93" x="144.5" y="497.917">confirm the data</text><polygon fill="#A80036" points="132.5,554.125,122.5,558.125,132.5,562.125,128.5,558.125" style="stroke:#A80036;stroke-width:1.0;"/><line style="stroke:#A80036;stroke-width:1.0;stroke-dasharray:2.0,2.0;" x1="126.5" x2="394.5" y1="558.125" y2="558.125"/><text fill="#000000" font-family="sans-serif" font-size="13" font-weight="bold" lengthAdjust="spacing" textLength="7" x="138.5" y="553.2686">8</text><text fill="#000000" font-family="sans-serif" font-size="13" lengthAdjust="spacing" textLength="106" x="149.5" y="553.2686">operation success</text><!--MD5=[2260d8af62a26f29186c698c906ef6ed]
@startuml
autonumber
actor "Clinical Chemistry Technologist" as CCT
participant ":System" as SYSTEM

activate CCT
CCT -> SYSTEM : asks to record the results of a given test
activate SYSTEM

|||
SYSTEM - -> CCT : requests the sample barcode
deactivate SYSTEM

|||
CCT -> SYSTEM : types the sample barcode
activate SYSTEM

|||
loop for each parameter
SYSTEM - -> CCT : shows one parameter at a cycle and \n request the respective result value
deactivate SYSTEM

|||
CCT -> SYSTEM : types the result value
activate SYSTEM
end

|||
SYSTEM - -> CCT : shows all data and request confirmation
deactivate SYSTEM

|||
CCT -> SYSTEM : confirm the data
activate SYSTEM

|||
SYSTEM - -> CCT : operation success
deactivate SYSTEM
deactivate CCT

@enduml

PlantUML version 1.2021.5(Sun Apr 25 12:20:28 BST 2021)
(GPL source distribution)
Java Runtime: OpenJDK Runtime Environment
JVM: Dynamic Code Evolution 64-Bit Server VM
Default Encoding: Cp1252
Language: pt
Country: PT
--></g></svg>