<?xml version="1.0" encoding="UTF-8" standalone="no"?><svg xmlns="http://www.w3.org/2000/svg" xmlns:xlink="http://www.w3.org/1999/xlink" contentScriptType="application/ecmascript" contentStyleType="text/css" height="512px" preserveAspectRatio="none" style="width:1248px;height:512px;" version="1.1" viewBox="0 0 1248 512" width="1248px" zoomAndPan="magnify"><defs><filter height="300%" id="fr44hzgmnbtqz" width="300%" x="-1" y="-1"><feGaussianBlur result="blurOut" stdDeviation="2.0"/><feColorMatrix in="blurOut" result="blurOut2" type="matrix" values="0 0 0 0 0 0 0 0 0 0 0 0 0 0 0 0 0 0 .4 0"/><feOffset dx="4.0" dy="4.0" in="blurOut2" result="blurOut3"/><feBlend in="SourceGraphic" in2="blurOut3" mode="normal"/></filter></defs><g><!--MD5=[df38be88ccee13e832d6fafd6288a4ca]
class Test--><rect codeLine="5" fill="#FEFECE" filter="url(#fr44hzgmnbtqz)" height="109.1797" id="Test" style="stroke:#A80036;stroke-width:1.5;" width="92" x="219" y="31.5"/><ellipse cx="250.2" cy="47.5" fill="#ADD1B2" rx="11" ry="11" style="stroke:#A80036;stroke-width:1.0;"/><path d="M252.2,44 Q252.4031,43.5 252.6375,43.25 Q252.8719,43 253.1375,43 Q253.6063,43 253.9031,43.2813 Q254.2,43.5625 254.2,44.2188 L254.2,45.7813 Q254.2,46.4375 253.9188,46.7188 Q253.6375,47 253.2,47 Q252.8094,47 252.5594,46.8281 Q252.3094,46.6563 252.2,46.2031 Q252.1531,45.8906 251.9813,45.7188 Q251.6688,45.3906 251.1063,45.2031 Q250.5438,45 249.9813,45 Q249.2781,45 248.6844,45.2813 Q248.1063,45.5625 247.6531,46.1875 Q247.2,46.8125 247.2,47.6719 L247.2,48.5938 Q247.2,49.625 248.0438,50.3125 Q248.8875,51 250.3875,51 Q251.2781,51 251.9031,50.7969 Q252.2625,50.6875 252.6688,50.3281 Q252.9344,50.125 253.075,50.0625 Q253.2156,50 253.3875,50 Q253.7156,50 253.95,50.2656 Q254.2,50.5156 254.2,50.875 Q254.2,51.2188 253.8563,51.625 Q253.3563,52.2188 252.5594,52.5469 Q251.5125,53 250.2313,53 Q248.7313,53 247.5281,52.4063 Q246.5594,51.9375 245.8719,50.9219 Q245.2,49.9063 245.2,48.7031 L245.2,47.6094 Q245.2,46.3594 245.7938,45.2656 Q246.4031,44.1719 247.45,43.5938 Q248.5125,43 249.7,43 Q250.4188,43 251.0438,43.25 Q251.6688,43.5 252.2,44 Z " fill="#000000"/><text fill="#000000" font-family="sans-serif" font-size="12" lengthAdjust="spacing" textLength="24" x="267.8" y="52.4102">Test</text><line style="stroke:#A80036;stroke-width:1.5;" x1="220" x2="310" y1="63.5" y2="63.5"/><text fill="#000000" font-family="sans-serif" font-size="11" lengthAdjust="spacing" textLength="33" x="225" y="78.9189">-idTest</text><text fill="#000000" font-family="sans-serif" font-size="11" lengthAdjust="spacing" textLength="47" x="225" y="92.7549">-nhsCode</text><text fill="#000000" font-family="sans-serif" font-size="11" lengthAdjust="spacing" textLength="80" x="225" y="106.5908">-clientTinNumber</text><text fill="#000000" font-family="sans-serif" font-size="11" lengthAdjust="spacing" textLength="65" x="225" y="120.4268">-creationDate</text><text fill="#000000" font-family="sans-serif" font-size="11" lengthAdjust="spacing" textLength="28" x="225" y="134.2627">-state</text><!--MD5=[02e4b9b7573f1156f41e60aa5b4e25a4]
class Company--><rect codeLine="13" fill="#FEFECE" filter="url(#fr44hzgmnbtqz)" height="53.8359" id="Company" style="stroke:#A80036;stroke-width:1.5;" width="85" x="7" y="231"/><ellipse cx="22" cy="247" fill="#ADD1B2" rx="11" ry="11" style="stroke:#A80036;stroke-width:1.0;"/><path d="M24,243.5 Q24.2031,243 24.4375,242.75 Q24.6719,242.5 24.9375,242.5 Q25.4063,242.5 25.7031,242.7813 Q26,243.0625 26,243.7188 L26,245.2813 Q26,245.9375 25.7188,246.2188 Q25.4375,246.5 25,246.5 Q24.6094,246.5 24.3594,246.3281 Q24.1094,246.1563 24,245.7031 Q23.9531,245.3906 23.7813,245.2188 Q23.4688,244.8906 22.9063,244.7031 Q22.3438,244.5 21.7813,244.5 Q21.0781,244.5 20.4844,244.7813 Q19.9063,245.0625 19.4531,245.6875 Q19,246.3125 19,247.1719 L19,248.0938 Q19,249.125 19.8438,249.8125 Q20.6875,250.5 22.1875,250.5 Q23.0781,250.5 23.7031,250.2969 Q24.0625,250.1875 24.4688,249.8281 Q24.7344,249.625 24.875,249.5625 Q25.0156,249.5 25.1875,249.5 Q25.5156,249.5 25.75,249.7656 Q26,250.0156 26,250.375 Q26,250.7188 25.6563,251.125 Q25.1563,251.7188 24.3594,252.0469 Q23.3125,252.5 22.0313,252.5 Q20.5313,252.5 19.3281,251.9063 Q18.3594,251.4375 17.6719,250.4219 Q17,249.4063 17,248.2031 L17,247.1094 Q17,245.8594 17.5938,244.7656 Q18.2031,243.6719 19.25,243.0938 Q20.3125,242.5 21.5,242.5 Q22.2188,242.5 22.8438,242.75 Q23.4688,243 24,243.5 Z " fill="#000000"/><text fill="#000000" font-family="sans-serif" font-size="12" lengthAdjust="spacing" textLength="53" x="36" y="251.9102">Company</text><line style="stroke:#A80036;stroke-width:1.5;" x1="8" x2="91" y1="263" y2="263"/><text fill="#000000" font-family="sans-serif" font-size="11" lengthAdjust="spacing" textLength="64" x="13" y="278.4189">-chemicalLab</text><!--MD5=[ed6624c6556d5e7b1bd23032162d20b7]
class Client--><rect codeLine="17" fill="#FEFECE" filter="url(#fr44hzgmnbtqz)" height="164.5234" id="Client" style="stroke:#A80036;stroke-width:1.5;" width="122" x="204" y="175.5"/><ellipse cx="245.1" cy="191.5" fill="#ADD1B2" rx="11" ry="11" style="stroke:#A80036;stroke-width:1.0;"/><path d="M247.1,188 Q247.3031,187.5 247.5375,187.25 Q247.7719,187 248.0375,187 Q248.5063,187 248.8031,187.2813 Q249.1,187.5625 249.1,188.2188 L249.1,189.7813 Q249.1,190.4375 248.8188,190.7188 Q248.5375,191 248.1,191 Q247.7094,191 247.4594,190.8281 Q247.2094,190.6563 247.1,190.2031 Q247.0531,189.8906 246.8813,189.7188 Q246.5688,189.3906 246.0063,189.2031 Q245.4438,189 244.8813,189 Q244.1781,189 243.5844,189.2813 Q243.0063,189.5625 242.5531,190.1875 Q242.1,190.8125 242.1,191.6719 L242.1,192.5938 Q242.1,193.625 242.9438,194.3125 Q243.7875,195 245.2875,195 Q246.1781,195 246.8031,194.7969 Q247.1625,194.6875 247.5688,194.3281 Q247.8344,194.125 247.975,194.0625 Q248.1156,194 248.2875,194 Q248.6156,194 248.85,194.2656 Q249.1,194.5156 249.1,194.875 Q249.1,195.2188 248.7563,195.625 Q248.2563,196.2188 247.4594,196.5469 Q246.4125,197 245.1313,197 Q243.6313,197 242.4281,196.4063 Q241.4594,195.9375 240.7719,194.9219 Q240.1,193.9063 240.1,192.7031 L240.1,191.6094 Q240.1,190.3594 240.6938,189.2656 Q241.3031,188.1719 242.35,187.5938 Q243.4125,187 244.6,187 Q245.3188,187 245.9438,187.25 Q246.5688,187.5 247.1,188 Z " fill="#000000"/><text fill="#000000" font-family="sans-serif" font-size="12" lengthAdjust="spacing" textLength="32" x="264.9" y="196.4102">Client</text><line style="stroke:#A80036;stroke-width:1.5;" x1="205" x2="325" y1="207.5" y2="207.5"/><text fill="#000000" font-family="sans-serif" font-size="11" lengthAdjust="spacing" textLength="95" x="210" y="222.9189">-citizenCardNumber</text><text fill="#000000" font-family="sans-serif" font-size="11" lengthAdjust="spacing" textLength="30" x="210" y="236.7549">-name</text><text fill="#000000" font-family="sans-serif" font-size="11" lengthAdjust="spacing" textLength="59" x="210" y="250.5908">-nhsNumber</text><text fill="#000000" font-family="sans-serif" font-size="11" lengthAdjust="spacing" textLength="47" x="210" y="264.4268">-birthDate</text><text fill="#000000" font-family="sans-serif" font-size="11" lengthAdjust="spacing" textLength="22" x="210" y="278.2627">-sex</text><text fill="#000000" font-family="sans-serif" font-size="11" lengthAdjust="spacing" textLength="110" x="210" y="292.0986">-taxIdenticationNumber</text><text fill="#000000" font-family="sans-serif" font-size="11" lengthAdjust="spacing" textLength="71" x="210" y="305.9346">-phoneNumber</text><text fill="#000000" font-family="sans-serif" font-size="11" lengthAdjust="spacing" textLength="28" x="210" y="319.7705">-email</text><text fill="#000000" font-family="sans-serif" font-size="11" lengthAdjust="spacing" textLength="44" x="210" y="333.6064">-address</text><!--MD5=[96202ef17f5bbcc002205d45165b7578]
class Clinical--><rect codeLine="29" fill="#FEFECE" filter="url(#fr44hzgmnbtqz)" height="123.0156" id="Clinical" style="stroke:#A80036;stroke-width:1.5;" width="83" x="223.5" y="375.5"/><ellipse cx="243" cy="391.5" fill="#ADD1B2" rx="11" ry="11" style="stroke:#A80036;stroke-width:1.0;"/><path d="M245,388 Q245.2031,387.5 245.4375,387.25 Q245.6719,387 245.9375,387 Q246.4063,387 246.7031,387.2813 Q247,387.5625 247,388.2188 L247,389.7813 Q247,390.4375 246.7188,390.7188 Q246.4375,391 246,391 Q245.6094,391 245.3594,390.8281 Q245.1094,390.6563 245,390.2031 Q244.9531,389.8906 244.7813,389.7188 Q244.4688,389.3906 243.9063,389.2031 Q243.3438,389 242.7813,389 Q242.0781,389 241.4844,389.2813 Q240.9063,389.5625 240.4531,390.1875 Q240,390.8125 240,391.6719 L240,392.5938 Q240,393.625 240.8438,394.3125 Q241.6875,395 243.1875,395 Q244.0781,395 244.7031,394.7969 Q245.0625,394.6875 245.4688,394.3281 Q245.7344,394.125 245.875,394.0625 Q246.0156,394 246.1875,394 Q246.5156,394 246.75,394.2656 Q247,394.5156 247,394.875 Q247,395.2188 246.6563,395.625 Q246.1563,396.2188 245.3594,396.5469 Q244.3125,397 243.0313,397 Q241.5313,397 240.3281,396.4063 Q239.3594,395.9375 238.6719,394.9219 Q238,393.9063 238,392.7031 L238,391.6094 Q238,390.3594 238.5938,389.2656 Q239.2031,388.1719 240.25,387.5938 Q241.3125,387 242.5,387 Q243.2188,387 243.8438,387.25 Q244.4688,387.5 245,388 Z " fill="#000000"/><text fill="#000000" font-family="sans-serif" font-size="12" lengthAdjust="spacing" textLength="41" x="258" y="396.4102">Clinical</text><line style="stroke:#A80036;stroke-width:1.5;" x1="224.5" x2="305.5" y1="407.5" y2="407.5"/><text fill="#000000" font-family="sans-serif" font-size="11" lengthAdjust="spacing" textLength="65" x="229.5" y="422.9189">-idLaboratory</text><text fill="#000000" font-family="sans-serif" font-size="11" lengthAdjust="spacing" textLength="30" x="229.5" y="436.7549">-name</text><text fill="#000000" font-family="sans-serif" font-size="11" lengthAdjust="spacing" textLength="44" x="229.5" y="450.5908">-address</text><text fill="#000000" font-family="sans-serif" font-size="11" lengthAdjust="spacing" textLength="15" x="229.5" y="464.4268">-tin</text><text fill="#000000" font-family="sans-serif" font-size="11" lengthAdjust="spacing" textLength="71" x="229.5" y="478.2627">-phoneNumber</text><text fill="#000000" font-family="sans-serif" font-size="11" lengthAdjust="spacing" textLength="52" x="229.5" y="492.0986">-testTypes</text><!--MD5=[aeb3272166074d8737a70b61b1e71682]
class TestType--><rect codeLine="38" fill="#FEFECE" filter="url(#fr44hzgmnbtqz)" height="81.5078" id="TestType" style="stroke:#A80036;stroke-width:1.5;" width="102" x="523.5" y="7"/><ellipse cx="547.5" cy="23" fill="#ADD1B2" rx="11" ry="11" style="stroke:#A80036;stroke-width:1.0;"/><path d="M549.5,19.5 Q549.7031,19 549.9375,18.75 Q550.1719,18.5 550.4375,18.5 Q550.9063,18.5 551.2031,18.7813 Q551.5,19.0625 551.5,19.7188 L551.5,21.2813 Q551.5,21.9375 551.2188,22.2188 Q550.9375,22.5 550.5,22.5 Q550.1094,22.5 549.8594,22.3281 Q549.6094,22.1563 549.5,21.7031 Q549.4531,21.3906 549.2813,21.2188 Q548.9688,20.8906 548.4063,20.7031 Q547.8438,20.5 547.2813,20.5 Q546.5781,20.5 545.9844,20.7813 Q545.4063,21.0625 544.9531,21.6875 Q544.5,22.3125 544.5,23.1719 L544.5,24.0938 Q544.5,25.125 545.3438,25.8125 Q546.1875,26.5 547.6875,26.5 Q548.5781,26.5 549.2031,26.2969 Q549.5625,26.1875 549.9688,25.8281 Q550.2344,25.625 550.375,25.5625 Q550.5156,25.5 550.6875,25.5 Q551.0156,25.5 551.25,25.7656 Q551.5,26.0156 551.5,26.375 Q551.5,26.7188 551.1563,27.125 Q550.6563,27.7188 549.8594,28.0469 Q548.8125,28.5 547.5313,28.5 Q546.0313,28.5 544.8281,27.9063 Q543.8594,27.4375 543.1719,26.4219 Q542.5,25.4063 542.5,24.2031 L542.5,23.1094 Q542.5,21.8594 543.0938,20.7656 Q543.7031,19.6719 544.75,19.0938 Q545.8125,18.5 547,18.5 Q547.7188,18.5 548.3438,18.75 Q548.9688,19 549.5,19.5 Z " fill="#000000"/><text fill="#000000" font-family="sans-serif" font-size="12" lengthAdjust="spacing" textLength="50" x="563.5" y="27.9102">TestType</text><line style="stroke:#A80036;stroke-width:1.5;" x1="524.5" x2="624.5" y1="39" y2="39"/><text fill="#000000" font-family="sans-serif" font-size="11" lengthAdjust="spacing" textLength="28" x="529.5" y="54.4189">-code</text><text fill="#000000" font-family="sans-serif" font-size="11" lengthAdjust="spacing" textLength="57" x="529.5" y="68.2549">-description</text><text fill="#000000" font-family="sans-serif" font-size="11" lengthAdjust="spacing" textLength="90" x="529.5" y="82.0908">-collectingMethods</text><!--MD5=[e1d86066171c3a502f759e19a2a6ce90]
class TestParameters--><rect codeLine="44" fill="#FEFECE" filter="url(#fr44hzgmnbtqz)" height="40" id="TestParameters" style="stroke:#A80036;stroke-width:1.5;" width="121" x="514" y="124"/><ellipse cx="529" cy="140" fill="#ADD1B2" rx="11" ry="11" style="stroke:#A80036;stroke-width:1.0;"/><path d="M531,136.5 Q531.2031,136 531.4375,135.75 Q531.6719,135.5 531.9375,135.5 Q532.4063,135.5 532.7031,135.7813 Q533,136.0625 533,136.7188 L533,138.2813 Q533,138.9375 532.7188,139.2188 Q532.4375,139.5 532,139.5 Q531.6094,139.5 531.3594,139.3281 Q531.1094,139.1563 531,138.7031 Q530.9531,138.3906 530.7813,138.2188 Q530.4688,137.8906 529.9063,137.7031 Q529.3438,137.5 528.7813,137.5 Q528.0781,137.5 527.4844,137.7813 Q526.9063,138.0625 526.4531,138.6875 Q526,139.3125 526,140.1719 L526,141.0938 Q526,142.125 526.8438,142.8125 Q527.6875,143.5 529.1875,143.5 Q530.0781,143.5 530.7031,143.2969 Q531.0625,143.1875 531.4688,142.8281 Q531.7344,142.625 531.875,142.5625 Q532.0156,142.5 532.1875,142.5 Q532.5156,142.5 532.75,142.7656 Q533,143.0156 533,143.375 Q533,143.7188 532.6563,144.125 Q532.1563,144.7188 531.3594,145.0469 Q530.3125,145.5 529.0313,145.5 Q527.5313,145.5 526.3281,144.9063 Q525.3594,144.4375 524.6719,143.4219 Q524,142.4063 524,141.2031 L524,140.1094 Q524,138.8594 524.5938,137.7656 Q525.2031,136.6719 526.25,136.0938 Q527.3125,135.5 528.5,135.5 Q529.2188,135.5 529.8438,135.75 Q530.4688,136 531,136.5 Z " fill="#000000"/><text fill="#000000" font-family="sans-serif" font-size="12" lengthAdjust="spacing" textLength="89" x="543" y="144.9102">TestParameters</text><line style="stroke:#A80036;stroke-width:1.5;" x1="515" x2="634" y1="156" y2="156"/><!--MD5=[56f671791a7bc69038cb91d87520b796]
class Parameters--><rect codeLine="47" fill="#FEFECE" filter="url(#fr44hzgmnbtqz)" height="67.6719" id="Parameters" style="stroke:#A80036;stroke-width:1.5;" width="97" x="823" y="110"/><ellipse cx="838" cy="126" fill="#ADD1B2" rx="11" ry="11" style="stroke:#A80036;stroke-width:1.0;"/><path d="M840,122.5 Q840.2031,122 840.4375,121.75 Q840.6719,121.5 840.9375,121.5 Q841.4063,121.5 841.7031,121.7813 Q842,122.0625 842,122.7188 L842,124.2813 Q842,124.9375 841.7188,125.2188 Q841.4375,125.5 841,125.5 Q840.6094,125.5 840.3594,125.3281 Q840.1094,125.1563 840,124.7031 Q839.9531,124.3906 839.7813,124.2188 Q839.4688,123.8906 838.9063,123.7031 Q838.3438,123.5 837.7813,123.5 Q837.0781,123.5 836.4844,123.7813 Q835.9063,124.0625 835.4531,124.6875 Q835,125.3125 835,126.1719 L835,127.0938 Q835,128.125 835.8438,128.8125 Q836.6875,129.5 838.1875,129.5 Q839.0781,129.5 839.7031,129.2969 Q840.0625,129.1875 840.4688,128.8281 Q840.7344,128.625 840.875,128.5625 Q841.0156,128.5 841.1875,128.5 Q841.5156,128.5 841.75,128.7656 Q842,129.0156 842,129.375 Q842,129.7188 841.6563,130.125 Q841.1563,130.7188 840.3594,131.0469 Q839.3125,131.5 838.0313,131.5 Q836.5313,131.5 835.3281,130.9063 Q834.3594,130.4375 833.6719,129.4219 Q833,128.4063 833,127.2031 L833,126.1094 Q833,124.8594 833.5938,123.7656 Q834.2031,122.6719 835.25,122.0938 Q836.3125,121.5 837.5,121.5 Q838.2188,121.5 838.8438,121.75 Q839.4688,122 840,122.5 Z " fill="#000000"/><text fill="#000000" font-family="sans-serif" font-size="12" lengthAdjust="spacing" textLength="65" x="852" y="130.9102">Parameters</text><line style="stroke:#A80036;stroke-width:1.5;" x1="824" x2="919" y1="142" y2="142"/><text fill="#000000" font-family="sans-serif" font-size="11" lengthAdjust="spacing" textLength="61" x="829" y="157.4189">-idParameter</text><text fill="#000000" font-family="sans-serif" font-size="11" lengthAdjust="spacing" textLength="57" x="829" y="171.2549">-description</text><!--MD5=[ba81b7e447edea0958a46a7826f9111d]
class Parameter_Category--><rect codeLine="52" fill="#FEFECE" filter="url(#fr44hzgmnbtqz)" height="67.6719" id="Parameter_Category" style="stroke:#A80036;stroke-width:1.5;" width="146" x="1088" y="110"/><ellipse cx="1103" cy="126" fill="#ADD1B2" rx="11" ry="11" style="stroke:#A80036;stroke-width:1.0;"/><path d="M1105,122.5 Q1105.2031,122 1105.4375,121.75 Q1105.6719,121.5 1105.9375,121.5 Q1106.4063,121.5 1106.7031,121.7813 Q1107,122.0625 1107,122.7188 L1107,124.2813 Q1107,124.9375 1106.7188,125.2188 Q1106.4375,125.5 1106,125.5 Q1105.6094,125.5 1105.3594,125.3281 Q1105.1094,125.1563 1105,124.7031 Q1104.9531,124.3906 1104.7813,124.2188 Q1104.4688,123.8906 1103.9063,123.7031 Q1103.3438,123.5 1102.7813,123.5 Q1102.0781,123.5 1101.4844,123.7813 Q1100.9063,124.0625 1100.4531,124.6875 Q1100,125.3125 1100,126.1719 L1100,127.0938 Q1100,128.125 1100.8438,128.8125 Q1101.6875,129.5 1103.1875,129.5 Q1104.0781,129.5 1104.7031,129.2969 Q1105.0625,129.1875 1105.4688,128.8281 Q1105.7344,128.625 1105.875,128.5625 Q1106.0156,128.5 1106.1875,128.5 Q1106.5156,128.5 1106.75,128.7656 Q1107,129.0156 1107,129.375 Q1107,129.7188 1106.6563,130.125 Q1106.1563,130.7188 1105.3594,131.0469 Q1104.3125,131.5 1103.0313,131.5 Q1101.5313,131.5 1100.3281,130.9063 Q1099.3594,130.4375 1098.6719,129.4219 Q1098,128.4063 1098,127.2031 L1098,126.1094 Q1098,124.8594 1098.5938,123.7656 Q1099.2031,122.6719 1100.25,122.0938 Q1101.3125,121.5 1102.5,121.5 Q1103.2188,121.5 1103.8438,121.75 Q1104.4688,122 1105,122.5 Z " fill="#000000"/><text fill="#000000" font-family="sans-serif" font-size="12" lengthAdjust="spacing" textLength="114" x="1117" y="130.9102">Parameter_Category</text><line style="stroke:#A80036;stroke-width:1.5;" x1="1089" x2="1233" y1="142" y2="142"/><text fill="#000000" font-family="sans-serif" font-size="11" lengthAdjust="spacing" textLength="56" x="1094" y="157.4189">-idCategory</text><text fill="#000000" font-family="sans-serif" font-size="11" lengthAdjust="spacing" textLength="30" x="1094" y="171.2549">-name</text><!--MD5=[7e4bc624457760b649895ff2ead938fa]
link Company to Test--><path codeLine="58" d="M84.33,230.75 C120.66,201.48 178.58,154.81 218.8,122.42 " fill="none" id="Company-Test" style="stroke:#A80036;stroke-width:1.0;"/><text fill="#000000" font-family="sans-serif" font-size="13" lengthAdjust="spacing" textLength="50" x="123" y="157.4951">performs</text><text fill="#000000" font-family="sans-serif" font-size="13" lengthAdjust="spacing" textLength="7" x="84.5751" y="220.1532">1</text><text fill="#000000" font-family="sans-serif" font-size="13" lengthAdjust="spacing" textLength="5" x="206.0384" y="143.0083">*</text><!--MD5=[6eee883fdf517d3604e8bd0f2058e9aa]
link Company to Client--><path codeLine="59" d="M92.17,258 C123.97,258 168.22,258 203.85,258 " fill="none" id="Company-Client" style="stroke:#A80036;stroke-width:1.0;"/><text fill="#000000" font-family="sans-serif" font-size="13" lengthAdjust="spacing" textLength="21" x="137.5" y="254.4951">has</text><text fill="#000000" font-family="sans-serif" font-size="13" lengthAdjust="spacing" textLength="7" x="100.1055" y="272.9144">1</text><text fill="#000000" font-family="sans-serif" font-size="13" lengthAdjust="spacing" textLength="5" x="191.0927" y="272.5206">*</text><!--MD5=[d5d5220281d1a7119a7f46ef545e8532]
link Company to Clinical--><path codeLine="60" d="M82.93,285.19 C120.49,316.68 182.42,368.61 223.22,402.81 " fill="none" id="Company-Clinical" style="stroke:#A80036;stroke-width:1.0;"/><text fill="#000000" font-family="sans-serif" font-size="13" lengthAdjust="spacing" textLength="21" x="137.5" y="317.4951">has</text><text fill="#000000" font-family="sans-serif" font-size="13" lengthAdjust="spacing" textLength="7" x="82.4772" y="306.4393">1</text><text fill="#000000" font-family="sans-serif" font-size="13" lengthAdjust="spacing" textLength="5" x="210.6094" y="411.8326">*</text><!--MD5=[e981d4f96c4342412d1e68160b30cf70]
link Test to TestType--><path codeLine="61" d="M311.04,80.43 C367.68,73.43 464.6,61.46 523.49,54.18 " fill="none" id="Test-TestType" style="stroke:#A80036;stroke-width:1.0;"/><polygon fill="#000000" points="410.4623,50.5627,401.1251,48.7551,401.8458,54.5886,410.4623,50.5627" style="stroke:#000000;stroke-width:1.0;"/><text fill="#000000" font-family="sans-serif" font-size="13" lengthAdjust="spacing" textLength="24" x="414.5" y="56.4951">is of</text><text fill="#000000" font-family="sans-serif" font-size="13" lengthAdjust="spacing" textLength="5" x="319.0794" y="94.3418">*</text><text fill="#000000" font-family="sans-serif" font-size="13" lengthAdjust="spacing" textLength="7" x="508.4838" y="69.8198">1</text><!--MD5=[e80eb7b358ff3844f1d066086bf7c32a]
link Test to TestParameters--><path codeLine="62" d="M311.04,94.5 C364.67,104.61 454.44,121.54 513.81,132.74 " fill="none" id="Test-TestParameters" style="stroke:#A80036;stroke-width:1.0;"/><polygon fill="#000000" points="365.9134,96.1024,357.5696,91.5381,356.4803,97.3142,365.9134,96.1024" style="stroke:#000000;stroke-width:1.0;"/><text fill="#000000" font-family="sans-serif" font-size="13" lengthAdjust="spacing" textLength="113" x="370" y="100.4951">request analysis for</text><text fill="#000000" font-family="sans-serif" font-size="13" lengthAdjust="spacing" textLength="5" x="319.0794" y="110.7422">*</text><text fill="#000000" font-family="sans-serif" font-size="13" lengthAdjust="spacing" textLength="7" x="498.9868" y="145.8592">1</text><!--MD5=[679a8412ce247ddc3b9f0d47cb5185d2]
link TestParameters to Parameters--><path codeLine="63" d="M635.2,144 C690.42,144 771.46,144 822.57,144 " fill="none" id="TestParameters-Parameters" style="stroke:#A80036;stroke-width:1.0;"/><polygon fill="#000000" points="675,135.1758,665.9549,132.2369,665.9549,138.1147,675,135.1758" style="stroke:#000000;stroke-width:1.0;"/><text fill="#000000" font-family="sans-serif" font-size="13" lengthAdjust="spacing" textLength="113" x="679" y="140.4951">request analysis for</text><text fill="#000000" font-family="sans-serif" font-size="13" lengthAdjust="spacing" textLength="7" x="643.0244" y="158.4915">1</text><text fill="#000000" font-family="sans-serif" font-size="13" lengthAdjust="spacing" textLength="5" x="810.0162" y="158.72">*</text><!--MD5=[1a178c3b32523475582b6cfe0f1466a5]
link Parameters to Parameter_Category--><path codeLine="64" d="M920.3,144 C965.96,144 1035.41,144 1087.81,144 " fill="none" id="Parameters-Parameter_Category" style="stroke:#A80036;stroke-width:1.0;"/><polygon fill="#000000" points="960,135.1758,950.9549,132.2369,950.9549,138.1147,960,135.1758" style="stroke:#000000;stroke-width:1.0;"/><text fill="#000000" font-family="sans-serif" font-size="13" lengthAdjust="spacing" textLength="93" x="964" y="140.4951">presented under</text><text fill="#000000" font-family="sans-serif" font-size="13" lengthAdjust="spacing" textLength="5" x="928.1553" y="158.7722">*</text><text fill="#000000" font-family="sans-serif" font-size="13" lengthAdjust="spacing" textLength="7" x="1072.9013" y="158.3552">1</text><!--MD5=[7ff325c6f11696999fa44501a9f35037]
@startuml
hide methods
left to right direction
skinparam classAttributeIconSize 0

class Test {
  -idTest
  -nhsCode
  -clientTinNumber
  -creationDate
  -state
}

class Company{
    -chemicalLab
}

class Client {
    -citizenCardNumber
    -name
    -nhsNumber
    -birthDate
    -sex
    -taxIdenticationNumber
    -phoneNumber
    -email
    -address
}

class Clinical {
    -idLaboratory
    -name
    -address
    -tin
    -phoneNumber
    -testTypes
}

class TestType {
  -code
  -description
  -collectingMethods
}

class TestParameters {
}

class Parameters {
   -idParameter
   -description
}

class Parameter_Category {
   -idCategory
   -name
}


Company "1" - - "*" Test : performs
Company "1" - - "*" Client : has
Company "1" - - "*" Clinical : has
Test "*" - - "1" TestType : is of >
Test "*" - - "1" TestParameters : request analysis for >
TestParameters "1" - - "*" Parameters : request analysis for >
Parameters "*" - - "1" Parameter_Category : presented under >

@enduml

PlantUML version 1.2021.2(Sun Mar 07 11:10:27 GMT 2021)
(GPL source distribution)
Java Runtime: OpenJDK Runtime Environment
JVM: OpenJDK 64-Bit Server VM
Default Encoding: Cp1252
Language: pt
Country: PT
--></g></svg>