<?xml version="1.0" encoding="UTF-8" standalone="no"?><svg xmlns="http://www.w3.org/2000/svg" xmlns:xlink="http://www.w3.org/1999/xlink" contentScriptType="application/ecmascript" contentStyleType="text/css" height="316px" preserveAspectRatio="none" style="width:441px;height:316px;" version="1.1" viewBox="0 0 441 316" width="441px" zoomAndPan="magnify"><defs><filter height="300%" id="frow653hzwk80" width="300%" x="-1" y="-1"><feGaussianBlur result="blurOut" stdDeviation="2.0"/><feColorMatrix in="blurOut" result="blurOut2" type="matrix" values="0 0 0 0 0 0 0 0 0 0 0 0 0 0 0 0 0 0 .4 0"/><feOffset dx="4.0" dy="4.0" in="blurOut2" result="blurOut3"/><feBlend in="SourceGraphic" in2="blurOut3" mode="normal"/></filter></defs><g><rect fill="#FFFFFF" filter="url(#frow653hzwk80)" height="113.4063" style="stroke:#A80036;stroke-width:1.0;" width="10" x="77" y="99.6094"/><rect fill="#FFFFFF" filter="url(#frow653hzwk80)" height="30.3516" style="stroke:#A80036;stroke-width:1.0;" width="10" x="392" y="121.9609"/><rect fill="#FFFFFF" filter="url(#frow653hzwk80)" height="30.3516" style="stroke:#A80036;stroke-width:1.0;" width="10" x="392" y="182.6641"/><line style="stroke:#A80036;stroke-width:1.0;stroke-dasharray:5.0,5.0;" x1="82" x2="82" y1="89.6094" y2="231.0156"/><line style="stroke:#A80036;stroke-width:1.0;stroke-dasharray:5.0,5.0;" x1="397" x2="397" y1="89.6094" y2="231.0156"/><text fill="#000000" font-family="sans-serif" font-size="14" lengthAdjust="spacing" textLength="148" x="5" y="86.5332">Laboratory Coordinator</text><ellipse cx="82" cy="15" fill="#FEFECE" filter="url(#frow653hzwk80)" rx="8" ry="8" style="stroke:#A80036;stroke-width:2.0;"/><path d="M82,23 L82,50 M69,31 L95,31 M82,50 L69,65 M82,50 L95,65 " fill="none" filter="url(#frow653hzwk80)" style="stroke:#A80036;stroke-width:2.0;"/><text fill="#000000" font-family="sans-serif" font-size="14" lengthAdjust="spacing" textLength="148" x="5" y="244.5488">Laboratory Coordinator</text><ellipse cx="82" cy="257.625" fill="#FEFECE" filter="url(#frow653hzwk80)" rx="8" ry="8" style="stroke:#A80036;stroke-width:2.0;"/><path d="M82,265.625 L82,292.625 M69,273.625 L95,273.625 M82,292.625 L69,307.625 M82,292.625 L95,307.625 " fill="none" filter="url(#frow653hzwk80)" style="stroke:#A80036;stroke-width:2.0;"/><rect fill="#FEFECE" filter="url(#frow653hzwk80)" height="31.6094" style="stroke:#A80036;stroke-width:1.5;" width="64" x="363" y="53"/><text fill="#000000" font-family="sans-serif" font-size="14" lengthAdjust="spacing" textLength="50" x="370" y="74.5332">:System</text><rect fill="#FEFECE" filter="url(#frow653hzwk80)" height="31.6094" style="stroke:#A80036;stroke-width:1.5;" width="64" x="363" y="230.0156"/><text fill="#000000" font-family="sans-serif" font-size="14" lengthAdjust="spacing" textLength="50" x="370" y="251.5488">:System</text><rect fill="#FFFFFF" filter="url(#frow653hzwk80)" height="113.4063" style="stroke:#A80036;stroke-width:1.0;" width="10" x="77" y="99.6094"/><rect fill="#FFFFFF" filter="url(#frow653hzwk80)" height="30.3516" style="stroke:#A80036;stroke-width:1.0;" width="10" x="392" y="121.9609"/><rect fill="#FFFFFF" filter="url(#frow653hzwk80)" height="30.3516" style="stroke:#A80036;stroke-width:1.0;" width="10" x="392" y="182.6641"/><polygon fill="#A80036" points="380,117.9609,390,121.9609,380,125.9609,384,121.9609" style="stroke:#A80036;stroke-width:1.0;"/><line style="stroke:#A80036;stroke-width:1.0;" x1="87" x2="386" y1="121.9609" y2="121.9609"/><text fill="#000000" font-family="sans-serif" font-size="13" font-weight="bold" lengthAdjust="spacing" textLength="7" x="94" y="117.1045">1</text><text fill="#000000" font-family="sans-serif" font-size="13" lengthAdjust="spacing" textLength="137" x="105" y="117.1045">asks to import a csv file</text><polygon fill="#A80036" points="98,148.3125,88,152.3125,98,156.3125,94,152.3125" style="stroke:#A80036;stroke-width:1.0;"/><line style="stroke:#A80036;stroke-width:1.0;stroke-dasharray:2.0,2.0;" x1="92" x2="396" y1="152.3125" y2="152.3125"/><text fill="#000000" font-family="sans-serif" font-size="13" font-weight="bold" lengthAdjust="spacing" textLength="7" x="104" y="147.4561">2</text><text fill="#000000" font-family="sans-serif" font-size="13" lengthAdjust="spacing" textLength="89" x="115" y="147.4561">asks for csv file</text><polygon fill="#A80036" points="380,178.6641,390,182.6641,380,186.6641,384,182.6641" style="stroke:#A80036;stroke-width:1.0;"/><line style="stroke:#A80036;stroke-width:1.0;" x1="87" x2="386" y1="182.6641" y2="182.6641"/><text fill="#000000" font-family="sans-serif" font-size="13" font-weight="bold" lengthAdjust="spacing" textLength="7" x="94" y="177.8076">3</text><text fill="#000000" font-family="sans-serif" font-size="13" lengthAdjust="spacing" textLength="97" x="105" y="177.8076">imports a csv file</text><polygon fill="#A80036" points="93,209.0156,83,213.0156,93,217.0156,89,213.0156" style="stroke:#A80036;stroke-width:1.0;"/><line style="stroke:#A80036;stroke-width:1.0;stroke-dasharray:2.0,2.0;" x1="87" x2="396" y1="213.0156" y2="213.0156"/><text fill="#000000" font-family="sans-serif" font-size="13" font-weight="bold" lengthAdjust="spacing" textLength="7" x="99" y="208.1592">4</text><text fill="#000000" font-family="sans-serif" font-size="13" lengthAdjust="spacing" textLength="270" x="110" y="208.1592">validate all data and informs operation success</text><!--MD5=[84cded5d3903c7dccec730565b19cbdd]
@startuml
autonumber
actor "Laboratory Coordinator" as LABCOOR

activate LABCOOR
LABCOOR -> ":System" : asks to import a csv file
activate ":System"
":System" - -> LABCOOR : asks for csv file
deactivate ":System"
LABCOOR -> ":System" : imports a csv file
activate ":System"
":System" - -> LABCOOR : validate all data and informs operation success

deactivate ":System"
deactivate LABCOOR
@enduml

PlantUML version 1.2021.2(Sun Mar 07 11:10:27 GMT 2021)
(GPL source distribution)
Java Runtime: OpenJDK Runtime Environment
JVM: OpenJDK 64-Bit Server VM
Default Encoding: Cp1252
Language: pt
Country: PT
--></g></svg>