<?xml version="1.0" encoding="UTF-8" standalone="no"?><svg xmlns="http://www.w3.org/2000/svg" xmlns:xlink="http://www.w3.org/1999/xlink" contentScriptType="application/ecmascript" contentStyleType="text/css" height="1216px" preserveAspectRatio="none" style="width:1063px;height:1216px;" version="1.1" viewBox="0 0 1063 1216" width="1063px" zoomAndPan="magnify"><defs><filter height="300%" id="f1rncki9n55coi" width="300%" x="-1" y="-1"><feGaussianBlur result="blurOut" stdDeviation="2.0"/><feColorMatrix in="blurOut" result="blurOut2" type="matrix" values="0 0 0 0 0 0 0 0 0 0 0 0 0 0 0 0 0 0 .4 0"/><feOffset dx="4.0" dy="4.0" in="blurOut2" result="blurOut3"/><feBlend in="SourceGraphic" in2="blurOut3" mode="normal"/></filter></defs><g><!--MD5=[7ed141c03e0152edde835bfe9581b283]
class ImportTestsUI--><rect codeLine="3" fill="#FEFECE" filter="url(#f1rncki9n55coi)" height="48" id="ImportTestsUI" style="stroke:#A80036;stroke-width:1.5;" width="110" x="444" y="7"/><ellipse cx="459" cy="23" fill="#ADD1B2" rx="11" ry="11" style="stroke:#A80036;stroke-width:1.0;"/><path d="M461,19.5 Q461.2031,19 461.4375,18.75 Q461.6719,18.5 461.9375,18.5 Q462.4063,18.5 462.7031,18.7813 Q463,19.0625 463,19.7188 L463,21.2813 Q463,21.9375 462.7188,22.2188 Q462.4375,22.5 462,22.5 Q461.6094,22.5 461.3594,22.3281 Q461.1094,22.1563 461,21.7031 Q460.9531,21.3906 460.7813,21.2188 Q460.4688,20.8906 459.9063,20.7031 Q459.3438,20.5 458.7813,20.5 Q458.0781,20.5 457.4844,20.7813 Q456.9063,21.0625 456.4531,21.6875 Q456,22.3125 456,23.1719 L456,24.0938 Q456,25.125 456.8438,25.8125 Q457.6875,26.5 459.1875,26.5 Q460.0781,26.5 460.7031,26.2969 Q461.0625,26.1875 461.4688,25.8281 Q461.7344,25.625 461.875,25.5625 Q462.0156,25.5 462.1875,25.5 Q462.5156,25.5 462.75,25.7656 Q463,26.0156 463,26.375 Q463,26.7188 462.6563,27.125 Q462.1563,27.7188 461.3594,28.0469 Q460.3125,28.5 459.0313,28.5 Q457.5313,28.5 456.3281,27.9063 Q455.3594,27.4375 454.6719,26.4219 Q454,25.4063 454,24.2031 L454,23.1094 Q454,21.8594 454.5938,20.7656 Q455.2031,19.6719 456.25,19.0938 Q457.3125,18.5 458.5,18.5 Q459.2188,18.5 459.8438,18.75 Q460.4688,19 461,19.5 Z " fill="#000000"/><text fill="#000000" font-family="sans-serif" font-size="12" lengthAdjust="spacing" textLength="78" x="473" y="27.9102">ImportTestsUI</text><line style="stroke:#A80036;stroke-width:1.5;" x1="445" x2="553" y1="39" y2="39"/><line style="stroke:#A80036;stroke-width:1.5;" x1="445" x2="553" y1="47" y2="47"/><!--MD5=[4925cdaea387b73ba3fc6d6eaf70d1b9]
class ImportTestsController--><rect codeLine="7" fill="#FEFECE" filter="url(#f1rncki9n55coi)" height="172.5234" id="ImportTestsController" style="stroke:#A80036;stroke-width:1.5;" width="179" x="409.5" y="115"/><ellipse cx="436.65" cy="131" fill="#ADD1B2" rx="11" ry="11" style="stroke:#A80036;stroke-width:1.0;"/><path d="M438.65,127.5 Q438.8531,127 439.0875,126.75 Q439.3219,126.5 439.5875,126.5 Q440.0563,126.5 440.3531,126.7813 Q440.65,127.0625 440.65,127.7188 L440.65,129.2813 Q440.65,129.9375 440.3688,130.2188 Q440.0875,130.5 439.65,130.5 Q439.2594,130.5 439.0094,130.3281 Q438.7594,130.1563 438.65,129.7031 Q438.6031,129.3906 438.4313,129.2188 Q438.1188,128.8906 437.5563,128.7031 Q436.9938,128.5 436.4313,128.5 Q435.7281,128.5 435.1344,128.7813 Q434.5563,129.0625 434.1031,129.6875 Q433.65,130.3125 433.65,131.1719 L433.65,132.0938 Q433.65,133.125 434.4938,133.8125 Q435.3375,134.5 436.8375,134.5 Q437.7281,134.5 438.3531,134.2969 Q438.7125,134.1875 439.1188,133.8281 Q439.3844,133.625 439.525,133.5625 Q439.6656,133.5 439.8375,133.5 Q440.1656,133.5 440.4,133.7656 Q440.65,134.0156 440.65,134.375 Q440.65,134.7188 440.3063,135.125 Q439.8063,135.7188 439.0094,136.0469 Q437.9625,136.5 436.6813,136.5 Q435.1813,136.5 433.9781,135.9063 Q433.0094,135.4375 432.3219,134.4219 Q431.65,133.4063 431.65,132.2031 L431.65,131.1094 Q431.65,129.8594 432.2438,128.7656 Q432.8531,127.6719 433.9,127.0938 Q434.9625,126.5 436.15,126.5 Q436.8688,126.5 437.4938,126.75 Q438.1188,127 438.65,127.5 Z " fill="#000000"/><text fill="#000000" font-family="sans-serif" font-size="12" lengthAdjust="spacing" textLength="120" x="453.35" y="135.9102">ImportTestsController</text><line style="stroke:#A80036;stroke-width:1.5;" x1="410.5" x2="587.5" y1="147" y2="147"/><rect fill="none" height="6" style="stroke:#C82930;stroke-width:1.0;" width="6" x="417.5" y="155"/><text fill="#000000" font-family="sans-serif" font-size="11" lengthAdjust="spacing" textLength="94" x="429.5" y="162.4189">TestStore testStore</text><rect fill="none" height="6" style="stroke:#C82930;stroke-width:1.0;" width="6" x="417.5" y="168.8359"/><text fill="#000000" font-family="sans-serif" font-size="11" lengthAdjust="spacing" textLength="106" x="429.5" y="176.2549">ClientStore clientStore</text><rect fill="none" height="6" style="stroke:#C82930;stroke-width:1.0;" width="6" x="417.5" y="182.6719"/><text fill="#000000" font-family="sans-serif" font-size="11" lengthAdjust="spacing" textLength="120" x="429.5" y="190.0908">ClinicalStore clinicalStore</text><rect fill="none" height="6" style="stroke:#C82930;stroke-width:1.0;" width="6" x="417.5" y="196.5078"/><text fill="#000000" font-family="sans-serif" font-size="11" lengthAdjust="spacing" textLength="153" x="429.5" y="203.9268">ParameterStore parameterStore</text><rect fill="none" height="6" style="stroke:#C82930;stroke-width:1.0;" width="6" x="417.5" y="210.3438"/><text fill="#000000" font-family="sans-serif" font-size="11" lengthAdjust="spacing" textLength="142" x="429.5" y="217.7627">TestTypeStore testTypeStore</text><rect fill="none" height="6" style="stroke:#C82930;stroke-width:1.0;" width="6" x="417.5" y="224.1797"/><text fill="#000000" font-family="sans-serif" font-size="11" lengthAdjust="spacing" textLength="119" x="429.5" y="231.5986">AuthFacade authFacade</text><line style="stroke:#A80036;stroke-width:1.0;" x1="410.5" x2="587.5" y1="238.0156" y2="238.0156"/><ellipse cx="420.5" cy="249.0156" fill="#84BE84" rx="3" ry="3" style="stroke:#038048;stroke-width:1.0;"/><text fill="#000000" font-family="sans-serif" font-size="11" lengthAdjust="spacing" textLength="46" x="429.5" y="253.4346">readFile()</text><ellipse cx="420.5" cy="262.8516" fill="#84BE84" rx="3" ry="3" style="stroke:#038048;stroke-width:1.0;"/><text fill="#000000" font-family="sans-serif" font-size="11" lengthAdjust="spacing" textLength="102" x="429.5" y="267.2705">getNumberOfErrors()</text><ellipse cx="420.5" cy="276.6875" fill="#84BE84" rx="3" ry="3" style="stroke:#038048;stroke-width:1.0;"/><text fill="#000000" font-family="sans-serif" font-size="11" lengthAdjust="spacing" textLength="82" x="429.5" y="281.1064">getListOfErrors()</text><!--MD5=[0f6f7964b844a64b0496af0dda7914bd]
class TestStore--><rect codeLine="20" fill="#FEFECE" filter="url(#f1rncki9n55coi)" height="89.5078" id="TestStore" style="stroke:#A80036;stroke-width:1.5;" width="87" x="379.5" y="730"/><ellipse cx="395.4" cy="746" fill="#ADD1B2" rx="11" ry="11" style="stroke:#A80036;stroke-width:1.0;"/><path d="M397.4,742.5 Q397.6031,742 397.8375,741.75 Q398.0719,741.5 398.3375,741.5 Q398.8063,741.5 399.1031,741.7813 Q399.4,742.0625 399.4,742.7188 L399.4,744.2813 Q399.4,744.9375 399.1188,745.2188 Q398.8375,745.5 398.4,745.5 Q398.0094,745.5 397.7594,745.3281 Q397.5094,745.1563 397.4,744.7031 Q397.3531,744.3906 397.1813,744.2188 Q396.8688,743.8906 396.3063,743.7031 Q395.7438,743.5 395.1813,743.5 Q394.4781,743.5 393.8844,743.7813 Q393.3063,744.0625 392.8531,744.6875 Q392.4,745.3125 392.4,746.1719 L392.4,747.0938 Q392.4,748.125 393.2438,748.8125 Q394.0875,749.5 395.5875,749.5 Q396.4781,749.5 397.1031,749.2969 Q397.4625,749.1875 397.8688,748.8281 Q398.1344,748.625 398.275,748.5625 Q398.4156,748.5 398.5875,748.5 Q398.9156,748.5 399.15,748.7656 Q399.4,749.0156 399.4,749.375 Q399.4,749.7188 399.0563,750.125 Q398.5563,750.7188 397.7594,751.0469 Q396.7125,751.5 395.4313,751.5 Q393.9313,751.5 392.7281,750.9063 Q391.7594,750.4375 391.0719,749.4219 Q390.4,748.4063 390.4,747.2031 L390.4,746.1094 Q390.4,744.8594 390.9938,743.7656 Q391.6031,742.6719 392.65,742.0938 Q393.7125,741.5 394.9,741.5 Q395.6188,741.5 396.2438,741.75 Q396.8688,742 397.4,742.5 Z " fill="#000000"/><text fill="#000000" font-family="sans-serif" font-size="12" lengthAdjust="spacing" textLength="53" x="409.6" y="750.9102">TestStore</text><line style="stroke:#A80036;stroke-width:1.5;" x1="380.5" x2="465.5" y1="762" y2="762"/><line style="stroke:#A80036;stroke-width:1.5;" x1="380.5" x2="465.5" y1="770" y2="770"/><ellipse cx="390.5" cy="781" fill="#84BE84" rx="3" ry="3" style="stroke:#038048;stroke-width:1.0;"/><text fill="#000000" font-family="sans-serif" font-size="11" lengthAdjust="spacing" textLength="60" x="399.5" y="785.4189">createTest()</text><ellipse cx="390.5" cy="794.8359" fill="#84BE84" rx="3" ry="3" style="stroke:#038048;stroke-width:1.0;"/><text fill="#000000" font-family="sans-serif" font-size="11" lengthAdjust="spacing" textLength="53" x="399.5" y="799.2549">saveTest()</text><ellipse cx="390.5" cy="808.6719" fill="#84BE84" rx="3" ry="3" style="stroke:#038048;stroke-width:1.0;"/><text fill="#000000" font-family="sans-serif" font-size="11" lengthAdjust="spacing" textLength="61" x="399.5" y="813.0908">getTestList()</text><!--MD5=[0f07739f46effee96e095e9c408da841]
class TestParameter--><rect codeLine="26" fill="#FEFECE" filter="url(#f1rncki9n55coi)" height="89.5078" id="TestParameter" style="stroke:#A80036;stroke-width:1.5;" width="186" x="330" y="1113"/><ellipse cx="377.75" cy="1129" fill="#ADD1B2" rx="11" ry="11" style="stroke:#A80036;stroke-width:1.0;"/><path d="M379.75,1125.5 Q379.9531,1125 380.1875,1124.75 Q380.4219,1124.5 380.6875,1124.5 Q381.1563,1124.5 381.4531,1124.7813 Q381.75,1125.0625 381.75,1125.7188 L381.75,1127.2813 Q381.75,1127.9375 381.4688,1128.2188 Q381.1875,1128.5 380.75,1128.5 Q380.3594,1128.5 380.1094,1128.3281 Q379.8594,1128.1563 379.75,1127.7031 Q379.7031,1127.3906 379.5313,1127.2188 Q379.2188,1126.8906 378.6563,1126.7031 Q378.0938,1126.5 377.5313,1126.5 Q376.8281,1126.5 376.2344,1126.7813 Q375.6563,1127.0625 375.2031,1127.6875 Q374.75,1128.3125 374.75,1129.1719 L374.75,1130.0938 Q374.75,1131.125 375.5938,1131.8125 Q376.4375,1132.5 377.9375,1132.5 Q378.8281,1132.5 379.4531,1132.2969 Q379.8125,1132.1875 380.2188,1131.8281 Q380.4844,1131.625 380.625,1131.5625 Q380.7656,1131.5 380.9375,1131.5 Q381.2656,1131.5 381.5,1131.7656 Q381.75,1132.0156 381.75,1132.375 Q381.75,1132.7188 381.4063,1133.125 Q380.9063,1133.7188 380.1094,1134.0469 Q379.0625,1134.5 377.7813,1134.5 Q376.2813,1134.5 375.0781,1133.9063 Q374.1094,1133.4375 373.4219,1132.4219 Q372.75,1131.4063 372.75,1130.2031 L372.75,1129.1094 Q372.75,1127.8594 373.3438,1126.7656 Q373.9531,1125.6719 375,1125.0938 Q376.0625,1124.5 377.25,1124.5 Q377.9688,1124.5 378.5938,1124.75 Q379.2188,1125 379.75,1125.5 Z " fill="#000000"/><text fill="#000000" font-family="sans-serif" font-size="12" lengthAdjust="spacing" textLength="82" x="398.25" y="1133.9102">TestParameter</text><line style="stroke:#A80036;stroke-width:1.5;" x1="331" x2="515" y1="1145" y2="1145"/><rect fill="none" height="6" style="stroke:#C82930;stroke-width:1.0;" width="6" x="338" y="1153"/><text fill="#000000" font-family="sans-serif" font-size="11" lengthAdjust="spacing" textLength="60" x="350" y="1160.4189">String idTest</text><rect fill="none" height="6" style="stroke:#C82930;stroke-width:1.0;" width="6" x="338" y="1166.8359"/><text fill="#000000" font-family="sans-serif" font-size="11" lengthAdjust="spacing" textLength="128" x="350" y="1174.2549">List&lt;Parameter&gt; paramList</text><line style="stroke:#A80036;stroke-width:1.0;" x1="331" x2="515" y1="1180.6719" y2="1180.6719"/><ellipse cx="341" cy="1191.6719" fill="#84BE84" rx="3" ry="3" style="stroke:#038048;stroke-width:1.0;"/><text fill="#000000" font-family="sans-serif" font-size="11" lengthAdjust="spacing" textLength="160" x="350" y="1196.0908">TestParameter(idTest, paramList)</text><!--MD5=[55cb992be19579b505cea3c5691093cb]
class ClientStore--><rect codeLine="33" fill="#FEFECE" filter="url(#f1rncki9n55coi)" height="89.5078" id="ClientStore" style="stroke:#A80036;stroke-width:1.5;" width="125" x="18.5" y="730"/><ellipse cx="47.9" cy="746" fill="#ADD1B2" rx="11" ry="11" style="stroke:#A80036;stroke-width:1.0;"/><path d="M49.9,742.5 Q50.1031,742 50.3375,741.75 Q50.5719,741.5 50.8375,741.5 Q51.3063,741.5 51.6031,741.7813 Q51.9,742.0625 51.9,742.7188 L51.9,744.2813 Q51.9,744.9375 51.6188,745.2188 Q51.3375,745.5 50.9,745.5 Q50.5094,745.5 50.2594,745.3281 Q50.0094,745.1563 49.9,744.7031 Q49.8531,744.3906 49.6813,744.2188 Q49.3688,743.8906 48.8063,743.7031 Q48.2438,743.5 47.6813,743.5 Q46.9781,743.5 46.3844,743.7813 Q45.8063,744.0625 45.3531,744.6875 Q44.9,745.3125 44.9,746.1719 L44.9,747.0938 Q44.9,748.125 45.7438,748.8125 Q46.5875,749.5 48.0875,749.5 Q48.9781,749.5 49.6031,749.2969 Q49.9625,749.1875 50.3688,748.8281 Q50.6344,748.625 50.775,748.5625 Q50.9156,748.5 51.0875,748.5 Q51.4156,748.5 51.65,748.7656 Q51.9,749.0156 51.9,749.375 Q51.9,749.7188 51.5563,750.125 Q51.0563,750.7188 50.2594,751.0469 Q49.2125,751.5 47.9313,751.5 Q46.4313,751.5 45.2281,750.9063 Q44.2594,750.4375 43.5719,749.4219 Q42.9,748.4063 42.9,747.2031 L42.9,746.1094 Q42.9,744.8594 43.4938,743.7656 Q44.1031,742.6719 45.15,742.0938 Q46.2125,741.5 47.4,741.5 Q48.1188,741.5 48.7438,741.75 Q49.3688,742 49.9,742.5 Z " fill="#000000"/><text fill="#000000" font-family="sans-serif" font-size="12" lengthAdjust="spacing" textLength="61" x="65.1" y="750.9102">ClientStore</text><line style="stroke:#A80036;stroke-width:1.5;" x1="19.5" x2="142.5" y1="762" y2="762"/><line style="stroke:#A80036;stroke-width:1.5;" x1="19.5" x2="142.5" y1="770" y2="770"/><ellipse cx="29.5" cy="781" fill="#84BE84" rx="3" ry="3" style="stroke:#038048;stroke-width:1.0;"/><text fill="#000000" font-family="sans-serif" font-size="11" lengthAdjust="spacing" textLength="99" x="38.5" y="785.4189">verifyExistingClient()</text><ellipse cx="29.5" cy="794.8359" fill="#84BE84" rx="3" ry="3" style="stroke:#038048;stroke-width:1.0;"/><text fill="#000000" font-family="sans-serif" font-size="11" lengthAdjust="spacing" textLength="65" x="38.5" y="799.2549">createClient()</text><ellipse cx="29.5" cy="808.6719" fill="#84BE84" rx="3" ry="3" style="stroke:#038048;stroke-width:1.0;"/><text fill="#000000" font-family="sans-serif" font-size="11" lengthAdjust="spacing" textLength="58" x="38.5" y="813.0908">saveClient()</text><!--MD5=[1f6362a5c8f21d8d6a0fce68f3a92a4e]
class Parameter--><rect codeLine="39" fill="#FEFECE" filter="url(#f1rncki9n55coi)" height="103.3438" id="Parameter" style="stroke:#A80036;stroke-width:1.5;" width="165" x="645.5" y="915"/><ellipse cx="694.75" cy="931" fill="#ADD1B2" rx="11" ry="11" style="stroke:#A80036;stroke-width:1.0;"/><path d="M696.75,927.5 Q696.9531,927 697.1875,926.75 Q697.4219,926.5 697.6875,926.5 Q698.1563,926.5 698.4531,926.7813 Q698.75,927.0625 698.75,927.7188 L698.75,929.2813 Q698.75,929.9375 698.4688,930.2188 Q698.1875,930.5 697.75,930.5 Q697.3594,930.5 697.1094,930.3281 Q696.8594,930.1563 696.75,929.7031 Q696.7031,929.3906 696.5313,929.2188 Q696.2188,928.8906 695.6563,928.7031 Q695.0938,928.5 694.5313,928.5 Q693.8281,928.5 693.2344,928.7813 Q692.6563,929.0625 692.2031,929.6875 Q691.75,930.3125 691.75,931.1719 L691.75,932.0938 Q691.75,933.125 692.5938,933.8125 Q693.4375,934.5 694.9375,934.5 Q695.8281,934.5 696.4531,934.2969 Q696.8125,934.1875 697.2188,933.8281 Q697.4844,933.625 697.625,933.5625 Q697.7656,933.5 697.9375,933.5 Q698.2656,933.5 698.5,933.7656 Q698.75,934.0156 698.75,934.375 Q698.75,934.7188 698.4063,935.125 Q697.9063,935.7188 697.1094,936.0469 Q696.0625,936.5 694.7813,936.5 Q693.2813,936.5 692.0781,935.9063 Q691.1094,935.4375 690.4219,934.4219 Q689.75,933.4063 689.75,932.2031 L689.75,931.1094 Q689.75,929.8594 690.3438,928.7656 Q690.9531,927.6719 692,927.0938 Q693.0625,926.5 694.25,926.5 Q694.9688,926.5 695.5938,926.75 Q696.2188,927 696.75,927.5 Z " fill="#000000"/><text fill="#000000" font-family="sans-serif" font-size="12" lengthAdjust="spacing" textLength="58" x="715.25" y="935.9102">Parameter</text><line style="stroke:#A80036;stroke-width:1.5;" x1="646.5" x2="809.5" y1="947" y2="947"/><rect fill="none" height="6" style="stroke:#C82930;stroke-width:1.0;" width="6" x="653.5" y="955"/><text fill="#000000" font-family="sans-serif" font-size="11" lengthAdjust="spacing" textLength="55" x="665.5" y="962.4189">String code</text><rect fill="none" height="6" style="stroke:#C82930;stroke-width:1.0;" width="6" x="653.5" y="968.8359"/><text fill="#000000" font-family="sans-serif" font-size="11" lengthAdjust="spacing" textLength="57" x="665.5" y="976.2549">String name</text><rect fill="none" height="6" style="stroke:#C82930;stroke-width:1.0;" width="6" x="653.5" y="982.6719"/><text fill="#000000" font-family="sans-serif" font-size="11" lengthAdjust="spacing" textLength="84" x="665.5" y="990.0908">String description</text><rect fill="none" height="6" style="stroke:#C82930;stroke-width:1.0;" width="6" x="653.5" y="996.5078"/><text fill="#000000" font-family="sans-serif" font-size="11" lengthAdjust="spacing" textLength="139" x="665.5" y="1003.9268">ParameterCategory category</text><line style="stroke:#A80036;stroke-width:1.5;" x1="646.5" x2="809.5" y1="1010.3438" y2="1010.3438"/><!--MD5=[e97765950caee6ae0ccb509cbd7f1787]
class ClinicalStore--><rect codeLine="46" fill="#FEFECE" filter="url(#f1rncki9n55coi)" height="61.8359" id="ClinicalStore" style="stroke:#A80036;stroke-width:1.5;" width="132" x="201" y="744"/><ellipse cx="229.5" cy="760" fill="#ADD1B2" rx="11" ry="11" style="stroke:#A80036;stroke-width:1.0;"/><path d="M231.5,756.5 Q231.7031,756 231.9375,755.75 Q232.1719,755.5 232.4375,755.5 Q232.9063,755.5 233.2031,755.7813 Q233.5,756.0625 233.5,756.7188 L233.5,758.2813 Q233.5,758.9375 233.2188,759.2188 Q232.9375,759.5 232.5,759.5 Q232.1094,759.5 231.8594,759.3281 Q231.6094,759.1563 231.5,758.7031 Q231.4531,758.3906 231.2813,758.2188 Q230.9688,757.8906 230.4063,757.7031 Q229.8438,757.5 229.2813,757.5 Q228.5781,757.5 227.9844,757.7813 Q227.4063,758.0625 226.9531,758.6875 Q226.5,759.3125 226.5,760.1719 L226.5,761.0938 Q226.5,762.125 227.3438,762.8125 Q228.1875,763.5 229.6875,763.5 Q230.5781,763.5 231.2031,763.2969 Q231.5625,763.1875 231.9688,762.8281 Q232.2344,762.625 232.375,762.5625 Q232.5156,762.5 232.6875,762.5 Q233.0156,762.5 233.25,762.7656 Q233.5,763.0156 233.5,763.375 Q233.5,763.7188 233.1563,764.125 Q232.6563,764.7188 231.8594,765.0469 Q230.8125,765.5 229.5313,765.5 Q228.0313,765.5 226.8281,764.9063 Q225.8594,764.4375 225.1719,763.4219 Q224.5,762.4063 224.5,761.2031 L224.5,760.1094 Q224.5,758.8594 225.0938,757.7656 Q225.7031,756.6719 226.75,756.0938 Q227.8125,755.5 229,755.5 Q229.7188,755.5 230.3438,755.75 Q230.9688,756 231.5,756.5 Z " fill="#000000"/><text fill="#000000" font-family="sans-serif" font-size="12" lengthAdjust="spacing" textLength="70" x="246.5" y="764.9102">ClinicalStore</text><line style="stroke:#A80036;stroke-width:1.5;" x1="202" x2="332" y1="776" y2="776"/><line style="stroke:#A80036;stroke-width:1.5;" x1="202" x2="332" y1="784" y2="784"/><ellipse cx="212" cy="795" fill="#84BE84" rx="3" ry="3" style="stroke:#038048;stroke-width:1.0;"/><text fill="#000000" font-family="sans-serif" font-size="11" lengthAdjust="spacing" textLength="106" x="221" y="799.4189">verifyExistingClinical()</text><!--MD5=[8ae808d068a8995f06b9b3ec51357f0b]
class AuthFacade--><rect codeLine="50" fill="#FEFECE" filter="url(#f1rncki9n55coi)" height="61.8359" id="AuthFacade" style="stroke:#A80036;stroke-width:1.5;" width="117" x="552.5" y="608"/><ellipse cx="576.5" cy="624" fill="#ADD1B2" rx="11" ry="11" style="stroke:#A80036;stroke-width:1.0;"/><path d="M578.5,620.5 Q578.7031,620 578.9375,619.75 Q579.1719,619.5 579.4375,619.5 Q579.9063,619.5 580.2031,619.7813 Q580.5,620.0625 580.5,620.7188 L580.5,622.2813 Q580.5,622.9375 580.2188,623.2188 Q579.9375,623.5 579.5,623.5 Q579.1094,623.5 578.8594,623.3281 Q578.6094,623.1563 578.5,622.7031 Q578.4531,622.3906 578.2813,622.2188 Q577.9688,621.8906 577.4063,621.7031 Q576.8438,621.5 576.2813,621.5 Q575.5781,621.5 574.9844,621.7813 Q574.4063,622.0625 573.9531,622.6875 Q573.5,623.3125 573.5,624.1719 L573.5,625.0938 Q573.5,626.125 574.3438,626.8125 Q575.1875,627.5 576.6875,627.5 Q577.5781,627.5 578.2031,627.2969 Q578.5625,627.1875 578.9688,626.8281 Q579.2344,626.625 579.375,626.5625 Q579.5156,626.5 579.6875,626.5 Q580.0156,626.5 580.25,626.7656 Q580.5,627.0156 580.5,627.375 Q580.5,627.7188 580.1563,628.125 Q579.6563,628.7188 578.8594,629.0469 Q577.8125,629.5 576.5313,629.5 Q575.0313,629.5 573.8281,628.9063 Q572.8594,628.4375 572.1719,627.4219 Q571.5,626.4063 571.5,625.2031 L571.5,624.1094 Q571.5,622.8594 572.0938,621.7656 Q572.7031,620.6719 573.75,620.0938 Q574.8125,619.5 576,619.5 Q576.7188,619.5 577.3438,619.75 Q577.9688,620 578.5,620.5 Z " fill="#000000"/><text fill="#000000" font-family="sans-serif" font-size="12" lengthAdjust="spacing" textLength="65" x="592.5" y="628.9102">AuthFacade</text><line style="stroke:#A80036;stroke-width:1.5;" x1="553.5" x2="668.5" y1="640" y2="640"/><line style="stroke:#A80036;stroke-width:1.5;" x1="553.5" x2="668.5" y1="648" y2="648"/><ellipse cx="563.5" cy="659" fill="#84BE84" rx="3" ry="3" style="stroke:#038048;stroke-width:1.0;"/><text fill="#000000" font-family="sans-serif" font-size="11" lengthAdjust="spacing" textLength="91" x="572.5" y="663.4189">addUserWithRole()</text><!--MD5=[df38be88ccee13e832d6fafd6288a4ca]
class Test--><rect codeLine="54" fill="#FEFECE" filter="url(#f1rncki9n55coi)" height="131.0156" id="Test" style="stroke:#A80036;stroke-width:1.5;" width="116" x="365" y="901"/><ellipse cx="407" cy="917" fill="#ADD1B2" rx="11" ry="11" style="stroke:#A80036;stroke-width:1.0;"/><path d="M409,913.5 Q409.2031,913 409.4375,912.75 Q409.6719,912.5 409.9375,912.5 Q410.4063,912.5 410.7031,912.7813 Q411,913.0625 411,913.7188 L411,915.2813 Q411,915.9375 410.7188,916.2188 Q410.4375,916.5 410,916.5 Q409.6094,916.5 409.3594,916.3281 Q409.1094,916.1563 409,915.7031 Q408.9531,915.3906 408.7813,915.2188 Q408.4688,914.8906 407.9063,914.7031 Q407.3438,914.5 406.7813,914.5 Q406.0781,914.5 405.4844,914.7813 Q404.9063,915.0625 404.4531,915.6875 Q404,916.3125 404,917.1719 L404,918.0938 Q404,919.125 404.8438,919.8125 Q405.6875,920.5 407.1875,920.5 Q408.0781,920.5 408.7031,920.2969 Q409.0625,920.1875 409.4688,919.8281 Q409.7344,919.625 409.875,919.5625 Q410.0156,919.5 410.1875,919.5 Q410.5156,919.5 410.75,919.7656 Q411,920.0156 411,920.375 Q411,920.7188 410.6563,921.125 Q410.1563,921.7188 409.3594,922.0469 Q408.3125,922.5 407.0313,922.5 Q405.5313,922.5 404.3281,921.9063 Q403.3594,921.4375 402.6719,920.4219 Q402,919.4063 402,918.2031 L402,917.1094 Q402,915.8594 402.5938,914.7656 Q403.2031,913.6719 404.25,913.0938 Q405.3125,912.5 406.5,912.5 Q407.2188,912.5 407.8438,912.75 Q408.4688,913 409,913.5 Z " fill="#000000"/><text fill="#000000" font-family="sans-serif" font-size="12" lengthAdjust="spacing" textLength="24" x="427" y="921.9102">Test</text><line style="stroke:#A80036;stroke-width:1.5;" x1="366" x2="480" y1="933" y2="933"/><rect fill="none" height="6" style="stroke:#C82930;stroke-width:1.0;" width="6" x="373" y="941"/><text fill="#000000" font-family="sans-serif" font-size="11" lengthAdjust="spacing" textLength="42" x="385" y="948.4189">String tin</text><rect fill="none" height="6" style="stroke:#C82930;stroke-width:1.0;" width="6" x="373" y="954.8359"/><text fill="#000000" font-family="sans-serif" font-size="11" lengthAdjust="spacing" textLength="39" x="385" y="962.2549">String id</text><rect fill="none" height="6" style="stroke:#C82930;stroke-width:1.0;" width="6" x="373" y="968.6719"/><text fill="#000000" font-family="sans-serif" font-size="11" lengthAdjust="spacing" textLength="74" x="385" y="976.0908">String nhsCode</text><rect fill="none" height="6" style="stroke:#C82930;stroke-width:1.0;" width="6" x="373" y="982.5078"/><text fill="#000000" font-family="sans-serif" font-size="11" lengthAdjust="spacing" textLength="90" x="385" y="989.9268">TestType testType</text><rect fill="none" height="6" style="stroke:#C82930;stroke-width:1.0;" width="6" x="373" y="996.3438"/><text fill="#000000" font-family="sans-serif" font-size="11" lengthAdjust="spacing" textLength="46" x="385" y="1003.7627">Date date</text><line style="stroke:#A80036;stroke-width:1.0;" x1="366" x2="480" y1="1010.1797" y2="1010.1797"/><ellipse cx="376" cy="1021.1797" fill="#84BE84" rx="3" ry="3" style="stroke:#038048;stroke-width:1.0;"/><text fill="#000000" font-family="sans-serif" font-size="11" lengthAdjust="spacing" textLength="48" x="385" y="1025.5986">setState()</text><!--MD5=[6ba72ddf03822b91e8d41ca71de58ed3]
class TestTypeStore--><rect codeLine="64" fill="#FEFECE" filter="url(#f1rncki9n55coi)" height="61.8359" id="TestTypeStore" style="stroke:#A80036;stroke-width:1.5;" width="111" x="506.5" y="744"/><ellipse cx="521.5" cy="760" fill="#ADD1B2" rx="11" ry="11" style="stroke:#A80036;stroke-width:1.0;"/><path d="M523.5,756.5 Q523.7031,756 523.9375,755.75 Q524.1719,755.5 524.4375,755.5 Q524.9063,755.5 525.2031,755.7813 Q525.5,756.0625 525.5,756.7188 L525.5,758.2813 Q525.5,758.9375 525.2188,759.2188 Q524.9375,759.5 524.5,759.5 Q524.1094,759.5 523.8594,759.3281 Q523.6094,759.1563 523.5,758.7031 Q523.4531,758.3906 523.2813,758.2188 Q522.9688,757.8906 522.4063,757.7031 Q521.8438,757.5 521.2813,757.5 Q520.5781,757.5 519.9844,757.7813 Q519.4063,758.0625 518.9531,758.6875 Q518.5,759.3125 518.5,760.1719 L518.5,761.0938 Q518.5,762.125 519.3438,762.8125 Q520.1875,763.5 521.6875,763.5 Q522.5781,763.5 523.2031,763.2969 Q523.5625,763.1875 523.9688,762.8281 Q524.2344,762.625 524.375,762.5625 Q524.5156,762.5 524.6875,762.5 Q525.0156,762.5 525.25,762.7656 Q525.5,763.0156 525.5,763.375 Q525.5,763.7188 525.1563,764.125 Q524.6563,764.7188 523.8594,765.0469 Q522.8125,765.5 521.5313,765.5 Q520.0313,765.5 518.8281,764.9063 Q517.8594,764.4375 517.1719,763.4219 Q516.5,762.4063 516.5,761.2031 L516.5,760.1094 Q516.5,758.8594 517.0938,757.7656 Q517.7031,756.6719 518.75,756.0938 Q519.8125,755.5 521,755.5 Q521.7188,755.5 522.3438,755.75 Q522.9688,756 523.5,756.5 Z " fill="#000000"/><text fill="#000000" font-family="sans-serif" font-size="12" lengthAdjust="spacing" textLength="79" x="535.5" y="764.9102">TestTypeStore</text><line style="stroke:#A80036;stroke-width:1.5;" x1="507.5" x2="616.5" y1="776" y2="776"/><line style="stroke:#A80036;stroke-width:1.5;" x1="507.5" x2="616.5" y1="784" y2="784"/><ellipse cx="517.5" cy="795" fill="#84BE84" rx="3" ry="3" style="stroke:#038048;stroke-width:1.0;"/><text fill="#000000" font-family="sans-serif" font-size="11" lengthAdjust="spacing" textLength="85" x="526.5" y="799.4189">getTestTypeList()</text><!--MD5=[ed6624c6556d5e7b1bd23032162d20b7]
class Client--><rect codeLine="68" fill="#FEFECE" filter="url(#f1rncki9n55coi)" height="172.5234" id="Client" style="stroke:#A80036;stroke-width:1.5;" width="148" x="7" y="880"/><ellipse cx="60.75" cy="896" fill="#ADD1B2" rx="11" ry="11" style="stroke:#A80036;stroke-width:1.0;"/><path d="M62.75,892.5 Q62.9531,892 63.1875,891.75 Q63.4219,891.5 63.6875,891.5 Q64.1563,891.5 64.4531,891.7813 Q64.75,892.0625 64.75,892.7188 L64.75,894.2813 Q64.75,894.9375 64.4688,895.2188 Q64.1875,895.5 63.75,895.5 Q63.3594,895.5 63.1094,895.3281 Q62.8594,895.1563 62.75,894.7031 Q62.7031,894.3906 62.5313,894.2188 Q62.2188,893.8906 61.6563,893.7031 Q61.0938,893.5 60.5313,893.5 Q59.8281,893.5 59.2344,893.7813 Q58.6563,894.0625 58.2031,894.6875 Q57.75,895.3125 57.75,896.1719 L57.75,897.0938 Q57.75,898.125 58.5938,898.8125 Q59.4375,899.5 60.9375,899.5 Q61.8281,899.5 62.4531,899.2969 Q62.8125,899.1875 63.2188,898.8281 Q63.4844,898.625 63.625,898.5625 Q63.7656,898.5 63.9375,898.5 Q64.2656,898.5 64.5,898.7656 Q64.75,899.0156 64.75,899.375 Q64.75,899.7188 64.4063,900.125 Q63.9063,900.7188 63.1094,901.0469 Q62.0625,901.5 60.7813,901.5 Q59.2813,901.5 58.0781,900.9063 Q57.1094,900.4375 56.4219,899.4219 Q55.75,898.4063 55.75,897.2031 L55.75,896.1094 Q55.75,894.8594 56.3438,893.7656 Q56.9531,892.6719 58,892.0938 Q59.0625,891.5 60.25,891.5 Q60.9688,891.5 61.5938,891.75 Q62.2188,892 62.75,892.5 Z " fill="#000000"/><text fill="#000000" font-family="sans-serif" font-size="12" lengthAdjust="spacing" textLength="32" x="81.25" y="900.9102">Client</text><line style="stroke:#A80036;stroke-width:1.5;" x1="8" x2="154" y1="912" y2="912"/><rect fill="none" height="6" style="stroke:#C82930;stroke-width:1.0;" width="6" x="15" y="920"/><text fill="#000000" font-family="sans-serif" font-size="11" lengthAdjust="spacing" textLength="122" x="27" y="927.4189">String citizenCardNumber</text><rect fill="none" height="6" style="stroke:#C82930;stroke-width:1.0;" width="6" x="15" y="933.8359"/><text fill="#000000" font-family="sans-serif" font-size="11" lengthAdjust="spacing" textLength="57" x="27" y="941.2549">String name</text><rect fill="none" height="6" style="stroke:#C82930;stroke-width:1.0;" width="6" x="15" y="947.6719"/><text fill="#000000" font-family="sans-serif" font-size="11" lengthAdjust="spacing" textLength="49" x="27" y="955.0908">String sex</text><rect fill="none" height="6" style="stroke:#C82930;stroke-width:1.0;" width="6" x="15" y="961.5078"/><text fill="#000000" font-family="sans-serif" font-size="11" lengthAdjust="spacing" textLength="68" x="27" y="968.9268">Date birthDate</text><rect fill="none" height="6" style="stroke:#C82930;stroke-width:1.0;" width="6" x="15" y="975.3438"/><text fill="#000000" font-family="sans-serif" font-size="11" lengthAdjust="spacing" textLength="98" x="27" y="982.7627">String phoneNumber</text><rect fill="none" height="6" style="stroke:#C82930;stroke-width:1.0;" width="6" x="15" y="989.1797"/><text fill="#000000" font-family="sans-serif" font-size="11" lengthAdjust="spacing" textLength="86" x="27" y="996.5986">String nhsNumber</text><rect fill="none" height="6" style="stroke:#C82930;stroke-width:1.0;" width="6" x="15" y="1003.0156"/><text fill="#000000" font-family="sans-serif" font-size="11" lengthAdjust="spacing" textLength="42" x="27" y="1010.4346">String tin</text><rect fill="none" height="6" style="stroke:#C82930;stroke-width:1.0;" width="6" x="15" y="1016.8516"/><text fill="#000000" font-family="sans-serif" font-size="11" lengthAdjust="spacing" textLength="55" x="27" y="1024.2705">String email</text><rect fill="none" height="6" style="stroke:#C82930;stroke-width:1.0;" width="6" x="15" y="1030.6875"/><text fill="#000000" font-family="sans-serif" font-size="11" lengthAdjust="spacing" textLength="71" x="27" y="1038.1064">String address</text><line style="stroke:#A80036;stroke-width:1.5;" x1="8" x2="154" y1="1044.5234" y2="1044.5234"/><!--MD5=[02e4b9b7573f1156f41e60aa5b4e25a4]
class Company--><rect codeLine="80" fill="#FEFECE" filter="url(#f1rncki9n55coi)" height="200.1953" id="Company" style="stroke:#A80036;stroke-width:1.5;" width="179" x="409.5" y="348"/><ellipse cx="468.25" cy="364" fill="#ADD1B2" rx="11" ry="11" style="stroke:#A80036;stroke-width:1.0;"/><path d="M470.25,360.5 Q470.4531,360 470.6875,359.75 Q470.9219,359.5 471.1875,359.5 Q471.6563,359.5 471.9531,359.7813 Q472.25,360.0625 472.25,360.7188 L472.25,362.2813 Q472.25,362.9375 471.9688,363.2188 Q471.6875,363.5 471.25,363.5 Q470.8594,363.5 470.6094,363.3281 Q470.3594,363.1563 470.25,362.7031 Q470.2031,362.3906 470.0313,362.2188 Q469.7188,361.8906 469.1563,361.7031 Q468.5938,361.5 468.0313,361.5 Q467.3281,361.5 466.7344,361.7813 Q466.1563,362.0625 465.7031,362.6875 Q465.25,363.3125 465.25,364.1719 L465.25,365.0938 Q465.25,366.125 466.0938,366.8125 Q466.9375,367.5 468.4375,367.5 Q469.3281,367.5 469.9531,367.2969 Q470.3125,367.1875 470.7188,366.8281 Q470.9844,366.625 471.125,366.5625 Q471.2656,366.5 471.4375,366.5 Q471.7656,366.5 472,366.7656 Q472.25,367.0156 472.25,367.375 Q472.25,367.7188 471.9063,368.125 Q471.4063,368.7188 470.6094,369.0469 Q469.5625,369.5 468.2813,369.5 Q466.7813,369.5 465.5781,368.9063 Q464.6094,368.4375 463.9219,367.4219 Q463.25,366.4063 463.25,365.2031 L463.25,364.1094 Q463.25,362.8594 463.8438,361.7656 Q464.4531,360.6719 465.5,360.0938 Q466.5625,359.5 467.75,359.5 Q468.4688,359.5 469.0938,359.75 Q469.7188,360 470.25,360.5 Z " fill="#000000"/><text fill="#000000" font-family="sans-serif" font-size="12" lengthAdjust="spacing" textLength="53" x="488.75" y="368.9102">Company</text><line style="stroke:#A80036;stroke-width:1.5;" x1="410.5" x2="587.5" y1="380" y2="380"/><rect fill="none" height="6" style="stroke:#C82930;stroke-width:1.0;" width="6" x="417.5" y="388"/><text fill="#000000" font-family="sans-serif" font-size="11" lengthAdjust="spacing" textLength="120" x="429.5" y="395.4189">ClinicalStore clinicalStore</text><rect fill="none" height="6" style="stroke:#C82930;stroke-width:1.0;" width="6" x="417.5" y="401.8359"/><text fill="#000000" font-family="sans-serif" font-size="11" lengthAdjust="spacing" textLength="94" x="429.5" y="409.2549">TestStore testStore</text><rect fill="none" height="6" style="stroke:#C82930;stroke-width:1.0;" width="6" x="417.5" y="415.6719"/><text fill="#000000" font-family="sans-serif" font-size="11" lengthAdjust="spacing" textLength="153" x="429.5" y="423.0908">ParameterStore parameterStore</text><rect fill="none" height="6" style="stroke:#C82930;stroke-width:1.0;" width="6" x="417.5" y="429.5078"/><text fill="#000000" font-family="sans-serif" font-size="11" lengthAdjust="spacing" textLength="142" x="429.5" y="436.9268">TestTypeStore testTypeStore</text><rect fill="none" height="6" style="stroke:#C82930;stroke-width:1.0;" width="6" x="417.5" y="443.3438"/><text fill="#000000" font-family="sans-serif" font-size="11" lengthAdjust="spacing" textLength="106" x="429.5" y="450.7627">ClientStore clientStore</text><line style="stroke:#A80036;stroke-width:1.0;" x1="410.5" x2="587.5" y1="457.1797" y2="457.1797"/><ellipse cx="420.5" cy="468.1797" fill="#84BE84" rx="3" ry="3" style="stroke:#038048;stroke-width:1.0;"/><text fill="#000000" font-family="sans-serif" font-size="11" lengthAdjust="spacing" textLength="82" x="429.5" y="472.5986">getClinicalStore()</text><ellipse cx="420.5" cy="482.0156" fill="#84BE84" rx="3" ry="3" style="stroke:#038048;stroke-width:1.0;"/><text fill="#000000" font-family="sans-serif" font-size="11" lengthAdjust="spacing" textLength="75" x="429.5" y="486.4346">getClientStore()</text><ellipse cx="420.5" cy="495.8516" fill="#84BE84" rx="3" ry="3" style="stroke:#038048;stroke-width:1.0;"/><text fill="#000000" font-family="sans-serif" font-size="11" lengthAdjust="spacing" textLength="70" x="429.5" y="500.2705">getTestStore()</text><ellipse cx="420.5" cy="509.6875" fill="#84BE84" rx="3" ry="3" style="stroke:#038048;stroke-width:1.0;"/><text fill="#000000" font-family="sans-serif" font-size="11" lengthAdjust="spacing" textLength="98" x="429.5" y="514.1064">getParameterStore()</text><ellipse cx="420.5" cy="523.5234" fill="#84BE84" rx="3" ry="3" style="stroke:#038048;stroke-width:1.0;"/><text fill="#000000" font-family="sans-serif" font-size="11" lengthAdjust="spacing" textLength="94" x="429.5" y="527.9424">getTestTypeStore()</text><ellipse cx="420.5" cy="537.3594" fill="#84BE84" rx="3" ry="3" style="stroke:#038048;stroke-width:1.0;"/><text fill="#000000" font-family="sans-serif" font-size="11" lengthAdjust="spacing" textLength="82" x="429.5" y="541.7783">getAuthFacade()</text><!--MD5=[d802db621b5b215a6f0466f93cefcb42]
class ParameterCategoryStore--><rect codeLine="94" fill="#FEFECE" filter="url(#f1rncki9n55coi)" height="61.8359" id="ParameterCategoryStore" style="stroke:#A80036;stroke-width:1.5;" width="168" x="881" y="744"/><ellipse cx="896" cy="760" fill="#ADD1B2" rx="11" ry="11" style="stroke:#A80036;stroke-width:1.0;"/><path d="M898,756.5 Q898.2031,756 898.4375,755.75 Q898.6719,755.5 898.9375,755.5 Q899.4063,755.5 899.7031,755.7813 Q900,756.0625 900,756.7188 L900,758.2813 Q900,758.9375 899.7188,759.2188 Q899.4375,759.5 899,759.5 Q898.6094,759.5 898.3594,759.3281 Q898.1094,759.1563 898,758.7031 Q897.9531,758.3906 897.7813,758.2188 Q897.4688,757.8906 896.9063,757.7031 Q896.3438,757.5 895.7813,757.5 Q895.0781,757.5 894.4844,757.7813 Q893.9063,758.0625 893.4531,758.6875 Q893,759.3125 893,760.1719 L893,761.0938 Q893,762.125 893.8438,762.8125 Q894.6875,763.5 896.1875,763.5 Q897.0781,763.5 897.7031,763.2969 Q898.0625,763.1875 898.4688,762.8281 Q898.7344,762.625 898.875,762.5625 Q899.0156,762.5 899.1875,762.5 Q899.5156,762.5 899.75,762.7656 Q900,763.0156 900,763.375 Q900,763.7188 899.6563,764.125 Q899.1563,764.7188 898.3594,765.0469 Q897.3125,765.5 896.0313,765.5 Q894.5313,765.5 893.3281,764.9063 Q892.3594,764.4375 891.6719,763.4219 Q891,762.4063 891,761.2031 L891,760.1094 Q891,758.8594 891.5938,757.7656 Q892.2031,756.6719 893.25,756.0938 Q894.3125,755.5 895.5,755.5 Q896.2188,755.5 896.8438,755.75 Q897.4688,756 898,756.5 Z " fill="#000000"/><text fill="#000000" font-family="sans-serif" font-size="12" lengthAdjust="spacing" textLength="136" x="910" y="764.9102">ParameterCategoryStore</text><line style="stroke:#A80036;stroke-width:1.5;" x1="882" x2="1048" y1="776" y2="776"/><line style="stroke:#A80036;stroke-width:1.5;" x1="882" x2="1048" y1="784" y2="784"/><ellipse cx="892" cy="795" fill="#84BE84" rx="3" ry="3" style="stroke:#038048;stroke-width:1.0;"/><text fill="#000000" font-family="sans-serif" font-size="11" lengthAdjust="spacing" textLength="116" x="901" y="799.4189">getParameterCategory()</text><!--MD5=[be7802b157a16874d39c59ca0e2b25be]
class ParameterStore--><rect codeLine="98" fill="#FEFECE" filter="url(#f1rncki9n55coi)" height="61.8359" id="ParameterStore" style="stroke:#A80036;stroke-width:1.5;" width="144" x="656" y="744"/><ellipse cx="682.25" cy="760" fill="#ADD1B2" rx="11" ry="11" style="stroke:#A80036;stroke-width:1.0;"/><path d="M684.25,756.5 Q684.4531,756 684.6875,755.75 Q684.9219,755.5 685.1875,755.5 Q685.6563,755.5 685.9531,755.7813 Q686.25,756.0625 686.25,756.7188 L686.25,758.2813 Q686.25,758.9375 685.9688,759.2188 Q685.6875,759.5 685.25,759.5 Q684.8594,759.5 684.6094,759.3281 Q684.3594,759.1563 684.25,758.7031 Q684.2031,758.3906 684.0313,758.2188 Q683.7188,757.8906 683.1563,757.7031 Q682.5938,757.5 682.0313,757.5 Q681.3281,757.5 680.7344,757.7813 Q680.1563,758.0625 679.7031,758.6875 Q679.25,759.3125 679.25,760.1719 L679.25,761.0938 Q679.25,762.125 680.0938,762.8125 Q680.9375,763.5 682.4375,763.5 Q683.3281,763.5 683.9531,763.2969 Q684.3125,763.1875 684.7188,762.8281 Q684.9844,762.625 685.125,762.5625 Q685.2656,762.5 685.4375,762.5 Q685.7656,762.5 686,762.7656 Q686.25,763.0156 686.25,763.375 Q686.25,763.7188 685.9063,764.125 Q685.4063,764.7188 684.6094,765.0469 Q683.5625,765.5 682.2813,765.5 Q680.7813,765.5 679.5781,764.9063 Q678.6094,764.4375 677.9219,763.4219 Q677.25,762.4063 677.25,761.2031 L677.25,760.1094 Q677.25,758.8594 677.8438,757.7656 Q678.4531,756.6719 679.5,756.0938 Q680.5625,755.5 681.75,755.5 Q682.4688,755.5 683.0938,755.75 Q683.7188,756 684.25,756.5 Z " fill="#000000"/><text fill="#000000" font-family="sans-serif" font-size="12" lengthAdjust="spacing" textLength="87" x="698.75" y="764.9102">ParameterStore</text><line style="stroke:#A80036;stroke-width:1.5;" x1="657" x2="799" y1="776" y2="776"/><line style="stroke:#A80036;stroke-width:1.5;" x1="657" x2="799" y1="784" y2="784"/><ellipse cx="667" cy="795" fill="#84BE84" rx="3" ry="3" style="stroke:#038048;stroke-width:1.0;"/><text fill="#000000" font-family="sans-serif" font-size="11" lengthAdjust="spacing" textLength="118" x="676" y="799.4189">getParameterWithCode()</text><!--MD5=[a48943de09860bde9d3d50d306aabad7]
link ImportTestsUI to ImportTestsController--><path codeLine="102" d="M499,55.08 C499,69.62 499,89.43 499,109.76 " fill="none" id="ImportTestsUI-to-ImportTestsController" style="stroke:#A80036;stroke-width:1.0;stroke-dasharray:7.0,7.0;"/><polygon fill="#A80036" points="499,114.93,503,105.93,499,109.93,495,105.93,499,114.93" style="stroke:#A80036;stroke-width:1.0;"/><!--MD5=[fffaa22717ec57a552410f34a3de72ba]
link ImportTestsController to Company--><path codeLine="103" d="M499,288.01 C499,305.64 499,324.38 499,342.59 " fill="none" id="ImportTestsController-to-Company" style="stroke:#A80036;stroke-width:1.0;stroke-dasharray:7.0,7.0;"/><polygon fill="#A80036" points="499,347.71,503,338.71,499,342.71,495,338.71,499,347.71" style="stroke:#A80036;stroke-width:1.0;"/><!--MD5=[b432308621be51d9103319fc56e7ed92]
link ImportTestsController to ClientStore--><path codeLine="104" d="M409.3,250.86 C369.05,275.85 323.26,309.25 290,348 C188.99,465.67 123.52,640.64 95.94,725.01 " fill="none" id="ImportTestsController-to-ClientStore" style="stroke:#A80036;stroke-width:1.0;stroke-dasharray:7.0,7.0;"/><polygon fill="#A80036" points="94.34,729.94,100.9413,722.6309,95.8954,725.1881,93.3382,720.1422,94.34,729.94" style="stroke:#A80036;stroke-width:1.0;"/><!--MD5=[494eaef8dcac6a145e303b1651e45e83]
link ImportTestsController to ParameterCategoryStore--><path codeLine="105" d="M588.51,247.04 C633.02,272.29 685.39,307.04 724,348 C840.2,471.29 921.58,660.92 951.9,738.79 " fill="none" id="ImportTestsController-to-ParameterCategoryStore" style="stroke:#A80036;stroke-width:1.0;stroke-dasharray:7.0,7.0;"/><polygon fill="#A80036" points="953.82,743.75,954.3165,733.9137,952.0222,739.0844,946.8515,736.7901,953.82,743.75" style="stroke:#A80036;stroke-width:1.0;"/><!--MD5=[bbf2345fa1f9d54a565ee77345a30631]
link ImportTestsController to TestTypeStore--><path codeLine="106" d="M569.31,288.33 C582.72,307.25 595.74,327.71 606,348 C660.6,456.02 668.79,488.34 687,608 C691.15,635.24 698.7,645.05 687,670 C673.18,699.48 646.44,723.5 621.23,741.01 " fill="none" id="ImportTestsController-to-TestTypeStore" style="stroke:#A80036;stroke-width:1.0;stroke-dasharray:7.0,7.0;"/><polygon fill="#A80036" points="616.87,743.98,626.5596,742.2159,621.0014,741.1638,622.0536,735.6056,616.87,743.98" style="stroke:#A80036;stroke-width:1.0;"/><!--MD5=[747ce6e4eb90d030ac7c8735ac9324f3]
link ImportTestsController to ClinicalStore--><path codeLine="107" d="M409.38,284.37 C392.21,303.78 375.91,325.45 364,348 C293.95,480.64 274.24,662.56 268.9,738.48 " fill="none" id="ImportTestsController-to-ClinicalStore" style="stroke:#A80036;stroke-width:1.0;stroke-dasharray:7.0,7.0;"/><polygon fill="#A80036" points="268.54,743.76,273.1463,735.0547,268.8821,738.7717,265.1651,734.5074,268.54,743.76" style="stroke:#A80036;stroke-width:1.0;"/><!--MD5=[359e16e7a9dfb0a4a0aaeb2e9c874910]
link ImportTestsController to ParameterStore--><path codeLine="108" d="M588.8,261.03 C618.34,284.63 648.56,314.29 668,348 C742.06,476.42 737.35,661.79 731.49,738.6 " fill="none" id="ImportTestsController-to-ParameterStore" style="stroke:#A80036;stroke-width:1.0;stroke-dasharray:7.0,7.0;"/><polygon fill="#A80036" points="731.07,743.94,735.7769,735.2887,731.4699,738.956,727.8026,734.6489,731.07,743.94" style="stroke:#A80036;stroke-width:1.0;"/><!--MD5=[b502cb59529898a549b693c0e7fc5412]
link ImportTestsController to TestStore--><path codeLine="109" d="M422.46,288.29 C409.94,306.82 398.84,327.15 392,348 C349.13,478.65 384.63,643.54 407.46,724.51 " fill="none" id="ImportTestsController-to-TestStore" style="stroke:#A80036;stroke-width:1.0;stroke-dasharray:7.0,7.0;"/><polygon fill="#A80036" points="408.94,729.73,410.3213,719.9785,407.5702,724.9213,402.6273,722.1702,408.94,729.73" style="stroke:#A80036;stroke-width:1.0;"/><!--MD5=[a11230341c8e65219708844feaa40162]
link Company to ClientStore--><path codeLine="110" d="M409.33,518.72 C328.65,581.45 212.31,671.91 141.96,726.61 " fill="none" id="Company-to-ClientStore" style="stroke:#A80036;stroke-width:1.0;"/><polygon fill="#A80036" points="137.81,729.83,147.3681,727.4548,141.7545,726.7573,142.4519,721.1436,137.81,729.83" style="stroke:#A80036;stroke-width:1.0;"/><!--MD5=[1a0cd7d59d74318a11295da24d61823a]
link Company to ClinicalStore--><path codeLine="111" d="M428.13,548.28 C381.66,613.38 323.74,694.52 291.52,739.65 " fill="none" id="Company-to-ClinicalStore" style="stroke:#A80036;stroke-width:1.0;"/><polygon fill="#A80036" points="288.49,743.9,296.981,738.9098,291.4002,739.8342,290.4758,734.2534,288.49,743.9" style="stroke:#A80036;stroke-width:1.0;"/><!--MD5=[7f6cf7f175eae0af66201860de5de971]
link Company to TestStore--><path codeLine="112" d="M475.78,548.28 C462.1,606.81 445.38,678.32 434.47,724.95 " fill="none" id="Company-to-TestStore" style="stroke:#A80036;stroke-width:1.0;"/><polygon fill="#A80036" points="433.3,729.94,439.2499,722.0915,434.442,725.0722,431.4614,720.2643,433.3,729.94" style="stroke:#A80036;stroke-width:1.0;"/><!--MD5=[daf3d7412afa2c7651483be0b6e971d1]
link Company to ParameterStore--><path codeLine="113" d="M588.5,506.17 C624.01,533.07 662.2,568.05 687,608 C712.14,648.51 721.87,703.52 725.64,738.9 " fill="none" id="Company-to-ParameterStore" style="stroke:#A80036;stroke-width:1.0;"/><polygon fill="#A80036" points="726.15,743.97,729.2293,734.6149,725.6497,738.9951,721.2694,735.4155,726.15,743.97" style="stroke:#A80036;stroke-width:1.0;"/><!--MD5=[141c3afa12b2b3c0a39ffce56dbd5f19]
link Company to TestTypeStore--><path codeLine="114" d="M513.14,548.1 C519.12,586.34 526.64,630.35 535,670 C539.86,693.05 546.5,718.67 551.97,738.72 " fill="none" id="Company-to-TestTypeStore" style="stroke:#A80036;stroke-width:1.0;"/><polygon fill="#A80036" points="553.34,743.69,554.8017,733.9502,552.0099,738.8702,547.0899,736.0784,553.34,743.69" style="stroke:#A80036;stroke-width:1.0;"/><!--MD5=[a0992dda039fed1bb57aff5aacace800]
link ParameterStore to Parameter--><path codeLine="115" d="M728,806.03 C728,833.76 728,875.68 728,909.58 " fill="none" id="ParameterStore-to-Parameter" style="stroke:#A80036;stroke-width:1.0;"/><polygon fill="#A80036" points="728,914.94,732,905.94,728,909.94,724,905.94,728,914.94" style="stroke:#A80036;stroke-width:1.0;"/><!--MD5=[d53d7490e5836ca5709858d7326f212b]
link Company to ParameterCategoryStore--><path codeLine="116" d="M588.57,511.47 C686.69,579.9 840.33,687.05 917.46,740.85 " fill="none" id="Company-to-ParameterCategoryStore" style="stroke:#A80036;stroke-width:1.0;"/><polygon fill="#A80036" points="921.98,744,916.883,735.5726,917.8778,741.1413,912.3091,742.1361,921.98,744" style="stroke:#A80036;stroke-width:1.0;"/><!--MD5=[b0f4f6db8206580012ef9cd998ed01c5]
link TestStore to Test--><path codeLine="117" d="M423,820.43 C423,842.89 423,870.66 423,895.88 " fill="none" id="TestStore-to-Test" style="stroke:#A80036;stroke-width:1.0;"/><polygon fill="#A80036" points="423,900.89,427,891.89,423,895.89,419,891.89,423,900.89" style="stroke:#A80036;stroke-width:1.0;"/><!--MD5=[f24c888dadeb846430474fe80a58922b]
link Test to TestParameter--><path codeLine="118" d="M423,1032.19 C423,1056.91 423,1084.67 423,1107.73 " fill="none" id="Test-to-TestParameter" style="stroke:#A80036;stroke-width:1.0;"/><polygon fill="#A80036" points="423,1112.88,427,1103.88,423,1107.88,419,1103.88,423,1112.88" style="stroke:#A80036;stroke-width:1.0;"/><!--MD5=[1d934105a045dbf126514c6917bd5072]
link ClientStore to Client--><path codeLine="119" d="M81,820.43 C81,836.63 81,855.59 81,874.37 " fill="none" id="ClientStore-to-Client" style="stroke:#A80036;stroke-width:1.0;"/><polygon fill="#A80036" points="81,879.65,85,870.65,81,874.65,77,870.65,81,879.65" style="stroke:#A80036;stroke-width:1.0;"/><!--MD5=[717d4b03d3c4372f4eafe5e342a0a7dd]
link Company to AuthFacade--><path codeLine="120" d="M557.79,548.2 C569.57,568.08 581.18,587.68 590.54,603.47 " fill="none" id="Company-to-AuthFacade" style="stroke:#A80036;stroke-width:1.0;stroke-dasharray:7.0,7.0;"/><polygon fill="#A80036" points="593.12,607.82,591.9819,598.0371,590.5749,603.5162,585.0958,602.1093,593.12,607.82" style="stroke:#A80036;stroke-width:1.0;"/><!--MD5=[022e5be44e33469595f0c0556821e49b]
@startuml
top to bottom direction

class ImportTestsUI {

}

class ImportTestsController {
-TestStore testStore
-ClientStore clientStore
-ClinicalStore clinicalStore
-ParameterStore parameterStore
-TestTypeStore testTypeStore
-AuthFacade authFacade
- -
+readFile()
+getNumberOfErrors()
+getListOfErrors()
}

class TestStore {
+createTest()
+saveTest()
+getTestList()
}

class TestParameter {
    -String idTest
    -List<Parameter> paramList
    - -
    +TestParameter(idTest, paramList)
}

class ClientStore {
+verifyExistingClient()
+createClient()
+saveClient()
}

class Parameter {
  -String code
  -String name
  -String description
  -ParameterCategory category
}

class ClinicalStore {
+verifyExistingClinical()
}

class AuthFacade {
    +addUserWithRole()
}

class Test {
-String tin
-String id
-String nhsCode
-TestType testType
-Date date
- -
+setState()
}

class TestTypeStore {
+getTestTypeList()
}

class Client {
-String citizenCardNumber
-String name
-String sex
-Date birthDate
-String phoneNumber
-String nhsNumber
-String tin
-String email
-String address
}

class Company {
-ClinicalStore clinicalStore
-TestStore testStore
-ParameterStore parameterStore
-TestTypeStore testTypeStore
-ClientStore clientStore
- -
+getClinicalStore()
+getClientStore()
+getTestStore()
+getParameterStore()
+getTestTypeStore()
+getAuthFacade()
}
class ParameterCategoryStore {
    +getParameterCategory()
}

class ParameterStore {
+getParameterWithCode()
}

ImportTestsUI ..> ImportTestsController
ImportTestsController ..> Company
ImportTestsController ..> ClientStore
ImportTestsController ..> ParameterCategoryStore
ImportTestsController ..> TestTypeStore
ImportTestsController ..> ClinicalStore
ImportTestsController ..> ParameterStore
ImportTestsController ..> TestStore
Company - - -> ClientStore
Company - - -> ClinicalStore
Company - - -> TestStore
Company - - -> ParameterStore
Company - - -> TestTypeStore
ParameterStore - -> Parameter
Company - - -> ParameterCategoryStore
TestStore - -> Test
Test - -> TestParameter
ClientStore - -> Client
Company ..> AuthFacade

@enduml

PlantUML version 1.2021.2(Sun Mar 07 11:10:27 GMT 2021)
(GPL source distribution)
Java Runtime: OpenJDK Runtime Environment
JVM: OpenJDK 64-Bit Server VM
Default Encoding: Cp1252
Language: pt
Country: PT
--></g></svg>