<?xml version="1.0" encoding="UTF-8" standalone="no"?><svg xmlns="http://www.w3.org/2000/svg" xmlns:xlink="http://www.w3.org/1999/xlink" contentScriptType="application/ecmascript" contentStyleType="text/css" height="1092.5px" preserveAspectRatio="none" style="width:821px;height:1092px;" version="1.1" viewBox="0 0 821 1092" width="821.25px" zoomAndPan="magnify"><defs><filter height="300%" id="f1d05z6vkusurk" width="300%" x="-1" y="-1"><feGaussianBlur result="blurOut" stdDeviation="2.5"/><feColorMatrix in="blurOut" result="blurOut2" type="matrix" values="0 0 0 0 0 0 0 0 0 0 0 0 0 0 0 0 0 0 .4 0"/><feOffset dx="5.0" dy="5.0" in="blurOut2" result="blurOut3"/><feBlend in="SourceGraphic" in2="blurOut3" mode="normal"/></filter></defs><g><rect fill="#FFFFFF" filter="url(#f1d05z6vkusurk)" height="838.6523" style="stroke:#A80036;stroke-width:1.25;" width="12.5" x="71.25" y="124.5117"/><rect fill="#FFFFFF" filter="url(#f1d05z6vkusurk)" height="69.1895" style="stroke:#A80036;stroke-width:1.25;" width="12.5" x="742.5" y="152.4512"/><rect fill="#FFFFFF" filter="url(#f1d05z6vkusurk)" height="69.1895" style="stroke:#A80036;stroke-width:1.25;" width="12.5" x="742.5" y="290.8301"/><rect fill="#FFFFFF" filter="url(#f1d05z6vkusurk)" height="100.8789" style="stroke:#A80036;stroke-width:1.25;" width="12.5" x="742.5" y="429.209"/><rect fill="#FFFFFF" filter="url(#f1d05z6vkusurk)" height="109.6289" style="stroke:#A80036;stroke-width:1.25;" width="12.5" x="742.5" y="599.2773"/><rect fill="#FFFFFF" filter="url(#f1d05z6vkusurk)" height="46.6895" style="stroke:#A80036;stroke-width:1.25;" width="12.5" x="742.5" y="778.0957"/><rect fill="#FFFFFF" filter="url(#f1d05z6vkusurk)" height="69.1895" style="stroke:#A80036;stroke-width:1.25;" width="12.5" x="742.5" y="893.9746"/><rect fill="#FFFFFF" filter="url(#f1d05z6vkusurk)" height="130.0684" style="stroke:#000000;stroke-width:2.5;" width="791.25" x="12.5" y="479.209"/><rect fill="#FFFFFF" filter="url(#f1d05z6vkusurk)" height="130.0684" style="stroke:#000000;stroke-width:2.5;" width="791.25" x="12.5" y="658.0273"/><line style="stroke:#A80036;stroke-width:1.25;stroke-dasharray:5.0,5.0;" x1="77.5" x2="77.5" y1="112.0117" y2="985.6641"/><line style="stroke:#A80036;stroke-width:1.25;stroke-dasharray:5.0,5.0;" x1="748.75" x2="748.75" y1="112.0117" y2="985.6641"/><text fill="#000000" font-family="sans-serif" font-size="17.5" lengthAdjust="spacing" textLength="97.5" x="25" y="108.1665">Receptionist</text><ellipse cx="77.5" cy="18.75" fill="#FEFECE" filter="url(#f1d05z6vkusurk)" rx="10" ry="10" style="stroke:#A80036;stroke-width:2.5;"/><path d="M77.5,28.75 L77.5,62.5 M61.25,38.75 L93.75,38.75 M77.5,62.5 L61.25,81.25 M77.5,62.5 L93.75,81.25 " fill="none" filter="url(#f1d05z6vkusurk)" style="stroke:#A80036;stroke-width:2.5;"/><text fill="#000000" font-family="sans-serif" font-size="17.5" lengthAdjust="spacing" textLength="97.5" x="25" y="1002.5806">Receptionist</text><ellipse cx="77.5" cy="1018.9258" fill="#FEFECE" filter="url(#f1d05z6vkusurk)" rx="10" ry="10" style="stroke:#A80036;stroke-width:2.5;"/><path d="M77.5,1028.9258 L77.5,1062.6758 M61.25,1038.9258 L93.75,1038.9258 M77.5,1062.6758 L61.25,1081.4258 M77.5,1062.6758 L93.75,1081.4258 " fill="none" filter="url(#f1d05z6vkusurk)" style="stroke:#A80036;stroke-width:2.5;"/><rect fill="#FEFECE" filter="url(#f1d05z6vkusurk)" height="39.5117" style="stroke:#A80036;stroke-width:1.875;" width="80" x="706.25" y="66.25"/><text fill="#000000" font-family="sans-serif" font-size="17.5" lengthAdjust="spacing" textLength="62.5" x="715" y="93.1665">:System</text><rect fill="#FEFECE" filter="url(#f1d05z6vkusurk)" height="39.5117" style="stroke:#A80036;stroke-width:1.875;" width="80" x="706.25" y="984.4141"/><text fill="#000000" font-family="sans-serif" font-size="17.5" lengthAdjust="spacing" textLength="62.5" x="715" y="1011.3306">:System</text><rect fill="#FFFFFF" filter="url(#f1d05z6vkusurk)" height="838.6523" style="stroke:#A80036;stroke-width:1.25;" width="12.5" x="71.25" y="124.5117"/><rect fill="#FFFFFF" filter="url(#f1d05z6vkusurk)" height="69.1895" style="stroke:#A80036;stroke-width:1.25;" width="12.5" x="742.5" y="152.4512"/><rect fill="#FFFFFF" filter="url(#f1d05z6vkusurk)" height="69.1895" style="stroke:#A80036;stroke-width:1.25;" width="12.5" x="742.5" y="290.8301"/><rect fill="#FFFFFF" filter="url(#f1d05z6vkusurk)" height="100.8789" style="stroke:#A80036;stroke-width:1.25;" width="12.5" x="742.5" y="429.209"/><rect fill="#FFFFFF" filter="url(#f1d05z6vkusurk)" height="109.6289" style="stroke:#A80036;stroke-width:1.25;" width="12.5" x="742.5" y="599.2773"/><rect fill="#FFFFFF" filter="url(#f1d05z6vkusurk)" height="46.6895" style="stroke:#A80036;stroke-width:1.25;" width="12.5" x="742.5" y="778.0957"/><rect fill="#FFFFFF" filter="url(#f1d05z6vkusurk)" height="69.1895" style="stroke:#A80036;stroke-width:1.25;" width="12.5" x="742.5" y="893.9746"/><polygon fill="#A80036" points="727.5,147.4512,740,152.4512,727.5,157.4512,732.5,152.4512" style="stroke:#A80036;stroke-width:1.25;"/><line style="stroke:#A80036;stroke-width:1.25;" x1="83.75" x2="735" y1="152.4512" y2="152.4512"/><text fill="#000000" font-family="sans-serif" font-size="16.25" font-weight="bold" lengthAdjust="spacing" textLength="8.75" x="92.5" y="146.3806">1</text><text fill="#000000" font-family="sans-serif" font-size="16.25" lengthAdjust="spacing" textLength="353.75" x="106.25" y="146.3806">asks to register a new test to a resgistered client</text><polygon fill="#A80036" points="97.5,216.6406,85,221.6406,97.5,226.6406,92.5,221.6406" style="stroke:#A80036;stroke-width:1.25;"/><line style="stroke:#A80036;stroke-width:1.25;stroke-dasharray:2.0,2.0;" x1="90" x2="747.5" y1="221.6406" y2="221.6406"/><text fill="#000000" font-family="sans-serif" font-size="16.25" font-weight="bold" lengthAdjust="spacing" textLength="8.75" x="105" y="215.5701">2</text><text fill="#000000" font-family="sans-serif" font-size="16.25" lengthAdjust="spacing" textLength="248.75" x="118.75" y="215.5701">requests client data (tin, nhsCode)</text><polygon fill="#A80036" points="727.5,285.8301,740,290.8301,727.5,295.8301,732.5,290.8301" style="stroke:#A80036;stroke-width:1.25;"/><line style="stroke:#A80036;stroke-width:1.25;" x1="83.75" x2="735" y1="290.8301" y2="290.8301"/><text fill="#000000" font-family="sans-serif" font-size="16.25" font-weight="bold" lengthAdjust="spacing" textLength="8.75" x="92.5" y="284.7595">3</text><text fill="#000000" font-family="sans-serif" font-size="16.25" lengthAdjust="spacing" textLength="215" x="106.25" y="284.7595">introduces the data requested</text><polygon fill="#A80036" points="97.5,355.0195,85,360.0195,97.5,365.0195,92.5,360.0195" style="stroke:#A80036;stroke-width:1.25;"/><line style="stroke:#A80036;stroke-width:1.25;stroke-dasharray:2.0,2.0;" x1="90" x2="747.5" y1="360.0195" y2="360.0195"/><text fill="#000000" font-family="sans-serif" font-size="16.25" font-weight="bold" lengthAdjust="spacing" textLength="8.75" x="105" y="353.949">4</text><text fill="#000000" font-family="sans-serif" font-size="16.25" lengthAdjust="spacing" textLength="432.5" x="118.75" y="353.949">shows the types of tests and asks to select the desired one</text><polygon fill="#A80036" points="727.5,424.209,740,429.209,727.5,434.209,732.5,429.209" style="stroke:#A80036;stroke-width:1.25;"/><line style="stroke:#A80036;stroke-width:1.25;" x1="83.75" x2="735" y1="429.209" y2="429.209"/><text fill="#000000" font-family="sans-serif" font-size="16.25" font-weight="bold" lengthAdjust="spacing" textLength="8.75" x="92.5" y="423.1384">5</text><text fill="#000000" font-family="sans-serif" font-size="16.25" lengthAdjust="spacing" textLength="152.5" x="106.25" y="423.1384">selects one test type</text><path d="M12.5,479.209 L103.75,479.209 L103.75,489.209 L91.25,501.709 L12.5,501.709 L12.5,479.209 " fill="#EEEEEE" style="stroke:#000000;stroke-width:1.25;"/><rect fill="none" height="130.0684" style="stroke:#000000;stroke-width:2.5;" width="791.25" x="12.5" y="479.209"/><text fill="#000000" font-family="sans-serif" font-size="16.25" font-weight="bold" lengthAdjust="spacing" textLength="35" x="31.25" y="497.3279">loop</text><text fill="#000000" font-family="sans-serif" font-size="13.75" font-weight="bold" lengthAdjust="spacing" textLength="186.25" x="122.5" y="495.9827">[for any intended category]</text><polygon fill="#A80036" points="97.5,525.0879,85,530.0879,97.5,535.0879,92.5,530.0879" style="stroke:#A80036;stroke-width:1.25;"/><line style="stroke:#A80036;stroke-width:1.25;stroke-dasharray:2.0,2.0;" x1="90" x2="747.5" y1="530.0879" y2="530.0879"/><text fill="#000000" font-family="sans-serif" font-size="16.25" font-weight="bold" lengthAdjust="spacing" textLength="8.75" x="105" y="524.0173">6</text><text fill="#000000" font-family="sans-serif" font-size="16.25" lengthAdjust="spacing" textLength="597.5" x="118.75" y="524.0173">shows the categories of the chosen test type and asks to choose the desired ones</text><polygon fill="#A80036" points="727.5,594.2773,740,599.2773,727.5,604.2773,732.5,599.2773" style="stroke:#A80036;stroke-width:1.25;"/><line style="stroke:#A80036;stroke-width:1.25;" x1="83.75" x2="735" y1="599.2773" y2="599.2773"/><text fill="#000000" font-family="sans-serif" font-size="16.25" font-weight="bold" lengthAdjust="spacing" textLength="8.75" x="92.5" y="593.2068">7</text><text fill="#000000" font-family="sans-serif" font-size="16.25" lengthAdjust="spacing" textLength="151.25" x="106.25" y="593.2068">selects one category</text><path d="M12.5,658.0273 L103.75,658.0273 L103.75,668.0273 L91.25,680.5273 L12.5,680.5273 L12.5,658.0273 " fill="#EEEEEE" style="stroke:#000000;stroke-width:1.25;"/><rect fill="none" height="130.0684" style="stroke:#000000;stroke-width:2.5;" width="791.25" x="12.5" y="658.0273"/><text fill="#000000" font-family="sans-serif" font-size="16.25" font-weight="bold" lengthAdjust="spacing" textLength="35" x="31.25" y="676.1462">loop</text><text fill="#000000" font-family="sans-serif" font-size="13.75" font-weight="bold" lengthAdjust="spacing" textLength="198.75" x="122.5" y="674.801">[for any intended parameter]</text><polygon fill="#A80036" points="97.5,703.9063,85,708.9063,97.5,713.9063,92.5,708.9063" style="stroke:#A80036;stroke-width:1.25;"/><line style="stroke:#A80036;stroke-width:1.25;stroke-dasharray:2.0,2.0;" x1="90" x2="747.5" y1="708.9063" y2="708.9063"/><text fill="#000000" font-family="sans-serif" font-size="16.25" font-weight="bold" lengthAdjust="spacing" textLength="8.75" x="105" y="702.8357">8</text><text fill="#000000" font-family="sans-serif" font-size="16.25" lengthAdjust="spacing" textLength="615" x="118.75" y="702.8357">shows the parameters of the chosen categories and asks to choose the desired ones</text><polygon fill="#A80036" points="727.5,773.0957,740,778.0957,727.5,783.0957,732.5,778.0957" style="stroke:#A80036;stroke-width:1.25;"/><line style="stroke:#A80036;stroke-width:1.25;" x1="83.75" x2="735" y1="778.0957" y2="778.0957"/><text fill="#000000" font-family="sans-serif" font-size="16.25" font-weight="bold" lengthAdjust="spacing" textLength="8.75" x="92.5" y="772.0251">9</text><text fill="#000000" font-family="sans-serif" font-size="16.25" lengthAdjust="spacing" textLength="215" x="106.25" y="772.0251">select the desired parameters</text><polygon fill="#A80036" points="97.5,819.7852,85,824.7852,97.5,829.7852,92.5,824.7852" style="stroke:#A80036;stroke-width:1.25;"/><line style="stroke:#A80036;stroke-width:1.25;stroke-dasharray:2.0,2.0;" x1="90" x2="747.5" y1="824.7852" y2="824.7852"/><text fill="#000000" font-family="sans-serif" font-size="16.25" font-weight="bold" lengthAdjust="spacing" textLength="17.5" x="105" y="818.7146">10</text><text fill="#000000" font-family="sans-serif" font-size="16.25" lengthAdjust="spacing" textLength="295" x="127.5" y="818.7146">shows all data and requests confirmation</text><polygon fill="#A80036" points="727.5,888.9746,740,893.9746,727.5,898.9746,732.5,893.9746" style="stroke:#A80036;stroke-width:1.25;"/><line style="stroke:#A80036;stroke-width:1.25;" x1="83.75" x2="735" y1="893.9746" y2="893.9746"/><text fill="#000000" font-family="sans-serif" font-size="16.25" font-weight="bold" lengthAdjust="spacing" textLength="17.5" x="92.5" y="887.9041">11</text><text fill="#000000" font-family="sans-serif" font-size="16.25" lengthAdjust="spacing" textLength="125" x="115" y="887.9041">confirms the data</text><polygon fill="#A80036" points="91.25,958.1641,78.75,963.1641,91.25,968.1641,86.25,963.1641" style="stroke:#A80036;stroke-width:1.25;"/><line style="stroke:#A80036;stroke-width:1.25;stroke-dasharray:2.0,2.0;" x1="83.75" x2="747.5" y1="963.1641" y2="963.1641"/><text fill="#000000" font-family="sans-serif" font-size="16.25" font-weight="bold" lengthAdjust="spacing" textLength="17.5" x="98.75" y="957.0935">12</text><text fill="#000000" font-family="sans-serif" font-size="16.25" lengthAdjust="spacing" textLength="181.25" x="121.25" y="957.0935">informs operation sucess</text><!--MD5=[76bbfab0451f271eb8f5115ebfc39411]
@startuml
autonumber
actor "Receptionist" as RC

activate RC
RC -> ":System" : asks to register a new test to a resgistered client
activate ":System"
|||
":System" - -> RC : requests client data (tin, nhsCode)
deactivate ":System"
|||
RC -> ":System" : introduces the data requested

activate ":System"
|||

":System" - -> RC : shows the types of tests and asks to select the desired one
deactivate ":System"
|||
RC -> ":System" : selects one test type
activate ":System"
|||
loop for any intended category
":System" - -> RC : shows the categories of the chosen test type and asks to choose the desired ones
deactivate ":System"
|||
RC -> ":System" : selects one category
activate ":System"
end
|||
loop for any intended parameter
":System" - -> RC : shows the parameters of the chosen categories and asks to choose the desired ones
deactivate ":System"
|||
RC -> ":System" : select the desired parameters
activate ":System"
end
":System" - -> RC : shows all data and requests confirmation
deactivate ":System"
|||
RC -> ":System" : confirms the data
|||
activate ":System"
":System" - -> RC : informs operation sucess

deactivate RC
deactivate ":System"
@enduml

PlantUML version 1.2021.2(Sun Mar 07 11:10:27 GMT 2021)
(GPL source distribution)
Java Runtime: OpenJDK Runtime Environment
JVM: OpenJDK 64-Bit Server VM
Default Encoding: Cp1252
Language: pt
Country: PT
--></g></svg>