<?xml version="1.0" encoding="UTF-8" standalone="no"?><svg xmlns="http://www.w3.org/2000/svg" xmlns:xlink="http://www.w3.org/1999/xlink" contentScriptType="application/ecmascript" contentStyleType="text/css" height="144px" preserveAspectRatio="none" style="width:1052px;height:144px;" version="1.1" viewBox="0 0 1052 144" width="1052px" zoomAndPan="magnify"><defs><filter height="300%" id="f1je4w5adomn9z" width="300%" x="-1" y="-1"><feGaussianBlur result="blurOut" stdDeviation="2.0"/><feColorMatrix in="blurOut" result="blurOut2" type="matrix" values="0 0 0 0 0 0 0 0 0 0 0 0 0 0 0 0 0 0 .4 0"/><feOffset dx="4.0" dy="4.0" in="blurOut2" result="blurOut3"/><feBlend in="SourceGraphic" in2="blurOut3" mode="normal"/></filter></defs><g><!--MD5=[1934a092c0e7d4da7dc7075b6f4b6b03]
class ClinicalAnalysisLaboratory--><rect codeLine="5" fill="#FEFECE" filter="url(#f1je4w5adomn9z)" height="123.0156" id="ClinicalAnalysisLaboratory" style="stroke:#A80036;stroke-width:1.5;" width="177" x="7" y="7"/><ellipse cx="22" cy="23" fill="#ADD1B2" rx="11" ry="11" style="stroke:#A80036;stroke-width:1.0;"/><path d="M24,19.5 Q24.2031,19 24.4375,18.75 Q24.6719,18.5 24.9375,18.5 Q25.4063,18.5 25.7031,18.7813 Q26,19.0625 26,19.7188 L26,21.2813 Q26,21.9375 25.7188,22.2188 Q25.4375,22.5 25,22.5 Q24.6094,22.5 24.3594,22.3281 Q24.1094,22.1563 24,21.7031 Q23.9531,21.3906 23.7813,21.2188 Q23.4688,20.8906 22.9063,20.7031 Q22.3438,20.5 21.7813,20.5 Q21.0781,20.5 20.4844,20.7813 Q19.9063,21.0625 19.4531,21.6875 Q19,22.3125 19,23.1719 L19,24.0938 Q19,25.125 19.8438,25.8125 Q20.6875,26.5 22.1875,26.5 Q23.0781,26.5 23.7031,26.2969 Q24.0625,26.1875 24.4688,25.8281 Q24.7344,25.625 24.875,25.5625 Q25.0156,25.5 25.1875,25.5 Q25.5156,25.5 25.75,25.7656 Q26,26.0156 26,26.375 Q26,26.7188 25.6563,27.125 Q25.1563,27.7188 24.3594,28.0469 Q23.3125,28.5 22.0313,28.5 Q20.5313,28.5 19.3281,27.9063 Q18.3594,27.4375 17.6719,26.4219 Q17,25.4063 17,24.2031 L17,23.1094 Q17,21.8594 17.5938,20.7656 Q18.2031,19.6719 19.25,19.0938 Q20.3125,18.5 21.5,18.5 Q22.2188,18.5 22.8438,18.75 Q23.4688,19 24,19.5 Z " fill="#000000"/><text fill="#000000" font-family="sans-serif" font-size="12" lengthAdjust="spacing" textLength="145" x="36" y="27.9102">ClinicalAnalysisLaboratory</text><line style="stroke:#A80036;stroke-width:1.5;" x1="8" x2="183" y1="39" y2="39"/><text fill="#000000" font-family="sans-serif" font-size="11" lengthAdjust="spacing" textLength="65" x="13" y="54.4189">-idLaboratory</text><text fill="#000000" font-family="sans-serif" font-size="11" lengthAdjust="spacing" textLength="30" x="13" y="68.2549">-name</text><text fill="#000000" font-family="sans-serif" font-size="11" lengthAdjust="spacing" textLength="44" x="13" y="82.0908">-address</text><text fill="#000000" font-family="sans-serif" font-size="11" lengthAdjust="spacing" textLength="71" x="13" y="95.9268">-phoneNumber</text><text fill="#000000" font-family="sans-serif" font-size="11" lengthAdjust="spacing" textLength="15" x="13" y="109.7627">-tin</text><text fill="#000000" font-family="sans-serif" font-size="11" lengthAdjust="spacing" textLength="46" x="13" y="123.5986">-testType</text><!--MD5=[7421f545a0d8420c5bec41e74b387d9c]
class Employee--><rect codeLine="15" fill="#FEFECE" filter="url(#f1je4w5adomn9z)" height="109.1797" id="Employee" style="stroke:#A80036;stroke-width:1.5;" width="87" x="770" y="14"/><ellipse cx="785" cy="30" fill="#ADD1B2" rx="11" ry="11" style="stroke:#A80036;stroke-width:1.0;"/><path d="M787,26.5 Q787.2031,26 787.4375,25.75 Q787.6719,25.5 787.9375,25.5 Q788.4063,25.5 788.7031,25.7813 Q789,26.0625 789,26.7188 L789,28.2813 Q789,28.9375 788.7188,29.2188 Q788.4375,29.5 788,29.5 Q787.6094,29.5 787.3594,29.3281 Q787.1094,29.1563 787,28.7031 Q786.9531,28.3906 786.7813,28.2188 Q786.4688,27.8906 785.9063,27.7031 Q785.3438,27.5 784.7813,27.5 Q784.0781,27.5 783.4844,27.7813 Q782.9063,28.0625 782.4531,28.6875 Q782,29.3125 782,30.1719 L782,31.0938 Q782,32.125 782.8438,32.8125 Q783.6875,33.5 785.1875,33.5 Q786.0781,33.5 786.7031,33.2969 Q787.0625,33.1875 787.4688,32.8281 Q787.7344,32.625 787.875,32.5625 Q788.0156,32.5 788.1875,32.5 Q788.5156,32.5 788.75,32.7656 Q789,33.0156 789,33.375 Q789,33.7188 788.6563,34.125 Q788.1563,34.7188 787.3594,35.0469 Q786.3125,35.5 785.0313,35.5 Q783.5313,35.5 782.3281,34.9063 Q781.3594,34.4375 780.6719,33.4219 Q780,32.4063 780,31.2031 L780,30.1094 Q780,28.8594 780.5938,27.7656 Q781.2031,26.6719 782.25,26.0938 Q783.3125,25.5 784.5,25.5 Q785.2188,25.5 785.8438,25.75 Q786.4688,26 787,26.5 Z " fill="#000000"/><text fill="#000000" font-family="sans-serif" font-size="12" lengthAdjust="spacing" textLength="55" x="799" y="34.9102">Employee</text><line style="stroke:#A80036;stroke-width:1.5;" x1="771" x2="856" y1="46" y2="46"/><text fill="#000000" font-family="sans-serif" font-size="11" lengthAdjust="spacing" textLength="30" x="776" y="61.4189">-name</text><text fill="#000000" font-family="sans-serif" font-size="11" lengthAdjust="spacing" textLength="43" x="776" y="75.2549">-function</text><text fill="#000000" font-family="sans-serif" font-size="11" lengthAdjust="spacing" textLength="71" x="776" y="89.0908">-phoneNumber</text><text fill="#000000" font-family="sans-serif" font-size="11" lengthAdjust="spacing" textLength="28" x="776" y="102.9268">-email</text><text fill="#000000" font-family="sans-serif" font-size="11" lengthAdjust="spacing" textLength="44" x="776" y="116.7627">-address</text><!--MD5=[99b8db98afdc2c8404e39242ef4c1e65]
class Platform--><rect codeLine="23" fill="#FEFECE" filter="url(#f1je4w5adomn9z)" height="53.8359" id="Platform" style="stroke:#A80036;stroke-width:1.5;" width="78" x="960" y="41.5"/><ellipse cx="975" cy="57.5" fill="#ADD1B2" rx="11" ry="11" style="stroke:#A80036;stroke-width:1.0;"/><path d="M977,54 Q977.2031,53.5 977.4375,53.25 Q977.6719,53 977.9375,53 Q978.4063,53 978.7031,53.2813 Q979,53.5625 979,54.2188 L979,55.7813 Q979,56.4375 978.7188,56.7188 Q978.4375,57 978,57 Q977.6094,57 977.3594,56.8281 Q977.1094,56.6563 977,56.2031 Q976.9531,55.8906 976.7813,55.7188 Q976.4688,55.3906 975.9063,55.2031 Q975.3438,55 974.7813,55 Q974.0781,55 973.4844,55.2813 Q972.9063,55.5625 972.4531,56.1875 Q972,56.8125 972,57.6719 L972,58.5938 Q972,59.625 972.8438,60.3125 Q973.6875,61 975.1875,61 Q976.0781,61 976.7031,60.7969 Q977.0625,60.6875 977.4688,60.3281 Q977.7344,60.125 977.875,60.0625 Q978.0156,60 978.1875,60 Q978.5156,60 978.75,60.2656 Q979,60.5156 979,60.875 Q979,61.2188 978.6563,61.625 Q978.1563,62.2188 977.3594,62.5469 Q976.3125,63 975.0313,63 Q973.5313,63 972.3281,62.4063 Q971.3594,61.9375 970.6719,60.9219 Q970,59.9063 970,58.7031 L970,57.6094 Q970,56.3594 970.5938,55.2656 Q971.2031,54.1719 972.25,53.5938 Q973.3125,53 974.5,53 Q975.2188,53 975.8438,53.25 Q976.4688,53.5 977,54 Z " fill="#000000"/><text fill="#000000" font-family="sans-serif" font-size="12" lengthAdjust="spacing" textLength="46" x="989" y="62.4102">Platform</text><line style="stroke:#A80036;stroke-width:1.5;" x1="961" x2="1037" y1="73.5" y2="73.5"/><text fill="#000000" font-family="sans-serif" font-size="11" lengthAdjust="spacing" textLength="59" x="966" y="88.9189">-designation</text><!--MD5=[da547346deef918ea16944ba046651ef]
class Administrator--><rect codeLine="27" fill="#FEFECE" filter="url(#f1je4w5adomn9z)" height="67.6719" id="Administrator" style="stroke:#A80036;stroke-width:1.5;" width="105" x="580" y="34.5"/><ellipse cx="595" cy="50.5" fill="#ADD1B2" rx="11" ry="11" style="stroke:#A80036;stroke-width:1.0;"/><path d="M597,47 Q597.2031,46.5 597.4375,46.25 Q597.6719,46 597.9375,46 Q598.4063,46 598.7031,46.2813 Q599,46.5625 599,47.2188 L599,48.7813 Q599,49.4375 598.7188,49.7188 Q598.4375,50 598,50 Q597.6094,50 597.3594,49.8281 Q597.1094,49.6563 597,49.2031 Q596.9531,48.8906 596.7813,48.7188 Q596.4688,48.3906 595.9063,48.2031 Q595.3438,48 594.7813,48 Q594.0781,48 593.4844,48.2813 Q592.9063,48.5625 592.4531,49.1875 Q592,49.8125 592,50.6719 L592,51.5938 Q592,52.625 592.8438,53.3125 Q593.6875,54 595.1875,54 Q596.0781,54 596.7031,53.7969 Q597.0625,53.6875 597.4688,53.3281 Q597.7344,53.125 597.875,53.0625 Q598.0156,53 598.1875,53 Q598.5156,53 598.75,53.2656 Q599,53.5156 599,53.875 Q599,54.2188 598.6563,54.625 Q598.1563,55.2188 597.3594,55.5469 Q596.3125,56 595.0313,56 Q593.5313,56 592.3281,55.4063 Q591.3594,54.9375 590.6719,53.9219 Q590,52.9063 590,51.7031 L590,50.6094 Q590,49.3594 590.5938,48.2656 Q591.2031,47.1719 592.25,46.5938 Q593.3125,46 594.5,46 Q595.2188,46 595.8438,46.25 Q596.4688,46.5 597,47 Z " fill="#000000"/><text fill="#000000" font-family="sans-serif" font-size="12" lengthAdjust="spacing" textLength="73" x="609" y="55.4102">Administrator</text><line style="stroke:#A80036;stroke-width:1.5;" x1="581" x2="684" y1="66.5" y2="66.5"/><text fill="#000000" font-family="sans-serif" font-size="11" lengthAdjust="spacing" textLength="58" x="586" y="81.9189">-idEmployee</text><text fill="#000000" font-family="sans-serif" font-size="11" lengthAdjust="spacing" textLength="22" x="586" y="95.7549">-soc</text><!--MD5=[c205b6d306292bbc5c8991a0afd5f433]
class ParametersCategory--><rect codeLine="32" fill="#FEFECE" filter="url(#f1je4w5adomn9z)" height="67.6719" id="ParametersCategory" style="stroke:#A80036;stroke-width:1.5;" width="146" x="298" y="34.5"/><ellipse cx="313" cy="50.5" fill="#ADD1B2" rx="11" ry="11" style="stroke:#A80036;stroke-width:1.0;"/><path d="M315,47 Q315.2031,46.5 315.4375,46.25 Q315.6719,46 315.9375,46 Q316.4063,46 316.7031,46.2813 Q317,46.5625 317,47.2188 L317,48.7813 Q317,49.4375 316.7188,49.7188 Q316.4375,50 316,50 Q315.6094,50 315.3594,49.8281 Q315.1094,49.6563 315,49.2031 Q314.9531,48.8906 314.7813,48.7188 Q314.4688,48.3906 313.9063,48.2031 Q313.3438,48 312.7813,48 Q312.0781,48 311.4844,48.2813 Q310.9063,48.5625 310.4531,49.1875 Q310,49.8125 310,50.6719 L310,51.5938 Q310,52.625 310.8438,53.3125 Q311.6875,54 313.1875,54 Q314.0781,54 314.7031,53.7969 Q315.0625,53.6875 315.4688,53.3281 Q315.7344,53.125 315.875,53.0625 Q316.0156,53 316.1875,53 Q316.5156,53 316.75,53.2656 Q317,53.5156 317,53.875 Q317,54.2188 316.6563,54.625 Q316.1563,55.2188 315.3594,55.5469 Q314.3125,56 313.0313,56 Q311.5313,56 310.3281,55.4063 Q309.3594,54.9375 308.6719,53.9219 Q308,52.9063 308,51.7031 L308,50.6094 Q308,49.3594 308.5938,48.2656 Q309.2031,47.1719 310.25,46.5938 Q311.3125,46 312.5,46 Q313.2188,46 313.8438,46.25 Q314.4688,46.5 315,47 Z " fill="#000000"/><text fill="#000000" font-family="sans-serif" font-size="12" lengthAdjust="spacing" textLength="114" x="327" y="55.4102">ParametersCategory</text><line style="stroke:#A80036;stroke-width:1.5;" x1="299" x2="443" y1="66.5" y2="66.5"/><text fill="#000000" font-family="sans-serif" font-size="11" lengthAdjust="spacing" textLength="28" x="304" y="81.9189">-code</text><text fill="#000000" font-family="sans-serif" font-size="11" lengthAdjust="spacing" textLength="30" x="304" y="95.7549">-name</text><!--MD5=[39d692d92ddd6d250b774484c295acbe]
link ParametersCategory to Administrator--><path codeLine="38" d="M444.29,68.5 C487.33,68.5 540.94,68.5 579.75,68.5 " fill="none" id="ParametersCategory-Administrator" style="stroke:#A80036;stroke-width:1.0;"/><polygon fill="#000000" points="484,59.6758,474.9549,56.7369,474.9549,62.6147,484,59.6758" style="stroke:#000000;stroke-width:1.0;"/><text fill="#000000" font-family="sans-serif" font-size="13" lengthAdjust="spacing" textLength="61" x="488" y="64.9951">created by</text><text fill="#000000" font-family="sans-serif" font-size="13" lengthAdjust="spacing" textLength="5" x="452.1058" y="82.8552">*</text><text fill="#000000" font-family="sans-serif" font-size="13" lengthAdjust="spacing" textLength="7" x="564.8398" y="83.1679">1</text><!--MD5=[8f7dd94d56b58fc07b233ccd3dd98f8c]
link Administrator to Employee--><path codeLine="39" d="M685.27,68.5 C712.12,68.5 744.51,68.5 769.89,68.5 " fill="none" id="Administrator-Employee" style="stroke:#A80036;stroke-width:1.0;"/><polygon fill="#000000" points="725,59.6758,715.9549,56.7369,715.9549,62.6147,725,59.6758" style="stroke:#000000;stroke-width:1.0;"/><text fill="#000000" font-family="sans-serif" font-size="13" lengthAdjust="spacing" textLength="10" x="729" y="64.9951">is</text><text fill="#000000" font-family="sans-serif" font-size="13" lengthAdjust="spacing" textLength="7" x="692.8313" y="83.1158">1</text><text fill="#000000" font-family="sans-serif" font-size="13" lengthAdjust="spacing" textLength="5" x="756.9648" y="83.3849">*</text><!--MD5=[8f8a94fdc25bb6da32e761019cf941a7]
link ClinicalAnalysisLaboratory to ParametersCategory--><path codeLine="40" d="M184.17,68.5 C220.88,68.5 263.04,68.5 297.92,68.5 " fill="none" id="ClinicalAnalysisLaboratory-ParametersCategory" style="stroke:#A80036;stroke-width:1.0;"/><polygon fill="#000000" points="224,59.6758,214.9549,56.7369,214.9549,62.6147,224,59.6758" style="stroke:#000000;stroke-width:1.0;"/><text fill="#000000" font-family="sans-serif" font-size="13" lengthAdjust="spacing" textLength="39" x="228" y="64.9951">adopts</text><text fill="#000000" font-family="sans-serif" font-size="13" lengthAdjust="spacing" textLength="7" x="192.0909" y="82.6971">1</text><text fill="#000000" font-family="sans-serif" font-size="13" lengthAdjust="spacing" textLength="5" x="285.1258" y="82.8552">*</text><!--MD5=[b482d663aae385f5ae82dde2f71259c6]
link Employee to Platform--><path codeLine="41" d="M857.06,68.5 C888.08,68.5 929.75,68.5 959.73,68.5 " fill="none" id="Employee-Platform" style="stroke:#A80036;stroke-width:1.0;"/><polygon fill="#000000" points="897,59.6758,887.9549,56.7369,887.9549,62.6147,897,59.6758" style="stroke:#000000;stroke-width:1.0;"/><text fill="#000000" font-family="sans-serif" font-size="13" lengthAdjust="spacing" textLength="28" x="901" y="64.9951">uses</text><text fill="#000000" font-family="sans-serif" font-size="13" lengthAdjust="spacing" textLength="5" x="864.9766" y="83.3849">*</text><text fill="#000000" font-family="sans-serif" font-size="13" lengthAdjust="spacing" textLength="7" x="945.1116" y="83.466">1</text><!--MD5=[4ef9b0b375d124ec3574e82e490d04b8]
@startuml
hide methods
left to right direction
skinparam classAttributeIconSize 0

class ClinicalAnalysisLaboratory{
    -idLaboratory
    -name
    -address
    -phoneNumber
    -tin
    -testType
}


class Employee{
    -name
    -function
    -phoneNumber
    -email
    -address
}

class Platform{
    -designation
}

class Administrator{
    -idEmployee
    -soc
}

class ParametersCategory{
    -code
    -name
}


ParametersCategory "*" - - "1" Administrator : created by >
Administrator "1" - - "*" Employee : is >
ClinicalAnalysisLaboratory "1" - - "*" ParametersCategory : adopts >
Employee "*" - - "1" Platform : uses >


@enduml

PlantUML version 1.2021.2(Sun Mar 07 11:10:27 GMT 2021)
(GPL source distribution)
Java Runtime: OpenJDK Runtime Environment
JVM: OpenJDK 64-Bit Server VM
Default Encoding: Cp1252
Language: pt
Country: PT
--></g></svg>