<?xml version="1.0" encoding="UTF-8" standalone="no"?><svg xmlns="http://www.w3.org/2000/svg" xmlns:xlink="http://www.w3.org/1999/xlink" contentScriptType="application/ecmascript" contentStyleType="text/css" height="368px" preserveAspectRatio="none" style="width:470px;height:368px;" version="1.1" viewBox="0 0 470 368" width="470px" zoomAndPan="magnify"><defs><filter height="300%" id="f1bavrl8ihbgne" width="300%" x="-1" y="-1"><feGaussianBlur result="blurOut" stdDeviation="2.0"/><feColorMatrix in="blurOut" result="blurOut2" type="matrix" values="0 0 0 0 0 0 0 0 0 0 0 0 0 0 0 0 0 0 .4 0"/><feOffset dx="4.0" dy="4.0" in="blurOut2" result="blurOut3"/><feBlend in="SourceGraphic" in2="blurOut3" mode="normal"/></filter></defs><g><rect fill="#FFFFFF" filter="url(#f1bavrl8ihbgne)" height="167.8633" style="stroke:#A80036;stroke-width:1.0;" width="10" x="50.5" y="98.4883"/><rect fill="#FFFFFF" filter="url(#f1bavrl8ihbgne)" height="29.3105" style="stroke:#A80036;stroke-width:1.0;" width="10" x="420.5" y="119.7988"/><rect fill="#FFFFFF" filter="url(#f1bavrl8ihbgne)" height="29.3105" style="stroke:#A80036;stroke-width:1.0;" width="10" x="420.5" y="178.4199"/><rect fill="#FFFFFF" filter="url(#f1bavrl8ihbgne)" height="29.3105" style="stroke:#A80036;stroke-width:1.0;" width="10" x="420.5" y="237.041"/><line style="stroke:#A80036;stroke-width:1.0;stroke-dasharray:5.0,5.0;" x1="55" x2="55" y1="88.4883" y2="284.3516"/><line style="stroke:#A80036;stroke-width:1.0;stroke-dasharray:5.0,5.0;" x1="425.5" x2="425.5" y1="88.4883" y2="284.3516"/><text fill="#000000" font-family="sans-serif" font-size="14" lengthAdjust="spacing" textLength="95" x="5" y="85.5352">Administrator</text><ellipse cx="55.5" cy="15" fill="#FEFECE" filter="url(#f1bavrl8ihbgne)" rx="8" ry="8" style="stroke:#A80036;stroke-width:2.0;"/><path d="M55.5,23 L55.5,50 M42.5,31 L68.5,31 M55.5,50 L42.5,65 M55.5,50 L68.5,65 " fill="none" filter="url(#f1bavrl8ihbgne)" style="stroke:#A80036;stroke-width:2.0;"/><text fill="#000000" font-family="sans-serif" font-size="14" lengthAdjust="spacing" textLength="95" x="5" y="296.8867">Administrator</text><ellipse cx="55.5" cy="309.8398" fill="#FEFECE" filter="url(#f1bavrl8ihbgne)" rx="8" ry="8" style="stroke:#A80036;stroke-width:2.0;"/><path d="M55.5,317.8398 L55.5,344.8398 M42.5,325.8398 L68.5,325.8398 M55.5,344.8398 L42.5,359.8398 M55.5,344.8398 L68.5,359.8398 " fill="none" filter="url(#f1bavrl8ihbgne)" style="stroke:#A80036;stroke-width:2.0;"/><rect fill="#FEFECE" filter="url(#f1bavrl8ihbgne)" height="30.4883" style="stroke:#A80036;stroke-width:1.5;" width="66" x="390.5" y="53"/><text fill="#000000" font-family="sans-serif" font-size="14" lengthAdjust="spacing" textLength="52" x="397.5" y="73.5352">:System</text><rect fill="#FEFECE" filter="url(#f1bavrl8ihbgne)" height="30.4883" style="stroke:#A80036;stroke-width:1.5;" width="66" x="390.5" y="283.3516"/><text fill="#000000" font-family="sans-serif" font-size="14" lengthAdjust="spacing" textLength="52" x="397.5" y="303.8867">:System</text><rect fill="#FFFFFF" filter="url(#f1bavrl8ihbgne)" height="167.8633" style="stroke:#A80036;stroke-width:1.0;" width="10" x="50.5" y="98.4883"/><rect fill="#FFFFFF" filter="url(#f1bavrl8ihbgne)" height="29.3105" style="stroke:#A80036;stroke-width:1.0;" width="10" x="420.5" y="119.7988"/><rect fill="#FFFFFF" filter="url(#f1bavrl8ihbgne)" height="29.3105" style="stroke:#A80036;stroke-width:1.0;" width="10" x="420.5" y="178.4199"/><rect fill="#FFFFFF" filter="url(#f1bavrl8ihbgne)" height="29.3105" style="stroke:#A80036;stroke-width:1.0;" width="10" x="420.5" y="237.041"/><polygon fill="#A80036" points="408.5,115.7988,418.5,119.7988,408.5,123.7988,412.5,119.7988" style="stroke:#A80036;stroke-width:1.0;"/><line style="stroke:#A80036;stroke-width:1.0;" x1="60.5" x2="414.5" y1="119.7988" y2="119.7988"/><text fill="#000000" font-family="sans-serif" font-size="13" font-weight="bold" lengthAdjust="spacing" textLength="9" x="67.5" y="115.0566">1</text><text fill="#000000" font-family="sans-serif" font-size="13" lengthAdjust="spacing" textLength="189" x="80.5" y="115.0566">asks to create a new TestType</text><polygon fill="#A80036" points="71.5,145.1094,61.5,149.1094,71.5,153.1094,67.5,149.1094" style="stroke:#A80036;stroke-width:1.0;"/><line style="stroke:#A80036;stroke-width:1.0;stroke-dasharray:2.0,2.0;" x1="65.5" x2="424.5" y1="149.1094" y2="149.1094"/><text fill="#000000" font-family="sans-serif" font-size="13" font-weight="bold" lengthAdjust="spacing" textLength="9" x="77.5" y="144.3672">2</text><text fill="#000000" font-family="sans-serif" font-size="13" lengthAdjust="spacing" textLength="323" x="90.5" y="144.3672">requests data (code, description, collectingMethod)</text><polygon fill="#A80036" points="408.5,174.4199,418.5,178.4199,408.5,182.4199,412.5,178.4199" style="stroke:#A80036;stroke-width:1.0;"/><line style="stroke:#A80036;stroke-width:1.0;" x1="60.5" x2="414.5" y1="178.4199" y2="178.4199"/><text fill="#000000" font-family="sans-serif" font-size="13" font-weight="bold" lengthAdjust="spacing" textLength="9" x="67.5" y="173.6777">3</text><text fill="#000000" font-family="sans-serif" font-size="13" lengthAdjust="spacing" textLength="131" x="80.5" y="173.6777">types requested data</text><polygon fill="#A80036" points="71.5,203.7305,61.5,207.7305,71.5,211.7305,67.5,207.7305" style="stroke:#A80036;stroke-width:1.0;"/><line style="stroke:#A80036;stroke-width:1.0;stroke-dasharray:2.0,2.0;" x1="65.5" x2="424.5" y1="207.7305" y2="207.7305"/><text fill="#000000" font-family="sans-serif" font-size="13" font-weight="bold" lengthAdjust="spacing" textLength="9" x="77.5" y="202.9883">4</text><text fill="#000000" font-family="sans-serif" font-size="13" lengthAdjust="spacing" textLength="260" x="90.5" y="202.9883">shows all data and requests confirmation</text><polygon fill="#A80036" points="408.5,233.041,418.5,237.041,408.5,241.041,412.5,237.041" style="stroke:#A80036;stroke-width:1.0;"/><line style="stroke:#A80036;stroke-width:1.0;" x1="60.5" x2="414.5" y1="237.041" y2="237.041"/><text fill="#000000" font-family="sans-serif" font-size="13" font-weight="bold" lengthAdjust="spacing" textLength="9" x="67.5" y="232.2988">5</text><text fill="#000000" font-family="sans-serif" font-size="13" lengthAdjust="spacing" textLength="111" x="80.5" y="232.2988">confirms the data</text><polygon fill="#A80036" points="66.5,262.3516,56.5,266.3516,66.5,270.3516,62.5,266.3516" style="stroke:#A80036;stroke-width:1.0;"/><line style="stroke:#A80036;stroke-width:1.0;stroke-dasharray:2.0,2.0;" x1="60.5" x2="424.5" y1="266.3516" y2="266.3516"/><text fill="#000000" font-family="sans-serif" font-size="13" font-weight="bold" lengthAdjust="spacing" textLength="9" x="72.5" y="261.6094">6</text><text fill="#000000" font-family="sans-serif" font-size="13" lengthAdjust="spacing" textLength="167" x="85.5" y="261.6094">informs operation success</text><!--MD5=[1560783107d64b284cfad19037a93fc2]
@startuml
autonumber
actor "Administrator" as OE

activate OE
OE -> ":System" : asks to create a new TestType
activate ":System"
":System" - -> OE : requests data (code, description, collectingMethod)
deactivate ":System"

OE -> ":System" : types requested data

activate ":System"
":System" - -> OE : shows all data and requests confirmation
deactivate ":System"

OE -> ":System" : confirms the data
activate ":System"
":System" - -> OE : informs operation success
deactivate ":System"

deactivate OE

@enduml

PlantUML version 1.2021.00(Sun Jan 10 07:25:05 BRT 2021)
(GPL source distribution)
Java Runtime: OpenJDK Runtime Environment
JVM: OpenJDK 64-Bit Server VM
Default Encoding: UTF-8
Language: en
Country: PT
--></g></svg>