<?xml version="1.0" encoding="UTF-8" standalone="no"?><svg xmlns="http://www.w3.org/2000/svg" xmlns:xlink="http://www.w3.org/1999/xlink" contentScriptType="application/ecmascript" contentStyleType="text/css" height="766.25px" preserveAspectRatio="none" style="width:871px;height:766px;" version="1.1" viewBox="0 0 871 766" width="871.25px" zoomAndPan="magnify"><defs><filter height="300%" id="f1qoztus43lqzg" width="300%" x="-1" y="-1"><feGaussianBlur result="blurOut" stdDeviation="2.5"/><feColorMatrix in="blurOut" result="blurOut2" type="matrix" values="0 0 0 0 0 0 0 0 0 0 0 0 0 0 0 0 0 0 .4 0"/><feOffset dx="5.0" dy="5.0" in="blurOut2" result="blurOut3"/><feBlend in="SourceGraphic" in2="blurOut3" mode="normal"/></filter></defs><g><rect fill="#FFFFFF" filter="url(#f1qoztus43lqzg)" height="512.2656" style="stroke:#A80036;stroke-width:1.25;" width="12.5" x="52.5" y="124.5117"/><rect fill="#FFFFFF" filter="url(#f1qoztus43lqzg)" height="69.1895" style="stroke:#A80036;stroke-width:1.25;" width="12.5" x="810" y="152.4512"/><rect fill="#FFFFFF" filter="url(#f1qoztus43lqzg)" height="69.1895" style="stroke:#A80036;stroke-width:1.25;" width="12.5" x="810" y="290.8301"/><rect fill="#FFFFFF" filter="url(#f1qoztus43lqzg)" height="69.1895" style="stroke:#A80036;stroke-width:1.25;" width="12.5" x="810" y="429.209"/><rect fill="#FFFFFF" filter="url(#f1qoztus43lqzg)" height="69.1895" style="stroke:#A80036;stroke-width:1.25;" width="12.5" x="810" y="567.5879"/><line style="stroke:#A80036;stroke-width:1.25;stroke-dasharray:5.0,5.0;" x1="58.75" x2="58.75" y1="112.0117" y2="659.2773"/><line style="stroke:#A80036;stroke-width:1.25;stroke-dasharray:5.0,5.0;" x1="816.25" x2="816.25" y1="112.0117" y2="659.2773"/><text fill="#000000" font-family="sans-serif" font-size="17.5" lengthAdjust="spacing" textLength="97.5" x="6.25" y="108.1665">Receptionist</text><ellipse cx="58.75" cy="18.75" fill="#FEFECE" filter="url(#f1qoztus43lqzg)" rx="10" ry="10" style="stroke:#A80036;stroke-width:2.5;"/><path d="M58.75,28.75 L58.75,62.5 M42.5,38.75 L75,38.75 M58.75,62.5 L42.5,81.25 M58.75,62.5 L75,81.25 " fill="none" filter="url(#f1qoztus43lqzg)" style="stroke:#A80036;stroke-width:2.5;"/><text fill="#000000" font-family="sans-serif" font-size="17.5" lengthAdjust="spacing" textLength="97.5" x="6.25" y="676.1938">Receptionist</text><ellipse cx="58.75" cy="692.5391" fill="#FEFECE" filter="url(#f1qoztus43lqzg)" rx="10" ry="10" style="stroke:#A80036;stroke-width:2.5;"/><path d="M58.75,702.5391 L58.75,736.2891 M42.5,712.5391 L75,712.5391 M58.75,736.2891 L42.5,755.0391 M58.75,736.2891 L75,755.0391 " fill="none" filter="url(#f1qoztus43lqzg)" style="stroke:#A80036;stroke-width:2.5;"/><rect fill="#FEFECE" filter="url(#f1qoztus43lqzg)" height="39.5117" style="stroke:#A80036;stroke-width:1.875;" width="80" x="773.75" y="66.25"/><text fill="#000000" font-family="sans-serif" font-size="17.5" lengthAdjust="spacing" textLength="62.5" x="782.5" y="93.1665">:System</text><rect fill="#FEFECE" filter="url(#f1qoztus43lqzg)" height="39.5117" style="stroke:#A80036;stroke-width:1.875;" width="80" x="773.75" y="658.0273"/><text fill="#000000" font-family="sans-serif" font-size="17.5" lengthAdjust="spacing" textLength="62.5" x="782.5" y="684.9438">:System</text><rect fill="#FFFFFF" filter="url(#f1qoztus43lqzg)" height="512.2656" style="stroke:#A80036;stroke-width:1.25;" width="12.5" x="52.5" y="124.5117"/><rect fill="#FFFFFF" filter="url(#f1qoztus43lqzg)" height="69.1895" style="stroke:#A80036;stroke-width:1.25;" width="12.5" x="810" y="152.4512"/><rect fill="#FFFFFF" filter="url(#f1qoztus43lqzg)" height="69.1895" style="stroke:#A80036;stroke-width:1.25;" width="12.5" x="810" y="290.8301"/><rect fill="#FFFFFF" filter="url(#f1qoztus43lqzg)" height="69.1895" style="stroke:#A80036;stroke-width:1.25;" width="12.5" x="810" y="429.209"/><rect fill="#FFFFFF" filter="url(#f1qoztus43lqzg)" height="69.1895" style="stroke:#A80036;stroke-width:1.25;" width="12.5" x="810" y="567.5879"/><polygon fill="#A80036" points="795,147.4512,807.5,152.4512,795,157.4512,800,152.4512" style="stroke:#A80036;stroke-width:1.25;"/><line style="stroke:#A80036;stroke-width:1.25;" x1="65" x2="802.5" y1="152.4512" y2="152.4512"/><text fill="#000000" font-family="sans-serif" font-size="16.25" font-weight="bold" lengthAdjust="spacing" textLength="8.75" x="73.75" y="146.3806">1</text><text fill="#000000" font-family="sans-serif" font-size="16.25" lengthAdjust="spacing" textLength="195" x="87.5" y="146.3806">asks to create a new client</text><polygon fill="#A80036" points="78.75,216.6406,66.25,221.6406,78.75,226.6406,73.75,221.6406" style="stroke:#A80036;stroke-width:1.25;"/><line style="stroke:#A80036;stroke-width:1.25;stroke-dasharray:2.0,2.0;" x1="71.25" x2="815" y1="221.6406" y2="221.6406"/><text fill="#000000" font-family="sans-serif" font-size="16.25" font-weight="bold" lengthAdjust="spacing" textLength="8.75" x="86.25" y="215.5701">2</text><text fill="#000000" font-family="sans-serif" font-size="16.25" lengthAdjust="spacing" textLength="701.25" x="100" y="215.5701">requests client data (citizenNumber, healthcareNumber, birthDate, tin, name, phoneNumber, sex)</text><polygon fill="#A80036" points="795,285.8301,807.5,290.8301,795,295.8301,800,290.8301" style="stroke:#A80036;stroke-width:1.25;"/><line style="stroke:#A80036;stroke-width:1.25;" x1="65" x2="802.5" y1="290.8301" y2="290.8301"/><text fill="#000000" font-family="sans-serif" font-size="16.25" font-weight="bold" lengthAdjust="spacing" textLength="8.75" x="73.75" y="284.7595">3</text><text fill="#000000" font-family="sans-serif" font-size="16.25" lengthAdjust="spacing" textLength="147.5" x="87.5" y="284.7595">types the client data</text><polygon fill="#A80036" points="78.75,355.0195,66.25,360.0195,78.75,365.0195,73.75,360.0195" style="stroke:#A80036;stroke-width:1.25;"/><line style="stroke:#A80036;stroke-width:1.25;stroke-dasharray:2.0,2.0;" x1="71.25" x2="815" y1="360.0195" y2="360.0195"/><text fill="#000000" font-family="sans-serif" font-size="16.25" font-weight="bold" lengthAdjust="spacing" textLength="8.75" x="86.25" y="353.949">4</text><text fill="#000000" font-family="sans-serif" font-size="16.25" lengthAdjust="spacing" textLength="338.75" x="100" y="353.949">shows all client data and requests confirmation</text><polygon fill="#A80036" points="795,424.209,807.5,429.209,795,434.209,800,429.209" style="stroke:#A80036;stroke-width:1.25;"/><line style="stroke:#A80036;stroke-width:1.25;" x1="65" x2="802.5" y1="429.209" y2="429.209"/><text fill="#000000" font-family="sans-serif" font-size="16.25" font-weight="bold" lengthAdjust="spacing" textLength="8.75" x="73.75" y="423.1384">5</text><text fill="#000000" font-family="sans-serif" font-size="16.25" lengthAdjust="spacing" textLength="168.75" x="87.5" y="423.1384">confirms the client data</text><polygon fill="#A80036" points="78.75,493.3984,66.25,498.3984,78.75,503.3984,73.75,498.3984" style="stroke:#A80036;stroke-width:1.25;"/><line style="stroke:#A80036;stroke-width:1.25;stroke-dasharray:2.0,2.0;" x1="71.25" x2="815" y1="498.3984" y2="498.3984"/><text fill="#000000" font-family="sans-serif" font-size="16.25" font-weight="bold" lengthAdjust="spacing" textLength="8.75" x="86.25" y="492.3279">6</text><text fill="#000000" font-family="sans-serif" font-size="16.25" lengthAdjust="spacing" textLength="216.25" x="100" y="492.3279">requests the user data (email)</text><polygon fill="#A80036" points="795,562.5879,807.5,567.5879,795,572.5879,800,567.5879" style="stroke:#A80036;stroke-width:1.25;"/><line style="stroke:#A80036;stroke-width:1.25;" x1="65" x2="802.5" y1="567.5879" y2="567.5879"/><text fill="#000000" font-family="sans-serif" font-size="16.25" font-weight="bold" lengthAdjust="spacing" textLength="8.75" x="73.75" y="561.5173">7</text><text fill="#000000" font-family="sans-serif" font-size="16.25" lengthAdjust="spacing" textLength="140" x="87.5" y="561.5173">types the user data</text><polygon fill="#A80036" points="72.5,631.7773,60,636.7773,72.5,641.7773,67.5,636.7773" style="stroke:#A80036;stroke-width:1.25;"/><line style="stroke:#A80036;stroke-width:1.25;stroke-dasharray:2.0,2.0;" x1="65" x2="815" y1="636.7773" y2="636.7773"/><text fill="#000000" font-family="sans-serif" font-size="16.25" font-weight="bold" lengthAdjust="spacing" textLength="8.75" x="80" y="630.7068">8</text><text fill="#000000" font-family="sans-serif" font-size="16.25" lengthAdjust="spacing" textLength="190" x="93.75" y="630.7068">informs operation success</text><!--MD5=[417207811fd144b215e434b058c2d0e8]
@startuml
autonumber
actor "Receptionist" as RC
participant ":System" as SYSTEM

activate RC
RC -> SYSTEM : asks to create a new client
activate SYSTEM

|||
SYSTEM - -> RC : requests client data (citizenNumber, healthcareNumber, birthDate, tin, name, phoneNumber, sex)
deactivate SYSTEM

|||
RC -> SYSTEM : types the client data
activate SYSTEM
|||
SYSTEM - -> RC : shows all client data and requests confirmation
deactivate SYSTEM

|||
RC -> SYSTEM : confirms the client data
activate SYSTEM
|||
SYSTEM - -> RC : requests the user data (email)
deactivate SYSTEM

|||
RC -> SYSTEM : types the user data
activate SYSTEM
|||
SYSTEM - -> RC : informs operation success
deactivate SYSTEM

deactivate RC

@enduml

PlantUML version 1.2021.4(Sun Apr 04 09:49:39 BST 2021)
(GPL source distribution)
Java Runtime: OpenJDK Runtime Environment
JVM: OpenJDK 64-Bit Server VM
Default Encoding: Cp1252
Language: pt
Country: PT
--></g></svg>