<?xml version="1.0" encoding="UTF-8" standalone="no"?><svg xmlns="http://www.w3.org/2000/svg" xmlns:xlink="http://www.w3.org/1999/xlink" contentScriptType="application/ecmascript" contentStyleType="text/css" height="925px" preserveAspectRatio="none" style="width:940px;height:925px;" version="1.1" viewBox="0 0 940 925" width="940px" zoomAndPan="magnify"><defs><filter height="300%" id="fsmqcjb0bglj2" width="300%" x="-1" y="-1"><feGaussianBlur result="blurOut" stdDeviation="2.0"/><feColorMatrix in="blurOut" result="blurOut2" type="matrix" values="0 0 0 0 0 0 0 0 0 0 0 0 0 0 0 0 0 0 .4 0"/><feOffset dx="4.0" dy="4.0" in="blurOut2" result="blurOut3"/><feBlend in="SourceGraphic" in2="blurOut3" mode="normal"/></filter></defs><g><!--MD5=[b96506410a7781ec86e17a2580887d1e]
class ClientCreatorUI--><rect codeLine="2" fill="#FEFECE" filter="url(#fsmqcjb0bglj2)" height="48" id="ClientCreatorUI" style="stroke:#A80036;stroke-width:1.5;" width="117" x="262" y="7"/><ellipse cx="277" cy="23" fill="#ADD1B2" rx="11" ry="11" style="stroke:#A80036;stroke-width:1.0;"/><path d="M279,19.5 Q279.2031,19 279.4375,18.75 Q279.6719,18.5 279.9375,18.5 Q280.4063,18.5 280.7031,18.7813 Q281,19.0625 281,19.7188 L281,21.2813 Q281,21.9375 280.7188,22.2188 Q280.4375,22.5 280,22.5 Q279.6094,22.5 279.3594,22.3281 Q279.1094,22.1563 279,21.7031 Q278.9531,21.3906 278.7813,21.2188 Q278.4688,20.8906 277.9063,20.7031 Q277.3438,20.5 276.7813,20.5 Q276.0781,20.5 275.4844,20.7813 Q274.9063,21.0625 274.4531,21.6875 Q274,22.3125 274,23.1719 L274,24.0938 Q274,25.125 274.8438,25.8125 Q275.6875,26.5 277.1875,26.5 Q278.0781,26.5 278.7031,26.2969 Q279.0625,26.1875 279.4688,25.8281 Q279.7344,25.625 279.875,25.5625 Q280.0156,25.5 280.1875,25.5 Q280.5156,25.5 280.75,25.7656 Q281,26.0156 281,26.375 Q281,26.7188 280.6563,27.125 Q280.1563,27.7188 279.3594,28.0469 Q278.3125,28.5 277.0313,28.5 Q275.5313,28.5 274.3281,27.9063 Q273.3594,27.4375 272.6719,26.4219 Q272,25.4063 272,24.2031 L272,23.1094 Q272,21.8594 272.5938,20.7656 Q273.2031,19.6719 274.25,19.0938 Q275.3125,18.5 276.5,18.5 Q277.2188,18.5 277.8438,18.75 Q278.4688,19 279,19.5 Z " fill="#000000"/><text fill="#000000" font-family="sans-serif" font-size="12" lengthAdjust="spacing" textLength="85" x="291" y="27.9102">ClientCreatorUI</text><line style="stroke:#A80036;stroke-width:1.5;" x1="263" x2="378" y1="39" y2="39"/><line style="stroke:#A80036;stroke-width:1.5;" x1="263" x2="378" y1="47" y2="47"/><!--MD5=[bb892620106b215da6b5422eaab7a264]
class ClientCreatorController--><rect codeLine="6" fill="#FEFECE" filter="url(#fsmqcjb0bglj2)" height="103.3438" id="ClientCreatorController" style="stroke:#A80036;stroke-width:1.5;" width="448" x="96.5" y="116"/><ellipse cx="252.75" cy="132" fill="#ADD1B2" rx="11" ry="11" style="stroke:#A80036;stroke-width:1.0;"/><path d="M254.75,128.5 Q254.9531,128 255.1875,127.75 Q255.4219,127.5 255.6875,127.5 Q256.1563,127.5 256.4531,127.7813 Q256.75,128.0625 256.75,128.7188 L256.75,130.2813 Q256.75,130.9375 256.4688,131.2188 Q256.1875,131.5 255.75,131.5 Q255.3594,131.5 255.1094,131.3281 Q254.8594,131.1563 254.75,130.7031 Q254.7031,130.3906 254.5313,130.2188 Q254.2188,129.8906 253.6563,129.7031 Q253.0938,129.5 252.5313,129.5 Q251.8281,129.5 251.2344,129.7813 Q250.6563,130.0625 250.2031,130.6875 Q249.75,131.3125 249.75,132.1719 L249.75,133.0938 Q249.75,134.125 250.5938,134.8125 Q251.4375,135.5 252.9375,135.5 Q253.8281,135.5 254.4531,135.2969 Q254.8125,135.1875 255.2188,134.8281 Q255.4844,134.625 255.625,134.5625 Q255.7656,134.5 255.9375,134.5 Q256.2656,134.5 256.5,134.7656 Q256.75,135.0156 256.75,135.375 Q256.75,135.7188 256.4063,136.125 Q255.9063,136.7188 255.1094,137.0469 Q254.0625,137.5 252.7813,137.5 Q251.2813,137.5 250.0781,136.9063 Q249.1094,136.4375 248.4219,135.4219 Q247.75,134.4063 247.75,133.2031 L247.75,132.1094 Q247.75,130.8594 248.3438,129.7656 Q248.9531,128.6719 250,128.0938 Q251.0625,127.5 252.25,127.5 Q252.9688,127.5 253.5938,127.75 Q254.2188,128 254.75,128.5 Z " fill="#000000"/><text fill="#000000" font-family="sans-serif" font-size="12" lengthAdjust="spacing" textLength="127" x="273.25" y="136.9102">ClientCreatorController</text><line style="stroke:#A80036;stroke-width:1.5;" x1="97.5" x2="543.5" y1="148" y2="148"/><line style="stroke:#A80036;stroke-width:1.0;" x1="97.5" x2="543.5" y1="156" y2="156"/><ellipse cx="107.5" cy="167" fill="#84BE84" rx="3" ry="3" style="stroke:#038048;stroke-width:1.0;"/><text fill="#000000" font-family="sans-serif" font-size="11" lengthAdjust="spacing" textLength="422" x="116.5" y="171.4189">createClient(citizenNumber, healthcareNumber, birthDate, tin, name, phoneNumber, sex)</text><ellipse cx="107.5" cy="180.8359" fill="#84BE84" rx="3" ry="3" style="stroke:#038048;stroke-width:1.0;"/><text fill="#000000" font-family="sans-serif" font-size="11" lengthAdjust="spacing" textLength="58" x="116.5" y="185.2549">saveClient()</text><ellipse cx="107.5" cy="194.6719" fill="#84BE84" rx="3" ry="3" style="stroke:#038048;stroke-width:1.0;"/><text fill="#000000" font-family="sans-serif" font-size="11" lengthAdjust="spacing" textLength="156" x="116.5" y="199.0908">sendNotification(type, message)</text><ellipse cx="107.5" cy="208.5078" fill="#84BE84" rx="3" ry="3" style="stroke:#038048;stroke-width:1.0;"/><text fill="#000000" font-family="sans-serif" font-size="11" lengthAdjust="spacing" textLength="73" x="116.5" y="212.9268">addUser(email)</text><!--MD5=[8ae808d068a8995f06b9b3ec51357f0b]
class AuthFacade--><rect codeLine="14" fill="#FEFECE" filter="url(#fsmqcjb0bglj2)" height="75.6719" id="AuthFacade" style="stroke:#A80036;stroke-width:1.5;" width="187" x="7" y="287"/><ellipse cx="63.75" cy="303" fill="#ADD1B2" rx="11" ry="11" style="stroke:#A80036;stroke-width:1.0;"/><path d="M65.75,299.5 Q65.9531,299 66.1875,298.75 Q66.4219,298.5 66.6875,298.5 Q67.1563,298.5 67.4531,298.7813 Q67.75,299.0625 67.75,299.7188 L67.75,301.2813 Q67.75,301.9375 67.4688,302.2188 Q67.1875,302.5 66.75,302.5 Q66.3594,302.5 66.1094,302.3281 Q65.8594,302.1563 65.75,301.7031 Q65.7031,301.3906 65.5313,301.2188 Q65.2188,300.8906 64.6563,300.7031 Q64.0938,300.5 63.5313,300.5 Q62.8281,300.5 62.2344,300.7813 Q61.6563,301.0625 61.2031,301.6875 Q60.75,302.3125 60.75,303.1719 L60.75,304.0938 Q60.75,305.125 61.5938,305.8125 Q62.4375,306.5 63.9375,306.5 Q64.8281,306.5 65.4531,306.2969 Q65.8125,306.1875 66.2188,305.8281 Q66.4844,305.625 66.625,305.5625 Q66.7656,305.5 66.9375,305.5 Q67.2656,305.5 67.5,305.7656 Q67.75,306.0156 67.75,306.375 Q67.75,306.7188 67.4063,307.125 Q66.9063,307.7188 66.1094,308.0469 Q65.0625,308.5 63.7813,308.5 Q62.2813,308.5 61.0781,307.9063 Q60.1094,307.4375 59.4219,306.4219 Q58.75,305.4063 58.75,304.2031 L58.75,303.1094 Q58.75,301.8594 59.3438,300.7656 Q59.9531,299.6719 61,299.0938 Q62.0625,298.5 63.25,298.5 Q63.9688,298.5 64.5938,298.75 Q65.2188,299 65.75,299.5 Z " fill="#000000"/><text fill="#000000" font-family="sans-serif" font-size="12" lengthAdjust="spacing" textLength="65" x="84.25" y="307.9102">AuthFacade</text><line style="stroke:#A80036;stroke-width:1.5;" x1="8" x2="193" y1="319" y2="319"/><line style="stroke:#A80036;stroke-width:1.0;" x1="8" x2="193" y1="327" y2="327"/><ellipse cx="18" cy="338" fill="#84BE84" rx="3" ry="3" style="stroke:#038048;stroke-width:1.0;"/><text fill="#000000" font-family="sans-serif" font-size="11" lengthAdjust="spacing" textLength="78" x="27" y="342.4189">existUser(email)</text><ellipse cx="18" cy="351.8359" fill="#84BE84" rx="3" ry="3" style="stroke:#038048;stroke-width:1.0;"/><text fill="#000000" font-family="sans-serif" font-size="11" lengthAdjust="spacing" textLength="161" x="27" y="356.2549">addUser(name, email, password)</text><!--MD5=[51343ca5669a2e9191476a98c5902261]
class ClientsStore--><rect codeLine="20" fill="#FEFECE" filter="url(#fsmqcjb0bglj2)" height="75.6719" id="ClientsStore" style="stroke:#A80036;stroke-width:1.5;" width="103" x="597" y="836"/><ellipse cx="613.35" cy="852" fill="#ADD1B2" rx="11" ry="11" style="stroke:#A80036;stroke-width:1.0;"/><path d="M615.35,848.5 Q615.5531,848 615.7875,847.75 Q616.0219,847.5 616.2875,847.5 Q616.7563,847.5 617.0531,847.7813 Q617.35,848.0625 617.35,848.7188 L617.35,850.2813 Q617.35,850.9375 617.0688,851.2188 Q616.7875,851.5 616.35,851.5 Q615.9594,851.5 615.7094,851.3281 Q615.4594,851.1563 615.35,850.7031 Q615.3031,850.3906 615.1313,850.2188 Q614.8188,849.8906 614.2563,849.7031 Q613.6938,849.5 613.1313,849.5 Q612.4281,849.5 611.8344,849.7813 Q611.2563,850.0625 610.8031,850.6875 Q610.35,851.3125 610.35,852.1719 L610.35,853.0938 Q610.35,854.125 611.1938,854.8125 Q612.0375,855.5 613.5375,855.5 Q614.4281,855.5 615.0531,855.2969 Q615.4125,855.1875 615.8188,854.8281 Q616.0844,854.625 616.225,854.5625 Q616.3656,854.5 616.5375,854.5 Q616.8656,854.5 617.1,854.7656 Q617.35,855.0156 617.35,855.375 Q617.35,855.7188 617.0063,856.125 Q616.5063,856.7188 615.7094,857.0469 Q614.6625,857.5 613.3813,857.5 Q611.8813,857.5 610.6781,856.9063 Q609.7094,856.4375 609.0219,855.4219 Q608.35,854.4063 608.35,853.2031 L608.35,852.1094 Q608.35,850.8594 608.9438,849.7656 Q609.5531,848.6719 610.6,848.0938 Q611.6625,847.5 612.85,847.5 Q613.5688,847.5 614.1938,847.75 Q614.8188,848 615.35,848.5 Z " fill="#000000"/><text fill="#000000" font-family="sans-serif" font-size="12" lengthAdjust="spacing" textLength="68" x="627.65" y="856.9102">ClientsStore</text><line style="stroke:#A80036;stroke-width:1.5;" x1="598" x2="699" y1="868" y2="868"/><line style="stroke:#A80036;stroke-width:1.0;" x1="598" x2="699" y1="876" y2="876"/><ellipse cx="608" cy="887" fill="#84BE84" rx="3" ry="3" style="stroke:#038048;stroke-width:1.0;"/><text fill="#000000" font-family="sans-serif" font-size="11" lengthAdjust="spacing" textLength="55" x="617" y="891.4189">getClients()</text><ellipse cx="608" cy="900.8359" fill="#84BE84" rx="3" ry="3" style="stroke:#038048;stroke-width:1.0;"/><text fill="#000000" font-family="sans-serif" font-size="11" lengthAdjust="spacing" textLength="77" x="617" y="905.2549">addClient(client)</text><!--MD5=[4f2474601534d614e5ae09ac9b051bd4]
class ClientNotification--><rect codeLine="26" fill="#FEFECE" filter="url(#fsmqcjb0bglj2)" height="61.8359" id="ClientNotification" style="stroke:#A80036;stroke-width:1.5;" width="182" x="229.5" y="294"/><ellipse cx="270.15" cy="310" fill="#ADD1B2" rx="11" ry="11" style="stroke:#A80036;stroke-width:1.0;"/><path d="M272.15,306.5 Q272.3531,306 272.5875,305.75 Q272.8219,305.5 273.0875,305.5 Q273.5563,305.5 273.8531,305.7813 Q274.15,306.0625 274.15,306.7188 L274.15,308.2813 Q274.15,308.9375 273.8688,309.2188 Q273.5875,309.5 273.15,309.5 Q272.7594,309.5 272.5094,309.3281 Q272.2594,309.1563 272.15,308.7031 Q272.1031,308.3906 271.9313,308.2188 Q271.6188,307.8906 271.0563,307.7031 Q270.4938,307.5 269.9313,307.5 Q269.2281,307.5 268.6344,307.7813 Q268.0563,308.0625 267.6031,308.6875 Q267.15,309.3125 267.15,310.1719 L267.15,311.0938 Q267.15,312.125 267.9938,312.8125 Q268.8375,313.5 270.3375,313.5 Q271.2281,313.5 271.8531,313.2969 Q272.2125,313.1875 272.6188,312.8281 Q272.8844,312.625 273.025,312.5625 Q273.1656,312.5 273.3375,312.5 Q273.6656,312.5 273.9,312.7656 Q274.15,313.0156 274.15,313.375 Q274.15,313.7188 273.8063,314.125 Q273.3063,314.7188 272.5094,315.0469 Q271.4625,315.5 270.1813,315.5 Q268.6813,315.5 267.4781,314.9063 Q266.5094,314.4375 265.8219,313.4219 Q265.15,312.4063 265.15,311.2031 L265.15,310.1094 Q265.15,308.8594 265.7438,307.7656 Q266.3531,306.6719 267.4,306.0938 Q268.4625,305.5 269.65,305.5 Q270.3688,305.5 270.9938,305.75 Q271.6188,306 272.15,306.5 Z " fill="#000000"/><text fill="#000000" font-family="sans-serif" font-size="12" lengthAdjust="spacing" textLength="93" x="289.85" y="314.9102">ClientNotification</text><line style="stroke:#A80036;stroke-width:1.5;" x1="230.5" x2="410.5" y1="326" y2="326"/><line style="stroke:#A80036;stroke-width:1.0;" x1="230.5" x2="410.5" y1="334" y2="334"/><ellipse cx="240.5" cy="345" fill="#84BE84" rx="3" ry="3" style="stroke:#038048;stroke-width:1.0;"/><text fill="#000000" font-family="sans-serif" font-size="11" lengthAdjust="spacing" textLength="156" x="249.5" y="349.4189">sendNotification(type, message)</text><!--MD5=[7421f545a0d8420c5bec41e74b387d9c]
class Employee--><rect codeLine="31" fill="#FEFECE" filter="url(#fsmqcjb0bglj2)" height="144.8516" id="Employee" style="stroke:#A80036;stroke-width:1.5;" width="124" x="302.5" y="455"/><ellipse cx="334.15" cy="471" fill="#ADD1B2" rx="11" ry="11" style="stroke:#A80036;stroke-width:1.0;"/><path d="M336.15,467.5 Q336.3531,467 336.5875,466.75 Q336.8219,466.5 337.0875,466.5 Q337.5563,466.5 337.8531,466.7813 Q338.15,467.0625 338.15,467.7188 L338.15,469.2813 Q338.15,469.9375 337.8688,470.2188 Q337.5875,470.5 337.15,470.5 Q336.7594,470.5 336.5094,470.3281 Q336.2594,470.1563 336.15,469.7031 Q336.1031,469.3906 335.9313,469.2188 Q335.6188,468.8906 335.0563,468.7031 Q334.4938,468.5 333.9313,468.5 Q333.2281,468.5 332.6344,468.7813 Q332.0563,469.0625 331.6031,469.6875 Q331.15,470.3125 331.15,471.1719 L331.15,472.0938 Q331.15,473.125 331.9938,473.8125 Q332.8375,474.5 334.3375,474.5 Q335.2281,474.5 335.8531,474.2969 Q336.2125,474.1875 336.6188,473.8281 Q336.8844,473.625 337.025,473.5625 Q337.1656,473.5 337.3375,473.5 Q337.6656,473.5 337.9,473.7656 Q338.15,474.0156 338.15,474.375 Q338.15,474.7188 337.8063,475.125 Q337.3063,475.7188 336.5094,476.0469 Q335.4625,476.5 334.1813,476.5 Q332.6813,476.5 331.4781,475.9063 Q330.5094,475.4375 329.8219,474.4219 Q329.15,473.4063 329.15,472.2031 L329.15,471.1094 Q329.15,469.8594 329.7438,468.7656 Q330.3531,467.6719 331.4,467.0938 Q332.4625,466.5 333.65,466.5 Q334.3688,466.5 334.9938,466.75 Q335.6188,467 336.15,467.5 Z " fill="#000000"/><text fill="#000000" font-family="sans-serif" font-size="12" lengthAdjust="spacing" textLength="55" x="351.85" y="475.9102">Employee</text><line style="stroke:#A80036;stroke-width:1.5;" x1="303.5" x2="425.5" y1="487" y2="487"/><rect fill="none" height="6" style="stroke:#C82930;stroke-width:1.0;" width="6" x="310.5" y="495"/><text fill="#000000" font-family="sans-serif" font-size="11" lengthAdjust="spacing" textLength="85" x="322.5" y="502.4189">String idEmployee</text><rect fill="none" height="6" style="stroke:#C82930;stroke-width:1.0;" width="6" x="310.5" y="508.8359"/><text fill="#000000" font-family="sans-serif" font-size="11" lengthAdjust="spacing" textLength="57" x="322.5" y="516.2549">String name</text><rect fill="none" height="6" style="stroke:#C82930;stroke-width:1.0;" width="6" x="310.5" y="522.6719"/><text fill="#000000" font-family="sans-serif" font-size="11" lengthAdjust="spacing" textLength="70" x="322.5" y="530.0908">String function</text><rect fill="none" height="6" style="stroke:#C82930;stroke-width:1.0;" width="6" x="310.5" y="536.5078"/><text fill="#000000" font-family="sans-serif" font-size="11" lengthAdjust="spacing" textLength="98" x="322.5" y="543.9268">String phoneNumber</text><rect fill="none" height="6" style="stroke:#C82930;stroke-width:1.0;" width="6" x="310.5" y="550.3438"/><text fill="#000000" font-family="sans-serif" font-size="11" lengthAdjust="spacing" textLength="55" x="322.5" y="557.7627">String email</text><rect fill="none" height="6" style="stroke:#C82930;stroke-width:1.0;" width="6" x="310.5" y="564.1797"/><text fill="#000000" font-family="sans-serif" font-size="11" lengthAdjust="spacing" textLength="71" x="322.5" y="571.5986">String address</text><rect fill="none" height="6" style="stroke:#C82930;stroke-width:1.0;" width="6" x="310.5" y="578.0156"/><text fill="#000000" font-family="sans-serif" font-size="11" lengthAdjust="spacing" textLength="49" x="322.5" y="585.4346">String soc</text><line style="stroke:#A80036;stroke-width:1.5;" x1="303.5" x2="425.5" y1="591.8516" y2="591.8516"/><!--MD5=[03960189e81aa2c066c762ffabbee709]
class Receptionist--><rect codeLine="41" fill="#FEFECE" filter="url(#fsmqcjb0bglj2)" height="89.5078" id="Receptionist" style="stroke:#A80036;stroke-width:1.5;" width="448" x="446.5" y="280"/><ellipse cx="631.75" cy="296" fill="#ADD1B2" rx="11" ry="11" style="stroke:#A80036;stroke-width:1.0;"/><path d="M633.75,292.5 Q633.9531,292 634.1875,291.75 Q634.4219,291.5 634.6875,291.5 Q635.1563,291.5 635.4531,291.7813 Q635.75,292.0625 635.75,292.7188 L635.75,294.2813 Q635.75,294.9375 635.4688,295.2188 Q635.1875,295.5 634.75,295.5 Q634.3594,295.5 634.1094,295.3281 Q633.8594,295.1563 633.75,294.7031 Q633.7031,294.3906 633.5313,294.2188 Q633.2188,293.8906 632.6563,293.7031 Q632.0938,293.5 631.5313,293.5 Q630.8281,293.5 630.2344,293.7813 Q629.6563,294.0625 629.2031,294.6875 Q628.75,295.3125 628.75,296.1719 L628.75,297.0938 Q628.75,298.125 629.5938,298.8125 Q630.4375,299.5 631.9375,299.5 Q632.8281,299.5 633.4531,299.2969 Q633.8125,299.1875 634.2188,298.8281 Q634.4844,298.625 634.625,298.5625 Q634.7656,298.5 634.9375,298.5 Q635.2656,298.5 635.5,298.7656 Q635.75,299.0156 635.75,299.375 Q635.75,299.7188 635.4063,300.125 Q634.9063,300.7188 634.1094,301.0469 Q633.0625,301.5 631.7813,301.5 Q630.2813,301.5 629.0781,300.9063 Q628.1094,300.4375 627.4219,299.4219 Q626.75,298.4063 626.75,297.2031 L626.75,296.1094 Q626.75,294.8594 627.3438,293.7656 Q627.9531,292.6719 629,292.0938 Q630.0625,291.5 631.25,291.5 Q631.9688,291.5 632.5938,291.75 Q633.2188,292 633.75,292.5 Z " fill="#000000"/><text fill="#000000" font-family="sans-serif" font-size="12" lengthAdjust="spacing" textLength="69" x="652.25" y="300.9102">Receptionist</text><line style="stroke:#A80036;stroke-width:1.5;" x1="447.5" x2="893.5" y1="312" y2="312"/><line style="stroke:#A80036;stroke-width:1.0;" x1="447.5" x2="893.5" y1="320" y2="320"/><ellipse cx="457.5" cy="331" fill="#84BE84" rx="3" ry="3" style="stroke:#038048;stroke-width:1.0;"/><text fill="#000000" font-family="sans-serif" font-size="11" lengthAdjust="spacing" textLength="422" x="466.5" y="335.4189">createClient(citizenNumber, healthcareNumber, birthDate, tin, name, phoneNumber, sex)</text><ellipse cx="457.5" cy="344.8359" fill="#84BE84" rx="3" ry="3" style="stroke:#038048;stroke-width:1.0;"/><text fill="#000000" font-family="sans-serif" font-size="11" lengthAdjust="spacing" textLength="83" x="466.5" y="349.2549">saveClient(client)</text><rect fill="#F24D5C" height="6" style="stroke:#C82930;stroke-width:1.0;" width="6" x="454.5" y="355.6719"/><text fill="#000000" font-family="sans-serif" font-size="11" lengthAdjust="spacing" textLength="70" x="466.5" y="363.0908">validate(client)</text><!--MD5=[ed6624c6556d5e7b1bd23032162d20b7]
class Client--><rect codeLine="48" fill="#FEFECE" filter="url(#fsmqcjb0bglj2)" height="158.6875" id="Client" style="stroke:#A80036;stroke-width:1.5;" width="417" x="462" y="448"/><ellipse cx="650.25" cy="464" fill="#ADD1B2" rx="11" ry="11" style="stroke:#A80036;stroke-width:1.0;"/><path d="M652.25,460.5 Q652.4531,460 652.6875,459.75 Q652.9219,459.5 653.1875,459.5 Q653.6563,459.5 653.9531,459.7813 Q654.25,460.0625 654.25,460.7188 L654.25,462.2813 Q654.25,462.9375 653.9688,463.2188 Q653.6875,463.5 653.25,463.5 Q652.8594,463.5 652.6094,463.3281 Q652.3594,463.1563 652.25,462.7031 Q652.2031,462.3906 652.0313,462.2188 Q651.7188,461.8906 651.1563,461.7031 Q650.5938,461.5 650.0313,461.5 Q649.3281,461.5 648.7344,461.7813 Q648.1563,462.0625 647.7031,462.6875 Q647.25,463.3125 647.25,464.1719 L647.25,465.0938 Q647.25,466.125 648.0938,466.8125 Q648.9375,467.5 650.4375,467.5 Q651.3281,467.5 651.9531,467.2969 Q652.3125,467.1875 652.7188,466.8281 Q652.9844,466.625 653.125,466.5625 Q653.2656,466.5 653.4375,466.5 Q653.7656,466.5 654,466.7656 Q654.25,467.0156 654.25,467.375 Q654.25,467.7188 653.9063,468.125 Q653.4063,468.7188 652.6094,469.0469 Q651.5625,469.5 650.2813,469.5 Q648.7813,469.5 647.5781,468.9063 Q646.6094,468.4375 645.9219,467.4219 Q645.25,466.4063 645.25,465.2031 L645.25,464.1094 Q645.25,462.8594 645.8438,461.7656 Q646.4531,460.6719 647.5,460.0938 Q648.5625,459.5 649.75,459.5 Q650.4688,459.5 651.0938,459.75 Q651.7188,460 652.25,460.5 Z " fill="#000000"/><text fill="#000000" font-family="sans-serif" font-size="12" lengthAdjust="spacing" textLength="32" x="670.75" y="468.9102">Client</text><line style="stroke:#A80036;stroke-width:1.5;" x1="463" x2="878" y1="480" y2="480"/><rect fill="none" height="6" style="stroke:#C82930;stroke-width:1.0;" width="6" x="470" y="488"/><text fill="#000000" font-family="sans-serif" font-size="11" lengthAdjust="spacing" textLength="99" x="482" y="495.4189">String citizenNumber</text><rect fill="none" height="6" style="stroke:#C82930;stroke-width:1.0;" width="6" x="470" y="501.8359"/><text fill="#000000" font-family="sans-serif" font-size="11" lengthAdjust="spacing" textLength="119" x="482" y="509.2549">String healthcareNumber</text><rect fill="none" height="6" style="stroke:#C82930;stroke-width:1.0;" width="6" x="470" y="515.6719"/><text fill="#000000" font-family="sans-serif" font-size="11" lengthAdjust="spacing" textLength="74" x="482" y="523.0908">String birthDate</text><rect fill="none" height="6" style="stroke:#C82930;stroke-width:1.0;" width="6" x="470" y="529.5078"/><text fill="#000000" font-family="sans-serif" font-size="11" lengthAdjust="spacing" textLength="42" x="482" y="536.9268">String tin</text><rect fill="none" height="6" style="stroke:#C82930;stroke-width:1.0;" width="6" x="470" y="543.3438"/><text fill="#000000" font-family="sans-serif" font-size="11" lengthAdjust="spacing" textLength="57" x="482" y="550.7627">String name</text><rect fill="none" height="6" style="stroke:#C82930;stroke-width:1.0;" width="6" x="470" y="557.1797"/><text fill="#000000" font-family="sans-serif" font-size="11" lengthAdjust="spacing" textLength="98" x="482" y="564.5986">String phoneNumber</text><rect fill="none" height="6" style="stroke:#C82930;stroke-width:1.0;" width="6" x="470" y="571.0156"/><text fill="#000000" font-family="sans-serif" font-size="11" lengthAdjust="spacing" textLength="49" x="482" y="578.4346">String sex</text><line style="stroke:#A80036;stroke-width:1.0;" x1="463" x2="878" y1="584.8516" y2="584.8516"/><ellipse cx="473" cy="595.8516" fill="#84BE84" rx="3" ry="3" style="stroke:#038048;stroke-width:1.0;"/><text fill="#000000" font-family="sans-serif" font-size="11" lengthAdjust="spacing" textLength="391" x="482" y="600.2705">Client(citizenNumber, healthcareNumber, birthDate, tin, name, phoneNumber, sex)</text><!--MD5=[99b8db98afdc2c8404e39242ef4c1e65]
class Platform--><rect codeLine="60" fill="#FEFECE" filter="url(#fsmqcjb0bglj2)" height="89.5078" id="Platform" style="stroke:#A80036;stroke-width:1.5;" width="112" x="592.5" y="685"/><ellipse cx="622.8" cy="701" fill="#ADD1B2" rx="11" ry="11" style="stroke:#A80036;stroke-width:1.0;"/><path d="M624.8,697.5 Q625.0031,697 625.2375,696.75 Q625.4719,696.5 625.7375,696.5 Q626.2063,696.5 626.5031,696.7813 Q626.8,697.0625 626.8,697.7188 L626.8,699.2813 Q626.8,699.9375 626.5188,700.2188 Q626.2375,700.5 625.8,700.5 Q625.4094,700.5 625.1594,700.3281 Q624.9094,700.1563 624.8,699.7031 Q624.7531,699.3906 624.5813,699.2188 Q624.2688,698.8906 623.7063,698.7031 Q623.1438,698.5 622.5813,698.5 Q621.8781,698.5 621.2844,698.7813 Q620.7063,699.0625 620.2531,699.6875 Q619.8,700.3125 619.8,701.1719 L619.8,702.0938 Q619.8,703.125 620.6438,703.8125 Q621.4875,704.5 622.9875,704.5 Q623.8781,704.5 624.5031,704.2969 Q624.8625,704.1875 625.2688,703.8281 Q625.5344,703.625 625.675,703.5625 Q625.8156,703.5 625.9875,703.5 Q626.3156,703.5 626.55,703.7656 Q626.8,704.0156 626.8,704.375 Q626.8,704.7188 626.4563,705.125 Q625.9563,705.7188 625.1594,706.0469 Q624.1125,706.5 622.8313,706.5 Q621.3313,706.5 620.1281,705.9063 Q619.1594,705.4375 618.4719,704.4219 Q617.8,703.4063 617.8,702.2031 L617.8,701.1094 Q617.8,699.8594 618.3938,698.7656 Q619.0031,697.6719 620.05,697.0938 Q621.1125,696.5 622.3,696.5 Q623.0188,696.5 623.6438,696.75 Q624.2688,697 624.8,697.5 Z " fill="#000000"/><text fill="#000000" font-family="sans-serif" font-size="12" lengthAdjust="spacing" textLength="46" x="640.2" y="705.9102">Platform</text><line style="stroke:#A80036;stroke-width:1.5;" x1="593.5" x2="703.5" y1="717" y2="717"/><rect fill="none" height="6" style="stroke:#C82930;stroke-width:1.0;" width="6" x="600.5" y="725"/><text fill="#000000" font-family="sans-serif" font-size="11" lengthAdjust="spacing" textLength="86" x="612.5" y="732.4189">String designation</text><line style="stroke:#A80036;stroke-width:1.0;" x1="593.5" x2="703.5" y1="738.8359" y2="738.8359"/><ellipse cx="603.5" cy="749.8359" fill="#84BE84" rx="3" ry="3" style="stroke:#038048;stroke-width:1.0;"/><text fill="#000000" font-family="sans-serif" font-size="11" lengthAdjust="spacing" textLength="55" x="612.5" y="754.2549">getClients()</text><ellipse cx="603.5" cy="763.6719" fill="#84BE84" rx="3" ry="3" style="stroke:#038048;stroke-width:1.0;"/><text fill="#000000" font-family="sans-serif" font-size="11" lengthAdjust="spacing" textLength="77" x="612.5" y="768.0908">addClient(client)</text><!--MD5=[b29a880d5ea6a1b2c7c9e94942a3f9a4]
link ClientCreatorUI to ClientCreatorController--><path codeLine="67" d="M320.5,55.12 C320.5,70.36 320.5,91.02 320.5,110.4 " fill="none" id="ClientCreatorUI-to-ClientCreatorController" style="stroke:#A80036;stroke-width:1.0;stroke-dasharray:7.0,7.0;"/><polygon fill="#A80036" points="320.5,115.83,324.5,106.83,320.5,110.83,316.5,106.83,320.5,115.83" style="stroke:#A80036;stroke-width:1.0;"/><!--MD5=[050b9a4d1e78f3265017f260c726855c]
link ClientCreatorController to Receptionist--><path codeLine="68" d="M434.62,219.2 C477.07,238.06 524.98,259.35 566.48,277.78 " fill="none" id="ClientCreatorController-to-Receptionist" style="stroke:#A80036;stroke-width:1.0;stroke-dasharray:7.0,7.0;"/><polygon fill="#A80036" points="571.25,279.9,564.646,272.5933,566.6798,277.872,561.4011,279.9057,571.25,279.9" style="stroke:#A80036;stroke-width:1.0;"/><!--MD5=[b573d32290f87f9622f2ea24c24dad6b]
link ClientCreatorController to AuthFacade--><path codeLine="69" d="M248.77,219.2 C219.13,240.15 185.26,264.09 157.38,283.8 " fill="none" id="ClientCreatorController-to-AuthFacade" style="stroke:#A80036;stroke-width:1.0;stroke-dasharray:7.0,7.0;"/><polygon fill="#A80036" points="152.96,286.92,162.6157,284.9791,157.0393,284.0287,157.9897,278.4523,152.96,286.92" style="stroke:#A80036;stroke-width:1.0;"/><!--MD5=[9bcf6a5a67aa7a6e88a751bd38575f95]
link ClientCreatorController to ClientNotification--><path codeLine="70" d="M320.5,219.42 C320.5,242.12 320.5,268.3 320.5,288.78 " fill="none" id="ClientCreatorController-to-ClientNotification" style="stroke:#A80036;stroke-width:1.0;stroke-dasharray:7.0,7.0;"/><polygon fill="#A80036" points="320.5,293.86,324.5,284.86,320.5,288.86,316.5,284.86,320.5,293.86" style="stroke:#A80036;stroke-width:1.0;"/><!--MD5=[47c5981d91142fd3d377d484079759cf]
link Receptionist to Platform--><path codeLine="71" d="M806.7,370.05 C842.09,388.37 876,413.63 896.5,448 C932.7,508.69 933.85,547.01 896.5,607 C855.86,672.28 768.93,703.63 709.58,717.96 " fill="none" id="Receptionist-to-Platform" style="stroke:#A80036;stroke-width:1.0;stroke-dasharray:7.0,7.0;"/><polygon fill="#A80036" points="704.64,719.13,714.3208,720.9418,709.5046,717.9745,712.4719,713.1583,704.64,719.13" style="stroke:#A80036;stroke-width:1.0;"/><!--MD5=[1c73d7b09960357d10f8ddc0543f3b9d]
link Platform to ClientsStore--><path codeLine="72" d="M648.5,775.15 C648.5,792.71 648.5,812.84 648.5,830.26 " fill="none" id="Platform-to-ClientsStore" style="stroke:#A80036;stroke-width:1.0;stroke-dasharray:7.0,7.0;"/><polygon fill="#A80036" points="648.5,835.57,652.5,826.57,648.5,830.57,644.5,826.57,648.5,835.57" style="stroke:#A80036;stroke-width:1.0;"/><!--MD5=[06bb7d2a85a007b79d10922b2d5e4cdd]
link Receptionist to Employee--><path codeLine="74" d="M574.85,370.1 C533.19,391.18 484.78,418.29 444.5,448 C443.85,448.48 443.2,448.97 442.55,449.46 " fill="none" id="Receptionist-to-Employee" style="stroke:#A80036;stroke-width:1.0;"/><polygon fill="none" points="446.74,455.07,426.79,462.22,437.92,444.19,446.74,455.07" style="stroke:#A80036;stroke-width:1.0;"/><text fill="#000000" font-family="sans-serif" font-size="13" lengthAdjust="spacing" textLength="10" x="517.5" y="414.4951">is</text><text fill="#000000" font-family="sans-serif" font-size="13" lengthAdjust="spacing" textLength="7" x="553.907" y="391.1216">1</text><text fill="#000000" font-family="sans-serif" font-size="13" lengthAdjust="spacing" textLength="7" x="434.397" y="451.271">1</text><!--MD5=[b482d663aae385f5ae82dde2f71259c6]
link Employee to Platform--><path codeLine="75" d="M426.55,592.09 C432.46,597.32 438.49,602.36 444.5,607 C491.37,643.19 549.8,677.14 592.09,699.99 " fill="none" id="Employee-Platform" style="stroke:#A80036;stroke-width:1.0;"/><polygon fill="#000000" points="518.6888,648.906,512.716,641.5049,509.5064,646.429,518.6888,648.906" style="stroke:#000000;stroke-width:1.0;"/><text fill="#000000" font-family="sans-serif" font-size="13" lengthAdjust="spacing" textLength="28" x="523.5" y="651.4951">uses</text><text fill="#000000" font-family="sans-serif" font-size="13" lengthAdjust="spacing" textLength="5" x="434.417" y="596.5125">*</text><text fill="#000000" font-family="sans-serif" font-size="13" lengthAdjust="spacing" textLength="7" x="577.414" y="692.6691">1</text><!--MD5=[6a35157f4c730bda767e7c9f1b8b7f73]
link Receptionist to Client--><path codeLine="76" d="M670.5,370 C670.5,392.82 670.5,421.4 670.5,447.87 " fill="none" id="Receptionist-Client" style="stroke:#A80036;stroke-width:1.0;"/><text fill="#000000" font-family="sans-serif" font-size="13" lengthAdjust="spacing" textLength="43" x="671.5" y="414.4951">register</text><text fill="#000000" font-family="sans-serif" font-size="13" lengthAdjust="spacing" textLength="7" x="663.0078" y="391.0076">1</text><text fill="#000000" font-family="sans-serif" font-size="13" lengthAdjust="spacing" textLength="5" x="665.2617" y="437.0445">*</text><!--MD5=[a520f0abc71b9c54f5b716fef1a063cd]
@startuml

class ClientCreatorUI{

}

class ClientCreatorController{
    - -
    +createClient(citizenNumber, healthcareNumber, birthDate, tin, name, phoneNumber, sex)
    +saveClient()
    +sendNotification(type, message)
    +addUser(email)
}

class AuthFacade{
    - -
    +existUser(email)
    +addUser(name, email, password)
}

class ClientsStore{
    - -
    +getClients()
    +addClient(client)
}

class ClientNotification{
    - -
    +sendNotification(type, message)
}

class Employee{
    -String idEmployee
    -String name
    -String function
    -String phoneNumber
    -String email
    -String address
    -String soc
}

class Receptionist {
    - -
    +createClient(citizenNumber, healthcareNumber, birthDate, tin, name, phoneNumber, sex)
    +saveClient(client)
    -validate(client)
}

class Client {
    -String citizenNumber
    -String healthcareNumber
    -String birthDate
    -String tin
    -String name
    -String phoneNumber
    -String sex
    - -
    +Client(citizenNumber, healthcareNumber, birthDate, tin, name, phoneNumber, sex)
}

class Platform{
    -String designation
    - -
    +getClients()
    +addClient(client)
}

ClientCreatorUI ..> ClientCreatorController
ClientCreatorController ..> Receptionist
ClientCreatorController ..> AuthFacade
ClientCreatorController ..> ClientNotification
Receptionist ..> Platform
Platform ..> ClientsStore

Receptionist "1" - -|> "1" Employee : is
Employee "*" - - "1" Platform : uses >
Receptionist "1" - - "*" Client : register



@enduml

PlantUML version 1.2021.5(Sun Apr 25 12:20:28 BST 2021)
(GPL source distribution)
Java Runtime: OpenJDK Runtime Environment
JVM: Dynamic Code Evolution 64-Bit Server VM
Default Encoding: Cp1252
Language: pt
Country: PT
--></g></svg>