<?xml version="1.0" encoding="UTF-8" standalone="no"?><svg xmlns="http://www.w3.org/2000/svg" xmlns:xlink="http://www.w3.org/1999/xlink" contentScriptType="application/ecmascript" contentStyleType="text/css" height="329px" preserveAspectRatio="none" style="width:535px;height:329px;" version="1.1" viewBox="0 0 535 329" width="535px" zoomAndPan="magnify"><defs><filter height="300%" id="f1pxlmfukzv6i0" width="300%" x="-1" y="-1"><feGaussianBlur result="blurOut" stdDeviation="2.0"/><feColorMatrix in="blurOut" result="blurOut2" type="matrix" values="0 0 0 0 0 0 0 0 0 0 0 0 0 0 0 0 0 0 .4 0"/><feOffset dx="4.0" dy="4.0" in="blurOut2" result="blurOut3"/><feBlend in="SourceGraphic" in2="blurOut3" mode="normal"/></filter></defs><g><!--MD5=[7421f545a0d8420c5bec41e74b387d9c]
class Employee--><rect codeLine="4" fill="#FEFECE" filter="url(#f1pxlmfukzv6i0)" height="136.8516" id="Employee" style="stroke:#A80036;stroke-width:1.5;" width="93" x="236.5" y="7"/><ellipse cx="254.2" cy="23" fill="#ADD1B2" rx="11" ry="11" style="stroke:#A80036;stroke-width:1.0;"/><path d="M256.2,19.5 Q256.4031,19 256.6375,18.75 Q256.8719,18.5 257.1375,18.5 Q257.6063,18.5 257.9031,18.7813 Q258.2,19.0625 258.2,19.7188 L258.2,21.2813 Q258.2,21.9375 257.9188,22.2188 Q257.6375,22.5 257.2,22.5 Q256.8094,22.5 256.5594,22.3281 Q256.3094,22.1563 256.2,21.7031 Q256.1531,21.3906 255.9813,21.2188 Q255.6688,20.8906 255.1063,20.7031 Q254.5438,20.5 253.9813,20.5 Q253.2781,20.5 252.6844,20.7813 Q252.1063,21.0625 251.6531,21.6875 Q251.2,22.3125 251.2,23.1719 L251.2,24.0938 Q251.2,25.125 252.0438,25.8125 Q252.8875,26.5 254.3875,26.5 Q255.2781,26.5 255.9031,26.2969 Q256.2625,26.1875 256.6688,25.8281 Q256.9344,25.625 257.075,25.5625 Q257.2156,25.5 257.3875,25.5 Q257.7156,25.5 257.95,25.7656 Q258.2,26.0156 258.2,26.375 Q258.2,26.7188 257.8563,27.125 Q257.3563,27.7188 256.5594,28.0469 Q255.5125,28.5 254.2313,28.5 Q252.7313,28.5 251.5281,27.9063 Q250.5594,27.4375 249.8719,26.4219 Q249.2,25.4063 249.2,24.2031 L249.2,23.1094 Q249.2,21.8594 249.7938,20.7656 Q250.4031,19.6719 251.45,19.0938 Q252.5125,18.5 253.7,18.5 Q254.4188,18.5 255.0438,18.75 Q255.6688,19 256.2,19.5 Z " fill="#000000"/><text fill="#000000" font-family="sans-serif" font-size="12" lengthAdjust="spacing" textLength="55" x="268.8" y="27.9102">Employee</text><line style="stroke:#A80036;stroke-width:1.5;" x1="237.5" x2="328.5" y1="39" y2="39"/><rect fill="none" height="6" style="stroke:#C82930;stroke-width:1.0;" width="6" x="244.5" y="47"/><text fill="#000000" font-family="sans-serif" font-size="11" lengthAdjust="spacing" textLength="54" x="256.5" y="54.4189">idEmployee</text><rect fill="none" height="6" style="stroke:#C82930;stroke-width:1.0;" width="6" x="244.5" y="60.8359"/><text fill="#000000" font-family="sans-serif" font-size="11" lengthAdjust="spacing" textLength="26" x="256.5" y="68.2549">name</text><rect fill="none" height="6" style="stroke:#C82930;stroke-width:1.0;" width="6" x="244.5" y="74.6719"/><text fill="#000000" font-family="sans-serif" font-size="11" lengthAdjust="spacing" textLength="39" x="256.5" y="82.0908">function</text><rect fill="none" height="6" style="stroke:#C82930;stroke-width:1.0;" width="6" x="244.5" y="88.5078"/><text fill="#000000" font-family="sans-serif" font-size="11" lengthAdjust="spacing" textLength="67" x="256.5" y="95.9268">phoneNumber</text><rect fill="none" height="6" style="stroke:#C82930;stroke-width:1.0;" width="6" x="244.5" y="102.3438"/><text fill="#000000" font-family="sans-serif" font-size="11" lengthAdjust="spacing" textLength="24" x="256.5" y="109.7627">email</text><rect fill="none" height="6" style="stroke:#C82930;stroke-width:1.0;" width="6" x="244.5" y="116.1797"/><text fill="#000000" font-family="sans-serif" font-size="11" lengthAdjust="spacing" textLength="40" x="256.5" y="123.5986">address</text><rect fill="none" height="6" style="stroke:#C82930;stroke-width:1.0;" width="6" x="244.5" y="130.0156"/><text fill="#000000" font-family="sans-serif" font-size="11" lengthAdjust="spacing" textLength="18" x="256.5" y="137.4346">soc</text><!--MD5=[03960189e81aa2c066c762ffabbee709]
class Receptionist--><rect codeLine="14" fill="#FEFECE" filter="url(#f1pxlmfukzv6i0)" height="40" id="Receptionist" style="stroke:#A80036;stroke-width:1.5;" width="101" x="7" y="142.5"/><ellipse cx="22" cy="158.5" fill="#ADD1B2" rx="11" ry="11" style="stroke:#A80036;stroke-width:1.0;"/><path d="M24,155 Q24.2031,154.5 24.4375,154.25 Q24.6719,154 24.9375,154 Q25.4063,154 25.7031,154.2813 Q26,154.5625 26,155.2188 L26,156.7813 Q26,157.4375 25.7188,157.7188 Q25.4375,158 25,158 Q24.6094,158 24.3594,157.8281 Q24.1094,157.6563 24,157.2031 Q23.9531,156.8906 23.7813,156.7188 Q23.4688,156.3906 22.9063,156.2031 Q22.3438,156 21.7813,156 Q21.0781,156 20.4844,156.2813 Q19.9063,156.5625 19.4531,157.1875 Q19,157.8125 19,158.6719 L19,159.5938 Q19,160.625 19.8438,161.3125 Q20.6875,162 22.1875,162 Q23.0781,162 23.7031,161.7969 Q24.0625,161.6875 24.4688,161.3281 Q24.7344,161.125 24.875,161.0625 Q25.0156,161 25.1875,161 Q25.5156,161 25.75,161.2656 Q26,161.5156 26,161.875 Q26,162.2188 25.6563,162.625 Q25.1563,163.2188 24.3594,163.5469 Q23.3125,164 22.0313,164 Q20.5313,164 19.3281,163.4063 Q18.3594,162.9375 17.6719,161.9219 Q17,160.9063 17,159.7031 L17,158.6094 Q17,157.3594 17.5938,156.2656 Q18.2031,155.1719 19.25,154.5938 Q20.3125,154 21.5,154 Q22.2188,154 22.8438,154.25 Q23.4688,154.5 24,155 Z " fill="#000000"/><text fill="#000000" font-family="sans-serif" font-size="12" lengthAdjust="spacing" textLength="69" x="36" y="163.4102">Receptionist</text><line style="stroke:#A80036;stroke-width:1.5;" x1="8" x2="107" y1="174.5" y2="174.5"/><!--MD5=[ed6624c6556d5e7b1bd23032162d20b7]
class Client--><rect codeLine="18" fill="#FEFECE" filter="url(#f1pxlmfukzv6i0)" height="136.8516" id="Client" style="stroke:#A80036;stroke-width:1.5;" width="114" x="226" y="179"/><ellipse cx="263.5" cy="195" fill="#ADD1B2" rx="11" ry="11" style="stroke:#A80036;stroke-width:1.0;"/><path d="M265.5,191.5 Q265.7031,191 265.9375,190.75 Q266.1719,190.5 266.4375,190.5 Q266.9063,190.5 267.2031,190.7813 Q267.5,191.0625 267.5,191.7188 L267.5,193.2813 Q267.5,193.9375 267.2188,194.2188 Q266.9375,194.5 266.5,194.5 Q266.1094,194.5 265.8594,194.3281 Q265.6094,194.1563 265.5,193.7031 Q265.4531,193.3906 265.2813,193.2188 Q264.9688,192.8906 264.4063,192.7031 Q263.8438,192.5 263.2813,192.5 Q262.5781,192.5 261.9844,192.7813 Q261.4063,193.0625 260.9531,193.6875 Q260.5,194.3125 260.5,195.1719 L260.5,196.0938 Q260.5,197.125 261.3438,197.8125 Q262.1875,198.5 263.6875,198.5 Q264.5781,198.5 265.2031,198.2969 Q265.5625,198.1875 265.9688,197.8281 Q266.2344,197.625 266.375,197.5625 Q266.5156,197.5 266.6875,197.5 Q267.0156,197.5 267.25,197.7656 Q267.5,198.0156 267.5,198.375 Q267.5,198.7188 267.1563,199.125 Q266.6563,199.7188 265.8594,200.0469 Q264.8125,200.5 263.5313,200.5 Q262.0313,200.5 260.8281,199.9063 Q259.8594,199.4375 259.1719,198.4219 Q258.5,197.4063 258.5,196.2031 L258.5,195.1094 Q258.5,193.8594 259.0938,192.7656 Q259.7031,191.6719 260.75,191.0938 Q261.8125,190.5 263,190.5 Q263.7188,190.5 264.3438,190.75 Q264.9688,191 265.5,191.5 Z " fill="#000000"/><text fill="#000000" font-family="sans-serif" font-size="12" lengthAdjust="spacing" textLength="32" x="282.5" y="199.9102">Client</text><line style="stroke:#A80036;stroke-width:1.5;" x1="227" x2="339" y1="211" y2="211"/><rect fill="none" height="6" style="stroke:#C82930;stroke-width:1.0;" width="6" x="234" y="219"/><text fill="#000000" font-family="sans-serif" font-size="11" lengthAdjust="spacing" textLength="68" x="246" y="226.4189">citizenNumber</text><rect fill="none" height="6" style="stroke:#C82930;stroke-width:1.0;" width="6" x="234" y="232.8359"/><text fill="#000000" font-family="sans-serif" font-size="11" lengthAdjust="spacing" textLength="88" x="246" y="240.2549">healthcareNumber</text><rect fill="none" height="6" style="stroke:#C82930;stroke-width:1.0;" width="6" x="234" y="246.6719"/><text fill="#000000" font-family="sans-serif" font-size="11" lengthAdjust="spacing" textLength="43" x="246" y="254.0908">birthDate</text><rect fill="none" height="6" style="stroke:#C82930;stroke-width:1.0;" width="6" x="234" y="260.5078"/><text fill="#000000" font-family="sans-serif" font-size="11" lengthAdjust="spacing" textLength="11" x="246" y="267.9268">tin</text><rect fill="none" height="6" style="stroke:#C82930;stroke-width:1.0;" width="6" x="234" y="274.3438"/><text fill="#000000" font-family="sans-serif" font-size="11" lengthAdjust="spacing" textLength="26" x="246" y="281.7627">name</text><rect fill="none" height="6" style="stroke:#C82930;stroke-width:1.0;" width="6" x="234" y="288.1797"/><text fill="#000000" font-family="sans-serif" font-size="11" lengthAdjust="spacing" textLength="67" x="246" y="295.5986">phoneNumber</text><rect fill="none" height="6" style="stroke:#C82930;stroke-width:1.0;" width="6" x="234" y="302.0156"/><text fill="#000000" font-family="sans-serif" font-size="11" lengthAdjust="spacing" textLength="18" x="246" y="309.4346">sex</text><!--MD5=[99b8db98afdc2c8404e39242ef4c1e65]
class Platform--><rect codeLine="28" fill="#FEFECE" filter="url(#f1pxlmfukzv6i0)" height="40" id="Platform" style="stroke:#A80036;stroke-width:1.5;" width="78" x="443" y="141.5"/><ellipse cx="458" cy="157.5" fill="#ADD1B2" rx="11" ry="11" style="stroke:#A80036;stroke-width:1.0;"/><path d="M460,154 Q460.2031,153.5 460.4375,153.25 Q460.6719,153 460.9375,153 Q461.4063,153 461.7031,153.2813 Q462,153.5625 462,154.2188 L462,155.7813 Q462,156.4375 461.7188,156.7188 Q461.4375,157 461,157 Q460.6094,157 460.3594,156.8281 Q460.1094,156.6563 460,156.2031 Q459.9531,155.8906 459.7813,155.7188 Q459.4688,155.3906 458.9063,155.2031 Q458.3438,155 457.7813,155 Q457.0781,155 456.4844,155.2813 Q455.9063,155.5625 455.4531,156.1875 Q455,156.8125 455,157.6719 L455,158.5938 Q455,159.625 455.8438,160.3125 Q456.6875,161 458.1875,161 Q459.0781,161 459.7031,160.7969 Q460.0625,160.6875 460.4688,160.3281 Q460.7344,160.125 460.875,160.0625 Q461.0156,160 461.1875,160 Q461.5156,160 461.75,160.2656 Q462,160.5156 462,160.875 Q462,161.2188 461.6563,161.625 Q461.1563,162.2188 460.3594,162.5469 Q459.3125,163 458.0313,163 Q456.5313,163 455.3281,162.4063 Q454.3594,161.9375 453.6719,160.9219 Q453,159.9063 453,158.7031 L453,157.6094 Q453,156.3594 453.5938,155.2656 Q454.2031,154.1719 455.25,153.5938 Q456.3125,153 457.5,153 Q458.2188,153 458.8438,153.25 Q459.4688,153.5 460,154 Z " fill="#000000"/><text fill="#000000" font-family="sans-serif" font-size="12" lengthAdjust="spacing" textLength="46" x="472" y="162.4102">Platform</text><line style="stroke:#A80036;stroke-width:1.5;" x1="444" x2="520" y1="173.5" y2="173.5"/><!--MD5=[8ae8d279c4c1d977281d48b622093775]
link Client to Platform--><path codeLine="33" d="M340.19,222.97 C373.06,208.62 413.68,190.89 442.84,178.16 " fill="none" id="Client-Platform" style="stroke:#A80036;stroke-width:1.0;"/><polygon fill="#000000" points="379.5824,180.6754,370.117,181.6006,372.4685,186.9876,379.5824,180.6754" style="stroke:#000000;stroke-width:1.0;"/><text fill="#000000" font-family="sans-serif" font-size="13" lengthAdjust="spacing" textLength="28" x="384" y="187.9951">uses</text><text fill="#000000" font-family="sans-serif" font-size="13" lengthAdjust="spacing" textLength="5" x="347.8378" y="234.3792">*</text><text fill="#000000" font-family="sans-serif" font-size="13" lengthAdjust="spacing" textLength="7" x="427.9746" y="196.2342">1</text><!--MD5=[06bb7d2a85a007b79d10922b2d5e4cdd]
link Receptionist to Employee--><path codeLine="34" d="M108.1,143.19 C146.43,128.27 199.05,107.79 236.34,93.27 " fill="none" id="Receptionist-Employee" style="stroke:#A80036;stroke-width:1.0;"/><polygon fill="#000000" points="164.1594,100.862,154.6643,101.4044,156.7966,106.8819,164.1594,100.862" style="stroke:#000000;stroke-width:1.0;"/><text fill="#000000" font-family="sans-serif" font-size="13" lengthAdjust="spacing" textLength="10" x="168.5" y="107.9951">is</text><text fill="#000000" font-family="sans-serif" font-size="13" lengthAdjust="spacing" textLength="7" x="116.0459" y="155.0498">1</text><text fill="#000000" font-family="sans-serif" font-size="13" lengthAdjust="spacing" textLength="7" x="221.3458" y="110.9121">1</text><!--MD5=[b482d663aae385f5ae82dde2f71259c6]
link Employee to Platform--><path codeLine="35" d="M329.69,95.45 C364.02,110.43 410.49,130.72 442.84,144.84 " fill="none" id="Employee-Platform" style="stroke:#A80036;stroke-width:1.0;"/><polygon fill="#000000" points="379.5825,106.676,372.4684,100.364,370.117,105.7511,379.5825,106.676" style="stroke:#000000;stroke-width:1.0;"/><text fill="#000000" font-family="sans-serif" font-size="13" lengthAdjust="spacing" textLength="28" x="384" y="109.9951">uses</text><text fill="#000000" font-family="sans-serif" font-size="13" lengthAdjust="spacing" textLength="5" x="337.5297" y="113.4395">*</text><text fill="#000000" font-family="sans-serif" font-size="13" lengthAdjust="spacing" textLength="7" x="427.9746" y="156.7708">1</text><!--MD5=[6a35157f4c730bda767e7c9f1b8b7f73]
link Receptionist to Client--><path codeLine="36" d="M108.1,181.36 C142.95,194.62 189.63,212.37 225.85,226.15 " fill="none" id="Receptionist-Client" style="stroke:#A80036;stroke-width:1.0;"/><polygon fill="#000000" points="147.6733,187.4534,140.2641,181.4907,138.1743,186.9845,147.6733,187.4534" style="stroke:#000000;stroke-width:1.0;"/><text fill="#000000" font-family="sans-serif" font-size="13" lengthAdjust="spacing" textLength="43" x="152" y="190.9951">register</text><text fill="#000000" font-family="sans-serif" font-size="13" lengthAdjust="spacing" textLength="7" x="116.0459" y="198.826">1</text><text fill="#000000" font-family="sans-serif" font-size="13" lengthAdjust="spacing" textLength="5" x="212.8345" y="237.8848">*</text><!--MD5=[f534454e808bbb16b91a62d7b20a28c3]
@startuml
hide methods
left to right direction

class Employee{
    -idEmployee
    -name
    -function
    -phoneNumber
    -email
    -address
    -soc
}

class Receptionist {

}

class Client {
    -citizenNumber
    -healthcareNumber
    -birthDate
    -tin
    -name
    -phoneNumber
    -sex
}

class Platform{

}


Client "*" - - "1" Platform : uses >
Receptionist "1" - - "1" Employee : is >
Employee "*" - - "1" Platform : uses >
Receptionist "1" - - "*" Client : register >

@enduml

PlantUML version 1.2021.5(Sun Apr 25 12:20:28 BST 2021)
(GPL source distribution)
Java Runtime: OpenJDK Runtime Environment
JVM: Dynamic Code Evolution 64-Bit Server VM
Default Encoding: Cp1252
Language: pt
Country: PT
--></g></svg>