<?xml version="1.0" encoding="UTF-8" standalone="no"?><svg xmlns="http://www.w3.org/2000/svg" xmlns:xlink="http://www.w3.org/1999/xlink" contentScriptType="application/ecmascript" contentStyleType="text/css" height="938px" preserveAspectRatio="none" style="width:1447px;height:938px;" version="1.1" viewBox="0 0 1447 938" width="1447px" zoomAndPan="magnify"><defs><filter height="300%" id="f1mwqvez4bi9hu" width="300%" x="-1" y="-1"><feGaussianBlur result="blurOut" stdDeviation="2.0"/><feColorMatrix in="blurOut" result="blurOut2" type="matrix" values="0 0 0 0 0 0 0 0 0 0 0 0 0 0 0 0 0 0 .4 0"/><feOffset dx="4.0" dy="4.0" in="blurOut2" result="blurOut3"/><feBlend in="SourceGraphic" in2="blurOut3" mode="normal"/></filter></defs><g><!--MD5=[b96506410a7781ec86e17a2580887d1e]
class ClientCreatorUI--><rect codeLine="2" fill="#FEFECE" filter="url(#f1mwqvez4bi9hu)" height="48" id="ClientCreatorUI" style="stroke:#A80036;stroke-width:1.5;" width="117" x="116.5" y="7"/><ellipse cx="131.5" cy="23" fill="#ADD1B2" rx="11" ry="11" style="stroke:#A80036;stroke-width:1.0;"/><path d="M133.5,19.5 Q133.7031,19 133.9375,18.75 Q134.1719,18.5 134.4375,18.5 Q134.9063,18.5 135.2031,18.7813 Q135.5,19.0625 135.5,19.7188 L135.5,21.2813 Q135.5,21.9375 135.2188,22.2188 Q134.9375,22.5 134.5,22.5 Q134.1094,22.5 133.8594,22.3281 Q133.6094,22.1563 133.5,21.7031 Q133.4531,21.3906 133.2813,21.2188 Q132.9688,20.8906 132.4063,20.7031 Q131.8438,20.5 131.2813,20.5 Q130.5781,20.5 129.9844,20.7813 Q129.4063,21.0625 128.9531,21.6875 Q128.5,22.3125 128.5,23.1719 L128.5,24.0938 Q128.5,25.125 129.3438,25.8125 Q130.1875,26.5 131.6875,26.5 Q132.5781,26.5 133.2031,26.2969 Q133.5625,26.1875 133.9688,25.8281 Q134.2344,25.625 134.375,25.5625 Q134.5156,25.5 134.6875,25.5 Q135.0156,25.5 135.25,25.7656 Q135.5,26.0156 135.5,26.375 Q135.5,26.7188 135.1563,27.125 Q134.6563,27.7188 133.8594,28.0469 Q132.8125,28.5 131.5313,28.5 Q130.0313,28.5 128.8281,27.9063 Q127.8594,27.4375 127.1719,26.4219 Q126.5,25.4063 126.5,24.2031 L126.5,23.1094 Q126.5,21.8594 127.0938,20.7656 Q127.7031,19.6719 128.75,19.0938 Q129.8125,18.5 131,18.5 Q131.7188,18.5 132.3438,18.75 Q132.9688,19 133.5,19.5 Z " fill="#000000"/><text fill="#000000" font-family="sans-serif" font-size="12" lengthAdjust="spacing" textLength="85" x="145.5" y="27.9102">ClientCreatorUI</text><line style="stroke:#A80036;stroke-width:1.5;" x1="117.5" x2="232.5" y1="39" y2="39"/><line style="stroke:#A80036;stroke-width:1.5;" x1="117.5" x2="232.5" y1="47" y2="47"/><!--MD5=[bb892620106b215da6b5422eaab7a264]
class ClientCreatorController--><rect codeLine="6" fill="#FEFECE" filter="url(#f1mwqvez4bi9hu)" height="103.3438" id="ClientCreatorController" style="stroke:#A80036;stroke-width:1.5;" width="448" x="299" y="116"/><ellipse cx="455.25" cy="132" fill="#ADD1B2" rx="11" ry="11" style="stroke:#A80036;stroke-width:1.0;"/><path d="M457.25,128.5 Q457.4531,128 457.6875,127.75 Q457.9219,127.5 458.1875,127.5 Q458.6563,127.5 458.9531,127.7813 Q459.25,128.0625 459.25,128.7188 L459.25,130.2813 Q459.25,130.9375 458.9688,131.2188 Q458.6875,131.5 458.25,131.5 Q457.8594,131.5 457.6094,131.3281 Q457.3594,131.1563 457.25,130.7031 Q457.2031,130.3906 457.0313,130.2188 Q456.7188,129.8906 456.1563,129.7031 Q455.5938,129.5 455.0313,129.5 Q454.3281,129.5 453.7344,129.7813 Q453.1563,130.0625 452.7031,130.6875 Q452.25,131.3125 452.25,132.1719 L452.25,133.0938 Q452.25,134.125 453.0938,134.8125 Q453.9375,135.5 455.4375,135.5 Q456.3281,135.5 456.9531,135.2969 Q457.3125,135.1875 457.7188,134.8281 Q457.9844,134.625 458.125,134.5625 Q458.2656,134.5 458.4375,134.5 Q458.7656,134.5 459,134.7656 Q459.25,135.0156 459.25,135.375 Q459.25,135.7188 458.9063,136.125 Q458.4063,136.7188 457.6094,137.0469 Q456.5625,137.5 455.2813,137.5 Q453.7813,137.5 452.5781,136.9063 Q451.6094,136.4375 450.9219,135.4219 Q450.25,134.4063 450.25,133.2031 L450.25,132.1094 Q450.25,130.8594 450.8438,129.7656 Q451.4531,128.6719 452.5,128.0938 Q453.5625,127.5 454.75,127.5 Q455.4688,127.5 456.0938,127.75 Q456.7188,128 457.25,128.5 Z " fill="#000000"/><text fill="#000000" font-family="sans-serif" font-size="12" lengthAdjust="spacing" textLength="127" x="475.75" y="136.9102">ClientCreatorController</text><line style="stroke:#A80036;stroke-width:1.5;" x1="300" x2="746" y1="148" y2="148"/><line style="stroke:#A80036;stroke-width:1.0;" x1="300" x2="746" y1="156" y2="156"/><ellipse cx="310" cy="167" fill="#84BE84" rx="3" ry="3" style="stroke:#038048;stroke-width:1.0;"/><text fill="#000000" font-family="sans-serif" font-size="11" lengthAdjust="spacing" textLength="422" x="319" y="171.4189">createClient(citizenNumber, healthcareNumber, birthDate, tin, name, phoneNumber, sex)</text><ellipse cx="310" cy="180.8359" fill="#84BE84" rx="3" ry="3" style="stroke:#038048;stroke-width:1.0;"/><text fill="#000000" font-family="sans-serif" font-size="11" lengthAdjust="spacing" textLength="58" x="319" y="185.2549">saveClient()</text><ellipse cx="310" cy="194.6719" fill="#84BE84" rx="3" ry="3" style="stroke:#038048;stroke-width:1.0;"/><text fill="#000000" font-family="sans-serif" font-size="11" lengthAdjust="spacing" textLength="156" x="319" y="199.0908">sendNotification(type, message)</text><ellipse cx="310" cy="208.5078" fill="#84BE84" rx="3" ry="3" style="stroke:#038048;stroke-width:1.0;"/><text fill="#000000" font-family="sans-serif" font-size="11" lengthAdjust="spacing" textLength="73" x="319" y="212.9268">addUser(email)</text><!--MD5=[8ae808d068a8995f06b9b3ec51357f0b]
class AuthFacade--><rect codeLine="14" fill="#FEFECE" filter="url(#f1mwqvez4bi9hu)" height="75.6719" id="AuthFacade" style="stroke:#A80036;stroke-width:1.5;" width="187" x="1222.5" y="293.5"/><ellipse cx="1279.25" cy="309.5" fill="#ADD1B2" rx="11" ry="11" style="stroke:#A80036;stroke-width:1.0;"/><path d="M1281.25,306 Q1281.4531,305.5 1281.6875,305.25 Q1281.9219,305 1282.1875,305 Q1282.6563,305 1282.9531,305.2813 Q1283.25,305.5625 1283.25,306.2188 L1283.25,307.7813 Q1283.25,308.4375 1282.9688,308.7188 Q1282.6875,309 1282.25,309 Q1281.8594,309 1281.6094,308.8281 Q1281.3594,308.6563 1281.25,308.2031 Q1281.2031,307.8906 1281.0313,307.7188 Q1280.7188,307.3906 1280.1563,307.2031 Q1279.5938,307 1279.0313,307 Q1278.3281,307 1277.7344,307.2813 Q1277.1563,307.5625 1276.7031,308.1875 Q1276.25,308.8125 1276.25,309.6719 L1276.25,310.5938 Q1276.25,311.625 1277.0938,312.3125 Q1277.9375,313 1279.4375,313 Q1280.3281,313 1280.9531,312.7969 Q1281.3125,312.6875 1281.7188,312.3281 Q1281.9844,312.125 1282.125,312.0625 Q1282.2656,312 1282.4375,312 Q1282.7656,312 1283,312.2656 Q1283.25,312.5156 1283.25,312.875 Q1283.25,313.2188 1282.9063,313.625 Q1282.4063,314.2188 1281.6094,314.5469 Q1280.5625,315 1279.2813,315 Q1277.7813,315 1276.5781,314.4063 Q1275.6094,313.9375 1274.9219,312.9219 Q1274.25,311.9063 1274.25,310.7031 L1274.25,309.6094 Q1274.25,308.3594 1274.8438,307.2656 Q1275.4531,306.1719 1276.5,305.5938 Q1277.5625,305 1278.75,305 Q1279.4688,305 1280.0938,305.25 Q1280.7188,305.5 1281.25,306 Z " fill="#000000"/><text fill="#000000" font-family="sans-serif" font-size="12" lengthAdjust="spacing" textLength="65" x="1299.75" y="314.4102">AuthFacade</text><line style="stroke:#A80036;stroke-width:1.5;" x1="1223.5" x2="1408.5" y1="325.5" y2="325.5"/><line style="stroke:#A80036;stroke-width:1.0;" x1="1223.5" x2="1408.5" y1="333.5" y2="333.5"/><ellipse cx="1233.5" cy="344.5" fill="#84BE84" rx="3" ry="3" style="stroke:#038048;stroke-width:1.0;"/><text fill="#000000" font-family="sans-serif" font-size="11" lengthAdjust="spacing" textLength="78" x="1242.5" y="348.9189">existUser(email)</text><ellipse cx="1233.5" cy="358.3359" fill="#84BE84" rx="3" ry="3" style="stroke:#038048;stroke-width:1.0;"/><text fill="#000000" font-family="sans-serif" font-size="11" lengthAdjust="spacing" textLength="161" x="1242.5" y="362.7549">addUser(name, email, password)</text><!--MD5=[51343ca5669a2e9191476a98c5902261]
class ClientsStore--><rect codeLine="20" fill="#FEFECE" filter="url(#f1mwqvez4bi9hu)" height="75.6719" id="ClientsStore" style="stroke:#A80036;stroke-width:1.5;" width="103" x="854.5" y="849"/><ellipse cx="870.85" cy="865" fill="#ADD1B2" rx="11" ry="11" style="stroke:#A80036;stroke-width:1.0;"/><path d="M872.85,861.5 Q873.0531,861 873.2875,860.75 Q873.5219,860.5 873.7875,860.5 Q874.2563,860.5 874.5531,860.7813 Q874.85,861.0625 874.85,861.7188 L874.85,863.2813 Q874.85,863.9375 874.5688,864.2188 Q874.2875,864.5 873.85,864.5 Q873.4594,864.5 873.2094,864.3281 Q872.9594,864.1563 872.85,863.7031 Q872.8031,863.3906 872.6313,863.2188 Q872.3188,862.8906 871.7563,862.7031 Q871.1938,862.5 870.6313,862.5 Q869.9281,862.5 869.3344,862.7813 Q868.7563,863.0625 868.3031,863.6875 Q867.85,864.3125 867.85,865.1719 L867.85,866.0938 Q867.85,867.125 868.6938,867.8125 Q869.5375,868.5 871.0375,868.5 Q871.9281,868.5 872.5531,868.2969 Q872.9125,868.1875 873.3188,867.8281 Q873.5844,867.625 873.725,867.5625 Q873.8656,867.5 874.0375,867.5 Q874.3656,867.5 874.6,867.7656 Q874.85,868.0156 874.85,868.375 Q874.85,868.7188 874.5063,869.125 Q874.0063,869.7188 873.2094,870.0469 Q872.1625,870.5 870.8813,870.5 Q869.3813,870.5 868.1781,869.9063 Q867.2094,869.4375 866.5219,868.4219 Q865.85,867.4063 865.85,866.2031 L865.85,865.1094 Q865.85,863.8594 866.4438,862.7656 Q867.0531,861.6719 868.1,861.0938 Q869.1625,860.5 870.35,860.5 Q871.0688,860.5 871.6938,860.75 Q872.3188,861 872.85,861.5 Z " fill="#000000"/><text fill="#000000" font-family="sans-serif" font-size="12" lengthAdjust="spacing" textLength="68" x="885.15" y="869.9102">ClientsStore</text><line style="stroke:#A80036;stroke-width:1.5;" x1="855.5" x2="956.5" y1="881" y2="881"/><line style="stroke:#A80036;stroke-width:1.0;" x1="855.5" x2="956.5" y1="889" y2="889"/><ellipse cx="865.5" cy="900" fill="#84BE84" rx="3" ry="3" style="stroke:#038048;stroke-width:1.0;"/><text fill="#000000" font-family="sans-serif" font-size="11" lengthAdjust="spacing" textLength="55" x="874.5" y="904.4189">getClients()</text><ellipse cx="865.5" cy="913.8359" fill="#84BE84" rx="3" ry="3" style="stroke:#038048;stroke-width:1.0;"/><text fill="#000000" font-family="sans-serif" font-size="11" lengthAdjust="spacing" textLength="77" x="874.5" y="918.2549">addClient(client)</text><!--MD5=[d92da6d3e9b1e9631354e1a6db35e891]
class ClientDTO--><rect codeLine="26" fill="#FEFECE" filter="url(#f1mwqvez4bi9hu)" height="158.6875" id="ClientDTO" style="stroke:#A80036;stroke-width:1.5;" width="438" x="7" y="461"/><ellipse cx="193.25" cy="477" fill="#ADD1B2" rx="11" ry="11" style="stroke:#A80036;stroke-width:1.0;"/><path d="M195.25,473.5 Q195.4531,473 195.6875,472.75 Q195.9219,472.5 196.1875,472.5 Q196.6563,472.5 196.9531,472.7813 Q197.25,473.0625 197.25,473.7188 L197.25,475.2813 Q197.25,475.9375 196.9688,476.2188 Q196.6875,476.5 196.25,476.5 Q195.8594,476.5 195.6094,476.3281 Q195.3594,476.1563 195.25,475.7031 Q195.2031,475.3906 195.0313,475.2188 Q194.7188,474.8906 194.1563,474.7031 Q193.5938,474.5 193.0313,474.5 Q192.3281,474.5 191.7344,474.7813 Q191.1563,475.0625 190.7031,475.6875 Q190.25,476.3125 190.25,477.1719 L190.25,478.0938 Q190.25,479.125 191.0938,479.8125 Q191.9375,480.5 193.4375,480.5 Q194.3281,480.5 194.9531,480.2969 Q195.3125,480.1875 195.7188,479.8281 Q195.9844,479.625 196.125,479.5625 Q196.2656,479.5 196.4375,479.5 Q196.7656,479.5 197,479.7656 Q197.25,480.0156 197.25,480.375 Q197.25,480.7188 196.9063,481.125 Q196.4063,481.7188 195.6094,482.0469 Q194.5625,482.5 193.2813,482.5 Q191.7813,482.5 190.5781,481.9063 Q189.6094,481.4375 188.9219,480.4219 Q188.25,479.4063 188.25,478.2031 L188.25,477.1094 Q188.25,475.8594 188.8438,474.7656 Q189.4531,473.6719 190.5,473.0938 Q191.5625,472.5 192.75,472.5 Q193.4688,472.5 194.0938,472.75 Q194.7188,473 195.25,473.5 Z " fill="#000000"/><text fill="#000000" font-family="sans-serif" font-size="12" lengthAdjust="spacing" textLength="57" x="213.75" y="481.9102">ClientDTO</text><line style="stroke:#A80036;stroke-width:1.5;" x1="8" x2="444" y1="493" y2="493"/><rect fill="none" height="6" style="stroke:#C82930;stroke-width:1.0;" width="6" x="15" y="501"/><text fill="#000000" font-family="sans-serif" font-size="11" lengthAdjust="spacing" textLength="99" x="27" y="508.4189">String citizenNumber</text><rect fill="none" height="6" style="stroke:#C82930;stroke-width:1.0;" width="6" x="15" y="514.8359"/><text fill="#000000" font-family="sans-serif" font-size="11" lengthAdjust="spacing" textLength="119" x="27" y="522.2549">String healthcareNumber</text><rect fill="none" height="6" style="stroke:#C82930;stroke-width:1.0;" width="6" x="15" y="528.6719"/><text fill="#000000" font-family="sans-serif" font-size="11" lengthAdjust="spacing" textLength="74" x="27" y="536.0908">String birthDate</text><rect fill="none" height="6" style="stroke:#C82930;stroke-width:1.0;" width="6" x="15" y="542.5078"/><text fill="#000000" font-family="sans-serif" font-size="11" lengthAdjust="spacing" textLength="42" x="27" y="549.9268">String tin</text><rect fill="none" height="6" style="stroke:#C82930;stroke-width:1.0;" width="6" x="15" y="556.3438"/><text fill="#000000" font-family="sans-serif" font-size="11" lengthAdjust="spacing" textLength="57" x="27" y="563.7627">String name</text><rect fill="none" height="6" style="stroke:#C82930;stroke-width:1.0;" width="6" x="15" y="570.1797"/><text fill="#000000" font-family="sans-serif" font-size="11" lengthAdjust="spacing" textLength="98" x="27" y="577.5986">String phoneNumber</text><rect fill="none" height="6" style="stroke:#C82930;stroke-width:1.0;" width="6" x="15" y="584.0156"/><text fill="#000000" font-family="sans-serif" font-size="11" lengthAdjust="spacing" textLength="49" x="27" y="591.4346">String sex</text><line style="stroke:#A80036;stroke-width:1.0;" x1="8" x2="444" y1="597.8516" y2="597.8516"/><ellipse cx="18" cy="608.8516" fill="#84BE84" rx="3" ry="3" style="stroke:#038048;stroke-width:1.0;"/><text fill="#000000" font-family="sans-serif" font-size="11" lengthAdjust="spacing" textLength="412" x="27" y="613.2705">ClientDTO(citizenNumber, healthcareNumber, birthDate, tin, name, phoneNumber, sex)</text><!--MD5=[d9af5e34e5bc78cd5a2caff02363fedd]
class ClientMapper--><rect codeLine="38" fill="#FEFECE" filter="url(#f1mwqvez4bi9hu)" height="75.6719" id="ClientMapper" style="stroke:#A80036;stroke-width:1.5;" width="208" x="279" y="293.5"/><ellipse cx="342.25" cy="309.5" fill="#ADD1B2" rx="11" ry="11" style="stroke:#A80036;stroke-width:1.0;"/><path d="M344.25,306 Q344.4531,305.5 344.6875,305.25 Q344.9219,305 345.1875,305 Q345.6563,305 345.9531,305.2813 Q346.25,305.5625 346.25,306.2188 L346.25,307.7813 Q346.25,308.4375 345.9688,308.7188 Q345.6875,309 345.25,309 Q344.8594,309 344.6094,308.8281 Q344.3594,308.6563 344.25,308.2031 Q344.2031,307.8906 344.0313,307.7188 Q343.7188,307.3906 343.1563,307.2031 Q342.5938,307 342.0313,307 Q341.3281,307 340.7344,307.2813 Q340.1563,307.5625 339.7031,308.1875 Q339.25,308.8125 339.25,309.6719 L339.25,310.5938 Q339.25,311.625 340.0938,312.3125 Q340.9375,313 342.4375,313 Q343.3281,313 343.9531,312.7969 Q344.3125,312.6875 344.7188,312.3281 Q344.9844,312.125 345.125,312.0625 Q345.2656,312 345.4375,312 Q345.7656,312 346,312.2656 Q346.25,312.5156 346.25,312.875 Q346.25,313.2188 345.9063,313.625 Q345.4063,314.2188 344.6094,314.5469 Q343.5625,315 342.2813,315 Q340.7813,315 339.5781,314.4063 Q338.6094,313.9375 337.9219,312.9219 Q337.25,311.9063 337.25,310.7031 L337.25,309.6094 Q337.25,308.3594 337.8438,307.2656 Q338.4531,306.1719 339.5,305.5938 Q340.5625,305 341.75,305 Q342.4688,305 343.0938,305.25 Q343.7188,305.5 344.25,306 Z " fill="#000000"/><text fill="#000000" font-family="sans-serif" font-size="12" lengthAdjust="spacing" textLength="73" x="362.75" y="314.4102">ClientMapper</text><line style="stroke:#A80036;stroke-width:1.5;" x1="280" x2="486" y1="325.5" y2="325.5"/><line style="stroke:#A80036;stroke-width:1.5;" x1="280" x2="486" y1="333.5" y2="333.5"/><ellipse cx="290" cy="344.5" fill="#84BE84" rx="3" ry="3" style="stroke:#038048;stroke-width:1.0;"/><text fill="#000000" font-family="sans-serif" font-size="11" lengthAdjust="spacing" textLength="182" x="299" y="348.9189">List&lt;ClientDTO&gt;toDTO(List&lt;Client&gt;list)</text><ellipse cx="290" cy="358.3359" fill="#84BE84" rx="3" ry="3" style="stroke:#038048;stroke-width:1.0;"/><text fill="#000000" font-family="sans-serif" font-size="11" lengthAdjust="spacing" textLength="131" x="299" y="362.7549">ClientDTO toDTO(Client obj)</text><!--MD5=[4f2474601534d614e5ae09ac9b051bd4]
class ClientNotification--><rect codeLine="43" fill="#FEFECE" filter="url(#f1mwqvez4bi9hu)" height="61.8359" id="ClientNotification" style="stroke:#A80036;stroke-width:1.5;" width="182" x="522" y="300.5"/><ellipse cx="562.65" cy="316.5" fill="#ADD1B2" rx="11" ry="11" style="stroke:#A80036;stroke-width:1.0;"/><path d="M564.65,313 Q564.8531,312.5 565.0875,312.25 Q565.3219,312 565.5875,312 Q566.0563,312 566.3531,312.2813 Q566.65,312.5625 566.65,313.2188 L566.65,314.7813 Q566.65,315.4375 566.3688,315.7188 Q566.0875,316 565.65,316 Q565.2594,316 565.0094,315.8281 Q564.7594,315.6563 564.65,315.2031 Q564.6031,314.8906 564.4313,314.7188 Q564.1188,314.3906 563.5563,314.2031 Q562.9938,314 562.4313,314 Q561.7281,314 561.1344,314.2813 Q560.5563,314.5625 560.1031,315.1875 Q559.65,315.8125 559.65,316.6719 L559.65,317.5938 Q559.65,318.625 560.4938,319.3125 Q561.3375,320 562.8375,320 Q563.7281,320 564.3531,319.7969 Q564.7125,319.6875 565.1188,319.3281 Q565.3844,319.125 565.525,319.0625 Q565.6656,319 565.8375,319 Q566.1656,319 566.4,319.2656 Q566.65,319.5156 566.65,319.875 Q566.65,320.2188 566.3063,320.625 Q565.8063,321.2188 565.0094,321.5469 Q563.9625,322 562.6813,322 Q561.1813,322 559.9781,321.4063 Q559.0094,320.9375 558.3219,319.9219 Q557.65,318.9063 557.65,317.7031 L557.65,316.6094 Q557.65,315.3594 558.2438,314.2656 Q558.8531,313.1719 559.9,312.5938 Q560.9625,312 562.15,312 Q562.8688,312 563.4938,312.25 Q564.1188,312.5 564.65,313 Z " fill="#000000"/><text fill="#000000" font-family="sans-serif" font-size="12" lengthAdjust="spacing" textLength="93" x="582.35" y="321.4102">ClientNotification</text><line style="stroke:#A80036;stroke-width:1.5;" x1="523" x2="703" y1="332.5" y2="332.5"/><line style="stroke:#A80036;stroke-width:1.0;" x1="523" x2="703" y1="340.5" y2="340.5"/><ellipse cx="533" cy="351.5" fill="#84BE84" rx="3" ry="3" style="stroke:#038048;stroke-width:1.0;"/><text fill="#000000" font-family="sans-serif" font-size="11" lengthAdjust="spacing" textLength="156" x="542" y="355.9189">sendNotification(type, message)</text><!--MD5=[7421f545a0d8420c5bec41e74b387d9c]
class Employee--><rect codeLine="48" fill="#FEFECE" filter="url(#f1mwqvez4bi9hu)" height="144.8516" id="Employee" style="stroke:#A80036;stroke-width:1.5;" width="124" x="786" y="468"/><ellipse cx="817.65" cy="484" fill="#ADD1B2" rx="11" ry="11" style="stroke:#A80036;stroke-width:1.0;"/><path d="M819.65,480.5 Q819.8531,480 820.0875,479.75 Q820.3219,479.5 820.5875,479.5 Q821.0563,479.5 821.3531,479.7813 Q821.65,480.0625 821.65,480.7188 L821.65,482.2813 Q821.65,482.9375 821.3688,483.2188 Q821.0875,483.5 820.65,483.5 Q820.2594,483.5 820.0094,483.3281 Q819.7594,483.1563 819.65,482.7031 Q819.6031,482.3906 819.4313,482.2188 Q819.1188,481.8906 818.5563,481.7031 Q817.9938,481.5 817.4313,481.5 Q816.7281,481.5 816.1344,481.7813 Q815.5563,482.0625 815.1031,482.6875 Q814.65,483.3125 814.65,484.1719 L814.65,485.0938 Q814.65,486.125 815.4938,486.8125 Q816.3375,487.5 817.8375,487.5 Q818.7281,487.5 819.3531,487.2969 Q819.7125,487.1875 820.1188,486.8281 Q820.3844,486.625 820.525,486.5625 Q820.6656,486.5 820.8375,486.5 Q821.1656,486.5 821.4,486.7656 Q821.65,487.0156 821.65,487.375 Q821.65,487.7188 821.3063,488.125 Q820.8063,488.7188 820.0094,489.0469 Q818.9625,489.5 817.6813,489.5 Q816.1813,489.5 814.9781,488.9063 Q814.0094,488.4375 813.3219,487.4219 Q812.65,486.4063 812.65,485.2031 L812.65,484.1094 Q812.65,482.8594 813.2438,481.7656 Q813.8531,480.6719 814.9,480.0938 Q815.9625,479.5 817.15,479.5 Q817.8688,479.5 818.4938,479.75 Q819.1188,480 819.65,480.5 Z " fill="#000000"/><text fill="#000000" font-family="sans-serif" font-size="12" lengthAdjust="spacing" textLength="55" x="835.35" y="488.9102">Employee</text><line style="stroke:#A80036;stroke-width:1.5;" x1="787" x2="909" y1="500" y2="500"/><rect fill="none" height="6" style="stroke:#C82930;stroke-width:1.0;" width="6" x="794" y="508"/><text fill="#000000" font-family="sans-serif" font-size="11" lengthAdjust="spacing" textLength="85" x="806" y="515.4189">String idEmployee</text><rect fill="none" height="6" style="stroke:#C82930;stroke-width:1.0;" width="6" x="794" y="521.8359"/><text fill="#000000" font-family="sans-serif" font-size="11" lengthAdjust="spacing" textLength="57" x="806" y="529.2549">String name</text><rect fill="none" height="6" style="stroke:#C82930;stroke-width:1.0;" width="6" x="794" y="535.6719"/><text fill="#000000" font-family="sans-serif" font-size="11" lengthAdjust="spacing" textLength="70" x="806" y="543.0908">String function</text><rect fill="none" height="6" style="stroke:#C82930;stroke-width:1.0;" width="6" x="794" y="549.5078"/><text fill="#000000" font-family="sans-serif" font-size="11" lengthAdjust="spacing" textLength="98" x="806" y="556.9268">String phoneNumber</text><rect fill="none" height="6" style="stroke:#C82930;stroke-width:1.0;" width="6" x="794" y="563.3438"/><text fill="#000000" font-family="sans-serif" font-size="11" lengthAdjust="spacing" textLength="55" x="806" y="570.7627">String email</text><rect fill="none" height="6" style="stroke:#C82930;stroke-width:1.0;" width="6" x="794" y="577.1797"/><text fill="#000000" font-family="sans-serif" font-size="11" lengthAdjust="spacing" textLength="71" x="806" y="584.5986">String address</text><rect fill="none" height="6" style="stroke:#C82930;stroke-width:1.0;" width="6" x="794" y="591.0156"/><text fill="#000000" font-family="sans-serif" font-size="11" lengthAdjust="spacing" textLength="49" x="806" y="598.4346">String soc</text><line style="stroke:#A80036;stroke-width:1.5;" x1="787" x2="909" y1="604.8516" y2="604.8516"/><!--MD5=[03960189e81aa2c066c762ffabbee709]
class Receptionist--><rect codeLine="58" fill="#FEFECE" filter="url(#f1mwqvez4bi9hu)" height="103.3438" id="Receptionist" style="stroke:#A80036;stroke-width:1.5;" width="448" x="739" y="280"/><ellipse cx="924.25" cy="296" fill="#ADD1B2" rx="11" ry="11" style="stroke:#A80036;stroke-width:1.0;"/><path d="M926.25,292.5 Q926.4531,292 926.6875,291.75 Q926.9219,291.5 927.1875,291.5 Q927.6563,291.5 927.9531,291.7813 Q928.25,292.0625 928.25,292.7188 L928.25,294.2813 Q928.25,294.9375 927.9688,295.2188 Q927.6875,295.5 927.25,295.5 Q926.8594,295.5 926.6094,295.3281 Q926.3594,295.1563 926.25,294.7031 Q926.2031,294.3906 926.0313,294.2188 Q925.7188,293.8906 925.1563,293.7031 Q924.5938,293.5 924.0313,293.5 Q923.3281,293.5 922.7344,293.7813 Q922.1563,294.0625 921.7031,294.6875 Q921.25,295.3125 921.25,296.1719 L921.25,297.0938 Q921.25,298.125 922.0938,298.8125 Q922.9375,299.5 924.4375,299.5 Q925.3281,299.5 925.9531,299.2969 Q926.3125,299.1875 926.7188,298.8281 Q926.9844,298.625 927.125,298.5625 Q927.2656,298.5 927.4375,298.5 Q927.7656,298.5 928,298.7656 Q928.25,299.0156 928.25,299.375 Q928.25,299.7188 927.9063,300.125 Q927.4063,300.7188 926.6094,301.0469 Q925.5625,301.5 924.2813,301.5 Q922.7813,301.5 921.5781,300.9063 Q920.6094,300.4375 919.9219,299.4219 Q919.25,298.4063 919.25,297.2031 L919.25,296.1094 Q919.25,294.8594 919.8438,293.7656 Q920.4531,292.6719 921.5,292.0938 Q922.5625,291.5 923.75,291.5 Q924.4688,291.5 925.0938,291.75 Q925.7188,292 926.25,292.5 Z " fill="#000000"/><text fill="#000000" font-family="sans-serif" font-size="12" lengthAdjust="spacing" textLength="69" x="944.75" y="300.9102">Receptionist</text><line style="stroke:#A80036;stroke-width:1.5;" x1="740" x2="1186" y1="312" y2="312"/><line style="stroke:#A80036;stroke-width:1.0;" x1="740" x2="1186" y1="320" y2="320"/><ellipse cx="750" cy="331" fill="#84BE84" rx="3" ry="3" style="stroke:#038048;stroke-width:1.0;"/><text fill="#000000" font-family="sans-serif" font-size="11" lengthAdjust="spacing" textLength="422" x="759" y="335.4189">createClient(citizenNumber, healthcareNumber, birthDate, tin, name, phoneNumber, sex)</text><ellipse cx="750" cy="344.8359" fill="#84BE84" rx="3" ry="3" style="stroke:#038048;stroke-width:1.0;"/><text fill="#000000" font-family="sans-serif" font-size="11" lengthAdjust="spacing" textLength="83" x="759" y="349.2549">saveClient(client)</text><rect fill="#F24D5C" height="6" style="stroke:#C82930;stroke-width:1.0;" width="6" x="747" y="355.6719"/><text fill="#000000" font-family="sans-serif" font-size="11" lengthAdjust="spacing" textLength="70" x="759" y="363.0908">validate(client)</text><rect fill="#F24D5C" height="6" style="stroke:#C82930;stroke-width:1.0;" width="6" x="747" y="369.5078"/><text fill="#000000" font-family="sans-serif" font-size="11" lengthAdjust="spacing" textLength="77" x="759" y="376.9268">addClient(client)</text><!--MD5=[ed6624c6556d5e7b1bd23032162d20b7]
class Client--><rect codeLine="66" fill="#FEFECE" filter="url(#f1mwqvez4bi9hu)" height="158.6875" id="Client" style="stroke:#A80036;stroke-width:1.5;" width="417" x="1016.5" y="461"/><ellipse cx="1204.75" cy="477" fill="#ADD1B2" rx="11" ry="11" style="stroke:#A80036;stroke-width:1.0;"/><path d="M1206.75,473.5 Q1206.9531,473 1207.1875,472.75 Q1207.4219,472.5 1207.6875,472.5 Q1208.1563,472.5 1208.4531,472.7813 Q1208.75,473.0625 1208.75,473.7188 L1208.75,475.2813 Q1208.75,475.9375 1208.4688,476.2188 Q1208.1875,476.5 1207.75,476.5 Q1207.3594,476.5 1207.1094,476.3281 Q1206.8594,476.1563 1206.75,475.7031 Q1206.7031,475.3906 1206.5313,475.2188 Q1206.2188,474.8906 1205.6563,474.7031 Q1205.0938,474.5 1204.5313,474.5 Q1203.8281,474.5 1203.2344,474.7813 Q1202.6563,475.0625 1202.2031,475.6875 Q1201.75,476.3125 1201.75,477.1719 L1201.75,478.0938 Q1201.75,479.125 1202.5938,479.8125 Q1203.4375,480.5 1204.9375,480.5 Q1205.8281,480.5 1206.4531,480.2969 Q1206.8125,480.1875 1207.2188,479.8281 Q1207.4844,479.625 1207.625,479.5625 Q1207.7656,479.5 1207.9375,479.5 Q1208.2656,479.5 1208.5,479.7656 Q1208.75,480.0156 1208.75,480.375 Q1208.75,480.7188 1208.4063,481.125 Q1207.9063,481.7188 1207.1094,482.0469 Q1206.0625,482.5 1204.7813,482.5 Q1203.2813,482.5 1202.0781,481.9063 Q1201.1094,481.4375 1200.4219,480.4219 Q1199.75,479.4063 1199.75,478.2031 L1199.75,477.1094 Q1199.75,475.8594 1200.3438,474.7656 Q1200.9531,473.6719 1202,473.0938 Q1203.0625,472.5 1204.25,472.5 Q1204.9688,472.5 1205.5938,472.75 Q1206.2188,473 1206.75,473.5 Z " fill="#000000"/><text fill="#000000" font-family="sans-serif" font-size="12" lengthAdjust="spacing" textLength="32" x="1225.25" y="481.9102">Client</text><line style="stroke:#A80036;stroke-width:1.5;" x1="1017.5" x2="1432.5" y1="493" y2="493"/><rect fill="none" height="6" style="stroke:#C82930;stroke-width:1.0;" width="6" x="1024.5" y="501"/><text fill="#000000" font-family="sans-serif" font-size="11" lengthAdjust="spacing" textLength="99" x="1036.5" y="508.4189">String citizenNumber</text><rect fill="none" height="6" style="stroke:#C82930;stroke-width:1.0;" width="6" x="1024.5" y="514.8359"/><text fill="#000000" font-family="sans-serif" font-size="11" lengthAdjust="spacing" textLength="119" x="1036.5" y="522.2549">String healthcareNumber</text><rect fill="none" height="6" style="stroke:#C82930;stroke-width:1.0;" width="6" x="1024.5" y="528.6719"/><text fill="#000000" font-family="sans-serif" font-size="11" lengthAdjust="spacing" textLength="74" x="1036.5" y="536.0908">String birthDate</text><rect fill="none" height="6" style="stroke:#C82930;stroke-width:1.0;" width="6" x="1024.5" y="542.5078"/><text fill="#000000" font-family="sans-serif" font-size="11" lengthAdjust="spacing" textLength="42" x="1036.5" y="549.9268">String tin</text><rect fill="none" height="6" style="stroke:#C82930;stroke-width:1.0;" width="6" x="1024.5" y="556.3438"/><text fill="#000000" font-family="sans-serif" font-size="11" lengthAdjust="spacing" textLength="57" x="1036.5" y="563.7627">String name</text><rect fill="none" height="6" style="stroke:#C82930;stroke-width:1.0;" width="6" x="1024.5" y="570.1797"/><text fill="#000000" font-family="sans-serif" font-size="11" lengthAdjust="spacing" textLength="98" x="1036.5" y="577.5986">String phoneNumber</text><rect fill="none" height="6" style="stroke:#C82930;stroke-width:1.0;" width="6" x="1024.5" y="584.0156"/><text fill="#000000" font-family="sans-serif" font-size="11" lengthAdjust="spacing" textLength="49" x="1036.5" y="591.4346">String sex</text><line style="stroke:#A80036;stroke-width:1.0;" x1="1017.5" x2="1432.5" y1="597.8516" y2="597.8516"/><ellipse cx="1027.5" cy="608.8516" fill="#84BE84" rx="3" ry="3" style="stroke:#038048;stroke-width:1.0;"/><text fill="#000000" font-family="sans-serif" font-size="11" lengthAdjust="spacing" textLength="391" x="1036.5" y="613.2705">Client(citizenNumber, healthcareNumber, birthDate, tin, name, phoneNumber, sex)</text><!--MD5=[99b8db98afdc2c8404e39242ef4c1e65]
class Platform--><rect codeLine="78" fill="#FEFECE" filter="url(#f1mwqvez4bi9hu)" height="89.5078" id="Platform" style="stroke:#A80036;stroke-width:1.5;" width="112" x="850" y="698"/><ellipse cx="880.3" cy="714" fill="#ADD1B2" rx="11" ry="11" style="stroke:#A80036;stroke-width:1.0;"/><path d="M882.3,710.5 Q882.5031,710 882.7375,709.75 Q882.9719,709.5 883.2375,709.5 Q883.7063,709.5 884.0031,709.7813 Q884.3,710.0625 884.3,710.7188 L884.3,712.2813 Q884.3,712.9375 884.0188,713.2188 Q883.7375,713.5 883.3,713.5 Q882.9094,713.5 882.6594,713.3281 Q882.4094,713.1563 882.3,712.7031 Q882.2531,712.3906 882.0813,712.2188 Q881.7688,711.8906 881.2063,711.7031 Q880.6438,711.5 880.0813,711.5 Q879.3781,711.5 878.7844,711.7813 Q878.2063,712.0625 877.7531,712.6875 Q877.3,713.3125 877.3,714.1719 L877.3,715.0938 Q877.3,716.125 878.1438,716.8125 Q878.9875,717.5 880.4875,717.5 Q881.3781,717.5 882.0031,717.2969 Q882.3625,717.1875 882.7688,716.8281 Q883.0344,716.625 883.175,716.5625 Q883.3156,716.5 883.4875,716.5 Q883.8156,716.5 884.05,716.7656 Q884.3,717.0156 884.3,717.375 Q884.3,717.7188 883.9563,718.125 Q883.4563,718.7188 882.6594,719.0469 Q881.6125,719.5 880.3313,719.5 Q878.8313,719.5 877.6281,718.9063 Q876.6594,718.4375 875.9719,717.4219 Q875.3,716.4063 875.3,715.2031 L875.3,714.1094 Q875.3,712.8594 875.8938,711.7656 Q876.5031,710.6719 877.55,710.0938 Q878.6125,709.5 879.8,709.5 Q880.5188,709.5 881.1438,709.75 Q881.7688,710 882.3,710.5 Z " fill="#000000"/><text fill="#000000" font-family="sans-serif" font-size="12" lengthAdjust="spacing" textLength="46" x="897.7" y="718.9102">Platform</text><line style="stroke:#A80036;stroke-width:1.5;" x1="851" x2="961" y1="730" y2="730"/><rect fill="none" height="6" style="stroke:#C82930;stroke-width:1.0;" width="6" x="858" y="738"/><text fill="#000000" font-family="sans-serif" font-size="11" lengthAdjust="spacing" textLength="86" x="870" y="745.4189">String designation</text><line style="stroke:#A80036;stroke-width:1.0;" x1="851" x2="961" y1="751.8359" y2="751.8359"/><ellipse cx="861" cy="762.8359" fill="#84BE84" rx="3" ry="3" style="stroke:#038048;stroke-width:1.0;"/><text fill="#000000" font-family="sans-serif" font-size="11" lengthAdjust="spacing" textLength="55" x="870" y="767.2549">getClients()</text><ellipse cx="861" cy="776.6719" fill="#84BE84" rx="3" ry="3" style="stroke:#038048;stroke-width:1.0;"/><text fill="#000000" font-family="sans-serif" font-size="11" lengthAdjust="spacing" textLength="77" x="870" y="781.0908">addClient(client)</text><!--MD5=[b29a880d5ea6a1b2c7c9e94942a3f9a4]
link ClientCreatorUI to ClientCreatorController--><path codeLine="85" d="M233.64,54.66 C275.66,70.91 334.03,93.46 387.34,114.07 " fill="none" id="ClientCreatorUI-to-ClientCreatorController" style="stroke:#A80036;stroke-width:1.0;stroke-dasharray:7.0,7.0;"/><polygon fill="#A80036" points="392.15,115.93,385.1901,108.9615,387.4844,114.1322,382.3137,116.4265,392.15,115.93" style="stroke:#A80036;stroke-width:1.0;"/><!--MD5=[050b9a4d1e78f3265017f260c726855c]
link ClientCreatorController to Receptionist--><path codeLine="86" d="M660.41,219.09 C711.34,237.84 769.18,259.14 820.55,278.05 " fill="none" id="ClientCreatorController-to-Receptionist" style="stroke:#A80036;stroke-width:1.0;stroke-dasharray:7.0,7.0;"/><polygon fill="#A80036" points="825.5,279.87,818.4339,273.0093,820.8073,278.1441,815.6725,280.5176,825.5,279.87" style="stroke:#A80036;stroke-width:1.0;"/><!--MD5=[b573d32290f87f9622f2ea24c24dad6b]
link ClientCreatorController to AuthFacade--><path codeLine="87" d="M747.15,189.99 C881.88,206.63 1055.6,234.68 1205,280 C1215.45,283.17 1226.2,287.12 1236.7,291.39 " fill="none" id="ClientCreatorController-to-AuthFacade" style="stroke:#A80036;stroke-width:1.0;stroke-dasharray:7.0,7.0;"/><polygon fill="#A80036" points="1241.51,293.38,1234.722,286.244,1236.8896,291.4691,1231.6645,293.6367,1241.51,293.38" style="stroke:#A80036;stroke-width:1.0;"/><!--MD5=[9bcf6a5a67aa7a6e88a751bd38575f95]
link ClientCreatorController to ClientNotification--><path codeLine="88" d="M551.23,219.31 C564.99,244.09 581.2,273.26 593.56,295.51 " fill="none" id="ClientCreatorController-to-ClientNotification" style="stroke:#A80036;stroke-width:1.0;stroke-dasharray:7.0,7.0;"/><polygon fill="#A80036" points="596.14,300.15,595.2658,290.34,593.7118,295.7792,588.2726,294.2252,596.14,300.15" style="stroke:#A80036;stroke-width:1.0;"/><!--MD5=[47c5981d91142fd3d377d484079759cf]
link Receptionist to Platform--><path codeLine="89" d="M963.31,383.22 C962.69,449.55 958.03,568.94 935,668 C933.11,676.13 930.5,684.54 927.61,692.65 " fill="none" id="Receptionist-to-Platform" style="stroke:#A80036;stroke-width:1.0;stroke-dasharray:7.0,7.0;"/><polygon fill="#A80036" points="925.77,697.66,932.6307,690.5939,927.4959,692.9673,925.1224,687.8325,925.77,697.66" style="stroke:#A80036;stroke-width:1.0;"/><!--MD5=[1c73d7b09960357d10f8ddc0543f3b9d]
link Platform to ClientsStore--><path codeLine="90" d="M906,788.15 C906,805.71 906,825.84 906,843.26 " fill="none" id="Platform-to-ClientsStore" style="stroke:#A80036;stroke-width:1.0;stroke-dasharray:7.0,7.0;"/><polygon fill="#A80036" points="906,848.57,910,839.57,906,843.57,902,839.57,906,848.57" style="stroke:#A80036;stroke-width:1.0;"/><!--MD5=[8ce4262ab4f27ddb6c34441589114c66]
link ClientCreatorUI to ClientDTO--><path codeLine="91" d="M176.57,55.44 C180.81,117.07 193.29,288.73 210,431 C210.94,438.99 212,447.29 213.13,455.59 " fill="none" id="ClientCreatorUI-to-ClientDTO" style="stroke:#A80036;stroke-width:1.0;stroke-dasharray:7.0,7.0;"/><polygon fill="#A80036" points="213.83,460.76,216.5858,451.3046,213.1589,455.8052,208.6582,452.3783,213.83,460.76" style="stroke:#A80036;stroke-width:1.0;"/><!--MD5=[386fa00bfef67bd043ba32c46e3380ed]
link ClientCreatorController to ClientDTO--><path codeLine="92" d="M336.28,219.06 C307.36,234.37 280.63,254.25 261,280 C223.23,329.56 215.87,400.45 217.19,455.62 " fill="none" id="ClientCreatorController-to-ClientDTO" style="stroke:#A80036;stroke-width:1.0;stroke-dasharray:7.0,7.0;"/><polygon fill="#A80036" points="217.34,460.9,221.0806,451.7891,217.1968,455.9021,213.0839,452.0183,217.34,460.9" style="stroke:#A80036;stroke-width:1.0;"/><!--MD5=[af3939234646809cec66923e43961aa6]
link ClientMapper to ClientDTO--><path codeLine="93" d="M354.93,369.51 C336.53,393.77 311.72,426.48 288.77,456.74 " fill="none" id="ClientMapper-to-ClientDTO" style="stroke:#A80036;stroke-width:1.0;stroke-dasharray:7.0,7.0;"/><polygon fill="#A80036" points="285.69,460.79,294.32,456.0441,288.7151,456.8089,287.9502,451.204,285.69,460.79" style="stroke:#A80036;stroke-width:1.0;"/><!--MD5=[6b35fd29f0b3e26d4ec77b1c5570f0f7]
link ClientCreatorController to ClientMapper--><path codeLine="94" d="M479.09,219.31 C459.53,241.94 436.81,268.23 418.38,289.56 " fill="none" id="ClientCreatorController-to-ClientMapper" style="stroke:#A80036;stroke-width:1.0;stroke-dasharray:7.0,7.0;"/><polygon fill="#A80036" points="414.99,293.49,423.9011,289.2957,418.2592,289.7068,417.8481,284.065,414.99,293.49" style="stroke:#A80036;stroke-width:1.0;"/><!--MD5=[06bb7d2a85a007b79d10922b2d5e4cdd]
link Receptionist to Employee--><path codeLine="96" d="M934.87,383.14 C923.64,403.35 910.36,427.25 897.61,450.19 " fill="none" id="Receptionist-to-Employee" style="stroke:#A80036;stroke-width:1.0;"/><polygon fill="none" points="903.62,453.81,887.78,467.89,891.38,447.01,903.62,453.81" style="stroke:#A80036;stroke-width:1.0;"/><text fill="#000000" font-family="sans-serif" font-size="13" lengthAdjust="spacing" textLength="10" x="917" y="427.4951">is</text><text fill="#000000" font-family="sans-serif" font-size="13" lengthAdjust="spacing" textLength="7" x="923.422" y="405.0225">1</text><text fill="#000000" font-family="sans-serif" font-size="13" lengthAdjust="spacing" textLength="7" x="884.5214" y="457.098">1</text><!--MD5=[b482d663aae385f5ae82dde2f71259c6]
link Employee to Platform--><path codeLine="97" d="M868.69,613.04 C876.89,641.38 886.06,673.06 893.25,697.93 " fill="none" id="Employee-Platform" style="stroke:#A80036;stroke-width:1.0;"/><polygon fill="#000000" points="890.3896,663.9788,890.6989,654.4733,885.0527,656.1068,890.3896,663.9788" style="stroke:#000000;stroke-width:1.0;"/><text fill="#000000" font-family="sans-serif" font-size="13" lengthAdjust="spacing" textLength="28" x="898" y="664.4951">uses</text><text fill="#000000" font-family="sans-serif" font-size="13" lengthAdjust="spacing" textLength="5" x="865.4237" y="634.2354">*</text><text fill="#000000" font-family="sans-serif" font-size="13" lengthAdjust="spacing" textLength="7" x="883.6602" y="687.0343">1</text><!--MD5=[6a35157f4c730bda767e7c9f1b8b7f73]
link Receptionist to Client--><path codeLine="98" d="M1027.09,383.14 C1056.71,406.54 1092.56,434.86 1125.57,460.95 " fill="none" id="Receptionist-Client" style="stroke:#A80036;stroke-width:1.0;"/><polygon fill="#000000" points="1095.9232,425.2755,1090.6481,417.362,1087.0041,421.974,1095.9232,425.2755" style="stroke:#000000;stroke-width:1.0;"/><text fill="#000000" font-family="sans-serif" font-size="13" lengthAdjust="spacing" textLength="43" x="1101" y="427.4951">register</text><text fill="#000000" font-family="sans-serif" font-size="13" lengthAdjust="spacing" textLength="7" x="1028.6105" y="405.0225">1</text><text fill="#000000" font-family="sans-serif" font-size="13" lengthAdjust="spacing" textLength="5" x="1110.8548" y="450.1322">*</text><!--MD5=[256ddc4f033ca884f75440dcef5c5ba2]
@startuml

class ClientCreatorUI{

}

class ClientCreatorController{
    - -
    +createClient(citizenNumber, healthcareNumber, birthDate, tin, name, phoneNumber, sex)
    +saveClient()
    +sendNotification(type, message)
    +addUser(email)
}

class AuthFacade{
    - -
    +existUser(email)
    +addUser(name, email, password)
}

class ClientsStore{
    - -
    +getClients()
    +addClient(client)
}

class ClientDTO {
    -String citizenNumber
    -String healthcareNumber
    -String birthDate
    -String tin
    -String name
    -String phoneNumber
    -String sex
    - -
    +ClientDTO(citizenNumber, healthcareNumber, birthDate, tin, name, phoneNumber, sex)
}

class ClientMapper {
    +List<ClientDTO>toDTO(List<Client>list)
    +ClientDTO toDTO(Client obj)
}

class ClientNotification{
    - -
    +sendNotification(type, message)
}

class Employee{
    -String idEmployee
    -String name
    -String function
    -String phoneNumber
    -String email
    -String address
    -String soc
}

class Receptionist {
    - -
    +createClient(citizenNumber, healthcareNumber, birthDate, tin, name, phoneNumber, sex)
    +saveClient(client)
    -validate(client)
    -addClient(client)
}

class Client {
    -String citizenNumber
    -String healthcareNumber
    -String birthDate
    -String tin
    -String name
    -String phoneNumber
    -String sex
    - -
    +Client(citizenNumber, healthcareNumber, birthDate, tin, name, phoneNumber, sex)
}

class Platform{
    -String designation
    - -
    +getClients()
    +addClient(client)
}

ClientCreatorUI ..> ClientCreatorController
ClientCreatorController ..> Receptionist
ClientCreatorController ..> AuthFacade
ClientCreatorController ..> ClientNotification
Receptionist ..> Platform
Platform ..> ClientsStore
ClientCreatorUI ..> ClientDTO
ClientCreatorController ..> ClientDTO
ClientMapper ..> ClientDTO
ClientCreatorController ..> ClientMapper

Receptionist "1" - -|> "1" Employee : is
Employee "*" - - "1" Platform : uses >
Receptionist "1" - - "*" Client : register >


@enduml

PlantUML version 1.2021.5(Sun Apr 25 12:20:28 BST 2021)
(GPL source distribution)
Java Runtime: OpenJDK Runtime Environment
JVM: Dynamic Code Evolution 64-Bit Server VM
Default Encoding: Cp1252
Language: pt
Country: PT
--></g></svg>