<?xml version="1.0" encoding="UTF-8" standalone="no"?><svg xmlns="http://www.w3.org/2000/svg" xmlns:xlink="http://www.w3.org/1999/xlink" contentScriptType="application/ecmascript" contentStyleType="text/css" height="178px" preserveAspectRatio="none" style="width:985px;height:178px;" version="1.1" viewBox="0 0 985 178" width="985px" zoomAndPan="magnify"><defs><filter height="300%" id="fx8njqtufdiuh" width="300%" x="-1" y="-1"><feGaussianBlur result="blurOut" stdDeviation="2.0"/><feColorMatrix in="blurOut" result="blurOut2" type="matrix" values="0 0 0 0 0 0 0 0 0 0 0 0 0 0 0 0 0 0 .4 0"/><feOffset dx="4.0" dy="4.0" in="blurOut2" result="blurOut3"/><feBlend in="SourceGraphic" in2="blurOut3" mode="normal"/></filter></defs><g><!--MD5=[02e4b9b7573f1156f41e60aa5b4e25a4]
class Company--><rect codeLine="5" fill="#FEFECE" filter="url(#fx8njqtufdiuh)" height="53.8359" id="Company" style="stroke:#A80036;stroke-width:1.5;" width="85" x="7" y="41.5"/><ellipse cx="22" cy="57.5" fill="#ADD1B2" rx="11" ry="11" style="stroke:#A80036;stroke-width:1.0;"/><path d="M24,54 Q24.2031,53.5 24.4375,53.25 Q24.6719,53 24.9375,53 Q25.4063,53 25.7031,53.2813 Q26,53.5625 26,54.2188 L26,55.7813 Q26,56.4375 25.7188,56.7188 Q25.4375,57 25,57 Q24.6094,57 24.3594,56.8281 Q24.1094,56.6563 24,56.2031 Q23.9531,55.8906 23.7813,55.7188 Q23.4688,55.3906 22.9063,55.2031 Q22.3438,55 21.7813,55 Q21.0781,55 20.4844,55.2813 Q19.9063,55.5625 19.4531,56.1875 Q19,56.8125 19,57.6719 L19,58.5938 Q19,59.625 19.8438,60.3125 Q20.6875,61 22.1875,61 Q23.0781,61 23.7031,60.7969 Q24.0625,60.6875 24.4688,60.3281 Q24.7344,60.125 24.875,60.0625 Q25.0156,60 25.1875,60 Q25.5156,60 25.75,60.2656 Q26,60.5156 26,60.875 Q26,61.2188 25.6563,61.625 Q25.1563,62.2188 24.3594,62.5469 Q23.3125,63 22.0313,63 Q20.5313,63 19.3281,62.4063 Q18.3594,61.9375 17.6719,60.9219 Q17,59.9063 17,58.7031 L17,57.6094 Q17,56.3594 17.5938,55.2656 Q18.2031,54.1719 19.25,53.5938 Q20.3125,53 21.5,53 Q22.2188,53 22.8438,53.25 Q23.4688,53.5 24,54 Z " fill="#000000"/><text fill="#000000" font-family="sans-serif" font-size="12" lengthAdjust="spacing" textLength="53" x="36" y="62.4102">Company</text><line style="stroke:#A80036;stroke-width:1.5;" x1="8" x2="91" y1="73.5" y2="73.5"/><text fill="#000000" font-family="sans-serif" font-size="11" lengthAdjust="spacing" textLength="64" x="13" y="88.9189">-chemicalLab</text><!--MD5=[1934a092c0e7d4da7dc7075b6f4b6b03]
class ClinicalAnalysisLaboratory--><rect codeLine="9" fill="#FEFECE" filter="url(#fx8njqtufdiuh)" height="123.0156" id="ClinicalAnalysisLaboratory" style="stroke:#A80036;stroke-width:1.5;" width="177" x="197" y="7"/><ellipse cx="212" cy="23" fill="#ADD1B2" rx="11" ry="11" style="stroke:#A80036;stroke-width:1.0;"/><path d="M214,19.5 Q214.2031,19 214.4375,18.75 Q214.6719,18.5 214.9375,18.5 Q215.4063,18.5 215.7031,18.7813 Q216,19.0625 216,19.7188 L216,21.2813 Q216,21.9375 215.7188,22.2188 Q215.4375,22.5 215,22.5 Q214.6094,22.5 214.3594,22.3281 Q214.1094,22.1563 214,21.7031 Q213.9531,21.3906 213.7813,21.2188 Q213.4688,20.8906 212.9063,20.7031 Q212.3438,20.5 211.7813,20.5 Q211.0781,20.5 210.4844,20.7813 Q209.9063,21.0625 209.4531,21.6875 Q209,22.3125 209,23.1719 L209,24.0938 Q209,25.125 209.8438,25.8125 Q210.6875,26.5 212.1875,26.5 Q213.0781,26.5 213.7031,26.2969 Q214.0625,26.1875 214.4688,25.8281 Q214.7344,25.625 214.875,25.5625 Q215.0156,25.5 215.1875,25.5 Q215.5156,25.5 215.75,25.7656 Q216,26.0156 216,26.375 Q216,26.7188 215.6563,27.125 Q215.1563,27.7188 214.3594,28.0469 Q213.3125,28.5 212.0313,28.5 Q210.5313,28.5 209.3281,27.9063 Q208.3594,27.4375 207.6719,26.4219 Q207,25.4063 207,24.2031 L207,23.1094 Q207,21.8594 207.5938,20.7656 Q208.2031,19.6719 209.25,19.0938 Q210.3125,18.5 211.5,18.5 Q212.2188,18.5 212.8438,18.75 Q213.4688,19 214,19.5 Z " fill="#000000"/><text fill="#000000" font-family="sans-serif" font-size="12" lengthAdjust="spacing" textLength="145" x="226" y="27.9102">ClinicalAnalysisLaboratory</text><line style="stroke:#A80036;stroke-width:1.5;" x1="198" x2="373" y1="39" y2="39"/><text fill="#000000" font-family="sans-serif" font-size="11" lengthAdjust="spacing" textLength="65" x="203" y="54.4189">-idLaboratory</text><text fill="#000000" font-family="sans-serif" font-size="11" lengthAdjust="spacing" textLength="30" x="203" y="68.2549">-name</text><text fill="#000000" font-family="sans-serif" font-size="11" lengthAdjust="spacing" textLength="44" x="203" y="82.0908">-address</text><text fill="#000000" font-family="sans-serif" font-size="11" lengthAdjust="spacing" textLength="71" x="203" y="95.9268">-phoneNumber</text><text fill="#000000" font-family="sans-serif" font-size="11" lengthAdjust="spacing" textLength="15" x="203" y="109.7627">-tin</text><text fill="#000000" font-family="sans-serif" font-size="11" lengthAdjust="spacing" textLength="46" x="203" y="123.5986">-testType</text><!--MD5=[c205b6d306292bbc5c8991a0afd5f433]
class ParametersCategory--><rect codeLine="19" fill="#FEFECE" filter="url(#fx8njqtufdiuh)" height="67.6719" id="ParametersCategory" style="stroke:#A80036;stroke-width:1.5;" width="146" x="825" y="34.5"/><ellipse cx="840" cy="50.5" fill="#ADD1B2" rx="11" ry="11" style="stroke:#A80036;stroke-width:1.0;"/><path d="M842,47 Q842.2031,46.5 842.4375,46.25 Q842.6719,46 842.9375,46 Q843.4063,46 843.7031,46.2813 Q844,46.5625 844,47.2188 L844,48.7813 Q844,49.4375 843.7188,49.7188 Q843.4375,50 843,50 Q842.6094,50 842.3594,49.8281 Q842.1094,49.6563 842,49.2031 Q841.9531,48.8906 841.7813,48.7188 Q841.4688,48.3906 840.9063,48.2031 Q840.3438,48 839.7813,48 Q839.0781,48 838.4844,48.2813 Q837.9063,48.5625 837.4531,49.1875 Q837,49.8125 837,50.6719 L837,51.5938 Q837,52.625 837.8438,53.3125 Q838.6875,54 840.1875,54 Q841.0781,54 841.7031,53.7969 Q842.0625,53.6875 842.4688,53.3281 Q842.7344,53.125 842.875,53.0625 Q843.0156,53 843.1875,53 Q843.5156,53 843.75,53.2656 Q844,53.5156 844,53.875 Q844,54.2188 843.6563,54.625 Q843.1563,55.2188 842.3594,55.5469 Q841.3125,56 840.0313,56 Q838.5313,56 837.3281,55.4063 Q836.3594,54.9375 835.6719,53.9219 Q835,52.9063 835,51.7031 L835,50.6094 Q835,49.3594 835.5938,48.2656 Q836.2031,47.1719 837.25,46.5938 Q838.3125,46 839.5,46 Q840.2188,46 840.8438,46.25 Q841.4688,46.5 842,47 Z " fill="#000000"/><text fill="#000000" font-family="sans-serif" font-size="12" lengthAdjust="spacing" textLength="114" x="854" y="55.4102">ParametersCategory</text><line style="stroke:#A80036;stroke-width:1.5;" x1="826" x2="970" y1="66.5" y2="66.5"/><text fill="#000000" font-family="sans-serif" font-size="11" lengthAdjust="spacing" textLength="28" x="831" y="81.9189">-code</text><text fill="#000000" font-family="sans-serif" font-size="11" lengthAdjust="spacing" textLength="30" x="831" y="95.7549">-name</text><!--MD5=[1f6362a5c8f21d8d6a0fce68f3a92a4e]
class Parameter--><rect codeLine="24" fill="#FEFECE" filter="url(#fx8njqtufdiuh)" height="81.5078" id="Parameter" style="stroke:#A80036;stroke-width:1.5;" width="90" x="567" y="82.5"/><ellipse cx="582" cy="98.5" fill="#ADD1B2" rx="11" ry="11" style="stroke:#A80036;stroke-width:1.0;"/><path d="M584,95 Q584.2031,94.5 584.4375,94.25 Q584.6719,94 584.9375,94 Q585.4063,94 585.7031,94.2813 Q586,94.5625 586,95.2188 L586,96.7813 Q586,97.4375 585.7188,97.7188 Q585.4375,98 585,98 Q584.6094,98 584.3594,97.8281 Q584.1094,97.6563 584,97.2031 Q583.9531,96.8906 583.7813,96.7188 Q583.4688,96.3906 582.9063,96.2031 Q582.3438,96 581.7813,96 Q581.0781,96 580.4844,96.2813 Q579.9063,96.5625 579.4531,97.1875 Q579,97.8125 579,98.6719 L579,99.5938 Q579,100.625 579.8438,101.3125 Q580.6875,102 582.1875,102 Q583.0781,102 583.7031,101.7969 Q584.0625,101.6875 584.4688,101.3281 Q584.7344,101.125 584.875,101.0625 Q585.0156,101 585.1875,101 Q585.5156,101 585.75,101.2656 Q586,101.5156 586,101.875 Q586,102.2188 585.6563,102.625 Q585.1563,103.2188 584.3594,103.5469 Q583.3125,104 582.0313,104 Q580.5313,104 579.3281,103.4063 Q578.3594,102.9375 577.6719,101.9219 Q577,100.9063 577,99.7031 L577,98.6094 Q577,97.3594 577.5938,96.2656 Q578.2031,95.1719 579.25,94.5938 Q580.3125,94 581.5,94 Q582.2188,94 582.8438,94.25 Q583.4688,94.5 584,95 Z " fill="#000000"/><text fill="#000000" font-family="sans-serif" font-size="12" lengthAdjust="spacing" textLength="58" x="596" y="103.4102">Parameter</text><line style="stroke:#A80036;stroke-width:1.5;" x1="568" x2="656" y1="114.5" y2="114.5"/><text fill="#000000" font-family="sans-serif" font-size="11" lengthAdjust="spacing" textLength="28" x="573" y="129.9189">-code</text><text fill="#000000" font-family="sans-serif" font-size="11" lengthAdjust="spacing" textLength="30" x="573" y="143.7549">-name</text><text fill="#000000" font-family="sans-serif" font-size="11" lengthAdjust="spacing" textLength="57" x="573" y="157.5908">-description</text><!--MD5=[63ebae975f1983e94833a8f48fa30fd9]
link ClinicalAnalysisLaboratory to Parameter--><path codeLine="31" d="M374.31,83.38 C436.63,93.95 517.65,107.68 566.91,116.03 " fill="none" id="ClinicalAnalysisLaboratory-Parameter" style="stroke:#A80036;stroke-width:1.0;"/><polygon fill="#000000" points="413.9297,81.5115,405.503,77.1021,404.5206,82.8973,413.9297,81.5115" style="stroke:#000000;stroke-width:1.0;"/><text fill="#000000" font-family="sans-serif" font-size="13" lengthAdjust="spacing" textLength="118" x="418" y="85.9951">capable of analysing</text><text fill="#000000" font-family="sans-serif" font-size="13" lengthAdjust="spacing" textLength="7" x="381.9544" y="98.7838">1</text><text fill="#000000" font-family="sans-serif" font-size="13" lengthAdjust="spacing" textLength="5" x="554.0279" y="129.6828">*</text><!--MD5=[8f8a94fdc25bb6da32e761019cf941a7]
link ClinicalAnalysisLaboratory to ParametersCategory--><path codeLine="32" d="M374.07,64.36 C384.16,64.01 394.3,63.71 404,63.5 C577.74,59.81 621.27,59.24 795,63.5 C804.66,63.74 814.83,64.1 824.85,64.52 " fill="none" id="ClinicalAnalysisLaboratory-ParametersCategory" style="stroke:#A80036;stroke-width:1.0;"/><polygon fill="#000000" points="595,52.6776,585.956,49.7354,585.9539,55.6133,595,52.6776" style="stroke:#000000;stroke-width:1.0;"/><text fill="#000000" font-family="sans-serif" font-size="13" lengthAdjust="spacing" textLength="39" x="599" y="57.9951">adopts</text><text fill="#000000" font-family="sans-serif" font-size="13" lengthAdjust="spacing" textLength="7" x="381.9823" y="78.2013">1</text><text fill="#000000" font-family="sans-serif" font-size="13" lengthAdjust="spacing" textLength="5" x="812.0486" y="78.4647">*</text><!--MD5=[098d103e04607394cbdaa890003edd6e]
link Parameter to ParametersCategory--><path codeLine="33" d="M657.06,114.97 C701.86,106.29 772,92.71 824.9,82.46 " fill="none" id="Parameter-ParametersCategory" style="stroke:#A80036;stroke-width:1.0;"/><polygon fill="#000000" points="696.9088,79.725,687.4699,78.5597,688.5876,84.3303,696.9088,79.725" style="stroke:#000000;stroke-width:1.0;"/><text fill="#000000" font-family="sans-serif" font-size="13" lengthAdjust="spacing" textLength="93" x="701" y="85.9951">presented under</text><text fill="#000000" font-family="sans-serif" font-size="13" lengthAdjust="spacing" textLength="5" x="664.9371" y="128.4472">*</text><text fill="#000000" font-family="sans-serif" font-size="13" lengthAdjust="spacing" textLength="7" x="810.0006" y="98.2548">1</text><!--MD5=[aafc5d8a5829a6a8d6dc892cb1ff5d24]
link Company to ClinicalAnalysisLaboratory--><path codeLine="34" d="M92.06,68.5 C121.09,68.5 160.91,68.5 196.8,68.5 " fill="none" id="Company-ClinicalAnalysisLaboratory" style="stroke:#A80036;stroke-width:1.0;"/><polygon fill="#000000" points="132,59.6758,122.9549,56.7369,122.9549,62.6147,132,59.6758" style="stroke:#000000;stroke-width:1.0;"/><text fill="#000000" font-family="sans-serif" font-size="13" lengthAdjust="spacing" textLength="30" x="136" y="64.9951">owns</text><text fill="#000000" font-family="sans-serif" font-size="13" lengthAdjust="spacing" textLength="7" x="99.9766" y="83.4144">1</text><text fill="#000000" font-family="sans-serif" font-size="13" lengthAdjust="spacing" textLength="5" x="183.9625" y="82.6971">*</text><!--MD5=[5fd191f844fbea0afd2fa089c33f6e8d]
@startuml
hide methods
left to right direction
skinparam classAttributeIconSize 0

class Company{
 -chemicalLab
}

class ClinicalAnalysisLaboratory{
    -idLaboratory
    -name
    -address
    -phoneNumber
    -tin
    -testType
}


class ParametersCategory{
    -code
    -name
}

class Parameter{
    -code
    -name
    -description
}


ClinicalAnalysisLaboratory "1" - - "*" Parameter : capable of analysing >
ClinicalAnalysisLaboratory "1" - - "*" ParametersCategory : adopts >
Parameter "*" - - "1" ParametersCategory : presented under >
Company "1" - - "*" ClinicalAnalysisLaboratory : owns >
@enduml

PlantUML version 1.2021.2(Sun Mar 07 11:10:27 GMT 2021)
(GPL source distribution)
Java Runtime: OpenJDK Runtime Environment
JVM: OpenJDK 64-Bit Server VM
Default Encoding: Cp1252
Language: pt
Country: PT
--></g></svg>