<?xml version="1.0" encoding="UTF-8" standalone="no"?><svg xmlns="http://www.w3.org/2000/svg" xmlns:xlink="http://www.w3.org/1999/xlink" contentScriptType="application/ecmascript" contentStyleType="text/css" height="414px" preserveAspectRatio="none" style="width:1388px;height:414px;" version="1.1" viewBox="0 0 1388 414" width="1388px" zoomAndPan="magnify"><defs><filter height="300%" id="fmhiqrg0mt250" width="300%" x="-1" y="-1"><feGaussianBlur result="blurOut" stdDeviation="2.0"/><feColorMatrix in="blurOut" result="blurOut2" type="matrix" values="0 0 0 0 0 0 0 0 0 0 0 0 0 0 0 0 0 0 .4 0"/><feOffset dx="4.0" dy="4.0" in="blurOut2" result="blurOut3"/><feBlend in="SourceGraphic" in2="blurOut3" mode="normal"/></filter></defs><g><!--MD5=[1f6362a5c8f21d8d6a0fce68f3a92a4e]
class Parameter--><rect codeLine="4" fill="#FEFECE" filter="url(#fmhiqrg0mt250)" height="103.3438" id="Parameter" style="stroke:#A80036;stroke-width:1.5;" width="90" x="1284" y="7.29"/><ellipse cx="1299" cy="23.29" fill="#ADD1B2" rx="11" ry="11" style="stroke:#A80036;stroke-width:1.0;"/><path d="M1301,19.79 Q1301.2031,19.29 1301.4375,19.04 Q1301.6719,18.79 1301.9375,18.79 Q1302.4063,18.79 1302.7031,19.0713 Q1303,19.3525 1303,20.0088 L1303,21.5713 Q1303,22.2275 1302.7188,22.5088 Q1302.4375,22.79 1302,22.79 Q1301.6094,22.79 1301.3594,22.6181 Q1301.1094,22.4463 1301,21.9931 Q1300.9531,21.6806 1300.7813,21.5088 Q1300.4688,21.1806 1299.9063,20.9931 Q1299.3438,20.79 1298.7813,20.79 Q1298.0781,20.79 1297.4844,21.0713 Q1296.9063,21.3525 1296.4531,21.9775 Q1296,22.6025 1296,23.4619 L1296,24.3838 Q1296,25.415 1296.8438,26.1025 Q1297.6875,26.79 1299.1875,26.79 Q1300.0781,26.79 1300.7031,26.5869 Q1301.0625,26.4775 1301.4688,26.1181 Q1301.7344,25.915 1301.875,25.8525 Q1302.0156,25.79 1302.1875,25.79 Q1302.5156,25.79 1302.75,26.0556 Q1303,26.3056 1303,26.665 Q1303,27.0088 1302.6563,27.415 Q1302.1563,28.0088 1301.3594,28.3369 Q1300.3125,28.79 1299.0313,28.79 Q1297.5313,28.79 1296.3281,28.1963 Q1295.3594,27.7275 1294.6719,26.7119 Q1294,25.6963 1294,24.4931 L1294,23.3994 Q1294,22.1494 1294.5938,21.0556 Q1295.2031,19.9619 1296.25,19.3838 Q1297.3125,18.79 1298.5,18.79 Q1299.2188,18.79 1299.8438,19.04 Q1300.4688,19.29 1301,19.79 Z " fill="#000000"/><text fill="#000000" font-family="sans-serif" font-size="12" lengthAdjust="spacing" textLength="58" x="1313" y="28.2002">Parameter</text><line style="stroke:#A80036;stroke-width:1.5;" x1="1285" x2="1373" y1="39.29" y2="39.29"/><text fill="#000000" font-family="sans-serif" font-size="11" lengthAdjust="spacing" textLength="28" x="1290" y="54.7089">-code</text><text fill="#000000" font-family="sans-serif" font-size="11" lengthAdjust="spacing" textLength="30" x="1290" y="68.5449">-name</text><text fill="#000000" font-family="sans-serif" font-size="11" lengthAdjust="spacing" textLength="57" x="1290" y="82.3808">-description</text><text fill="#000000" font-family="sans-serif" font-size="11" lengthAdjust="spacing" textLength="47" x="1290" y="96.2168">-category</text><line style="stroke:#A80036;stroke-width:1.5;" x1="1285" x2="1373" y1="102.6338" y2="102.6338"/><!--MD5=[be7802b157a16874d39c59ca0e2b25be]
class ParameterStore--><rect codeLine="11" fill="#FEFECE" filter="url(#fmhiqrg0mt250)" height="117.1797" id="ParameterStore" style="stroke:#A80036;stroke-width:1.5;" width="261" x="843" y="56.29"/><ellipse cx="925.75" cy="72.29" fill="#ADD1B2" rx="11" ry="11" style="stroke:#A80036;stroke-width:1.0;"/><path d="M927.75,68.79 Q927.9531,68.29 928.1875,68.04 Q928.4219,67.79 928.6875,67.79 Q929.1563,67.79 929.4531,68.0713 Q929.75,68.3525 929.75,69.0088 L929.75,70.5713 Q929.75,71.2275 929.4688,71.5088 Q929.1875,71.79 928.75,71.79 Q928.3594,71.79 928.1094,71.6181 Q927.8594,71.4463 927.75,70.9931 Q927.7031,70.6806 927.5313,70.5088 Q927.2188,70.1806 926.6563,69.9931 Q926.0938,69.79 925.5313,69.79 Q924.8281,69.79 924.2344,70.0713 Q923.6563,70.3525 923.2031,70.9775 Q922.75,71.6025 922.75,72.4619 L922.75,73.3838 Q922.75,74.415 923.5938,75.1025 Q924.4375,75.79 925.9375,75.79 Q926.8281,75.79 927.4531,75.5869 Q927.8125,75.4775 928.2188,75.1181 Q928.4844,74.915 928.625,74.8525 Q928.7656,74.79 928.9375,74.79 Q929.2656,74.79 929.5,75.0556 Q929.75,75.3056 929.75,75.665 Q929.75,76.0088 929.4063,76.415 Q928.9063,77.0088 928.1094,77.3369 Q927.0625,77.79 925.7813,77.79 Q924.2813,77.79 923.0781,77.1963 Q922.1094,76.7275 921.4219,75.7119 Q920.75,74.6963 920.75,73.4931 L920.75,72.3994 Q920.75,71.1494 921.3438,70.0556 Q921.9531,68.9619 923,68.3838 Q924.0625,67.79 925.25,67.79 Q925.9688,67.79 926.5938,68.04 Q927.2188,68.29 927.75,68.79 Z " fill="#000000"/><text fill="#000000" font-family="sans-serif" font-size="12" lengthAdjust="spacing" textLength="87" x="946.25" y="77.2002">ParameterStore</text><line style="stroke:#A80036;stroke-width:1.5;" x1="844" x2="1103" y1="88.29" y2="88.29"/><line style="stroke:#A80036;stroke-width:1.5;" x1="844" x2="1103" y1="96.29" y2="96.29"/><text fill="#000000" font-family="sans-serif" font-size="11" lengthAdjust="spacing" textLength="249" x="849" y="111.7089">+createParameter(code,name,description,category)</text><text fill="#000000" font-family="sans-serif" font-size="11" lengthAdjust="spacing" textLength="110" x="849" y="125.5449">+validateParameter(pr)</text><text fill="#000000" font-family="sans-serif" font-size="11" lengthAdjust="spacing" textLength="97" x="849" y="139.3808">+saveParameter(pr)</text><text fill="#000000" font-family="sans-serif" font-size="11" lengthAdjust="spacing" textLength="91" x="849" y="153.2168">+addParameter(pr)</text><text fill="#000000" font-family="sans-serif" font-size="11" lengthAdjust="spacing" textLength="78" x="849" y="167.0527">+getParameter()</text><!--MD5=[d802db621b5b215a6f0466f93cefcb42]
class ParameterCategoryStore--><rect codeLine="21" fill="#FEFECE" filter="url(#fmhiqrg0mt250)" height="131.0156" id="ParameterCategoryStore" style="stroke:#A80036;stroke-width:1.5;" width="203" x="872" y="208.29"/><ellipse cx="902.75" cy="224.29" fill="#ADD1B2" rx="11" ry="11" style="stroke:#A80036;stroke-width:1.0;"/><path d="M904.75,220.79 Q904.9531,220.29 905.1875,220.04 Q905.4219,219.79 905.6875,219.79 Q906.1563,219.79 906.4531,220.0713 Q906.75,220.3525 906.75,221.0088 L906.75,222.5713 Q906.75,223.2275 906.4688,223.5088 Q906.1875,223.79 905.75,223.79 Q905.3594,223.79 905.1094,223.6181 Q904.8594,223.4463 904.75,222.9931 Q904.7031,222.6806 904.5313,222.5088 Q904.2188,222.1806 903.6563,221.9931 Q903.0938,221.79 902.5313,221.79 Q901.8281,221.79 901.2344,222.0713 Q900.6563,222.3525 900.2031,222.9775 Q899.75,223.6025 899.75,224.4619 L899.75,225.3838 Q899.75,226.415 900.5938,227.1025 Q901.4375,227.79 902.9375,227.79 Q903.8281,227.79 904.4531,227.5869 Q904.8125,227.4775 905.2188,227.1181 Q905.4844,226.915 905.625,226.8525 Q905.7656,226.79 905.9375,226.79 Q906.2656,226.79 906.5,227.0556 Q906.75,227.3056 906.75,227.665 Q906.75,228.0088 906.4063,228.415 Q905.9063,229.0088 905.1094,229.3369 Q904.0625,229.79 902.7813,229.79 Q901.2813,229.79 900.0781,229.1963 Q899.1094,228.7275 898.4219,227.7119 Q897.75,226.6963 897.75,225.4931 L897.75,224.3994 Q897.75,223.1494 898.3438,222.0556 Q898.9531,220.9619 900,220.3838 Q901.0625,219.79 902.25,219.79 Q902.9688,219.79 903.5938,220.04 Q904.2188,220.29 904.75,220.79 Z " fill="#000000"/><text fill="#000000" font-family="sans-serif" font-size="12" lengthAdjust="spacing" textLength="136" x="920.25" y="229.2002">ParameterCategoryStore</text><line style="stroke:#A80036;stroke-width:1.5;" x1="873" x2="1074" y1="240.29" y2="240.29"/><line style="stroke:#A80036;stroke-width:1.5;" x1="873" x2="1074" y1="248.29" y2="248.29"/><text fill="#000000" font-family="sans-serif" font-size="11" lengthAdjust="spacing" textLength="191" x="878" y="263.7089">+createParameterCategory(code,name)</text><text fill="#000000" font-family="sans-serif" font-size="11" lengthAdjust="spacing" textLength="156" x="878" y="277.5449">+validateParameterCategory(pc)</text><text fill="#000000" font-family="sans-serif" font-size="11" lengthAdjust="spacing" textLength="143" x="878" y="291.3808">+saveParameterCategory(pc)</text><text fill="#000000" font-family="sans-serif" font-size="11" lengthAdjust="spacing" textLength="137" x="878" y="305.2168">+addParameterCategory(pc)</text><text fill="#000000" font-family="sans-serif" font-size="11" lengthAdjust="spacing" textLength="122" x="878" y="319.0527">+getParameterCategory()</text><text fill="#000000" font-family="sans-serif" font-size="11" lengthAdjust="spacing" textLength="81" x="878" y="332.8886">+getCategories()</text><!--MD5=[02e4b9b7573f1156f41e60aa5b4e25a4]
class Company--><rect codeLine="30" fill="#FEFECE" filter="url(#fmhiqrg0mt250)" height="89.5078" id="Company" style="stroke:#A80036;stroke-width:1.5;" width="160" x="544" y="128.79"/><ellipse cx="593.25" cy="144.79" fill="#ADD1B2" rx="11" ry="11" style="stroke:#A80036;stroke-width:1.0;"/><path d="M595.25,141.29 Q595.4531,140.79 595.6875,140.54 Q595.9219,140.29 596.1875,140.29 Q596.6563,140.29 596.9531,140.5713 Q597.25,140.8525 597.25,141.5088 L597.25,143.0713 Q597.25,143.7275 596.9688,144.0088 Q596.6875,144.29 596.25,144.29 Q595.8594,144.29 595.6094,144.1181 Q595.3594,143.9463 595.25,143.4931 Q595.2031,143.1806 595.0313,143.0088 Q594.7188,142.6806 594.1563,142.4931 Q593.5938,142.29 593.0313,142.29 Q592.3281,142.29 591.7344,142.5713 Q591.1563,142.8525 590.7031,143.4775 Q590.25,144.1025 590.25,144.9619 L590.25,145.8838 Q590.25,146.915 591.0938,147.6025 Q591.9375,148.29 593.4375,148.29 Q594.3281,148.29 594.9531,148.0869 Q595.3125,147.9775 595.7188,147.6181 Q595.9844,147.415 596.125,147.3525 Q596.2656,147.29 596.4375,147.29 Q596.7656,147.29 597,147.5556 Q597.25,147.8056 597.25,148.165 Q597.25,148.5088 596.9063,148.915 Q596.4063,149.5088 595.6094,149.8369 Q594.5625,150.29 593.2813,150.29 Q591.7813,150.29 590.5781,149.6963 Q589.6094,149.2275 588.9219,148.2119 Q588.25,147.1963 588.25,145.9931 L588.25,144.8994 Q588.25,143.6494 588.8438,142.5556 Q589.4531,141.4619 590.5,140.8838 Q591.5625,140.29 592.75,140.29 Q593.4688,140.29 594.0938,140.54 Q594.7188,140.79 595.25,141.29 Z " fill="#000000"/><text fill="#000000" font-family="sans-serif" font-size="12" lengthAdjust="spacing" textLength="53" x="613.75" y="149.7002">Company</text><line style="stroke:#A80036;stroke-width:1.5;" x1="545" x2="703" y1="160.79" y2="160.79"/><text fill="#000000" font-family="sans-serif" font-size="11" lengthAdjust="spacing" textLength="64" x="550" y="176.2089">-chemicalLab</text><line style="stroke:#A80036;stroke-width:1.5;" x1="545" x2="703" y1="182.6259" y2="182.6259"/><text fill="#000000" font-family="sans-serif" font-size="11" lengthAdjust="spacing" textLength="148" x="550" y="198.0449">+getParameterCategoryStore()</text><text fill="#000000" font-family="sans-serif" font-size="11" lengthAdjust="spacing" textLength="104" x="550" y="211.8808">+getParameterStore()</text><!--MD5=[5518e6815e09c51d4db6e17774f331d2]
class CreateParameterUI--><rect codeLine="36" fill="#FEFECE" filter="url(#fmhiqrg0mt250)" height="48" id="CreateParameterUI" style="stroke:#A80036;stroke-width:1.5;" width="139" x="7" y="149.79"/><ellipse cx="22" cy="165.79" fill="#ADD1B2" rx="11" ry="11" style="stroke:#A80036;stroke-width:1.0;"/><path d="M24,162.29 Q24.2031,161.79 24.4375,161.54 Q24.6719,161.29 24.9375,161.29 Q25.4063,161.29 25.7031,161.5713 Q26,161.8525 26,162.5088 L26,164.0713 Q26,164.7275 25.7188,165.0088 Q25.4375,165.29 25,165.29 Q24.6094,165.29 24.3594,165.1181 Q24.1094,164.9463 24,164.4931 Q23.9531,164.1806 23.7813,164.0088 Q23.4688,163.6806 22.9063,163.4931 Q22.3438,163.29 21.7813,163.29 Q21.0781,163.29 20.4844,163.5713 Q19.9063,163.8525 19.4531,164.4775 Q19,165.1025 19,165.9619 L19,166.8838 Q19,167.915 19.8438,168.6025 Q20.6875,169.29 22.1875,169.29 Q23.0781,169.29 23.7031,169.0869 Q24.0625,168.9775 24.4688,168.6181 Q24.7344,168.415 24.875,168.3525 Q25.0156,168.29 25.1875,168.29 Q25.5156,168.29 25.75,168.5556 Q26,168.8056 26,169.165 Q26,169.5088 25.6563,169.915 Q25.1563,170.5088 24.3594,170.8369 Q23.3125,171.29 22.0313,171.29 Q20.5313,171.29 19.3281,170.6963 Q18.3594,170.2275 17.6719,169.2119 Q17,168.1963 17,166.9931 L17,165.8994 Q17,164.6494 17.5938,163.5556 Q18.2031,162.4619 19.25,161.8838 Q20.3125,161.29 21.5,161.29 Q22.2188,161.29 22.8438,161.54 Q23.4688,161.79 24,162.29 Z " fill="#000000"/><text fill="#000000" font-family="sans-serif" font-size="12" lengthAdjust="spacing" textLength="107" x="36" y="170.7002">CreateParameterUI</text><line style="stroke:#A80036;stroke-width:1.5;" x1="8" x2="145" y1="181.79" y2="181.79"/><line style="stroke:#A80036;stroke-width:1.5;" x1="8" x2="145" y1="189.79" y2="189.79"/><!--MD5=[b9009a04d919d78a73c2eeec1e385786]
class CreateParameterController--><rect codeLine="38" fill="#FEFECE" filter="url(#fmhiqrg0mt250)" height="89.5078" id="CreateParameterController" style="stroke:#A80036;stroke-width:1.5;" width="227" x="207" y="128.79"/><ellipse cx="242.7" cy="144.79" fill="#ADD1B2" rx="11" ry="11" style="stroke:#A80036;stroke-width:1.0;"/><path d="M244.7,141.29 Q244.9031,140.79 245.1375,140.54 Q245.3719,140.29 245.6375,140.29 Q246.1063,140.29 246.4031,140.5713 Q246.7,140.8525 246.7,141.5088 L246.7,143.0713 Q246.7,143.7275 246.4188,144.0088 Q246.1375,144.29 245.7,144.29 Q245.3094,144.29 245.0594,144.1181 Q244.8094,143.9463 244.7,143.4931 Q244.6531,143.1806 244.4813,143.0088 Q244.1688,142.6806 243.6063,142.4931 Q243.0438,142.29 242.4813,142.29 Q241.7781,142.29 241.1844,142.5713 Q240.6063,142.8525 240.1531,143.4775 Q239.7,144.1025 239.7,144.9619 L239.7,145.8838 Q239.7,146.915 240.5438,147.6025 Q241.3875,148.29 242.8875,148.29 Q243.7781,148.29 244.4031,148.0869 Q244.7625,147.9775 245.1688,147.6181 Q245.4344,147.415 245.575,147.3525 Q245.7156,147.29 245.8875,147.29 Q246.2156,147.29 246.45,147.5556 Q246.7,147.8056 246.7,148.165 Q246.7,148.5088 246.3563,148.915 Q245.8563,149.5088 245.0594,149.8369 Q244.0125,150.29 242.7313,150.29 Q241.2313,150.29 240.0281,149.6963 Q239.0594,149.2275 238.3719,148.2119 Q237.7,147.1963 237.7,145.9931 L237.7,144.8994 Q237.7,143.6494 238.2938,142.5556 Q238.9031,141.4619 239.95,140.8838 Q241.0125,140.29 242.2,140.29 Q242.9188,140.29 243.5438,140.54 Q244.1688,140.79 244.7,141.29 Z " fill="#000000"/><text fill="#000000" font-family="sans-serif" font-size="12" lengthAdjust="spacing" textLength="149" x="261.3" y="149.7002">CreateParameterController</text><line style="stroke:#A80036;stroke-width:1.5;" x1="208" x2="433" y1="160.79" y2="160.79"/><line style="stroke:#A80036;stroke-width:1.5;" x1="208" x2="433" y1="168.79" y2="168.79"/><text fill="#000000" font-family="sans-serif" font-size="11" lengthAdjust="spacing" textLength="147" x="213" y="184.2089">+createParameter(code,name)</text><text fill="#000000" font-family="sans-serif" font-size="11" lengthAdjust="spacing" textLength="87" x="213" y="198.0449">+saveParameter()</text><text fill="#000000" font-family="sans-serif" font-size="11" lengthAdjust="spacing" textLength="215" x="213" y="211.8808">+List&lt;CategoriesDTO&gt; getListOfCategories()</text><!--MD5=[d63babda4aaccf35fa117b37a096c517]
class CategoriesMapper--><rect codeLine="44" fill="#FEFECE" filter="url(#fmhiqrg0mt250)" height="75.6719" id="CategoriesMapper" style="stroke:#A80036;stroke-width:1.5;" width="258" x="495" y="324.79"/><ellipse cx="568.75" cy="340.79" fill="#ADD1B2" rx="11" ry="11" style="stroke:#A80036;stroke-width:1.0;"/><path d="M570.75,337.29 Q570.9531,336.79 571.1875,336.54 Q571.4219,336.29 571.6875,336.29 Q572.1563,336.29 572.4531,336.5713 Q572.75,336.8525 572.75,337.5088 L572.75,339.0713 Q572.75,339.7275 572.4688,340.0088 Q572.1875,340.29 571.75,340.29 Q571.3594,340.29 571.1094,340.1181 Q570.8594,339.9463 570.75,339.4931 Q570.7031,339.1806 570.5313,339.0088 Q570.2188,338.6806 569.6563,338.4931 Q569.0938,338.29 568.5313,338.29 Q567.8281,338.29 567.2344,338.5713 Q566.6563,338.8525 566.2031,339.4775 Q565.75,340.1025 565.75,340.9619 L565.75,341.8838 Q565.75,342.915 566.5938,343.6025 Q567.4375,344.29 568.9375,344.29 Q569.8281,344.29 570.4531,344.0869 Q570.8125,343.9775 571.2188,343.6181 Q571.4844,343.415 571.625,343.3525 Q571.7656,343.29 571.9375,343.29 Q572.2656,343.29 572.5,343.5556 Q572.75,343.8056 572.75,344.165 Q572.75,344.5088 572.4063,344.915 Q571.9063,345.5088 571.1094,345.8369 Q570.0625,346.29 568.7813,346.29 Q567.2813,346.29 566.0781,345.6963 Q565.1094,345.2275 564.4219,344.2119 Q563.75,343.1963 563.75,341.9931 L563.75,340.8994 Q563.75,339.6494 564.3438,338.5556 Q564.9531,337.4619 566,336.8838 Q567.0625,336.29 568.25,336.29 Q568.9688,336.29 569.5938,336.54 Q570.2188,336.79 570.75,337.29 Z " fill="#000000"/><text fill="#000000" font-family="sans-serif" font-size="12" lengthAdjust="spacing" textLength="102" x="589.25" y="345.7002">CategoriesMapper</text><line style="stroke:#A80036;stroke-width:1.5;" x1="496" x2="752" y1="356.79" y2="356.79"/><line style="stroke:#A80036;stroke-width:1.5;" x1="496" x2="752" y1="364.79" y2="364.79"/><text fill="#000000" font-family="sans-serif" font-size="11" lengthAdjust="spacing" textLength="246" x="501" y="380.2089">+List&lt;CategoriesDTO&gt; toDTO(List&lt;Categories&gt; list)</text><text fill="#000000" font-family="sans-serif" font-size="11" lengthAdjust="spacing" textLength="189" x="501" y="394.0449">+CategoriesDTO toDTO(Categories obj)</text><!--MD5=[9d3dd688f78c4545f26622cd23f9dd25]
link CreateParameterUI to CreateParameterController--><path codeLine="52" d="M146.2,173.79 C163.44,173.79 182.44,173.79 201.35,173.79 " fill="none" id="CreateParameterUI-to-CreateParameterController" style="stroke:#A80036;stroke-width:1.0;stroke-dasharray:7.0,7.0;"/><polygon fill="#A80036" points="206.68,173.79,197.68,169.79,201.68,173.79,197.68,177.79,206.68,173.79" style="stroke:#A80036;stroke-width:1.0;"/><!--MD5=[6d585fb02c26694275539b4f1508918e]
link CreateParameterController to Company--><path codeLine="53" d="M434.2,173.79 C468.81,173.79 506.28,173.79 538.65,173.79 " fill="none" id="CreateParameterController-to-Company" style="stroke:#A80036;stroke-width:1.0;stroke-dasharray:7.0,7.0;"/><polygon fill="#A80036" points="543.8,173.79,534.8,169.79,538.8,173.79,534.8,177.79,543.8,173.79" style="stroke:#A80036;stroke-width:1.0;"/><!--MD5=[c56d23af98be554523068ac4fbdb568e]
link CreateParameterController to Parameter--><path codeLine="54" d="M385.86,128.54 C417.26,109.06 456.49,88.36 495,77.79 C756.55,6 832.85,32.47 1104,38.79 C1170.72,40.35 1187.67,38.45 1254,45.79 C1262.05,46.68 1270.55,47.91 1278.81,49.25 " fill="none" id="CreateParameterController-to-Parameter" style="stroke:#A80036;stroke-width:1.0;stroke-dasharray:7.0,7.0;"/><polygon fill="#A80036" points="1283.92,50.1,1275.6924,44.6864,1278.9869,49.285,1274.3883,52.5794,1283.92,50.1" style="stroke:#A80036;stroke-width:1.0;"/><!--MD5=[46706d5726812879537e05899d80bc9e]
link CreateParameterController to ParameterStore--><path codeLine="55" d="M429.64,128.75 C450.95,121.71 473.41,115.53 495,111.79 C609.35,91.97 741.43,94.73 837.66,101.29 " fill="none" id="CreateParameterController-to-ParameterStore" style="stroke:#A80036;stroke-width:1.0;stroke-dasharray:7.0,7.0;"/><polygon fill="#A80036" points="842.79,101.65,834.0856,97.042,837.8018,101.307,833.5368,105.0231,842.79,101.65" style="stroke:#A80036;stroke-width:1.0;"/><!--MD5=[d4acd0f9b6f472dc8c1d58fc6da00ca5]
link CreateParameterController to ParameterCategoryStore--><path codeLine="56" d="M431.72,218.85 C452.45,225.88 474.17,232.29 495,236.79 C620.75,263.96 768.93,271.81 866.49,273.76 " fill="none" id="CreateParameterController-to-ParameterCategoryStore" style="stroke:#A80036;stroke-width:1.0;stroke-dasharray:7.0,7.0;"/><polygon fill="#A80036" points="871.68,273.86,862.7618,269.6808,866.681,273.76,862.6018,277.6792,871.68,273.86" style="stroke:#A80036;stroke-width:1.0;"/><!--MD5=[1890845a8958533c6f74c90e74f302d7]
link CreateParameterController to CategoriesMapper--><path codeLine="57" d="M365.63,218.98 C392.36,244.53 428.12,275.69 464,297.79 C478.74,306.87 494.97,315.17 511.25,322.58 " fill="none" id="CreateParameterController-to-CategoriesMapper" style="stroke:#A80036;stroke-width:1.0;stroke-dasharray:7.0,7.0;"/><polygon fill="#A80036" points="515.85,324.65,509.2736,317.3185,511.2875,322.6047,506.0012,324.6185,515.85,324.65" style="stroke:#A80036;stroke-width:1.0;"/><!--MD5=[a0dfdbafa24c42482eca2931f2f0f86e]
link CategoriesMapper to ParameterCategoryStore--><path codeLine="58" d="M753.41,329.9 C790.63,320.37 830.84,310.07 866.53,300.93 " fill="none" id="CategoriesMapper-to-ParameterCategoryStore" style="stroke:#A80036;stroke-width:1.0;stroke-dasharray:7.0,7.0;"/><polygon fill="#A80036" points="871.76,299.59,862.0482,297.9528,866.9169,300.8329,864.0368,305.7017,871.76,299.59" style="stroke:#A80036;stroke-width:1.0;"/><!--MD5=[d53d7490e5836ca5709858d7326f212b]
link Company to ParameterCategoryStore--><path codeLine="59" d="M704.29,196.61 C752.41,210.46 814.43,228.3 866.71,243.35 " fill="none" id="Company-to-ParameterCategoryStore" style="stroke:#A80036;stroke-width:1.0;"/><polygon fill="#A80036" points="871.73,244.79,864.1926,238.4507,866.9262,243.4032,861.9737,246.1368,871.73,244.79" style="stroke:#A80036;stroke-width:1.0;"/><text fill="#000000" font-family="sans-serif" font-size="13" lengthAdjust="spacing" textLength="28" x="784" y="217.2851">uses</text><text fill="#000000" font-family="sans-serif" font-size="13" lengthAdjust="spacing" textLength="7" x="712.0144" y="212.9852">1</text><text fill="#000000" font-family="sans-serif" font-size="13" lengthAdjust="spacing" textLength="7" x="856.9992" y="256.7553">1</text><!--MD5=[daf3d7412afa2c7651483be0b6e971d1]
link Company to ParameterStore--><path codeLine="60" d="M704.29,160.33 C743.73,153.63 792.51,145.35 837.6,137.69 " fill="none" id="Company-to-ParameterStore" style="stroke:#A80036;stroke-width:1.0;"/><polygon fill="#A80036" points="842.8,136.81,833.2614,134.3575,837.8692,137.6389,834.5877,142.2467,842.8,136.81" style="stroke:#A80036;stroke-width:1.0;"/><text fill="#000000" font-family="sans-serif" font-size="13" lengthAdjust="spacing" textLength="28" x="784" y="138.2851">uses</text><text fill="#000000" font-family="sans-serif" font-size="13" lengthAdjust="spacing" textLength="7" x="712.0144" y="173.3607">1</text><text fill="#000000" font-family="sans-serif" font-size="13" lengthAdjust="spacing" textLength="7" x="828.0416" y="152.0456">1</text><!--MD5=[a0992dda039fed1bb57aff5aacace800]
link ParameterStore to Parameter--><path codeLine="61" d="M1104.12,94.26 C1164.84,84.64 1233.56,73.75 1278.66,66.61 " fill="none" id="ParameterStore-to-Parameter" style="stroke:#A80036;stroke-width:1.0;"/><polygon fill="#A80036" points="1283.77,65.8,1274.2536,63.2625,1278.832,66.5849,1275.5096,71.1633,1283.77,65.8" style="stroke:#A80036;stroke-width:1.0;"/><text fill="#000000" font-family="sans-serif" font-size="13" lengthAdjust="spacing" textLength="118" x="1135" y="68.2851">capable of analysing</text><text fill="#000000" font-family="sans-serif" font-size="13" lengthAdjust="spacing" textLength="7" x="1111.8738" y="107.0357">1</text><text fill="#000000" font-family="sans-serif" font-size="13" lengthAdjust="spacing" textLength="5" x="1270.8647" y="81.7818">*</text><!--MD5=[3a6608d54a73513ba3abc32fb7b35f92]
@startuml
skinparam classAttributeIconSize 0
left to right direction

class Parameter {
  -code
  -name
  -description
  -category
}

class ParameterStore{
    +createParameter(code,name,description,category)
    +validateParameter(pr)
    +saveParameter(pr)
    +addParameter(pr)
    +getParameter()
}



class ParameterCategoryStore{
    +createParameterCategory(code,name)
    +validateParameterCategory(pc)
    +saveParameterCategory(pc)
    +addParameterCategory(pc)
    +getParameterCategory()
    +getCategories()
}

class Company {
  -chemicalLab
  +getParameterCategoryStore()
  +getParameterStore()
}

class CreateParameterUI{}

class CreateParameterController{
    +createParameter(code,name)
    +saveParameter()
    +List<CategoriesDTO> getListOfCategories()
}

class CategoriesMapper{
    +List<CategoriesDTO> toDTO(List<Categories> list)
    +CategoriesDTO toDTO(Categories obj)
}




CreateParameterUI ..> CreateParameterController
CreateParameterController ..> Company
CreateParameterController ..> Parameter
CreateParameterController ..> ParameterStore
CreateParameterController ..> ParameterCategoryStore
CreateParameterController ..> CategoriesMapper
CategoriesMapper ..> ParameterCategoryStore
Company "1" - -> "1" ParameterCategoryStore : uses
Company "1" - -> "1" ParameterStore : uses
ParameterStore "1" - -> "*" Parameter : capable of analysing


@enduml

PlantUML version 1.2021.2(Sun Mar 07 11:10:27 GMT 2021)
(GPL source distribution)
Java Runtime: OpenJDK Runtime Environment
JVM: OpenJDK 64-Bit Server VM
Default Encoding: Cp1252
Language: pt
Country: PT
--></g></svg>