<?xml version="1.0" encoding="UTF-8" standalone="no"?><svg xmlns="http://www.w3.org/2000/svg" xmlns:xlink="http://www.w3.org/1999/xlink" contentScriptType="application/ecmascript" contentStyleType="text/css" height="580px" preserveAspectRatio="none" style="width:740px;height:580px;" version="1.1" viewBox="0 0 740 580" width="740px" zoomAndPan="magnify"><defs><filter height="300%" id="famlamzhnw1gm" width="300%" x="-1" y="-1"><feGaussianBlur result="blurOut" stdDeviation="2.5"/><feColorMatrix in="blurOut" result="blurOut2" type="matrix" values="0 0 0 0 0 0 0 0 0 0 0 0 0 0 0 0 0 0 .4 0"/><feOffset dx="5.0" dy="5.0" in="blurOut2" result="blurOut3"/><feBlend in="SourceGraphic" in2="blurOut3" mode="normal"/></filter></defs><g><!--MD5=[99b8db98afdc2c8404e39242ef4c1e65]
class Platform--><rect codeLine="5" fill="#FEFECE" filter="url(#famlamzhnw1gm)" height="67.2949" id="Platform" style="stroke:#A80036;stroke-width:1.875;" width="97.5" x="548.75" y="8.75"/><ellipse cx="567.5" cy="28.75" fill="#ADD1B2" rx="13.75" ry="13.75" style="stroke:#A80036;stroke-width:1.25;"/><path d="M570,24.375 Q570.2539,23.75 570.5469,23.4375 Q570.8398,23.125 571.1719,23.125 Q571.7578,23.125 572.1289,23.4766 Q572.5,23.8281 572.5,24.6484 L572.5,26.6016 Q572.5,27.4219 572.1484,27.7734 Q571.7969,28.125 571.25,28.125 Q570.7617,28.125 570.4492,27.9102 Q570.1367,27.6953 570,27.1289 Q569.9414,26.7383 569.7266,26.5234 Q569.3359,26.1133 568.6328,25.8789 Q567.9297,25.625 567.2266,25.625 Q566.3477,25.625 565.6055,25.9766 Q564.8828,26.3281 564.3164,27.1094 Q563.75,27.8906 563.75,28.9648 L563.75,30.1172 Q563.75,31.4063 564.8047,32.2656 Q565.8594,33.125 567.7344,33.125 Q568.8477,33.125 569.6289,32.8711 Q570.0781,32.7344 570.5859,32.2852 Q570.918,32.0313 571.0938,31.9531 Q571.2695,31.875 571.4844,31.875 Q571.8945,31.875 572.1875,32.207 Q572.5,32.5195 572.5,32.9688 Q572.5,33.3984 572.0703,33.9063 Q571.4453,34.6484 570.4492,35.0586 Q569.1406,35.625 567.5391,35.625 Q565.6641,35.625 564.1602,34.8828 Q562.9492,34.2969 562.0898,33.0273 Q561.25,31.7578 561.25,30.2539 L561.25,28.8867 Q561.25,27.3242 561.9922,25.957 Q562.7539,24.5898 564.0625,23.8672 Q565.3906,23.125 566.875,23.125 Q567.7734,23.125 568.5547,23.4375 Q569.3359,23.75 570,24.375 Z " fill="#000000"/><text fill="#000000" font-family="sans-serif" font-size="15" lengthAdjust="spacing" textLength="57.5" x="585" y="34.8877">Platform</text><line style="stroke:#A80036;stroke-width:1.875;" x1="550" x2="645" y1="48.75" y2="48.75"/><text fill="#000000" font-family="sans-serif" font-size="13.75" lengthAdjust="spacing" textLength="73.75" x="556.25" y="68.0237">-designation</text><!--MD5=[7d96fd15f3014691d2fcaf89c5791e2a]
class SpecialistDoctor--><rect codeLine="9" fill="#FEFECE" filter="url(#famlamzhnw1gm)" height="67.2949" id="SpecialistDoctor" style="stroke:#A80036;stroke-width:1.875;" width="152.5" x="521.25" y="120"/><ellipse cx="540" cy="140" fill="#ADD1B2" rx="13.75" ry="13.75" style="stroke:#A80036;stroke-width:1.25;"/><path d="M542.5,135.625 Q542.7539,135 543.0469,134.6875 Q543.3398,134.375 543.6719,134.375 Q544.2578,134.375 544.6289,134.7266 Q545,135.0781 545,135.8984 L545,137.8516 Q545,138.6719 544.6484,139.0234 Q544.2969,139.375 543.75,139.375 Q543.2617,139.375 542.9492,139.1602 Q542.6367,138.9453 542.5,138.3789 Q542.4414,137.9883 542.2266,137.7734 Q541.8359,137.3633 541.1328,137.1289 Q540.4297,136.875 539.7266,136.875 Q538.8477,136.875 538.1055,137.2266 Q537.3828,137.5781 536.8164,138.3594 Q536.25,139.1406 536.25,140.2148 L536.25,141.3672 Q536.25,142.6563 537.3047,143.5156 Q538.3594,144.375 540.2344,144.375 Q541.3477,144.375 542.1289,144.1211 Q542.5781,143.9844 543.0859,143.5352 Q543.418,143.2813 543.5938,143.2031 Q543.7695,143.125 543.9844,143.125 Q544.3945,143.125 544.6875,143.457 Q545,143.7695 545,144.2188 Q545,144.6484 544.5703,145.1563 Q543.9453,145.8984 542.9492,146.3086 Q541.6406,146.875 540.0391,146.875 Q538.1641,146.875 536.6602,146.1328 Q535.4492,145.5469 534.5898,144.2773 Q533.75,143.0078 533.75,141.5039 L533.75,140.1367 Q533.75,138.5742 534.4922,137.207 Q535.2539,135.8398 536.5625,135.1172 Q537.8906,134.375 539.375,134.375 Q540.2734,134.375 541.0547,134.6875 Q541.8359,135 542.5,135.625 Z " fill="#000000"/><text fill="#000000" font-family="sans-serif" font-size="15" lengthAdjust="spacing" textLength="112.5" x="557.5" y="146.1377">SpecialistDoctor</text><line style="stroke:#A80036;stroke-width:1.875;" x1="522.5" x2="672.5" y1="160" y2="160"/><text fill="#000000" font-family="sans-serif" font-size="13.75" lengthAdjust="spacing" textLength="122.5" x="528.75" y="179.2737">-doctorIndexNumber</text><!--MD5=[03960189e81aa2c066c762ffabbee709]
class Receptionist--><rect codeLine="13" fill="#FEFECE" filter="url(#famlamzhnw1gm)" height="50" id="Receptionist" style="stroke:#A80036;stroke-width:1.875;" width="126.25" x="534.375" y="231.25"/><ellipse cx="553.125" cy="251.25" fill="#ADD1B2" rx="13.75" ry="13.75" style="stroke:#A80036;stroke-width:1.25;"/><path d="M555.625,246.875 Q555.8789,246.25 556.1719,245.9375 Q556.4648,245.625 556.7969,245.625 Q557.3828,245.625 557.7539,245.9766 Q558.125,246.3281 558.125,247.1484 L558.125,249.1016 Q558.125,249.9219 557.7734,250.2734 Q557.4219,250.625 556.875,250.625 Q556.3867,250.625 556.0742,250.4102 Q555.7617,250.1953 555.625,249.6289 Q555.5664,249.2383 555.3516,249.0234 Q554.9609,248.6133 554.2578,248.3789 Q553.5547,248.125 552.8516,248.125 Q551.9727,248.125 551.2305,248.4766 Q550.5078,248.8281 549.9414,249.6094 Q549.375,250.3906 549.375,251.4648 L549.375,252.6172 Q549.375,253.9063 550.4297,254.7656 Q551.4844,255.625 553.3594,255.625 Q554.4727,255.625 555.2539,255.3711 Q555.7031,255.2344 556.2109,254.7852 Q556.543,254.5313 556.7188,254.4531 Q556.8945,254.375 557.1094,254.375 Q557.5195,254.375 557.8125,254.707 Q558.125,255.0195 558.125,255.4688 Q558.125,255.8984 557.6953,256.4063 Q557.0703,257.1484 556.0742,257.5586 Q554.7656,258.125 553.1641,258.125 Q551.2891,258.125 549.7852,257.3828 Q548.5742,256.7969 547.7148,255.5273 Q546.875,254.2578 546.875,252.7539 L546.875,251.3867 Q546.875,249.8242 547.6172,248.457 Q548.3789,247.0898 549.6875,246.3672 Q551.0156,245.625 552.5,245.625 Q553.3984,245.625 554.1797,245.9375 Q554.9609,246.25 555.625,246.875 Z " fill="#000000"/><text fill="#000000" font-family="sans-serif" font-size="15" lengthAdjust="spacing" textLength="86.25" x="570.625" y="257.3877">Receptionist</text><line style="stroke:#A80036;stroke-width:1.875;" x1="535.625" x2="659.375" y1="271.25" y2="271.25"/><!--MD5=[01931d41e78f8996acd44f6f0fd8de28]
class MedicalLabTechnician--><rect codeLine="15" fill="#FEFECE" filter="url(#famlamzhnw1gm)" height="50" id="MedicalLabTechnician" style="stroke:#A80036;stroke-width:1.875;" width="193.75" x="500.625" y="325"/><ellipse cx="519.375" cy="345" fill="#ADD1B2" rx="13.75" ry="13.75" style="stroke:#A80036;stroke-width:1.25;"/><path d="M521.875,340.625 Q522.1289,340 522.4219,339.6875 Q522.7148,339.375 523.0469,339.375 Q523.6328,339.375 524.0039,339.7266 Q524.375,340.0781 524.375,340.8984 L524.375,342.8516 Q524.375,343.6719 524.0234,344.0234 Q523.6719,344.375 523.125,344.375 Q522.6367,344.375 522.3242,344.1602 Q522.0117,343.9453 521.875,343.3789 Q521.8164,342.9883 521.6016,342.7734 Q521.2109,342.3633 520.5078,342.1289 Q519.8047,341.875 519.1016,341.875 Q518.2227,341.875 517.4805,342.2266 Q516.7578,342.5781 516.1914,343.3594 Q515.625,344.1406 515.625,345.2148 L515.625,346.3672 Q515.625,347.6563 516.6797,348.5156 Q517.7344,349.375 519.6094,349.375 Q520.7227,349.375 521.5039,349.1211 Q521.9531,348.9844 522.4609,348.5352 Q522.793,348.2813 522.9688,348.2031 Q523.1445,348.125 523.3594,348.125 Q523.7695,348.125 524.0625,348.457 Q524.375,348.7695 524.375,349.2188 Q524.375,349.6484 523.9453,350.1563 Q523.3203,350.8984 522.3242,351.3086 Q521.0156,351.875 519.4141,351.875 Q517.5391,351.875 516.0352,351.1328 Q514.8242,350.5469 513.9648,349.2773 Q513.125,348.0078 513.125,346.5039 L513.125,345.1367 Q513.125,343.5742 513.8672,342.207 Q514.6289,340.8398 515.9375,340.1172 Q517.2656,339.375 518.75,339.375 Q519.6484,339.375 520.4297,339.6875 Q521.2109,340 521.875,340.625 Z " fill="#000000"/><text fill="#000000" font-family="sans-serif" font-size="15" lengthAdjust="spacing" textLength="153.75" x="536.875" y="351.1377">MedicalLabTechnician</text><line style="stroke:#A80036;stroke-width:1.875;" x1="501.875" x2="693.125" y1="365" y2="365"/><!--MD5=[012ee2a8bf3ae2b319009b06f951c2e5]
class ClinicalChemistryTechnologist--><rect codeLine="17" fill="#FEFECE" filter="url(#famlamzhnw1gm)" height="50" id="ClinicalChemistryTechnologist" style="stroke:#A80036;stroke-width:1.875;" width="250" x="472.5" y="418.75"/><ellipse cx="491.25" cy="438.75" fill="#ADD1B2" rx="13.75" ry="13.75" style="stroke:#A80036;stroke-width:1.25;"/><path d="M493.75,434.375 Q494.0039,433.75 494.2969,433.4375 Q494.5898,433.125 494.9219,433.125 Q495.5078,433.125 495.8789,433.4766 Q496.25,433.8281 496.25,434.6484 L496.25,436.6016 Q496.25,437.4219 495.8984,437.7734 Q495.5469,438.125 495,438.125 Q494.5117,438.125 494.1992,437.9102 Q493.8867,437.6953 493.75,437.1289 Q493.6914,436.7383 493.4766,436.5234 Q493.0859,436.1133 492.3828,435.8789 Q491.6797,435.625 490.9766,435.625 Q490.0977,435.625 489.3555,435.9766 Q488.6328,436.3281 488.0664,437.1094 Q487.5,437.8906 487.5,438.9648 L487.5,440.1172 Q487.5,441.4063 488.5547,442.2656 Q489.6094,443.125 491.4844,443.125 Q492.5977,443.125 493.3789,442.8711 Q493.8281,442.7344 494.3359,442.2852 Q494.668,442.0313 494.8438,441.9531 Q495.0195,441.875 495.2344,441.875 Q495.6445,441.875 495.9375,442.207 Q496.25,442.5195 496.25,442.9688 Q496.25,443.3984 495.8203,443.9063 Q495.1953,444.6484 494.1992,445.0586 Q492.8906,445.625 491.2891,445.625 Q489.4141,445.625 487.9102,444.8828 Q486.6992,444.2969 485.8398,443.0273 Q485,441.7578 485,440.2539 L485,438.8867 Q485,437.3242 485.7422,435.957 Q486.5039,434.5898 487.8125,433.8672 Q489.1406,433.125 490.625,433.125 Q491.5234,433.125 492.3047,433.4375 Q493.0859,433.75 493.75,434.375 Z " fill="#000000"/><text fill="#000000" font-family="sans-serif" font-size="15" lengthAdjust="spacing" textLength="210" x="508.75" y="444.8877">ClinicalChemistryTechnologist</text><line style="stroke:#A80036;stroke-width:1.875;" x1="473.75" x2="721.25" y1="458.75" y2="458.75"/><!--MD5=[052425de1c0eb6cc1c1b48342b0bb88f]
class LaboratoryCoordinator--><rect codeLine="19" fill="#FEFECE" filter="url(#famlamzhnw1gm)" height="50" id="LaboratoryCoordinator" style="stroke:#A80036;stroke-width:1.875;" width="193.75" x="500.625" y="512.5"/><ellipse cx="519.375" cy="532.5" fill="#ADD1B2" rx="13.75" ry="13.75" style="stroke:#A80036;stroke-width:1.25;"/><path d="M521.875,528.125 Q522.1289,527.5 522.4219,527.1875 Q522.7148,526.875 523.0469,526.875 Q523.6328,526.875 524.0039,527.2266 Q524.375,527.5781 524.375,528.3984 L524.375,530.3516 Q524.375,531.1719 524.0234,531.5234 Q523.6719,531.875 523.125,531.875 Q522.6367,531.875 522.3242,531.6602 Q522.0117,531.4453 521.875,530.8789 Q521.8164,530.4883 521.6016,530.2734 Q521.2109,529.8633 520.5078,529.6289 Q519.8047,529.375 519.1016,529.375 Q518.2227,529.375 517.4805,529.7266 Q516.7578,530.0781 516.1914,530.8594 Q515.625,531.6406 515.625,532.7148 L515.625,533.8672 Q515.625,535.1563 516.6797,536.0156 Q517.7344,536.875 519.6094,536.875 Q520.7227,536.875 521.5039,536.6211 Q521.9531,536.4844 522.4609,536.0352 Q522.793,535.7813 522.9688,535.7031 Q523.1445,535.625 523.3594,535.625 Q523.7695,535.625 524.0625,535.957 Q524.375,536.2695 524.375,536.7188 Q524.375,537.1484 523.9453,537.6563 Q523.3203,538.3984 522.3242,538.8086 Q521.0156,539.375 519.4141,539.375 Q517.5391,539.375 516.0352,538.6328 Q514.8242,538.0469 513.9648,536.7773 Q513.125,535.5078 513.125,534.0039 L513.125,532.6367 Q513.125,531.0742 513.8672,529.707 Q514.6289,528.3398 515.9375,527.6172 Q517.2656,526.875 518.75,526.875 Q519.6484,526.875 520.4297,527.1875 Q521.2109,527.5 521.875,528.125 Z " fill="#000000"/><text fill="#000000" font-family="sans-serif" font-size="15" lengthAdjust="spacing" textLength="153.75" x="536.875" y="538.6377">LaboratoryCoordinator</text><line style="stroke:#A80036;stroke-width:1.875;" x1="501.875" x2="693.125" y1="552.5" y2="552.5"/><!--MD5=[02e4b9b7573f1156f41e60aa5b4e25a4]
class Company--><rect codeLine="21" fill="#FEFECE" filter="url(#famlamzhnw1gm)" height="67.2949" id="Company" style="stroke:#A80036;stroke-width:1.875;" width="106.25" x="8.75" y="270"/><ellipse cx="27.5" cy="290" fill="#ADD1B2" rx="13.75" ry="13.75" style="stroke:#A80036;stroke-width:1.25;"/><path d="M30,285.625 Q30.2539,285 30.5469,284.6875 Q30.8398,284.375 31.1719,284.375 Q31.7578,284.375 32.1289,284.7266 Q32.5,285.0781 32.5,285.8984 L32.5,287.8516 Q32.5,288.6719 32.1484,289.0234 Q31.7969,289.375 31.25,289.375 Q30.7617,289.375 30.4492,289.1602 Q30.1367,288.9453 30,288.3789 Q29.9414,287.9883 29.7266,287.7734 Q29.3359,287.3633 28.6328,287.1289 Q27.9297,286.875 27.2266,286.875 Q26.3477,286.875 25.6055,287.2266 Q24.8828,287.5781 24.3164,288.3594 Q23.75,289.1406 23.75,290.2148 L23.75,291.3672 Q23.75,292.6563 24.8047,293.5156 Q25.8594,294.375 27.7344,294.375 Q28.8477,294.375 29.6289,294.1211 Q30.0781,293.9844 30.5859,293.5352 Q30.918,293.2813 31.0938,293.2031 Q31.2695,293.125 31.4844,293.125 Q31.8945,293.125 32.1875,293.457 Q32.5,293.7695 32.5,294.2188 Q32.5,294.6484 32.0703,295.1563 Q31.4453,295.8984 30.4492,296.3086 Q29.1406,296.875 27.5391,296.875 Q25.6641,296.875 24.1602,296.1328 Q22.9492,295.5469 22.0898,294.2773 Q21.25,293.0078 21.25,291.5039 L21.25,290.1367 Q21.25,288.5742 21.9922,287.207 Q22.7539,285.8398 24.0625,285.1172 Q25.3906,284.375 26.875,284.375 Q27.7734,284.375 28.5547,284.6875 Q29.3359,285 30,285.625 Z " fill="#000000"/><text fill="#000000" font-family="sans-serif" font-size="15" lengthAdjust="spacing" textLength="66.25" x="45" y="296.1377">Company</text><line style="stroke:#A80036;stroke-width:1.875;" x1="10" x2="113.75" y1="310" y2="310"/><text fill="#000000" font-family="sans-serif" font-size="13.75" lengthAdjust="spacing" textLength="73.75" x="16.25" y="329.2737">-designation</text><!--MD5=[7421f545a0d8420c5bec41e74b387d9c]
class Employee--><rect codeLine="25" fill="#FEFECE" filter="url(#famlamzhnw1gm)" height="153.7695" id="Employee" style="stroke:#A80036;stroke-width:1.875;" width="108.75" x="235" y="226.875"/><ellipse cx="253.75" cy="246.875" fill="#ADD1B2" rx="13.75" ry="13.75" style="stroke:#A80036;stroke-width:1.25;"/><path d="M256.25,242.5 Q256.5039,241.875 256.7969,241.5625 Q257.0898,241.25 257.4219,241.25 Q258.0078,241.25 258.3789,241.6016 Q258.75,241.9531 258.75,242.7734 L258.75,244.7266 Q258.75,245.5469 258.3984,245.8984 Q258.0469,246.25 257.5,246.25 Q257.0117,246.25 256.6992,246.0352 Q256.3867,245.8203 256.25,245.2539 Q256.1914,244.8633 255.9766,244.6484 Q255.5859,244.2383 254.8828,244.0039 Q254.1797,243.75 253.4766,243.75 Q252.5977,243.75 251.8555,244.1016 Q251.1328,244.4531 250.5664,245.2344 Q250,246.0156 250,247.0898 L250,248.2422 Q250,249.5313 251.0547,250.3906 Q252.1094,251.25 253.9844,251.25 Q255.0977,251.25 255.8789,250.9961 Q256.3281,250.8594 256.8359,250.4102 Q257.168,250.1563 257.3438,250.0781 Q257.5195,250 257.7344,250 Q258.1445,250 258.4375,250.332 Q258.75,250.6445 258.75,251.0938 Q258.75,251.5234 258.3203,252.0313 Q257.6953,252.7734 256.6992,253.1836 Q255.3906,253.75 253.7891,253.75 Q251.9141,253.75 250.4102,253.0078 Q249.1992,252.4219 248.3398,251.1523 Q247.5,249.8828 247.5,248.3789 L247.5,247.0117 Q247.5,245.4492 248.2422,244.082 Q249.0039,242.7148 250.3125,241.9922 Q251.6406,241.25 253.125,241.25 Q254.0234,241.25 254.8047,241.5625 Q255.5859,241.875 256.25,242.5 Z " fill="#000000"/><text fill="#000000" font-family="sans-serif" font-size="15" lengthAdjust="spacing" textLength="68.75" x="271.25" y="253.0127">Employee</text><line style="stroke:#A80036;stroke-width:1.875;" x1="236.25" x2="342.5" y1="266.875" y2="266.875"/><text fill="#000000" font-family="sans-serif" font-size="13.75" lengthAdjust="spacing" textLength="37.5" x="242.5" y="286.1487">-name</text><text fill="#000000" font-family="sans-serif" font-size="13.75" lengthAdjust="spacing" textLength="53.75" x="242.5" y="303.4436">-function</text><text fill="#000000" font-family="sans-serif" font-size="13.75" lengthAdjust="spacing" textLength="88.75" x="242.5" y="320.7385">-phoneNumber</text><text fill="#000000" font-family="sans-serif" font-size="13.75" lengthAdjust="spacing" textLength="35" x="242.5" y="338.0334">-email</text><text fill="#000000" font-family="sans-serif" font-size="13.75" lengthAdjust="spacing" textLength="55" x="242.5" y="355.3284">-address</text><text fill="#000000" font-family="sans-serif" font-size="13.75" lengthAdjust="spacing" textLength="27.5" x="242.5" y="372.6233">-soc</text><!--MD5=[09366576ee87d48d594df10cacc83f45]
link Company to Employee--><path codeLine="34" d="M115.3125,303.75 C151.1375,303.75 198.5625,303.75 234.6625,303.75 " fill="none" id="Company-Employee" style="stroke:#A80036;stroke-width:1.25;"/><polygon fill="#000000" points="165,292.7197,153.6936,289.0461,153.6936,296.3934,165,292.7197" style="stroke:#000000;stroke-width:1.25;"/><text fill="#000000" font-family="sans-serif" font-size="16.25" lengthAdjust="spacing" textLength="26.25" x="170" y="299.3689">has</text><text fill="#000000" font-family="sans-serif" font-size="16.25" lengthAdjust="spacing" textLength="8.75" x="124.8877" y="322.3285">1</text><text fill="#000000" font-family="sans-serif" font-size="16.25" lengthAdjust="spacing" textLength="6.25" x="218.8332" y="322.3099">*</text><!--MD5=[dad08633360fb9f059c0c4df7f2e8d04]
link Employee to SpecialistDoctor--><path codeLine="35" d="M344.225,270.6375 C356.2625,263.575 369.075,256.3375 381.25,250 C426.775,226.3 479.3375,202.7125 521.0875,184.8125 " fill="none" id="Employee-SpecialistDoctor" style="stroke:#A80036;stroke-width:1.25;"/><polygon fill="#000000" points="393.1271,216.6983,404.9029,215.0673,401.6952,208.4572,393.1271,216.6983" style="stroke:#000000;stroke-width:1.25;"/><text fill="#000000" font-family="sans-serif" font-size="16.25" lengthAdjust="spacing" textLength="12.5" x="410" y="220.6189">is</text><text fill="#000000" font-family="sans-serif" font-size="16.25" lengthAdjust="spacing" textLength="8.75" x="353.664" y="283.8563">1</text><text fill="#000000" font-family="sans-serif" font-size="16.25" lengthAdjust="spacing" textLength="8.75" x="502.4915" y="206.7252">1</text><!--MD5=[1da12df22706e73e1def33b218b7f412]
link Employee to Receptionist--><path codeLine="36" d="M343.8625,295.475 C396.875,287.2375 478.2125,274.6 534.15,265.9 " fill="none" id="Employee-Receptionist" style="stroke:#A80036;stroke-width:1.25;"/><polygon fill="#000000" points="392.5741,272.4296,404.3106,274.3233,403.1822,267.0631,392.5741,272.4296" style="stroke:#000000;stroke-width:1.25;"/><text fill="#000000" font-family="sans-serif" font-size="16.25" lengthAdjust="spacing" textLength="12.5" x="410" y="278.1189">is</text><text fill="#000000" font-family="sans-serif" font-size="16.25" lengthAdjust="spacing" textLength="8.75" x="353.6116" y="312.6644">1</text><text fill="#000000" font-family="sans-serif" font-size="16.25" lengthAdjust="spacing" textLength="8.75" x="515.4529" y="285.6873">1</text><!--MD5=[3960df5b1ea8ecab6ad2804cc08d8583]
link Employee to MedicalLabTechnician--><path codeLine="37" d="M343.775,322.8125 C355.95,326.5625 368.9375,330.075 381.25,332.5 C419.8375,340.0875 462.9375,344.4 500.3625,346.8375 " fill="none" id="Employee-MedicalLabTechnician" style="stroke:#A80036;stroke-width:1.25;"/><polygon fill="#000000" points="392.5723,320.5219,403.1907,325.8677,404.305,318.6054,392.5723,320.5219" style="stroke:#000000;stroke-width:1.25;"/><text fill="#000000" font-family="sans-serif" font-size="16.25" lengthAdjust="spacing" textLength="12.5" x="410" y="328.1189">is</text><text fill="#000000" font-family="sans-serif" font-size="16.25" lengthAdjust="spacing" textLength="8.75" x="353.877" y="344.7126">1</text><text fill="#000000" font-family="sans-serif" font-size="16.25" lengthAdjust="spacing" textLength="8.75" x="481.9371" y="364.379">1</text><!--MD5=[d0b577d991866bb293f65e18071b6be7]
link Employee to ClinicalChemistryTechnologist--><path codeLine="38" d="M343.7875,348.625 C355.6375,357.3125 368.4875,365.7875 381.25,372.5 C417.7875,391.725 460.525,407.175 498.225,418.7 " fill="none" id="Employee-ClinicalChemistryTechnologist" style="stroke:#A80036;stroke-width:1.25;"/><polygon fill="#000000" points="393.0585,358.8872,401.8366,366.9044,404.8725,360.2136,393.0585,358.8872" style="stroke:#000000;stroke-width:1.25;"/><text fill="#000000" font-family="sans-serif" font-size="16.25" lengthAdjust="spacing" textLength="12.5" x="410" y="368.1189">is</text><text fill="#000000" font-family="sans-serif" font-size="16.25" lengthAdjust="spacing" textLength="8.75" x="353.8916" y="374.9616">1</text><text fill="#000000" font-family="sans-serif" font-size="16.25" lengthAdjust="spacing" textLength="8.75" x="459.0278" y="405.3375">1</text><!--MD5=[a0184b63db99e4170c08b50ca520f26e]
link Employee to LaboratoryCoordinator--><path codeLine="39" d="M341.0625,380.9125 C353.275,397.1375 366.975,413.5375 381.25,427.5 C416.625,462.0875 428.7,468.2375 472.5,491.25 C487.425,499.0875 503.975,506.2375 520,512.45 " fill="none" id="Employee-LaboratoryCoordinator" style="stroke:#A80036;stroke-width:1.25;"/><polygon fill="#000000" points="393.7142,412.7679,400.6482,422.4245,404.9999,416.5046,393.7142,412.7679" style="stroke:#000000;stroke-width:1.25;"/><text fill="#000000" font-family="sans-serif" font-size="16.25" lengthAdjust="spacing" textLength="12.5" x="410" y="423.1189">is</text><text fill="#000000" font-family="sans-serif" font-size="16.25" lengthAdjust="spacing" textLength="8.75" x="337.4873" y="407.3378">1</text><text fill="#000000" font-family="sans-serif" font-size="16.25" lengthAdjust="spacing" textLength="8.75" x="487.1992" y="499.0875">1</text><!--MD5=[b482d663aae385f5ae82dde2f71259c6]
link Employee to Platform--><path codeLine="40" d="M344.05,226.95 C377.0125,184.1625 422.475,132.6 472.5,97.5 C495.7875,81.1625 524.7125,67.975 548.7375,58.625 " fill="none" id="Employee-Platform" style="stroke:#A80036;stroke-width:1.25;"/><polygon fill="#000000" points="392.3274,116.2499,381.2612,120.5939,385.928,126.2688,392.3274,116.2499" style="stroke:#000000;stroke-width:1.25;"/><text fill="#000000" font-family="sans-serif" font-size="16.25" lengthAdjust="spacing" textLength="35" x="398.75" y="126.8689">uses</text><text fill="#000000" font-family="sans-serif" font-size="16.25" lengthAdjust="spacing" textLength="8.75" x="353.8302" y="232.7899">1</text><text fill="#000000" font-family="sans-serif" font-size="16.25" lengthAdjust="spacing" textLength="8.75" x="529.8582" y="80.5354">1</text><!--MD5=[aabf9f431016d47a1d67a3fea03bb0e9]
@startuml
hide methods
left to right direction
skinparam classAttributeIconSize 0

class Platform{
-designation
}

class SpecialistDoctor{
    -doctorIndexNumber
}

class Receptionist{}

class MedicalLabTechnician{}

class ClinicalChemistryTechnologist{}

class LaboratoryCoordinator{}

class Company{
 -designation
}

class Employee {
  -name
  -function
  -phoneNumber
  -email
  -address
  -soc
}

Company "1" - - "*" Employee :  has >
Employee "1" - - "1" SpecialistDoctor : is <
Employee "1" - - "1" Receptionist : is <
Employee "1" - - "1" MedicalLabTechnician : is <
Employee "1" - - "1" ClinicalChemistryTechnologist : is <
Employee "1" - - "1" LaboratoryCoordinator : is <
Employee "1" - - "1" Platform : uses >




@enduml

PlantUML version 1.2021.5(Sun Apr 25 12:20:28 BST 2021)
(GPL source distribution)
Java Runtime: OpenJDK Runtime Environment
JVM: OpenJDK 64-Bit Server VM
Default Encoding: Cp1252
Language: pt
Country: PT
--></g></svg>