<?xml version="1.0" encoding="UTF-8" standalone="no"?><svg xmlns="http://www.w3.org/2000/svg" xmlns:xlink="http://www.w3.org/1999/xlink" contentScriptType="application/ecmascript" contentStyleType="text/css" height="149px" preserveAspectRatio="none" style="width:414px;height:149px;" version="1.1" viewBox="0 0 414 149" width="414px" zoomAndPan="magnify"><defs><filter height="300%" id="fhximh2efyeag" width="300%" x="-1" y="-1"><feGaussianBlur result="blurOut" stdDeviation="2.0"/><feColorMatrix in="blurOut" result="blurOut2" type="matrix" values="0 0 0 0 0 0 0 0 0 0 0 0 0 0 0 0 0 0 .4 0"/><feOffset dx="4.0" dy="4.0" in="blurOut2" result="blurOut3"/><feBlend in="SourceGraphic" in2="blurOut3" mode="normal"/></filter></defs><g><!--MD5=[e59bda2572a266093cda22ac34510ea0]
class Barcode--><rect codeLine="5" fill="#FEFECE" filter="url(#fhximh2efyeag)" height="40" id="Barcode" style="stroke:#A80036;stroke-width:1.5;" width="78" x="10.5" y="7"/><ellipse cx="25.5" cy="23" fill="#ADD1B2" rx="11" ry="11" style="stroke:#A80036;stroke-width:1.0;"/><path d="M27.5,19.5 Q27.7031,19 27.9375,18.75 Q28.1719,18.5 28.4375,18.5 Q28.9063,18.5 29.2031,18.7813 Q29.5,19.0625 29.5,19.7188 L29.5,21.2813 Q29.5,21.9375 29.2188,22.2188 Q28.9375,22.5 28.5,22.5 Q28.1094,22.5 27.8594,22.3281 Q27.6094,22.1563 27.5,21.7031 Q27.4531,21.3906 27.2813,21.2188 Q26.9688,20.8906 26.4063,20.7031 Q25.8438,20.5 25.2813,20.5 Q24.5781,20.5 23.9844,20.7813 Q23.4063,21.0625 22.9531,21.6875 Q22.5,22.3125 22.5,23.1719 L22.5,24.0938 Q22.5,25.125 23.3438,25.8125 Q24.1875,26.5 25.6875,26.5 Q26.5781,26.5 27.2031,26.2969 Q27.5625,26.1875 27.9688,25.8281 Q28.2344,25.625 28.375,25.5625 Q28.5156,25.5 28.6875,25.5 Q29.0156,25.5 29.25,25.7656 Q29.5,26.0156 29.5,26.375 Q29.5,26.7188 29.1563,27.125 Q28.6563,27.7188 27.8594,28.0469 Q26.8125,28.5 25.5313,28.5 Q24.0313,28.5 22.8281,27.9063 Q21.8594,27.4375 21.1719,26.4219 Q20.5,25.4063 20.5,24.2031 L20.5,23.1094 Q20.5,21.8594 21.0938,20.7656 Q21.7031,19.6719 22.75,19.0938 Q23.8125,18.5 25,18.5 Q25.7188,18.5 26.3438,18.75 Q26.9688,19 27.5,19.5 Z " fill="#000000"/><text fill="#000000" font-family="sans-serif" font-size="12" lengthAdjust="spacing" textLength="46" x="39.5" y="27.9102">Barcode</text><line style="stroke:#A80036;stroke-width:1.5;" x1="11.5" x2="87.5" y1="39" y2="39"/><!--MD5=[9681492165142af2a4a3a169d90ee8d4]
class Sample--><rect codeLine="8" fill="#FEFECE" filter="url(#fhximh2efyeag)" height="95.3438" id="Sample" style="stroke:#A80036;stroke-width:1.5;" width="131" x="269" y="20.5"/><ellipse cx="309.2" cy="36.5" fill="#ADD1B2" rx="11" ry="11" style="stroke:#A80036;stroke-width:1.0;"/><path d="M311.2,33 Q311.4031,32.5 311.6375,32.25 Q311.8719,32 312.1375,32 Q312.6063,32 312.9031,32.2813 Q313.2,32.5625 313.2,33.2188 L313.2,34.7813 Q313.2,35.4375 312.9188,35.7188 Q312.6375,36 312.2,36 Q311.8094,36 311.5594,35.8281 Q311.3094,35.6563 311.2,35.2031 Q311.1531,34.8906 310.9813,34.7188 Q310.6688,34.3906 310.1063,34.2031 Q309.5438,34 308.9813,34 Q308.2781,34 307.6844,34.2813 Q307.1063,34.5625 306.6531,35.1875 Q306.2,35.8125 306.2,36.6719 L306.2,37.5938 Q306.2,38.625 307.0438,39.3125 Q307.8875,40 309.3875,40 Q310.2781,40 310.9031,39.7969 Q311.2625,39.6875 311.6688,39.3281 Q311.9344,39.125 312.075,39.0625 Q312.2156,39 312.3875,39 Q312.7156,39 312.95,39.2656 Q313.2,39.5156 313.2,39.875 Q313.2,40.2188 312.8563,40.625 Q312.3563,41.2188 311.5594,41.5469 Q310.5125,42 309.2313,42 Q307.7313,42 306.5281,41.4063 Q305.5594,40.9375 304.8719,39.9219 Q304.2,38.9063 304.2,37.7031 L304.2,36.6094 Q304.2,35.3594 304.7938,34.2656 Q305.4031,33.1719 306.45,32.5938 Q307.5125,32 308.7,32 Q309.4188,32 310.0438,32.25 Q310.6688,32.5 311.2,33 Z " fill="#000000"/><text fill="#000000" font-family="sans-serif" font-size="12" lengthAdjust="spacing" textLength="43" x="328.8" y="41.4102">Sample</text><line style="stroke:#A80036;stroke-width:1.5;" x1="270" x2="399" y1="52.5" y2="52.5"/><text fill="#000000" font-family="sans-serif" font-size="11" lengthAdjust="spacing" textLength="119" x="275" y="67.9189">-sampleCollectionMethod</text><text fill="#000000" font-family="sans-serif" font-size="11" lengthAdjust="spacing" textLength="71" x="275" y="81.7549">-collectionDate</text><text fill="#000000" font-family="sans-serif" font-size="11" lengthAdjust="spacing" textLength="44" x="275" y="95.5908">-barcode</text><text fill="#000000" font-family="sans-serif" font-size="11" lengthAdjust="spacing" textLength="31" x="275" y="109.4268">-testID</text><!--MD5=[02e4b9b7573f1156f41e60aa5b4e25a4]
class Company--><rect codeLine="15" fill="#FEFECE" filter="url(#fhximh2efyeag)" height="53.8359" id="Company" style="stroke:#A80036;stroke-width:1.5;" width="85" x="7" y="82"/><ellipse cx="22" cy="98" fill="#ADD1B2" rx="11" ry="11" style="stroke:#A80036;stroke-width:1.0;"/><path d="M24,94.5 Q24.2031,94 24.4375,93.75 Q24.6719,93.5 24.9375,93.5 Q25.4063,93.5 25.7031,93.7813 Q26,94.0625 26,94.7188 L26,96.2813 Q26,96.9375 25.7188,97.2188 Q25.4375,97.5 25,97.5 Q24.6094,97.5 24.3594,97.3281 Q24.1094,97.1563 24,96.7031 Q23.9531,96.3906 23.7813,96.2188 Q23.4688,95.8906 22.9063,95.7031 Q22.3438,95.5 21.7813,95.5 Q21.0781,95.5 20.4844,95.7813 Q19.9063,96.0625 19.4531,96.6875 Q19,97.3125 19,98.1719 L19,99.0938 Q19,100.125 19.8438,100.8125 Q20.6875,101.5 22.1875,101.5 Q23.0781,101.5 23.7031,101.2969 Q24.0625,101.1875 24.4688,100.8281 Q24.7344,100.625 24.875,100.5625 Q25.0156,100.5 25.1875,100.5 Q25.5156,100.5 25.75,100.7656 Q26,101.0156 26,101.375 Q26,101.7188 25.6563,102.125 Q25.1563,102.7188 24.3594,103.0469 Q23.3125,103.5 22.0313,103.5 Q20.5313,103.5 19.3281,102.9063 Q18.3594,102.4375 17.6719,101.4219 Q17,100.4063 17,99.2031 L17,98.1094 Q17,96.8594 17.5938,95.7656 Q18.2031,94.6719 19.25,94.0938 Q20.3125,93.5 21.5,93.5 Q22.2188,93.5 22.8438,93.75 Q23.4688,94 24,94.5 Z " fill="#000000"/><text fill="#000000" font-family="sans-serif" font-size="12" lengthAdjust="spacing" textLength="53" x="36" y="102.9102">Company</text><line style="stroke:#A80036;stroke-width:1.5;" x1="8" x2="91" y1="114" y2="114"/><text fill="#000000" font-family="sans-serif" font-size="11" lengthAdjust="spacing" textLength="59" x="13" y="129.4189">-designation</text><!--MD5=[2c62fa1cef1bb715e118c3e784c82d9b]
link Barcode to Sample--><path codeLine="19" d="M88.67,32.53 C134.83,39.22 213.27,50.58 268.91,58.64 " fill="none" id="Barcode-Sample" style="stroke:#A80036;stroke-width:1.0;"/><polygon fill="#000000" points="131.9483,29.8926,123.418,25.6873,122.5754,31.5044,131.9483,29.8926" style="stroke:#000000;stroke-width:1.0;"/><text fill="#000000" font-family="sans-serif" font-size="13" lengthAdjust="spacing" textLength="102" x="136" y="34.4951">is used to identify</text><text fill="#000000" font-family="sans-serif" font-size="13" lengthAdjust="spacing" textLength="7" x="96.5373" y="48.5521">1</text><text fill="#000000" font-family="sans-serif" font-size="13" lengthAdjust="spacing" textLength="5" x="256.0371" y="71.9783">*</text><!--MD5=[08c0c6a4311687e0a571503148e86d37]
link Company to Sample--><path codeLine="20" d="M92.26,102.95 C138.77,96.21 214.53,85.24 268.74,77.38 " fill="none" id="Company-Sample" style="stroke:#A80036;stroke-width:1.0;"/><polygon fill="#000000" points="163.9483,73.4588,154.5753,71.8473,155.4181,77.6644,163.9483,73.4588" style="stroke:#000000;stroke-width:1.0;"/><text fill="#000000" font-family="sans-serif" font-size="13" lengthAdjust="spacing" textLength="38" x="168" y="79.4951">Create</text><text fill="#000000" font-family="sans-serif" font-size="13" lengthAdjust="spacing" textLength="7" x="99.9218" y="116.8108">1</text><text fill="#000000" font-family="sans-serif" font-size="13" lengthAdjust="spacing" textLength="5" x="255.8474" y="92.8851">*</text><!--MD5=[2ab3cdfc87c7b41293843eaf43e0f9c8]
@startuml
hide methods
left to right direction
skinparam classAttributeIconSize 0

class Barcode{
}

class Sample{
-sampleCollectionMethod
-collectionDate
-barcode
-testID
}

class Company{
-designation
}

Barcode "1" - - "*" Sample :  is used to identify >
Company "1" - - "*" Sample : Create >

@enduml

PlantUML version 1.2021.5(Sun Apr 25 12:20:28 BST 2021)
(GPL source distribution)
Java Runtime: OpenJDK Runtime Environment
JVM: Dynamic Code Evolution 64-Bit Server VM
Default Encoding: Cp1252
Language: pt
Country: PT
--></g></svg>