<?xml version="1.0" encoding="UTF-8" standalone="no"?><svg xmlns="http://www.w3.org/2000/svg" xmlns:xlink="http://www.w3.org/1999/xlink" contentScriptType="application/ecmascript" contentStyleType="text/css" height="377px" preserveAspectRatio="none" style="width:536px;height:377px;" version="1.1" viewBox="0 0 536 377" width="536px" zoomAndPan="magnify"><defs><filter height="300%" id="f1c395c16hqdij" width="300%" x="-1" y="-1"><feGaussianBlur result="blurOut" stdDeviation="2.0"/><feColorMatrix in="blurOut" result="blurOut2" type="matrix" values="0 0 0 0 0 0 0 0 0 0 0 0 0 0 0 0 0 0 .4 0"/><feOffset dx="4.0" dy="4.0" in="blurOut2" result="blurOut3"/><feBlend in="SourceGraphic" in2="blurOut3" mode="normal"/></filter></defs><g><rect fill="#FFFFFF" filter="url(#f1c395c16hqdij)" height="174.1094" style="stroke:#A80036;stroke-width:1.0;" width="10" x="72.5" y="99.6094"/><rect fill="#FFFFFF" filter="url(#f1c395c16hqdij)" height="30.3516" style="stroke:#A80036;stroke-width:1.0;" width="10" x="487.5" y="121.9609"/><rect fill="#FFFFFF" filter="url(#f1c395c16hqdij)" height="30.3516" style="stroke:#A80036;stroke-width:1.0;" width="10" x="487.5" y="182.6641"/><rect fill="#FFFFFF" filter="url(#f1c395c16hqdij)" height="30.3516" style="stroke:#A80036;stroke-width:1.0;" width="10" x="487.5" y="243.3672"/><line style="stroke:#A80036;stroke-width:1.0;stroke-dasharray:5.0,5.0;" x1="77" x2="77" y1="89.6094" y2="291.7188"/><line style="stroke:#A80036;stroke-width:1.0;stroke-dasharray:5.0,5.0;" x1="492.5" x2="492.5" y1="89.6094" y2="291.7188"/><text fill="#000000" font-family="sans-serif" font-size="14" lengthAdjust="spacing" textLength="139" x="5" y="86.5332">Medical lab technician</text><ellipse cx="77.5" cy="15" fill="#FEFECE" filter="url(#f1c395c16hqdij)" rx="8" ry="8" style="stroke:#A80036;stroke-width:2.0;"/><path d="M77.5,23 L77.5,50 M64.5,31 L90.5,31 M77.5,50 L64.5,65 M77.5,50 L90.5,65 " fill="none" filter="url(#f1c395c16hqdij)" style="stroke:#A80036;stroke-width:2.0;"/><text fill="#000000" font-family="sans-serif" font-size="14" lengthAdjust="spacing" textLength="139" x="5" y="305.252">Medical lab technician</text><ellipse cx="77.5" cy="318.3281" fill="#FEFECE" filter="url(#f1c395c16hqdij)" rx="8" ry="8" style="stroke:#A80036;stroke-width:2.0;"/><path d="M77.5,326.3281 L77.5,353.3281 M64.5,334.3281 L90.5,334.3281 M77.5,353.3281 L64.5,368.3281 M77.5,353.3281 L90.5,368.3281 " fill="none" filter="url(#f1c395c16hqdij)" style="stroke:#A80036;stroke-width:2.0;"/><rect fill="#FEFECE" filter="url(#f1c395c16hqdij)" height="31.6094" style="stroke:#A80036;stroke-width:1.5;" width="64" x="458.5" y="53"/><text fill="#000000" font-family="sans-serif" font-size="14" lengthAdjust="spacing" textLength="50" x="465.5" y="74.5332">:System</text><rect fill="#FEFECE" filter="url(#f1c395c16hqdij)" height="31.6094" style="stroke:#A80036;stroke-width:1.5;" width="64" x="458.5" y="290.7188"/><text fill="#000000" font-family="sans-serif" font-size="14" lengthAdjust="spacing" textLength="50" x="465.5" y="312.252">:System</text><rect fill="#FFFFFF" filter="url(#f1c395c16hqdij)" height="174.1094" style="stroke:#A80036;stroke-width:1.0;" width="10" x="72.5" y="99.6094"/><rect fill="#FFFFFF" filter="url(#f1c395c16hqdij)" height="30.3516" style="stroke:#A80036;stroke-width:1.0;" width="10" x="487.5" y="121.9609"/><rect fill="#FFFFFF" filter="url(#f1c395c16hqdij)" height="30.3516" style="stroke:#A80036;stroke-width:1.0;" width="10" x="487.5" y="182.6641"/><rect fill="#FFFFFF" filter="url(#f1c395c16hqdij)" height="30.3516" style="stroke:#A80036;stroke-width:1.0;" width="10" x="487.5" y="243.3672"/><polygon fill="#A80036" points="475.5,117.9609,485.5,121.9609,475.5,125.9609,479.5,121.9609" style="stroke:#A80036;stroke-width:1.0;"/><line style="stroke:#A80036;stroke-width:1.0;" x1="82.5" x2="481.5" y1="121.9609" y2="121.9609"/><text fill="#000000" font-family="sans-serif" font-size="13" font-weight="bold" lengthAdjust="spacing" textLength="7" x="89.5" y="117.1045">1</text><text fill="#000000" font-family="sans-serif" font-size="13" lengthAdjust="spacing" textLength="375" x="100.5" y="117.1045">Asks to record the samples collected in the scope of a given test</text><polygon fill="#A80036" points="93.5,148.3125,83.5,152.3125,93.5,156.3125,89.5,152.3125" style="stroke:#A80036;stroke-width:1.0;"/><line style="stroke:#A80036;stroke-width:1.0;stroke-dasharray:2.0,2.0;" x1="87.5" x2="491.5" y1="152.3125" y2="152.3125"/><text fill="#000000" font-family="sans-serif" font-size="13" font-weight="bold" lengthAdjust="spacing" textLength="7" x="99.5" y="147.4561">2</text><text fill="#000000" font-family="sans-serif" font-size="13" lengthAdjust="spacing" textLength="132" x="110.5" y="147.4561">Asks to select the test</text><polygon fill="#A80036" points="475.5,178.6641,485.5,182.6641,475.5,186.6641,479.5,182.6641" style="stroke:#A80036;stroke-width:1.0;"/><line style="stroke:#A80036;stroke-width:1.0;" x1="82.5" x2="481.5" y1="182.6641" y2="182.6641"/><text fill="#000000" font-family="sans-serif" font-size="13" font-weight="bold" lengthAdjust="spacing" textLength="7" x="89.5" y="177.8076">3</text><text fill="#000000" font-family="sans-serif" font-size="13" lengthAdjust="spacing" textLength="332" x="100.5" y="177.8076">Choose a test and how many samples you have to record</text><polygon fill="#A80036" points="93.5,209.0156,83.5,213.0156,93.5,217.0156,89.5,213.0156" style="stroke:#A80036;stroke-width:1.0;"/><line style="stroke:#A80036;stroke-width:1.0;stroke-dasharray:2.0,2.0;" x1="87.5" x2="491.5" y1="213.0156" y2="213.0156"/><text fill="#000000" font-family="sans-serif" font-size="13" font-weight="bold" lengthAdjust="spacing" textLength="7" x="99.5" y="208.1592">4</text><text fill="#000000" font-family="sans-serif" font-size="13" lengthAdjust="spacing" textLength="120" x="110.5" y="208.1592">Asks to confirm data</text><polygon fill="#A80036" points="475.5,239.3672,485.5,243.3672,475.5,247.3672,479.5,243.3672" style="stroke:#A80036;stroke-width:1.0;"/><line style="stroke:#A80036;stroke-width:1.0;" x1="82.5" x2="481.5" y1="243.3672" y2="243.3672"/><text fill="#000000" font-family="sans-serif" font-size="13" font-weight="bold" lengthAdjust="spacing" textLength="7" x="89.5" y="238.5107">5</text><text fill="#000000" font-family="sans-serif" font-size="13" lengthAdjust="spacing" textLength="80" x="100.5" y="238.5107">Confirms data</text><polygon fill="#A80036" points="88.5,269.7188,78.5,273.7188,88.5,277.7188,84.5,273.7188" style="stroke:#A80036;stroke-width:1.0;"/><line style="stroke:#A80036;stroke-width:1.0;stroke-dasharray:2.0,2.0;" x1="82.5" x2="491.5" y1="273.7188" y2="273.7188"/><text fill="#000000" font-family="sans-serif" font-size="13" font-weight="bold" lengthAdjust="spacing" textLength="7" x="94.5" y="268.8623">6</text><text fill="#000000" font-family="sans-serif" font-size="13" lengthAdjust="spacing" textLength="353" x="105.5" y="268.8623">Shows the generated barcode and informs operation success</text><!--MD5=[e55ab3aca982b8045f1fcea601eaef7c]
@startuml
autonumber
actor "Medical lab technician" as MLT

activate MLT
MLT -> ":System" : Asks to record the samples collected in the scope of a given test
activate ":System"

":System" - -> MLT : Asks to select the test
deactivate ":System"

MLT -> ":System" : Choose a test and how many samples you have to record
activate ":System"
":System" - -> MLT : Asks to confirm data
deactivate ":System"

MLT -> ":System" : Confirms data
activate ":System"
":System" - -> MLT : Shows the generated barcode and informs operation success
deactivate ":System"

deactivate ":System"

deactivate MLT

@enduml

PlantUML version 1.2021.5(Sun Apr 25 12:20:28 BST 2021)
(GPL source distribution)
Java Runtime: OpenJDK Runtime Environment
JVM: Dynamic Code Evolution 64-Bit Server VM
Default Encoding: Cp1252
Language: pt
Country: PT
--></g></svg>