<?xml version="1.0" encoding="UTF-8" standalone="no"?><svg xmlns="http://www.w3.org/2000/svg" xmlns:xlink="http://www.w3.org/1999/xlink" contentScriptType="application/ecmascript" contentStyleType="text/css" height="707px" preserveAspectRatio="none" style="width:257px;height:707px;" version="1.1" viewBox="0 0 257 707" width="257px" zoomAndPan="magnify"><defs><filter height="300%" id="faacj7e1lbkjw" width="300%" x="-1" y="-1"><feGaussianBlur result="blurOut" stdDeviation="2.0"/><feColorMatrix in="blurOut" result="blurOut2" type="matrix" values="0 0 0 0 0 0 0 0 0 0 0 0 0 0 0 0 0 0 .4 0"/><feOffset dx="4.0" dy="4.0" in="blurOut2" result="blurOut3"/><feBlend in="SourceGraphic" in2="blurOut3" mode="normal"/></filter></defs><g><!--MD5=[05ffea613565d111e9c4a041147710d4]
class RecordSampleUI--><rect codeLine="3" fill="#FEFECE" filter="url(#faacj7e1lbkjw)" height="48" id="RecordSampleUI" style="stroke:#A80036;stroke-width:1.5;" width="127" x="65.5" y="7"/><ellipse cx="80.5" cy="23" fill="#ADD1B2" rx="11" ry="11" style="stroke:#A80036;stroke-width:1.0;"/><path d="M82.5,19.5 Q82.7031,19 82.9375,18.75 Q83.1719,18.5 83.4375,18.5 Q83.9063,18.5 84.2031,18.7813 Q84.5,19.0625 84.5,19.7188 L84.5,21.2813 Q84.5,21.9375 84.2188,22.2188 Q83.9375,22.5 83.5,22.5 Q83.1094,22.5 82.8594,22.3281 Q82.6094,22.1563 82.5,21.7031 Q82.4531,21.3906 82.2813,21.2188 Q81.9688,20.8906 81.4063,20.7031 Q80.8438,20.5 80.2813,20.5 Q79.5781,20.5 78.9844,20.7813 Q78.4063,21.0625 77.9531,21.6875 Q77.5,22.3125 77.5,23.1719 L77.5,24.0938 Q77.5,25.125 78.3438,25.8125 Q79.1875,26.5 80.6875,26.5 Q81.5781,26.5 82.2031,26.2969 Q82.5625,26.1875 82.9688,25.8281 Q83.2344,25.625 83.375,25.5625 Q83.5156,25.5 83.6875,25.5 Q84.0156,25.5 84.25,25.7656 Q84.5,26.0156 84.5,26.375 Q84.5,26.7188 84.1563,27.125 Q83.6563,27.7188 82.8594,28.0469 Q81.8125,28.5 80.5313,28.5 Q79.0313,28.5 77.8281,27.9063 Q76.8594,27.4375 76.1719,26.4219 Q75.5,25.4063 75.5,24.2031 L75.5,23.1094 Q75.5,21.8594 76.0938,20.7656 Q76.7031,19.6719 77.75,19.0938 Q78.8125,18.5 80,18.5 Q80.7188,18.5 81.3438,18.75 Q81.9688,19 82.5,19.5 Z " fill="#000000"/><text fill="#000000" font-family="sans-serif" font-size="12" lengthAdjust="spacing" textLength="95" x="94.5" y="27.9102">RecordSampleUI</text><line style="stroke:#A80036;stroke-width:1.5;" x1="66.5" x2="191.5" y1="39" y2="39"/><line style="stroke:#A80036;stroke-width:1.5;" x1="66.5" x2="191.5" y1="47" y2="47"/><!--MD5=[ecb4b8913618184ce1e3f8e48e5e993f]
class RecordSampleController--><rect codeLine="6" fill="#FEFECE" filter="url(#faacj7e1lbkjw)" height="61.8359" id="RecordSampleController" style="stroke:#A80036;stroke-width:1.5;" width="169" x="44.5" y="115"/><ellipse cx="59.5" cy="131" fill="#ADD1B2" rx="11" ry="11" style="stroke:#A80036;stroke-width:1.0;"/><path d="M61.5,127.5 Q61.7031,127 61.9375,126.75 Q62.1719,126.5 62.4375,126.5 Q62.9063,126.5 63.2031,126.7813 Q63.5,127.0625 63.5,127.7188 L63.5,129.2813 Q63.5,129.9375 63.2188,130.2188 Q62.9375,130.5 62.5,130.5 Q62.1094,130.5 61.8594,130.3281 Q61.6094,130.1563 61.5,129.7031 Q61.4531,129.3906 61.2813,129.2188 Q60.9688,128.8906 60.4063,128.7031 Q59.8438,128.5 59.2813,128.5 Q58.5781,128.5 57.9844,128.7813 Q57.4063,129.0625 56.9531,129.6875 Q56.5,130.3125 56.5,131.1719 L56.5,132.0938 Q56.5,133.125 57.3438,133.8125 Q58.1875,134.5 59.6875,134.5 Q60.5781,134.5 61.2031,134.2969 Q61.5625,134.1875 61.9688,133.8281 Q62.2344,133.625 62.375,133.5625 Q62.5156,133.5 62.6875,133.5 Q63.0156,133.5 63.25,133.7656 Q63.5,134.0156 63.5,134.375 Q63.5,134.7188 63.1563,135.125 Q62.6563,135.7188 61.8594,136.0469 Q60.8125,136.5 59.5313,136.5 Q58.0313,136.5 56.8281,135.9063 Q55.8594,135.4375 55.1719,134.4219 Q54.5,133.4063 54.5,132.2031 L54.5,131.1094 Q54.5,129.8594 55.0938,128.7656 Q55.7031,127.6719 56.75,127.0938 Q57.8125,126.5 59,126.5 Q59.7188,126.5 60.3438,126.75 Q60.9688,127 61.5,127.5 Z " fill="#000000"/><text fill="#000000" font-family="sans-serif" font-size="12" lengthAdjust="spacing" textLength="137" x="73.5" y="135.9102">RecordSampleController</text><line style="stroke:#A80036;stroke-width:1.5;" x1="45.5" x2="212.5" y1="147" y2="147"/><line style="stroke:#A80036;stroke-width:1.5;" x1="45.5" x2="212.5" y1="155" y2="155"/><text fill="#000000" font-family="sans-serif" font-size="11" lengthAdjust="spacing" textLength="153" x="50.5" y="170.4189">+authenticate(email, password)</text><!--MD5=[9681492165142af2a4a3a169d90ee8d4]
class Sample--><rect codeLine="11" fill="#FEFECE" filter="url(#faacj7e1lbkjw)" height="75.6719" id="Sample" style="stroke:#A80036;stroke-width:1.5;" width="75" x="168.5" y="387"/><ellipse cx="183.5" cy="403" fill="#ADD1B2" rx="11" ry="11" style="stroke:#A80036;stroke-width:1.0;"/><path d="M185.5,399.5 Q185.7031,399 185.9375,398.75 Q186.1719,398.5 186.4375,398.5 Q186.9063,398.5 187.2031,398.7813 Q187.5,399.0625 187.5,399.7188 L187.5,401.2813 Q187.5,401.9375 187.2188,402.2188 Q186.9375,402.5 186.5,402.5 Q186.1094,402.5 185.8594,402.3281 Q185.6094,402.1563 185.5,401.7031 Q185.4531,401.3906 185.2813,401.2188 Q184.9688,400.8906 184.4063,400.7031 Q183.8438,400.5 183.2813,400.5 Q182.5781,400.5 181.9844,400.7813 Q181.4063,401.0625 180.9531,401.6875 Q180.5,402.3125 180.5,403.1719 L180.5,404.0938 Q180.5,405.125 181.3438,405.8125 Q182.1875,406.5 183.6875,406.5 Q184.5781,406.5 185.2031,406.2969 Q185.5625,406.1875 185.9688,405.8281 Q186.2344,405.625 186.375,405.5625 Q186.5156,405.5 186.6875,405.5 Q187.0156,405.5 187.25,405.7656 Q187.5,406.0156 187.5,406.375 Q187.5,406.7188 187.1563,407.125 Q186.6563,407.7188 185.8594,408.0469 Q184.8125,408.5 183.5313,408.5 Q182.0313,408.5 180.8281,407.9063 Q179.8594,407.4375 179.1719,406.4219 Q178.5,405.4063 178.5,404.2031 L178.5,403.1094 Q178.5,401.8594 179.0938,400.7656 Q179.7031,399.6719 180.75,399.0938 Q181.8125,398.5 183,398.5 Q183.7188,398.5 184.3438,398.75 Q184.9688,399 185.5,399.5 Z " fill="#000000"/><text fill="#000000" font-family="sans-serif" font-size="12" lengthAdjust="spacing" textLength="43" x="197.5" y="407.9102">Sample</text><line style="stroke:#A80036;stroke-width:1.5;" x1="169.5" x2="242.5" y1="419" y2="419"/><text fill="#000000" font-family="sans-serif" font-size="11" lengthAdjust="spacing" textLength="44" x="174.5" y="434.4189">-barcode</text><text fill="#000000" font-family="sans-serif" font-size="11" lengthAdjust="spacing" textLength="31" x="174.5" y="448.2549">-testID</text><line style="stroke:#A80036;stroke-width:1.5;" x1="169.5" x2="242.5" y1="454.6719" y2="454.6719"/><!--MD5=[1463ab4556a175bafc1fcb219eb85242]
class ExternalBarcodeAPI--><rect codeLine="16" fill="#FEFECE" filter="url(#faacj7e1lbkjw)" height="48" id="ExternalBarcodeAPI" style="stroke:#A80036;stroke-width:1.5;" width="140" x="7" y="645"/><ellipse cx="22" cy="661" fill="#ADD1B2" rx="11" ry="11" style="stroke:#A80036;stroke-width:1.0;"/><path d="M24,657.5 Q24.2031,657 24.4375,656.75 Q24.6719,656.5 24.9375,656.5 Q25.4063,656.5 25.7031,656.7813 Q26,657.0625 26,657.7188 L26,659.2813 Q26,659.9375 25.7188,660.2188 Q25.4375,660.5 25,660.5 Q24.6094,660.5 24.3594,660.3281 Q24.1094,660.1563 24,659.7031 Q23.9531,659.3906 23.7813,659.2188 Q23.4688,658.8906 22.9063,658.7031 Q22.3438,658.5 21.7813,658.5 Q21.0781,658.5 20.4844,658.7813 Q19.9063,659.0625 19.4531,659.6875 Q19,660.3125 19,661.1719 L19,662.0938 Q19,663.125 19.8438,663.8125 Q20.6875,664.5 22.1875,664.5 Q23.0781,664.5 23.7031,664.2969 Q24.0625,664.1875 24.4688,663.8281 Q24.7344,663.625 24.875,663.5625 Q25.0156,663.5 25.1875,663.5 Q25.5156,663.5 25.75,663.7656 Q26,664.0156 26,664.375 Q26,664.7188 25.6563,665.125 Q25.1563,665.7188 24.3594,666.0469 Q23.3125,666.5 22.0313,666.5 Q20.5313,666.5 19.3281,665.9063 Q18.3594,665.4375 17.6719,664.4219 Q17,663.4063 17,662.2031 L17,661.1094 Q17,659.8594 17.5938,658.7656 Q18.2031,657.6719 19.25,657.0938 Q20.3125,656.5 21.5,656.5 Q22.2188,656.5 22.8438,656.75 Q23.4688,657 24,657.5 Z " fill="#000000"/><text fill="#000000" font-family="sans-serif" font-size="12" lengthAdjust="spacing" textLength="108" x="36" y="665.9102">ExternalBarcodeAPI</text><line style="stroke:#A80036;stroke-width:1.5;" x1="8" x2="146" y1="677" y2="677"/><line style="stroke:#A80036;stroke-width:1.5;" x1="8" x2="146" y1="685" y2="685"/><!--MD5=[e59bda2572a266093cda22ac34510ea0]
class Barcode--><rect codeLine="19" fill="#FEFECE" filter="url(#faacj7e1lbkjw)" height="61.8359" id="Barcode" style="stroke:#A80036;stroke-width:1.5;" width="99" x="27.5" y="523"/><ellipse cx="51.95" cy="539" fill="#ADD1B2" rx="11" ry="11" style="stroke:#A80036;stroke-width:1.0;"/><path d="M53.95,535.5 Q54.1531,535 54.3875,534.75 Q54.6219,534.5 54.8875,534.5 Q55.3563,534.5 55.6531,534.7813 Q55.95,535.0625 55.95,535.7188 L55.95,537.2813 Q55.95,537.9375 55.6688,538.2188 Q55.3875,538.5 54.95,538.5 Q54.5594,538.5 54.3094,538.3281 Q54.0594,538.1563 53.95,537.7031 Q53.9031,537.3906 53.7313,537.2188 Q53.4188,536.8906 52.8563,536.7031 Q52.2938,536.5 51.7313,536.5 Q51.0281,536.5 50.4344,536.7813 Q49.8563,537.0625 49.4031,537.6875 Q48.95,538.3125 48.95,539.1719 L48.95,540.0938 Q48.95,541.125 49.7938,541.8125 Q50.6375,542.5 52.1375,542.5 Q53.0281,542.5 53.6531,542.2969 Q54.0125,542.1875 54.4188,541.8281 Q54.6844,541.625 54.825,541.5625 Q54.9656,541.5 55.1375,541.5 Q55.4656,541.5 55.7,541.7656 Q55.95,542.0156 55.95,542.375 Q55.95,542.7188 55.6063,543.125 Q55.1063,543.7188 54.3094,544.0469 Q53.2625,544.5 51.9813,544.5 Q50.4813,544.5 49.2781,543.9063 Q48.3094,543.4375 47.6219,542.4219 Q46.95,541.4063 46.95,540.2031 L46.95,539.1094 Q46.95,537.8594 47.5438,536.7656 Q48.1531,535.6719 49.2,535.0938 Q50.2625,534.5 51.45,534.5 Q52.1688,534.5 52.7938,534.75 Q53.4188,535 53.95,535.5 Z " fill="#000000"/><text fill="#000000" font-family="sans-serif" font-size="12" lengthAdjust="spacing" textLength="46" x="68.05" y="543.9102">Barcode</text><line style="stroke:#A80036;stroke-width:1.5;" x1="28.5" x2="125.5" y1="555" y2="555"/><line style="stroke:#A80036;stroke-width:1.5;" x1="28.5" x2="125.5" y1="563" y2="563"/><text fill="#000000" font-family="sans-serif" font-size="11" lengthAdjust="spacing" textLength="87" x="33.5" y="578.4189">+CreateBarcode()</text><!--MD5=[fcd6df96e169c9fc6403c4dc9bdb4d83]
class SampleStore--><rect codeLine="23" fill="#FEFECE" filter="url(#faacj7e1lbkjw)" height="75.6719" id="SampleStore" style="stroke:#A80036;stroke-width:1.5;" width="113" x="20.5" y="387"/><ellipse cx="39.55" cy="403" fill="#ADD1B2" rx="11" ry="11" style="stroke:#A80036;stroke-width:1.0;"/><path d="M41.55,399.5 Q41.7531,399 41.9875,398.75 Q42.2219,398.5 42.4875,398.5 Q42.9563,398.5 43.2531,398.7813 Q43.55,399.0625 43.55,399.7188 L43.55,401.2813 Q43.55,401.9375 43.2688,402.2188 Q42.9875,402.5 42.55,402.5 Q42.1594,402.5 41.9094,402.3281 Q41.6594,402.1563 41.55,401.7031 Q41.5031,401.3906 41.3313,401.2188 Q41.0188,400.8906 40.4563,400.7031 Q39.8938,400.5 39.3313,400.5 Q38.6281,400.5 38.0344,400.7813 Q37.4563,401.0625 37.0031,401.6875 Q36.55,402.3125 36.55,403.1719 L36.55,404.0938 Q36.55,405.125 37.3938,405.8125 Q38.2375,406.5 39.7375,406.5 Q40.6281,406.5 41.2531,406.2969 Q41.6125,406.1875 42.0188,405.8281 Q42.2844,405.625 42.425,405.5625 Q42.5656,405.5 42.7375,405.5 Q43.0656,405.5 43.3,405.7656 Q43.55,406.0156 43.55,406.375 Q43.55,406.7188 43.2063,407.125 Q42.7063,407.7188 41.9094,408.0469 Q40.8625,408.5 39.5813,408.5 Q38.0813,408.5 36.8781,407.9063 Q35.9094,407.4375 35.2219,406.4219 Q34.55,405.4063 34.55,404.2031 L34.55,403.1094 Q34.55,401.8594 35.1438,400.7656 Q35.7531,399.6719 36.8,399.0938 Q37.8625,398.5 39.05,398.5 Q39.7688,398.5 40.3938,398.75 Q41.0188,399 41.55,399.5 Z " fill="#000000"/><text fill="#000000" font-family="sans-serif" font-size="12" lengthAdjust="spacing" textLength="72" x="54.45" y="407.9102">SampleStore</text><line style="stroke:#A80036;stroke-width:1.5;" x1="21.5" x2="132.5" y1="419" y2="419"/><line style="stroke:#A80036;stroke-width:1.5;" x1="21.5" x2="132.5" y1="427" y2="427"/><text fill="#000000" font-family="sans-serif" font-size="11" lengthAdjust="spacing" textLength="70" x="26.5" y="442.4189">+getSamples()</text><text fill="#000000" font-family="sans-serif" font-size="11" lengthAdjust="spacing" textLength="101" x="26.5" y="456.2549">+addSample(sample)</text><!--MD5=[02e4b9b7573f1156f41e60aa5b4e25a4]
class Company--><rect codeLine="30" fill="#FEFECE" filter="url(#faacj7e1lbkjw)" height="89.5078" id="Company" style="stroke:#A80036;stroke-width:1.5;" width="102" x="130" y="237"/><ellipse cx="152.65" cy="253" fill="#ADD1B2" rx="11" ry="11" style="stroke:#A80036;stroke-width:1.0;"/><path d="M154.65,249.5 Q154.8531,249 155.0875,248.75 Q155.3219,248.5 155.5875,248.5 Q156.0563,248.5 156.3531,248.7813 Q156.65,249.0625 156.65,249.7188 L156.65,251.2813 Q156.65,251.9375 156.3688,252.2188 Q156.0875,252.5 155.65,252.5 Q155.2594,252.5 155.0094,252.3281 Q154.7594,252.1563 154.65,251.7031 Q154.6031,251.3906 154.4313,251.2188 Q154.1188,250.8906 153.5563,250.7031 Q152.9938,250.5 152.4313,250.5 Q151.7281,250.5 151.1344,250.7813 Q150.5563,251.0625 150.1031,251.6875 Q149.65,252.3125 149.65,253.1719 L149.65,254.0938 Q149.65,255.125 150.4938,255.8125 Q151.3375,256.5 152.8375,256.5 Q153.7281,256.5 154.3531,256.2969 Q154.7125,256.1875 155.1188,255.8281 Q155.3844,255.625 155.525,255.5625 Q155.6656,255.5 155.8375,255.5 Q156.1656,255.5 156.4,255.7656 Q156.65,256.0156 156.65,256.375 Q156.65,256.7188 156.3063,257.125 Q155.8063,257.7188 155.0094,258.0469 Q153.9625,258.5 152.6813,258.5 Q151.1813,258.5 149.9781,257.9063 Q149.0094,257.4375 148.3219,256.4219 Q147.65,255.4063 147.65,254.2031 L147.65,253.1094 Q147.65,251.8594 148.2438,250.7656 Q148.8531,249.6719 149.9,249.0938 Q150.9625,248.5 152.15,248.5 Q152.8688,248.5 153.4938,248.75 Q154.1188,249 154.65,249.5 Z " fill="#000000"/><text fill="#000000" font-family="sans-serif" font-size="12" lengthAdjust="spacing" textLength="53" x="168.35" y="257.9102">Company</text><line style="stroke:#A80036;stroke-width:1.5;" x1="131" x2="231" y1="269" y2="269"/><line style="stroke:#A80036;stroke-width:1.5;" x1="131" x2="231" y1="277" y2="277"/><text fill="#000000" font-family="sans-serif" font-size="11" lengthAdjust="spacing" textLength="76" x="136" y="292.4189">+getTestStore()</text><text fill="#000000" font-family="sans-serif" font-size="11" lengthAdjust="spacing" textLength="90" x="136" y="306.2549">+getSampleStore()</text><text fill="#000000" font-family="sans-serif" font-size="11" lengthAdjust="spacing" textLength="81" x="136" y="320.0908">+getClientStore()</text><!--MD5=[b07fc2b2aa91da2436cc249a96980d64]
link RecordSampleUI to RecordSampleController--><path codeLine="36" d="M129,55.14 C129,70.71 129,91.53 129,109.22 " fill="none" id="RecordSampleUI-to-RecordSampleController" style="stroke:#A80036;stroke-width:1.0;stroke-dasharray:7.0,7.0;"/><polygon fill="#A80036" points="129,114.6,133,105.6,129,109.6,125,105.6,129,114.6" style="stroke:#A80036;stroke-width:1.0;"/><!--MD5=[9510bf5b380887b573b83b1f9ca3e028]
link RecordSampleController to SampleStore--><path codeLine="37" d="M123.34,177.17 C114.04,226.72 95.5,325.43 84.91,381.85 " fill="none" id="RecordSampleController-to-SampleStore" style="stroke:#A80036;stroke-width:1.0;stroke-dasharray:7.0,7.0;"/><polygon fill="#A80036" points="83.97,386.84,89.5487,378.7235,84.8845,381.9243,81.6837,377.2602,83.97,386.84" style="stroke:#A80036;stroke-width:1.0;"/><!--MD5=[ccf558741c2fb5a5f538be9d3a954f59]
link RecordSampleController to Company--><path codeLine="38" d="M140.67,177.07 C146.91,193.15 154.75,213.36 161.86,231.67 " fill="none" id="RecordSampleController-to-Company" style="stroke:#A80036;stroke-width:1.0;stroke-dasharray:7.0,7.0;"/><polygon fill="#A80036" points="163.84,236.78,164.3002,226.9419,162.025,232.1211,156.8459,229.8459,163.84,236.78" style="stroke:#A80036;stroke-width:1.0;"/><!--MD5=[08c0c6a4311687e0a571503148e86d37]
link Company to Sample--><path codeLine="39" d="M188.84,327.23 C191.9,344.5 195.4,364.23 198.44,381.35 " fill="none" id="Company-to-Sample" style="stroke:#A80036;stroke-width:1.0;"/><polygon fill="#A80036" points="199.36,386.57,201.7271,377.0098,198.487,381.6468,193.85,378.4067,199.36,386.57" style="stroke:#A80036;stroke-width:1.0;"/><!--MD5=[d0f92e4238e3387c8bc623cff9ca230a]
link SampleStore to Barcode--><path codeLine="40" d="M77,463.08 C77,480.33 77,500.74 77,517.76 " fill="none" id="SampleStore-to-Barcode" style="stroke:#A80036;stroke-width:1.0;stroke-dasharray:7.0,7.0;"/><polygon fill="#A80036" points="77,522.93,81,513.93,77,517.93,73,513.93,77,522.93" style="stroke:#A80036;stroke-width:1.0;"/><!--MD5=[2b68ebdcbd3d1a317f0187dee433e622]
link Barcode to ExternalBarcodeAPI--><path codeLine="41" d="M77,585.28 C77,602.08 77,622.85 77,639.38 " fill="none" id="Barcode-to-ExternalBarcodeAPI" style="stroke:#A80036;stroke-width:1.0;"/><polygon fill="#A80036" points="77,644.81,81,635.81,77,639.81,73,635.81,77,644.81" style="stroke:#A80036;stroke-width:1.0;"/><!--MD5=[6fff8c743b4aac4516b5292cd3b50f72]
link Company to SampleStore--><path codeLine="42" d="M148.38,327.23 C135.42,344.8 120.58,364.91 107.81,382.23 " fill="none" id="Company-to-SampleStore" style="stroke:#A80036;stroke-width:1.0;stroke-dasharray:7.0,7.0;"/><polygon fill="#A80036" points="104.61,386.57,113.1796,381.716,107.5848,382.5512,106.7495,376.9563,104.61,386.57" style="stroke:#A80036;stroke-width:1.0;"/><!--MD5=[44e1c30ac9e8998cefb97cd06968fed0]
@startuml
skinparam classAttributeIconSize 0

class RecordSampleUI{
}

class RecordSampleController{
    +authenticate(email, password)
}


class Sample{
-barcode
-testID
}

class ExternalBarcodeAPI{
}

class Barcode{
+CreateBarcode()
}

class SampleStore{

+getSamples()
+addSample(sample)

}

class Company{
+getTestStore()
+getSampleStore()
+getClientStore()
}

RecordSampleUI ..> RecordSampleController
RecordSampleController ..> SampleStore
RecordSampleController ..> Company
Company - -> Sample
SampleStore ..> Barcode
Barcode - -> ExternalBarcodeAPI
Company ..> SampleStore

@enduml

PlantUML version 1.2021.5(Sun Apr 25 12:20:28 BST 2021)
(GPL source distribution)
Java Runtime: OpenJDK Runtime Environment
JVM: Dynamic Code Evolution 64-Bit Server VM
Default Encoding: Cp1252
Language: pt
Country: PT
--></g></svg>