<?xml version="1.0" encoding="UTF-8" standalone="no"?><svg xmlns="http://www.w3.org/2000/svg" xmlns:xlink="http://www.w3.org/1999/xlink" contentScriptType="application/ecmascript" contentStyleType="text/css" height="1003px" preserveAspectRatio="none" style="width:790px;height:1003px;background:#FFFFFF;" version="1.1" viewBox="0 0 790 1003" width="790px" zoomAndPan="magnify"><defs><filter height="300%" id="f19yhezb7o52td" width="300%" x="-1" y="-1"><feGaussianBlur result="blurOut" stdDeviation="2.0"/><feColorMatrix in="blurOut" result="blurOut2" type="matrix" values="0 0 0 0 0 0 0 0 0 0 0 0 0 0 0 0 0 0 .4 0"/><feOffset dx="4.0" dy="4.0" in="blurOut2" result="blurOut3"/><feBlend in="SourceGraphic" in2="blurOut3" mode="normal"/></filter></defs><g><rect fill="#FFFFFF" filter="url(#f19yhezb7o52td)" height="783.9219" style="stroke:#A80036;stroke-width:1.0;" width="10" x="87.5" y="91.5703"/><rect fill="#FFFFFF" filter="url(#f19yhezb7o52td)" height="28" style="stroke:#A80036;stroke-width:1.0;" width="10" x="92.5" y="371.3281"/><rect fill="#FFFFFF" filter="url(#f19yhezb7o52td)" height="28" style="stroke:#A80036;stroke-width:1.0;" width="10" x="92.5" y="444.6797"/><rect fill="#FFFFFF" filter="url(#f19yhezb7o52td)" height="28" style="stroke:#A80036;stroke-width:1.0;" width="10" x="92.5" y="518.0313"/><rect fill="#FFFFFF" filter="url(#f19yhezb7o52td)" height="28" style="stroke:#A80036;stroke-width:1.0;" width="10" x="92.5" y="591.3828"/><rect fill="#FFFFFF" filter="url(#f19yhezb7o52td)" height="30" style="stroke:#A80036;stroke-width:1.0;" width="10" x="225.5" y="121.9219"/><rect fill="#FFFFFF" filter="url(#f19yhezb7o52td)" height="30" style="stroke:#A80036;stroke-width:1.0;" width="10" x="225.5" y="182.2734"/><rect fill="#FFFFFF" filter="url(#f19yhezb7o52td)" height="30" style="stroke:#A80036;stroke-width:1.0;" width="10" x="314.5" y="242.625"/><rect fill="#FFFFFF" filter="url(#f19yhezb7o52td)" height="30" style="stroke:#A80036;stroke-width:1.0;" width="10" x="408.5" y="302.9766"/><rect fill="#FFFFFF" filter="url(#f19yhezb7o52td)" height="283.3672" style="stroke:#000000;stroke-width:2.0;" width="766.5" x="10" y="641.3828"/><rect fill="#FFFFFF" filter="url(#f19yhezb7o52td)" height="113.5703" style="stroke:#000000;stroke-width:2.0;" width="587.5" x="20" y="691.7344"/><rect fill="#FFFFFF" height="48.6094" style="stroke:none;stroke-width:1.0;" width="587.5" x="20" y="756.6953"/><rect fill="#FFFFFF" height="87.4453" style="stroke:none;stroke-width:1.0;" width="766.5" x="10" y="837.3047"/><line style="stroke:#A80036;stroke-width:1.0;stroke-dasharray:5.0,5.0;" x1="92" x2="92" y1="59.2188" y2="941.75"/><line style="stroke:#A80036;stroke-width:1.0;stroke-dasharray:5.0,5.0;" x1="230.5" x2="230.5" y1="59.2188" y2="941.75"/><line style="stroke:#A80036;stroke-width:1.0;stroke-dasharray:5.0,5.0;" x1="319.5" x2="319.5" y1="59.2188" y2="941.75"/><line style="stroke:#A80036;stroke-width:1.0;stroke-dasharray:5.0,5.0;" x1="413.5" x2="413.5" y1="59.2188" y2="941.75"/><line style="stroke:#A80036;stroke-width:1.0;stroke-dasharray:5.0,5.0;" x1="532.5" x2="532.5" y1="792" y2="941.75"/><line style="stroke:#A80036;stroke-width:1.0;stroke-dasharray:5.0,5.0;" x1="686.5" x2="686.5" y1="886.4453" y2="941.75"/><rect fill="#FEFECE" filter="url(#f19yhezb7o52td)" height="49.2188" style="stroke:#A80036;stroke-width:1.5;" width="121" x="30" y="5"/><text fill="#000000" font-family="sans-serif" font-size="14" lengthAdjust="spacing" textLength="30" x="75.5" y="26.5332">task:</text><text fill="#000000" font-family="sans-serif" font-size="14" lengthAdjust="spacing" textLength="107" x="37" y="44.1426">SendReportTask</text><rect fill="#FEFECE" filter="url(#f19yhezb7o52td)" height="49.2188" style="stroke:#A80036;stroke-width:1.5;" width="121" x="30" y="940.75"/><text fill="#000000" font-family="sans-serif" font-size="14" lengthAdjust="spacing" textLength="30" x="75.5" y="962.2832">task:</text><text fill="#000000" font-family="sans-serif" font-size="14" lengthAdjust="spacing" textLength="107" x="37" y="979.8926">SendReportTask</text><rect fill="#FEFECE" filter="url(#f19yhezb7o52td)" height="31.6094" style="stroke:#A80036;stroke-width:1.5;" width="74" x="191.5" y="22.6094"/><text fill="#000000" font-family="sans-serif" font-size="14" lengthAdjust="spacing" textLength="60" x="198.5" y="44.1426">Company</text><rect fill="#FEFECE" filter="url(#f19yhezb7o52td)" height="31.6094" style="stroke:#A80036;stroke-width:1.5;" width="74" x="191.5" y="940.75"/><text fill="#000000" font-family="sans-serif" font-size="14" lengthAdjust="spacing" textLength="60" x="198.5" y="962.2832">Company</text><rect fill="#FEFECE" filter="url(#f19yhezb7o52td)" height="49.2188" style="stroke:#A80036;stroke-width:1.5;" width="76" x="279.5" y="5"/><text fill="#000000" font-family="sans-serif" font-size="14" lengthAdjust="spacing" textLength="36" x="299.5" y="26.5332">store:</text><text fill="#000000" font-family="sans-serif" font-size="14" lengthAdjust="spacing" textLength="62" x="286.5" y="44.1426">TestStore</text><rect fill="#FEFECE" filter="url(#f19yhezb7o52td)" height="49.2188" style="stroke:#A80036;stroke-width:1.5;" width="76" x="279.5" y="940.75"/><text fill="#000000" font-family="sans-serif" font-size="14" lengthAdjust="spacing" textLength="36" x="299.5" y="962.2832">store:</text><text fill="#000000" font-family="sans-serif" font-size="14" lengthAdjust="spacing" textLength="62" x="286.5" y="979.8926">TestStore</text><rect fill="#FEFECE" filter="url(#f19yhezb7o52td)" height="49.2188" style="stroke:#A80036;stroke-width:1.5;" width="84" x="369.5" y="5"/><text fill="#000000" font-family="sans-serif" font-size="14" lengthAdjust="spacing" textLength="36" x="393.5" y="26.5332">store:</text><text fill="#000000" font-family="sans-serif" font-size="14" lengthAdjust="spacing" textLength="70" x="376.5" y="44.1426">ClientStore</text><rect fill="#FEFECE" filter="url(#f19yhezb7o52td)" height="49.2188" style="stroke:#A80036;stroke-width:1.5;" width="84" x="369.5" y="940.75"/><text fill="#000000" font-family="sans-serif" font-size="14" lengthAdjust="spacing" textLength="36" x="393.5" y="962.2832">store:</text><text fill="#000000" font-family="sans-serif" font-size="14" lengthAdjust="spacing" textLength="70" x="376.5" y="979.8926">ClientStore</text><rect fill="#FEFECE" filter="url(#f19yhezb7o52td)" height="31.6094" style="stroke:#A80036;stroke-width:1.5;" width="126" x="467.5" y="940.75"/><text fill="#000000" font-family="sans-serif" font-size="14" lengthAdjust="spacing" textLength="112" x="474.5" y="962.2832">LinearRegression</text><rect fill="#FEFECE" filter="url(#f19yhezb7o52td)" height="31.6094" style="stroke:#A80036;stroke-width:1.5;" width="155" x="607.5" y="940.75"/><text fill="#000000" font-family="sans-serif" font-size="14" lengthAdjust="spacing" textLength="141" x="614.5" y="962.2832">MultiLinearRegression</text><rect fill="#FFFFFF" filter="url(#f19yhezb7o52td)" height="783.9219" style="stroke:#A80036;stroke-width:1.0;" width="10" x="87.5" y="91.5703"/><rect fill="#FFFFFF" filter="url(#f19yhezb7o52td)" height="28" style="stroke:#A80036;stroke-width:1.0;" width="10" x="92.5" y="371.3281"/><rect fill="#FFFFFF" filter="url(#f19yhezb7o52td)" height="28" style="stroke:#A80036;stroke-width:1.0;" width="10" x="92.5" y="444.6797"/><rect fill="#FFFFFF" filter="url(#f19yhezb7o52td)" height="28" style="stroke:#A80036;stroke-width:1.0;" width="10" x="92.5" y="518.0313"/><rect fill="#FFFFFF" filter="url(#f19yhezb7o52td)" height="28" style="stroke:#A80036;stroke-width:1.0;" width="10" x="92.5" y="591.3828"/><rect fill="#FFFFFF" filter="url(#f19yhezb7o52td)" height="30" style="stroke:#A80036;stroke-width:1.0;" width="10" x="225.5" y="121.9219"/><rect fill="#FFFFFF" filter="url(#f19yhezb7o52td)" height="30" style="stroke:#A80036;stroke-width:1.0;" width="10" x="225.5" y="182.2734"/><rect fill="#FFFFFF" filter="url(#f19yhezb7o52td)" height="30" style="stroke:#A80036;stroke-width:1.0;" width="10" x="314.5" y="242.625"/><rect fill="#FFFFFF" filter="url(#f19yhezb7o52td)" height="30" style="stroke:#A80036;stroke-width:1.0;" width="10" x="408.5" y="302.9766"/><ellipse cx="7.5" cy="90.8203" rx="4" ry="4" style="stroke:#A80036;stroke-width:1.5;fill:none;"/><polygon fill="#A80036" points="75.5,87.5703,85.5,91.5703,75.5,95.5703,79.5,91.5703" style="stroke:#A80036;stroke-width:1.0;"/><line style="stroke:#A80036;stroke-width:1.0;" x1="12" x2="81.5" y1="91.5703" y2="91.5703"/><text fill="#000000" font-family="sans-serif" font-size="13" lengthAdjust="spacing" textLength="26" x="15" y="86.7139">run()</text><polygon fill="#A80036" points="213.5,117.9219,223.5,121.9219,213.5,125.9219,217.5,121.9219" style="stroke:#A80036;stroke-width:1.0;"/><line style="stroke:#A80036;stroke-width:1.0;" x1="97.5" x2="219.5" y1="121.9219" y2="121.9219"/><text fill="#000000" font-family="sans-serif" font-size="13" lengthAdjust="spacing" textLength="82" x="104.5" y="117.0654">getTestStore()</text><polygon fill="#A80036" points="213.5,178.2734,223.5,182.2734,213.5,186.2734,217.5,182.2734" style="stroke:#A80036;stroke-width:1.0;"/><line style="stroke:#A80036;stroke-width:1.0;" x1="97.5" x2="219.5" y1="182.2734" y2="182.2734"/><text fill="#000000" font-family="sans-serif" font-size="13" lengthAdjust="spacing" textLength="90" x="104.5" y="177.417">getClientStore()</text><polygon fill="#A80036" points="302.5,238.625,312.5,242.625,302.5,246.625,306.5,242.625" style="stroke:#A80036;stroke-width:1.0;"/><line style="stroke:#A80036;stroke-width:1.0;" x1="97.5" x2="308.5" y1="242.625" y2="242.625"/><text fill="#000000" font-family="sans-serif" font-size="13" lengthAdjust="spacing" textLength="72" x="104.5" y="237.7686">getTestList()</text><polygon fill="#A80036" points="396.5,298.9766,406.5,302.9766,396.5,306.9766,400.5,302.9766" style="stroke:#A80036;stroke-width:1.0;"/><line style="stroke:#A80036;stroke-width:1.0;" x1="97.5" x2="402.5" y1="302.9766" y2="302.9766"/><text fill="#000000" font-family="sans-serif" font-size="13" lengthAdjust="spacing" textLength="80" x="104.5" y="298.1201">getClientList()</text><line style="stroke:#A80036;stroke-width:1.0;" x1="102.5" x2="144.5" y1="363.3281" y2="363.3281"/><line style="stroke:#A80036;stroke-width:1.0;" x1="144.5" x2="144.5" y1="363.3281" y2="376.3281"/><line style="stroke:#A80036;stroke-width:1.0;" x1="103.5" x2="144.5" y1="376.3281" y2="376.3281"/><polygon fill="#A80036" points="113.5,372.3281,103.5,376.3281,113.5,380.3281,109.5,376.3281" style="stroke:#A80036;stroke-width:1.0;"/><text fill="#000000" font-family="sans-serif" font-size="13" lengthAdjust="spacing" textLength="63" x="109.5" y="358.4717">meanAge()</text><line style="stroke:#A80036;stroke-width:1.0;" x1="102.5" x2="144.5" y1="436.6797" y2="436.6797"/><line style="stroke:#A80036;stroke-width:1.0;" x1="144.5" x2="144.5" y1="436.6797" y2="449.6797"/><line style="stroke:#A80036;stroke-width:1.0;" x1="103.5" x2="144.5" y1="449.6797" y2="449.6797"/><polygon fill="#A80036" points="113.5,445.6797,103.5,449.6797,113.5,453.6797,109.5,449.6797" style="stroke:#A80036;stroke-width:1.0;"/><text fill="#000000" font-family="sans-serif" font-size="13" lengthAdjust="spacing" textLength="69" x="109.5" y="431.8232">covidTests()</text><line style="stroke:#A80036;stroke-width:1.0;" x1="102.5" x2="144.5" y1="510.0313" y2="510.0313"/><line style="stroke:#A80036;stroke-width:1.0;" x1="144.5" x2="144.5" y1="510.0313" y2="523.0313"/><line style="stroke:#A80036;stroke-width:1.0;" x1="103.5" x2="144.5" y1="523.0313" y2="523.0313"/><polygon fill="#A80036" points="113.5,519.0313,103.5,523.0313,113.5,527.0313,109.5,523.0313" style="stroke:#A80036;stroke-width:1.0;"/><text fill="#000000" font-family="sans-serif" font-size="13" lengthAdjust="spacing" textLength="114" x="109.5" y="505.1748">positiveCovidTests()</text><line style="stroke:#A80036;stroke-width:1.0;" x1="102.5" x2="144.5" y1="583.3828" y2="583.3828"/><line style="stroke:#A80036;stroke-width:1.0;" x1="144.5" x2="144.5" y1="583.3828" y2="596.3828"/><line style="stroke:#A80036;stroke-width:1.0;" x1="103.5" x2="144.5" y1="596.3828" y2="596.3828"/><polygon fill="#A80036" points="113.5,592.3828,103.5,596.3828,113.5,600.3828,109.5,596.3828" style="stroke:#A80036;stroke-width:1.0;"/><text fill="#000000" font-family="sans-serif" font-size="13" lengthAdjust="spacing" textLength="105" x="109.5" y="578.5264">getProps(location)</text><path d="M10,641.3828 L71,641.3828 L71,649.3828 L61,659.3828 L10,659.3828 L10,641.3828 " fill="#EEEEEE" style="stroke:#000000;stroke-width:1.0;"/><rect fill="none" height="283.3672" style="stroke:#000000;stroke-width:2.0;" width="766.5" x="10" y="641.3828"/><text fill="#000000" font-family="sans-serif" font-size="13" font-weight="bold" lengthAdjust="spacing" textLength="16" x="25" y="655.8779">alt</text><text fill="#000000" font-family="sans-serif" font-size="11" font-weight="bold" lengthAdjust="spacing" textLength="110" x="86" y="654.8018">[Linear Regression]</text><path d="M20,691.7344 L81,691.7344 L81,699.7344 L71,709.7344 L20,709.7344 L20,691.7344 " fill="#EEEEEE" style="stroke:#000000;stroke-width:1.0;"/><rect fill="none" height="113.5703" style="stroke:#000000;stroke-width:2.0;" width="587.5" x="20" y="691.7344"/><text fill="#000000" font-family="sans-serif" font-size="13" font-weight="bold" lengthAdjust="spacing" textLength="16" x="35" y="706.2295">alt</text><text fill="#000000" font-family="sans-serif" font-size="11" font-weight="bold" lengthAdjust="spacing" textLength="69" x="96" y="705.1533">[covidTests]</text><polygon fill="#A80036" points="455.5,728.4375,465.5,732.4375,455.5,736.4375,459.5,732.4375" style="stroke:#A80036;stroke-width:1.0;"/><line style="stroke:#A80036;stroke-width:1.0;" x1="97.5" x2="461.5" y1="732.4375" y2="732.4375"/><text fill="#000000" font-family="sans-serif" font-size="13" lengthAdjust="spacing" textLength="240" x="104.5" y="727.5811">create(validatedTests, positiveCovidTests)</text><rect fill="#FEFECE" filter="url(#f19yhezb7o52td)" height="31.6094" style="stroke:#A80036;stroke-width:1.5;" width="126" x="467.5" y="710.0859"/><text fill="#000000" font-family="sans-serif" font-size="14" lengthAdjust="spacing" textLength="112" x="474.5" y="731.6191">LinearRegression</text><line style="stroke:#000000;stroke-width:1.0;stroke-dasharray:2.0,2.0;" x1="20" x2="607.5" y1="757.6953" y2="757.6953"/><polygon fill="#A80036" points="455.5,777.0469,465.5,781.0469,455.5,785.0469,459.5,781.0469" style="stroke:#A80036;stroke-width:1.0;"/><line style="stroke:#A80036;stroke-width:1.0;" x1="97.5" x2="461.5" y1="781.0469" y2="781.0469"/><text fill="#000000" font-family="sans-serif" font-size="13" lengthAdjust="spacing" textLength="213" x="104.5" y="776.1904">create(meanAge, positiveCovidTests)</text><rect fill="#FEFECE" filter="url(#f19yhezb7o52td)" height="31.6094" style="stroke:#A80036;stroke-width:1.5;" width="126" x="467.5" y="758.6953"/><text fill="#000000" font-family="sans-serif" font-size="14" lengthAdjust="spacing" textLength="112" x="474.5" y="780.2285">LinearRegression</text><line style="stroke:#000000;stroke-width:1.0;stroke-dasharray:2.0,2.0;" x1="10" x2="776.5" y1="838.3047" y2="838.3047"/><text fill="#000000" font-family="sans-serif" font-size="11" font-weight="bold" lengthAdjust="spacing" textLength="133" x="15" y="849.7236">[Multilinear Regression]</text><polygon fill="#A80036" points="595.5,871.4922,605.5,875.4922,595.5,879.4922,599.5,875.4922" style="stroke:#A80036;stroke-width:1.0;"/><line style="stroke:#A80036;stroke-width:1.0;" x1="92.5" x2="601.5" y1="875.4922" y2="875.4922"/><text fill="#000000" font-family="sans-serif" font-size="13" lengthAdjust="spacing" textLength="303" x="99.5" y="870.6357">create(validatedTests, meanAge, positiveCovidTests)</text><rect fill="#FEFECE" filter="url(#f19yhezb7o52td)" height="31.6094" style="stroke:#A80036;stroke-width:1.5;" width="155" x="607.5" y="853.1406"/><text fill="#000000" font-family="sans-serif" font-size="14" lengthAdjust="spacing" textLength="141" x="614.5" y="874.6738">MultiLinearRegression</text><!--MD5=[cad80e8faa11882347cecb9c88153834]
@startuml
participant "task:\nSendReportTask" as SR
participant "Company" as CPN
participant "store:\nTestStore" as TS
participant "store:\nClientStore" as CL
participant "LinearRegression" as LIRE
participant "MultiLinearRegression" as MLIRE

[o-> SR : run()
activate SR
SR -> CPN : getTestStore()
activate CPN
deactivate CPN
SR -> CPN : getClientStore()
activate CPN
deactivate CPN
SR -> TS : getTestList()
activate TS
deactivate TS
SR -> CL : getClientList()
activate CL
deactivate CL
SR -> SR : meanAge()
activate SR
deactivate SR
SR -> SR : covidTests()
activate SR
deactivate SR
SR -> SR : positiveCovidTests()
activate SR
deactivate SR
SR -> SR : getProps(location)
activate SR
deactivate SR
alt Linear Regression
|||
alt covidTests
SR -> LIRE** : create(validatedTests, positiveCovidTests)
else
SR -> LIRE** : create(meanAge, positiveCovidTests)
end
|||
else Multilinear Regression
SR -> MLIRE** : create(validatedTests, meanAge, positiveCovidTests)
deactivate SR
|||
end
@enduml

PlantUML version 1.2021.7(Sun May 23 13:40:07 BST 2021)
(GPL source distribution)
Java Runtime: OpenJDK Runtime Environment
JVM: Dynamic Code Evolution 64-Bit Server VM
Default Encoding: Cp1252
Language: pt
Country: PT
--></g></svg>