<?xml version="1.0" encoding="UTF-8" standalone="no"?><svg xmlns="http://www.w3.org/2000/svg" xmlns:xlink="http://www.w3.org/1999/xlink" contentScriptType="application/ecmascript" contentStyleType="text/css" height="175px" preserveAspectRatio="none" style="width:552px;height:175px;" version="1.1" viewBox="0 0 552 175" width="552px" zoomAndPan="magnify"><defs><filter height="300%" id="fezqcxm9rdl1j" width="300%" x="-1" y="-1"><feGaussianBlur result="blurOut" stdDeviation="2.0"/><feColorMatrix in="blurOut" result="blurOut2" type="matrix" values="0 0 0 0 0 0 0 0 0 0 0 0 0 0 0 0 0 0 .4 0"/><feOffset dx="4.0" dy="4.0" in="blurOut2" result="blurOut3"/><feBlend in="SourceGraphic" in2="blurOut3" mode="normal"/></filter></defs><g><!--MD5=[02e4b9b7573f1156f41e60aa5b4e25a4]
class Company--><rect codeLine="5" fill="#FEFECE" filter="url(#fezqcxm9rdl1j)" height="52.9551" id="Company" style="stroke:#A80036;stroke-width:1.5;" width="86" x="7" y="74"/><ellipse cx="22" cy="90" fill="#ADD1B2" rx="11" ry="11" style="stroke:#A80036;stroke-width:1.0;"/><path d="M24.4731,96.1431 Q23.8921,96.4419 23.2529,96.5913 Q22.6138,96.7407 21.9082,96.7407 Q19.4014,96.7407 18.0815,95.0889 Q16.7617,93.437 16.7617,90.3159 Q16.7617,87.1865 18.0815,85.5347 Q19.4014,83.8828 21.9082,83.8828 Q22.6138,83.8828 23.2612,84.0322 Q23.9087,84.1816 24.4731,84.4805 L24.4731,87.2031 Q23.8423,86.6221 23.2488,86.3523 Q22.6553,86.0825 22.0244,86.0825 Q20.6797,86.0825 19.9949,87.1492 Q19.3101,88.2158 19.3101,90.3159 Q19.3101,92.4077 19.9949,93.4744 Q20.6797,94.541 22.0244,94.541 Q22.6553,94.541 23.2488,94.2712 Q23.8423,94.0015 24.4731,93.4204 Z " fill="#000000"/><text fill="#000000" font-family="sans-serif" font-size="12" lengthAdjust="spacing" textLength="54" x="36" y="94.5352">Company</text><line style="stroke:#A80036;stroke-width:1.5;" x1="8" x2="92" y1="106" y2="106"/><text fill="#000000" font-family="sans-serif" font-size="11" lengthAdjust="spacing" textLength="72" x="13" y="120.6348">-chemicalLab</text><!--MD5=[57e3c8a04059ff4826a5f4587a33ba8c]
class TestDiagnosis--><rect codeLine="10" fill="#FEFECE" filter="url(#fezqcxm9rdl1j)" height="52.9551" id="TestDiagnosis" style="stroke:#A80036;stroke-width:1.5;" width="112" x="426" y="7"/><ellipse cx="441" cy="23" fill="#ADD1B2" rx="11" ry="11" style="stroke:#A80036;stroke-width:1.0;"/><path d="M443.4731,29.1431 Q442.8921,29.4419 442.2529,29.5913 Q441.6138,29.7407 440.9082,29.7407 Q438.4014,29.7407 437.0815,28.0889 Q435.7617,26.437 435.7617,23.3159 Q435.7617,20.1865 437.0815,18.5347 Q438.4014,16.8828 440.9082,16.8828 Q441.6138,16.8828 442.2612,17.0322 Q442.9087,17.1816 443.4731,17.4805 L443.4731,20.2031 Q442.8423,19.6221 442.2488,19.3523 Q441.6553,19.0825 441.0244,19.0825 Q439.6797,19.0825 438.9949,20.1492 Q438.3101,21.2158 438.3101,23.3159 Q438.3101,25.4077 438.9949,26.4744 Q439.6797,27.541 441.0244,27.541 Q441.6553,27.541 442.2488,27.2712 Q442.8423,27.0015 443.4731,26.4204 Z " fill="#000000"/><text fill="#000000" font-family="sans-serif" font-size="12" lengthAdjust="spacing" textLength="80" x="455" y="27.5352">TestDiagnosis</text><line style="stroke:#A80036;stroke-width:1.5;" x1="427" x2="537" y1="39" y2="39"/><text fill="#000000" font-family="sans-serif" font-size="11" lengthAdjust="spacing" textLength="69" x="432" y="53.6348">-information</text><!--MD5=[1440c33e6e2d06f1d65157f758d3adef]
class TestReport--><rect codeLine="14" fill="#FEFECE" filter="url(#fezqcxm9rdl1j)" height="52.9551" id="TestReport" style="stroke:#A80036;stroke-width:1.5;" width="96" x="229" y="7"/><ellipse cx="244" cy="23" fill="#ADD1B2" rx="11" ry="11" style="stroke:#A80036;stroke-width:1.0;"/><path d="M246.4731,29.1431 Q245.8921,29.4419 245.2529,29.5913 Q244.6138,29.7407 243.9082,29.7407 Q241.4014,29.7407 240.0815,28.0889 Q238.7617,26.437 238.7617,23.3159 Q238.7617,20.1865 240.0815,18.5347 Q241.4014,16.8828 243.9082,16.8828 Q244.6138,16.8828 245.2612,17.0322 Q245.9087,17.1816 246.4731,17.4805 L246.4731,20.2031 Q245.8423,19.6221 245.2488,19.3523 Q244.6553,19.0825 244.0244,19.0825 Q242.6797,19.0825 241.9949,20.1492 Q241.3101,21.2158 241.3101,23.3159 Q241.3101,25.4077 241.9949,26.4744 Q242.6797,27.541 244.0244,27.541 Q244.6553,27.541 245.2488,27.2712 Q245.8423,27.0015 246.4731,26.4204 Z " fill="#000000"/><text fill="#000000" font-family="sans-serif" font-size="12" lengthAdjust="spacing" textLength="64" x="258" y="27.5352">TestReport</text><line style="stroke:#A80036;stroke-width:1.5;" x1="230" x2="324" y1="39" y2="39"/><text fill="#000000" font-family="sans-serif" font-size="11" lengthAdjust="spacing" textLength="69" x="235" y="53.6348">-information</text><!--MD5=[df38be88ccee13e832d6fafd6288a4ca]
class Test--><rect codeLine="18" fill="#FEFECE" filter="url(#fezqcxm9rdl1j)" height="65.9102" id="Test" style="stroke:#A80036;stroke-width:1.5;" width="94" x="230" y="95.5"/><ellipse cx="261.65" cy="111.5" fill="#ADD1B2" rx="11" ry="11" style="stroke:#A80036;stroke-width:1.0;"/><path d="M264.1231,117.6431 Q263.5421,117.9419 262.9029,118.0913 Q262.2638,118.2407 261.5582,118.2407 Q259.0514,118.2407 257.7315,116.5889 Q256.4117,114.937 256.4117,111.8159 Q256.4117,108.6865 257.7315,107.0347 Q259.0514,105.3828 261.5582,105.3828 Q262.2638,105.3828 262.9112,105.5322 Q263.5587,105.6816 264.1231,105.9805 L264.1231,108.7031 Q263.4923,108.1221 262.8988,107.8523 Q262.3053,107.5825 261.6744,107.5825 Q260.3297,107.5825 259.6449,108.6492 Q258.9601,109.7158 258.9601,111.8159 Q258.9601,113.9077 259.6449,114.9744 Q260.3297,116.041 261.6744,116.041 Q262.3053,116.041 262.8988,115.7712 Q263.4923,115.5015 264.1231,114.9204 Z " fill="#000000"/><text fill="#000000" font-family="sans-serif" font-size="12" lengthAdjust="spacing" textLength="25" x="279.35" y="116.0352">Test</text><line style="stroke:#A80036;stroke-width:1.5;" x1="231" x2="323" y1="127.5" y2="127.5"/><text fill="#000000" font-family="sans-serif" font-size="11" lengthAdjust="spacing" textLength="32" x="236" y="142.1348">-state</text><text fill="#000000" font-family="sans-serif" font-size="11" lengthAdjust="spacing" textLength="82" x="236" y="155.0898">-validationDate</text><!--MD5=[2ba8bdceef32910d93c930cbc1f6e2c5]
link Company to TestReport--><path codeLine="23" d="M93.06,87.98 C131.6,76.5 188.59,59.53 228.7,47.58 " fill="none" id="Company-TestReport" style="stroke:#A80036;stroke-width:1.0;"/><polygon fill="#000000" points="132.792,46.728,123.2843,46.4933,124.9622,52.1266,132.792,46.728" style="stroke:#000000;stroke-width:1.0;"/><text fill="#000000" font-family="sans-serif" font-size="13" lengthAdjust="spacing" textLength="61" x="137" y="53.0684">can acess</text><text fill="#000000" font-family="sans-serif" font-size="13" lengthAdjust="spacing" textLength="8" x="100.8543" y="99.7464">1</text><text fill="#000000" font-family="sans-serif" font-size="13" lengthAdjust="spacing" textLength="6" x="214.8447" y="63.48">*</text><!--MD5=[7e4bc624457760b649895ff2ead938fa]
link Company to Test--><path codeLine="24" d="M93.19,107.97 C102.96,109.58 113.33,111.19 123,112.5 C158.73,117.34 199.32,121.53 229.71,124.4 " fill="none" id="Company-Test" style="stroke:#A80036;stroke-width:1.0;"/><polygon fill="#000000" points="132.9642,104.7527,124.3351,100.7541,123.6327,106.5898,132.9642,104.7527" style="stroke:#000000;stroke-width:1.0;"/><text fill="#000000" font-family="sans-serif" font-size="13" lengthAdjust="spacing" textLength="61" x="137" y="109.0684">can acess</text><text fill="#000000" font-family="sans-serif" font-size="13" lengthAdjust="spacing" textLength="8" x="101.0058" y="123.0472">1</text><text fill="#000000" font-family="sans-serif" font-size="13" lengthAdjust="spacing" textLength="6" x="216.0093" y="137.5196">*</text><!--MD5=[22a19bb96da0008c608c0131bff393cb]
link TestReport to TestDiagnosis--><path codeLine="25" d="M325.08,33.5 C355.18,33.5 394.35,33.5 425.9,33.5 " fill="none" id="TestReport-TestDiagnosis" style="stroke:#A80036;stroke-width:1.0;"/><polygon fill="#000000" points="365,25.1553,355.9549,22.2163,355.9549,28.0942,365,25.1553" style="stroke:#000000;stroke-width:1.0;"/><text fill="#000000" font-family="sans-serif" font-size="13" lengthAdjust="spacing" textLength="26" x="369" y="30.0684">own</text><text fill="#000000" font-family="sans-serif" font-size="13" lengthAdjust="spacing" textLength="8" x="333.0547" y="47.244">1</text><text fill="#000000" font-family="sans-serif" font-size="13" lengthAdjust="spacing" textLength="8" x="409.8241" y="47.1001">1</text><!--MD5=[ad8557cf23be2384e40598e0dde1bda2]
@startuml
hide methods
left to right direction
skinparam classAttributeIconSize 0

class Company{
-chemicalLab
}


class TestDiagnosis {
-information
}

class TestReport{
-information
}

class Test{
-state
-validationDate
}

Company "1" - - "*" TestReport : can acess >
Company "1" - - "*" Test : can acess >
TestReport "1" - - "1" TestDiagnosis : own >
@enduml

PlantUML version 1.2021.00(Sun Jan 10 10:25:05 WET 2021)
(GPL source distribution)
Java Runtime: OpenJDK Runtime Environment
JVM: OpenJDK 64-Bit Server VM
Default Encoding: UTF-8
Language: en
Country: PT
--></g></svg>