<?xml version="1.0" encoding="UTF-8" standalone="no"?><svg xmlns="http://www.w3.org/2000/svg" xmlns:xlink="http://www.w3.org/1999/xlink" contentScriptType="application/ecmascript" contentStyleType="text/css" height="505px" preserveAspectRatio="none" style="width:832px;height:505px;" version="1.1" viewBox="0 0 832 505" width="832.5px" zoomAndPan="magnify"><defs><filter height="300%" id="fqui2xag8v721" width="300%" x="-1" y="-1"><feGaussianBlur result="blurOut" stdDeviation="2.5"/><feColorMatrix in="blurOut" result="blurOut2" type="matrix" values="0 0 0 0 0 0 0 0 0 0 0 0 0 0 0 0 0 0 .4 0"/><feOffset dx="5.0" dy="5.0" in="blurOut2" result="blurOut3"/><feBlend in="SourceGraphic" in2="blurOut3" mode="normal"/></filter></defs><g><!--MD5=[da547346deef918ea16944ba046651ef]
class Administrator--><rect codeLine="6" fill="#FEFECE" filter="url(#fqui2xag8v721)" height="50" id="Administrator" style="stroke:#A80036;stroke-width:1.875;" width="131.25" x="8.75" y="204.375"/><ellipse cx="27.5" cy="224.375" fill="#ADD1B2" rx="13.75" ry="13.75" style="stroke:#A80036;stroke-width:1.25;"/><path d="M30,220 Q30.2539,219.375 30.5469,219.0625 Q30.8398,218.75 31.1719,218.75 Q31.7578,218.75 32.1289,219.1016 Q32.5,219.4531 32.5,220.2734 L32.5,222.2266 Q32.5,223.0469 32.1484,223.3984 Q31.7969,223.75 31.25,223.75 Q30.7617,223.75 30.4492,223.5352 Q30.1367,223.3203 30,222.7539 Q29.9414,222.3633 29.7266,222.1484 Q29.3359,221.7383 28.6328,221.5039 Q27.9297,221.25 27.2266,221.25 Q26.3477,221.25 25.6055,221.6016 Q24.8828,221.9531 24.3164,222.7344 Q23.75,223.5156 23.75,224.5898 L23.75,225.7422 Q23.75,227.0313 24.8047,227.8906 Q25.8594,228.75 27.7344,228.75 Q28.8477,228.75 29.6289,228.4961 Q30.0781,228.3594 30.5859,227.9102 Q30.918,227.6563 31.0938,227.5781 Q31.2695,227.5 31.4844,227.5 Q31.8945,227.5 32.1875,227.832 Q32.5,228.1445 32.5,228.5938 Q32.5,229.0234 32.0703,229.5313 Q31.4453,230.2734 30.4492,230.6836 Q29.1406,231.25 27.5391,231.25 Q25.6641,231.25 24.1602,230.5078 Q22.9492,229.9219 22.0898,228.6523 Q21.25,227.3828 21.25,225.8789 L21.25,224.5117 Q21.25,222.9492 21.9922,221.582 Q22.7539,220.2148 24.0625,219.4922 Q25.3906,218.75 26.875,218.75 Q27.7734,218.75 28.5547,219.0625 Q29.3359,219.375 30,220 Z " fill="#000000"/><text fill="#000000" font-family="sans-serif" font-size="15" lengthAdjust="spacing" textLength="91.25" x="45" y="230.5127">Administrator</text><line style="stroke:#A80036;stroke-width:1.875;" x1="10" x2="138.75" y1="244.375" y2="244.375"/><!--MD5=[1934a092c0e7d4da7dc7075b6f4b6b03]
class ClinicalAnalysisLaboratory--><rect codeLine="9" fill="#FEFECE" filter="url(#fqui2xag8v721)" height="153.7695" id="ClinicalAnalysisLaboratory" style="stroke:#A80036;stroke-width:1.875;" width="221.25" x="306.25" y="8.75"/><ellipse cx="325" cy="28.75" fill="#ADD1B2" rx="13.75" ry="13.75" style="stroke:#A80036;stroke-width:1.25;"/><path d="M327.5,24.375 Q327.7539,23.75 328.0469,23.4375 Q328.3398,23.125 328.6719,23.125 Q329.2578,23.125 329.6289,23.4766 Q330,23.8281 330,24.6484 L330,26.6016 Q330,27.4219 329.6484,27.7734 Q329.2969,28.125 328.75,28.125 Q328.2617,28.125 327.9492,27.9102 Q327.6367,27.6953 327.5,27.1289 Q327.4414,26.7383 327.2266,26.5234 Q326.8359,26.1133 326.1328,25.8789 Q325.4297,25.625 324.7266,25.625 Q323.8477,25.625 323.1055,25.9766 Q322.3828,26.3281 321.8164,27.1094 Q321.25,27.8906 321.25,28.9648 L321.25,30.1172 Q321.25,31.4063 322.3047,32.2656 Q323.3594,33.125 325.2344,33.125 Q326.3477,33.125 327.1289,32.8711 Q327.5781,32.7344 328.0859,32.2852 Q328.418,32.0313 328.5938,31.9531 Q328.7695,31.875 328.9844,31.875 Q329.3945,31.875 329.6875,32.207 Q330,32.5195 330,32.9688 Q330,33.3984 329.5703,33.9063 Q328.9453,34.6484 327.9492,35.0586 Q326.6406,35.625 325.0391,35.625 Q323.1641,35.625 321.6602,34.8828 Q320.4492,34.2969 319.5898,33.0273 Q318.75,31.7578 318.75,30.2539 L318.75,28.8867 Q318.75,27.3242 319.4922,25.957 Q320.2539,24.5898 321.5625,23.8672 Q322.8906,23.125 324.375,23.125 Q325.2734,23.125 326.0547,23.4375 Q326.8359,23.75 327.5,24.375 Z " fill="#000000"/><text fill="#000000" font-family="sans-serif" font-size="15" lengthAdjust="spacing" textLength="181.25" x="342.5" y="34.8877">ClinicalAnalysisLaboratory</text><line style="stroke:#A80036;stroke-width:1.875;" x1="307.5" x2="526.25" y1="48.75" y2="48.75"/><text fill="#000000" font-family="sans-serif" font-size="13.75" lengthAdjust="spacing" textLength="81.25" x="313.75" y="68.0237">-idLaboratory</text><text fill="#000000" font-family="sans-serif" font-size="13.75" lengthAdjust="spacing" textLength="37.5" x="313.75" y="85.3186">-name</text><text fill="#000000" font-family="sans-serif" font-size="13.75" lengthAdjust="spacing" textLength="55" x="313.75" y="102.6135">-address</text><text fill="#000000" font-family="sans-serif" font-size="13.75" lengthAdjust="spacing" textLength="88.75" x="313.75" y="119.9084">-phoneNumber</text><text fill="#000000" font-family="sans-serif" font-size="13.75" lengthAdjust="spacing" textLength="18.75" x="313.75" y="137.2034">-tin</text><text fill="#000000" font-family="sans-serif" font-size="13.75" lengthAdjust="spacing" textLength="57.5" x="313.75" y="154.4983">-testType</text><!--MD5=[aeb3272166074d8737a70b61b1e71682]
class TestType--><rect codeLine="18" fill="#FEFECE" filter="url(#fqui2xag8v721)" height="101.8848" id="TestType" style="stroke:#A80036;stroke-width:1.875;" width="127.5" x="687.5" y="141.875"/><ellipse cx="717.5" cy="161.875" fill="#ADD1B2" rx="13.75" ry="13.75" style="stroke:#A80036;stroke-width:1.25;"/><path d="M720,157.5 Q720.2539,156.875 720.5469,156.5625 Q720.8398,156.25 721.1719,156.25 Q721.7578,156.25 722.1289,156.6016 Q722.5,156.9531 722.5,157.7734 L722.5,159.7266 Q722.5,160.5469 722.1484,160.8984 Q721.7969,161.25 721.25,161.25 Q720.7617,161.25 720.4492,161.0352 Q720.1367,160.8203 720,160.2539 Q719.9414,159.8633 719.7266,159.6484 Q719.3359,159.2383 718.6328,159.0039 Q717.9297,158.75 717.2266,158.75 Q716.3477,158.75 715.6055,159.1016 Q714.8828,159.4531 714.3164,160.2344 Q713.75,161.0156 713.75,162.0898 L713.75,163.2422 Q713.75,164.5313 714.8047,165.3906 Q715.8594,166.25 717.7344,166.25 Q718.8477,166.25 719.6289,165.9961 Q720.0781,165.8594 720.5859,165.4102 Q720.918,165.1563 721.0938,165.0781 Q721.2695,165 721.4844,165 Q721.8945,165 722.1875,165.332 Q722.5,165.6445 722.5,166.0938 Q722.5,166.5234 722.0703,167.0313 Q721.4453,167.7734 720.4492,168.1836 Q719.1406,168.75 717.5391,168.75 Q715.6641,168.75 714.1602,168.0078 Q712.9492,167.4219 712.0898,166.1523 Q711.25,164.8828 711.25,163.3789 L711.25,162.0117 Q711.25,160.4492 711.9922,159.082 Q712.7539,157.7148 714.0625,156.9922 Q715.3906,156.25 716.875,156.25 Q717.7734,156.25 718.5547,156.5625 Q719.3359,156.875 720,157.5 Z " fill="#000000"/><text fill="#000000" font-family="sans-serif" font-size="15" lengthAdjust="spacing" textLength="62.5" x="737.5" y="168.0127">TestType</text><line style="stroke:#A80036;stroke-width:1.875;" x1="688.75" x2="813.75" y1="181.875" y2="181.875"/><text fill="#000000" font-family="sans-serif" font-size="13.75" lengthAdjust="spacing" textLength="35" x="695" y="201.1487">-code</text><text fill="#000000" font-family="sans-serif" font-size="13.75" lengthAdjust="spacing" textLength="71.25" x="695" y="218.4436">-description</text><text fill="#000000" font-family="sans-serif" font-size="13.75" lengthAdjust="spacing" textLength="112.5" x="695" y="235.7385">-collectingMethods</text><!--MD5=[7421f545a0d8420c5bec41e74b387d9c]
class Employee--><rect codeLine="25" fill="#FEFECE" filter="url(#fqui2xag8v721)" height="171.0645" id="Employee" style="stroke:#A80036;stroke-width:1.875;" width="108.75" x="362.5" y="317.5"/><ellipse cx="381.25" cy="337.5" fill="#ADD1B2" rx="13.75" ry="13.75" style="stroke:#A80036;stroke-width:1.25;"/><path d="M383.75,333.125 Q384.0039,332.5 384.2969,332.1875 Q384.5898,331.875 384.9219,331.875 Q385.5078,331.875 385.8789,332.2266 Q386.25,332.5781 386.25,333.3984 L386.25,335.3516 Q386.25,336.1719 385.8984,336.5234 Q385.5469,336.875 385,336.875 Q384.5117,336.875 384.1992,336.6602 Q383.8867,336.4453 383.75,335.8789 Q383.6914,335.4883 383.4766,335.2734 Q383.0859,334.8633 382.3828,334.6289 Q381.6797,334.375 380.9766,334.375 Q380.0977,334.375 379.3555,334.7266 Q378.6328,335.0781 378.0664,335.8594 Q377.5,336.6406 377.5,337.7148 L377.5,338.8672 Q377.5,340.1563 378.5547,341.0156 Q379.6094,341.875 381.4844,341.875 Q382.5977,341.875 383.3789,341.6211 Q383.8281,341.4844 384.3359,341.0352 Q384.668,340.7813 384.8438,340.7031 Q385.0195,340.625 385.2344,340.625 Q385.6445,340.625 385.9375,340.957 Q386.25,341.2695 386.25,341.7188 Q386.25,342.1484 385.8203,342.6563 Q385.1953,343.3984 384.1992,343.8086 Q382.8906,344.375 381.2891,344.375 Q379.4141,344.375 377.9102,343.6328 Q376.6992,343.0469 375.8398,341.7773 Q375,340.5078 375,339.0039 L375,337.6367 Q375,336.0742 375.7422,334.707 Q376.5039,333.3398 377.8125,332.6172 Q379.1406,331.875 380.625,331.875 Q381.5234,331.875 382.3047,332.1875 Q383.0859,332.5 383.75,333.125 Z " fill="#000000"/><text fill="#000000" font-family="sans-serif" font-size="15" lengthAdjust="spacing" textLength="68.75" x="398.75" y="343.6377">Employee</text><line style="stroke:#A80036;stroke-width:1.875;" x1="363.75" x2="470" y1="357.5" y2="357.5"/><text fill="#000000" font-family="sans-serif" font-size="13.75" lengthAdjust="spacing" textLength="72.5" x="370" y="376.7737">-idEmployee</text><text fill="#000000" font-family="sans-serif" font-size="13.75" lengthAdjust="spacing" textLength="37.5" x="370" y="394.0686">-name</text><text fill="#000000" font-family="sans-serif" font-size="13.75" lengthAdjust="spacing" textLength="53.75" x="370" y="411.3635">-function</text><text fill="#000000" font-family="sans-serif" font-size="13.75" lengthAdjust="spacing" textLength="88.75" x="370" y="428.6584">-phoneNumber</text><text fill="#000000" font-family="sans-serif" font-size="13.75" lengthAdjust="spacing" textLength="35" x="370" y="445.9534">-email</text><text fill="#000000" font-family="sans-serif" font-size="13.75" lengthAdjust="spacing" textLength="55" x="370" y="463.2483">-address</text><text fill="#000000" font-family="sans-serif" font-size="13.75" lengthAdjust="spacing" textLength="27.5" x="370" y="480.5432">-soc</text><!--MD5=[99b8db98afdc2c8404e39242ef4c1e65]
class Platform--><rect codeLine="35" fill="#FEFECE" filter="url(#fqui2xag8v721)" height="50" id="Platform" style="stroke:#A80036;stroke-width:1.875;" width="97.5" x="702.5" y="378.125"/><ellipse cx="721.25" cy="398.125" fill="#ADD1B2" rx="13.75" ry="13.75" style="stroke:#A80036;stroke-width:1.25;"/><path d="M723.75,393.75 Q724.0039,393.125 724.2969,392.8125 Q724.5898,392.5 724.9219,392.5 Q725.5078,392.5 725.8789,392.8516 Q726.25,393.2031 726.25,394.0234 L726.25,395.9766 Q726.25,396.7969 725.8984,397.1484 Q725.5469,397.5 725,397.5 Q724.5117,397.5 724.1992,397.2852 Q723.8867,397.0703 723.75,396.5039 Q723.6914,396.1133 723.4766,395.8984 Q723.0859,395.4883 722.3828,395.2539 Q721.6797,395 720.9766,395 Q720.0977,395 719.3555,395.3516 Q718.6328,395.7031 718.0664,396.4844 Q717.5,397.2656 717.5,398.3398 L717.5,399.4922 Q717.5,400.7813 718.5547,401.6406 Q719.6094,402.5 721.4844,402.5 Q722.5977,402.5 723.3789,402.2461 Q723.8281,402.1094 724.3359,401.6602 Q724.668,401.4063 724.8438,401.3281 Q725.0195,401.25 725.2344,401.25 Q725.6445,401.25 725.9375,401.582 Q726.25,401.8945 726.25,402.3438 Q726.25,402.7734 725.8203,403.2813 Q725.1953,404.0234 724.1992,404.4336 Q722.8906,405 721.2891,405 Q719.4141,405 717.9102,404.2578 Q716.6992,403.6719 715.8398,402.4023 Q715,401.1328 715,399.6289 L715,398.2617 Q715,396.6992 715.7422,395.332 Q716.5039,393.9648 717.8125,393.2422 Q719.1406,392.5 720.625,392.5 Q721.5234,392.5 722.3047,392.8125 Q723.0859,393.125 723.75,393.75 Z " fill="#000000"/><text fill="#000000" font-family="sans-serif" font-size="15" lengthAdjust="spacing" textLength="57.5" x="738.75" y="404.2627">Platform</text><line style="stroke:#A80036;stroke-width:1.875;" x1="703.75" x2="798.75" y1="418.125" y2="418.125"/><!--MD5=[23b8a99c177c2cd6d714b2cbaa81b3c4]
link Administrator to ClinicalAnalysisLaboratory--><path codeLine="39" d="M134.85,204.3375 C181.9375,184.425 249.1125,156.025 305.95,132 " fill="none" id="Administrator-ClinicalAnalysisLaboratory" style="stroke:#A80036;stroke-width:1.25;"/><polygon fill="#000000" points="203.2567,135.9109,191.4122,136.93,194.2733,143.6974,203.2567,135.9109" style="stroke:#000000;stroke-width:1.25;"/><text fill="#000000" font-family="sans-serif" font-size="16.25" lengthAdjust="spacing" textLength="45" x="208.75" y="144.9939">create</text><text fill="#000000" font-family="sans-serif" font-size="16.25" lengthAdjust="spacing" textLength="8.75" x="142.5794" y="190.9787">1</text><text fill="#000000" font-family="sans-serif" font-size="16.25" lengthAdjust="spacing" textLength="6.25" x="289.8988" y="153.7317">*</text><!--MD5=[8f7dd94d56b58fc07b233ccd3dd98f8c]
link Administrator to Employee--><path codeLine="40" d="M121.6125,254.6125 C139.05,264.075 159.125,274.8375 177.5,284.375 C240.6375,317.15 313.9875,353.4625 362.4125,377.2 " fill="none" id="Administrator-Employee" style="stroke:#A80036;stroke-width:1.25;"/><polygon fill="#000000" points="189.3198,276.1802,180.9106,267.7769,177.5773,274.3246,189.3198,276.1802" style="stroke:#000000;stroke-width:1.25;"/><text fill="#000000" font-family="sans-serif" font-size="16.25" lengthAdjust="spacing" textLength="72.5" x="195" y="279.9939">is / create</text><text fill="#000000" font-family="sans-serif" font-size="16.25" lengthAdjust="spacing" textLength="8.75" x="124.9176" y="281.4537">1</text><text fill="#000000" font-family="sans-serif" font-size="16.25" lengthAdjust="spacing" textLength="6.25" x="346.2646" y="391.3855">*</text><!--MD5=[71159b3869b6d7a411768e18bcaa697a]
link Administrator to TestType--><path codeLine="41" d="M140.3625,226.4 C228.1125,222.3 389.6625,214.5625 527.5,206.875 C581.4,203.8625 642.6375,200.05 687.1875,197.2125 " fill="none" id="Administrator-TestType" style="stroke:#A80036;stroke-width:1.25;"/><polygon fill="#000000" points="397.4911,195.5116,386.005,192.4458,386.3966,199.7827,397.4911,195.5116" style="stroke:#000000;stroke-width:1.25;"/><text fill="#000000" font-family="sans-serif" font-size="16.25" lengthAdjust="spacing" textLength="45" x="402.5" y="202.4939">create</text><text fill="#000000" font-family="sans-serif" font-size="16.25" lengthAdjust="spacing" textLength="8.75" x="149.8175" y="244.2424">1</text><text fill="#000000" font-family="sans-serif" font-size="16.25" lengthAdjust="spacing" textLength="6.25" x="671.0693" y="216.228">*</text><!--MD5=[2eb961b30663a01bbfd8b4b9b8950031]
link ClinicalAnalysisLaboratory to TestType--><path codeLine="42" d="M527.7125,121.125 C580.7625,138.3125 642.5375,158.3125 687.4875,172.875 " fill="none" id="ClinicalAnalysisLaboratory-TestType" style="stroke:#A80036;stroke-width:1.25;"/><polygon fill="#000000" points="577.1959,127.7706,567.5716,120.7918,565.3077,127.7816,577.1959,127.7706" style="stroke:#000000;stroke-width:1.25;"/><text fill="#000000" font-family="sans-serif" font-size="16.25" lengthAdjust="spacing" textLength="66.25" x="582.5" y="132.4939">conducts</text><text fill="#000000" font-family="sans-serif" font-size="16.25" lengthAdjust="spacing" textLength="8.75" x="537.6136" y="141.9221">1</text><text fill="#000000" font-family="sans-serif" font-size="16.25" lengthAdjust="spacing" textLength="6.25" x="671.4134" y="188.3159">*</text><!--MD5=[b482d663aae385f5ae82dde2f71259c6]
link Employee to Platform--><path codeLine="43" d="M471.45,403.125 C535.2125,403.125 640.975,403.125 702.2,403.125 " fill="none" id="Employee-Platform" style="stroke:#A80036;stroke-width:1.25;"/><polygon fill="#000000" points="593.125,392.0947,581.8186,388.4211,581.8186,395.7684,593.125,392.0947" style="stroke:#000000;stroke-width:1.25;"/><text fill="#000000" font-family="sans-serif" font-size="16.25" lengthAdjust="spacing" textLength="35" x="598.125" y="398.7439">uses</text><text fill="#000000" font-family="sans-serif" font-size="16.25" lengthAdjust="spacing" textLength="6.25" x="481.3672" y="421.7664">*</text><text fill="#000000" font-family="sans-serif" font-size="16.25" lengthAdjust="spacing" textLength="8.75" x="683.5998" y="421.8782">1</text><!--MD5=[4dfc6a08f5517d8fd78988cbdcf2ec47]
@startuml
hide methods
left to right direction
skinparam classAttributeIconSize 0


class Administrator {
}

class ClinicalAnalysisLaboratory {
  -idLaboratory
  -name
  -address
  -phoneNumber
  -tin
  -testType
}

class TestType {
  -code
  -description
  -collectingMethods
}


class Employee {
  -idEmployee
  -name
  -function
  -phoneNumber
  -email
  -address
  -soc
}

class Platform {
}


Administrator "1" - - "*" ClinicalAnalysisLaboratory : create >
Administrator "1" - - "*" Employee : is / create >
Administrator "1" - - "*" TestType : create >
ClinicalAnalysisLaboratory "1" - - "*" TestType : conducts >
Employee "*" - - "1" Platform : uses >




@enduml

PlantUML version 1.2021.2(Sun Mar 07 11:10:27 GMT 2021)
(GPL source distribution)
Java Runtime: OpenJDK Runtime Environment
JVM: OpenJDK 64-Bit Server VM
Default Encoding: Cp1252
Language: pt
Country: PT
--></g></svg>