<?xml version="1.0" encoding="UTF-8" standalone="no"?><svg xmlns="http://www.w3.org/2000/svg" xmlns:xlink="http://www.w3.org/1999/xlink" contentScriptType="application/ecmascript" contentStyleType="text/css" height="438px" preserveAspectRatio="none" style="width:535px;height:438px;" version="1.1" viewBox="0 0 535 438" width="535px" zoomAndPan="magnify"><defs><filter height="300%" id="f1uw97wobpqmnt" width="300%" x="-1" y="-1"><feGaussianBlur result="blurOut" stdDeviation="2.0"/><feColorMatrix in="blurOut" result="blurOut2" type="matrix" values="0 0 0 0 0 0 0 0 0 0 0 0 0 0 0 0 0 0 .4 0"/><feOffset dx="4.0" dy="4.0" in="blurOut2" result="blurOut3"/><feBlend in="SourceGraphic" in2="blurOut3" mode="normal"/></filter></defs><g><rect fill="#FFFFFF" filter="url(#f1uw97wobpqmnt)" height="234.8125" style="stroke:#A80036;stroke-width:1.0;" width="10" x="75.5" y="99.6094"/><rect fill="#FFFFFF" filter="url(#f1uw97wobpqmnt)" height="30.3516" style="stroke:#A80036;stroke-width:1.0;" width="10" x="486.5" y="121.9609"/><rect fill="#FFFFFF" filter="url(#f1uw97wobpqmnt)" height="30.3516" style="stroke:#A80036;stroke-width:1.0;" width="10" x="486.5" y="182.6641"/><rect fill="#FFFFFF" filter="url(#f1uw97wobpqmnt)" height="30.3516" style="stroke:#A80036;stroke-width:1.0;" width="10" x="486.5" y="243.3672"/><rect fill="#FFFFFF" filter="url(#f1uw97wobpqmnt)" height="39.3516" style="stroke:#A80036;stroke-width:1.0;" width="10" x="486.5" y="304.0703"/><line style="stroke:#A80036;stroke-width:1.0;stroke-dasharray:5.0,5.0;" x1="80" x2="80" y1="89.6094" y2="352.4219"/><line style="stroke:#A80036;stroke-width:1.0;stroke-dasharray:5.0,5.0;" x1="491.5" x2="491.5" y1="89.6094" y2="352.4219"/><text fill="#000000" font-family="sans-serif" font-size="14" lengthAdjust="spacing" textLength="145" x="5" y="86.5332">AdministratorEmployee</text><ellipse cx="80.5" cy="15" fill="#FEFECE" filter="url(#f1uw97wobpqmnt)" rx="8" ry="8" style="stroke:#A80036;stroke-width:2.0;"/><path d="M80.5,23 L80.5,50 M67.5,31 L93.5,31 M80.5,50 L67.5,65 M80.5,50 L93.5,65 " fill="none" filter="url(#f1uw97wobpqmnt)" style="stroke:#A80036;stroke-width:2.0;"/><text fill="#000000" font-family="sans-serif" font-size="14" lengthAdjust="spacing" textLength="145" x="5" y="365.9551">AdministratorEmployee</text><ellipse cx="80.5" cy="379.0313" fill="#FEFECE" filter="url(#f1uw97wobpqmnt)" rx="8" ry="8" style="stroke:#A80036;stroke-width:2.0;"/><path d="M80.5,387.0313 L80.5,414.0313 M67.5,395.0313 L93.5,395.0313 M80.5,414.0313 L67.5,429.0313 M80.5,414.0313 L93.5,429.0313 " fill="none" filter="url(#f1uw97wobpqmnt)" style="stroke:#A80036;stroke-width:2.0;"/><rect fill="#FEFECE" filter="url(#f1uw97wobpqmnt)" height="31.6094" style="stroke:#A80036;stroke-width:1.5;" width="64" x="457.5" y="53"/><text fill="#000000" font-family="sans-serif" font-size="14" lengthAdjust="spacing" textLength="50" x="464.5" y="74.5332">:System</text><rect fill="#FEFECE" filter="url(#f1uw97wobpqmnt)" height="31.6094" style="stroke:#A80036;stroke-width:1.5;" width="64" x="457.5" y="351.4219"/><text fill="#000000" font-family="sans-serif" font-size="14" lengthAdjust="spacing" textLength="50" x="464.5" y="372.9551">:System</text><rect fill="#FFFFFF" filter="url(#f1uw97wobpqmnt)" height="234.8125" style="stroke:#A80036;stroke-width:1.0;" width="10" x="75.5" y="99.6094"/><rect fill="#FFFFFF" filter="url(#f1uw97wobpqmnt)" height="30.3516" style="stroke:#A80036;stroke-width:1.0;" width="10" x="486.5" y="121.9609"/><rect fill="#FFFFFF" filter="url(#f1uw97wobpqmnt)" height="30.3516" style="stroke:#A80036;stroke-width:1.0;" width="10" x="486.5" y="182.6641"/><rect fill="#FFFFFF" filter="url(#f1uw97wobpqmnt)" height="30.3516" style="stroke:#A80036;stroke-width:1.0;" width="10" x="486.5" y="243.3672"/><rect fill="#FFFFFF" filter="url(#f1uw97wobpqmnt)" height="39.3516" style="stroke:#A80036;stroke-width:1.0;" width="10" x="486.5" y="304.0703"/><polygon fill="#A80036" points="474.5,117.9609,484.5,121.9609,474.5,125.9609,478.5,121.9609" style="stroke:#A80036;stroke-width:1.0;"/><line style="stroke:#A80036;stroke-width:1.0;" x1="85.5" x2="480.5" y1="121.9609" y2="121.9609"/><text fill="#000000" font-family="sans-serif" font-size="13" font-weight="bold" lengthAdjust="spacing" textLength="7" x="92.5" y="117.1045">1</text><text fill="#000000" font-family="sans-serif" font-size="13" lengthAdjust="spacing" textLength="278" x="103.5" y="117.1045">asks to create a new clinical analysis laboratory</text><polygon fill="#A80036" points="96.5,148.3125,86.5,152.3125,96.5,156.3125,92.5,152.3125" style="stroke:#A80036;stroke-width:1.0;"/><line style="stroke:#A80036;stroke-width:1.0;stroke-dasharray:2.0,2.0;" x1="90.5" x2="490.5" y1="152.3125" y2="152.3125"/><text fill="#000000" font-family="sans-serif" font-size="13" font-weight="bold" lengthAdjust="spacing" textLength="7" x="102.5" y="147.4561">2</text><text fill="#000000" font-family="sans-serif" font-size="13" lengthAdjust="spacing" textLength="366" x="113.5" y="147.4561">requests data (idLaboratory, name, address, phoneNumber, tin)</text><polygon fill="#A80036" points="474.5,178.6641,484.5,182.6641,474.5,186.6641,478.5,182.6641" style="stroke:#A80036;stroke-width:1.0;"/><line style="stroke:#A80036;stroke-width:1.0;" x1="85.5" x2="480.5" y1="182.6641" y2="182.6641"/><text fill="#000000" font-family="sans-serif" font-size="13" font-weight="bold" lengthAdjust="spacing" textLength="7" x="92.5" y="177.8076">3</text><text fill="#000000" font-family="sans-serif" font-size="13" lengthAdjust="spacing" textLength="172" x="103.5" y="177.8076">introduces the data requested</text><polygon fill="#A80036" points="96.5,209.0156,86.5,213.0156,96.5,217.0156,92.5,213.0156" style="stroke:#A80036;stroke-width:1.0;"/><line style="stroke:#A80036;stroke-width:1.0;stroke-dasharray:2.0,2.0;" x1="90.5" x2="490.5" y1="213.0156" y2="213.0156"/><text fill="#000000" font-family="sans-serif" font-size="13" font-weight="bold" lengthAdjust="spacing" textLength="7" x="102.5" y="208.1592">4</text><text fill="#000000" font-family="sans-serif" font-size="13" lengthAdjust="spacing" textLength="353" x="113.5" y="208.1592">shows the types of tests and asks to select the desired ones</text><polygon fill="#A80036" points="474.5,239.3672,484.5,243.3672,474.5,247.3672,478.5,243.3672" style="stroke:#A80036;stroke-width:1.0;"/><line style="stroke:#A80036;stroke-width:1.0;" x1="85.5" x2="480.5" y1="243.3672" y2="243.3672"/><text fill="#000000" font-family="sans-serif" font-size="13" font-weight="bold" lengthAdjust="spacing" textLength="7" x="92.5" y="238.5107">5</text><text fill="#000000" font-family="sans-serif" font-size="13" lengthAdjust="spacing" textLength="193" x="103.5" y="238.5107">selects the desired types of tests</text><polygon fill="#A80036" points="96.5,269.7188,86.5,273.7188,96.5,277.7188,92.5,273.7188" style="stroke:#A80036;stroke-width:1.0;"/><line style="stroke:#A80036;stroke-width:1.0;stroke-dasharray:2.0,2.0;" x1="90.5" x2="490.5" y1="273.7188" y2="273.7188"/><text fill="#000000" font-family="sans-serif" font-size="13" font-weight="bold" lengthAdjust="spacing" textLength="7" x="102.5" y="268.8623">6</text><text fill="#000000" font-family="sans-serif" font-size="13" lengthAdjust="spacing" textLength="236" x="113.5" y="268.8623">shows all data and requests confirmation</text><polygon fill="#A80036" points="474.5,300.0703,484.5,304.0703,474.5,308.0703,478.5,304.0703" style="stroke:#A80036;stroke-width:1.0;"/><line style="stroke:#A80036;stroke-width:1.0;" x1="85.5" x2="480.5" y1="304.0703" y2="304.0703"/><text fill="#000000" font-family="sans-serif" font-size="13" font-weight="bold" lengthAdjust="spacing" textLength="7" x="92.5" y="299.2139">7</text><text fill="#000000" font-family="sans-serif" font-size="13" lengthAdjust="spacing" textLength="100" x="103.5" y="299.2139">confirms the data</text><polygon fill="#A80036" points="91.5,330.4219,81.5,334.4219,91.5,338.4219,87.5,334.4219" style="stroke:#A80036;stroke-width:1.0;"/><line style="stroke:#A80036;stroke-width:1.0;stroke-dasharray:2.0,2.0;" x1="85.5" x2="485.5" y1="334.4219" y2="334.4219"/><text fill="#000000" font-family="sans-serif" font-size="13" font-weight="bold" lengthAdjust="spacing" textLength="7" x="97.5" y="329.5654">8</text><text fill="#000000" font-family="sans-serif" font-size="13" lengthAdjust="spacing" textLength="145" x="108.5" y="329.5654">informs operation sucess</text><!--MD5=[b01b1291db7d901fc286bf3dea60201d]
@startuml
autonumber
actor "AdministratorEmployee" as AD

activate AD
AD -> ":System" : asks to create a new clinical analysis laboratory
activate ":System"

":System" - -> AD : requests data (idLaboratory, name, address, phoneNumber, tin)
deactivate ":System"

AD -> ":System" : introduces the data requested
activate ":System"
":System" - -> AD : shows the types of tests and asks to select the desired ones
deactivate ":System"

AD -> ":System" : selects the desired types of tests
activate ":System"
":System" - -> AD : shows all data and requests confirmation
deactivate ":System"

AD -> ":System" : confirms the data
activate ":System"
":System" - -> AD : informs operation sucess

deactivate AD

@enduml

PlantUML version 1.2021.2(Sun Mar 07 11:10:27 GMT 2021)
(GPL source distribution)
Java Runtime: OpenJDK Runtime Environment
JVM: OpenJDK 64-Bit Server VM
Default Encoding: Cp1252
Language: pt
Country: PT
--></g></svg>