<?xml version="1.0" encoding="UTF-8" standalone="no"?><svg xmlns="http://www.w3.org/2000/svg" xmlns:xlink="http://www.w3.org/1999/xlink" contentScriptType="application/ecmascript" contentStyleType="text/css" height="157px" preserveAspectRatio="none" style="width:458px;height:157px;" version="1.1" viewBox="0 0 458 157" width="458px" zoomAndPan="magnify"><defs><filter height="300%" id="f18tyk7th5lkve" width="300%" x="-1" y="-1"><feGaussianBlur result="blurOut" stdDeviation="2.0"/><feColorMatrix in="blurOut" result="blurOut2" type="matrix" values="0 0 0 0 0 0 0 0 0 0 0 0 0 0 0 0 0 0 .4 0"/><feOffset dx="4.0" dy="4.0" in="blurOut2" result="blurOut3"/><feBlend in="SourceGraphic" in2="blurOut3" mode="normal"/></filter></defs><g><!--MD5=[02e4b9b7573f1156f41e60aa5b4e25a4]
class Company--><rect codeLine="6" fill="#FEFECE" filter="url(#f18tyk7th5lkve)" height="53.8359" id="Company" style="stroke:#A80036;stroke-width:1.5;" width="85" x="7" y="48.5"/><ellipse cx="22" cy="64.5" fill="#ADD1B2" rx="11" ry="11" style="stroke:#A80036;stroke-width:1.0;"/><path d="M24,61 Q24.2031,60.5 24.4375,60.25 Q24.6719,60 24.9375,60 Q25.4063,60 25.7031,60.2813 Q26,60.5625 26,61.2188 L26,62.7813 Q26,63.4375 25.7188,63.7188 Q25.4375,64 25,64 Q24.6094,64 24.3594,63.8281 Q24.1094,63.6563 24,63.2031 Q23.9531,62.8906 23.7813,62.7188 Q23.4688,62.3906 22.9063,62.2031 Q22.3438,62 21.7813,62 Q21.0781,62 20.4844,62.2813 Q19.9063,62.5625 19.4531,63.1875 Q19,63.8125 19,64.6719 L19,65.5938 Q19,66.625 19.8438,67.3125 Q20.6875,68 22.1875,68 Q23.0781,68 23.7031,67.7969 Q24.0625,67.6875 24.4688,67.3281 Q24.7344,67.125 24.875,67.0625 Q25.0156,67 25.1875,67 Q25.5156,67 25.75,67.2656 Q26,67.5156 26,67.875 Q26,68.2188 25.6563,68.625 Q25.1563,69.2188 24.3594,69.5469 Q23.3125,70 22.0313,70 Q20.5313,70 19.3281,69.4063 Q18.3594,68.9375 17.6719,67.9219 Q17,66.9063 17,65.7031 L17,64.6094 Q17,63.3594 17.5938,62.2656 Q18.2031,61.1719 19.25,60.5938 Q20.3125,60 21.5,60 Q22.2188,60 22.8438,60.25 Q23.4688,60.5 24,61 Z " fill="#000000"/><text fill="#000000" font-family="sans-serif" font-size="12" lengthAdjust="spacing" textLength="53" x="36" y="69.4102">Company</text><line style="stroke:#A80036;stroke-width:1.5;" x1="8" x2="91" y1="80.5" y2="80.5"/><text fill="#000000" font-family="sans-serif" font-size="11" lengthAdjust="spacing" textLength="64" x="13" y="95.9189">-chemicalLab</text><!--MD5=[ed6624c6556d5e7b1bd23032162d20b7]
class Client--><rect codeLine="10" fill="#FEFECE" filter="url(#f18tyk7th5lkve)" height="136.8516" id="Client" style="stroke:#A80036;stroke-width:1.5;" width="107" x="337" y="7"/><ellipse cx="371.35" cy="23" fill="#ADD1B2" rx="11" ry="11" style="stroke:#A80036;stroke-width:1.0;"/><path d="M373.35,19.5 Q373.5531,19 373.7875,18.75 Q374.0219,18.5 374.2875,18.5 Q374.7563,18.5 375.0531,18.7813 Q375.35,19.0625 375.35,19.7188 L375.35,21.2813 Q375.35,21.9375 375.0688,22.2188 Q374.7875,22.5 374.35,22.5 Q373.9594,22.5 373.7094,22.3281 Q373.4594,22.1563 373.35,21.7031 Q373.3031,21.3906 373.1313,21.2188 Q372.8188,20.8906 372.2563,20.7031 Q371.6938,20.5 371.1313,20.5 Q370.4281,20.5 369.8344,20.7813 Q369.2563,21.0625 368.8031,21.6875 Q368.35,22.3125 368.35,23.1719 L368.35,24.0938 Q368.35,25.125 369.1938,25.8125 Q370.0375,26.5 371.5375,26.5 Q372.4281,26.5 373.0531,26.2969 Q373.4125,26.1875 373.8188,25.8281 Q374.0844,25.625 374.225,25.5625 Q374.3656,25.5 374.5375,25.5 Q374.8656,25.5 375.1,25.7656 Q375.35,26.0156 375.35,26.375 Q375.35,26.7188 375.0063,27.125 Q374.5063,27.7188 373.7094,28.0469 Q372.6625,28.5 371.3813,28.5 Q369.8813,28.5 368.6781,27.9063 Q367.7094,27.4375 367.0219,26.4219 Q366.35,25.4063 366.35,24.2031 L366.35,23.1094 Q366.35,21.8594 366.9438,20.7656 Q367.5531,19.6719 368.6,19.0938 Q369.6625,18.5 370.85,18.5 Q371.5688,18.5 372.1938,18.75 Q372.8188,19 373.35,19.5 Z " fill="#000000"/><text fill="#000000" font-family="sans-serif" font-size="12" lengthAdjust="spacing" textLength="32" x="389.65" y="27.9102">Client</text><line style="stroke:#A80036;stroke-width:1.5;" x1="338" x2="443" y1="39" y2="39"/><text fill="#000000" font-family="sans-serif" font-size="11" lengthAdjust="spacing" textLength="95" x="343" y="54.4189">-citizenCardNumber</text><text fill="#000000" font-family="sans-serif" font-size="11" lengthAdjust="spacing" textLength="93" x="343" y="68.2549">-healthCareService</text><text fill="#000000" font-family="sans-serif" font-size="11" lengthAdjust="spacing" textLength="15" x="343" y="82.0908">-tin</text><text fill="#000000" font-family="sans-serif" font-size="11" lengthAdjust="spacing" textLength="46" x="343" y="95.9268">-birthdate</text><text fill="#000000" font-family="sans-serif" font-size="11" lengthAdjust="spacing" textLength="30" x="343" y="109.7627">-name</text><text fill="#000000" font-family="sans-serif" font-size="11" lengthAdjust="spacing" textLength="71" x="343" y="123.5986">-phoneNumber</text><text fill="#000000" font-family="sans-serif" font-size="11" lengthAdjust="spacing" textLength="22" x="343" y="137.4346">-sex</text><!--MD5=[6eee883fdf517d3604e8bd0f2058e9aa]
link Company to Client--><path codeLine="20" d="M92.07,75.5 C153.68,75.5 269.22,75.5 336.73,75.5 " fill="none" id="Company-Client" style="stroke:#A80036;stroke-width:1.0;"/><polygon fill="#000000" points="132,66.6758,122.9549,63.7369,122.9549,69.6147,132,66.6758" style="stroke:#000000;stroke-width:1.0;"/><text fill="#000000" font-family="sans-serif" font-size="13" lengthAdjust="spacing" textLength="170" x="136" y="71.9951">can access the information of</text><text fill="#000000" font-family="sans-serif" font-size="13" lengthAdjust="spacing" textLength="7" x="99.9883" y="90.4144">1</text><text fill="#000000" font-family="sans-serif" font-size="13" lengthAdjust="spacing" textLength="5" x="324.1687" y="90.1037">*</text><!--MD5=[e0d087b7f508862f1066c5c4d5699bb6]
@startuml
hide methods
left to right direction
skinparam classAttributeIconSize 0


class Company{
-chemicalLab
}

class Client{
-citizenCardNumber
-healthCareService
-tin
-birthdate
-name
-phoneNumber
-sex
}

Company "1" - - "*" Client : can access the information of >


@enduml

PlantUML version 1.2021.2(Sun Mar 07 11:10:27 GMT 2021)
(GPL source distribution)
Java Runtime: OpenJDK Runtime Environment
JVM: OpenJDK 64-Bit Server VM
Default Encoding: Cp1252
Language: pt
Country: PT
--></g></svg>