<?xml version="1.0" encoding="UTF-8" standalone="no"?><svg xmlns="http://www.w3.org/2000/svg" xmlns:xlink="http://www.w3.org/1999/xlink" contentScriptType="application/ecmascript" contentStyleType="text/css" height="858px" preserveAspectRatio="none" style="width:635px;height:858px;background:#FFFFFF;" version="1.1" viewBox="0 0 635 858" width="635px" zoomAndPan="magnify"><defs><filter height="300%" id="f4nls08mjycj9" width="300%" x="-1" y="-1"><feGaussianBlur result="blurOut" stdDeviation="2.0"/><feColorMatrix in="blurOut" result="blurOut2" type="matrix" values="0 0 0 0 0 0 0 0 0 0 0 0 0 0 0 0 0 0 .4 0"/><feOffset dx="4.0" dy="4.0" in="blurOut2" result="blurOut3"/><feBlend in="SourceGraphic" in2="blurOut3" mode="normal"/></filter></defs><g><!--MD5=[c1c03f153bd816b6f382933d9cbece8a]
class UpdateClientUI--><rect codeLine="3" fill="#FEFECE" filter="url(#f4nls08mjycj9)" height="48" id="UpdateClientUI" style="stroke:#A80036;stroke-width:1.5;" width="116" x="409.5" y="7"/><ellipse cx="424.5" cy="23" fill="#ADD1B2" rx="11" ry="11" style="stroke:#A80036;stroke-width:1.0;"/><path d="M426.5,19.5 Q426.7031,19 426.9375,18.75 Q427.1719,18.5 427.4375,18.5 Q427.9063,18.5 428.2031,18.7813 Q428.5,19.0625 428.5,19.7188 L428.5,21.2813 Q428.5,21.9375 428.2188,22.2188 Q427.9375,22.5 427.5,22.5 Q427.1094,22.5 426.8594,22.3281 Q426.6094,22.1563 426.5,21.7031 Q426.4531,21.3906 426.2813,21.2188 Q425.9688,20.8906 425.4063,20.7031 Q424.8438,20.5 424.2813,20.5 Q423.5781,20.5 422.9844,20.7813 Q422.4063,21.0625 421.9531,21.6875 Q421.5,22.3125 421.5,23.1719 L421.5,24.0938 Q421.5,25.125 422.3438,25.8125 Q423.1875,26.5 424.6875,26.5 Q425.5781,26.5 426.2031,26.2969 Q426.5625,26.1875 426.9688,25.8281 Q427.2344,25.625 427.375,25.5625 Q427.5156,25.5 427.6875,25.5 Q428.0156,25.5 428.25,25.7656 Q428.5,26.0156 428.5,26.375 Q428.5,26.7188 428.1563,27.125 Q427.6563,27.7188 426.8594,28.0469 Q425.8125,28.5 424.5313,28.5 Q423.0313,28.5 421.8281,27.9063 Q420.8594,27.4375 420.1719,26.4219 Q419.5,25.4063 419.5,24.2031 L419.5,23.1094 Q419.5,21.8594 420.0938,20.7656 Q420.7031,19.6719 421.75,19.0938 Q422.8125,18.5 424,18.5 Q424.7188,18.5 425.3438,18.75 Q425.9688,19 426.5,19.5 Z " fill="#000000"/><text fill="#000000" font-family="sans-serif" font-size="12" lengthAdjust="spacing" textLength="84" x="438.5" y="27.9102">UpdateClientUI</text><line style="stroke:#A80036;stroke-width:1.5;" x1="410.5" x2="524.5" y1="39" y2="39"/><line style="stroke:#A80036;stroke-width:1.5;" x1="410.5" x2="524.5" y1="47" y2="47"/><!--MD5=[57e60c0e0769cfb82c8b5dc1dd99acae]
class UpdateClientController--><rect codeLine="7" fill="#FEFECE" filter="url(#f4nls08mjycj9)" height="89.5078" id="UpdateClientController" style="stroke:#A80036;stroke-width:1.5;" width="158" x="245.5" y="116"/><ellipse cx="260.5" cy="132" fill="#ADD1B2" rx="11" ry="11" style="stroke:#A80036;stroke-width:1.0;"/><path d="M262.5,128.5 Q262.7031,128 262.9375,127.75 Q263.1719,127.5 263.4375,127.5 Q263.9063,127.5 264.2031,127.7813 Q264.5,128.0625 264.5,128.7188 L264.5,130.2813 Q264.5,130.9375 264.2188,131.2188 Q263.9375,131.5 263.5,131.5 Q263.1094,131.5 262.8594,131.3281 Q262.6094,131.1563 262.5,130.7031 Q262.4531,130.3906 262.2813,130.2188 Q261.9688,129.8906 261.4063,129.7031 Q260.8438,129.5 260.2813,129.5 Q259.5781,129.5 258.9844,129.7813 Q258.4063,130.0625 257.9531,130.6875 Q257.5,131.3125 257.5,132.1719 L257.5,133.0938 Q257.5,134.125 258.3438,134.8125 Q259.1875,135.5 260.6875,135.5 Q261.5781,135.5 262.2031,135.2969 Q262.5625,135.1875 262.9688,134.8281 Q263.2344,134.625 263.375,134.5625 Q263.5156,134.5 263.6875,134.5 Q264.0156,134.5 264.25,134.7656 Q264.5,135.0156 264.5,135.375 Q264.5,135.7188 264.1563,136.125 Q263.6563,136.7188 262.8594,137.0469 Q261.8125,137.5 260.5313,137.5 Q259.0313,137.5 257.8281,136.9063 Q256.8594,136.4375 256.1719,135.4219 Q255.5,134.4063 255.5,133.2031 L255.5,132.1094 Q255.5,130.8594 256.0938,129.7656 Q256.7031,128.6719 257.75,128.0938 Q258.8125,127.5 260,127.5 Q260.7188,127.5 261.3438,127.75 Q261.9688,128 262.5,128.5 Z " fill="#000000"/><text fill="#000000" font-family="sans-serif" font-size="12" lengthAdjust="spacing" textLength="126" x="274.5" y="136.9102">UpdateClientController</text><line style="stroke:#A80036;stroke-width:1.5;" x1="246.5" x2="402.5" y1="148" y2="148"/><line style="stroke:#A80036;stroke-width:1.0;" x1="246.5" x2="402.5" y1="156" y2="156"/><ellipse cx="256.5" cy="167" fill="#84BE84" rx="3" ry="3" style="stroke:#038048;stroke-width:1.0;"/><text fill="#000000" font-family="sans-serif" font-size="11" lengthAdjust="spacing" textLength="71" x="265.5" y="171.4189">getClientData()</text><ellipse cx="256.5" cy="180.8359" fill="#84BE84" rx="3" ry="3" style="stroke:#038048;stroke-width:1.0;"/><text fill="#000000" font-family="sans-serif" font-size="11" lengthAdjust="spacing" textLength="83" x="265.5" y="185.2549">findActualClient()</text><ellipse cx="256.5" cy="194.6719" fill="#84BE84" rx="3" ry="3" style="stroke:#038048;stroke-width:1.0;"/><text fill="#000000" font-family="sans-serif" font-size="11" lengthAdjust="spacing" textLength="66" x="265.5" y="199.0908">setData(data)</text><!--MD5=[d9af5e34e5bc78cd5a2caff02363fedd]
class ClientMapper--><rect codeLine="14" fill="#FEFECE" filter="url(#f4nls08mjycj9)" height="61.8359" id="ClientMapper" style="stroke:#A80036;stroke-width:1.5;" width="120" x="438.5" y="130"/><ellipse cx="460.25" cy="146" fill="#ADD1B2" rx="11" ry="11" style="stroke:#A80036;stroke-width:1.0;"/><path d="M462.25,142.5 Q462.4531,142 462.6875,141.75 Q462.9219,141.5 463.1875,141.5 Q463.6563,141.5 463.9531,141.7813 Q464.25,142.0625 464.25,142.7188 L464.25,144.2813 Q464.25,144.9375 463.9688,145.2188 Q463.6875,145.5 463.25,145.5 Q462.8594,145.5 462.6094,145.3281 Q462.3594,145.1563 462.25,144.7031 Q462.2031,144.3906 462.0313,144.2188 Q461.7188,143.8906 461.1563,143.7031 Q460.5938,143.5 460.0313,143.5 Q459.3281,143.5 458.7344,143.7813 Q458.1563,144.0625 457.7031,144.6875 Q457.25,145.3125 457.25,146.1719 L457.25,147.0938 Q457.25,148.125 458.0938,148.8125 Q458.9375,149.5 460.4375,149.5 Q461.3281,149.5 461.9531,149.2969 Q462.3125,149.1875 462.7188,148.8281 Q462.9844,148.625 463.125,148.5625 Q463.2656,148.5 463.4375,148.5 Q463.7656,148.5 464,148.7656 Q464.25,149.0156 464.25,149.375 Q464.25,149.7188 463.9063,150.125 Q463.4063,150.7188 462.6094,151.0469 Q461.5625,151.5 460.2813,151.5 Q458.7813,151.5 457.5781,150.9063 Q456.6094,150.4375 455.9219,149.4219 Q455.25,148.4063 455.25,147.2031 L455.25,146.1094 Q455.25,144.8594 455.8438,143.7656 Q456.4531,142.6719 457.5,142.0938 Q458.5625,141.5 459.75,141.5 Q460.4688,141.5 461.0938,141.75 Q461.7188,142 462.25,142.5 Z " fill="#000000"/><text fill="#000000" font-family="sans-serif" font-size="12" lengthAdjust="spacing" textLength="73" x="475.75" y="150.9102">ClientMapper</text><line style="stroke:#A80036;stroke-width:1.5;" x1="439.5" x2="557.5" y1="162" y2="162"/><line style="stroke:#A80036;stroke-width:1.0;" x1="439.5" x2="557.5" y1="170" y2="170"/><ellipse cx="449.5" cy="181" fill="#84BE84" rx="3" ry="3" style="stroke:#038048;stroke-width:1.0;"/><text fill="#000000" font-family="sans-serif" font-size="11" lengthAdjust="spacing" textLength="94" x="458.5" y="185.4189">toDTO(clientActual)</text><!--MD5=[d92da6d3e9b1e9631354e1a6db35e891]
class ClientDTO--><rect codeLine="19" fill="#FEFECE" filter="url(#f4nls08mjycj9)" height="61.8359" id="ClientDTO" style="stroke:#A80036;stroke-width:1.5;" width="120" x="470.5" y="435"/><ellipse cx="499.45" cy="451" fill="#ADD1B2" rx="11" ry="11" style="stroke:#A80036;stroke-width:1.0;"/><path d="M501.45,447.5 Q501.6531,447 501.8875,446.75 Q502.1219,446.5 502.3875,446.5 Q502.8563,446.5 503.1531,446.7813 Q503.45,447.0625 503.45,447.7188 L503.45,449.2813 Q503.45,449.9375 503.1688,450.2188 Q502.8875,450.5 502.45,450.5 Q502.0594,450.5 501.8094,450.3281 Q501.5594,450.1563 501.45,449.7031 Q501.4031,449.3906 501.2313,449.2188 Q500.9188,448.8906 500.3563,448.7031 Q499.7938,448.5 499.2313,448.5 Q498.5281,448.5 497.9344,448.7813 Q497.3563,449.0625 496.9031,449.6875 Q496.45,450.3125 496.45,451.1719 L496.45,452.0938 Q496.45,453.125 497.2938,453.8125 Q498.1375,454.5 499.6375,454.5 Q500.5281,454.5 501.1531,454.2969 Q501.5125,454.1875 501.9188,453.8281 Q502.1844,453.625 502.325,453.5625 Q502.4656,453.5 502.6375,453.5 Q502.9656,453.5 503.2,453.7656 Q503.45,454.0156 503.45,454.375 Q503.45,454.7188 503.1063,455.125 Q502.6063,455.7188 501.8094,456.0469 Q500.7625,456.5 499.4813,456.5 Q497.9813,456.5 496.7781,455.9063 Q495.8094,455.4375 495.1219,454.4219 Q494.45,453.4063 494.45,452.2031 L494.45,451.1094 Q494.45,449.8594 495.0438,448.7656 Q495.6531,447.6719 496.7,447.0938 Q497.7625,446.5 498.95,446.5 Q499.6688,446.5 500.2938,446.75 Q500.9188,447 501.45,447.5 Z " fill="#000000"/><text fill="#000000" font-family="sans-serif" font-size="12" lengthAdjust="spacing" textLength="57" x="516.55" y="455.9102">ClientDTO</text><line style="stroke:#A80036;stroke-width:1.5;" x1="471.5" x2="589.5" y1="467" y2="467"/><line style="stroke:#A80036;stroke-width:1.0;" x1="471.5" x2="589.5" y1="475" y2="475"/><ellipse cx="481.5" cy="486" fill="#84BE84" rx="3" ry="3" style="stroke:#038048;stroke-width:1.0;"/><text fill="#000000" font-family="sans-serif" font-size="11" lengthAdjust="spacing" textLength="94" x="490.5" y="490.4189">toDTO(clientActual)</text><!--MD5=[8ae808d068a8995f06b9b3ec51357f0b]
class AuthFacade--><rect codeLine="24" fill="#FEFECE" filter="url(#f4nls08mjycj9)" height="61.8359" id="AuthFacade" style="stroke:#A80036;stroke-width:1.5;" width="147" x="123" y="274"/><ellipse cx="160.5" cy="290" fill="#ADD1B2" rx="11" ry="11" style="stroke:#A80036;stroke-width:1.0;"/><path d="M162.5,286.5 Q162.7031,286 162.9375,285.75 Q163.1719,285.5 163.4375,285.5 Q163.9063,285.5 164.2031,285.7813 Q164.5,286.0625 164.5,286.7188 L164.5,288.2813 Q164.5,288.9375 164.2188,289.2188 Q163.9375,289.5 163.5,289.5 Q163.1094,289.5 162.8594,289.3281 Q162.6094,289.1563 162.5,288.7031 Q162.4531,288.3906 162.2813,288.2188 Q161.9688,287.8906 161.4063,287.7031 Q160.8438,287.5 160.2813,287.5 Q159.5781,287.5 158.9844,287.7813 Q158.4063,288.0625 157.9531,288.6875 Q157.5,289.3125 157.5,290.1719 L157.5,291.0938 Q157.5,292.125 158.3438,292.8125 Q159.1875,293.5 160.6875,293.5 Q161.5781,293.5 162.2031,293.2969 Q162.5625,293.1875 162.9688,292.8281 Q163.2344,292.625 163.375,292.5625 Q163.5156,292.5 163.6875,292.5 Q164.0156,292.5 164.25,292.7656 Q164.5,293.0156 164.5,293.375 Q164.5,293.7188 164.1563,294.125 Q163.6563,294.7188 162.8594,295.0469 Q161.8125,295.5 160.5313,295.5 Q159.0313,295.5 157.8281,294.9063 Q156.8594,294.4375 156.1719,293.4219 Q155.5,292.4063 155.5,291.2031 L155.5,290.1094 Q155.5,288.8594 156.0938,287.7656 Q156.7031,286.6719 157.75,286.0938 Q158.8125,285.5 160,285.5 Q160.7188,285.5 161.3438,285.75 Q161.9688,286 162.5,286.5 Z " fill="#000000"/><text fill="#000000" font-family="sans-serif" font-size="12" lengthAdjust="spacing" textLength="65" x="179.5" y="294.9102">AuthFacade</text><line style="stroke:#A80036;stroke-width:1.5;" x1="124" x2="269" y1="306" y2="306"/><line style="stroke:#A80036;stroke-width:1.0;" x1="124" x2="269" y1="314" y2="314"/><ellipse cx="134" cy="325" fill="#84BE84" rx="3" ry="3" style="stroke:#038048;stroke-width:1.0;"/><text fill="#000000" font-family="sans-serif" font-size="11" lengthAdjust="spacing" textLength="121" x="143" y="329.4189">getCurrentUserSession()</text><!--MD5=[02e4b9b7573f1156f41e60aa5b4e25a4]
class Company--><rect codeLine="29" fill="#FEFECE" filter="url(#f4nls08mjycj9)" height="75.6719" id="Company" style="stroke:#A80036;stroke-width:1.5;" width="101" x="305" y="267"/><ellipse cx="327.2" cy="283" fill="#ADD1B2" rx="11" ry="11" style="stroke:#A80036;stroke-width:1.0;"/><path d="M329.2,279.5 Q329.4031,279 329.6375,278.75 Q329.8719,278.5 330.1375,278.5 Q330.6063,278.5 330.9031,278.7813 Q331.2,279.0625 331.2,279.7188 L331.2,281.2813 Q331.2,281.9375 330.9188,282.2188 Q330.6375,282.5 330.2,282.5 Q329.8094,282.5 329.5594,282.3281 Q329.3094,282.1563 329.2,281.7031 Q329.1531,281.3906 328.9813,281.2188 Q328.6688,280.8906 328.1063,280.7031 Q327.5438,280.5 326.9813,280.5 Q326.2781,280.5 325.6844,280.7813 Q325.1063,281.0625 324.6531,281.6875 Q324.2,282.3125 324.2,283.1719 L324.2,284.0938 Q324.2,285.125 325.0438,285.8125 Q325.8875,286.5 327.3875,286.5 Q328.2781,286.5 328.9031,286.2969 Q329.2625,286.1875 329.6688,285.8281 Q329.9344,285.625 330.075,285.5625 Q330.2156,285.5 330.3875,285.5 Q330.7156,285.5 330.95,285.7656 Q331.2,286.0156 331.2,286.375 Q331.2,286.7188 330.8563,287.125 Q330.3563,287.7188 329.5594,288.0469 Q328.5125,288.5 327.2313,288.5 Q325.7313,288.5 324.5281,287.9063 Q323.5594,287.4375 322.8719,286.4219 Q322.2,285.4063 322.2,284.2031 L322.2,283.1094 Q322.2,281.8594 322.7938,280.7656 Q323.4031,279.6719 324.45,279.0938 Q325.5125,278.5 326.7,278.5 Q327.4188,278.5 328.0438,278.75 Q328.6688,279 329.2,279.5 Z " fill="#000000"/><text fill="#000000" font-family="sans-serif" font-size="12" lengthAdjust="spacing" textLength="53" x="342.8" y="287.9102">Company</text><line style="stroke:#A80036;stroke-width:1.5;" x1="306" x2="405" y1="299" y2="299"/><rect fill="none" height="6" style="stroke:#C82930;stroke-width:1.0;" width="6" x="313" y="307"/><text fill="#000000" font-family="sans-serif" font-size="11" lengthAdjust="spacing" textLength="55" x="325" y="314.4189">designation</text><line style="stroke:#A80036;stroke-width:1.0;" x1="306" x2="405" y1="320.8359" y2="320.8359"/><ellipse cx="316" cy="331.8359" fill="#84BE84" rx="3" ry="3" style="stroke:#038048;stroke-width:1.0;"/><text fill="#000000" font-family="sans-serif" font-size="11" lengthAdjust="spacing" textLength="75" x="325" y="336.2549">getClientStore()</text><!--MD5=[55cb992be19579b505cea3c5691093cb]
class ClientStore--><rect codeLine="35" fill="#FEFECE" filter="url(#f4nls08mjycj9)" height="89.5078" id="ClientStore" style="stroke:#A80036;stroke-width:1.5;" width="101" x="180" y="421"/><ellipse cx="198.6" cy="437" fill="#ADD1B2" rx="11" ry="11" style="stroke:#A80036;stroke-width:1.0;"/><path d="M200.6,433.5 Q200.8031,433 201.0375,432.75 Q201.2719,432.5 201.5375,432.5 Q202.0063,432.5 202.3031,432.7813 Q202.6,433.0625 202.6,433.7188 L202.6,435.2813 Q202.6,435.9375 202.3188,436.2188 Q202.0375,436.5 201.6,436.5 Q201.2094,436.5 200.9594,436.3281 Q200.7094,436.1563 200.6,435.7031 Q200.5531,435.3906 200.3813,435.2188 Q200.0688,434.8906 199.5063,434.7031 Q198.9438,434.5 198.3813,434.5 Q197.6781,434.5 197.0844,434.7813 Q196.5063,435.0625 196.0531,435.6875 Q195.6,436.3125 195.6,437.1719 L195.6,438.0938 Q195.6,439.125 196.4438,439.8125 Q197.2875,440.5 198.7875,440.5 Q199.6781,440.5 200.3031,440.2969 Q200.6625,440.1875 201.0688,439.8281 Q201.3344,439.625 201.475,439.5625 Q201.6156,439.5 201.7875,439.5 Q202.1156,439.5 202.35,439.7656 Q202.6,440.0156 202.6,440.375 Q202.6,440.7188 202.2563,441.125 Q201.7563,441.7188 200.9594,442.0469 Q199.9125,442.5 198.6313,442.5 Q197.1313,442.5 195.9281,441.9063 Q194.9594,441.4375 194.2719,440.4219 Q193.6,439.4063 193.6,438.2031 L193.6,437.1094 Q193.6,435.8594 194.1938,434.7656 Q194.8031,433.6719 195.85,433.0938 Q196.9125,432.5 198.1,432.5 Q198.8188,432.5 199.4438,432.75 Q200.0688,433 200.6,433.5 Z " fill="#000000"/><text fill="#000000" font-family="sans-serif" font-size="12" lengthAdjust="spacing" textLength="61" x="213.4" y="441.9102">ClientStore</text><line style="stroke:#A80036;stroke-width:1.5;" x1="181" x2="280" y1="453" y2="453"/><rect fill="none" height="6" style="stroke:#C82930;stroke-width:1.0;" width="6" x="188" y="461"/><text fill="#000000" font-family="sans-serif" font-size="11" lengthAdjust="spacing" textLength="62" x="200" y="468.4189">List clientList</text><line style="stroke:#A80036;stroke-width:1.0;" x1="181" x2="280" y1="474.8359" y2="474.8359"/><ellipse cx="191" cy="485.8359" fill="#84BE84" rx="3" ry="3" style="stroke:#038048;stroke-width:1.0;"/><text fill="#000000" font-family="sans-serif" font-size="11" lengthAdjust="spacing" textLength="75" x="200" y="490.2549">getClientStore()</text><ellipse cx="191" cy="499.6719" fill="#84BE84" rx="3" ry="3" style="stroke:#038048;stroke-width:1.0;"/><text fill="#000000" font-family="sans-serif" font-size="11" lengthAdjust="spacing" textLength="66" x="200" y="504.0908">getClientList()</text><!--MD5=[ed6624c6556d5e7b1bd23032162d20b7]
class Client--><rect codeLine="42" fill="#FEFECE" filter="url(#f4nls08mjycj9)" height="255.5391" id="Client" style="stroke:#A80036;stroke-width:1.5;" width="183" x="7" y="589"/><ellipse cx="78.25" cy="605" fill="#ADD1B2" rx="11" ry="11" style="stroke:#A80036;stroke-width:1.0;"/><path d="M80.25,601.5 Q80.4531,601 80.6875,600.75 Q80.9219,600.5 81.1875,600.5 Q81.6563,600.5 81.9531,600.7813 Q82.25,601.0625 82.25,601.7188 L82.25,603.2813 Q82.25,603.9375 81.9688,604.2188 Q81.6875,604.5 81.25,604.5 Q80.8594,604.5 80.6094,604.3281 Q80.3594,604.1563 80.25,603.7031 Q80.2031,603.3906 80.0313,603.2188 Q79.7188,602.8906 79.1563,602.7031 Q78.5938,602.5 78.0313,602.5 Q77.3281,602.5 76.7344,602.7813 Q76.1563,603.0625 75.7031,603.6875 Q75.25,604.3125 75.25,605.1719 L75.25,606.0938 Q75.25,607.125 76.0938,607.8125 Q76.9375,608.5 78.4375,608.5 Q79.3281,608.5 79.9531,608.2969 Q80.3125,608.1875 80.7188,607.8281 Q80.9844,607.625 81.125,607.5625 Q81.2656,607.5 81.4375,607.5 Q81.7656,607.5 82,607.7656 Q82.25,608.0156 82.25,608.375 Q82.25,608.7188 81.9063,609.125 Q81.4063,609.7188 80.6094,610.0469 Q79.5625,610.5 78.2813,610.5 Q76.7813,610.5 75.5781,609.9063 Q74.6094,609.4375 73.9219,608.4219 Q73.25,607.4063 73.25,606.2031 L73.25,605.1094 Q73.25,603.8594 73.8438,602.7656 Q74.4531,601.6719 75.5,601.0938 Q76.5625,600.5 77.75,600.5 Q78.4688,600.5 79.0938,600.75 Q79.7188,601 80.25,601.5 Z " fill="#000000"/><text fill="#000000" font-family="sans-serif" font-size="12" lengthAdjust="spacing" textLength="32" x="98.75" y="609.9102">Client</text><line style="stroke:#A80036;stroke-width:1.5;" x1="8" x2="189" y1="621" y2="621"/><rect fill="none" height="6" style="stroke:#C82930;stroke-width:1.0;" width="6" x="15" y="629"/><text fill="#000000" font-family="sans-serif" font-size="11" lengthAdjust="spacing" textLength="99" x="27" y="636.4189">String citizenNumber</text><rect fill="none" height="6" style="stroke:#C82930;stroke-width:1.0;" width="6" x="15" y="642.8359"/><text fill="#000000" font-family="sans-serif" font-size="11" lengthAdjust="spacing" textLength="119" x="27" y="650.2549">String healthcareNumber</text><rect fill="none" height="6" style="stroke:#C82930;stroke-width:1.0;" width="6" x="15" y="656.6719"/><text fill="#000000" font-family="sans-serif" font-size="11" lengthAdjust="spacing" textLength="74" x="27" y="664.0908">String birthDate</text><rect fill="none" height="6" style="stroke:#C82930;stroke-width:1.0;" width="6" x="15" y="670.5078"/><text fill="#000000" font-family="sans-serif" font-size="11" lengthAdjust="spacing" textLength="42" x="27" y="677.9268">String tin</text><rect fill="none" height="6" style="stroke:#C82930;stroke-width:1.0;" width="6" x="15" y="684.3438"/><text fill="#000000" font-family="sans-serif" font-size="11" lengthAdjust="spacing" textLength="57" x="27" y="691.7627">String name</text><rect fill="none" height="6" style="stroke:#C82930;stroke-width:1.0;" width="6" x="15" y="698.1797"/><text fill="#000000" font-family="sans-serif" font-size="11" lengthAdjust="spacing" textLength="98" x="27" y="705.5986">String phoneNumber</text><rect fill="none" height="6" style="stroke:#C82930;stroke-width:1.0;" width="6" x="15" y="712.0156"/><text fill="#000000" font-family="sans-serif" font-size="11" lengthAdjust="spacing" textLength="49" x="27" y="719.4346">String sex</text><line style="stroke:#A80036;stroke-width:1.0;" x1="8" x2="189" y1="725.8516" y2="725.8516"/><ellipse cx="18" cy="736.8516" fill="#84BE84" rx="3" ry="3" style="stroke:#038048;stroke-width:1.0;"/><text fill="#000000" font-family="sans-serif" font-size="11" lengthAdjust="spacing" textLength="65" x="27" y="741.2705">getAddress()</text><ellipse cx="18" cy="750.6875" fill="#84BE84" rx="3" ry="3" style="stroke:#038048;stroke-width:1.0;"/><text fill="#000000" font-family="sans-serif" font-size="11" lengthAdjust="spacing" textLength="50" x="27" y="755.1064">getName()</text><ellipse cx="18" cy="764.5234" fill="#84BE84" rx="3" ry="3" style="stroke:#038048;stroke-width:1.0;"/><text fill="#000000" font-family="sans-serif" font-size="11" lengthAdjust="spacing" textLength="90" x="27" y="768.9424">getPhoneNumber()</text><ellipse cx="18" cy="778.3594" fill="#84BE84" rx="3" ry="3" style="stroke:#038048;stroke-width:1.0;"/><text fill="#000000" font-family="sans-serif" font-size="11" lengthAdjust="spacing" textLength="42" x="27" y="782.7783">getSex()</text><ellipse cx="18" cy="792.1953" fill="#84BE84" rx="3" ry="3" style="stroke:#038048;stroke-width:1.0;"/><text fill="#000000" font-family="sans-serif" font-size="11" lengthAdjust="spacing" textLength="65" x="27" y="796.6143">setAddress()</text><ellipse cx="18" cy="806.0313" fill="#84BE84" rx="3" ry="3" style="stroke:#038048;stroke-width:1.0;"/><text fill="#000000" font-family="sans-serif" font-size="11" lengthAdjust="spacing" textLength="76" x="27" y="810.4502">setName(name)</text><ellipse cx="18" cy="819.8672" fill="#84BE84" rx="3" ry="3" style="stroke:#038048;stroke-width:1.0;"/><text fill="#000000" font-family="sans-serif" font-size="11" lengthAdjust="spacing" textLength="157" x="27" y="824.2861">setPhoneNumber(phoneNumber)</text><ellipse cx="18" cy="833.7031" fill="#84BE84" rx="3" ry="3" style="stroke:#038048;stroke-width:1.0;"/><text fill="#000000" font-family="sans-serif" font-size="11" lengthAdjust="spacing" textLength="60" x="27" y="838.1221">setSex(sex)</text><!--MD5=[dd38717e8d8a8fa7b964258d3f7b1f44]
link UpdateClientUI to UpdateClientController--><path codeLine="62" d="M441.6,55.18 C423.8,71.12 399.52,92.85 377.69,112.39 " fill="none" id="UpdateClientUI-to-UpdateClientController" style="stroke:#A80036;stroke-width:1.0;stroke-dasharray:7.0,7.0;"/><polygon fill="#A80036" points="373.92,115.76,383.2913,112.7304,377.6428,112.4223,377.9509,106.7738,373.92,115.76" style="stroke:#A80036;stroke-width:1.0;"/><!--MD5=[f0a31e5bd9c3b861032eb25f374354e5]
link UpdateClientController to ClientMapper--><path codeLine="63" d="M403.68,161 C413.57,161 423.45,161 433.33,161 " fill="none" id="UpdateClientController-to-ClientMapper" style="stroke:#A80036;stroke-width:1.0;stroke-dasharray:7.0,7.0;"/><polygon fill="#A80036" points="438.5,161,429.5,157,433.5,161,429.5,165,438.5,161" style="stroke:#A80036;stroke-width:1.0;"/><!--MD5=[af3939234646809cec66923e43961aa6]
link ClientMapper to ClientDTO--><path codeLine="64" d="M501.69,192.16 C507.64,248.54 520.43,369.61 526.77,429.69 " fill="none" id="ClientMapper-to-ClientDTO" style="stroke:#A80036;stroke-width:1.0;stroke-dasharray:7.0,7.0;"/><polygon fill="#A80036" points="527.33,434.96,530.3827,425.5962,526.8155,429.9865,522.4251,426.4194,527.33,434.96" style="stroke:#A80036;stroke-width:1.0;"/><!--MD5=[0727bedd3b36385c107f46f124f746cc]
link UpdateClientController to ClientDTO--><path codeLine="65" d="M371.12,206.24 C388.67,224.18 408.09,245.68 423.5,267 C461.98,320.26 496.08,388.99 514.95,429.88 " fill="none" id="UpdateClientController-to-ClientDTO" style="stroke:#A80036;stroke-width:1.0;stroke-dasharray:7.0,7.0;"/><polygon fill="#A80036" points="517.17,434.72,517.05,424.8719,515.0838,430.176,509.7796,428.2098,517.17,434.72" style="stroke:#A80036;stroke-width:1.0;"/><!--MD5=[93b83a5dade4da6454ce0cbb7b50db86]
link UpdateClientUI to ClientDTO--><path codeLine="66" d="M514.69,55.11 C537.86,69.21 563.53,89.63 576.5,116 C628.26,221.23 576.58,364.8 547.45,430.1 " fill="none" id="UpdateClientUI-to-ClientDTO" style="stroke:#A80036;stroke-width:1.0;stroke-dasharray:7.0,7.0;"/><polygon fill="#A80036" points="545.39,434.67,552.7387,428.1128,547.4472,430.1128,545.4471,424.8213,545.39,434.67" style="stroke:#A80036;stroke-width:1.0;"/><!--MD5=[a77d0abad1e428062ec91e4f3161646f]
link UpdateClientController to AuthFacade--><path codeLine="67" d="M284.7,206.15 C266.13,226.76 244.36,250.91 227.1,270.06 " fill="none" id="UpdateClientController-to-AuthFacade" style="stroke:#A80036;stroke-width:1.0;stroke-dasharray:7.0,7.0;"/><polygon fill="#A80036" points="223.71,273.82,232.7124,269.8253,227.0627,270.1106,226.7774,264.461,223.71,273.82" style="stroke:#A80036;stroke-width:1.0;"/><!--MD5=[7ee85e3224ad4bac687a483818a9d592]
link UpdateClientController to Company--><path codeLine="68" d="M334.14,206.15 C337.97,223.71 342.37,243.84 346.17,261.26 " fill="none" id="UpdateClientController-to-Company" style="stroke:#A80036;stroke-width:1.0;stroke-dasharray:7.0,7.0;"/><polygon fill="#A80036" points="347.33,266.57,349.3093,256.9221,346.259,261.6861,341.495,258.6357,347.33,266.57" style="stroke:#A80036;stroke-width:1.0;"/><!--MD5=[a11230341c8e65219708844feaa40162]
link Company to ClientStore--><path codeLine="69" d="M326.19,343.28 C308.93,365.23 286.92,393.23 268.36,416.85 " fill="none" id="Company-to-ClientStore" style="stroke:#A80036;stroke-width:1.0;"/><polygon fill="#A80036" points="265.17,420.9,273.8852,416.3126,268.2673,416.9749,267.605,411.3569,265.17,420.9" style="stroke:#A80036;stroke-width:1.0;"/><text fill="#000000" font-family="sans-serif" font-size="13" lengthAdjust="spacing" textLength="28" x="300.5" y="387.4951">uses</text><text fill="#000000" font-family="sans-serif" font-size="13" lengthAdjust="spacing" textLength="7" x="313.9609" y="364.2052">1</text><text fill="#000000" font-family="sans-serif" font-size="13" lengthAdjust="spacing" textLength="7" x="263.1377" y="409.9995">1</text><!--MD5=[1d934105a045dbf126514c6917bd5072]
link ClientStore to Client--><path codeLine="70" d="M207.05,511.23 C196.06,531.97 182.32,557.89 168.34,584.25 " fill="none" id="ClientStore-to-Client" style="stroke:#A80036;stroke-width:1.0;"/><polygon fill="#A80036" points="165.92,588.83,173.6725,582.7555,168.264,584.4135,166.6061,579.0051,165.92,588.83" style="stroke:#A80036;stroke-width:1.0;"/><text fill="#000000" font-family="sans-serif" font-size="13" lengthAdjust="spacing" textLength="37" x="189.5" y="555.4951">knows</text><text fill="#000000" font-family="sans-serif" font-size="13" lengthAdjust="spacing" textLength="7" x="196.4286" y="531.9346">1</text><text fill="#000000" font-family="sans-serif" font-size="13" lengthAdjust="spacing" textLength="5" x="164.8761" y="578.052">*</text><!--MD5=[674c0b4874794262cdfab96f1c1fd87f]
link UpdateClientController to Client--><path codeLine="71" d="M245.37,177.83 C196.08,192.19 136.37,218.8 105.5,267 C45.81,360.2 50.17,488.1 65.89,583.56 " fill="none" id="UpdateClientController-to-Client" style="stroke:#A80036;stroke-width:1.0;"/><polygon fill="#A80036" points="66.75,588.66,69.2294,579.1283,65.935,583.7269,61.3364,580.4324,66.75,588.66" style="stroke:#A80036;stroke-width:1.0;"/><text fill="#000000" font-family="sans-serif" font-size="13" lengthAdjust="spacing" textLength="46" x="65.5" y="387.4951">updates</text><text fill="#000000" font-family="sans-serif" font-size="13" lengthAdjust="spacing" textLength="7" x="230.4943" y="176.2069">1</text><text fill="#000000" font-family="sans-serif" font-size="13" lengthAdjust="spacing" textLength="5" x="59.7699" y="578.2964">*</text><!--MD5=[da3c2c60c90bb911b7b0e0bc8dc02987]
@startuml
top to bottom direction

class UpdateClientUI{

}

class UpdateClientController{
- -
    +getClientData()
    +findActualClient()
    +setData(data)
}

class ClientMapper{
- -
    +toDTO(clientActual)
}

class ClientDTO{
- -
    +toDTO(clientActual)
}

class AuthFacade{
- -
    +getCurrentUserSession()
}

class Company{
    -designation
- -
    +getClientStore()
}

class ClientStore{
    -List clientList
    - -
    +getClientStore()
    +getClientList()
}

class Client {
    -String citizenNumber
    -String healthcareNumber
    -String birthDate
    -String tin
    -String name
    -String phoneNumber
    -String sex
    - -
    +getAddress()
    +getName()
    +getPhoneNumber()
    +getSex()
    +setAddress()
    +setName(name)
    +setPhoneNumber(phoneNumber)
    +setSex(sex)
}


UpdateClientUI ..> UpdateClientController
UpdateClientController .> ClientMapper
ClientMapper ...> ClientDTO
UpdateClientController .> ClientDTO
UpdateClientUI ..> ClientDTO
UpdateClientController ..> AuthFacade
UpdateClientController ..> Company
Company "1" - -> "1" ClientStore : uses
ClientStore "1" - -> "*" Client : knows
UpdateClientController "1" -> "*" Client : updates
@enduml

PlantUML version 1.2021.7(Sun May 23 13:40:07 BST 2021)
(GPL source distribution)
Java Runtime: OpenJDK Runtime Environment
JVM: Dynamic Code Evolution 64-Bit Server VM
Default Encoding: Cp1252
Language: pt
Country: PT
--></g></svg>