<?xml version="1.0" encoding="UTF-8" standalone="no"?><svg xmlns="http://www.w3.org/2000/svg" xmlns:xlink="http://www.w3.org/1999/xlink" contentScriptType="application/ecmascript" contentStyleType="text/css" height="1105px" preserveAspectRatio="none" style="width:1478px;height:1105px;" version="1.1" viewBox="0 0 1478 1105" width="1478.75px" zoomAndPan="magnify"><defs><filter height="300%" id="fukcpj429h8dt" width="300%" x="-1" y="-1"><feGaussianBlur result="blurOut" stdDeviation="2.5"/><feColorMatrix in="blurOut" result="blurOut2" type="matrix" values="0 0 0 0 0 0 0 0 0 0 0 0 0 0 0 0 0 0 .4 0"/><feOffset dx="5.0" dy="5.0" in="blurOut2" result="blurOut3"/><feBlend in="SourceGraphic" in2="blurOut3" mode="normal"/></filter></defs><g><!--MD5=[da547346deef918ea16944ba046651ef]
class Administrator--><rect codeLine="3" fill="#FEFECE" filter="url(#fukcpj429h8dt)" height="111.8848" id="Administrator" style="stroke:#A80036;stroke-width:1.875;" width="476.25" x="828.75" y="316.25"/><ellipse cx="1015.9375" cy="336.25" fill="#ADD1B2" rx="13.75" ry="13.75" style="stroke:#A80036;stroke-width:1.25;"/><path d="M1018.4375,331.875 Q1018.6914,331.25 1018.9844,330.9375 Q1019.2773,330.625 1019.6094,330.625 Q1020.1953,330.625 1020.5664,330.9766 Q1020.9375,331.3281 1020.9375,332.1484 L1020.9375,334.1016 Q1020.9375,334.9219 1020.5859,335.2734 Q1020.2344,335.625 1019.6875,335.625 Q1019.1992,335.625 1018.8867,335.4102 Q1018.5742,335.1953 1018.4375,334.6289 Q1018.3789,334.2383 1018.1641,334.0234 Q1017.7734,333.6133 1017.0703,333.3789 Q1016.3672,333.125 1015.6641,333.125 Q1014.7852,333.125 1014.043,333.4766 Q1013.3203,333.8281 1012.7539,334.6094 Q1012.1875,335.3906 1012.1875,336.4648 L1012.1875,337.6172 Q1012.1875,338.9063 1013.2422,339.7656 Q1014.2969,340.625 1016.1719,340.625 Q1017.2852,340.625 1018.0664,340.3711 Q1018.5156,340.2344 1019.0234,339.7852 Q1019.3555,339.5313 1019.5313,339.4531 Q1019.707,339.375 1019.9219,339.375 Q1020.332,339.375 1020.625,339.707 Q1020.9375,340.0195 1020.9375,340.4688 Q1020.9375,340.8984 1020.5078,341.4063 Q1019.8828,342.1484 1018.8867,342.5586 Q1017.5781,343.125 1015.9766,343.125 Q1014.1016,343.125 1012.5977,342.3828 Q1011.3867,341.7969 1010.5273,340.5273 Q1009.6875,339.2578 1009.6875,337.7539 L1009.6875,336.3867 Q1009.6875,334.8242 1010.4297,333.457 Q1011.1914,332.0898 1012.5,331.3672 Q1013.8281,330.625 1015.3125,330.625 Q1016.2109,330.625 1016.9922,330.9375 Q1017.7734,331.25 1018.4375,331.875 Z " fill="#000000"/><text fill="#000000" font-family="sans-serif" font-size="15" lengthAdjust="spacing" textLength="91.25" x="1041.5625" y="342.3877">Administrator</text><line style="stroke:#A80036;stroke-width:1.875;" x1="830" x2="1303.75" y1="356.25" y2="356.25"/><line style="stroke:#A80036;stroke-width:1.25;" x1="830" x2="1303.75" y1="366.25" y2="366.25"/><ellipse cx="842.5" cy="380" fill="#84BE84" rx="3.75" ry="3.75" style="stroke:#038048;stroke-width:1.25;"/><text fill="#000000" font-family="sans-serif" font-size="13.75" lengthAdjust="spacing" textLength="443.75" x="853.75" y="385.5237">createClinical(idLaboratory, name, address, phoneNumber, tin, testTypes)</text><ellipse cx="842.5" cy="397.2949" fill="#84BE84" rx="3.75" ry="3.75" style="stroke:#038048;stroke-width:1.25;"/><text fill="#000000" font-family="sans-serif" font-size="13.75" lengthAdjust="spacing" textLength="121.25" x="853.75" y="402.8186">saveClinical(clinical)</text><rect fill="#F24D5C" height="7.5" style="stroke:#C82930;stroke-width:1.25;" width="7.5" x="838.75" y="410.8398"/><text fill="#000000" font-family="sans-serif" font-size="13.75" lengthAdjust="spacing" textLength="96.25" x="853.75" y="420.1135">validate(clinical)</text><!--MD5=[96202ef17f5bbcc002205d45165b7578]
class Clinical--><rect codeLine="11" fill="#FEFECE" filter="url(#fukcpj429h8dt)" height="181.0645" id="Clinical" style="stroke:#A80036;stroke-width:1.875;" width="428.75" x="641.25" y="526.25"/><ellipse cx="824.6875" cy="546.25" fill="#ADD1B2" rx="13.75" ry="13.75" style="stroke:#A80036;stroke-width:1.25;"/><path d="M827.1875,541.875 Q827.4414,541.25 827.7344,540.9375 Q828.0273,540.625 828.3594,540.625 Q828.9453,540.625 829.3164,540.9766 Q829.6875,541.3281 829.6875,542.1484 L829.6875,544.1016 Q829.6875,544.9219 829.3359,545.2734 Q828.9844,545.625 828.4375,545.625 Q827.9492,545.625 827.6367,545.4102 Q827.3242,545.1953 827.1875,544.6289 Q827.1289,544.2383 826.9141,544.0234 Q826.5234,543.6133 825.8203,543.3789 Q825.1172,543.125 824.4141,543.125 Q823.5352,543.125 822.793,543.4766 Q822.0703,543.8281 821.5039,544.6094 Q820.9375,545.3906 820.9375,546.4648 L820.9375,547.6172 Q820.9375,548.9063 821.9922,549.7656 Q823.0469,550.625 824.9219,550.625 Q826.0352,550.625 826.8164,550.3711 Q827.2656,550.2344 827.7734,549.7852 Q828.1055,549.5313 828.2813,549.4531 Q828.457,549.375 828.6719,549.375 Q829.082,549.375 829.375,549.707 Q829.6875,550.0195 829.6875,550.4688 Q829.6875,550.8984 829.2578,551.4063 Q828.6328,552.1484 827.6367,552.5586 Q826.3281,553.125 824.7266,553.125 Q822.8516,553.125 821.3477,552.3828 Q820.1367,551.7969 819.2773,550.5273 Q818.4375,549.2578 818.4375,547.7539 L818.4375,546.3867 Q818.4375,544.8242 819.1797,543.457 Q819.9414,542.0898 821.25,541.3672 Q822.5781,540.625 824.0625,540.625 Q824.9609,540.625 825.7422,540.9375 Q826.5234,541.25 827.1875,541.875 Z " fill="#000000"/><text fill="#000000" font-family="sans-serif" font-size="15" lengthAdjust="spacing" textLength="51.25" x="850.3125" y="552.3877">Clinical</text><line style="stroke:#A80036;stroke-width:1.875;" x1="642.5" x2="1068.75" y1="566.25" y2="566.25"/><rect fill="none" height="7.5" style="stroke:#C82930;stroke-width:1.25;" width="7.5" x="651.25" y="576.25"/><text fill="#000000" font-family="sans-serif" font-size="13.75" lengthAdjust="spacing" textLength="115" x="666.25" y="585.5237">String idLaboratory</text><rect fill="none" height="7.5" style="stroke:#C82930;stroke-width:1.25;" width="7.5" x="651.25" y="593.5449"/><text fill="#000000" font-family="sans-serif" font-size="13.75" lengthAdjust="spacing" textLength="71.25" x="666.25" y="602.8186">String name</text><rect fill="none" height="7.5" style="stroke:#C82930;stroke-width:1.25;" width="7.5" x="651.25" y="610.8398"/><text fill="#000000" font-family="sans-serif" font-size="13.75" lengthAdjust="spacing" textLength="88.75" x="666.25" y="620.1135">String address</text><rect fill="none" height="7.5" style="stroke:#C82930;stroke-width:1.25;" width="7.5" x="651.25" y="628.1348"/><text fill="#000000" font-family="sans-serif" font-size="13.75" lengthAdjust="spacing" textLength="122.5" x="666.25" y="637.4084">String phoneNumber</text><rect fill="none" height="7.5" style="stroke:#C82930;stroke-width:1.25;" width="7.5" x="651.25" y="645.4297"/><text fill="#000000" font-family="sans-serif" font-size="13.75" lengthAdjust="spacing" textLength="52.5" x="666.25" y="654.7034">String tin</text><rect fill="none" height="7.5" style="stroke:#C82930;stroke-width:1.25;" width="7.5" x="651.25" y="662.7246"/><text fill="#000000" font-family="sans-serif" font-size="13.75" lengthAdjust="spacing" textLength="106.25" x="666.25" y="671.9983">String[] testTypes</text><line style="stroke:#A80036;stroke-width:1.25;" x1="642.5" x2="1068.75" y1="680.0195" y2="680.0195"/><ellipse cx="655" cy="693.7695" fill="#84BE84" rx="3.75" ry="3.75" style="stroke:#038048;stroke-width:1.25;"/><text fill="#000000" font-family="sans-serif" font-size="13.75" lengthAdjust="spacing" textLength="396.25" x="666.25" y="699.2932">Client(idLaboratory, name, address, phoneNumber, tin, testTypes)</text><!--MD5=[7421f545a0d8420c5bec41e74b387d9c]
class Employee--><rect codeLine="23" fill="#FEFECE" filter="url(#fukcpj429h8dt)" height="181.0645" id="Employee" style="stroke:#A80036;stroke-width:1.875;" width="155" x="1249.375" y="526.25"/><ellipse cx="1288.9375" cy="546.25" fill="#ADD1B2" rx="13.75" ry="13.75" style="stroke:#A80036;stroke-width:1.25;"/><path d="M1291.4375,541.875 Q1291.6914,541.25 1291.9844,540.9375 Q1292.2773,540.625 1292.6094,540.625 Q1293.1953,540.625 1293.5664,540.9766 Q1293.9375,541.3281 1293.9375,542.1484 L1293.9375,544.1016 Q1293.9375,544.9219 1293.5859,545.2734 Q1293.2344,545.625 1292.6875,545.625 Q1292.1992,545.625 1291.8867,545.4102 Q1291.5742,545.1953 1291.4375,544.6289 Q1291.3789,544.2383 1291.1641,544.0234 Q1290.7734,543.6133 1290.0703,543.3789 Q1289.3672,543.125 1288.6641,543.125 Q1287.7852,543.125 1287.043,543.4766 Q1286.3203,543.8281 1285.7539,544.6094 Q1285.1875,545.3906 1285.1875,546.4648 L1285.1875,547.6172 Q1285.1875,548.9063 1286.2422,549.7656 Q1287.2969,550.625 1289.1719,550.625 Q1290.2852,550.625 1291.0664,550.3711 Q1291.5156,550.2344 1292.0234,549.7852 Q1292.3555,549.5313 1292.5313,549.4531 Q1292.707,549.375 1292.9219,549.375 Q1293.332,549.375 1293.625,549.707 Q1293.9375,550.0195 1293.9375,550.4688 Q1293.9375,550.8984 1293.5078,551.4063 Q1292.8828,552.1484 1291.8867,552.5586 Q1290.5781,553.125 1288.9766,553.125 Q1287.1016,553.125 1285.5977,552.3828 Q1284.3867,551.7969 1283.5273,550.5273 Q1282.6875,549.2578 1282.6875,547.7539 L1282.6875,546.3867 Q1282.6875,544.8242 1283.4297,543.457 Q1284.1914,542.0898 1285.5,541.3672 Q1286.8281,540.625 1288.3125,540.625 Q1289.2109,540.625 1289.9922,540.9375 Q1290.7734,541.25 1291.4375,541.875 Z " fill="#000000"/><text fill="#000000" font-family="sans-serif" font-size="15" lengthAdjust="spacing" textLength="68.75" x="1311.0625" y="552.3877">Employee</text><line style="stroke:#A80036;stroke-width:1.875;" x1="1250.625" x2="1403.125" y1="566.25" y2="566.25"/><rect fill="none" height="7.5" style="stroke:#C82930;stroke-width:1.25;" width="7.5" x="1259.375" y="576.25"/><text fill="#000000" font-family="sans-serif" font-size="13.75" lengthAdjust="spacing" textLength="106.25" x="1274.375" y="585.5237">String idEmployee</text><rect fill="none" height="7.5" style="stroke:#C82930;stroke-width:1.25;" width="7.5" x="1259.375" y="593.5449"/><text fill="#000000" font-family="sans-serif" font-size="13.75" lengthAdjust="spacing" textLength="71.25" x="1274.375" y="602.8186">String name</text><rect fill="none" height="7.5" style="stroke:#C82930;stroke-width:1.25;" width="7.5" x="1259.375" y="610.8398"/><text fill="#000000" font-family="sans-serif" font-size="13.75" lengthAdjust="spacing" textLength="87.5" x="1274.375" y="620.1135">String function</text><rect fill="none" height="7.5" style="stroke:#C82930;stroke-width:1.25;" width="7.5" x="1259.375" y="628.1348"/><text fill="#000000" font-family="sans-serif" font-size="13.75" lengthAdjust="spacing" textLength="122.5" x="1274.375" y="637.4084">String phoneNumber</text><rect fill="none" height="7.5" style="stroke:#C82930;stroke-width:1.25;" width="7.5" x="1259.375" y="645.4297"/><text fill="#000000" font-family="sans-serif" font-size="13.75" lengthAdjust="spacing" textLength="68.75" x="1274.375" y="654.7034">String email</text><rect fill="none" height="7.5" style="stroke:#C82930;stroke-width:1.25;" width="7.5" x="1259.375" y="662.7246"/><text fill="#000000" font-family="sans-serif" font-size="13.75" lengthAdjust="spacing" textLength="88.75" x="1274.375" y="671.9983">String address</text><rect fill="none" height="7.5" style="stroke:#C82930;stroke-width:1.25;" width="7.5" x="1259.375" y="680.0195"/><text fill="#000000" font-family="sans-serif" font-size="13.75" lengthAdjust="spacing" textLength="61.25" x="1274.375" y="689.2932">String soc</text><line style="stroke:#A80036;stroke-width:1.875;" x1="1250.625" x2="1403.125" y1="697.3145" y2="697.3145"/><!--MD5=[aeb3272166074d8737a70b61b1e71682]
class TestType--><rect codeLine="33" fill="#FEFECE" filter="url(#fukcpj429h8dt)" height="111.8848" id="TestType" style="stroke:#A80036;stroke-width:1.875;" width="178.75" x="998.75" y="805"/><ellipse cx="1051.8125" cy="825" fill="#ADD1B2" rx="13.75" ry="13.75" style="stroke:#A80036;stroke-width:1.25;"/><path d="M1054.3125,820.625 Q1054.5664,820 1054.8594,819.6875 Q1055.1523,819.375 1055.4844,819.375 Q1056.0703,819.375 1056.4414,819.7266 Q1056.8125,820.0781 1056.8125,820.8984 L1056.8125,822.8516 Q1056.8125,823.6719 1056.4609,824.0234 Q1056.1094,824.375 1055.5625,824.375 Q1055.0742,824.375 1054.7617,824.1602 Q1054.4492,823.9453 1054.3125,823.3789 Q1054.2539,822.9883 1054.0391,822.7734 Q1053.6484,822.3633 1052.9453,822.1289 Q1052.2422,821.875 1051.5391,821.875 Q1050.6602,821.875 1049.918,822.2266 Q1049.1953,822.5781 1048.6289,823.3594 Q1048.0625,824.1406 1048.0625,825.2148 L1048.0625,826.3672 Q1048.0625,827.6563 1049.1172,828.5156 Q1050.1719,829.375 1052.0469,829.375 Q1053.1602,829.375 1053.9414,829.1211 Q1054.3906,828.9844 1054.8984,828.5352 Q1055.2305,828.2813 1055.4063,828.2031 Q1055.582,828.125 1055.7969,828.125 Q1056.207,828.125 1056.5,828.457 Q1056.8125,828.7695 1056.8125,829.2188 Q1056.8125,829.6484 1056.3828,830.1563 Q1055.7578,830.8984 1054.7617,831.3086 Q1053.4531,831.875 1051.8516,831.875 Q1049.9766,831.875 1048.4727,831.1328 Q1047.2617,830.5469 1046.4023,829.2773 Q1045.5625,828.0078 1045.5625,826.5039 L1045.5625,825.1367 Q1045.5625,823.5742 1046.3047,822.207 Q1047.0664,820.8398 1048.375,820.1172 Q1049.7031,819.375 1051.1875,819.375 Q1052.0859,819.375 1052.8672,819.6875 Q1053.6484,820 1054.3125,820.625 Z " fill="#000000"/><text fill="#000000" font-family="sans-serif" font-size="15" lengthAdjust="spacing" textLength="62.5" x="1076.9375" y="831.1377">TestType</text><line style="stroke:#A80036;stroke-width:1.875;" x1="1000" x2="1176.25" y1="845" y2="845"/><rect fill="none" height="7.5" style="stroke:#C82930;stroke-width:1.25;" width="7.5" x="1008.75" y="855"/><text fill="#000000" font-family="sans-serif" font-size="13.75" lengthAdjust="spacing" textLength="65" x="1023.75" y="864.2737">String type</text><rect fill="none" height="7.5" style="stroke:#C82930;stroke-width:1.25;" width="7.5" x="1008.75" y="872.2949"/><text fill="#000000" font-family="sans-serif" font-size="13.75" lengthAdjust="spacing" textLength="146.25" x="1023.75" y="881.5686">String collectingMethods</text><line style="stroke:#A80036;stroke-width:1.25;" x1="1000" x2="1176.25" y1="889.5898" y2="889.5898"/><ellipse cx="1012.5" cy="903.3398" fill="#84BE84" rx="3.75" ry="3.75" style="stroke:#038048;stroke-width:1.25;"/><text fill="#000000" font-family="sans-serif" font-size="13.75" lengthAdjust="spacing" textLength="85" x="1023.75" y="908.8635">getTestType()</text><!--MD5=[37309ab6e23351c4730a79161d180b75]
class CreateClinicalAnalysisLaboratoryUI--><rect codeLine="40" fill="#FEFECE" filter="url(#fukcpj429h8dt)" height="60" id="CreateClinicalAnalysisLaboratoryUI" style="stroke:#A80036;stroke-width:1.875;" width="282.5" x="25.625" y="8.75"/><ellipse cx="44.375" cy="28.75" fill="#ADD1B2" rx="13.75" ry="13.75" style="stroke:#A80036;stroke-width:1.25;"/><path d="M46.875,24.375 Q47.1289,23.75 47.4219,23.4375 Q47.7148,23.125 48.0469,23.125 Q48.6328,23.125 49.0039,23.4766 Q49.375,23.8281 49.375,24.6484 L49.375,26.6016 Q49.375,27.4219 49.0234,27.7734 Q48.6719,28.125 48.125,28.125 Q47.6367,28.125 47.3242,27.9102 Q47.0117,27.6953 46.875,27.1289 Q46.8164,26.7383 46.6016,26.5234 Q46.2109,26.1133 45.5078,25.8789 Q44.8047,25.625 44.1016,25.625 Q43.2227,25.625 42.4805,25.9766 Q41.7578,26.3281 41.1914,27.1094 Q40.625,27.8906 40.625,28.9648 L40.625,30.1172 Q40.625,31.4063 41.6797,32.2656 Q42.7344,33.125 44.6094,33.125 Q45.7227,33.125 46.5039,32.8711 Q46.9531,32.7344 47.4609,32.2852 Q47.793,32.0313 47.9688,31.9531 Q48.1445,31.875 48.3594,31.875 Q48.7695,31.875 49.0625,32.207 Q49.375,32.5195 49.375,32.9688 Q49.375,33.3984 48.9453,33.9063 Q48.3203,34.6484 47.3242,35.0586 Q46.0156,35.625 44.4141,35.625 Q42.5391,35.625 41.0352,34.8828 Q39.8242,34.2969 38.9648,33.0273 Q38.125,31.7578 38.125,30.2539 L38.125,28.8867 Q38.125,27.3242 38.8672,25.957 Q39.6289,24.5898 40.9375,23.8672 Q42.2656,23.125 43.75,23.125 Q44.6484,23.125 45.4297,23.4375 Q46.2109,23.75 46.875,24.375 Z " fill="#000000"/><text fill="#000000" font-family="sans-serif" font-size="15" lengthAdjust="spacing" textLength="242.5" x="61.875" y="34.8877">CreateClinicalAnalysisLaboratoryUI</text><line style="stroke:#A80036;stroke-width:1.875;" x1="26.875" x2="306.875" y1="48.75" y2="48.75"/><line style="stroke:#A80036;stroke-width:1.875;" x1="26.875" x2="306.875" y1="58.75" y2="58.75"/><!--MD5=[9183c337eb2ba76e3d1279c21921db8b]
class CreateClinicalController--><rect codeLine="43" fill="#FEFECE" filter="url(#fukcpj429h8dt)" height="94.5898" id="CreateClinicalController" style="stroke:#A80036;stroke-width:1.875;" width="476.25" x="322.5" y="145"/><ellipse cx="472.8125" cy="165" fill="#ADD1B2" rx="13.75" ry="13.75" style="stroke:#A80036;stroke-width:1.25;"/><path d="M475.3125,160.625 Q475.5664,160 475.8594,159.6875 Q476.1523,159.375 476.4844,159.375 Q477.0703,159.375 477.4414,159.7266 Q477.8125,160.0781 477.8125,160.8984 L477.8125,162.8516 Q477.8125,163.6719 477.4609,164.0234 Q477.1094,164.375 476.5625,164.375 Q476.0742,164.375 475.7617,164.1602 Q475.4492,163.9453 475.3125,163.3789 Q475.2539,162.9883 475.0391,162.7734 Q474.6484,162.3633 473.9453,162.1289 Q473.2422,161.875 472.5391,161.875 Q471.6602,161.875 470.918,162.2266 Q470.1953,162.5781 469.6289,163.3594 Q469.0625,164.1406 469.0625,165.2148 L469.0625,166.3672 Q469.0625,167.6563 470.1172,168.5156 Q471.1719,169.375 473.0469,169.375 Q474.1602,169.375 474.9414,169.1211 Q475.3906,168.9844 475.8984,168.5352 Q476.2305,168.2813 476.4063,168.2031 Q476.582,168.125 476.7969,168.125 Q477.207,168.125 477.5,168.457 Q477.8125,168.7695 477.8125,169.2188 Q477.8125,169.6484 477.3828,170.1563 Q476.7578,170.8984 475.7617,171.3086 Q474.4531,171.875 472.8516,171.875 Q470.9766,171.875 469.4727,171.1328 Q468.2617,170.5469 467.4023,169.2773 Q466.5625,168.0078 466.5625,166.5039 L466.5625,165.1367 Q466.5625,163.5742 467.3047,162.207 Q468.0664,160.8398 469.375,160.1172 Q470.7031,159.375 472.1875,159.375 Q473.0859,159.375 473.8672,159.6875 Q474.6484,160 475.3125,160.625 Z " fill="#000000"/><text fill="#000000" font-family="sans-serif" font-size="15" lengthAdjust="spacing" textLength="165" x="498.4375" y="171.1377">CreateClinicalController</text><line style="stroke:#A80036;stroke-width:1.875;" x1="323.75" x2="797.5" y1="185" y2="185"/><line style="stroke:#A80036;stroke-width:1.25;" x1="323.75" x2="797.5" y1="195" y2="195"/><ellipse cx="336.25" cy="208.75" fill="#84BE84" rx="3.75" ry="3.75" style="stroke:#038048;stroke-width:1.25;"/><text fill="#000000" font-family="sans-serif" font-size="13.75" lengthAdjust="spacing" textLength="443.75" x="347.5" y="214.2737">createClinical(idLaboratory, name, address, phoneNumber, tin, testTypes)</text><ellipse cx="336.25" cy="226.0449" fill="#84BE84" rx="3.75" ry="3.75" style="stroke:#038048;stroke-width:1.25;"/><text fill="#000000" font-family="sans-serif" font-size="13.75" lengthAdjust="spacing" textLength="81.25" x="347.5" y="231.5686">saveClinical()</text><!--MD5=[99b8db98afdc2c8404e39242ef4c1e65]
class Platform--><rect codeLine="49" fill="#FEFECE" filter="url(#fukcpj429h8dt)" height="94.5898" id="Platform" style="stroke:#A80036;stroke-width:1.875;" width="146.25" x="1311.25" y="813.75"/><ellipse cx="1351.9375" cy="833.75" fill="#ADD1B2" rx="13.75" ry="13.75" style="stroke:#A80036;stroke-width:1.25;"/><path d="M1354.4375,829.375 Q1354.6914,828.75 1354.9844,828.4375 Q1355.2773,828.125 1355.6094,828.125 Q1356.1953,828.125 1356.5664,828.4766 Q1356.9375,828.8281 1356.9375,829.6484 L1356.9375,831.6016 Q1356.9375,832.4219 1356.5859,832.7734 Q1356.2344,833.125 1355.6875,833.125 Q1355.1992,833.125 1354.8867,832.9102 Q1354.5742,832.6953 1354.4375,832.1289 Q1354.3789,831.7383 1354.1641,831.5234 Q1353.7734,831.1133 1353.0703,830.8789 Q1352.3672,830.625 1351.6641,830.625 Q1350.7852,830.625 1350.043,830.9766 Q1349.3203,831.3281 1348.7539,832.1094 Q1348.1875,832.8906 1348.1875,833.9648 L1348.1875,835.1172 Q1348.1875,836.4063 1349.2422,837.2656 Q1350.2969,838.125 1352.1719,838.125 Q1353.2852,838.125 1354.0664,837.8711 Q1354.5156,837.7344 1355.0234,837.2852 Q1355.3555,837.0313 1355.5313,836.9531 Q1355.707,836.875 1355.9219,836.875 Q1356.332,836.875 1356.625,837.207 Q1356.9375,837.5195 1356.9375,837.9688 Q1356.9375,838.3984 1356.5078,838.9063 Q1355.8828,839.6484 1354.8867,840.0586 Q1353.5781,840.625 1351.9766,840.625 Q1350.1016,840.625 1348.5977,839.8828 Q1347.3867,839.2969 1346.5273,838.0273 Q1345.6875,836.7578 1345.6875,835.2539 L1345.6875,833.8867 Q1345.6875,832.3242 1346.4297,830.957 Q1347.1914,829.5898 1348.5,828.8672 Q1349.8281,828.125 1351.3125,828.125 Q1352.2109,828.125 1352.9922,828.4375 Q1353.7734,828.75 1354.4375,829.375 Z " fill="#000000"/><text fill="#000000" font-family="sans-serif" font-size="15" lengthAdjust="spacing" textLength="57.5" x="1374.3125" y="839.8877">Platform</text><line style="stroke:#A80036;stroke-width:1.875;" x1="1312.5" x2="1456.25" y1="853.75" y2="853.75"/><line style="stroke:#A80036;stroke-width:1.25;" x1="1312.5" x2="1456.25" y1="863.75" y2="863.75"/><ellipse cx="1325" cy="877.5" fill="#84BE84" rx="3.75" ry="3.75" style="stroke:#038048;stroke-width:1.25;"/><text fill="#000000" font-family="sans-serif" font-size="13.75" lengthAdjust="spacing" textLength="77.5" x="1336.25" y="883.0237">getClinicals()</text><ellipse cx="1325" cy="894.7949" fill="#84BE84" rx="3.75" ry="3.75" style="stroke:#038048;stroke-width:1.25;"/><text fill="#000000" font-family="sans-serif" font-size="13.75" lengthAdjust="spacing" textLength="113.75" x="1336.25" y="900.3186">addClinical(clinical)</text><!--MD5=[e97765950caee6ae0ccb509cbd7f1787]
class ClinicalStore--><rect codeLine="55" fill="#FEFECE" filter="url(#fukcpj429h8dt)" height="94.5898" id="ClinicalStore" style="stroke:#A80036;stroke-width:1.875;" width="127.5" x="1320.625" y="993.75"/><ellipse cx="1339.375" cy="1013.75" fill="#ADD1B2" rx="13.75" ry="13.75" style="stroke:#A80036;stroke-width:1.25;"/><path d="M1341.875,1009.375 Q1342.1289,1008.75 1342.4219,1008.4375 Q1342.7148,1008.125 1343.0469,1008.125 Q1343.6328,1008.125 1344.0039,1008.4766 Q1344.375,1008.8281 1344.375,1009.6484 L1344.375,1011.6016 Q1344.375,1012.4219 1344.0234,1012.7734 Q1343.6719,1013.125 1343.125,1013.125 Q1342.6367,1013.125 1342.3242,1012.9102 Q1342.0117,1012.6953 1341.875,1012.1289 Q1341.8164,1011.7383 1341.6016,1011.5234 Q1341.2109,1011.1133 1340.5078,1010.8789 Q1339.8047,1010.625 1339.1016,1010.625 Q1338.2227,1010.625 1337.4805,1010.9766 Q1336.7578,1011.3281 1336.1914,1012.1094 Q1335.625,1012.8906 1335.625,1013.9648 L1335.625,1015.1172 Q1335.625,1016.4063 1336.6797,1017.2656 Q1337.7344,1018.125 1339.6094,1018.125 Q1340.7227,1018.125 1341.5039,1017.8711 Q1341.9531,1017.7344 1342.4609,1017.2852 Q1342.793,1017.0313 1342.9688,1016.9531 Q1343.1445,1016.875 1343.3594,1016.875 Q1343.7695,1016.875 1344.0625,1017.207 Q1344.375,1017.5195 1344.375,1017.9688 Q1344.375,1018.3984 1343.9453,1018.9063 Q1343.3203,1019.6484 1342.3242,1020.0586 Q1341.0156,1020.625 1339.4141,1020.625 Q1337.5391,1020.625 1336.0352,1019.8828 Q1334.8242,1019.2969 1333.9648,1018.0273 Q1333.125,1016.7578 1333.125,1015.2539 L1333.125,1013.8867 Q1333.125,1012.3242 1333.8672,1010.957 Q1334.6289,1009.5898 1335.9375,1008.8672 Q1337.2656,1008.125 1338.75,1008.125 Q1339.6484,1008.125 1340.4297,1008.4375 Q1341.2109,1008.75 1341.875,1009.375 Z " fill="#000000"/><text fill="#000000" font-family="sans-serif" font-size="15" lengthAdjust="spacing" textLength="87.5" x="1356.875" y="1019.8877">ClinicalStore</text><line style="stroke:#A80036;stroke-width:1.875;" x1="1321.875" x2="1446.875" y1="1033.75" y2="1033.75"/><line style="stroke:#A80036;stroke-width:1.875;" x1="1321.875" x2="1446.875" y1="1043.75" y2="1043.75"/><ellipse cx="1334.375" cy="1057.5" fill="#84BE84" rx="3.75" ry="3.75" style="stroke:#038048;stroke-width:1.25;"/><text fill="#000000" font-family="sans-serif" font-size="13.75" lengthAdjust="spacing" textLength="77.5" x="1345.625" y="1063.0237">getClinicals()</text><ellipse cx="1334.375" cy="1074.7949" fill="#84BE84" rx="3.75" ry="3.75" style="stroke:#038048;stroke-width:1.25;"/><text fill="#000000" font-family="sans-serif" font-size="13.75" lengthAdjust="spacing" textLength="81.25" x="1345.625" y="1080.3186">addClinicals()</text><!--MD5=[724ead17d3ca940995455a91cefd1e12]
class TestTypeMapper--><rect codeLine="61" fill="#FEFECE" filter="url(#fukcpj429h8dt)" height="94.5898" id="TestTypeMapper" style="stroke:#A80036;stroke-width:1.875;" width="307.5" x="296.875" y="325"/><ellipse cx="388.4375" cy="345" fill="#ADD1B2" rx="13.75" ry="13.75" style="stroke:#A80036;stroke-width:1.25;"/><path d="M390.9375,340.625 Q391.1914,340 391.4844,339.6875 Q391.7773,339.375 392.1094,339.375 Q392.6953,339.375 393.0664,339.7266 Q393.4375,340.0781 393.4375,340.8984 L393.4375,342.8516 Q393.4375,343.6719 393.0859,344.0234 Q392.7344,344.375 392.1875,344.375 Q391.6992,344.375 391.3867,344.1602 Q391.0742,343.9453 390.9375,343.3789 Q390.8789,342.9883 390.6641,342.7734 Q390.2734,342.3633 389.5703,342.1289 Q388.8672,341.875 388.1641,341.875 Q387.2852,341.875 386.543,342.2266 Q385.8203,342.5781 385.2539,343.3594 Q384.6875,344.1406 384.6875,345.2148 L384.6875,346.3672 Q384.6875,347.6563 385.7422,348.5156 Q386.7969,349.375 388.6719,349.375 Q389.7852,349.375 390.5664,349.1211 Q391.0156,348.9844 391.5234,348.5352 Q391.8555,348.2813 392.0313,348.2031 Q392.207,348.125 392.4219,348.125 Q392.832,348.125 393.125,348.457 Q393.4375,348.7695 393.4375,349.2188 Q393.4375,349.6484 393.0078,350.1563 Q392.3828,350.8984 391.3867,351.3086 Q390.0781,351.875 388.4766,351.875 Q386.6016,351.875 385.0977,351.1328 Q383.8867,350.5469 383.0273,349.2773 Q382.1875,348.0078 382.1875,346.5039 L382.1875,345.1367 Q382.1875,343.5742 382.9297,342.207 Q383.6914,340.8398 385,340.1172 Q386.3281,339.375 387.8125,339.375 Q388.7109,339.375 389.4922,339.6875 Q390.2734,340 390.9375,340.625 Z " fill="#000000"/><text fill="#000000" font-family="sans-serif" font-size="15" lengthAdjust="spacing" textLength="113.75" x="414.0625" y="351.1377">TestTypeMapper</text><line style="stroke:#A80036;stroke-width:1.875;" x1="298.125" x2="603.125" y1="365" y2="365"/><line style="stroke:#A80036;stroke-width:1.875;" x1="298.125" x2="603.125" y1="375" y2="375"/><ellipse cx="310.625" cy="388.75" fill="#84BE84" rx="3.75" ry="3.75" style="stroke:#038048;stroke-width:1.25;"/><text fill="#000000" font-family="sans-serif" font-size="13.75" lengthAdjust="spacing" textLength="275" x="321.875" y="394.2737">List&lt;TestTypeDTO&gt;toDTO(List&lt;TestType&gt;list)</text><ellipse cx="310.625" cy="406.0449" fill="#84BE84" rx="3.75" ry="3.75" style="stroke:#038048;stroke-width:1.25;"/><text fill="#000000" font-family="sans-serif" font-size="13.75" lengthAdjust="spacing" textLength="211.25" x="321.875" y="411.5686">TestTypeDTO toDTO(TestType obj)</text><!--MD5=[d0024740988d3925690046e9afae9c9c]
class TestTypeDTO--><rect codeLine="66" fill="#FEFECE" filter="url(#fukcpj429h8dt)" height="111.8848" id="TestTypeDTO" style="stroke:#A80036;stroke-width:1.875;" width="266.25" x="8.75" y="560.625"/><ellipse cx="89.6875" cy="580.625" fill="#ADD1B2" rx="13.75" ry="13.75" style="stroke:#A80036;stroke-width:1.25;"/><path d="M92.1875,576.25 Q92.4414,575.625 92.7344,575.3125 Q93.0273,575 93.3594,575 Q93.9453,575 94.3164,575.3516 Q94.6875,575.7031 94.6875,576.5234 L94.6875,578.4766 Q94.6875,579.2969 94.3359,579.6484 Q93.9844,580 93.4375,580 Q92.9492,580 92.6367,579.7852 Q92.3242,579.5703 92.1875,579.0039 Q92.1289,578.6133 91.9141,578.3984 Q91.5234,577.9883 90.8203,577.7539 Q90.1172,577.5 89.4141,577.5 Q88.5352,577.5 87.793,577.8516 Q87.0703,578.2031 86.5039,578.9844 Q85.9375,579.7656 85.9375,580.8398 L85.9375,581.9922 Q85.9375,583.2813 86.9922,584.1406 Q88.0469,585 89.9219,585 Q91.0352,585 91.8164,584.7461 Q92.2656,584.6094 92.7734,584.1602 Q93.1055,583.9063 93.2813,583.8281 Q93.457,583.75 93.6719,583.75 Q94.082,583.75 94.375,584.082 Q94.6875,584.3945 94.6875,584.8438 Q94.6875,585.2734 94.2578,585.7813 Q93.6328,586.5234 92.6367,586.9336 Q91.3281,587.5 89.7266,587.5 Q87.8516,587.5 86.3477,586.7578 Q85.1367,586.1719 84.2773,584.9023 Q83.4375,583.6328 83.4375,582.1289 L83.4375,580.7617 Q83.4375,579.1992 84.1797,577.832 Q84.9414,576.4648 86.25,575.7422 Q87.5781,575 89.0625,575 Q89.9609,575 90.7422,575.3125 Q91.5234,575.625 92.1875,576.25 Z " fill="#000000"/><text fill="#000000" font-family="sans-serif" font-size="15" lengthAdjust="spacing" textLength="93.75" x="115.3125" y="586.7627">TestTypeDTO</text><line style="stroke:#A80036;stroke-width:1.875;" x1="10" x2="273.75" y1="600.625" y2="600.625"/><rect fill="none" height="7.5" style="stroke:#C82930;stroke-width:1.25;" width="7.5" x="18.75" y="610.625"/><text fill="#000000" font-family="sans-serif" font-size="13.75" lengthAdjust="spacing" textLength="26.25" x="33.75" y="619.8987">type</text><rect fill="none" height="7.5" style="stroke:#C82930;stroke-width:1.25;" width="7.5" x="18.75" y="627.9199"/><text fill="#000000" font-family="sans-serif" font-size="13.75" lengthAdjust="spacing" textLength="107.5" x="33.75" y="637.1936">collectingMethods</text><line style="stroke:#A80036;stroke-width:1.25;" x1="10" x2="273.75" y1="645.2148" y2="645.2148"/><ellipse cx="22.5" cy="658.9648" fill="#84BE84" rx="3.75" ry="3.75" style="stroke:#038048;stroke-width:1.25;"/><text fill="#000000" font-family="sans-serif" font-size="13.75" lengthAdjust="spacing" textLength="233.75" x="33.75" y="664.4885">TestTypeDTO(type, collectingMethods)</text><!--MD5=[6ba72ddf03822b91e8d41ca71de58ed3]
class TestTypeStore--><rect codeLine="73" fill="#FEFECE" filter="url(#fukcpj429h8dt)" height="146.4746" id="TestTypeStore" style="stroke:#A80036;stroke-width:1.875;" width="278.75" x="318.75" y="543.75"/><ellipse cx="403.4375" cy="563.75" fill="#ADD1B2" rx="13.75" ry="13.75" style="stroke:#A80036;stroke-width:1.25;"/><path d="M405.9375,559.375 Q406.1914,558.75 406.4844,558.4375 Q406.7773,558.125 407.1094,558.125 Q407.6953,558.125 408.0664,558.4766 Q408.4375,558.8281 408.4375,559.6484 L408.4375,561.6016 Q408.4375,562.4219 408.0859,562.7734 Q407.7344,563.125 407.1875,563.125 Q406.6992,563.125 406.3867,562.9102 Q406.0742,562.6953 405.9375,562.1289 Q405.8789,561.7383 405.6641,561.5234 Q405.2734,561.1133 404.5703,560.8789 Q403.8672,560.625 403.1641,560.625 Q402.2852,560.625 401.543,560.9766 Q400.8203,561.3281 400.2539,562.1094 Q399.6875,562.8906 399.6875,563.9648 L399.6875,565.1172 Q399.6875,566.4063 400.7422,567.2656 Q401.7969,568.125 403.6719,568.125 Q404.7852,568.125 405.5664,567.8711 Q406.0156,567.7344 406.5234,567.2852 Q406.8555,567.0313 407.0313,566.9531 Q407.207,566.875 407.4219,566.875 Q407.832,566.875 408.125,567.207 Q408.4375,567.5195 408.4375,567.9688 Q408.4375,568.3984 408.0078,568.9063 Q407.3828,569.6484 406.3867,570.0586 Q405.0781,570.625 403.4766,570.625 Q401.6016,570.625 400.0977,569.8828 Q398.8867,569.2969 398.0273,568.0273 Q397.1875,566.7578 397.1875,565.2539 L397.1875,563.8867 Q397.1875,562.3242 397.9297,560.957 Q398.6914,559.5898 400,558.8672 Q401.3281,558.125 402.8125,558.125 Q403.7109,558.125 404.4922,558.4375 Q405.2734,558.75 405.9375,559.375 Z " fill="#000000"/><text fill="#000000" font-family="sans-serif" font-size="15" lengthAdjust="spacing" textLength="98.75" x="429.0625" y="569.8877">TestTypeStore</text><line style="stroke:#A80036;stroke-width:1.875;" x1="320" x2="596.25" y1="583.75" y2="583.75"/><line style="stroke:#A80036;stroke-width:1.875;" x1="320" x2="596.25" y1="593.75" y2="593.75"/><ellipse cx="332.5" cy="607.5" fill="#84BE84" rx="3.75" ry="3.75" style="stroke:#038048;stroke-width:1.25;"/><text fill="#000000" font-family="sans-serif" font-size="13.75" lengthAdjust="spacing" textLength="246.25" x="343.75" y="613.0237">createTestType(type, collectingMethods)</text><ellipse cx="332.5" cy="624.7949" fill="#84BE84" rx="3.75" ry="3.75" style="stroke:#038048;stroke-width:1.25;"/><text fill="#000000" font-family="sans-serif" font-size="13.75" lengthAdjust="spacing" textLength="120" x="343.75" y="630.3186">validateTestType(tt)</text><ellipse cx="332.5" cy="642.0898" fill="#84BE84" rx="3.75" ry="3.75" style="stroke:#038048;stroke-width:1.25;"/><text fill="#000000" font-family="sans-serif" font-size="13.75" lengthAdjust="spacing" textLength="103.75" x="343.75" y="647.6135">saveTestType(tt)</text><ellipse cx="332.5" cy="659.3848" fill="#84BE84" rx="3.75" ry="3.75" style="stroke:#038048;stroke-width:1.25;"/><text fill="#000000" font-family="sans-serif" font-size="13.75" lengthAdjust="spacing" textLength="96.25" x="343.75" y="664.9084">addTestType(tt)</text><ellipse cx="332.5" cy="676.6797" fill="#84BE84" rx="3.75" ry="3.75" style="stroke:#038048;stroke-width:1.25;"/><text fill="#000000" font-family="sans-serif" font-size="13.75" lengthAdjust="spacing" textLength="92.5" x="343.75" y="682.2034">getTestType(tt)</text><!--MD5=[24cf5e85a430e7b97709a7855a258566]
link CreateClinicalAnalysisLaboratoryUI to CreateClinicalController--><path codeLine="82" d="M241.8625,68.8 C296.0125,89.6 370.4375,118.2 433.7625,142.5125 " fill="none" id="CreateClinicalAnalysisLaboratoryUI-to-CreateClinicalController" style="stroke:#A80036;stroke-width:1.25;stroke-dasharray:7.0,7.0;"/><polygon fill="#A80036" points="439.85,144.8625,431.1501,136.1519,434.018,142.6153,427.5546,145.4832,439.85,144.8625" style="stroke:#A80036;stroke-width:1.25;"/><!--MD5=[e27f2651652633388d7f75cc62903f12]
link CreateClinicalController to Administrator--><path codeLine="83" d="M692.65,240.0375 C757.2,262.675 835.5,290.125 903.7625,314.0625 " fill="none" id="CreateClinicalController-to-Administrator" style="stroke:#A80036;stroke-width:1.25;stroke-dasharray:7.0,7.0;"/><polygon fill="#A80036" points="909.925,316.2125,900.9697,307.7647,904.0287,314.1399,897.6535,317.1988,909.925,316.2125" style="stroke:#A80036;stroke-width:1.25;"/><!--MD5=[71159b3869b6d7a411768e18bcaa697a]
link Administrator to TestType--><path codeLine="84" d="M1078.1375,428.9 C1083.4625,457.7625 1089.225,493.7625 1091.875,526.25 C1099.6,621.0875 1095.875,731.575 1092.2,798.6125 " fill="none" id="Administrator-to-TestType" style="stroke:#A80036;stroke-width:1.25;"/><polygon fill="#A80036" points="1091.85,804.9625,1097.4837,794.0161,1092.2066,798.7227,1087.5,793.4456,1091.85,804.9625" style="stroke:#A80036;stroke-width:1.25;"/><text fill="#000000" font-family="sans-serif" font-size="16.25" lengthAdjust="spacing" textLength="45" x="1096.875" y="623.7439">create</text><text fill="#000000" font-family="sans-serif" font-size="16.25" lengthAdjust="spacing" textLength="8.75" x="1070.3561" y="455.1806">1</text><text fill="#000000" font-family="sans-serif" font-size="16.25" lengthAdjust="spacing" textLength="6.25" x="1085.6956" y="791.3509">*</text><!--MD5=[171a14a010b85463ae72d83a61297da9]
link Administrator to Clinical--><path codeLine="85" d="M1018.4125,429.2375 C994.7125,456.375 965.5125,489.8125 938.4125,520.8375 " fill="none" id="Administrator-to-Clinical" style="stroke:#A80036;stroke-width:1.25;"/><polygon fill="#A80036" points="934.0875,525.7875,945.2572,520.6105,938.2019,521.0828,937.7296,514.0275,934.0875,525.7875" style="stroke:#A80036;stroke-width:1.25;"/><text fill="#000000" font-family="sans-serif" font-size="16.25" lengthAdjust="spacing" textLength="45" x="980.625" y="484.3689">create</text><text fill="#000000" font-family="sans-serif" font-size="16.25" lengthAdjust="spacing" textLength="8.75" x="1002.5625" y="455.1451">1</text><text fill="#000000" font-family="sans-serif" font-size="16.25" lengthAdjust="spacing" textLength="6.25" x="935.2535" y="512.7364">*</text><!--MD5=[8f7dd94d56b58fc07b233ccd3dd98f8c]
link Administrator to Employee--><path codeLine="86" d="M1145.25,428.8125 C1160.7125,440.65 1176.5125,453.4625 1190.625,466.25 C1204.8875,479.1875 1219.2875,493.425 1233.125,507.8375 " fill="none" id="Administrator-to-Employee" style="stroke:#A80036;stroke-width:1.25;"/><polygon fill="none" points="1239.525,501.875,1250.275,526.075,1226.775,513.8625,1239.525,501.875" style="stroke:#A80036;stroke-width:1.25;"/><text fill="#000000" font-family="sans-serif" font-size="16.25" lengthAdjust="spacing" textLength="12.5" x="1210.625" y="484.3689">is</text><text fill="#000000" font-family="sans-serif" font-size="16.25" lengthAdjust="spacing" textLength="8.75" x="1146.9063" y="455.0807">1</text><text fill="#000000" font-family="sans-serif" font-size="16.25" lengthAdjust="spacing" textLength="6.25" x="1235.8034" y="512.5811">*</text><!--MD5=[9ea77886cd8ff3bde369d10976fc7b77]
link Clinical to TestType--><path codeLine="87" d="M941.5375,707.5 C971.125,738.2875 1003.5375,772.0125 1030.35,799.8875 " fill="none" id="Clinical-to-TestType" style="stroke:#A80036;stroke-width:1.25;"/><polygon fill="#A80036" points="1034.9375,804.675,1030.7277,793.1061,1030.5992,800.176,1023.5293,800.0474,1034.9375,804.675" style="stroke:#A80036;stroke-width:1.25;"/><text fill="#000000" font-family="sans-serif" font-size="16.25" lengthAdjust="spacing" textLength="66.25" x="993.125" y="763.1189">conducts</text><text fill="#000000" font-family="sans-serif" font-size="16.25" lengthAdjust="spacing" textLength="8.75" x="940.8138" y="734.3049">1</text><text fill="#000000" font-family="sans-serif" font-size="16.25" lengthAdjust="spacing" textLength="8.75" x="1017.3732" y="791.4303">1</text><!--MD5=[b482d663aae385f5ae82dde2f71259c6]
link Employee to Platform--><path codeLine="88" d="M1348.125,707.5 C1356.125,741.175 1364.9625,778.35 1371.9125,807.575 " fill="none" id="Employee-to-Platform" style="stroke:#A80036;stroke-width:1.25;"/><polygon fill="#A80036" points="1373.3625,813.6875,1375.6272,801.5865,1371.9181,807.6067,1365.8979,803.8976,1373.3625,813.6875" style="stroke:#A80036;stroke-width:1.25;"/><text fill="#000000" font-family="sans-serif" font-size="16.25" lengthAdjust="spacing" textLength="35" x="1361.875" y="763.1189">uses</text><!--MD5=[d88ceb6733982d6ff63cabacf18509af]
link CreateClinicalController to Platform--><path codeLine="89" d="M799.0625,207.8 C992.225,223.4875 1245.2375,255.1625 1326.875,316.25 C1470.575,423.7875 1451.1875,529.675 1426.875,707.5 C1422.2375,741.4375 1412.0375,778.475 1402.8,807.55 " fill="none" id="CreateClinicalController-to-Platform" style="stroke:#A80036;stroke-width:1.25;stroke-dasharray:7.0,7.0;"/><polygon fill="#A80036" points="1400.8375,813.6375,1409.0394,804.4564,1402.7495,807.6871,1399.5188,801.3973,1400.8375,813.6375" style="stroke:#A80036;stroke-width:1.25;"/><!--MD5=[4c3fecb6841db1b51bed0c377266334e]
link Platform to ClinicalStore--><path codeLine="90" d="M1384.375,909.1375 C1384.375,933.0875 1384.375,962.3625 1384.375,987.15 " fill="none" id="Platform-to-ClinicalStore" style="stroke:#A80036;stroke-width:1.25;stroke-dasharray:7.0,7.0;"/><polygon fill="#A80036" points="1384.375,993.675,1389.375,982.425,1384.375,987.425,1379.375,982.425,1384.375,993.675" style="stroke:#A80036;stroke-width:1.25;"/><!--MD5=[8bc37d60e48a0f8ca80a59740d5a27b7]
link CreateClinicalAnalysisLaboratoryUI to TestTypeDTO--><path codeLine="91" d="M165.6125,68.9375 C161.7375,158.2 149.9125,430.5875 144.5625,553.8625 " fill="none" id="CreateClinicalAnalysisLaboratoryUI-to-TestTypeDTO" style="stroke:#A80036;stroke-width:1.25;stroke-dasharray:7.0,7.0;"/><polygon fill="#A80036" points="144.275,560.3375,149.7521,549.3119,144.5426,554.0932,139.7613,548.8837,144.275,560.3375" style="stroke:#A80036;stroke-width:1.25;"/><!--MD5=[4810a6b671f17bcd2435f774a793c851]
link CreateClinicalController to TestTypeMapper--><path codeLine="92" d="M531.725,240.3875 C516.6875,264.6375 498.275,294.3625 482.7875,319.3375 " fill="none" id="CreateClinicalController-to-TestTypeMapper" style="stroke:#A80036;stroke-width:1.25;stroke-dasharray:7.0,7.0;"/><polygon fill="#A80036" points="479.3375,324.925,489.5023,317.9795,482.6211,319.607,480.9936,312.7258,479.3375,324.925" style="stroke:#A80036;stroke-width:1.25;"/><!--MD5=[a866f4e758874d18eed8ecae1602bb43]
link TestTypeMapper to TestTypeDTO--><path codeLine="93" d="M391.4625,420.1 C341.925,458.9 270.95,514.5125 217.325,556.5125 " fill="none" id="TestTypeMapper-to-TestTypeDTO" style="stroke:#A80036;stroke-width:1.25;stroke-dasharray:7.0,7.0;"/><polygon fill="#A80036" points="212.2,560.5375,224.1357,557.5205,217.1151,556.6769,217.9587,549.6563,212.2,560.5375" style="stroke:#A80036;stroke-width:1.25;"/><!--MD5=[0560dfd87a52563bf881b9b3ce9c038c]
link CreateClinicalController to TestTypeDTO--><path codeLine="94" d="M395.2,240.0625 C351.8625,258.325 307.925,283.1 274.375,316.25 C207.5875,382.225 171.825,487.6875 154.85,554.225 " fill="none" id="CreateClinicalController-to-TestTypeDTO" style="stroke:#A80036;stroke-width:1.25;stroke-dasharray:7.0,7.0;"/><polygon fill="#A80036" points="153.275,560.5375,160.861,550.8413,154.7951,554.4752,151.1612,548.4092,153.275,560.5375" style="stroke:#A80036;stroke-width:1.25;"/><!--MD5=[a7c8137e1981f3a2a0a33e0bf148e360]
link TestTypeMapper to TestTypeStore--><path codeLine="95" d="M452.075,420.3875 C453.0875,453.35 454.4875,498.3375 455.675,536.8125 " fill="none" id="TestTypeMapper-to-TestTypeStore" style="stroke:#A80036;stroke-width:1.25;stroke-dasharray:7.0,7.0;"/><polygon fill="#A80036" points="455.8875,543.425,460.5316,532.0235,455.6912,537.1781,450.5366,532.3376,455.8875,543.425" style="stroke:#A80036;stroke-width:1.25;"/><!--MD5=[b5f1a65eaeef81662ae05b75f1673475]
link CreateClinicalController to TestTypeStore--><path codeLine="96" d="M592.3125,240.425 C605.3875,262.4125 619,289.6125 625.625,316.25 C637.7,364.775 643.4875,382.05 625.625,428.75 C609.75,470.25 579.9375,508.3375 549.8125,539.15 " fill="none" id="CreateClinicalController-to-TestTypeStore" style="stroke:#A80036;stroke-width:1.25;stroke-dasharray:7.0,7.0;"/><polygon fill="#A80036" points="545.375,543.65,556.8476,539.1843,549.7766,539.2128,549.748,532.1418,545.375,543.65" style="stroke:#A80036;stroke-width:1.25;"/><!--MD5=[80fcb3eecf5bf53af291d5a1e4ef4982]
@startuml


class Administrator
{
  - -
  +createClinical(idLaboratory, name, address, phoneNumber, tin, testTypes)
  +saveClinical(clinical)
  -validate(clinical)
}

class Clinical
{
  -String idLaboratory
  -String name
  -String address
  -String phoneNumber
  -String tin
  -String[] testTypes
  - -
  +Client(idLaboratory, name, address, phoneNumber, tin, testTypes)
}

class Employee{
  -String idEmployee
  -String name
  -String function
  -String phoneNumber
  -String email
  -String address
  -String soc
}

class TestType {
  -String type
  -String collectingMethods
  - -
  +getTestType()
}

class CreateClinicalAnalysisLaboratoryUI {
}

class CreateClinicalController {
  - -
  +createClinical(idLaboratory, name, address, phoneNumber, tin, testTypes)
  +saveClinical()
}

class Platform {
  - -
  +getClinicals()
  +addClinical(clinical)
}

class ClinicalStore {
  +getClinicals()
  +addClinicals()
}


class TestTypeMapper {
 +List<TestTypeDTO>toDTO(List<TestType>list)
 +TestTypeDTO toDTO(TestType obj)
}

class TestTypeDTO {
 -type
 -collectingMethods
 - -
 +TestTypeDTO(type, collectingMethods)
}

class TestTypeStore{
 +createTestType(type, collectingMethods)
 +validateTestType(tt)
 +saveTestType(tt)
 +addTestType(tt)
 +getTestType(tt)
}


CreateClinicalAnalysisLaboratoryUI ..> CreateClinicalController
CreateClinicalController ..> Administrator
Administrator "1" - -> "*" TestType : create
Administrator "1" - -> "*" Clinical : create
Administrator "1" - -|> "*" Employee : is
Clinical "1" - -> "1" TestType : conducts
Employee - -> Platform : uses
CreateClinicalController ..> Platform
Platform ..> ClinicalStore
CreateClinicalAnalysisLaboratoryUI ..> TestTypeDTO
CreateClinicalController ..> TestTypeMapper
TestTypeMapper ..> TestTypeDTO
CreateClinicalController ..> TestTypeDTO
TestTypeMapper ..> TestTypeStore
CreateClinicalController ..> TestTypeStore


@enduml

PlantUML version 1.2021.2(Sun Mar 07 11:10:27 GMT 2021)
(GPL source distribution)
Java Runtime: OpenJDK Runtime Environment
JVM: OpenJDK 64-Bit Server VM
Default Encoding: Cp1252
Language: pt
Country: PT
--></g></svg>