<?xml version="1.0" encoding="UTF-8" standalone="no"?><svg xmlns="http://www.w3.org/2000/svg" xmlns:xlink="http://www.w3.org/1999/xlink" contentScriptType="application/ecmascript" contentStyleType="text/css" height="475px" preserveAspectRatio="none" style="width:571px;height:475px;" version="1.1" viewBox="0 0 571 475" width="571.25px" zoomAndPan="magnify"><defs><filter height="300%" id="f162nxosb2jk1h" width="300%" x="-1" y="-1"><feGaussianBlur result="blurOut" stdDeviation="2.5"/><feColorMatrix in="blurOut" result="blurOut2" type="matrix" values="0 0 0 0 0 0 0 0 0 0 0 0 0 0 0 0 0 0 .4 0"/><feOffset dx="5.0" dy="5.0" in="blurOut2" result="blurOut3"/><feBlend in="SourceGraphic" in2="blurOut3" mode="normal"/></filter></defs><g><!--MD5=[02e4b9b7573f1156f41e60aa5b4e25a4]
class Company--><rect codeLine="6" fill="#FEFECE" filter="url(#f162nxosb2jk1h)" height="67.2949" id="Company" style="stroke:#A80036;stroke-width:1.875;" width="106.25" x="288.75" y="8.75"/><ellipse cx="307.5" cy="28.75" fill="#ADD1B2" rx="13.75" ry="13.75" style="stroke:#A80036;stroke-width:1.25;"/><path d="M310,24.375 Q310.2539,23.75 310.5469,23.4375 Q310.8398,23.125 311.1719,23.125 Q311.7578,23.125 312.1289,23.4766 Q312.5,23.8281 312.5,24.6484 L312.5,26.6016 Q312.5,27.4219 312.1484,27.7734 Q311.7969,28.125 311.25,28.125 Q310.7617,28.125 310.4492,27.9102 Q310.1367,27.6953 310,27.1289 Q309.9414,26.7383 309.7266,26.5234 Q309.3359,26.1133 308.6328,25.8789 Q307.9297,25.625 307.2266,25.625 Q306.3477,25.625 305.6055,25.9766 Q304.8828,26.3281 304.3164,27.1094 Q303.75,27.8906 303.75,28.9648 L303.75,30.1172 Q303.75,31.4063 304.8047,32.2656 Q305.8594,33.125 307.7344,33.125 Q308.8477,33.125 309.6289,32.8711 Q310.0781,32.7344 310.5859,32.2852 Q310.918,32.0313 311.0938,31.9531 Q311.2695,31.875 311.4844,31.875 Q311.8945,31.875 312.1875,32.207 Q312.5,32.5195 312.5,32.9688 Q312.5,33.3984 312.0703,33.9063 Q311.4453,34.6484 310.4492,35.0586 Q309.1406,35.625 307.5391,35.625 Q305.6641,35.625 304.1602,34.8828 Q302.9492,34.2969 302.0898,33.0273 Q301.25,31.7578 301.25,30.2539 L301.25,28.8867 Q301.25,27.3242 301.9922,25.957 Q302.7539,24.5898 304.0625,23.8672 Q305.3906,23.125 306.875,23.125 Q307.7734,23.125 308.5547,23.4375 Q309.3359,23.75 310,24.375 Z " fill="#000000"/><text fill="#000000" font-family="sans-serif" font-size="15" lengthAdjust="spacing" textLength="66.25" x="325" y="34.8877">Company</text><line style="stroke:#A80036;stroke-width:1.875;" x1="290" x2="393.75" y1="48.75" y2="48.75"/><text fill="#000000" font-family="sans-serif" font-size="13.75" lengthAdjust="spacing" textLength="73.75" x="296.25" y="68.0237">-designation</text><!--MD5=[a64badb107d3691f2dc6af242cdbeb21]
class ChemicalLaboratory--><rect codeLine="10" fill="#FEFECE" filter="url(#f162nxosb2jk1h)" height="50" id="ChemicalLaboratory" style="stroke:#A80036;stroke-width:1.875;" width="178.75" x="8.75" y="182.5"/><ellipse cx="27.5" cy="202.5" fill="#ADD1B2" rx="13.75" ry="13.75" style="stroke:#A80036;stroke-width:1.25;"/><path d="M30,198.125 Q30.2539,197.5 30.5469,197.1875 Q30.8398,196.875 31.1719,196.875 Q31.7578,196.875 32.1289,197.2266 Q32.5,197.5781 32.5,198.3984 L32.5,200.3516 Q32.5,201.1719 32.1484,201.5234 Q31.7969,201.875 31.25,201.875 Q30.7617,201.875 30.4492,201.6602 Q30.1367,201.4453 30,200.8789 Q29.9414,200.4883 29.7266,200.2734 Q29.3359,199.8633 28.6328,199.6289 Q27.9297,199.375 27.2266,199.375 Q26.3477,199.375 25.6055,199.7266 Q24.8828,200.0781 24.3164,200.8594 Q23.75,201.6406 23.75,202.7148 L23.75,203.8672 Q23.75,205.1563 24.8047,206.0156 Q25.8594,206.875 27.7344,206.875 Q28.8477,206.875 29.6289,206.6211 Q30.0781,206.4844 30.5859,206.0352 Q30.918,205.7813 31.0938,205.7031 Q31.2695,205.625 31.4844,205.625 Q31.8945,205.625 32.1875,205.957 Q32.5,206.2695 32.5,206.7188 Q32.5,207.1484 32.0703,207.6563 Q31.4453,208.3984 30.4492,208.8086 Q29.1406,209.375 27.5391,209.375 Q25.6641,209.375 24.1602,208.6328 Q22.9492,208.0469 22.0898,206.7773 Q21.25,205.5078 21.25,204.0039 L21.25,202.6367 Q21.25,201.0742 21.9922,199.707 Q22.7539,198.3398 24.0625,197.6172 Q25.3906,196.875 26.875,196.875 Q27.7734,196.875 28.5547,197.1875 Q29.3359,197.5 30,198.125 Z " fill="#000000"/><text fill="#000000" font-family="sans-serif" font-size="15" lengthAdjust="spacing" textLength="138.75" x="45" y="208.6377">ChemicalLaboratory</text><line style="stroke:#A80036;stroke-width:1.875;" x1="10" x2="186.25" y1="222.5" y2="222.5"/><!--MD5=[1934a092c0e7d4da7dc7075b6f4b6b03]
class ClinicalAnalysisLaboratory--><rect codeLine="14" fill="#FEFECE" filter="url(#f162nxosb2jk1h)" height="67.2949" id="ClinicalAnalysisLaboratory" style="stroke:#A80036;stroke-width:1.875;" width="221.25" x="231.25" y="173.75"/><ellipse cx="250" cy="193.75" fill="#ADD1B2" rx="13.75" ry="13.75" style="stroke:#A80036;stroke-width:1.25;"/><path d="M252.5,189.375 Q252.7539,188.75 253.0469,188.4375 Q253.3398,188.125 253.6719,188.125 Q254.2578,188.125 254.6289,188.4766 Q255,188.8281 255,189.6484 L255,191.6016 Q255,192.4219 254.6484,192.7734 Q254.2969,193.125 253.75,193.125 Q253.2617,193.125 252.9492,192.9102 Q252.6367,192.6953 252.5,192.1289 Q252.4414,191.7383 252.2266,191.5234 Q251.8359,191.1133 251.1328,190.8789 Q250.4297,190.625 249.7266,190.625 Q248.8477,190.625 248.1055,190.9766 Q247.3828,191.3281 246.8164,192.1094 Q246.25,192.8906 246.25,193.9648 L246.25,195.1172 Q246.25,196.4063 247.3047,197.2656 Q248.3594,198.125 250.2344,198.125 Q251.3477,198.125 252.1289,197.8711 Q252.5781,197.7344 253.0859,197.2852 Q253.418,197.0313 253.5938,196.9531 Q253.7695,196.875 253.9844,196.875 Q254.3945,196.875 254.6875,197.207 Q255,197.5195 255,197.9688 Q255,198.3984 254.5703,198.9063 Q253.9453,199.6484 252.9492,200.0586 Q251.6406,200.625 250.0391,200.625 Q248.1641,200.625 246.6602,199.8828 Q245.4492,199.2969 244.5898,198.0273 Q243.75,196.7578 243.75,195.2539 L243.75,193.8867 Q243.75,192.3242 244.4922,190.957 Q245.2539,189.5898 246.5625,188.8672 Q247.8906,188.125 249.375,188.125 Q250.2734,188.125 251.0547,188.4375 Q251.8359,188.75 252.5,189.375 Z " fill="#000000"/><text fill="#000000" font-family="sans-serif" font-size="15" lengthAdjust="spacing" textLength="181.25" x="267.5" y="199.8877">ClinicalAnalysisLaboratory</text><line style="stroke:#A80036;stroke-width:1.875;" x1="232.5" x2="451.25" y1="213.75" y2="213.75"/><text fill="#000000" font-family="sans-serif" font-size="13.75" lengthAdjust="spacing" textLength="15" x="238.75" y="233.0237">-id</text><!--MD5=[aeb3272166074d8737a70b61b1e71682]
class TestType--><rect codeLine="18" fill="#FEFECE" filter="url(#f162nxosb2jk1h)" height="101.8848" id="TestType" style="stroke:#A80036;stroke-width:1.875;" width="120" x="433.125" y="346.875"/><ellipse cx="459.75" cy="366.875" fill="#ADD1B2" rx="13.75" ry="13.75" style="stroke:#A80036;stroke-width:1.25;"/><path d="M462.25,362.5 Q462.5039,361.875 462.7969,361.5625 Q463.0898,361.25 463.4219,361.25 Q464.0078,361.25 464.3789,361.6016 Q464.75,361.9531 464.75,362.7734 L464.75,364.7266 Q464.75,365.5469 464.3984,365.8984 Q464.0469,366.25 463.5,366.25 Q463.0117,366.25 462.6992,366.0352 Q462.3867,365.8203 462.25,365.2539 Q462.1914,364.8633 461.9766,364.6484 Q461.5859,364.2383 460.8828,364.0039 Q460.1797,363.75 459.4766,363.75 Q458.5977,363.75 457.8555,364.1016 Q457.1328,364.4531 456.5664,365.2344 Q456,366.0156 456,367.0898 L456,368.2422 Q456,369.5313 457.0547,370.3906 Q458.1094,371.25 459.9844,371.25 Q461.0977,371.25 461.8789,370.9961 Q462.3281,370.8594 462.8359,370.4102 Q463.168,370.1563 463.3438,370.0781 Q463.5195,370 463.7344,370 Q464.1445,370 464.4375,370.332 Q464.75,370.6445 464.75,371.0938 Q464.75,371.5234 464.3203,372.0313 Q463.6953,372.7734 462.6992,373.1836 Q461.3906,373.75 459.7891,373.75 Q457.9141,373.75 456.4102,373.0078 Q455.1992,372.4219 454.3398,371.1523 Q453.5,369.8828 453.5,368.3789 L453.5,367.0117 Q453.5,365.4492 454.2422,364.082 Q455.0039,362.7148 456.3125,361.9922 Q457.6406,361.25 459.125,361.25 Q460.0234,361.25 460.8047,361.5625 Q461.5859,361.875 462.25,362.5 Z " fill="#000000"/><text fill="#000000" font-family="sans-serif" font-size="15" lengthAdjust="spacing" textLength="62.5" x="479" y="373.0127">TestType</text><line style="stroke:#A80036;stroke-width:1.875;" x1="434.375" x2="551.875" y1="386.875" y2="386.875"/><text fill="#000000" font-family="sans-serif" font-size="13.75" lengthAdjust="spacing" textLength="35" x="440.625" y="406.1487">-code</text><text fill="#000000" font-family="sans-serif" font-size="13.75" lengthAdjust="spacing" textLength="71.25" x="440.625" y="423.4436">-description</text><text fill="#000000" font-family="sans-serif" font-size="13.75" lengthAdjust="spacing" textLength="105" x="440.625" y="440.7385">-collectingMethod</text><!--MD5=[0caf3a413731a0de34fc6162fe213ed9]
class Laboratory--><rect codeLine="24" fill="#FEFECE" filter="url(#f162nxosb2jk1h)" height="119.1797" id="Laboratory" style="stroke:#A80036;stroke-width:1.875;" width="112.5" x="185.625" y="338.75"/><ellipse cx="204.375" cy="358.75" fill="#ADD1B2" rx="13.75" ry="13.75" style="stroke:#A80036;stroke-width:1.25;"/><path d="M206.875,354.375 Q207.1289,353.75 207.4219,353.4375 Q207.7148,353.125 208.0469,353.125 Q208.6328,353.125 209.0039,353.4766 Q209.375,353.8281 209.375,354.6484 L209.375,356.6016 Q209.375,357.4219 209.0234,357.7734 Q208.6719,358.125 208.125,358.125 Q207.6367,358.125 207.3242,357.9102 Q207.0117,357.6953 206.875,357.1289 Q206.8164,356.7383 206.6016,356.5234 Q206.2109,356.1133 205.5078,355.8789 Q204.8047,355.625 204.1016,355.625 Q203.2227,355.625 202.4805,355.9766 Q201.7578,356.3281 201.1914,357.1094 Q200.625,357.8906 200.625,358.9648 L200.625,360.1172 Q200.625,361.4063 201.6797,362.2656 Q202.7344,363.125 204.6094,363.125 Q205.7227,363.125 206.5039,362.8711 Q206.9531,362.7344 207.4609,362.2852 Q207.793,362.0313 207.9688,361.9531 Q208.1445,361.875 208.3594,361.875 Q208.7695,361.875 209.0625,362.207 Q209.375,362.5195 209.375,362.9688 Q209.375,363.3984 208.9453,363.9063 Q208.3203,364.6484 207.3242,365.0586 Q206.0156,365.625 204.4141,365.625 Q202.5391,365.625 201.0352,364.8828 Q199.8242,364.2969 198.9648,363.0273 Q198.125,361.7578 198.125,360.2539 L198.125,358.8867 Q198.125,357.3242 198.8672,355.957 Q199.6289,354.5898 200.9375,353.8672 Q202.2656,353.125 203.75,353.125 Q204.6484,353.125 205.4297,353.4375 Q206.2109,353.75 206.875,354.375 Z " fill="#000000"/><text fill="#000000" font-family="sans-serif" font-size="15" lengthAdjust="spacing" textLength="72.5" x="221.875" y="364.8877">Laboratory</text><line style="stroke:#A80036;stroke-width:1.875;" x1="186.875" x2="296.875" y1="378.75" y2="378.75"/><text fill="#000000" font-family="sans-serif" font-size="13.75" lengthAdjust="spacing" textLength="37.5" x="193.125" y="398.0237">-name</text><text fill="#000000" font-family="sans-serif" font-size="13.75" lengthAdjust="spacing" textLength="55" x="193.125" y="415.3186">-address</text><text fill="#000000" font-family="sans-serif" font-size="13.75" lengthAdjust="spacing" textLength="88.75" x="193.125" y="432.6135">-phoneNumber</text><text fill="#000000" font-family="sans-serif" font-size="13.75" lengthAdjust="spacing" textLength="18.75" x="193.125" y="449.9084">-tin</text><!--MD5=[742a261f27a3dcd734c626287d811acd]
link Company to TestType--><path codeLine="31" d="M388.85,76.475 C418.6,99.9375 454.975,134.275 474.375,173.75 C501.2,228.35 502.2375,299.575 498.9875,346.7 " fill="none" id="Company-TestType" style="stroke:#A80036;stroke-width:1.25;"/><text fill="#000000" font-family="sans-serif" font-size="16.25" lengthAdjust="spacing" textLength="66.25" x="495.625" y="214.3689">conducts</text><text fill="#000000" font-family="sans-serif" font-size="16.25" lengthAdjust="spacing" textLength="8.75" x="389.4187" y="103.0339">1</text><text fill="#000000" font-family="sans-serif" font-size="16.25" lengthAdjust="spacing" textLength="6.25" x="493.1909" y="333.4827">*</text><!--MD5=[aafc5d8a5829a6a8d6dc892cb1ff5d24]
link Company to ClinicalAnalysisLaboratory--><path codeLine="32" d="M341.875,76.6375 C341.875,104.825 341.875,145.2375 341.875,173.4125 " fill="none" id="Company-ClinicalAnalysisLaboratory" style="stroke:#A80036;stroke-width:1.25;"/><text fill="#000000" font-family="sans-serif" font-size="16.25" lengthAdjust="spacing" textLength="37.5" x="343.125" y="131.8689">owns</text><text fill="#000000" font-family="sans-serif" font-size="16.25" lengthAdjust="spacing" textLength="8.75" x="332.2227" y="102.6762">1</text><text fill="#000000" font-family="sans-serif" font-size="16.25" lengthAdjust="spacing" textLength="6.25" x="334.9023" y="160.1607">*</text><!--MD5=[2eb961b30663a01bbfd8b4b9b8950031]
link ClinicalAnalysisLaboratory to TestType--><path codeLine="33" d="M368.225,241.525 C391.575,270.575 426.05,313.45 452.8625,346.8 " fill="none" id="ClinicalAnalysisLaboratory-TestType" style="stroke:#A80036;stroke-width:1.25;"/><text fill="#000000" font-family="sans-serif" font-size="16.25" lengthAdjust="spacing" textLength="62.5" x="413.125" y="296.8689">performs</text><text fill="#000000" font-family="sans-serif" font-size="16.25" lengthAdjust="spacing" textLength="6.25" x="367.0555" y="268.0949">*</text><text fill="#000000" font-family="sans-serif" font-size="16.25" lengthAdjust="spacing" textLength="6.25" x="439.1553" y="333.2193">*</text><!--MD5=[d6a5ae732362cd0f86c2003645f951b1]
link Company to ChemicalLaboratory--><path codeLine="34" d="M292.55,76.6375 C245.525,107.975 175.8625,154.425 133.9375,182.375 " fill="none" id="Company-ChemicalLaboratory" style="stroke:#A80036;stroke-width:1.25;"/><text fill="#000000" font-family="sans-serif" font-size="16.25" lengthAdjust="spacing" textLength="37.5" x="236.875" y="131.8689">owns</text><text fill="#000000" font-family="sans-serif" font-size="16.25" lengthAdjust="spacing" textLength="8.75" x="272.7244" y="102.6762">1</text><text fill="#000000" font-family="sans-serif" font-size="16.25" lengthAdjust="spacing" textLength="22.5" x="118.6527" y="168.9905">0.1</text><!--MD5=[ca241da2d6b7ba1ad04f00d8baddcc83]
link ChemicalLaboratory to Laboratory--><path codeLine="35" d="M116.325,232.575 C132.9375,254.3125 158.4375,287.675 182.1125,318.675 " fill="none" id="ChemicalLaboratory-to-Laboratory" style="stroke:#A80036;stroke-width:1.25;"/><polygon fill="none" points="189.0875,313.375,197.3125,338.55,175.175,324,189.0875,313.375" style="stroke:#A80036;stroke-width:1.25;"/><!--MD5=[6d0dfcacb99e5b6ea3de933623cb0bd1]
link ClinicalAnalysisLaboratory to Laboratory--><path codeLine="36" d="M324.4625,241.525 C313.4125,262.3 298.6,290.1625 284.575,316.55 " fill="none" id="ClinicalAnalysisLaboratory-to-Laboratory" style="stroke:#A80036;stroke-width:1.25;"/><polygon fill="none" points="292.2875,320.6875,272.825,338.65,276.825,312.475,292.2875,320.6875" style="stroke:#A80036;stroke-width:1.25;"/><!--MD5=[5c7fc28caa2ba4019d29d93be8f4873c]
@startuml
hide methods
top to bottom direction
skinparam classAttributeIconSize 0


class Company {
    -designation
}

class ChemicalLaboratory {

}

class ClinicalAnalysisLaboratory {
    -id
}

class TestType {
    -code
    -description
    -collectingMethod
}

class Laboratory {
    -name
    -address
    -phoneNumber
    -tin
}

Company "1" - - "*" TestType : conducts
Company "1" - - "*" ClinicalAnalysisLaboratory : owns
ClinicalAnalysisLaboratory "*" - - "*" TestType : performs
Company "1" - - "0.1" ChemicalLaboratory : owns
ChemicalLaboratory - -|> Laboratory
ClinicalAnalysisLaboratory - -|> Laboratory




@enduml

PlantUML version 1.2021.2(Sun Mar 07 11:10:27 GMT 2021)
(GPL source distribution)
Java Runtime: OpenJDK Runtime Environment
JVM: OpenJDK 64-Bit Server VM
Default Encoding: Cp1252
Language: pt
Country: PT
--></g></svg>