<?xml version="1.0" encoding="UTF-8" standalone="no"?><svg xmlns="http://www.w3.org/2000/svg" xmlns:xlink="http://www.w3.org/1999/xlink" contentScriptType="application/ecmascript" contentStyleType="text/css" height="1087.5px" preserveAspectRatio="none" style="width:707px;height:1087px;" version="1.1" viewBox="0 0 707 1087" width="707.5px" zoomAndPan="magnify"><defs><filter height="300%" id="fnzq9lpfodx73" width="300%" x="-1" y="-1"><feGaussianBlur result="blurOut" stdDeviation="2.5"/><feColorMatrix in="blurOut" result="blurOut2" type="matrix" values="0 0 0 0 0 0 0 0 0 0 0 0 0 0 0 0 0 0 .4 0"/><feOffset dx="5.0" dy="5.0" in="blurOut2" result="blurOut3"/><feBlend in="SourceGraphic" in2="blurOut3" mode="normal"/></filter></defs><g><!--MD5=[f0ec6245f8cc749cbbccec23d3b2d3c2]
class ClinicalCreatorUI--><rect codeLine="2" fill="#FEFECE" filter="url(#fnzq9lpfodx73)" height="60" id="ClinicalCreatorUI" style="stroke:#A80036;stroke-width:1.875;" width="157.5" x="343.75" y="8.75"/><ellipse cx="362.5" cy="28.75" fill="#ADD1B2" rx="13.75" ry="13.75" style="stroke:#A80036;stroke-width:1.25;"/><path d="M365,24.375 Q365.2539,23.75 365.5469,23.4375 Q365.8398,23.125 366.1719,23.125 Q366.7578,23.125 367.1289,23.4766 Q367.5,23.8281 367.5,24.6484 L367.5,26.6016 Q367.5,27.4219 367.1484,27.7734 Q366.7969,28.125 366.25,28.125 Q365.7617,28.125 365.4492,27.9102 Q365.1367,27.6953 365,27.1289 Q364.9414,26.7383 364.7266,26.5234 Q364.3359,26.1133 363.6328,25.8789 Q362.9297,25.625 362.2266,25.625 Q361.3477,25.625 360.6055,25.9766 Q359.8828,26.3281 359.3164,27.1094 Q358.75,27.8906 358.75,28.9648 L358.75,30.1172 Q358.75,31.4063 359.8047,32.2656 Q360.8594,33.125 362.7344,33.125 Q363.8477,33.125 364.6289,32.8711 Q365.0781,32.7344 365.5859,32.2852 Q365.918,32.0313 366.0938,31.9531 Q366.2695,31.875 366.4844,31.875 Q366.8945,31.875 367.1875,32.207 Q367.5,32.5195 367.5,32.9688 Q367.5,33.3984 367.0703,33.9063 Q366.4453,34.6484 365.4492,35.0586 Q364.1406,35.625 362.5391,35.625 Q360.6641,35.625 359.1602,34.8828 Q357.9492,34.2969 357.0898,33.0273 Q356.25,31.7578 356.25,30.2539 L356.25,28.8867 Q356.25,27.3242 356.9922,25.957 Q357.7539,24.5898 359.0625,23.8672 Q360.3906,23.125 361.875,23.125 Q362.7734,23.125 363.5547,23.4375 Q364.3359,23.75 365,24.375 Z " fill="#000000"/><text fill="#000000" font-family="sans-serif" font-size="15" lengthAdjust="spacing" textLength="117.5" x="380" y="34.8877">ClinicalCreatorUI</text><line style="stroke:#A80036;stroke-width:1.875;" x1="345" x2="500" y1="48.75" y2="48.75"/><line style="stroke:#A80036;stroke-width:1.875;" x1="345" x2="500" y1="58.75" y2="58.75"/><!--MD5=[9183c337eb2ba76e3d1279c21921db8b]
class CreateClinicalController--><rect codeLine="6" fill="#FEFECE" filter="url(#fnzq9lpfodx73)" height="94.5898" id="CreateClinicalController" style="stroke:#A80036;stroke-width:1.875;" width="476.25" x="184.375" y="145"/><ellipse cx="334.6875" cy="165" fill="#ADD1B2" rx="13.75" ry="13.75" style="stroke:#A80036;stroke-width:1.25;"/><path d="M337.1875,160.625 Q337.4414,160 337.7344,159.6875 Q338.0273,159.375 338.3594,159.375 Q338.9453,159.375 339.3164,159.7266 Q339.6875,160.0781 339.6875,160.8984 L339.6875,162.8516 Q339.6875,163.6719 339.3359,164.0234 Q338.9844,164.375 338.4375,164.375 Q337.9492,164.375 337.6367,164.1602 Q337.3242,163.9453 337.1875,163.3789 Q337.1289,162.9883 336.9141,162.7734 Q336.5234,162.3633 335.8203,162.1289 Q335.1172,161.875 334.4141,161.875 Q333.5352,161.875 332.793,162.2266 Q332.0703,162.5781 331.5039,163.3594 Q330.9375,164.1406 330.9375,165.2148 L330.9375,166.3672 Q330.9375,167.6563 331.9922,168.5156 Q333.0469,169.375 334.9219,169.375 Q336.0352,169.375 336.8164,169.1211 Q337.2656,168.9844 337.7734,168.5352 Q338.1055,168.2813 338.2813,168.2031 Q338.457,168.125 338.6719,168.125 Q339.082,168.125 339.375,168.457 Q339.6875,168.7695 339.6875,169.2188 Q339.6875,169.6484 339.2578,170.1563 Q338.6328,170.8984 337.6367,171.3086 Q336.3281,171.875 334.7266,171.875 Q332.8516,171.875 331.3477,171.1328 Q330.1367,170.5469 329.2773,169.2773 Q328.4375,168.0078 328.4375,166.5039 L328.4375,165.1367 Q328.4375,163.5742 329.1797,162.207 Q329.9414,160.8398 331.25,160.1172 Q332.5781,159.375 334.0625,159.375 Q334.9609,159.375 335.7422,159.6875 Q336.5234,160 337.1875,160.625 Z " fill="#000000"/><text fill="#000000" font-family="sans-serif" font-size="15" lengthAdjust="spacing" textLength="165" x="360.3125" y="171.1377">CreateClinicalController</text><line style="stroke:#A80036;stroke-width:1.875;" x1="185.625" x2="659.375" y1="185" y2="185"/><line style="stroke:#A80036;stroke-width:1.25;" x1="185.625" x2="659.375" y1="195" y2="195"/><ellipse cx="198.125" cy="208.75" fill="#84BE84" rx="3.75" ry="3.75" style="stroke:#038048;stroke-width:1.25;"/><text fill="#000000" font-family="sans-serif" font-size="13.75" lengthAdjust="spacing" textLength="443.75" x="209.375" y="214.2737">createClinical(idLaboratory, name, address, phoneNumber, tin, testTypes)</text><ellipse cx="198.125" cy="226.0449" fill="#84BE84" rx="3.75" ry="3.75" style="stroke:#038048;stroke-width:1.25;"/><text fill="#000000" font-family="sans-serif" font-size="13.75" lengthAdjust="spacing" textLength="81.25" x="209.375" y="231.5686">saveClinical()</text><!--MD5=[e97765950caee6ae0ccb509cbd7f1787]
class ClinicalStore--><rect codeLine="12" fill="#FEFECE" filter="url(#fnzq9lpfodx73)" height="94.5898" id="ClinicalStore" style="stroke:#A80036;stroke-width:1.875;" width="146.25" x="229.375" y="976.25"/><ellipse cx="256.5625" cy="996.25" fill="#ADD1B2" rx="13.75" ry="13.75" style="stroke:#A80036;stroke-width:1.25;"/><path d="M259.0625,991.875 Q259.3164,991.25 259.6094,990.9375 Q259.9023,990.625 260.2344,990.625 Q260.8203,990.625 261.1914,990.9766 Q261.5625,991.3281 261.5625,992.1484 L261.5625,994.1016 Q261.5625,994.9219 261.2109,995.2734 Q260.8594,995.625 260.3125,995.625 Q259.8242,995.625 259.5117,995.4102 Q259.1992,995.1953 259.0625,994.6289 Q259.0039,994.2383 258.7891,994.0234 Q258.3984,993.6133 257.6953,993.3789 Q256.9922,993.125 256.2891,993.125 Q255.4102,993.125 254.668,993.4766 Q253.9453,993.8281 253.3789,994.6094 Q252.8125,995.3906 252.8125,996.4648 L252.8125,997.6172 Q252.8125,998.9063 253.8672,999.7656 Q254.9219,1000.625 256.7969,1000.625 Q257.9102,1000.625 258.6914,1000.3711 Q259.1406,1000.2344 259.6484,999.7852 Q259.9805,999.5313 260.1563,999.4531 Q260.332,999.375 260.5469,999.375 Q260.957,999.375 261.25,999.707 Q261.5625,1000.0195 261.5625,1000.4688 Q261.5625,1000.8984 261.1328,1001.4063 Q260.5078,1002.1484 259.5117,1002.5586 Q258.2031,1003.125 256.6016,1003.125 Q254.7266,1003.125 253.2227,1002.3828 Q252.0117,1001.7969 251.1523,1000.5273 Q250.3125,999.2578 250.3125,997.7539 L250.3125,996.3867 Q250.3125,994.8242 251.0547,993.457 Q251.8164,992.0898 253.125,991.3672 Q254.4531,990.625 255.9375,990.625 Q256.8359,990.625 257.6172,990.9375 Q258.3984,991.25 259.0625,991.875 Z " fill="#000000"/><text fill="#000000" font-family="sans-serif" font-size="15" lengthAdjust="spacing" textLength="87.5" x="275.9375" y="1002.3877">ClinicalStore</text><line style="stroke:#A80036;stroke-width:1.875;" x1="230.625" x2="374.375" y1="1016.25" y2="1016.25"/><line style="stroke:#A80036;stroke-width:1.25;" x1="230.625" x2="374.375" y1="1026.25" y2="1026.25"/><ellipse cx="243.125" cy="1040" fill="#84BE84" rx="3.75" ry="3.75" style="stroke:#038048;stroke-width:1.25;"/><text fill="#000000" font-family="sans-serif" font-size="13.75" lengthAdjust="spacing" textLength="77.5" x="254.375" y="1045.5237">getClinicals()</text><ellipse cx="243.125" cy="1057.2949" fill="#84BE84" rx="3.75" ry="3.75" style="stroke:#038048;stroke-width:1.25;"/><text fill="#000000" font-family="sans-serif" font-size="13.75" lengthAdjust="spacing" textLength="113.75" x="254.375" y="1062.8186">addClinical(clinical)</text><!--MD5=[6ba72ddf03822b91e8d41ca71de58ed3]
class TestTypeStore--><rect codeLine="18" fill="#FEFECE" filter="url(#fnzq9lpfodx73)" height="94.5898" id="TestTypeStore" style="stroke:#A80036;stroke-width:1.875;" width="138.75" x="419.375" y="976.25"/><ellipse cx="438.125" cy="996.25" fill="#ADD1B2" rx="13.75" ry="13.75" style="stroke:#A80036;stroke-width:1.25;"/><path d="M440.625,991.875 Q440.8789,991.25 441.1719,990.9375 Q441.4648,990.625 441.7969,990.625 Q442.3828,990.625 442.7539,990.9766 Q443.125,991.3281 443.125,992.1484 L443.125,994.1016 Q443.125,994.9219 442.7734,995.2734 Q442.4219,995.625 441.875,995.625 Q441.3867,995.625 441.0742,995.4102 Q440.7617,995.1953 440.625,994.6289 Q440.5664,994.2383 440.3516,994.0234 Q439.9609,993.6133 439.2578,993.3789 Q438.5547,993.125 437.8516,993.125 Q436.9727,993.125 436.2305,993.4766 Q435.5078,993.8281 434.9414,994.6094 Q434.375,995.3906 434.375,996.4648 L434.375,997.6172 Q434.375,998.9063 435.4297,999.7656 Q436.4844,1000.625 438.3594,1000.625 Q439.4727,1000.625 440.2539,1000.3711 Q440.7031,1000.2344 441.2109,999.7852 Q441.543,999.5313 441.7188,999.4531 Q441.8945,999.375 442.1094,999.375 Q442.5195,999.375 442.8125,999.707 Q443.125,1000.0195 443.125,1000.4688 Q443.125,1000.8984 442.6953,1001.4063 Q442.0703,1002.1484 441.0742,1002.5586 Q439.7656,1003.125 438.1641,1003.125 Q436.2891,1003.125 434.7852,1002.3828 Q433.5742,1001.7969 432.7148,1000.5273 Q431.875,999.2578 431.875,997.7539 L431.875,996.3867 Q431.875,994.8242 432.6172,993.457 Q433.3789,992.0898 434.6875,991.3672 Q436.0156,990.625 437.5,990.625 Q438.3984,990.625 439.1797,990.9375 Q439.9609,991.25 440.625,991.875 Z " fill="#000000"/><text fill="#000000" font-family="sans-serif" font-size="15" lengthAdjust="spacing" textLength="98.75" x="455.625" y="1002.3877">TestTypeStore</text><line style="stroke:#A80036;stroke-width:1.875;" x1="420.625" x2="556.875" y1="1016.25" y2="1016.25"/><line style="stroke:#A80036;stroke-width:1.25;" x1="420.625" x2="556.875" y1="1026.25" y2="1026.25"/><ellipse cx="433.125" cy="1040" fill="#84BE84" rx="3.75" ry="3.75" style="stroke:#038048;stroke-width:1.25;"/><text fill="#000000" font-family="sans-serif" font-size="13.75" lengthAdjust="spacing" textLength="92.5" x="444.375" y="1045.5237">getTestTypes()</text><ellipse cx="433.125" cy="1057.2949" fill="#84BE84" rx="3.75" ry="3.75" style="stroke:#038048;stroke-width:1.25;"/><text fill="#000000" font-family="sans-serif" font-size="13.75" lengthAdjust="spacing" textLength="103.75" x="444.375" y="1062.8186">addTestTypes(tt)</text><!--MD5=[7421f545a0d8420c5bec41e74b387d9c]
class Employee--><rect codeLine="24" fill="#FEFECE" filter="url(#fnzq9lpfodx73)" height="181.0645" id="Employee" style="stroke:#A80036;stroke-width:1.875;" width="155" x="8.75" y="526.25"/><ellipse cx="48.3125" cy="546.25" fill="#ADD1B2" rx="13.75" ry="13.75" style="stroke:#A80036;stroke-width:1.25;"/><path d="M50.8125,541.875 Q51.0664,541.25 51.3594,540.9375 Q51.6523,540.625 51.9844,540.625 Q52.5703,540.625 52.9414,540.9766 Q53.3125,541.3281 53.3125,542.1484 L53.3125,544.1016 Q53.3125,544.9219 52.9609,545.2734 Q52.6094,545.625 52.0625,545.625 Q51.5742,545.625 51.2617,545.4102 Q50.9492,545.1953 50.8125,544.6289 Q50.7539,544.2383 50.5391,544.0234 Q50.1484,543.6133 49.4453,543.3789 Q48.7422,543.125 48.0391,543.125 Q47.1602,543.125 46.418,543.4766 Q45.6953,543.8281 45.1289,544.6094 Q44.5625,545.3906 44.5625,546.4648 L44.5625,547.6172 Q44.5625,548.9063 45.6172,549.7656 Q46.6719,550.625 48.5469,550.625 Q49.6602,550.625 50.4414,550.3711 Q50.8906,550.2344 51.3984,549.7852 Q51.7305,549.5313 51.9063,549.4531 Q52.082,549.375 52.2969,549.375 Q52.707,549.375 53,549.707 Q53.3125,550.0195 53.3125,550.4688 Q53.3125,550.8984 52.8828,551.4063 Q52.2578,552.1484 51.2617,552.5586 Q49.9531,553.125 48.3516,553.125 Q46.4766,553.125 44.9727,552.3828 Q43.7617,551.7969 42.9023,550.5273 Q42.0625,549.2578 42.0625,547.7539 L42.0625,546.3867 Q42.0625,544.8242 42.8047,543.457 Q43.5664,542.0898 44.875,541.3672 Q46.2031,540.625 47.6875,540.625 Q48.5859,540.625 49.3672,540.9375 Q50.1484,541.25 50.8125,541.875 Z " fill="#000000"/><text fill="#000000" font-family="sans-serif" font-size="15" lengthAdjust="spacing" textLength="68.75" x="70.4375" y="552.3877">Employee</text><line style="stroke:#A80036;stroke-width:1.875;" x1="10" x2="162.5" y1="566.25" y2="566.25"/><rect fill="none" height="7.5" style="stroke:#C82930;stroke-width:1.25;" width="7.5" x="18.75" y="576.25"/><text fill="#000000" font-family="sans-serif" font-size="13.75" lengthAdjust="spacing" textLength="106.25" x="33.75" y="585.5237">String idEmployee</text><rect fill="none" height="7.5" style="stroke:#C82930;stroke-width:1.25;" width="7.5" x="18.75" y="593.5449"/><text fill="#000000" font-family="sans-serif" font-size="13.75" lengthAdjust="spacing" textLength="71.25" x="33.75" y="602.8186">String name</text><rect fill="none" height="7.5" style="stroke:#C82930;stroke-width:1.25;" width="7.5" x="18.75" y="610.8398"/><text fill="#000000" font-family="sans-serif" font-size="13.75" lengthAdjust="spacing" textLength="87.5" x="33.75" y="620.1135">String function</text><rect fill="none" height="7.5" style="stroke:#C82930;stroke-width:1.25;" width="7.5" x="18.75" y="628.1348"/><text fill="#000000" font-family="sans-serif" font-size="13.75" lengthAdjust="spacing" textLength="122.5" x="33.75" y="637.4084">String phoneNumber</text><rect fill="none" height="7.5" style="stroke:#C82930;stroke-width:1.25;" width="7.5" x="18.75" y="645.4297"/><text fill="#000000" font-family="sans-serif" font-size="13.75" lengthAdjust="spacing" textLength="68.75" x="33.75" y="654.7034">String email</text><rect fill="none" height="7.5" style="stroke:#C82930;stroke-width:1.25;" width="7.5" x="18.75" y="662.7246"/><text fill="#000000" font-family="sans-serif" font-size="13.75" lengthAdjust="spacing" textLength="88.75" x="33.75" y="671.9983">String address</text><rect fill="none" height="7.5" style="stroke:#C82930;stroke-width:1.25;" width="7.5" x="18.75" y="680.0195"/><text fill="#000000" font-family="sans-serif" font-size="13.75" lengthAdjust="spacing" textLength="61.25" x="33.75" y="689.2932">String soc</text><line style="stroke:#A80036;stroke-width:1.875;" x1="10" x2="162.5" y1="697.3145" y2="697.3145"/><!--MD5=[da547346deef918ea16944ba046651ef]
class Administrator--><rect codeLine="34" fill="#FEFECE" filter="url(#fnzq9lpfodx73)" height="111.8848" id="Administrator" style="stroke:#A80036;stroke-width:1.875;" width="476.25" x="184.375" y="316.25"/><ellipse cx="371.5625" cy="336.25" fill="#ADD1B2" rx="13.75" ry="13.75" style="stroke:#A80036;stroke-width:1.25;"/><path d="M374.0625,331.875 Q374.3164,331.25 374.6094,330.9375 Q374.9023,330.625 375.2344,330.625 Q375.8203,330.625 376.1914,330.9766 Q376.5625,331.3281 376.5625,332.1484 L376.5625,334.1016 Q376.5625,334.9219 376.2109,335.2734 Q375.8594,335.625 375.3125,335.625 Q374.8242,335.625 374.5117,335.4102 Q374.1992,335.1953 374.0625,334.6289 Q374.0039,334.2383 373.7891,334.0234 Q373.3984,333.6133 372.6953,333.3789 Q371.9922,333.125 371.2891,333.125 Q370.4102,333.125 369.668,333.4766 Q368.9453,333.8281 368.3789,334.6094 Q367.8125,335.3906 367.8125,336.4648 L367.8125,337.6172 Q367.8125,338.9063 368.8672,339.7656 Q369.9219,340.625 371.7969,340.625 Q372.9102,340.625 373.6914,340.3711 Q374.1406,340.2344 374.6484,339.7852 Q374.9805,339.5313 375.1563,339.4531 Q375.332,339.375 375.5469,339.375 Q375.957,339.375 376.25,339.707 Q376.5625,340.0195 376.5625,340.4688 Q376.5625,340.8984 376.1328,341.4063 Q375.5078,342.1484 374.5117,342.5586 Q373.2031,343.125 371.6016,343.125 Q369.7266,343.125 368.2227,342.3828 Q367.0117,341.7969 366.1523,340.5273 Q365.3125,339.2578 365.3125,337.7539 L365.3125,336.3867 Q365.3125,334.8242 366.0547,333.457 Q366.8164,332.0898 368.125,331.3672 Q369.4531,330.625 370.9375,330.625 Q371.8359,330.625 372.6172,330.9375 Q373.3984,331.25 374.0625,331.875 Z " fill="#000000"/><text fill="#000000" font-family="sans-serif" font-size="15" lengthAdjust="spacing" textLength="91.25" x="397.1875" y="342.3877">Administrator</text><line style="stroke:#A80036;stroke-width:1.875;" x1="185.625" x2="659.375" y1="356.25" y2="356.25"/><line style="stroke:#A80036;stroke-width:1.25;" x1="185.625" x2="659.375" y1="366.25" y2="366.25"/><ellipse cx="198.125" cy="380" fill="#84BE84" rx="3.75" ry="3.75" style="stroke:#038048;stroke-width:1.25;"/><text fill="#000000" font-family="sans-serif" font-size="13.75" lengthAdjust="spacing" textLength="443.75" x="209.375" y="385.5237">createClinical(idLaboratory, name, address, phoneNumber, tin, testTypes)</text><ellipse cx="198.125" cy="397.2949" fill="#84BE84" rx="3.75" ry="3.75" style="stroke:#038048;stroke-width:1.25;"/><text fill="#000000" font-family="sans-serif" font-size="13.75" lengthAdjust="spacing" textLength="121.25" x="209.375" y="402.8186">saveClinical(clinical)</text><rect fill="#F24D5C" height="7.5" style="stroke:#C82930;stroke-width:1.25;" width="7.5" x="194.375" y="410.8398"/><text fill="#000000" font-family="sans-serif" font-size="13.75" lengthAdjust="spacing" textLength="96.25" x="209.375" y="420.1135">validate(clinical)</text><!--MD5=[96202ef17f5bbcc002205d45165b7578]
class Clinical--><rect codeLine="42" fill="#FEFECE" filter="url(#fnzq9lpfodx73)" height="181.0645" id="Clinical" style="stroke:#A80036;stroke-width:1.875;" width="428.75" x="208.125" y="526.25"/><ellipse cx="391.5625" cy="546.25" fill="#ADD1B2" rx="13.75" ry="13.75" style="stroke:#A80036;stroke-width:1.25;"/><path d="M394.0625,541.875 Q394.3164,541.25 394.6094,540.9375 Q394.9023,540.625 395.2344,540.625 Q395.8203,540.625 396.1914,540.9766 Q396.5625,541.3281 396.5625,542.1484 L396.5625,544.1016 Q396.5625,544.9219 396.2109,545.2734 Q395.8594,545.625 395.3125,545.625 Q394.8242,545.625 394.5117,545.4102 Q394.1992,545.1953 394.0625,544.6289 Q394.0039,544.2383 393.7891,544.0234 Q393.3984,543.6133 392.6953,543.3789 Q391.9922,543.125 391.2891,543.125 Q390.4102,543.125 389.668,543.4766 Q388.9453,543.8281 388.3789,544.6094 Q387.8125,545.3906 387.8125,546.4648 L387.8125,547.6172 Q387.8125,548.9063 388.8672,549.7656 Q389.9219,550.625 391.7969,550.625 Q392.9102,550.625 393.6914,550.3711 Q394.1406,550.2344 394.6484,549.7852 Q394.9805,549.5313 395.1563,549.4531 Q395.332,549.375 395.5469,549.375 Q395.957,549.375 396.25,549.707 Q396.5625,550.0195 396.5625,550.4688 Q396.5625,550.8984 396.1328,551.4063 Q395.5078,552.1484 394.5117,552.5586 Q393.2031,553.125 391.6016,553.125 Q389.7266,553.125 388.2227,552.3828 Q387.0117,551.7969 386.1523,550.5273 Q385.3125,549.2578 385.3125,547.7539 L385.3125,546.3867 Q385.3125,544.8242 386.0547,543.457 Q386.8164,542.0898 388.125,541.3672 Q389.4531,540.625 390.9375,540.625 Q391.8359,540.625 392.6172,540.9375 Q393.3984,541.25 394.0625,541.875 Z " fill="#000000"/><text fill="#000000" font-family="sans-serif" font-size="15" lengthAdjust="spacing" textLength="51.25" x="417.1875" y="552.3877">Clinical</text><line style="stroke:#A80036;stroke-width:1.875;" x1="209.375" x2="635.625" y1="566.25" y2="566.25"/><rect fill="none" height="7.5" style="stroke:#C82930;stroke-width:1.25;" width="7.5" x="218.125" y="576.25"/><text fill="#000000" font-family="sans-serif" font-size="13.75" lengthAdjust="spacing" textLength="115" x="233.125" y="585.5237">String idLaboratory</text><rect fill="none" height="7.5" style="stroke:#C82930;stroke-width:1.25;" width="7.5" x="218.125" y="593.5449"/><text fill="#000000" font-family="sans-serif" font-size="13.75" lengthAdjust="spacing" textLength="71.25" x="233.125" y="602.8186">String name</text><rect fill="none" height="7.5" style="stroke:#C82930;stroke-width:1.25;" width="7.5" x="218.125" y="610.8398"/><text fill="#000000" font-family="sans-serif" font-size="13.75" lengthAdjust="spacing" textLength="88.75" x="233.125" y="620.1135">String address</text><rect fill="none" height="7.5" style="stroke:#C82930;stroke-width:1.25;" width="7.5" x="218.125" y="628.1348"/><text fill="#000000" font-family="sans-serif" font-size="13.75" lengthAdjust="spacing" textLength="122.5" x="233.125" y="637.4084">String phoneNumber</text><rect fill="none" height="7.5" style="stroke:#C82930;stroke-width:1.25;" width="7.5" x="218.125" y="645.4297"/><text fill="#000000" font-family="sans-serif" font-size="13.75" lengthAdjust="spacing" textLength="52.5" x="233.125" y="654.7034">String tin</text><rect fill="none" height="7.5" style="stroke:#C82930;stroke-width:1.25;" width="7.5" x="218.125" y="662.7246"/><text fill="#000000" font-family="sans-serif" font-size="13.75" lengthAdjust="spacing" textLength="106.25" x="233.125" y="671.9983">String[] testTypes</text><line style="stroke:#A80036;stroke-width:1.25;" x1="209.375" x2="635.625" y1="680.0195" y2="680.0195"/><ellipse cx="221.875" cy="693.7695" fill="#84BE84" rx="3.75" ry="3.75" style="stroke:#038048;stroke-width:1.25;"/><text fill="#000000" font-family="sans-serif" font-size="13.75" lengthAdjust="spacing" textLength="396.25" x="233.125" y="699.2932">Client(idLaboratory, name, address, phoneNumber, tin, testTypes)</text><!--MD5=[99b8db98afdc2c8404e39242ef4c1e65]
class Platform--><rect codeLine="53" fill="#FEFECE" filter="url(#fnzq9lpfodx73)" height="94.5898" id="Platform" style="stroke:#A80036;stroke-width:1.875;" width="146.25" x="321.875" y="805"/><ellipse cx="362.5625" cy="825" fill="#ADD1B2" rx="13.75" ry="13.75" style="stroke:#A80036;stroke-width:1.25;"/><path d="M365.0625,820.625 Q365.3164,820 365.6094,819.6875 Q365.9023,819.375 366.2344,819.375 Q366.8203,819.375 367.1914,819.7266 Q367.5625,820.0781 367.5625,820.8984 L367.5625,822.8516 Q367.5625,823.6719 367.2109,824.0234 Q366.8594,824.375 366.3125,824.375 Q365.8242,824.375 365.5117,824.1602 Q365.1992,823.9453 365.0625,823.3789 Q365.0039,822.9883 364.7891,822.7734 Q364.3984,822.3633 363.6953,822.1289 Q362.9922,821.875 362.2891,821.875 Q361.4102,821.875 360.668,822.2266 Q359.9453,822.5781 359.3789,823.3594 Q358.8125,824.1406 358.8125,825.2148 L358.8125,826.3672 Q358.8125,827.6563 359.8672,828.5156 Q360.9219,829.375 362.7969,829.375 Q363.9102,829.375 364.6914,829.1211 Q365.1406,828.9844 365.6484,828.5352 Q365.9805,828.2813 366.1563,828.2031 Q366.332,828.125 366.5469,828.125 Q366.957,828.125 367.25,828.457 Q367.5625,828.7695 367.5625,829.2188 Q367.5625,829.6484 367.1328,830.1563 Q366.5078,830.8984 365.5117,831.3086 Q364.2031,831.875 362.6016,831.875 Q360.7266,831.875 359.2227,831.1328 Q358.0117,830.5469 357.1523,829.2773 Q356.3125,828.0078 356.3125,826.5039 L356.3125,825.1367 Q356.3125,823.5742 357.0547,822.207 Q357.8164,820.8398 359.125,820.1172 Q360.4531,819.375 361.9375,819.375 Q362.8359,819.375 363.6172,819.6875 Q364.3984,820 365.0625,820.625 Z " fill="#000000"/><text fill="#000000" font-family="sans-serif" font-size="15" lengthAdjust="spacing" textLength="57.5" x="384.9375" y="831.1377">Platform</text><line style="stroke:#A80036;stroke-width:1.875;" x1="323.125" x2="466.875" y1="845" y2="845"/><line style="stroke:#A80036;stroke-width:1.25;" x1="323.125" x2="466.875" y1="855" y2="855"/><ellipse cx="335.625" cy="868.75" fill="#84BE84" rx="3.75" ry="3.75" style="stroke:#038048;stroke-width:1.25;"/><text fill="#000000" font-family="sans-serif" font-size="13.75" lengthAdjust="spacing" textLength="77.5" x="346.875" y="874.2737">getClinicals()</text><ellipse cx="335.625" cy="886.0449" fill="#84BE84" rx="3.75" ry="3.75" style="stroke:#038048;stroke-width:1.25;"/><text fill="#000000" font-family="sans-serif" font-size="13.75" lengthAdjust="spacing" textLength="113.75" x="346.875" y="891.5686">addClinical(clinical)</text><!--MD5=[31f0063c39676327f5b14a92be929515]
link ClinicalCreatorUI to CreateClinicalController--><path codeLine="59" d="M422.5,68.8 C422.5,88.3875 422.5,114.8875 422.5,138.225 " fill="none" id="ClinicalCreatorUI-to-CreateClinicalController" style="stroke:#A80036;stroke-width:1.25;stroke-dasharray:7.0,7.0;"/><polygon fill="#A80036" points="422.5,144.7125,427.5,133.4625,422.5,138.4625,417.5,133.4625,422.5,144.7125" style="stroke:#A80036;stroke-width:1.25;"/><!--MD5=[e27f2651652633388d7f75cc62903f12]
link CreateClinicalController to Administrator--><path codeLine="60" d="M422.5,240.3875 C422.5,261.6 422.5,287 422.5,309.7625 " fill="none" id="CreateClinicalController-to-Administrator" style="stroke:#A80036;stroke-width:1.25;stroke-dasharray:7.0,7.0;"/><polygon fill="#A80036" points="422.5,316.1,427.5,304.85,422.5,309.85,417.5,304.85,422.5,316.1" style="stroke:#A80036;stroke-width:1.25;"/><!--MD5=[020250475aebc24ba5d0c773fd881bc9]
link Administrator to Platform--><path codeLine="61" d="M556.4875,429.0375 C596.6875,452.7 636.1,484.6625 658.75,526.25 C697.2875,596.9875 699.8875,638.2375 658.75,707.5 C619.2375,774.0375 536.9,811.7375 474.6625,831.675 " fill="none" id="Administrator-to-Platform" style="stroke:#A80036;stroke-width:1.25;stroke-dasharray:7.0,7.0;"/><polygon fill="#A80036" points="468.325,833.675,480.5567,835.071,474.2873,831.8006,477.5577,825.5313,468.325,833.675" style="stroke:#A80036;stroke-width:1.25;"/><!--MD5=[4c3fecb6841db1b51bed0c377266334e]
link Platform to ClinicalStore--><path codeLine="62" d="M369.475,900.3125 C357.55,922.075 343.3,948.075 331.0125,970.475 " fill="none" id="Platform-to-ClinicalStore" style="stroke:#A80036;stroke-width:1.25;stroke-dasharray:7.0,7.0;"/><polygon fill="#A80036" points="327.9375,976.0875,337.7243,968.6188,330.9378,970.6048,328.9519,963.8183,327.9375,976.0875" style="stroke:#A80036;stroke-width:1.25;"/><!--MD5=[c65aa41778d73187c7ea7a76098d9205]
link Platform to TestTypeStore--><path codeLine="63" d="M420.8625,900.3125 C432.9625,922.075 447.4,948.075 459.85,970.475 " fill="none" id="Platform-to-TestTypeStore" style="stroke:#A80036;stroke-width:1.25;stroke-dasharray:7.0,7.0;"/><polygon fill="#A80036" points="462.9625,976.0875,461.8698,963.825,459.9272,970.624,453.1282,968.6814,462.9625,976.0875" style="stroke:#A80036;stroke-width:1.25;"/><!--MD5=[8f7dd94d56b58fc07b233ccd3dd98f8c]
link Administrator to Employee--><path codeLine="64" d="M329.9375,428.825 C285.3875,456.5 231.875,491.475 186.25,526.25 C185.325,526.95 184.4,527.6625 183.4625,528.3875 " fill="none" id="Administrator-to-Employee" style="stroke:#A80036;stroke-width:1.25;"/><polygon fill="none" points="188.825,535.3,163.8625,544.175,177.85,521.675,188.825,535.3" style="stroke:#A80036;stroke-width:1.25;"/><text fill="#000000" font-family="sans-serif" font-size="16.25" lengthAdjust="spacing" textLength="12.5" x="270" y="484.3689">is</text><text fill="#000000" font-family="sans-serif" font-size="16.25" lengthAdjust="spacing" textLength="8.75" x="307.5557" y="455.095">1</text><text fill="#000000" font-family="sans-serif" font-size="16.25" lengthAdjust="spacing" textLength="8.75" x="173.8547" y="531.0029">1</text><!--MD5=[b482d663aae385f5ae82dde2f71259c6]
link Employee to Platform--><path codeLine="65" d="M164.05,689.3375 C171.45,695.6 178.925,701.75 186.25,707.5 C230.1875,742.0375 281.9,777.6875 322.875,804.8375 " fill="none" id="Employee-Platform" style="stroke:#A80036;stroke-width:1.25;"/><polygon fill="#000000" points="276.3047,760.1456,269.3213,750.5248,265,756.467,276.3047,760.1456" style="stroke:#000000;stroke-width:1.25;"/><text fill="#000000" font-family="sans-serif" font-size="16.25" lengthAdjust="spacing" textLength="35" x="282.5" y="763.1189">uses</text><text fill="#000000" font-family="sans-serif" font-size="16.25" lengthAdjust="spacing" textLength="6.25" x="173.9127" y="693.8571">*</text><text fill="#000000" font-family="sans-serif" font-size="16.25" lengthAdjust="spacing" textLength="8.75" x="302.8891" y="793.2996">1</text><!--MD5=[171a14a010b85463ae72d83a61297da9]
link Administrator to Clinical--><path codeLine="66" d="M422.5,429.2375 C422.5,457.8375 422.5,493.4125 422.5,525.7875 " fill="none" id="Administrator-Clinical" style="stroke:#A80036;stroke-width:1.25;"/><text fill="#000000" font-family="sans-serif" font-size="16.25" lengthAdjust="spacing" textLength="53.75" x="423.75" y="484.3689">register</text><text fill="#000000" font-family="sans-serif" font-size="16.25" lengthAdjust="spacing" textLength="8.75" x="413.1621" y="455.1451">1</text><text fill="#000000" font-family="sans-serif" font-size="16.25" lengthAdjust="spacing" textLength="6.25" x="415.9424" y="512.7364">*</text><!--MD5=[e3174acf27cedfc0868b5ffb6c22421f]
@startuml

class ClinicalCreatorUI{

}

class CreateClinicalController{
    - -
    +createClinical(idLaboratory, name, address, phoneNumber, tin, testTypes)
    +saveClinical()
}

class ClinicalStore{
    - -
    +getClinicals()
    +addClinical(clinical)
}

class TestTypeStore{
    - -
    +getTestTypes()
    +addTestTypes(tt)
}

class Employee{
    -String idEmployee
    -String name
    -String function
    -String phoneNumber
    -String email
    -String address
    -String soc
}

class Administrator {
    - -
    +createClinical(idLaboratory, name, address, phoneNumber, tin, testTypes)
    +saveClinical(clinical)
    -validate(clinical)
}


class Clinical {
    -String idLaboratory
    -String name
    -String address
    -String phoneNumber
    -String tin
    -String[] testTypes
    - -
    +Client(idLaboratory, name, address, phoneNumber, tin, testTypes)
}

class Platform{
    - -
    +getClinicals()
    +addClinical(clinical)
}

ClinicalCreatorUI ..> CreateClinicalController
CreateClinicalController ..> Administrator
Administrator ..> Platform
Platform ..> ClinicalStore
Platform ..> TestTypeStore
Administrator "1" - -|> "1" Employee : is
Employee "*" - - "1" Platform : uses >
Administrator "1" - - "*" Clinical : register



@enduml

PlantUML version 1.2021.2(Sun Mar 07 11:10:27 GMT 2021)
(GPL source distribution)
Java Runtime: OpenJDK Runtime Environment
JVM: OpenJDK 64-Bit Server VM
Default Encoding: Cp1252
Language: pt
Country: PT
--></g></svg>