<?xml version="1.0" standalone="no"?>
<!DOCTYPE svg PUBLIC "-//W3C//DTD SVG 20010904//EN"
 "http://www.w3.org/TR/2001/REC-SVG-20010904/DTD/svg10.dtd">
<svg version="1.0" xmlns="http://www.w3.org/2000/svg"
 width="1920.000000pt" height="1080.000000pt" viewBox="0 0 1920.000000 1080.000000"
 preserveAspectRatio="xMidYMid meet">

<g transform="translate(0.000000,1080.000000) scale(0.100000,-0.100000)"
fill="#000000" stroke="none">
<path d="M6910 9956 l0 -663 -972 -278 c-535 -153 -987 -282 -1004 -286 -17
-5 -72 -48 -126 -99 -53 -49 -101 -90 -107 -90 -6 0 -45 10 -86 22 l-75 22 0
43 c0 37 3 43 20 43 67 0 154 87 166 166 18 120 -79 234 -197 234 -142 0 -240
-151 -185 -283 15 -38 77 -95 118 -109 26 -9 28 -14 28 -65 0 -53 -3 -58 -95
-185 -73 -101 -92 -134 -84 -145 6 -7 15 -13 19 -13 5 0 43 48 85 106 43 58
78 104 79 102 0 -2 0 -138 -2 -303 l-3 -300 -75 -95 c-137 -171 -130 -159
-108 -174 16 -12 26 -4 107 98 49 61 93 112 97 114 5 2 57 -40 116 -92 59 -53
110 -96 114 -96 4 0 13 6 19 14 10 12 -9 33 -103 117 l-116 103 0 339 c0 283
2 338 14 334 7 -3 46 -15 86 -27 l72 -22 37 34 c20 18 63 58 96 89 l60 57 985
281 c542 155 993 284 1003 287 16 5 17 -75 17 -1588 l0 -1594 -995 4 c-793 4
-995 2 -995 -8 0 -9 -3 -10 -14 -1 -10 9 -32 -7 -104 -74 -49 -47 -95 -85
-101 -85 -6 0 -45 10 -86 22 l-75 22 0 43 c0 37 3 43 20 43 67 0 154 87 166
166 18 120 -79 234 -197 234 -142 0 -240 -151 -185 -283 15 -38 77 -95 118
-109 26 -9 28 -14 28 -65 0 -53 -3 -58 -95 -185 -73 -101 -92 -134 -84 -145 6
-7 15 -13 19 -13 5 0 43 48 85 106 43 58 78 104 79 102 0 -2 0 -138 -2 -303
l-3 -300 -75 -95 c-137 -171 -130 -159 -108 -174 16 -12 26 -4 107 98 49 61
93 112 97 114 5 2 57 -40 116 -92 59 -53 110 -96 114 -96 4 0 13 6 19 14 10
12 -9 33 -103 117 l-116 103 0 339 c0 283 2 338 14 334 7 -3 46 -15 86 -27
l72 -22 37 34 c20 18 66 62 104 98 37 35 67 59 67 52 0 -9 168 -12 763 -12
419 0 867 -3 995 -7 l232 -6 0 -1223 0 -1222 -82 -6 c-46 -3 -441 -19 -878
-36 -437 -16 -848 -33 -912 -36 -117 -7 -118 -7 -118 -31 l0 -25 123 6 c67 4
471 20 897 36 426 16 819 32 873 35 l97 6 -2 -1621 -3 -1620 3012 0 3013 0 2
726 3 727 993 435 c545 240 992 439 992 442 0 3 -6 13 -12 22 -12 15 -119 -30
-988 -412 -536 -236 -978 -429 -982 -430 -5 0 -8 354 -8 788 l0 787 971 735
c535 404 982 742 995 750 14 8 24 24 24 37 0 21 -5 23 -52 23 -29 0 -453 -7
-943 -15 -489 -8 -914 -15 -942 -15 l-53 0 0 1150 0 1150 93 0 c50 0 488 -11
972 -25 484 -14 890 -25 903 -25 17 0 22 6 22 25 0 17 -6 25 -17 25 -10 0
-416 11 -903 25 -487 14 -927 25 -978 25 l-92 0 2 806 3 806 989 279 c544 154
991 280 992 282 2 2 1 13 -3 25 -3 15 -11 21 -22 18 -9 -3 -441 -125 -961
-271 -520 -146 -958 -270 -973 -275 l-28 -9 3 874 3 875 -3012 0 -3013 0 0
-664z m5960 -243 l0 -858 -623 -174 c-342 -96 -628 -177 -634 -179 -7 -2 -15
4 -19 14 -61 199 -295 349 -710 455 -151 38 -459 89 -541 89 -24 0 -43 5 -43
10 0 6 19 10 43 10 82 0 390 51 541 89 298 76 503 175 618 298 71 77 92 125
92 208 0 83 -21 131 -92 208 -307 328 -1304 491 -2210 361 -525 -75 -902 -244
-1013 -455 -33 -62 -33 -166 0 -228 87 -165 321 -298 687 -392 151 -38 459
-89 542 -89 23 0 42 -4 42 -10 0 -5 -19 -10 -42 -10 -83 0 -391 -51 -542 -89
-366 -94 -600 -227 -687 -392 -33 -62 -33 -166 0 -228 128 -244 602 -426 1258
-485 l138 -12 -105 -7 c-175 -13 -442 -55 -604 -96 -366 -94 -600 -227 -687
-392 -33 -62 -33 -166 0 -228 87 -165 321 -298 687 -392 151 -38 459 -89 542
-89 23 0 42 -4 42 -10 0 -5 -19 -10 -42 -10 -83 0 -391 -51 -542 -89 -366 -94
-600 -227 -687 -392 -33 -62 -33 -166 0 -228 128 -244 602 -426 1258 -485
l138 -12 -105 -7 c-175 -13 -442 -55 -604 -96 -366 -94 -600 -227 -687 -392
-33 -62 -33 -166 0 -228 128 -244 602 -426 1258 -485 l138 -12 -105 -7 c-175
-13 -442 -55 -604 -96 -298 -76 -503 -175 -618 -298 -71 -77 -92 -125 -92
-208 0 -83 21 -131 92 -208 115 -123 320 -222 618 -298 151 -38 459 -89 542
-89 23 0 42 -4 42 -10 0 -5 -19 -10 -42 -10 -83 0 -391 -51 -542 -89 -366 -94
-600 -227 -687 -392 -33 -62 -33 -166 0 -228 87 -165 321 -298 687 -392 151
-38 459 -89 542 -89 23 0 42 -4 42 -10 0 -5 -19 -10 -42 -10 -83 0 -391 -51
-542 -89 -298 -76 -503 -175 -618 -298 -71 -77 -92 -125 -92 -208 0 -83 21
-131 92 -208 115 -123 320 -222 618 -298 813 -207 1965 -107 2434 211 68 46
141 123 171 181 33 62 33 166 0 228 -116 221 -501 387 -1079 466 -62 8 -131
15 -152 15 -22 0 -40 5 -40 10 0 6 19 10 43 10 82 0 390 51 541 89 366 94 600
227 687 392 33 62 33 166 0 228 -87 165 -321 298 -687 392 -151 38 -459 89
-541 89 -24 0 -43 5 -43 10 0 6 19 10 43 10 82 0 390 51 541 89 366 94 600
227 687 392 33 62 33 166 0 228 -128 244 -602 426 -1258 485 l-138 12 105 7
c371 26 770 121 1000 237 172 86 287 201 313 311 l7 27 337 6 c186 3 472 9
636 12 l297 6 0 -725 0 -724 -625 -473 c-344 -261 -628 -477 -630 -480 -3 -4
3 -14 13 -22 16 -14 68 23 627 447 l610 462 3 -776 c1 -426 -1 -778 -5 -782
-5 -4 -288 -130 -630 -280 -343 -150 -623 -276 -623 -279 0 -3 6 -13 13 -22
11 -15 78 13 625 253 337 148 615 269 617 269 3 0 5 -308 5 -685 l0 -685
-2950 0 -2950 0 0 1595 c0 877 1 1595 3 1595 1 0 279 11 617 25 338 14 621 25
628 25 6 0 12 11 12 25 0 14 -4 25 -9 25 -27 0 -1027 -40 -1128 -45 l-123 -7
0 1226 0 1226 630 0 630 0 0 25 0 25 -630 0 -630 0 0 1604 c0 1520 1 1605 18
1610 9 3 287 82 617 176 330 94 608 173 618 176 13 4 16 11 11 27 -3 12 -7 23
-9 24 -1 2 -1158 -327 -1235 -352 -20 -6 -20 -5 -20 624 l0 631 2950 0 2950 0
0 -857z m-2470 522 c702 -81 1170 -305 1170 -560 0 -220 -357 -424 -917 -524
-244 -44 -393 -55 -728 -55 -335 0 -484 11 -728 55 -560 100 -917 304 -917
524 0 186 263 367 690 475 197 50 378 77 700 104 104 9 603 -4 730 -19z m0
-1210 c702 -81 1170 -305 1170 -560 0 -220 -357 -424 -917 -524 -244 -44 -393
-55 -728 -55 -335 0 -484 11 -728 55 -560 100 -917 304 -917 524 0 186 263
367 690 475 197 50 378 77 700 104 104 9 603 -4 730 -19z m-5794 -11 c52 -25
78 -68 82 -139 5 -75 -21 -119 -91 -154 -65 -32 -123 -24 -178 26 -64 58 -75
136 -29 211 41 68 138 93 216 56z m8264 -1004 l0 -790 -112 0 c-62 0 -336 7
-608 15 -272 8 -507 15 -521 15 -23 0 -28 6 -34 37 -51 272 -557 492 -1282
557 l-138 12 105 7 c175 13 442 55 604 96 298 76 503 175 617 298 57 61 79
101 95 173 7 30 13 47 13 38 1 -10 2 -18 4 -18 1 0 279 79 617 174 338 96 621
175 628 175 9 1 12 -163 12 -789z m-2470 -205 c702 -81 1170 -305 1170 -560 0
-220 -357 -424 -917 -524 -244 -44 -393 -55 -728 -55 -335 0 -484 11 -728 55
-560 100 -917 304 -917 524 0 186 263 367 690 475 197 50 378 77 700 104 104
9 603 -4 730 -19z m1983 -627 l487 -12 0 -1152 0 -1152 -272 -6 c-150 -3 -436
-8 -635 -12 l-362 -6 -7 29 c-65 269 -565 483 -1281 547 l-138 12 105 7 c175
13 442 55 604 96 298 76 503 175 618 298 71 77 92 125 92 208 0 83 -21 131
-92 208 -115 123 -320 222 -618 298 -151 38 -459 89 -541 89 -24 0 -43 5 -43
10 0 6 19 10 43 10 82 0 390 51 541 89 298 76 503 175 618 298 48 52 88 120
88 149 0 16 13 16 153 11 83 -4 371 -12 640 -19z m-1983 -583 c702 -81 1170
-305 1170 -560 0 -220 -357 -424 -917 -524 -244 -44 -393 -55 -728 -55 -335 0
-484 11 -728 55 -560 100 -917 304 -917 524 0 186 263 367 690 475 197 50 378
77 700 104 104 9 603 -4 730 -19z m-5794 -231 c52 -25 78 -68 82 -139 5 -75
-21 -119 -91 -154 -65 -32 -123 -24 -178 26 -64 58 -75 136 -29 211 41 68 138
93 216 56z m5794 -989 c702 -81 1170 -305 1170 -560 0 -220 -357 -424 -917
-524 -244 -44 -393 -55 -728 -55 -335 0 -484 11 -728 55 -560 100 -917 304
-917 524 0 186 263 367 690 475 197 50 378 77 700 104 104 9 603 -4 730 -19z
m4279 -644 c-79 -61 -504 -382 -944 -715 l-800 -604 -3 695 c-1 383 -1 698 1
700 3 2 1247 25 1776 32 l114 1 -144 -109z m-4279 -576 c702 -81 1170 -305
1170 -560 0 -220 -357 -424 -917 -524 -244 -44 -393 -55 -728 -55 -335 0 -484
11 -728 55 -560 100 -917 304 -917 524 0 186 263 367 690 475 197 50 378 77
700 104 104 9 603 -4 730 -19z m0 -1210 c702 -81 1170 -305 1170 -560 0 -220
-357 -424 -917 -524 -244 -44 -393 -55 -728 -55 -335 0 -484 11 -728 55 -560
100 -917 304 -917 524 0 186 263 367 690 475 197 50 378 77 700 104 104 9 603
-4 730 -19z m0 -1210 c134 -15 312 -43 318 -50 9 -8 -11 -45 -24 -45 -8 0 -14
-7 -14 -15 0 -8 6 -15 14 -15 13 0 13 -4 -8 -122 -4 -19 -1 -28 8 -28 9 0 18
26 26 75 11 62 16 75 31 75 11 0 19 7 19 15 0 8 -7 15 -15 15 -17 0 -20 25 -5
35 5 3 63 -8 128 -24 430 -109 692 -290 692 -476 0 -298 -636 -548 -1479 -581
l-173 -7 24 24 c19 19 28 44 37 104 7 44 15 90 18 103 4 16 1 22 -11 22 -9 0
-16 -4 -16 -9 0 -5 -13 -4 -29 2 -40 15 -77 -10 -91 -62 -20 -74 24 -131 79
-102 18 10 20 9 14 -6 -3 -10 -10 -24 -16 -30 -12 -16 -59 -17 -74 -2 -7 7
-13 7 -17 1 -4 -6 4 -18 16 -27 22 -16 15 -17 -122 -10 -828 37 -1450 286
-1450 580 0 186 263 367 690 475 197 50 378 77 700 104 104 9 603 -4 730 -19z
m-442 -963 c6 -59 -42 -104 -76 -70 -33 33 1 111 46 106 22 -2 28 -9 30 -36z"/>
<path d="M10410 9862 c0 -5 -9 -58 -20 -118 -24 -130 -23 -124 -7 -124 9 0 19
37 31 113 11 61 21 118 24 125 2 6 -3 12 -12 12 -9 0 -16 -4 -16 -8z"/>
<path d="M8920 9853 c0 -10 -29 -181 -35 -210 -4 -16 -1 -23 9 -23 10 0 17 15
22 46 6 43 8 45 37 42 26 -3 33 -10 46 -45 8 -24 21 -43 28 -43 17 0 16 9 -3
55 -15 36 -14 37 10 60 34 32 36 87 4 109 -23 16 -118 23 -118 9z m108 -58 c4
-36 -18 -55 -66 -55 -31 0 -34 2 -28 23 3 12 6 32 6 45 0 21 4 23 43 20 38 -3
42 -6 45 -33z"/>
<path d="M9470 9845 c0 -9 5 -15 11 -13 6 2 11 8 11 13 0 5 -5 11 -11 13 -6 2
-11 -4 -11 -13z"/>
<path d="M10234 9851 c-74 -32 -99 -178 -37 -218 37 -24 91 -8 117 36 19 33
19 33 -1 23 -11 -6 -25 -18 -33 -26 -16 -20 -64 -21 -80 -1 -20 24 -7 111 20
140 32 34 77 34 90 0 11 -29 30 -33 30 -7 0 44 -59 73 -106 53z"/>
<path d="M10490 9845 c0 -9 5 -15 11 -13 6 2 11 8 11 13 0 5 -5 11 -11 13 -6
2 -11 -4 -11 -13z"/>
<path d="M9720 9821 c0 -10 -9 -21 -20 -24 -23 -6 -27 -27 -5 -27 11 0 14 -15
12 -72 -2 -69 -1 -73 21 -76 15 -2 22 2 22 12 0 9 -7 16 -16 16 -13 0 -15 8
-9 43 10 64 15 77 31 77 8 0 14 7 14 15 0 8 -6 15 -14 15 -9 0 -12 7 -9 20 4
14 0 20 -11 20 -9 0 -16 -8 -16 -19z"/>
<path d="M10920 9821 c0 -10 -9 -21 -20 -24 -23 -6 -27 -27 -5 -27 11 0 14
-15 12 -72 -2 -69 -1 -73 21 -76 15 -2 22 2 22 12 0 9 -7 16 -16 16 -13 0 -15
8 -9 43 10 64 15 77 31 77 8 0 14 7 14 15 0 8 -6 15 -14 15 -9 0 -12 7 -9 20
4 14 0 20 -11 20 -9 0 -16 -8 -16 -19z"/>
<path d="M9134 9788 c-28 -13 -44 -49 -44 -98 0 -51 34 -78 82 -64 47 14 50
37 4 29 -38 -8 -66 6 -66 31 0 10 16 14 60 14 l60 0 0 30 c0 33 -31 70 -57 69
-10 0 -28 -5 -39 -11z m64 -40 c3 -15 -4 -18 -37 -18 -43 0 -50 7 -29 28 18
18 62 11 66 -10z"/>
<path d="M9293 9785 c-13 -9 -27 -33 -33 -54 -20 -74 24 -131 79 -102 18 10
20 9 14 -6 -3 -10 -10 -24 -16 -30 -12 -16 -59 -17 -74 -2 -7 7 -13 7 -17 1
-9 -14 33 -42 62 -42 42 0 67 38 81 125 7 44 15 90 18 103 4 16 1 22 -11 22
-9 0 -16 -5 -16 -10 0 -7 -6 -7 -19 0 -27 14 -43 13 -68 -5z m75 -53 c6 -59
-42 -104 -76 -70 -33 33 1 111 46 106 22 -2 28 -9 30 -36z"/>
<path d="M9451 9748 c-23 -119 -24 -128 -9 -128 10 0 18 22 26 78 14 93 15
102 3 102 -5 0 -14 -24 -20 -52z"/>
<path d="M9552 9784 c-35 -25 -26 -64 18 -79 24 -8 35 -18 35 -31 0 -23 -30
-30 -61 -13 -33 17 -44 1 -15 -22 30 -25 66 -24 92 2 31 31 21 61 -29 84 -23
11 -41 24 -39 30 6 16 37 18 63 4 33 -17 44 -1 15 22 -28 23 -49 24 -79 3z"/>
<path d="M9844 9788 c-28 -13 -44 -49 -44 -98 0 -51 34 -78 82 -64 47 14 50
37 4 29 -38 -8 -66 6 -66 31 0 10 16 14 60 14 l60 0 0 30 c0 33 -31 70 -57 69
-10 0 -28 -5 -39 -11z m64 -40 c3 -15 -4 -18 -37 -18 -43 0 -50 7 -29 28 18
18 62 11 66 -10z"/>
<path d="M9985 9788 c-9 -30 -27 -160 -22 -165 13 -13 25 11 32 64 8 64 18 83
46 83 11 0 19 7 19 15 0 18 -21 20 -38 3 -9 -9 -12 -9 -12 0 0 16 -20 15 -25
0z"/>
<path d="M10471 9748 c-23 -119 -24 -128 -9 -128 10 0 18 22 26 78 14 93 15
102 3 102 -5 0 -14 -24 -20 -52z"/>
<path d="M10584 9788 c-28 -13 -44 -49 -44 -98 0 -51 34 -78 82 -64 47 14 50
37 4 29 -38 -8 -66 6 -66 31 0 10 16 14 60 14 l60 0 0 30 c0 33 -31 70 -57 69
-10 0 -28 -5 -39 -11z m64 -40 c3 -15 -4 -18 -37 -18 -43 0 -50 7 -29 28 18
18 62 11 66 -10z"/>
<path d="M10725 9788 c-9 -30 -27 -160 -22 -165 13 -13 25 11 32 62 7 61 26
88 59 83 23 -3 26 -28 13 -105 -6 -33 -4 -43 6 -43 16 0 39 116 30 150 -7 25
-44 36 -72 20 -14 -7 -21 -7 -21 0 0 14 -20 13 -25 -2z"/>
<path d="M9980 8592 c0 -5 -9 -58 -20 -118 -24 -130 -23 -124 -7 -124 9 0 19
37 31 113 11 61 21 118 24 125 2 6 -3 12 -12 12 -9 0 -16 -4 -16 -8z"/>
<path d="M10247 8593 c-2 -5 -7 -24 -11 -45 -6 -35 -7 -36 -35 -25 -40 15 -77
-10 -91 -62 -19 -73 24 -131 78 -102 15 8 22 8 25 -2 9 -25 18 3 37 114 23
133 23 129 11 129 -6 0 -12 -3 -14 -7z m-29 -131 c6 -59 -42 -104 -76 -70 -33
33 1 111 46 106 22 -2 28 -9 30 -36z"/>
<path d="M8870 8575 c0 -10 11 -15 35 -15 40 0 39 5 20 -97 -18 -95 -19 -116
-3 -111 7 3 20 47 30 104 9 54 17 100 17 102 1 1 16 2 35 2 21 0 36 6 40 15 4
13 -9 15 -84 15 -73 0 -90 -3 -90 -15z"/>
<path d="M9583 8563 c3 -16 13 -70 23 -120 12 -61 22 -93 31 -93 7 0 40 54 73
120 45 89 56 120 45 120 -10 0 -33 -36 -62 -96 -52 -108 -53 -108 -73 19 -9
56 -17 77 -28 77 -11 0 -13 -7 -9 -27z"/>
<path d="M10060 8575 c0 -9 5 -15 11 -13 6 2 11 8 11 13 0 5 -5 11 -11 13 -6
2 -11 -4 -11 -13z"/>
<path d="M10610 8575 c0 -9 5 -15 11 -13 6 2 11 8 11 13 0 5 -5 11 -11 13 -6
2 -11 -4 -11 -13z"/>
<path d="M9410 8551 c0 -10 -9 -21 -20 -24 -23 -6 -27 -27 -5 -27 11 0 14 -15
12 -72 -2 -69 -1 -73 21 -76 15 -2 22 2 22 12 0 9 -7 16 -16 16 -13 0 -15 8
-9 43 10 64 15 77 31 77 8 0 14 7 14 15 0 8 -6 15 -14 15 -9 0 -12 7 -9 20 4
14 0 20 -11 20 -9 0 -16 -8 -16 -19z"/>
<path d="M10500 8551 c0 -10 -9 -21 -20 -24 -23 -6 -27 -27 -5 -27 11 0 14
-15 12 -72 -2 -69 -1 -73 21 -76 15 -2 22 2 22 12 0 9 -7 16 -16 16 -13 0 -15
8 -9 43 10 64 15 77 31 77 8 0 14 7 14 15 0 8 -6 15 -14 15 -9 0 -12 7 -9 20
4 14 0 20 -11 20 -9 0 -16 -8 -16 -19z"/>
<path d="M9084 8518 c-28 -13 -44 -49 -44 -98 0 -51 34 -78 82 -64 47 14 50
37 4 29 -38 -8 -66 6 -66 31 0 10 16 14 60 14 l60 0 0 30 c0 33 -31 70 -57 69
-10 0 -28 -5 -39 -11z m64 -40 c3 -15 -4 -18 -37 -18 -43 0 -50 7 -29 28 18
18 62 11 66 -10z"/>
<path d="M9242 8514 c-35 -25 -26 -64 18 -79 24 -8 35 -18 35 -31 0 -23 -30
-30 -61 -13 -33 17 -44 1 -15 -22 30 -25 66 -24 92 2 31 31 21 61 -29 84 -23
11 -41 24 -39 30 6 16 37 18 63 4 33 -17 44 -1 15 22 -28 23 -49 24 -79 3z"/>
<path d="M9799 8511 c-29 -23 -18 -39 15 -22 30 16 60 11 64 -12 3 -13 -3 -17
-27 -17 -40 0 -79 -19 -86 -42 -15 -47 30 -82 74 -58 14 7 21 7 21 0 0 -5 6
-10 14 -10 10 0 16 21 21 77 7 67 6 78 -11 90 -25 18 -58 16 -85 -6z m71 -96
c0 -16 -30 -35 -55 -35 -21 0 -31 30 -14 41 23 14 69 11 69 -6z"/>
<path d="M10041 8478 c-23 -119 -24 -128 -9 -128 10 0 18 22 26 78 14 93 15
102 3 102 -5 0 -14 -24 -20 -52z"/>
<path d="M10319 8511 c-29 -23 -18 -39 15 -22 30 16 60 11 64 -12 3 -13 -3
-17 -27 -17 -40 0 -79 -19 -86 -42 -15 -47 30 -82 74 -58 14 7 21 7 21 0 0 -5
6 -10 14 -10 10 0 16 21 21 77 7 67 6 78 -11 90 -25 18 -58 16 -85 -6z m71
-96 c0 -16 -30 -35 -55 -35 -21 0 -31 30 -14 41 23 14 69 11 69 -6z"/>
<path d="M10591 8478 c-23 -119 -24 -128 -9 -128 10 0 18 22 26 78 14 93 15
102 3 102 -5 0 -14 -24 -20 -52z"/>
<path d="M10704 8518 c-29 -14 -48 -51 -48 -95 0 -85 106 -98 140 -17 33 80
-22 147 -92 112z m64 -30 c30 -30 0 -108 -42 -108 -29 0 -46 18 -46 50 0 54
55 91 88 58z"/>
<path d="M10855 8518 c-9 -30 -27 -160 -22 -165 13 -13 25 11 32 62 7 61 26
88 59 83 23 -3 26 -28 13 -105 -6 -33 -4 -43 6 -43 16 0 39 116 30 150 -7 25
-44 36 -72 20 -14 -7 -21 -7 -21 0 0 14 -20 13 -25 -2z"/>
<path d="M9640 7562 c0 -5 -9 -58 -20 -118 -24 -130 -23 -124 -7 -124 9 0 19
37 31 113 11 61 21 118 24 125 2 6 -3 12 -12 12 -9 0 -16 -4 -16 -8z"/>
<path d="M10500 7562 c0 -5 -9 -58 -20 -118 -24 -130 -23 -124 -7 -124 9 0 19
37 31 113 11 61 21 118 24 125 2 6 -3 12 -12 12 -9 0 -16 -4 -16 -8z"/>
<path d="M8823 7548 c-28 -13 -44 -58 -31 -82 5 -10 30 -26 54 -36 45 -20 56
-44 32 -68 -22 -22 -88 -12 -88 14 0 8 -7 14 -15 14 -16 0 -20 -18 -7 -36 36
-54 152 -31 152 30 0 32 -14 47 -61 70 -49 24 -57 37 -34 60 23 22 62 20 77
-4 15 -23 38 -27 38 -6 0 20 -48 56 -74 55 -11 0 -31 -5 -43 -11z"/>
<path d="M10910 7545 c0 -9 5 -15 11 -13 6 2 11 8 11 13 0 5 -5 11 -11 13 -6
2 -11 -4 -11 -13z"/>
<path d="M8989 7481 c-29 -23 -18 -39 15 -22 30 16 60 11 64 -12 3 -13 -3 -17
-27 -17 -40 0 -79 -19 -86 -42 -15 -47 30 -82 74 -58 14 7 21 7 21 0 0 -5 6
-10 14 -10 10 0 16 21 21 77 7 67 6 78 -11 90 -25 18 -58 16 -85 -6z m71 -96
c0 -16 -30 -35 -55 -35 -21 0 -31 30 -14 41 23 14 69 11 69 -6z"/>
<path d="M9155 7488 c-9 -30 -27 -160 -22 -165 14 -13 26 12 32 67 7 64 21 83
57 78 25 -3 29 -26 15 -105 -6 -34 -4 -43 7 -43 10 0 16 17 21 53 9 66 29 99
58 95 21 -3 22 -8 19 -75 -2 -70 10 -98 21 -50 18 72 19 124 2 140 -21 21 -44
22 -73 1 -12 -8 -22 -10 -22 -5 0 16 -46 24 -69 11 -14 -7 -21 -7 -21 0 0 14
-20 13 -25 -2z"/>
<path d="M9435 7488 c-11 -36 -37 -229 -31 -235 10 -11 26 18 26 48 0 33 8 40
30 27 46 -29 100 24 100 100 0 54 -29 81 -71 65 -16 -6 -29 -7 -29 -2 0 14
-20 11 -25 -3z m95 -38 c17 -31 -5 -88 -36 -96 -44 -11 -57 1 -49 49 4 23 12
48 17 55 16 19 56 14 68 -8z"/>
<path d="M9734 7488 c-28 -13 -44 -49 -44 -98 0 -51 34 -78 82 -64 47 14 50
37 4 29 -38 -8 -66 6 -66 31 0 10 16 14 60 14 l60 0 0 30 c0 33 -31 70 -57 69
-10 0 -28 -5 -39 -11z m64 -40 c3 -15 -4 -18 -37 -18 -43 0 -50 7 -29 28 18
18 62 11 66 -10z"/>
<path d="M9969 7481 c-29 -23 -18 -39 15 -22 30 16 60 11 64 -12 3 -13 -3 -17
-27 -17 -40 0 -79 -19 -86 -42 -15 -47 30 -82 74 -58 14 7 21 7 21 0 0 -5 6
-10 14 -10 10 0 16 21 21 77 7 67 6 78 -11 90 -25 18 -58 16 -85 -6z m71 -96
c0 -16 -30 -35 -55 -35 -21 0 -31 30 -14 41 23 14 69 11 69 -6z"/>
<path d="M10135 7488 c-9 -30 -27 -160 -22 -165 13 -13 25 11 32 62 7 61 26
88 59 83 23 -3 26 -28 13 -105 -6 -33 -4 -43 6 -43 16 0 39 116 30 150 -7 25
-44 36 -72 20 -14 -7 -21 -7 -21 0 0 14 -20 13 -25 -2z"/>
<path d="M10329 7481 c-29 -23 -18 -39 15 -22 30 16 60 11 64 -12 3 -13 -3
-17 -27 -17 -40 0 -79 -19 -86 -42 -15 -47 30 -82 74 -58 14 7 21 7 21 0 0 -5
6 -10 14 -10 10 0 16 21 21 77 7 67 6 78 -11 90 -25 18 -58 16 -85 -6z m71
-96 c0 -16 -30 -35 -55 -35 -21 0 -31 30 -14 41 23 14 69 11 69 -6z"/>
<path d="M10550 7498 c0 -2 7 -41 15 -87 13 -76 13 -87 0 -108 -9 -13 -22 -23
-30 -23 -8 0 -15 -7 -15 -15 0 -16 9 -19 35 -9 24 9 140 244 120 244 -9 0 -28
-28 -47 -67 l-31 -68 -10 68 c-6 46 -14 67 -23 67 -8 0 -14 -1 -14 -2z"/>
<path d="M10742 7484 c-35 -25 -26 -64 18 -79 24 -8 35 -18 35 -31 0 -23 -30
-30 -61 -13 -33 17 -44 1 -15 -22 30 -25 66 -24 92 2 31 31 21 61 -29 84 -23
11 -41 24 -39 30 6 16 37 18 63 4 33 -17 44 -1 15 22 -28 23 -49 24 -79 3z"/>
<path d="M10891 7448 c-23 -119 -24 -128 -9 -128 10 0 18 22 26 78 14 93 15
102 3 102 -5 0 -14 -24 -20 -52z"/>
<path d="M10992 7484 c-35 -25 -26 -64 18 -79 24 -8 35 -18 35 -31 0 -23 -30
-30 -61 -13 -33 17 -44 1 -15 -22 30 -25 66 -24 92 2 31 31 21 61 -29 84 -23
11 -41 24 -39 30 6 16 37 18 63 4 33 -17 44 -1 15 22 -28 23 -49 24 -79 3z"/>
<path d="M9587 7163 c-2 -5 -7 -24 -11 -45 -6 -35 -7 -36 -35 -25 -40 15 -77
-10 -91 -62 -19 -73 24 -131 78 -102 15 8 22 8 25 -2 9 -25 18 3 37 114 23
133 23 129 11 129 -6 0 -12 -3 -14 -7z m-29 -131 c6 -59 -42 -104 -76 -70 -33
33 1 111 46 106 22 -2 28 -9 30 -36z"/>
<path d="M10470 7162 c0 -5 -9 -58 -20 -118 -24 -130 -23 -124 -7 -124 9 0 19
37 31 113 11 61 21 118 24 125 2 6 -3 12 -12 12 -9 0 -16 -4 -16 -8z"/>
<path d="M9750 7153 c0 -10 -29 -181 -35 -210 -4 -16 -1 -23 9 -23 10 0 17 15
22 46 6 43 8 45 37 42 26 -3 33 -10 46 -45 8 -24 21 -43 28 -43 17 0 16 9 -3
55 -15 36 -14 37 10 60 34 32 36 87 4 109 -23 16 -118 23 -118 9z m108 -58 c4
-36 -18 -55 -66 -55 -31 0 -34 2 -28 23 3 12 6 32 6 45 0 21 4 23 43 20 38 -3
42 -6 45 -33z"/>
<path d="M10550 7121 c0 -10 -9 -21 -20 -24 -23 -6 -27 -27 -5 -27 11 0 14
-15 12 -72 -2 -69 -1 -73 21 -76 15 -2 22 2 22 12 0 9 -7 16 -16 16 -13 0 -15
8 -9 43 10 64 15 77 31 77 8 0 14 7 14 15 0 8 -6 15 -14 15 -9 0 -12 7 -9 20
4 14 0 20 -11 20 -9 0 -16 -8 -16 -19z"/>
<path d="M9129 7081 c-29 -23 -18 -39 15 -22 30 16 60 11 64 -12 3 -13 -3 -17
-27 -17 -40 0 -79 -19 -86 -42 -15 -47 30 -82 74 -58 14 7 21 7 21 0 0 -5 6
-10 14 -10 10 0 16 21 21 77 7 67 6 78 -11 90 -25 18 -58 16 -85 -6z m71 -96
c0 -16 -30 -35 -55 -35 -21 0 -31 30 -14 41 23 14 69 11 69 -6z"/>
<path d="M9285 7088 c-9 -30 -27 -160 -22 -165 13 -13 25 11 32 62 7 61 26 88
59 83 23 -3 26 -28 13 -105 -6 -33 -4 -43 6 -43 16 0 39 116 30 150 -7 25 -44
36 -72 20 -14 -7 -21 -7 -21 0 0 14 -20 13 -25 -2z"/>
<path d="M9964 7088 c-28 -13 -44 -49 -44 -98 0 -51 34 -78 82 -64 47 14 50
37 4 29 -38 -8 -66 6 -66 31 0 10 16 14 60 14 l60 0 0 30 c0 33 -31 70 -57 69
-10 0 -28 -5 -39 -11z m64 -40 c3 -15 -4 -18 -37 -18 -43 0 -50 7 -29 28 18
18 62 11 66 -10z"/>
<path d="M10122 7084 c-35 -25 -26 -64 18 -79 24 -8 35 -18 35 -31 0 -23 -30
-30 -61 -13 -33 17 -44 1 -15 -22 30 -25 66 -24 92 2 31 31 21 61 -29 84 -23
11 -41 24 -39 30 6 16 37 18 63 4 33 -17 44 -1 15 22 -28 23 -49 24 -79 3z"/>
<path d="M10276 7085 c-3 -8 -8 -44 -12 -79 -8 -74 1 -84 73 -83 l42 0 11 71
c6 39 14 79 16 89 3 10 0 17 -9 17 -10 0 -18 -19 -26 -61 -12 -70 -24 -89 -56
-89 -29 0 -35 16 -24 71 11 58 11 79 0 79 -5 0 -11 -7 -15 -15z"/>
<path d="M10662 7084 c-35 -25 -26 -64 18 -79 24 -8 35 -18 35 -31 0 -23 -30
-30 -61 -13 -33 17 -44 1 -15 -22 30 -25 66 -24 92 2 31 31 21 61 -29 84 -23
11 -41 24 -39 30 6 16 37 18 63 4 33 -17 44 -1 15 22 -28 23 -49 24 -79 3z"/>
<path d="M9190 6182 c0 -5 -9 -58 -20 -118 -24 -130 -23 -124 -7 -124 9 0 19
37 31 113 11 61 21 118 24 125 2 6 -3 12 -12 12 -9 0 -16 -4 -16 -8z"/>
<path d="M9897 6183 c-2 -5 -7 -24 -11 -45 -6 -35 -7 -36 -35 -25 -40 15 -77
-10 -91 -62 -19 -73 24 -131 78 -102 15 8 22 8 25 -2 9 -25 18 3 37 114 23
133 23 129 11 129 -6 0 -12 -3 -14 -7z m-29 -131 c6 -59 -42 -104 -76 -70 -33
33 1 111 46 106 22 -2 28 -9 30 -36z"/>
<path d="M10549 6180 c-9 -5 -20 -21 -23 -35 -4 -14 -13 -25 -21 -25 -8 0 -15
-7 -15 -15 0 -8 6 -15 14 -15 13 0 13 -4 -8 -122 -4 -19 -1 -28 8 -28 9 0 18
26 26 75 11 62 16 75 31 75 11 0 19 7 19 15 0 8 -7 15 -16 15 -24 0 -12 35 14
38 12 2 22 10 22 18 0 16 -27 18 -51 4z"/>
<path d="M8373 6168 c-28 -13 -44 -58 -31 -82 5 -10 30 -26 54 -36 45 -20 56
-44 32 -68 -22 -22 -88 -12 -88 14 0 8 -7 14 -15 14 -16 0 -20 -18 -7 -36 36
-54 152 -31 152 30 0 32 -14 47 -61 70 -49 24 -57 37 -34 60 23 22 62 20 77
-4 15 -23 38 -27 38 -6 0 20 -48 56 -74 55 -11 0 -31 -5 -43 -11z"/>
<path d="M9503 6060 c-16 -97 -17 -120 -6 -120 7 0 13 1 13 3 0 2 9 52 20 112
24 129 24 125 7 125 -10 0 -20 -36 -34 -120z"/>
<path d="M10440 6165 c0 -9 5 -15 11 -13 6 2 11 8 11 13 0 5 -5 11 -11 13 -6
2 -11 -4 -11 -13z"/>
<path d="M10630 6165 c0 -9 5 -15 11 -13 6 2 11 8 11 13 0 5 -5 11 -11 13 -6
2 -11 -4 -11 -13z"/>
<path d="M11170 6165 c0 -9 5 -15 11 -13 6 2 11 8 11 13 0 5 -5 11 -11 13 -6
2 -11 -4 -11 -13z"/>
<path d="M10330 6141 c0 -10 -9 -21 -20 -24 -23 -6 -27 -27 -5 -27 11 0 14
-15 12 -72 -2 -69 -1 -73 21 -76 15 -2 22 2 22 12 0 9 -7 16 -16 16 -13 0 -15
8 -9 43 10 64 15 77 31 77 8 0 14 7 14 15 0 8 -6 15 -14 15 -9 0 -12 7 -9 20
4 14 0 20 -11 20 -9 0 -16 -8 -16 -19z"/>
<path d="M11060 6141 c0 -10 -9 -21 -20 -24 -23 -6 -27 -27 -5 -27 11 0 14
-15 12 -72 -2 -69 -1 -73 21 -76 15 -2 22 2 22 12 0 9 -7 16 -16 16 -13 0 -15
8 -9 43 10 64 15 77 31 77 8 0 14 7 14 15 0 8 -6 15 -14 15 -9 0 -12 7 -9 20
4 14 0 20 -11 20 -9 0 -16 -8 -16 -19z"/>
<path d="M8539 6101 c-29 -23 -18 -39 15 -22 30 16 60 11 64 -12 3 -13 -3 -17
-27 -17 -40 0 -79 -19 -86 -42 -15 -47 30 -82 74 -58 14 7 21 7 21 0 0 -5 6
-10 14 -10 10 0 16 21 21 77 7 67 6 78 -11 90 -25 18 -58 16 -85 -6z m71 -96
c0 -16 -30 -35 -55 -35 -21 0 -31 30 -14 41 23 14 69 11 69 -6z"/>
<path d="M8705 6108 c-9 -30 -27 -160 -22 -165 14 -13 26 12 32 67 7 64 21 83
57 78 25 -3 29 -26 15 -105 -6 -34 -4 -43 7 -43 10 0 16 17 21 53 9 66 29 99
58 95 21 -3 22 -8 19 -75 -2 -70 10 -98 21 -50 18 72 19 124 2 140 -21 21 -44
22 -73 1 -12 -8 -22 -10 -22 -5 0 16 -46 24 -69 11 -14 -7 -21 -7 -21 0 0 14
-20 13 -25 -2z"/>
<path d="M8985 6108 c-11 -36 -37 -229 -31 -235 10 -11 26 18 26 48 0 33 8 40
30 27 46 -29 100 24 100 100 0 54 -29 81 -71 65 -16 -6 -29 -7 -29 -2 0 14
-20 11 -25 -3z m95 -38 c17 -31 -5 -88 -36 -96 -44 -11 -57 1 -49 49 4 23 12
48 17 55 16 19 56 14 68 -8z"/>
<path d="M9284 6108 c-28 -13 -44 -49 -44 -98 0 -51 34 -78 82 -64 47 14 50
37 4 29 -38 -8 -66 6 -66 31 0 10 16 14 60 14 l60 0 0 30 c0 33 -31 70 -57 69
-10 0 -28 -5 -39 -11z m64 -40 c3 -15 -4 -18 -37 -18 -43 0 -50 7 -29 28 18
18 62 11 66 -10z"/>
<path d="M9595 6108 c-9 -30 -27 -160 -22 -165 13 -13 25 11 32 62 7 61 26 88
59 83 23 -3 26 -28 13 -105 -6 -33 -4 -43 6 -43 16 0 39 116 30 150 -7 25 -44
36 -72 20 -14 -7 -21 -7 -21 0 0 14 -20 13 -25 -2z"/>
<path d="M9994 6108 c-28 -13 -44 -49 -44 -98 0 -51 34 -78 82 -64 47 14 50
37 4 29 -38 -8 -66 6 -66 31 0 10 16 14 60 14 l60 0 0 30 c0 33 -31 70 -57 69
-10 0 -28 -5 -39 -11z m64 -40 c3 -15 -4 -18 -37 -18 -43 0 -50 7 -29 28 18
18 62 11 66 -10z"/>
<path d="M10135 6108 c-9 -30 -27 -160 -22 -165 13 -13 25 11 32 62 7 61 26
88 59 83 23 -3 26 -28 13 -105 -6 -33 -4 -43 6 -43 16 0 39 116 30 150 -7 25
-44 36 -72 20 -14 -7 -21 -7 -21 0 0 14 -20 13 -25 -2z"/>
<path d="M10421 6068 c-23 -119 -24 -128 -9 -128 10 0 18 22 26 78 14 93 15
102 3 102 -5 0 -14 -24 -20 -52z"/>
<path d="M10611 6068 c-23 -119 -24 -128 -9 -128 10 0 18 22 26 78 14 93 15
102 3 102 -5 0 -14 -24 -20 -52z"/>
<path d="M10723 6110 c-48 -20 -63 -119 -23 -152 29 -23 51 -23 84 3 29 23 34
39 11 39 -8 0 -15 -4 -15 -10 0 -16 -49 -23 -65 -10 -19 16 -19 60 1 88 17 25
62 30 70 7 7 -17 34 -21 34 -5 0 17 -39 50 -57 49 -10 0 -28 -4 -40 -9z"/>
<path d="M10879 6101 c-29 -23 -18 -39 15 -22 30 16 60 11 64 -12 3 -13 -3
-17 -27 -17 -40 0 -79 -19 -86 -42 -15 -47 30 -82 74 -58 14 7 21 7 21 0 0 -5
6 -10 14 -10 10 0 16 21 21 77 7 67 6 78 -11 90 -25 18 -58 16 -85 -6z m71
-96 c0 -16 -30 -35 -55 -35 -21 0 -31 30 -14 41 23 14 69 11 69 -6z"/>
<path d="M11151 6068 c-23 -119 -24 -128 -9 -128 10 0 18 22 26 78 14 93 15
102 3 102 -5 0 -14 -24 -20 -52z"/>
<path d="M11264 6108 c-29 -14 -48 -51 -48 -95 0 -85 106 -98 140 -17 33 80
-22 147 -92 112z m64 -30 c30 -30 0 -108 -42 -108 -29 0 -46 18 -46 50 0 54
55 91 88 58z"/>
<path d="M11415 6108 c-9 -30 -27 -160 -22 -165 13 -13 25 11 32 62 7 61 26
88 59 83 23 -3 26 -28 13 -105 -6 -33 -4 -43 6 -43 16 0 39 116 30 150 -7 25
-44 36 -72 20 -14 -7 -21 -7 -21 0 0 14 -20 13 -25 -2z"/>
<path d="M9260 4953 c0 -10 -29 -181 -35 -210 -5 -21 -2 -23 35 -23 93 0 140
47 140 140 0 69 -29 100 -95 100 -25 0 -45 -3 -45 -7z m109 -54 c33 -59 -17
-149 -82 -149 l-34 0 15 91 15 90 36 -3 c26 -2 39 -10 50 -29z"/>
<path d="M9480 4945 c0 -9 5 -15 11 -13 6 2 11 8 11 13 0 5 -5 11 -11 13 -6 2
-11 -4 -11 -13z"/>
<path d="M10450 4945 c0 -9 5 -15 11 -13 6 2 11 8 11 13 0 5 -5 11 -11 13 -6
2 -11 -4 -11 -13z"/>
<path d="M9461 4848 c-23 -119 -24 -128 -9 -128 10 0 18 22 26 78 14 93 15
102 3 102 -5 0 -14 -24 -20 -52z"/>
<path d="M9559 4881 c-29 -23 -18 -39 15 -22 30 16 60 11 64 -12 3 -13 -3 -17
-27 -17 -40 0 -79 -19 -86 -42 -15 -47 30 -82 74 -58 14 7 21 7 21 0 0 -5 6
-10 14 -10 10 0 16 21 21 77 7 67 6 78 -11 90 -25 18 -58 16 -85 -6z m71 -96
c0 -16 -30 -35 -55 -35 -21 0 -31 30 -14 41 23 14 69 11 69 -6z"/>
<path d="M9733 4885 c-13 -9 -27 -33 -33 -54 -20 -74 24 -131 79 -102 18 10
20 9 14 -6 -3 -10 -10 -24 -16 -30 -12 -16 -59 -17 -74 -2 -7 7 -13 7 -17 1
-9 -14 33 -42 62 -42 42 0 67 38 81 125 7 44 15 90 18 103 4 16 1 22 -11 22
-9 0 -16 -5 -16 -10 0 -7 -6 -7 -19 0 -27 14 -43 13 -68 -5z m75 -53 c6 -59
-42 -104 -76 -70 -33 33 1 111 46 106 22 -2 28 -9 30 -36z"/>
<path d="M9905 4888 c-9 -30 -27 -160 -22 -165 13 -13 25 11 32 62 7 61 26 88
59 83 23 -3 26 -28 13 -105 -6 -33 -4 -43 6 -43 16 0 39 116 30 150 -7 25 -44
36 -72 20 -14 -7 -21 -7 -21 0 0 14 -20 13 -25 -2z"/>
<path d="M10114 4888 c-29 -14 -48 -51 -48 -95 0 -85 106 -98 140 -17 33 80
-22 147 -92 112z m64 -30 c30 -30 0 -108 -42 -108 -29 0 -46 18 -46 50 0 54
55 91 88 58z"/>
<path d="M10282 4884 c-35 -25 -26 -64 18 -79 24 -8 35 -18 35 -31 0 -23 -30
-30 -61 -13 -33 17 -44 1 -15 -22 30 -25 66 -24 92 2 31 31 21 61 -29 84 -23
11 -41 24 -39 30 6 16 37 18 63 4 33 -17 44 -1 15 22 -28 23 -49 24 -79 3z"/>
<path d="M10431 4848 c-23 -119 -24 -128 -9 -128 10 0 18 22 26 78 14 93 15
102 3 102 -5 0 -14 -24 -20 -52z"/>
<path d="M10532 4884 c-35 -25 -26 -64 18 -79 24 -8 35 -18 35 -31 0 -23 -30
-30 -61 -13 -33 17 -44 1 -15 -22 30 -25 66 -24 92 2 31 31 21 61 -29 84 -23
11 -41 24 -39 30 6 16 37 18 63 4 33 -17 44 -1 15 22 -28 23 -49 24 -79 3z"/>
<path d="M9351 3698 c-22 -109 -33 -189 -28 -195 11 -10 27 8 27 31 0 13 6 29
14 35 12 10 19 5 38 -28 35 -61 54 -52 22 10 l-26 52 38 38 c49 50 23 52 -29
3 -21 -20 -40 -35 -42 -33 -2 2 2 34 9 72 10 54 10 67 0 67 -7 0 -17 -22 -23
-52z"/>
<path d="M9809 3740 c-9 -5 -20 -21 -23 -35 -4 -14 -13 -25 -21 -25 -8 0 -15
-7 -15 -15 0 -8 6 -15 14 -15 13 0 13 -4 -8 -122 -4 -19 -1 -28 8 -28 9 0 18
26 26 75 11 62 16 75 31 75 11 0 19 7 19 15 0 8 -7 15 -16 15 -24 0 -12 35 14
38 12 2 22 10 22 18 0 16 -27 18 -51 4z"/>
<path d="M8982 3620 c-45 -87 -59 -120 -48 -120 9 0 22 14 31 30 14 27 20 30
64 30 46 0 49 -2 55 -30 3 -16 12 -30 20 -30 11 0 12 9 1 63 -7 34 -18 88 -25
120 -6 31 -17 57 -23 57 -7 0 -40 -54 -75 -120z m78 58 c0 -7 3 -30 6 -50 l7
-38 -37 0 c-20 0 -36 2 -36 5 0 2 10 25 22 50 21 44 38 58 38 33z"/>
<path d="M10270 3701 c0 -10 -9 -21 -20 -24 -23 -6 -27 -27 -5 -27 11 0 14
-15 12 -72 -2 -69 -1 -73 21 -76 15 -2 22 2 22 12 0 9 -7 16 -16 16 -13 0 -15
8 -9 43 10 64 15 77 31 77 8 0 14 7 14 15 0 8 -6 15 -14 15 -9 0 -12 7 -9 20
4 14 0 20 -11 20 -9 0 -16 -8 -16 -19z"/>
<path d="M10720 3701 c0 -10 -9 -21 -20 -24 -23 -6 -27 -27 -5 -27 11 0 14
-15 12 -72 -2 -69 -1 -73 21 -76 15 -2 22 2 22 12 0 9 -7 16 -16 16 -13 0 -15
8 -9 43 10 64 15 77 31 77 8 0 14 7 14 15 0 8 -6 15 -14 15 -9 0 -12 7 -9 20
4 14 0 20 -11 20 -9 0 -16 -8 -16 -19z"/>
<path d="M9202 3664 c-35 -25 -26 -64 18 -79 24 -8 35 -18 35 -31 0 -23 -30
-30 -61 -13 -33 17 -44 1 -15 -22 30 -25 66 -24 92 2 31 31 21 61 -29 84 -23
11 -41 24 -39 30 6 16 37 18 63 4 33 -17 44 -1 15 22 -28 23 -49 24 -79 3z"/>
<path d="M9532 3664 c-35 -25 -26 -64 18 -79 24 -8 35 -18 35 -31 0 -23 -30
-30 -61 -13 -33 17 -44 1 -15 -22 30 -25 66 -24 92 2 31 31 21 61 -29 84 -23
11 -41 24 -39 30 6 16 37 18 63 4 33 -17 44 -1 15 22 -28 23 -49 24 -79 3z"/>
<path d="M9904 3668 c-29 -14 -48 -51 -48 -95 0 -85 106 -98 140 -17 33 80
-22 147 -92 112z m64 -30 c30 -30 0 -108 -42 -108 -29 0 -46 18 -46 50 0 54
55 91 88 58z"/>
<path d="M10065 3668 c-9 -30 -27 -160 -22 -165 13 -13 25 11 32 64 8 64 18
83 46 83 11 0 19 7 19 15 0 18 -21 20 -38 3 -9 -9 -12 -9 -12 0 0 16 -20 15
-25 0z"/>
<path d="M10394 3668 c-28 -13 -44 -49 -44 -98 0 -51 34 -78 82 -64 47 14 50
37 4 29 -38 -8 -66 6 -66 31 0 10 16 14 60 14 l60 0 0 30 c0 33 -31 70 -57 69
-10 0 -28 -5 -39 -11z m64 -40 c3 -15 -4 -18 -37 -18 -43 0 -50 7 -29 28 18
18 62 11 66 -10z"/>
<path d="M10552 3664 c-35 -25 -26 -64 18 -79 24 -8 35 -18 35 -31 0 -23 -30
-30 -61 -13 -33 17 -44 1 -15 -22 30 -25 66 -24 92 2 31 31 21 61 -29 84 -23
11 -41 24 -39 30 6 16 37 18 63 4 33 -17 44 -1 15 22 -28 23 -49 24 -79 3z"/>
<path d="M10832 3664 c-35 -25 -26 -64 18 -79 24 -8 35 -18 35 -31 0 -23 -30
-30 -61 -13 -33 17 -44 1 -15 -22 30 -25 66 -24 92 2 31 31 21 61 -29 84 -23
11 -41 24 -39 30 6 16 37 18 63 4 33 -17 44 -1 15 22 -28 23 -49 24 -79 3z"/>
<path d="M9410 2502 c0 -5 -9 -58 -20 -118 -24 -130 -23 -124 -7 -124 9 0 19
37 31 113 11 61 21 118 24 125 2 6 -3 12 -12 12 -9 0 -16 -4 -16 -8z"/>
<path d="M10217 2503 c-2 -5 -7 -24 -11 -45 -6 -35 -7 -36 -35 -25 -40 15 -77
-10 -91 -62 -19 -73 24 -131 78 -102 15 8 22 8 25 -2 9 -25 18 3 37 114 23
133 23 129 11 129 -6 0 -12 -3 -14 -7z m-29 -131 c6 -59 -42 -104 -76 -70 -33
33 1 111 46 106 22 -2 28 -9 30 -36z"/>
<path d="M9244 2491 c-74 -32 -99 -178 -37 -218 37 -24 91 -8 117 36 19 33 19
33 -1 23 -11 -6 -25 -18 -33 -26 -16 -20 -64 -21 -80 -1 -20 24 -7 111 20 140
32 34 77 34 90 0 11 -29 30 -33 30 -7 0 44 -59 73 -106 53z"/>
<path d="M9490 2485 c0 -9 5 -15 11 -13 6 2 11 8 11 13 0 5 -5 11 -11 13 -6 2
-11 -4 -11 -13z"/>
<path d="M9930 2461 c0 -10 -9 -21 -20 -24 -23 -6 -27 -27 -5 -27 11 0 14 -15
12 -72 -2 -69 -1 -73 21 -76 15 -2 22 2 22 12 0 9 -7 16 -16 16 -13 0 -15 8
-9 43 10 64 15 77 31 77 8 0 14 7 14 15 0 8 -6 15 -14 15 -9 0 -12 7 -9 20 4
14 0 20 -11 20 -9 0 -16 -8 -16 -19z"/>
<path d="M10480 2461 c0 -10 -9 -21 -20 -24 -23 -6 -27 -27 -5 -27 11 0 14
-15 12 -72 -2 -69 -1 -73 21 -76 15 -2 22 2 22 12 0 9 -7 16 -16 16 -13 0 -15
8 -9 43 10 64 15 77 31 77 8 0 14 7 14 15 0 8 -6 15 -14 15 -9 0 -12 7 -9 20
4 14 0 20 -11 20 -9 0 -16 -8 -16 -19z"/>
<path d="M9471 2388 c-23 -119 -24 -128 -9 -128 10 0 18 22 26 78 14 93 15
102 3 102 -5 0 -14 -24 -20 -52z"/>
<path d="M9584 2428 c-28 -13 -44 -49 -44 -98 0 -51 34 -78 82 -64 47 14 50
37 4 29 -38 -8 -66 6 -66 31 0 10 16 14 60 14 l60 0 0 30 c0 33 -31 70 -57 69
-10 0 -28 -5 -39 -11z m64 -40 c3 -15 -4 -18 -37 -18 -43 0 -50 7 -29 28 18
18 62 11 66 -10z"/>
<path d="M9735 2428 c-9 -30 -27 -160 -22 -165 13 -13 25 11 32 62 7 61 26 88
59 83 23 -3 26 -28 13 -105 -6 -33 -4 -43 6 -43 16 0 39 116 30 150 -7 25 -44
36 -72 20 -14 -7 -21 -7 -21 0 0 14 -20 13 -25 -2z"/>
<path d="M10299 2421 c-29 -23 -18 -39 15 -22 30 16 60 11 64 -12 3 -13 -3
-17 -27 -17 -40 0 -79 -19 -86 -42 -15 -47 30 -82 74 -58 14 7 21 7 21 0 0 -5
6 -10 14 -10 10 0 16 21 21 77 7 67 6 78 -11 90 -25 18 -58 16 -85 -6z m71
-96 c0 -16 -30 -35 -55 -35 -21 0 -31 30 -14 41 23 14 69 11 69 -6z"/>
<path d="M10579 2421 c-29 -23 -18 -39 15 -22 30 16 60 11 64 -12 3 -13 -3
-17 -27 -17 -40 0 -79 -19 -86 -42 -15 -47 30 -82 74 -58 14 7 21 7 21 0 0 -5
6 -10 14 -10 10 0 16 21 21 77 7 67 6 78 -11 90 -25 18 -58 16 -85 -6z m71
-96 c0 -16 -30 -35 -55 -35 -21 0 -31 30 -14 41 23 14 69 11 69 -6z"/>
<path d="M9264 1691 c-74 -32 -99 -178 -37 -218 37 -24 91 -8 117 36 19 33 19
33 -1 23 -11 -6 -25 -18 -33 -26 -16 -20 -64 -21 -80 -1 -20 24 -7 111 20 140
32 34 77 34 90 0 11 -29 30 -33 30 -7 0 44 -59 73 -106 53z"/>
<path d="M10000 1685 c0 -9 5 -15 11 -13 6 2 11 8 11 13 0 5 -5 11 -11 13 -6
2 -11 -4 -11 -13z"/>
<path d="M9890 1661 c0 -10 -9 -21 -20 -24 -23 -6 -27 -27 -5 -27 11 0 14 -15
12 -72 -2 -69 -1 -73 21 -76 15 -2 22 2 22 12 0 9 -7 16 -16 16 -13 0 -15 8
-9 43 10 64 15 77 31 77 8 0 14 7 14 15 0 8 -6 15 -14 15 -9 0 -12 7 -9 20 4
14 0 20 -11 20 -9 0 -16 -8 -16 -19z"/>
<path d="M9415 1628 c-9 -30 -27 -160 -22 -165 13 -13 25 11 32 64 8 64 18 83
46 83 11 0 19 7 19 15 0 18 -21 20 -38 3 -9 -9 -12 -9 -12 0 0 16 -20 15 -25
0z"/>
<path d="M9554 1628 c-28 -13 -44 -49 -44 -98 0 -51 34 -78 82 -64 47 14 50
37 4 29 -38 -8 -66 6 -66 31 0 10 16 14 60 14 l60 0 0 30 c0 33 -31 70 -57 69
-10 0 -28 -5 -39 -11z m64 -40 c3 -15 -4 -18 -37 -18 -43 0 -50 7 -29 28 18
18 62 11 66 -10z"/>
<path d="M9709 1621 c-29 -23 -18 -39 15 -22 30 16 60 11 64 -12 3 -13 -3 -17
-27 -17 -40 0 -79 -19 -86 -42 -15 -47 30 -82 74 -58 14 7 21 7 21 0 0 -5 6
-10 14 -10 10 0 16 21 21 77 7 67 6 78 -11 90 -25 18 -58 16 -85 -6z m71 -96
c0 -16 -30 -35 -55 -35 -21 0 -31 30 -14 41 23 14 69 11 69 -6z"/>
<path d="M9981 1588 c-23 -119 -24 -128 -9 -128 10 0 18 22 26 78 14 93 15
102 3 102 -5 0 -14 -24 -20 -52z"/>
<path d="M10094 1628 c-29 -14 -48 -51 -48 -95 0 -85 106 -98 140 -17 33 80
-22 147 -92 112z m64 -30 c30 -30 0 -108 -42 -108 -29 0 -46 18 -46 50 0 54
55 91 88 58z"/>
<path d="M10245 1628 c-9 -30 -27 -160 -22 -165 13 -13 25 11 32 62 7 61 26
88 59 83 23 -3 26 -28 13 -105 -6 -33 -4 -43 6 -43 16 0 39 116 30 150 -7 25
-44 36 -72 20 -14 -7 -21 -7 -21 0 0 14 -20 13 -25 -2z"/>
<path d="M10534 1628 c-29 -14 -48 -51 -48 -95 0 -85 106 -98 140 -17 33 80
-22 147 -92 112z m64 -30 c30 -30 0 -108 -42 -108 -29 0 -46 18 -46 50 0 54
55 91 88 58z"/>
<path d="M11047 1303 c-2 -5 -7 -24 -11 -45 -6 -35 -7 -36 -35 -25 -40 15 -77
-10 -91 -62 -19 -73 24 -131 78 -102 15 8 22 8 25 -2 9 -25 18 3 37 114 23
133 23 129 11 129 -6 0 -12 -3 -14 -7z m-29 -131 c6 -59 -42 -104 -76 -70 -33
33 1 111 46 106 22 -2 28 -9 30 -36z"/>
<path d="M9940 1261 c0 -10 -9 -21 -20 -24 -23 -6 -27 -27 -5 -27 11 0 14 -15
12 -72 -2 -69 -1 -73 21 -76 15 -2 22 2 22 12 0 9 -7 16 -16 16 -13 0 -15 8
-9 43 10 64 15 77 31 77 8 0 14 7 14 15 0 8 -6 15 -14 15 -9 0 -12 7 -9 20 4
14 0 20 -11 20 -9 0 -16 -8 -16 -19z"/>
<path d="M8825 1228 c-11 -36 -37 -229 -31 -235 10 -11 26 18 26 48 0 33 8 40
30 27 46 -29 100 24 100 100 0 54 -29 81 -71 65 -16 -6 -29 -7 -29 -2 0 14
-20 11 -25 -3z m95 -38 c17 -31 -5 -88 -36 -96 -44 -11 -57 1 -49 49 4 23 12
48 17 55 16 19 56 14 68 -8z"/>
<path d="M9019 1221 c-29 -23 -18 -39 15 -22 30 16 60 11 64 -12 3 -13 -3 -17
-27 -17 -40 0 -79 -19 -86 -42 -15 -47 30 -82 74 -58 14 7 21 7 21 0 0 -5 6
-10 14 -10 10 0 16 21 21 77 7 67 6 78 -11 90 -25 18 -58 16 -85 -6z m71 -96
c0 -16 -30 -35 -55 -35 -21 0 -31 30 -14 41 23 14 69 11 69 -6z"/>
<path d="M9185 1228 c-9 -30 -27 -160 -22 -165 13 -13 25 11 32 64 8 64 18 83
46 83 11 0 19 7 19 15 0 18 -21 20 -38 3 -9 -9 -12 -9 -12 0 0 16 -20 15 -25
0z"/>
<path d="M9299 1221 c-29 -23 -18 -39 15 -22 30 16 60 11 64 -12 3 -13 -3 -17
-27 -17 -40 0 -79 -19 -86 -42 -15 -47 30 -82 74 -58 14 7 21 7 21 0 0 -5 6
-10 14 -10 10 0 16 21 21 77 7 67 6 78 -11 90 -25 18 -58 16 -85 -6z m71 -96
c0 -16 -30 -35 -55 -35 -21 0 -31 30 -14 41 23 14 69 11 69 -6z"/>
<path d="M9465 1228 c-9 -30 -27 -160 -22 -165 14 -13 26 12 32 67 7 64 21 83
57 78 25 -3 29 -26 15 -105 -6 -34 -4 -43 7 -43 10 0 16 17 21 53 9 66 29 99
58 95 21 -3 22 -8 19 -75 -2 -70 10 -98 21 -50 18 72 19 124 2 140 -21 21 -44
22 -73 1 -12 -8 -22 -10 -22 -5 0 16 -46 24 -69 11 -14 -7 -21 -7 -21 0 0 14
-20 13 -25 -2z"/>
<path d="M9784 1228 c-28 -13 -44 -49 -44 -98 0 -51 34 -78 82 -64 47 14 50
37 4 29 -38 -8 -66 6 -66 31 0 10 16 14 60 14 l60 0 0 30 c0 33 -31 70 -57 69
-10 0 -28 -5 -39 -11z m64 -40 c3 -15 -4 -18 -37 -18 -43 0 -50 7 -29 28 18
18 62 11 66 -10z"/>
<path d="M10064 1228 c-28 -13 -44 -49 -44 -98 0 -51 34 -78 82 -64 47 14 50
37 4 29 -38 -8 -66 6 -66 31 0 10 16 14 60 14 l60 0 0 30 c0 33 -31 70 -57 69
-10 0 -28 -5 -39 -11z m64 -40 c3 -15 -4 -18 -37 -18 -43 0 -50 7 -29 28 18
18 62 11 66 -10z"/>
<path d="M10205 1228 c-9 -30 -27 -160 -22 -165 13 -13 25 11 32 64 8 64 18
83 46 83 11 0 19 7 19 15 0 18 -21 20 -38 3 -9 -9 -12 -9 -12 0 0 16 -20 15
-25 0z"/>
<path d="M10332 1224 c-35 -25 -26 -64 18 -79 24 -8 35 -18 35 -31 0 -23 -30
-30 -61 -13 -33 17 -44 1 -15 -22 30 -25 66 -24 92 2 31 31 21 61 -29 84 -23
11 -41 24 -39 30 6 16 37 18 63 4 33 -17 44 -1 15 22 -28 23 -49 24 -79 3z"/>
<path d="M10579 1221 c-29 -23 -18 -39 15 -22 30 16 60 11 64 -12 3 -13 -3
-17 -27 -17 -40 0 -79 -19 -86 -42 -15 -47 30 -82 74 -58 14 7 21 7 21 0 0 -5
6 -10 14 -10 10 0 16 21 21 77 7 67 6 78 -11 90 -25 18 -58 16 -85 -6z m71
-96 c0 -16 -30 -35 -55 -35 -21 0 -31 30 -14 41 23 14 69 11 69 -6z"/>
<path d="M10745 1228 c-9 -30 -27 -160 -22 -165 13 -13 25 11 32 62 7 61 26
88 59 83 23 -3 26 -28 13 -105 -6 -33 -4 -43 6 -43 16 0 39 116 30 150 -7 25
-44 36 -72 20 -14 -7 -21 -7 -21 0 0 14 -20 13 -25 -2z"/>
<path d="M10360 885 c0 -9 5 -15 11 -13 6 2 11 8 11 13 0 5 -5 11 -11 13 -6 2
-11 -4 -11 -13z"/>
<path d="M9600 861 c0 -10 -9 -21 -20 -24 -23 -6 -27 -27 -5 -27 11 0 14 -15
12 -72 -2 -69 -1 -73 21 -76 15 -2 22 2 22 12 0 9 -7 16 -16 16 -13 0 -15 8
-9 43 10 64 15 77 31 77 8 0 14 7 14 15 0 8 -6 15 -14 15 -9 0 -12 7 -9 20 4
14 0 20 -11 20 -9 0 -16 -8 -16 -19z"/>
<path d="M9273 830 c-48 -20 -63 -119 -23 -152 29 -23 51 -23 84 3 29 23 34
39 11 39 -8 0 -15 -4 -15 -10 0 -16 -49 -23 -65 -10 -19 16 -19 60 1 88 17 25
62 30 70 7 7 -17 34 -21 34 -5 0 17 -39 50 -57 49 -10 0 -28 -4 -40 -9z"/>
<path d="M9429 821 c-29 -23 -18 -39 15 -22 30 16 60 11 64 -12 3 -13 -3 -17
-27 -17 -40 0 -79 -19 -86 -42 -15 -47 30 -82 74 -58 14 7 21 7 21 0 0 -5 6
-10 14 -10 10 0 16 21 21 77 7 67 6 78 -11 90 -25 18 -58 16 -85 -6z m71 -96
c0 -16 -30 -35 -55 -35 -21 0 -31 30 -14 41 23 14 69 11 69 -6z"/>
<path d="M9724 828 c-28 -13 -44 -49 -44 -98 0 -51 34 -78 82 -64 47 14 50 37
4 29 -38 -8 -66 6 -66 31 0 10 16 14 60 14 l60 0 0 30 c0 33 -31 70 -57 69
-10 0 -28 -5 -39 -11z m64 -40 c3 -15 -4 -18 -37 -18 -43 0 -50 7 -29 28 18
18 62 11 66 -10z"/>
<path d="M10084 828 c-29 -14 -48 -51 -48 -95 0 -85 106 -98 140 -17 33 80
-22 147 -92 112z m64 -30 c30 -30 0 -108 -42 -108 -29 0 -46 18 -46 50 0 54
55 91 88 58z"/>
<path d="M10235 828 c-9 -30 -27 -160 -22 -165 13 -13 25 11 32 64 8 64 18 83
46 83 11 0 19 7 19 15 0 18 -21 20 -38 3 -9 -9 -12 -9 -12 0 0 16 -20 15 -25
0z"/>
<path d="M10341 788 c-23 -119 -24 -128 -9 -128 10 0 18 22 26 78 14 93 15
102 3 102 -5 0 -14 -24 -20 -52z"/>
<path d="M10454 828 c-28 -13 -44 -49 -44 -98 0 -51 34 -78 82 -64 47 14 50
37 4 29 -38 -8 -66 6 -66 31 0 10 16 14 60 14 l60 0 0 30 c0 33 -31 70 -57 69
-10 0 -28 -5 -39 -11z m64 -40 c3 -15 -4 -18 -37 -18 -43 0 -50 7 -29 28 18
18 62 11 66 -10z"/>
<path d="M10622 824 c-35 -25 -26 -64 18 -79 24 -8 35 -18 35 -31 0 -23 -30
-30 -61 -13 -33 17 -44 1 -15 -22 30 -25 66 -24 92 2 31 31 21 61 -29 84 -23
11 -41 24 -39 30 6 16 37 18 63 4 33 -17 44 -1 15 22 -28 23 -49 24 -79 3z"/>
<path d="M15261 9776 c-84 -30 -140 -128 -127 -220 12 -79 99 -166 166 -166
17 0 20 -6 20 -43 l0 -43 -75 -22 c-41 -12 -80 -22 -86 -22 -6 0 -52 38 -101
85 -73 69 -93 83 -105 73 -16 -13 11 -44 129 -149 l67 -60 72 21 c39 12 78 24
85 27 12 4 14 -51 14 -334 l0 -339 -116 -103 c-94 -84 -113 -105 -103 -117 6
-8 15 -14 19 -14 4 0 55 43 114 96 59 52 111 94 116 92 4 -2 48 -53 97 -114
81 -102 91 -110 107 -98 22 15 29 3 -108 174 l-75 95 -3 300 c-2 165 -2 301
-2 303 1 2 36 -44 79 -102 42 -58 80 -106 85 -106 4 0 13 6 19 13 8 11 -11 44
-84 145 -92 127 -95 132 -95 185 0 51 2 56 28 65 41 14 103 71 118 109 20 47
17 127 -6 172 -46 91 -152 132 -249 97z m157 -46 c38 -23 69 -71 78 -118 16
-82 -53 -174 -140 -187 -58 -9 -130 24 -164 75 -20 29 -23 45 -20 95 4 70 29
113 80 138 46 23 125 22 166 -3z"/>
<path d="M13961 8038 c-32 -164 -37 -229 -12 -189 7 10 12 10 28 0 49 -30 103
21 103 99 0 54 -29 81 -71 65 -32 -12 -32 -13 -20 40 7 28 6 37 -4 37 -8 0
-18 -21 -24 -52z m89 -68 c17 -31 -5 -88 -36 -96 -36 -9 -54 10 -47 54 9 59
60 84 83 42z"/>
<path d="M16067 8083 c-2 -5 -7 -24 -11 -45 -6 -35 -7 -36 -35 -25 -40 15 -77
-10 -91 -62 -19 -73 24 -131 78 -102 15 8 22 8 25 -2 9 -25 18 3 37 114 23
133 23 129 11 129 -6 0 -12 -3 -14 -7z m-29 -131 c6 -59 -42 -104 -76 -70 -33
33 1 111 46 106 22 -2 28 -9 30 -36z"/>
<path d="M13620 8073 c0 -10 -29 -181 -35 -210 -5 -22 -3 -23 65 -23 56 0 70
3 70 15 0 11 -13 15 -54 15 l-53 0 18 103 c10 56 19 103 19 105 0 1 -7 2 -15
2 -8 0 -15 -3 -15 -7z"/>
<path d="M15304 8071 c-74 -32 -99 -178 -37 -218 37 -24 91 -8 117 36 19 33
19 33 -1 23 -11 -6 -25 -18 -33 -26 -16 -20 -64 -21 -80 -1 -20 24 -7 111 20
140 32 34 77 34 90 0 11 -29 30 -33 30 -7 0 44 -59 73 -106 53z"/>
<path d="M16140 8065 c0 -9 5 -15 11 -13 6 2 11 8 11 13 0 5 -5 11 -11 13 -6
2 -11 -4 -11 -13z"/>
<path d="M14620 8041 c0 -10 -9 -21 -20 -24 -23 -6 -27 -27 -5 -27 11 0 14
-15 12 -72 -2 -69 -1 -73 21 -76 15 -2 22 2 22 12 0 9 -7 16 -16 16 -13 0 -15
8 -9 43 10 64 15 77 31 77 8 0 14 7 14 15 0 8 -6 15 -14 15 -9 0 -12 7 -9 20
4 14 0 20 -11 20 -9 0 -16 -8 -16 -19z"/>
<path d="M16580 8041 c0 -10 -9 -21 -20 -24 -23 -6 -27 -27 -5 -27 11 0 14
-15 12 -72 -2 -69 -1 -73 21 -76 15 -2 22 2 22 12 0 9 -7 16 -16 16 -13 0 -15
8 -9 43 10 64 15 77 31 77 8 0 14 7 14 15 0 8 -6 15 -14 15 -9 0 -12 7 -9 20
4 14 0 20 -11 20 -9 0 -16 -8 -16 -19z"/>
<path d="M13799 8001 c-29 -23 -18 -39 15 -22 30 16 60 11 64 -12 3 -13 -3
-17 -27 -17 -40 0 -79 -19 -86 -42 -15 -47 30 -82 74 -58 14 7 21 7 21 0 0 -5
6 -10 14 -10 10 0 16 21 21 77 7 67 6 78 -11 90 -25 18 -58 16 -85 -6z m71
-96 c0 -16 -30 -35 -55 -35 -21 0 -31 30 -14 41 23 14 69 11 69 -6z"/>
<path d="M14174 8008 c-29 -14 -48 -51 -48 -95 0 -85 106 -98 140 -17 33 80
-22 147 -92 112z m64 -30 c30 -30 0 -108 -42 -108 -29 0 -46 18 -46 50 0 54
55 91 88 58z"/>
<path d="M14325 8008 c-9 -30 -27 -160 -22 -165 13 -13 25 11 32 64 8 64 18
83 46 83 11 0 19 7 19 15 0 18 -21 20 -38 3 -9 -9 -12 -9 -12 0 0 16 -20 15
-25 0z"/>
<path d="M14449 8001 c-29 -23 -18 -39 15 -22 30 16 60 11 64 -12 3 -13 -3
-17 -27 -17 -40 0 -79 -19 -86 -42 -15 -47 30 -82 74 -58 14 7 21 7 21 0 0 -5
6 -10 14 -10 10 0 16 21 21 77 7 67 6 78 -11 90 -25 18 -58 16 -85 -6z m71
-96 c0 -16 -30 -35 -55 -35 -21 0 -31 30 -14 41 23 14 69 11 69 -6z"/>
<path d="M14744 8008 c-29 -14 -48 -51 -48 -95 0 -85 106 -98 140 -17 33 80
-22 147 -92 112z m64 -30 c30 -30 0 -108 -42 -108 -29 0 -46 18 -46 50 0 54
55 91 88 58z"/>
<path d="M14895 8008 c-9 -30 -27 -160 -22 -165 13 -13 25 11 32 64 8 64 18
83 46 83 11 0 19 7 19 15 0 18 -21 20 -38 3 -9 -9 -12 -9 -12 0 0 16 -20 15
-25 0z"/>
<path d="M15000 8018 c0 -2 7 -41 15 -87 13 -76 13 -87 0 -108 -9 -13 -22 -23
-30 -23 -8 0 -15 -7 -15 -15 0 -16 9 -19 35 -9 24 9 140 244 120 244 -9 0 -28
-28 -47 -67 l-31 -68 -10 68 c-6 46 -14 67 -23 67 -8 0 -14 -1 -14 -2z"/>
<path d="M15494 8008 c-29 -14 -48 -51 -48 -95 0 -85 106 -98 140 -17 33 80
-22 147 -92 112z m64 -30 c30 -30 0 -108 -42 -108 -29 0 -46 18 -46 50 0 54
55 91 88 58z"/>
<path d="M15674 8008 c-29 -14 -48 -51 -48 -95 0 -85 106 -98 140 -17 33 80
-22 147 -92 112z m64 -30 c30 -30 0 -108 -42 -108 -29 0 -46 18 -46 50 0 54
55 91 88 58z"/>
<path d="M15835 8008 c-9 -30 -27 -160 -22 -165 13 -13 25 11 32 64 8 64 18
83 46 83 11 0 19 7 19 15 0 18 -21 20 -38 3 -9 -9 -12 -9 -12 0 0 16 -20 15
-25 0z"/>
<path d="M16121 7968 c-23 -119 -24 -128 -9 -128 10 0 18 22 26 78 14 93 15
102 3 102 -5 0 -14 -24 -20 -52z"/>
<path d="M16205 8008 c-9 -30 -27 -160 -22 -165 13 -13 25 11 32 62 7 61 26
88 59 83 23 -3 26 -28 13 -105 -6 -33 -4 -43 6 -43 16 0 39 116 30 150 -7 25
-44 36 -72 20 -14 -7 -21 -7 -21 0 0 14 -20 13 -25 -2z"/>
<path d="M16399 8001 c-29 -23 -18 -39 15 -22 30 16 60 11 64 -12 3 -13 -3
-17 -27 -17 -40 0 -79 -19 -86 -42 -15 -47 30 -82 74 -58 14 7 21 7 21 0 0 -5
6 -10 14 -10 10 0 16 21 21 77 7 67 6 78 -11 90 -25 18 -58 16 -85 -6z m71
-96 c0 -16 -30 -35 -55 -35 -21 0 -31 30 -14 41 23 14 69 11 69 -6z"/>
<path d="M16694 8008 c-29 -14 -48 -51 -48 -95 0 -85 106 -98 140 -17 33 80
-22 147 -92 112z m64 -30 c30 -30 0 -108 -42 -108 -29 0 -46 18 -46 50 0 54
55 91 88 58z"/>
<path d="M16855 8008 c-9 -30 -27 -160 -22 -165 13 -13 25 11 32 64 8 64 18
83 46 83 11 0 19 7 19 15 0 18 -21 20 -38 3 -9 -9 -12 -9 -12 0 0 16 -20 15
-25 0z"/>
<path d="M15261 7506 c-84 -30 -140 -128 -127 -220 12 -79 99 -166 166 -166
17 0 20 -6 20 -43 l0 -43 -75 -22 c-41 -12 -80 -22 -86 -22 -6 0 -52 38 -101
85 -73 69 -93 83 -105 73 -16 -13 11 -44 129 -149 l67 -60 72 21 c39 12 78 24
85 27 12 4 14 -51 14 -334 l0 -339 -116 -103 c-94 -84 -113 -105 -103 -117 6
-8 15 -14 19 -14 4 0 55 43 114 96 59 52 111 94 116 92 4 -2 48 -53 97 -114
81 -102 91 -110 107 -98 22 15 29 3 -108 174 l-75 95 -3 300 c-2 165 -2 301
-2 303 1 2 36 -44 79 -102 42 -58 80 -106 85 -106 4 0 13 6 19 13 8 11 -11 44
-84 145 -92 127 -95 132 -95 185 0 51 2 56 28 65 41 14 103 71 118 109 20 47
17 127 -6 172 -46 91 -152 132 -249 97z m157 -46 c38 -23 69 -71 78 -118 16
-82 -53 -174 -140 -187 -58 -9 -130 24 -164 75 -20 29 -23 45 -20 95 4 70 29
113 80 138 46 23 125 22 166 -3z"/>
<path d="M3740 7353 c0 -10 -29 -181 -35 -210 -4 -16 -1 -23 9 -23 10 0 17 15
22 46 6 43 8 45 37 42 26 -3 33 -10 46 -45 8 -24 21 -43 28 -43 17 0 16 9 -3
55 -15 36 -14 37 10 60 34 32 36 87 4 109 -23 16 -118 23 -118 9z m108 -58 c4
-36 -18 -55 -66 -55 -31 0 -34 2 -28 23 3 12 6 32 6 45 0 21 4 23 43 20 38 -3
42 -6 45 -33z"/>
<path d="M4750 7345 c0 -9 5 -15 11 -13 6 2 11 8 11 13 0 5 -5 11 -11 13 -6 2
-11 -4 -11 -13z"/>
<path d="M5190 7345 c0 -9 5 -15 11 -13 6 2 11 8 11 13 0 5 -5 11 -11 13 -6 2
-11 -4 -11 -13z"/>
<path d="M4640 7321 c0 -10 -9 -21 -20 -24 -23 -6 -27 -27 -5 -27 11 0 14 -15
12 -72 -2 -69 -1 -73 21 -76 15 -2 22 2 22 12 0 9 -7 16 -16 16 -13 0 -15 8
-9 43 10 64 15 77 31 77 8 0 14 7 14 15 0 8 -6 15 -14 15 -9 0 -12 7 -9 20 4
14 0 20 -11 20 -9 0 -16 -8 -16 -19z"/>
<path d="M5440 7321 c0 -10 -9 -21 -20 -24 -23 -6 -27 -27 -5 -27 11 0 14 -15
12 -72 -2 -69 -1 -73 21 -76 15 -2 22 2 22 12 0 9 -7 16 -16 16 -13 0 -15 8
-9 43 10 64 15 77 31 77 8 0 14 7 14 15 0 8 -6 15 -14 15 -9 0 -12 7 -9 20 4
14 0 20 -11 20 -9 0 -16 -8 -16 -19z"/>
<path d="M3954 7288 c-28 -13 -44 -49 -44 -98 0 -51 34 -78 82 -64 47 14 50
37 4 29 -38 -8 -66 6 -66 31 0 10 16 14 60 14 l60 0 0 30 c0 33 -31 70 -57 69
-10 0 -28 -5 -39 -11z m64 -40 c3 -15 -4 -18 -37 -18 -43 0 -50 7 -29 28 18
18 62 11 66 -10z"/>
<path d="M4123 7290 c-48 -20 -63 -119 -23 -152 29 -23 51 -23 84 3 29 23 34
39 11 39 -8 0 -15 -4 -15 -10 0 -16 -49 -23 -65 -10 -19 16 -19 60 1 88 17 25
62 30 70 7 7 -17 34 -21 34 -5 0 17 -39 50 -57 49 -10 0 -28 -4 -40 -9z"/>
<path d="M4294 7288 c-28 -13 -44 -49 -44 -98 0 -51 34 -78 82 -64 47 14 50
37 4 29 -38 -8 -66 6 -66 31 0 10 16 14 60 14 l60 0 0 30 c0 33 -31 70 -57 69
-10 0 -28 -5 -39 -11z m64 -40 c3 -15 -4 -18 -37 -18 -43 0 -50 7 -29 28 18
18 62 11 66 -10z"/>
<path d="M4445 7288 c-11 -36 -37 -229 -31 -235 10 -11 26 18 26 48 0 33 8 40
30 27 46 -29 100 24 100 100 0 54 -29 81 -71 65 -16 -6 -29 -7 -29 -2 0 14
-20 11 -25 -3z m95 -38 c17 -31 -5 -88 -36 -96 -44 -11 -57 1 -49 49 4 23 12
48 17 55 16 19 56 14 68 -8z"/>
<path d="M4731 7248 c-23 -119 -24 -128 -9 -128 10 0 18 22 26 78 14 93 15
102 3 102 -5 0 -14 -24 -20 -52z"/>
<path d="M4844 7288 c-29 -14 -48 -51 -48 -95 0 -85 106 -98 140 -17 33 80
-22 147 -92 112z m64 -30 c30 -30 0 -108 -42 -108 -29 0 -46 18 -46 50 0 54
55 91 88 58z"/>
<path d="M4995 7288 c-9 -30 -27 -160 -22 -165 13 -13 25 11 32 62 7 61 26 88
59 83 23 -3 26 -28 13 -105 -6 -33 -4 -43 6 -43 16 0 39 116 30 150 -7 25 -44
36 -72 20 -14 -7 -21 -7 -21 0 0 14 -20 13 -25 -2z"/>
<path d="M5171 7248 c-23 -119 -24 -128 -9 -128 10 0 18 22 26 78 14 93 15
102 3 102 -5 0 -14 -24 -20 -52z"/>
<path d="M5272 7284 c-35 -25 -26 -64 18 -79 24 -8 35 -18 35 -31 0 -23 -30
-30 -61 -13 -33 17 -44 1 -15 -22 30 -25 66 -24 92 2 31 31 21 61 -29 84 -23
11 -41 24 -39 30 6 16 37 18 63 4 33 -17 44 -1 15 22 -28 23 -49 24 -79 3z"/>
<path d="M13881 5758 c-22 -109 -33 -189 -28 -195 13 -13 25 11 32 62 7 61 26
88 59 83 23 -3 26 -28 13 -105 -6 -33 -4 -43 6 -43 16 0 39 116 30 150 -7 25
-44 36 -72 20 -24 -12 -24 -10 -12 43 7 28 6 37 -4 37 -8 0 -18 -21 -24 -52z"/>
<path d="M16120 5802 c0 -5 -9 -58 -20 -118 -24 -130 -23 -124 -7 -124 9 0 19
37 31 113 11 61 21 118 24 125 2 6 -3 12 -12 12 -9 0 -16 -4 -16 -8z"/>
<path d="M13724 5791 c-74 -32 -99 -178 -37 -218 37 -24 91 -8 117 36 19 33
19 33 -1 23 -11 -6 -25 -18 -33 -26 -16 -20 -64 -21 -80 -1 -20 24 -7 111 20
140 32 34 77 34 90 0 11 -29 30 -33 30 -7 0 44 -59 73 -106 53z"/>
<path d="M14530 5785 c0 -9 5 -15 11 -13 6 2 11 8 11 13 0 5 -5 11 -11 13 -6
2 -11 -4 -11 -13z"/>
<path d="M15210 5785 c0 -10 11 -15 35 -15 40 0 39 5 20 -97 -18 -95 -19 -116
-3 -111 7 3 20 47 30 104 9 54 17 100 17 102 1 1 16 2 35 2 21 0 36 6 40 15 4
13 -9 15 -84 15 -73 0 -90 -3 -90 -15z"/>
<path d="M16570 5785 c0 -9 5 -15 11 -13 6 2 11 8 11 13 0 5 -5 11 -11 13 -6
2 -11 -4 -11 -13z"/>
<path d="M14780 5761 c0 -10 -9 -21 -20 -24 -23 -6 -27 -27 -5 -27 11 0 14
-15 12 -72 -2 -69 -1 -73 21 -76 15 -2 22 2 22 12 0 9 -7 16 -16 16 -13 0 -15
8 -9 43 10 64 15 77 31 77 8 0 14 7 14 15 0 8 -6 15 -14 15 -9 0 -12 7 -9 20
4 14 0 20 -11 20 -9 0 -16 -8 -16 -19z"/>
<path d="M16810 5761 c0 -10 -9 -21 -20 -24 -23 -6 -27 -27 -5 -27 11 0 14
-15 12 -72 -2 -69 -1 -73 21 -76 15 -2 22 2 22 12 0 9 -7 16 -16 16 -13 0 -15
8 -9 43 10 64 15 77 31 77 8 0 14 7 14 15 0 8 -6 15 -14 15 -9 0 -12 7 -9 20
4 14 0 20 -11 20 -9 0 -16 -8 -16 -19z"/>
<path d="M14084 5728 c-28 -13 -44 -49 -44 -98 0 -51 34 -78 82 -64 47 14 50
37 4 29 -38 -8 -66 6 -66 31 0 10 16 14 60 14 l60 0 0 30 c0 33 -31 70 -57 69
-10 0 -28 -5 -39 -11z m64 -40 c3 -15 -4 -18 -37 -18 -43 0 -50 7 -29 28 18
18 62 11 66 -10z"/>
<path d="M14225 5728 c-9 -30 -27 -160 -22 -165 14 -13 26 12 32 67 7 64 21
83 57 78 25 -3 29 -26 15 -105 -6 -34 -4 -43 7 -43 10 0 16 17 21 53 9 66 29
99 58 95 21 -3 22 -8 19 -75 -2 -70 10 -98 21 -50 18 72 19 124 2 140 -21 21
-44 22 -73 1 -12 -8 -22 -10 -22 -5 0 16 -46 24 -69 11 -14 -7 -21 -7 -21 0 0
14 -20 13 -25 -2z"/>
<path d="M14511 5688 c-23 -119 -24 -128 -9 -128 10 0 18 22 26 78 14 93 15
102 3 102 -5 0 -14 -24 -20 -52z"/>
<path d="M14612 5724 c-35 -25 -26 -64 18 -79 24 -8 35 -18 35 -31 0 -23 -30
-30 -61 -13 -33 17 -44 1 -15 -22 30 -25 66 -24 92 2 31 31 21 61 -29 84 -23
11 -41 24 -39 30 6 16 37 18 63 4 33 -17 44 -1 15 22 -28 23 -49 24 -79 3z"/>
<path d="M14865 5728 c-9 -30 -27 -160 -22 -165 13 -13 25 11 32 64 8 64 18
83 46 83 11 0 19 7 19 15 0 18 -21 20 -38 3 -9 -9 -12 -9 -12 0 0 16 -20 15
-25 0z"/>
<path d="M14970 5738 c0 -2 7 -41 15 -87 13 -76 13 -87 0 -108 -9 -13 -22 -23
-30 -23 -8 0 -15 -7 -15 -15 0 -16 9 -19 35 -9 24 9 140 244 120 244 -9 0 -28
-28 -47 -67 l-31 -68 -10 68 c-6 46 -14 67 -23 67 -8 0 -14 -1 -14 -2z"/>
<path d="M15424 5728 c-28 -13 -44 -49 -44 -98 0 -51 34 -78 82 -64 47 14 50
37 4 29 -38 -8 -66 6 -66 31 0 10 16 14 60 14 l60 0 0 30 c0 33 -31 70 -57 69
-10 0 -28 -5 -39 -11z m64 -40 c3 -15 -4 -18 -37 -18 -43 0 -50 7 -29 28 18
18 62 11 66 -10z"/>
<path d="M15593 5730 c-48 -20 -63 -119 -23 -152 29 -23 51 -23 84 3 29 23 34
39 11 39 -8 0 -15 -4 -15 -10 0 -16 -49 -23 -65 -10 -19 16 -19 60 1 88 17 25
62 30 70 7 7 -17 34 -21 34 -5 0 17 -39 50 -57 49 -10 0 -28 -4 -40 -9z"/>
<path d="M15735 5728 c-9 -30 -27 -160 -22 -165 13 -13 25 11 32 62 7 61 26
88 59 83 23 -3 26 -28 13 -105 -6 -33 -4 -43 6 -43 16 0 39 116 30 150 -7 25
-44 36 -72 20 -14 -7 -21 -7 -21 0 0 14 -20 13 -25 -2z"/>
<path d="M15944 5728 c-29 -14 -48 -51 -48 -95 0 -85 106 -98 140 -17 33 80
-22 147 -92 112z m64 -30 c30 -30 0 -108 -42 -108 -29 0 -46 18 -46 50 0 54
55 91 88 58z"/>
<path d="M16214 5728 c-29 -14 -48 -51 -48 -95 0 -85 106 -98 140 -17 33 80
-22 147 -92 112z m64 -30 c30 -30 0 -108 -42 -108 -29 0 -46 18 -46 50 0 54
55 91 88 58z"/>
<path d="M16383 5725 c-13 -9 -27 -33 -33 -54 -20 -74 24 -131 79 -102 18 10
20 9 14 -6 -3 -10 -10 -24 -16 -30 -12 -16 -59 -17 -74 -2 -7 7 -13 7 -17 1
-9 -14 33 -42 62 -42 42 0 67 38 81 125 7 44 15 90 18 103 4 16 1 22 -11 22
-9 0 -16 -5 -16 -10 0 -7 -6 -7 -19 0 -27 14 -43 13 -68 -5z m75 -53 c6 -59
-42 -104 -76 -70 -33 33 1 111 46 106 22 -2 28 -9 30 -36z"/>
<path d="M16551 5688 c-23 -119 -24 -128 -9 -128 10 0 18 22 26 78 14 93 15
102 3 102 -5 0 -14 -24 -20 -52z"/>
<path d="M16652 5724 c-35 -25 -26 -64 18 -79 24 -8 35 -18 35 -31 0 -23 -30
-30 -61 -13 -33 17 -44 1 -15 -22 30 -25 66 -24 92 2 31 31 21 61 -29 84 -23
11 -41 24 -39 30 6 16 37 18 63 4 33 -17 44 -1 15 22 -28 23 -49 24 -79 3z"/>
<path d="M15261 5236 c-84 -30 -140 -128 -127 -220 12 -79 99 -166 166 -166
17 0 20 -6 20 -43 l0 -43 -75 -22 c-41 -12 -80 -22 -86 -22 -6 0 -52 38 -101
85 -73 69 -93 83 -105 73 -16 -13 11 -44 129 -149 l67 -60 72 21 c39 12 78 24
85 27 12 4 14 -51 14 -334 l0 -339 -116 -103 c-94 -84 -113 -105 -103 -117 6
-8 15 -14 19 -14 4 0 55 43 114 96 59 52 111 94 116 92 4 -2 48 -53 97 -114
81 -102 91 -110 107 -98 22 15 29 3 -108 174 l-75 95 -3 300 c-2 165 -2 301
-2 303 1 2 36 -44 79 -102 42 -58 80 -106 85 -106 4 0 13 6 19 13 8 11 -11 44
-84 145 -92 127 -95 132 -95 185 0 51 2 56 28 65 41 14 103 71 118 109 20 47
17 127 -6 172 -46 91 -152 132 -249 97z m157 -46 c38 -23 69 -71 78 -118 16
-82 -53 -174 -140 -187 -58 -9 -130 24 -164 75 -20 29 -23 45 -20 95 4 70 29
113 80 138 46 23 125 22 166 -3z"/>
<path d="M3427 4713 c-2 -5 -7 -24 -11 -45 -6 -35 -7 -36 -35 -25 -40 15 -77
-10 -91 -62 -19 -73 24 -131 78 -102 15 8 22 8 25 -2 9 -25 18 3 37 114 23
133 23 129 11 129 -6 0 -12 -3 -14 -7z m-29 -131 c6 -59 -42 -104 -76 -70 -33
33 1 111 46 106 22 -2 28 -9 30 -36z"/>
<path d="M3930 4712 c0 -5 -9 -58 -20 -118 -24 -130 -23 -124 -7 -124 9 0 19
37 31 113 11 61 21 118 24 125 2 6 -3 12 -12 12 -9 0 -16 -4 -16 -8z"/>
<path d="M4431 4668 c-32 -164 -37 -229 -12 -189 7 10 12 10 28 0 49 -30 103
21 103 99 0 54 -29 81 -71 65 -32 -12 -32 -13 -20 40 7 28 6 37 -4 37 -8 0
-18 -21 -24 -52z m89 -68 c17 -31 -5 -88 -36 -96 -36 -9 -54 10 -47 54 9 59
60 84 83 42z"/>
<path d="M5211 4668 c-22 -109 -33 -189 -28 -195 13 -13 25 11 32 62 7 61 26
88 59 83 23 -3 26 -28 13 -105 -6 -33 -4 -43 6 -43 16 0 39 116 30 150 -7 25
-44 36 -72 20 -24 -12 -24 -10 -12 43 7 28 6 37 -4 37 -8 0 -18 -21 -24 -52z"/>
<path d="M2860 4703 c0 -10 -29 -181 -35 -210 -4 -16 -1 -23 9 -23 13 0 36 93
36 148 0 11 4 23 8 26 4 2 16 -36 26 -85 10 -50 23 -89 30 -89 6 0 33 41 59
91 27 50 51 89 53 87 2 -3 -3 -39 -11 -82 -18 -94 -18 -96 -2 -96 8 0 19 40
33 120 19 119 19 121 0 118 -12 -2 -37 -35 -71 -96 -29 -52 -55 -90 -57 -85
-3 4 -13 47 -23 96 -15 71 -21 87 -37 87 -10 0 -18 -3 -18 -7z"/>
<path d="M3500 4695 c0 -9 5 -15 11 -13 6 2 11 8 11 13 0 5 -5 11 -11 13 -6 2
-11 -4 -11 -13z"/>
<path d="M4090 4703 c0 -10 -29 -181 -35 -210 -5 -22 -3 -23 65 -23 56 0 70 3
70 15 0 11 -13 15 -54 15 l-53 0 18 103 c10 56 19 103 19 105 0 1 -7 2 -15 2
-8 0 -15 -3 -15 -7z"/>
<path d="M4680 4695 c0 -10 11 -15 35 -15 40 0 39 5 20 -97 -18 -95 -19 -116
-3 -111 7 3 20 47 30 104 9 54 17 100 17 102 1 1 16 2 35 2 21 0 36 6 40 15 4
13 -9 15 -84 15 -73 0 -90 -3 -90 -15z"/>
<path d="M5580 4695 c0 -9 5 -15 11 -13 6 2 11 8 11 13 0 5 -5 11 -11 13 -6 2
-11 -4 -11 -13z"/>
<path d="M5830 4695 c0 -9 5 -15 11 -13 6 2 11 8 11 13 0 5 -5 11 -11 13 -6 2
-11 -4 -11 -13z"/>
<path d="M3154 4638 c-28 -13 -44 -49 -44 -98 0 -51 34 -78 82 -64 47 14 50
37 4 29 -38 -8 -66 6 -66 31 0 10 16 14 60 14 l60 0 0 30 c0 33 -31 70 -57 69
-10 0 -28 -5 -39 -11z m64 -40 c3 -15 -4 -18 -37 -18 -43 0 -50 7 -29 28 18
18 62 11 66 -10z"/>
<path d="M3481 4598 c-23 -119 -24 -128 -9 -128 10 0 18 22 26 78 14 93 15
102 3 102 -5 0 -14 -24 -20 -52z"/>
<path d="M3593 4640 c-48 -20 -63 -119 -23 -152 29 -23 51 -23 84 3 29 23 34
39 11 39 -8 0 -15 -4 -15 -10 0 -16 -49 -23 -65 -10 -19 16 -19 60 1 88 17 25
62 30 70 7 7 -17 34 -21 34 -5 0 17 -39 50 -57 49 -10 0 -28 -4 -40 -9z"/>
<path d="M3749 4631 c-29 -23 -18 -39 15 -22 30 16 60 11 64 -12 3 -13 -3 -17
-27 -17 -40 0 -79 -19 -86 -42 -15 -47 30 -82 74 -58 14 7 21 7 21 0 0 -5 6
-10 14 -10 10 0 16 21 21 77 7 67 6 78 -11 90 -25 18 -58 16 -85 -6z m71 -96
c0 -16 -30 -35 -55 -35 -21 0 -31 30 -14 41 23 14 69 11 69 -6z"/>
<path d="M4269 4631 c-29 -23 -18 -39 15 -22 30 16 60 11 64 -12 3 -13 -3 -17
-27 -17 -40 0 -79 -19 -86 -42 -15 -47 30 -82 74 -58 14 7 21 7 21 0 0 -5 6
-10 14 -10 10 0 16 21 21 77 7 67 6 78 -11 90 -25 18 -58 16 -85 -6z m71 -96
c0 -16 -30 -35 -55 -35 -21 0 -31 30 -14 41 23 14 69 11 69 -6z"/>
<path d="M4894 4638 c-28 -13 -44 -49 -44 -98 0 -51 34 -78 82 -64 47 14 50
37 4 29 -38 -8 -66 6 -66 31 0 10 16 14 60 14 l60 0 0 30 c0 33 -31 70 -57 69
-10 0 -28 -5 -39 -11z m64 -40 c3 -15 -4 -18 -37 -18 -43 0 -50 7 -29 28 18
18 62 11 66 -10z"/>
<path d="M5063 4640 c-48 -20 -63 -119 -23 -152 29 -23 51 -23 84 3 29 23 34
39 11 39 -8 0 -15 -4 -15 -10 0 -16 -49 -23 -65 -10 -19 16 -19 60 1 88 17 25
62 30 70 7 7 -17 34 -21 34 -5 0 17 -39 50 -57 49 -10 0 -28 -4 -40 -9z"/>
<path d="M5385 4638 c-9 -30 -27 -160 -22 -165 13 -13 25 11 32 62 7 61 26 88
59 83 23 -3 26 -28 13 -105 -6 -33 -4 -43 6 -43 16 0 39 116 30 150 -7 25 -44
36 -72 20 -14 -7 -21 -7 -21 0 0 14 -20 13 -25 -2z"/>
<path d="M5561 4598 c-23 -119 -24 -128 -9 -128 10 0 18 22 26 78 14 93 15
102 3 102 -5 0 -14 -24 -20 -52z"/>
<path d="M5673 4640 c-48 -20 -63 -119 -23 -152 29 -23 51 -23 84 3 29 23 34
39 11 39 -8 0 -15 -4 -15 -10 0 -16 -49 -23 -65 -10 -19 16 -19 60 1 88 17 25
62 30 70 7 7 -17 34 -21 34 -5 0 17 -39 50 -57 49 -10 0 -28 -4 -40 -9z"/>
<path d="M5811 4598 c-23 -119 -24 -128 -9 -128 10 0 18 22 26 78 14 93 15
102 3 102 -5 0 -14 -24 -20 -52z"/>
<path d="M5919 4631 c-29 -23 -18 -39 15 -22 30 16 60 11 64 -12 3 -13 -3 -17
-27 -17 -40 0 -79 -19 -86 -42 -15 -47 30 -82 74 -58 14 7 21 7 21 0 0 -5 6
-10 14 -10 10 0 16 21 21 77 7 67 6 78 -11 90 -25 18 -58 16 -85 -6z m71 -96
c0 -16 -30 -35 -55 -35 -21 0 -31 30 -14 41 23 14 69 11 69 -6z"/>
<path d="M6075 4638 c-9 -30 -27 -160 -22 -165 13 -13 25 11 32 62 7 61 26 88
59 83 23 -3 26 -28 13 -105 -6 -33 -4 -43 6 -43 16 0 39 116 30 150 -7 25 -44
36 -72 20 -14 -7 -21 -7 -21 0 0 14 -20 13 -25 -2z"/>
<path d="M6272 4634 c-35 -25 -26 -64 18 -79 24 -8 35 -18 35 -31 0 -23 -30
-30 -61 -13 -33 17 -44 1 -15 -22 30 -25 66 -24 92 2 31 31 21 61 -29 84 -23
11 -41 24 -39 30 6 16 37 18 63 4 33 -17 44 -1 15 22 -28 23 -49 24 -79 3z"/>
<path d="M4427 3799 c-22 -11 -51 -40 -68 -66 -54 -86 -36 -200 40 -264 20
-16 48 -33 64 -36 25 -5 27 -9 27 -61 0 -58 0 -58 -174 -295 -21 -28 -21 -29
-2 -43 19 -14 35 4 161 181 12 17 14 -18 14 -281 l1 -301 -101 -127 c-94 -118
-101 -129 -86 -144 9 -9 18 -14 20 -11 2 2 43 54 92 114 49 61 90 112 92 114
2 4 110 -89 199 -171 29 -27 31 -28 46 -11 15 17 8 25 -97 118 l-114 100 0
338 c-1 196 3 337 8 337 5 0 38 -9 73 -20 34 -11 71 -20 80 -20 10 0 62 42
115 94 77 74 95 97 86 107 -10 10 -32 -6 -106 -74 l-94 -86 -82 25 -81 25 0
39 c0 38 2 40 42 51 78 20 148 113 148 195 0 63 -51 144 -110 174 -52 27 -141
26 -193 -1z m173 -29 c60 -31 85 -73 85 -147 0 -47 -5 -68 -21 -90 -70 -95
-200 -99 -269 -8 -62 81 -36 197 55 243 55 27 99 28 150 2z"/>
<path d="M15050 3542 c0 -5 -9 -58 -20 -118 -24 -130 -23 -124 -7 -124 9 0 19
37 31 113 11 61 21 118 24 125 2 6 -3 12 -12 12 -9 0 -16 -4 -16 -8z"/>
<path d="M14093 3528 c-28 -13 -44 -58 -31 -82 5 -10 30 -26 54 -36 45 -20 56
-44 32 -68 -22 -22 -88 -12 -88 14 0 8 -7 14 -15 14 -16 0 -20 -18 -7 -36 36
-54 152 -31 152 30 0 32 -14 47 -61 70 -49 24 -57 37 -34 60 23 22 62 20 77
-4 15 -23 38 -27 38 -6 0 20 -48 56 -74 55 -11 0 -31 -5 -43 -11z"/>
<path d="M14790 3525 c0 -9 5 -15 11 -13 6 2 11 8 11 13 0 5 -5 11 -11 13 -6
2 -11 -4 -11 -13z"/>
<path d="M15130 3525 c0 -9 5 -15 11 -13 6 2 11 8 11 13 0 5 -5 11 -11 13 -6
2 -11 -4 -11 -13z"/>
<path d="M15560 3533 c0 -10 -29 -181 -35 -210 -5 -21 -2 -23 35 -23 93 0 140
47 140 140 0 69 -29 100 -95 100 -25 0 -45 -3 -45 -7z m109 -54 c33 -59 -17
-149 -82 -149 l-34 0 15 91 15 90 36 -3 c26 -2 39 -10 50 -29z"/>
<path d="M15380 3501 c0 -10 -9 -21 -20 -24 -23 -6 -27 -27 -5 -27 11 0 14
-15 12 -72 -2 -69 -1 -73 21 -76 15 -2 22 2 22 12 0 9 -7 16 -16 16 -13 0 -15
8 -9 43 10 64 15 77 31 77 8 0 14 7 14 15 0 8 -6 15 -14 15 -9 0 -12 7 -9 20
4 14 0 20 -11 20 -9 0 -16 -8 -16 -19z"/>
<path d="M16140 3501 c0 -10 -9 -21 -20 -24 -23 -6 -27 -27 -5 -27 11 0 14
-15 12 -72 -2 -69 -1 -73 21 -76 15 -2 22 2 22 12 0 9 -7 16 -16 16 -13 0 -15
8 -9 43 10 64 15 77 31 77 8 0 14 7 14 15 0 8 -6 15 -14 15 -9 0 -12 7 -9 20
4 14 0 20 -11 20 -9 0 -16 -8 -16 -19z"/>
<path d="M14245 3468 c-11 -36 -37 -229 -31 -235 10 -11 26 18 26 48 0 33 8
40 30 27 46 -29 100 24 100 100 0 54 -29 81 -71 65 -16 -6 -29 -7 -29 -2 0 14
-20 11 -25 -3z m95 -38 c17 -31 -5 -88 -36 -96 -44 -11 -57 1 -49 49 4 23 12
48 17 55 16 19 56 14 68 -8z"/>
<path d="M14464 3468 c-28 -13 -44 -49 -44 -98 0 -51 34 -78 82 -64 47 14 50
37 4 29 -38 -8 -66 6 -66 31 0 10 16 14 60 14 l60 0 0 30 c0 33 -31 70 -57 69
-10 0 -28 -5 -39 -11z m64 -40 c3 -15 -4 -18 -37 -18 -43 0 -50 7 -29 28 18
18 62 11 66 -10z"/>
<path d="M14633 3470 c-48 -20 -63 -119 -23 -152 29 -23 51 -23 84 3 29 23 34
39 11 39 -8 0 -15 -4 -15 -10 0 -16 -49 -23 -65 -10 -19 16 -19 60 1 88 17 25
62 30 70 7 7 -17 34 -21 34 -5 0 17 -39 50 -57 49 -10 0 -28 -4 -40 -9z"/>
<path d="M14771 3428 c-23 -119 -24 -128 -9 -128 10 0 18 22 26 78 14 93 15
102 3 102 -5 0 -14 -24 -20 -52z"/>
<path d="M14869 3461 c-29 -23 -18 -39 15 -22 30 16 60 11 64 -12 3 -13 -3
-17 -27 -17 -40 0 -79 -19 -86 -42 -15 -47 30 -82 74 -58 14 7 21 7 21 0 0 -5
6 -10 14 -10 10 0 16 21 21 77 7 67 6 78 -11 90 -25 18 -58 16 -85 -6z m71
-96 c0 -16 -30 -35 -55 -35 -21 0 -31 30 -14 41 23 14 69 11 69 -6z"/>
<path d="M15111 3428 c-23 -119 -24 -128 -9 -128 10 0 18 22 26 78 14 93 15
102 3 102 -5 0 -14 -24 -20 -52z"/>
<path d="M15212 3464 c-35 -25 -26 -64 18 -79 24 -8 35 -18 35 -31 0 -23 -30
-30 -61 -13 -33 17 -44 1 -15 -22 30 -25 66 -24 92 2 31 31 21 61 -29 84 -23
11 -41 24 -39 30 6 16 37 18 63 4 33 -17 44 -1 15 22 -28 23 -49 24 -79 3z"/>
<path d="M15794 3468 c-29 -14 -48 -51 -48 -95 0 -85 106 -98 140 -17 33 80
-22 147 -92 112z m64 -30 c30 -30 0 -108 -42 -108 -29 0 -46 18 -46 50 0 54
55 91 88 58z"/>
<path d="M15973 3470 c-48 -20 -63 -119 -23 -152 29 -23 51 -23 84 3 29 23 34
39 11 39 -8 0 -15 -4 -15 -10 0 -16 -49 -23 -65 -10 -19 16 -19 60 1 88 17 25
62 30 70 7 7 -17 34 -21 34 -5 0 17 -39 50 -57 49 -10 0 -28 -4 -40 -9z"/>
<path d="M16254 3468 c-29 -14 -48 -51 -48 -95 0 -85 106 -98 140 -17 33 80
-22 147 -92 112z m64 -30 c30 -30 0 -108 -42 -108 -29 0 -46 18 -46 50 0 54
55 91 88 58z"/>
<path d="M16415 3468 c-9 -30 -27 -160 -22 -165 13 -13 25 11 32 64 8 64 18
83 46 83 11 0 19 7 19 15 0 18 -21 20 -38 3 -9 -9 -12 -9 -12 0 0 16 -20 15
-25 0z"/>
<path d="M15261 2976 c-84 -30 -140 -128 -127 -220 12 -79 99 -166 166 -166
17 0 20 -6 20 -43 l0 -43 -75 -22 c-41 -12 -80 -22 -86 -22 -6 0 -52 38 -101
85 -73 69 -93 83 -105 73 -16 -13 11 -44 129 -149 l67 -60 72 21 c39 12 78 24
85 27 12 4 14 -51 14 -334 l0 -339 -116 -103 c-94 -84 -113 -105 -103 -117 6
-8 15 -14 19 -14 4 0 55 43 114 96 59 52 111 94 116 92 4 -2 48 -53 97 -114
81 -102 91 -110 107 -98 22 15 29 3 -108 174 l-75 95 -3 300 c-2 165 -2 301
-2 303 1 2 36 -44 79 -102 42 -58 80 -106 85 -106 4 0 13 6 19 13 8 11 -11 44
-84 145 -92 127 -95 132 -95 185 0 51 2 56 28 65 41 14 103 71 118 109 20 47
17 127 -6 172 -46 91 -152 132 -249 97z m157 -46 c38 -23 69 -71 78 -118 16
-82 -53 -174 -140 -187 -58 -9 -130 24 -164 75 -20 29 -23 45 -20 95 4 70 29
113 80 138 46 23 125 22 166 -3z"/>
<path d="M4440 2152 c0 -5 -9 -58 -20 -118 -24 -130 -23 -124 -7 -124 9 0 19
37 31 113 11 61 21 118 24 125 2 6 -3 12 -12 12 -9 0 -16 -4 -16 -8z"/>
<path d="M4274 2141 c-74 -32 -99 -178 -37 -218 37 -24 91 -8 117 36 19 33 19
33 -1 23 -11 -6 -25 -18 -33 -26 -16 -20 -64 -21 -80 -1 -20 24 -7 111 20 140
32 34 77 34 90 0 11 -29 30 -33 30 -7 0 44 -59 73 -106 53z"/>
<path d="M4520 2135 c0 -9 5 -15 11 -13 6 2 11 8 11 13 0 5 -5 11 -11 13 -6 2
-11 -4 -11 -13z"/>
<path d="M4950 2111 c0 -10 -9 -21 -20 -24 -23 -6 -27 -27 -5 -27 11 0 14 -15
12 -72 -2 -69 -1 -73 21 -76 15 -2 22 2 22 12 0 9 -7 16 -16 16 -13 0 -15 8
-9 43 10 64 15 77 31 77 8 0 14 7 14 15 0 8 -6 15 -14 15 -9 0 -12 7 -9 20 4
14 0 20 -11 20 -9 0 -16 -8 -16 -19z"/>
<path d="M4501 2038 c-23 -119 -24 -128 -9 -128 10 0 18 22 26 78 14 93 15
102 3 102 -5 0 -14 -24 -20 -52z"/>
<path d="M4614 2078 c-28 -13 -44 -49 -44 -98 0 -51 34 -78 82 -64 47 14 50
37 4 29 -38 -8 -66 6 -66 31 0 10 16 14 60 14 l60 0 0 30 c0 33 -31 70 -57 69
-10 0 -28 -5 -39 -11z m64 -40 c3 -15 -4 -18 -37 -18 -43 0 -50 7 -29 28 18
18 62 11 66 -10z"/>
<path d="M4755 2078 c-9 -30 -27 -160 -22 -165 13 -13 25 11 32 62 7 61 26 88
59 83 23 -3 26 -28 13 -105 -6 -33 -4 -43 6 -43 16 0 39 116 30 150 -7 25 -44
36 -72 20 -14 -7 -21 -7 -21 0 0 14 -20 13 -25 -2z"/>
<path d="M14637 1273 c-2 -5 -7 -24 -11 -45 -6 -35 -7 -36 -35 -25 -40 15 -77
-10 -91 -62 -19 -73 24 -131 78 -102 15 8 22 8 25 -2 9 -25 18 3 37 114 23
133 23 129 11 129 -6 0 -12 -3 -14 -7z m-29 -131 c6 -59 -42 -104 -76 -70 -33
33 1 111 46 106 22 -2 28 -9 30 -36z"/>
<path d="M14322 1150 c-45 -87 -59 -120 -48 -120 9 0 22 14 31 30 14 27 20 30
64 30 46 0 49 -2 55 -30 3 -16 12 -30 20 -30 11 0 12 9 1 63 -7 34 -18 88 -25
120 -6 31 -17 57 -23 57 -7 0 -40 -54 -75 -120z m78 58 c0 -7 3 -30 6 -50 l7
-38 -37 0 c-20 0 -36 2 -36 5 0 2 10 25 22 50 21 44 38 58 38 33z"/>
<path d="M15000 1255 c0 -9 5 -15 11 -13 6 2 11 8 11 13 0 5 -5 11 -11 13 -6
2 -11 -4 -11 -13z"/>
<path d="M15260 1255 c0 -9 5 -15 11 -13 6 2 11 8 11 13 0 5 -5 11 -11 13 -6
2 -11 -4 -11 -13z"/>
<path d="M15510 1231 c0 -10 -9 -21 -20 -24 -23 -6 -27 -27 -5 -27 11 0 14
-15 12 -72 -2 -69 -1 -73 21 -76 15 -2 22 2 22 12 0 9 -7 16 -16 16 -13 0 -15
8 -9 43 10 64 15 77 31 77 8 0 14 7 14 15 0 8 -6 15 -14 15 -9 0 -12 7 -9 20
4 14 0 20 -11 20 -9 0 -16 -8 -16 -19z"/>
<path d="M15900 1231 c0 -10 -9 -21 -20 -24 -23 -6 -27 -27 -5 -27 11 0 14
-15 12 -72 -2 -69 -1 -73 21 -76 15 -2 22 2 22 12 0 9 -7 16 -16 16 -13 0 -15
8 -9 43 10 64 15 77 31 77 8 0 14 7 14 15 0 8 -6 15 -14 15 -9 0 -12 7 -9 20
4 14 0 20 -11 20 -9 0 -16 -8 -16 -19z"/>
<path d="M14705 1198 c-9 -30 -27 -160 -22 -165 14 -13 26 12 32 67 7 64 21
83 57 78 25 -3 29 -26 15 -105 -6 -34 -4 -43 7 -43 10 0 16 17 21 53 9 66 29
99 58 95 21 -3 22 -8 19 -75 -2 -70 10 -98 21 -50 18 72 19 124 2 140 -21 21
-44 22 -73 1 -12 -8 -22 -10 -22 -5 0 16 -46 24 -69 11 -14 -7 -21 -7 -21 0 0
14 -20 13 -25 -2z"/>
<path d="M14981 1158 c-23 -119 -24 -128 -9 -128 10 0 18 22 26 78 14 93 15
102 3 102 -5 0 -14 -24 -20 -52z"/>
<path d="M15065 1198 c-9 -30 -27 -160 -22 -165 13 -13 25 11 32 62 7 61 26
88 59 83 23 -3 26 -28 13 -105 -6 -33 -4 -43 6 -43 16 0 39 116 30 150 -7 25
-44 36 -72 20 -14 -7 -21 -7 -21 0 0 14 -20 13 -25 -2z"/>
<path d="M15241 1158 c-23 -119 -24 -128 -9 -128 10 0 18 22 26 78 14 93 15
102 3 102 -5 0 -14 -24 -20 -52z"/>
<path d="M15342 1194 c-35 -25 -26 -64 18 -79 24 -8 35 -18 35 -31 0 -23 -30
-30 -61 -13 -33 17 -44 1 -15 -22 30 -25 66 -24 92 2 31 31 21 61 -29 84 -23
11 -41 24 -39 30 6 16 37 18 63 4 33 -17 44 -1 15 22 -28 23 -49 24 -79 3z"/>
<path d="M15605 1198 c-9 -30 -27 -160 -22 -165 13 -13 25 11 32 64 8 64 18
83 46 83 11 0 19 7 19 15 0 18 -21 20 -38 3 -9 -9 -12 -9 -12 0 0 16 -20 15
-25 0z"/>
<path d="M15719 1191 c-29 -23 -18 -39 15 -22 30 16 60 11 64 -12 3 -13 -3
-17 -27 -17 -40 0 -79 -19 -86 -42 -15 -47 30 -82 74 -58 14 7 21 7 21 0 0 -5
6 -10 14 -10 10 0 16 21 21 77 7 67 6 78 -11 90 -25 18 -58 16 -85 -6z m71
-96 c0 -16 -30 -35 -55 -35 -21 0 -31 30 -14 41 23 14 69 11 69 -6z"/>
<path d="M16014 1198 c-29 -14 -48 -51 -48 -95 0 -85 106 -98 140 -17 33 80
-22 147 -92 112z m64 -30 c30 -30 0 -108 -42 -108 -29 0 -46 18 -46 50 0 54
55 91 88 58z"/>
<path d="M16175 1198 c-9 -30 -27 -160 -22 -165 13 -13 25 11 32 64 8 64 18
83 46 83 11 0 19 7 19 15 0 18 -21 20 -38 3 -9 -9 -12 -9 -12 0 0 16 -20 15
-25 0z"/>
</g>
</svg>
