<?xml version="1.0" encoding="UTF-8" standalone="no"?><svg xmlns="http://www.w3.org/2000/svg" xmlns:xlink="http://www.w3.org/1999/xlink" contentScriptType="application/ecmascript" contentStyleType="text/css" height="391px" preserveAspectRatio="none" style="width:277px;height:391px;background:#FFFFFF;" version="1.1" viewBox="0 0 277 391" width="277px" zoomAndPan="magnify"><defs><filter height="300%" id="ff6yqacj4qmz1" width="300%" x="-1" y="-1"><feGaussianBlur result="blurOut" stdDeviation="2.0"/><feColorMatrix in="blurOut" result="blurOut2" type="matrix" values="0 0 0 0 0 0 0 0 0 0 0 0 0 0 0 0 0 0 .4 0"/><feOffset dx="4.0" dy="4.0" in="blurOut2" result="blurOut3"/><feBlend in="SourceGraphic" in2="blurOut3" mode="normal"/></filter></defs><g><rect fill="#FFFFFF" filter="url(#ff6yqacj4qmz1)" height="188.4063" style="stroke:#A80036;stroke-width:1.0;" width="10" x="21" y="99.6094"/><rect fill="#FFFFFF" filter="url(#ff6yqacj4qmz1)" height="55.3516" style="stroke:#A80036;stroke-width:1.0;" width="10" x="228" y="121.9609"/><rect fill="#FFFFFF" filter="url(#ff6yqacj4qmz1)" height="64.3516" style="stroke:#A80036;stroke-width:1.0;" width="10" x="228" y="232.6641"/><line style="stroke:#A80036;stroke-width:1.0;stroke-dasharray:5.0,5.0;" x1="26" x2="26" y1="89.6094" y2="306.0156"/><line style="stroke:#A80036;stroke-width:1.0;stroke-dasharray:5.0,5.0;" x1="233" x2="233" y1="89.6094" y2="306.0156"/><text fill="#000000" font-family="sans-serif" font-size="14" lengthAdjust="spacing" textLength="36" x="5" y="86.5332">Client</text><ellipse cx="26" cy="15" fill="#FEFECE" filter="url(#ff6yqacj4qmz1)" rx="8" ry="8" style="stroke:#A80036;stroke-width:2.0;"/><path d="M26,23 L26,50 M13,31 L39,31 M26,50 L13,65 M26,50 L39,65 " fill="none" filter="url(#ff6yqacj4qmz1)" style="stroke:#A80036;stroke-width:2.0;"/><text fill="#000000" font-family="sans-serif" font-size="14" lengthAdjust="spacing" textLength="36" x="5" y="319.5488">Client</text><ellipse cx="26" cy="332.625" fill="#FEFECE" filter="url(#ff6yqacj4qmz1)" rx="8" ry="8" style="stroke:#A80036;stroke-width:2.0;"/><path d="M26,340.625 L26,367.625 M13,348.625 L39,348.625 M26,367.625 L13,382.625 M26,367.625 L39,382.625 " fill="none" filter="url(#ff6yqacj4qmz1)" style="stroke:#A80036;stroke-width:2.0;"/><rect fill="#FEFECE" filter="url(#ff6yqacj4qmz1)" height="31.6094" style="stroke:#A80036;stroke-width:1.5;" width="64" x="199" y="53"/><text fill="#000000" font-family="sans-serif" font-size="14" lengthAdjust="spacing" textLength="50" x="206" y="74.5332">:System</text><rect fill="#FEFECE" filter="url(#ff6yqacj4qmz1)" height="31.6094" style="stroke:#A80036;stroke-width:1.5;" width="64" x="199" y="305.0156"/><text fill="#000000" font-family="sans-serif" font-size="14" lengthAdjust="spacing" textLength="50" x="206" y="326.5488">:System</text><rect fill="#FFFFFF" filter="url(#ff6yqacj4qmz1)" height="188.4063" style="stroke:#A80036;stroke-width:1.0;" width="10" x="21" y="99.6094"/><rect fill="#FFFFFF" filter="url(#ff6yqacj4qmz1)" height="55.3516" style="stroke:#A80036;stroke-width:1.0;" width="10" x="228" y="121.9609"/><rect fill="#FFFFFF" filter="url(#ff6yqacj4qmz1)" height="64.3516" style="stroke:#A80036;stroke-width:1.0;" width="10" x="228" y="232.6641"/><polygon fill="#A80036" points="216,117.9609,226,121.9609,216,125.9609,220,121.9609" style="stroke:#A80036;stroke-width:1.0;"/><line style="stroke:#A80036;stroke-width:1.0;" x1="31" x2="222" y1="121.9609" y2="121.9609"/><text fill="#000000" font-family="sans-serif" font-size="13" font-weight="bold" lengthAdjust="spacing" textLength="7" x="38" y="117.1045">1</text><text fill="#000000" font-family="sans-serif" font-size="13" lengthAdjust="spacing" textLength="118" x="49" y="117.1045">asks to see all tests</text><polygon fill="#A80036" points="42,173.3125,32,177.3125,42,181.3125,38,177.3125" style="stroke:#A80036;stroke-width:1.0;"/><line style="stroke:#A80036;stroke-width:1.0;stroke-dasharray:2.0,2.0;" x1="36" x2="232" y1="177.3125" y2="177.3125"/><text fill="#000000" font-family="sans-serif" font-size="13" font-weight="bold" lengthAdjust="spacing" textLength="7" x="48" y="172.4561">2</text><text fill="#000000" font-family="sans-serif" font-size="13" lengthAdjust="spacing" textLength="158" x="59" y="172.4561">shows all tests of the client</text><polygon fill="#A80036" points="216,228.6641,226,232.6641,216,236.6641,220,232.6641" style="stroke:#A80036;stroke-width:1.0;"/><line style="stroke:#A80036;stroke-width:1.0;" x1="31" x2="222" y1="232.6641" y2="232.6641"/><text fill="#000000" font-family="sans-serif" font-size="13" font-weight="bold" lengthAdjust="spacing" textLength="7" x="38" y="227.8076">3</text><text fill="#000000" font-family="sans-serif" font-size="13" lengthAdjust="spacing" textLength="93" x="49" y="227.8076">selects one test</text><polygon fill="#A80036" points="37,284.0156,27,288.0156,37,292.0156,33,288.0156" style="stroke:#A80036;stroke-width:1.0;"/><line style="stroke:#A80036;stroke-width:1.0;stroke-dasharray:2.0,2.0;" x1="31" x2="227" y1="288.0156" y2="288.0156"/><text fill="#000000" font-family="sans-serif" font-size="13" font-weight="bold" lengthAdjust="spacing" textLength="7" x="43" y="283.1592">4</text><text fill="#000000" font-family="sans-serif" font-size="13" lengthAdjust="spacing" textLength="162" x="54" y="283.1592">shows the report of that test</text><!--MD5=[e3bcdb7a1ba9a47673f946dd4b2cde32]
@startuml
autonumber
actor "Client" as OE

activate OE
OE -> ":System" : asks to see all tests
|||
activate ":System"
":System" - -> OE : shows all tests of the client
|||
deactivate ":System"
OE -> ":System" : selects one test
|||
activate ":System"
":System" - -> OE : shows the report of that test
deactivate OE

@enduml

PlantUML version 1.2021.7(Sun May 23 13:40:07 BST 2021)
(GPL source distribution)
Java Runtime: OpenJDK Runtime Environment
JVM: Dynamic Code Evolution 64-Bit Server VM
Default Encoding: Cp1252
Language: pt
Country: PT
--></g></svg>