<?xml version="1.0" encoding="UTF-8" standalone="no"?><svg xmlns="http://www.w3.org/2000/svg" xmlns:xlink="http://www.w3.org/1999/xlink" contentScriptType="application/ecmascript" contentStyleType="text/css" height="760px" preserveAspectRatio="none" style="width:676px;height:760px;background:#FFFFFF;" version="1.1" viewBox="0 0 676 760" width="676px" zoomAndPan="magnify"><defs><filter height="300%" id="f5a6t1eie34cd" width="300%" x="-1" y="-1"><feGaussianBlur result="blurOut" stdDeviation="2.0"/><feColorMatrix in="blurOut" result="blurOut2" type="matrix" values="0 0 0 0 0 0 0 0 0 0 0 0 0 0 0 0 0 0 .4 0"/><feOffset dx="4.0" dy="4.0" in="blurOut2" result="blurOut3"/><feBlend in="SourceGraphic" in2="blurOut3" mode="normal"/></filter></defs><g><!--MD5=[b1b161df2c756d56e4dbffd285d9d408]
class CheckTestUI--><rect codeLine="2" fill="#FEFECE" filter="url(#f5a6t1eie34cd)" height="48" id="CheckTestUI" style="stroke:#A80036;stroke-width:1.5;" width="103" x="488.5" y="7"/><ellipse cx="503.5" cy="23" fill="#ADD1B2" rx="11" ry="11" style="stroke:#A80036;stroke-width:1.0;"/><path d="M505.5,19.5 Q505.7031,19 505.9375,18.75 Q506.1719,18.5 506.4375,18.5 Q506.9063,18.5 507.2031,18.7813 Q507.5,19.0625 507.5,19.7188 L507.5,21.2813 Q507.5,21.9375 507.2188,22.2188 Q506.9375,22.5 506.5,22.5 Q506.1094,22.5 505.8594,22.3281 Q505.6094,22.1563 505.5,21.7031 Q505.4531,21.3906 505.2813,21.2188 Q504.9688,20.8906 504.4063,20.7031 Q503.8438,20.5 503.2813,20.5 Q502.5781,20.5 501.9844,20.7813 Q501.4063,21.0625 500.9531,21.6875 Q500.5,22.3125 500.5,23.1719 L500.5,24.0938 Q500.5,25.125 501.3438,25.8125 Q502.1875,26.5 503.6875,26.5 Q504.5781,26.5 505.2031,26.2969 Q505.5625,26.1875 505.9688,25.8281 Q506.2344,25.625 506.375,25.5625 Q506.5156,25.5 506.6875,25.5 Q507.0156,25.5 507.25,25.7656 Q507.5,26.0156 507.5,26.375 Q507.5,26.7188 507.1563,27.125 Q506.6563,27.7188 505.8594,28.0469 Q504.8125,28.5 503.5313,28.5 Q502.0313,28.5 500.8281,27.9063 Q499.8594,27.4375 499.1719,26.4219 Q498.5,25.4063 498.5,24.2031 L498.5,23.1094 Q498.5,21.8594 499.0938,20.7656 Q499.7031,19.6719 500.75,19.0938 Q501.8125,18.5 503,18.5 Q503.7188,18.5 504.3438,18.75 Q504.9688,19 505.5,19.5 Z " fill="#000000"/><text fill="#000000" font-family="sans-serif" font-size="12" lengthAdjust="spacing" textLength="71" x="517.5" y="27.9102">CheckTestUI</text><line style="stroke:#A80036;stroke-width:1.5;" x1="489.5" x2="590.5" y1="39" y2="39"/><line style="stroke:#A80036;stroke-width:1.5;" x1="489.5" x2="590.5" y1="47" y2="47"/><!--MD5=[1dbac1e696c42cc74eba02b96e576884]
class CheckTestController--><rect codeLine="6" fill="#FEFECE" filter="url(#f5a6t1eie34cd)" height="144.8516" id="CheckTestController" style="stroke:#A80036;stroke-width:1.5;" width="162" x="308" y="116"/><ellipse cx="330.65" cy="132" fill="#ADD1B2" rx="11" ry="11" style="stroke:#A80036;stroke-width:1.0;"/><path d="M332.65,128.5 Q332.8531,128 333.0875,127.75 Q333.3219,127.5 333.5875,127.5 Q334.0563,127.5 334.3531,127.7813 Q334.65,128.0625 334.65,128.7188 L334.65,130.2813 Q334.65,130.9375 334.3688,131.2188 Q334.0875,131.5 333.65,131.5 Q333.2594,131.5 333.0094,131.3281 Q332.7594,131.1563 332.65,130.7031 Q332.6031,130.3906 332.4313,130.2188 Q332.1188,129.8906 331.5563,129.7031 Q330.9938,129.5 330.4313,129.5 Q329.7281,129.5 329.1344,129.7813 Q328.5563,130.0625 328.1031,130.6875 Q327.65,131.3125 327.65,132.1719 L327.65,133.0938 Q327.65,134.125 328.4938,134.8125 Q329.3375,135.5 330.8375,135.5 Q331.7281,135.5 332.3531,135.2969 Q332.7125,135.1875 333.1188,134.8281 Q333.3844,134.625 333.525,134.5625 Q333.6656,134.5 333.8375,134.5 Q334.1656,134.5 334.4,134.7656 Q334.65,135.0156 334.65,135.375 Q334.65,135.7188 334.3063,136.125 Q333.8063,136.7188 333.0094,137.0469 Q331.9625,137.5 330.6813,137.5 Q329.1813,137.5 327.9781,136.9063 Q327.0094,136.4375 326.3219,135.4219 Q325.65,134.4063 325.65,133.2031 L325.65,132.1094 Q325.65,130.8594 326.2438,129.7656 Q326.8531,128.6719 327.9,128.0938 Q328.9625,127.5 330.15,127.5 Q330.8688,127.5 331.4938,127.75 Q332.1188,128 332.65,128.5 Z " fill="#000000"/><text fill="#000000" font-family="sans-serif" font-size="12" lengthAdjust="spacing" textLength="113" x="346.35" y="136.9102">CheckTestController</text><line style="stroke:#A80036;stroke-width:1.5;" x1="309" x2="469" y1="148" y2="148"/><rect fill="none" height="6" style="stroke:#C82930;stroke-width:1.0;" width="6" x="316" y="156"/><text fill="#000000" font-family="sans-serif" font-size="11" lengthAdjust="spacing" textLength="94" x="328" y="163.4189">TestStore testStore</text><rect fill="none" height="6" style="stroke:#C82930;stroke-width:1.0;" width="6" x="316" y="169.8359"/><text fill="#000000" font-family="sans-serif" font-size="11" lengthAdjust="spacing" textLength="106" x="328" y="177.2549">ClientStore clientStore</text><rect fill="none" height="6" style="stroke:#C82930;stroke-width:1.0;" width="6" x="316" y="183.6719"/><text fill="#000000" font-family="sans-serif" font-size="11" lengthAdjust="spacing" textLength="119" x="328" y="191.0908">AuthFacade authFacade</text><rect fill="none" height="6" style="stroke:#C82930;stroke-width:1.0;" width="6" x="316" y="197.5078"/><text fill="#000000" font-family="sans-serif" font-size="11" lengthAdjust="spacing" textLength="116" x="328" y="204.9268">List&lt;Test&gt; clientTestList</text><rect fill="none" height="6" style="stroke:#C82930;stroke-width:1.0;" width="6" x="316" y="211.3438"/><text fill="#000000" font-family="sans-serif" font-size="11" lengthAdjust="spacing" textLength="54" x="328" y="218.7627">Client client</text><line style="stroke:#A80036;stroke-width:1.0;" x1="309" x2="469" y1="225.1797" y2="225.1797"/><ellipse cx="319" cy="236.1797" fill="#84BE84" rx="3" ry="3" style="stroke:#038048;stroke-width:1.0;"/><text fill="#000000" font-family="sans-serif" font-size="11" lengthAdjust="spacing" textLength="76" x="328" y="240.5986">getClientTests()</text><ellipse cx="319" cy="250.0156" fill="#84BE84" rx="3" ry="3" style="stroke:#038048;stroke-width:1.0;"/><text fill="#000000" font-family="sans-serif" font-size="11" lengthAdjust="spacing" textLength="136" x="328" y="254.4346">getTestReport(String idTest)</text><!--MD5=[0f6f7964b844a64b0496af0dda7914bd]
class TestStore--><rect codeLine="18" fill="#FEFECE" filter="url(#f5a6t1eie34cd)" height="75.6719" id="TestStore" style="stroke:#A80036;stroke-width:1.5;" width="100" x="236" y="503"/><ellipse cx="257.75" cy="519" fill="#ADD1B2" rx="11" ry="11" style="stroke:#A80036;stroke-width:1.0;"/><path d="M259.75,515.5 Q259.9531,515 260.1875,514.75 Q260.4219,514.5 260.6875,514.5 Q261.1563,514.5 261.4531,514.7813 Q261.75,515.0625 261.75,515.7188 L261.75,517.2813 Q261.75,517.9375 261.4688,518.2188 Q261.1875,518.5 260.75,518.5 Q260.3594,518.5 260.1094,518.3281 Q259.8594,518.1563 259.75,517.7031 Q259.7031,517.3906 259.5313,517.2188 Q259.2188,516.8906 258.6563,516.7031 Q258.0938,516.5 257.5313,516.5 Q256.8281,516.5 256.2344,516.7813 Q255.6563,517.0625 255.2031,517.6875 Q254.75,518.3125 254.75,519.1719 L254.75,520.0938 Q254.75,521.125 255.5938,521.8125 Q256.4375,522.5 257.9375,522.5 Q258.8281,522.5 259.4531,522.2969 Q259.8125,522.1875 260.2188,521.8281 Q260.4844,521.625 260.625,521.5625 Q260.7656,521.5 260.9375,521.5 Q261.2656,521.5 261.5,521.7656 Q261.75,522.0156 261.75,522.375 Q261.75,522.7188 261.4063,523.125 Q260.9063,523.7188 260.1094,524.0469 Q259.0625,524.5 257.7813,524.5 Q256.2813,524.5 255.0781,523.9063 Q254.1094,523.4375 253.4219,522.4219 Q252.75,521.4063 252.75,520.2031 L252.75,519.1094 Q252.75,517.8594 253.3438,516.7656 Q253.9531,515.6719 255,515.0938 Q256.0625,514.5 257.25,514.5 Q257.9688,514.5 258.5938,514.75 Q259.2188,515 259.75,515.5 Z " fill="#000000"/><text fill="#000000" font-family="sans-serif" font-size="12" lengthAdjust="spacing" textLength="53" x="273.25" y="523.9102">TestStore</text><line style="stroke:#A80036;stroke-width:1.5;" x1="237" x2="335" y1="535" y2="535"/><text fill="#000000" font-family="sans-serif" font-size="11" lengthAdjust="spacing" textLength="88" x="242" y="550.4189">List&lt;Test&gt; testList</text><line style="stroke:#A80036;stroke-width:1.0;" x1="237" x2="335" y1="556.8359" y2="556.8359"/><ellipse cx="247" cy="567.8359" fill="#84BE84" rx="3" ry="3" style="stroke:#038048;stroke-width:1.0;"/><text fill="#000000" font-family="sans-serif" font-size="11" lengthAdjust="spacing" textLength="61" x="256" y="572.2549">getTestList()</text><!--MD5=[55cb992be19579b505cea3c5691093cb]
class ClientStore--><rect codeLine="24" fill="#FEFECE" filter="url(#f5a6t1eie34cd)" height="75.6719" id="ClientStore" style="stroke:#A80036;stroke-width:1.5;" width="178" x="7" y="503"/><ellipse cx="61.25" cy="519" fill="#ADD1B2" rx="11" ry="11" style="stroke:#A80036;stroke-width:1.0;"/><path d="M63.25,515.5 Q63.4531,515 63.6875,514.75 Q63.9219,514.5 64.1875,514.5 Q64.6563,514.5 64.9531,514.7813 Q65.25,515.0625 65.25,515.7188 L65.25,517.2813 Q65.25,517.9375 64.9688,518.2188 Q64.6875,518.5 64.25,518.5 Q63.8594,518.5 63.6094,518.3281 Q63.3594,518.1563 63.25,517.7031 Q63.2031,517.3906 63.0313,517.2188 Q62.7188,516.8906 62.1563,516.7031 Q61.5938,516.5 61.0313,516.5 Q60.3281,516.5 59.7344,516.7813 Q59.1563,517.0625 58.7031,517.6875 Q58.25,518.3125 58.25,519.1719 L58.25,520.0938 Q58.25,521.125 59.0938,521.8125 Q59.9375,522.5 61.4375,522.5 Q62.3281,522.5 62.9531,522.2969 Q63.3125,522.1875 63.7188,521.8281 Q63.9844,521.625 64.125,521.5625 Q64.2656,521.5 64.4375,521.5 Q64.7656,521.5 65,521.7656 Q65.25,522.0156 65.25,522.375 Q65.25,522.7188 64.9063,523.125 Q64.4063,523.7188 63.6094,524.0469 Q62.5625,524.5 61.2813,524.5 Q59.7813,524.5 58.5781,523.9063 Q57.6094,523.4375 56.9219,522.4219 Q56.25,521.4063 56.25,520.2031 L56.25,519.1094 Q56.25,517.8594 56.8438,516.7656 Q57.4531,515.6719 58.5,515.0938 Q59.5625,514.5 60.75,514.5 Q61.4688,514.5 62.0938,514.75 Q62.7188,515 63.25,515.5 Z " fill="#000000"/><text fill="#000000" font-family="sans-serif" font-size="12" lengthAdjust="spacing" textLength="61" x="81.75" y="523.9102">ClientStore</text><line style="stroke:#A80036;stroke-width:1.5;" x1="8" x2="184" y1="535" y2="535"/><rect fill="none" height="6" style="stroke:#C82930;stroke-width:1.0;" width="6" x="15" y="543"/><text fill="#000000" font-family="sans-serif" font-size="11" lengthAdjust="spacing" textLength="100" x="27" y="550.4189">List&lt;Client&gt; clientList</text><line style="stroke:#A80036;stroke-width:1.0;" x1="8" x2="184" y1="556.8359" y2="556.8359"/><ellipse cx="18" cy="567.8359" fill="#84BE84" rx="3" ry="3" style="stroke:#038048;stroke-width:1.0;"/><text fill="#000000" font-family="sans-serif" font-size="11" lengthAdjust="spacing" textLength="152" x="27" y="572.2549">getClientFromEmail(String email)</text><!--MD5=[02e4b9b7573f1156f41e60aa5b4e25a4]
class Company--><rect codeLine="30" fill="#FEFECE" filter="url(#f5a6t1eie34cd)" height="103.3438" id="Company" style="stroke:#A80036;stroke-width:1.5;" width="132" x="133" y="322"/><ellipse cx="169.15" cy="338" fill="#ADD1B2" rx="11" ry="11" style="stroke:#A80036;stroke-width:1.0;"/><path d="M171.15,334.5 Q171.3531,334 171.5875,333.75 Q171.8219,333.5 172.0875,333.5 Q172.5563,333.5 172.8531,333.7813 Q173.15,334.0625 173.15,334.7188 L173.15,336.2813 Q173.15,336.9375 172.8688,337.2188 Q172.5875,337.5 172.15,337.5 Q171.7594,337.5 171.5094,337.3281 Q171.2594,337.1563 171.15,336.7031 Q171.1031,336.3906 170.9313,336.2188 Q170.6188,335.8906 170.0563,335.7031 Q169.4938,335.5 168.9313,335.5 Q168.2281,335.5 167.6344,335.7813 Q167.0563,336.0625 166.6031,336.6875 Q166.15,337.3125 166.15,338.1719 L166.15,339.0938 Q166.15,340.125 166.9938,340.8125 Q167.8375,341.5 169.3375,341.5 Q170.2281,341.5 170.8531,341.2969 Q171.2125,341.1875 171.6188,340.8281 Q171.8844,340.625 172.025,340.5625 Q172.1656,340.5 172.3375,340.5 Q172.6656,340.5 172.9,340.7656 Q173.15,341.0156 173.15,341.375 Q173.15,341.7188 172.8063,342.125 Q172.3063,342.7188 171.5094,343.0469 Q170.4625,343.5 169.1813,343.5 Q167.6813,343.5 166.4781,342.9063 Q165.5094,342.4375 164.8219,341.4219 Q164.15,340.4063 164.15,339.2031 L164.15,338.1094 Q164.15,336.8594 164.7438,335.7656 Q165.3531,334.6719 166.4,334.0938 Q167.4625,333.5 168.65,333.5 Q169.3688,333.5 169.9938,333.75 Q170.6188,334 171.15,334.5 Z " fill="#000000"/><text fill="#000000" font-family="sans-serif" font-size="12" lengthAdjust="spacing" textLength="53" x="187.85" y="342.9102">Company</text><line style="stroke:#A80036;stroke-width:1.5;" x1="134" x2="264" y1="354" y2="354"/><rect fill="none" height="6" style="stroke:#C82930;stroke-width:1.0;" width="6" x="141" y="362"/><text fill="#000000" font-family="sans-serif" font-size="11" lengthAdjust="spacing" textLength="94" x="153" y="369.4189">TestStore testStore</text><rect fill="none" height="6" style="stroke:#C82930;stroke-width:1.0;" width="6" x="141" y="375.8359"/><text fill="#000000" font-family="sans-serif" font-size="11" lengthAdjust="spacing" textLength="106" x="153" y="383.2549">ClientStore clientStore</text><line style="stroke:#A80036;stroke-width:1.0;" x1="134" x2="264" y1="389.6719" y2="389.6719"/><ellipse cx="144" cy="400.6719" fill="#84BE84" rx="3" ry="3" style="stroke:#038048;stroke-width:1.0;"/><text fill="#000000" font-family="sans-serif" font-size="11" lengthAdjust="spacing" textLength="70" x="153" y="405.0908">getTestStore()</text><ellipse cx="144" cy="414.5078" fill="#84BE84" rx="3" ry="3" style="stroke:#038048;stroke-width:1.0;"/><text fill="#000000" font-family="sans-serif" font-size="11" lengthAdjust="spacing" textLength="75" x="153" y="418.9268">getClientStore()</text><!--MD5=[144698ec4d0188f6929a3b58a3eeb1f6]
class TestMapper--><rect codeLine="38" fill="#FEFECE" filter="url(#f5a6t1eie34cd)" height="61.8359" id="TestMapper" style="stroke:#A80036;stroke-width:1.5;" width="125" x="513.5" y="342.5"/><ellipse cx="541.1" cy="358.5" fill="#ADD1B2" rx="11" ry="11" style="stroke:#A80036;stroke-width:1.0;"/><path d="M543.1,355 Q543.3031,354.5 543.5375,354.25 Q543.7719,354 544.0375,354 Q544.5063,354 544.8031,354.2813 Q545.1,354.5625 545.1,355.2188 L545.1,356.7813 Q545.1,357.4375 544.8188,357.7188 Q544.5375,358 544.1,358 Q543.7094,358 543.4594,357.8281 Q543.2094,357.6563 543.1,357.2031 Q543.0531,356.8906 542.8813,356.7188 Q542.5688,356.3906 542.0063,356.2031 Q541.4438,356 540.8813,356 Q540.1781,356 539.5844,356.2813 Q539.0063,356.5625 538.5531,357.1875 Q538.1,357.8125 538.1,358.6719 L538.1,359.5938 Q538.1,360.625 538.9438,361.3125 Q539.7875,362 541.2875,362 Q542.1781,362 542.8031,361.7969 Q543.1625,361.6875 543.5688,361.3281 Q543.8344,361.125 543.975,361.0625 Q544.1156,361 544.2875,361 Q544.6156,361 544.85,361.2656 Q545.1,361.5156 545.1,361.875 Q545.1,362.2188 544.7563,362.625 Q544.2563,363.2188 543.4594,363.5469 Q542.4125,364 541.1313,364 Q539.6313,364 538.4281,363.4063 Q537.4594,362.9375 536.7719,361.9219 Q536.1,360.9063 536.1,359.7031 L536.1,358.6094 Q536.1,357.3594 536.6938,356.2656 Q537.3031,355.1719 538.35,354.5938 Q539.4125,354 540.6,354 Q541.3188,354 541.9438,354.25 Q542.5688,354.5 543.1,355 Z " fill="#000000"/><text fill="#000000" font-family="sans-serif" font-size="12" lengthAdjust="spacing" textLength="65" x="557.9" y="363.4102">TestMapper</text><line style="stroke:#A80036;stroke-width:1.5;" x1="514.5" x2="637.5" y1="374.5" y2="374.5"/><line style="stroke:#A80036;stroke-width:1.5;" x1="514.5" x2="637.5" y1="382.5" y2="382.5"/><ellipse cx="524.5" cy="393.5" fill="#84BE84" rx="3" ry="3" style="stroke:#038048;stroke-width:1.0;"/><text fill="#000000" font-family="sans-serif" font-size="11" lengthAdjust="spacing" textLength="99" x="533.5" y="397.9189">toDto(testList, client)</text><!--MD5=[9fb704ffefcaf68bf1a361787afa998b]
class TestDTO--><rect codeLine="42" fill="#FEFECE" filter="url(#f5a6t1eie34cd)" height="61.8359" id="TestDTO" style="stroke:#A80036;stroke-width:1.5;" width="125" x="513.5" y="510"/><ellipse cx="548.3" cy="526" fill="#ADD1B2" rx="11" ry="11" style="stroke:#A80036;stroke-width:1.0;"/><path d="M550.3,522.5 Q550.5031,522 550.7375,521.75 Q550.9719,521.5 551.2375,521.5 Q551.7063,521.5 552.0031,521.7813 Q552.3,522.0625 552.3,522.7188 L552.3,524.2813 Q552.3,524.9375 552.0188,525.2188 Q551.7375,525.5 551.3,525.5 Q550.9094,525.5 550.6594,525.3281 Q550.4094,525.1563 550.3,524.7031 Q550.2531,524.3906 550.0813,524.2188 Q549.7688,523.8906 549.2063,523.7031 Q548.6438,523.5 548.0813,523.5 Q547.3781,523.5 546.7844,523.7813 Q546.2063,524.0625 545.7531,524.6875 Q545.3,525.3125 545.3,526.1719 L545.3,527.0938 Q545.3,528.125 546.1438,528.8125 Q546.9875,529.5 548.4875,529.5 Q549.3781,529.5 550.0031,529.2969 Q550.3625,529.1875 550.7688,528.8281 Q551.0344,528.625 551.175,528.5625 Q551.3156,528.5 551.4875,528.5 Q551.8156,528.5 552.05,528.7656 Q552.3,529.0156 552.3,529.375 Q552.3,529.7188 551.9563,530.125 Q551.4563,530.7188 550.6594,531.0469 Q549.6125,531.5 548.3313,531.5 Q546.8313,531.5 545.6281,530.9063 Q544.6594,530.4375 543.9719,529.4219 Q543.3,528.4063 543.3,527.2031 L543.3,526.1094 Q543.3,524.8594 543.8938,523.7656 Q544.5031,522.6719 545.55,522.0938 Q546.6125,521.5 547.8,521.5 Q548.5188,521.5 549.1438,521.75 Q549.7688,522 550.3,522.5 Z " fill="#000000"/><text fill="#000000" font-family="sans-serif" font-size="12" lengthAdjust="spacing" textLength="49" x="566.7" y="530.9102">TestDTO</text><line style="stroke:#A80036;stroke-width:1.5;" x1="514.5" x2="637.5" y1="542" y2="542"/><line style="stroke:#A80036;stroke-width:1.5;" x1="514.5" x2="637.5" y1="550" y2="550"/><ellipse cx="524.5" cy="561" fill="#84BE84" rx="3" ry="3" style="stroke:#038048;stroke-width:1.0;"/><text fill="#000000" font-family="sans-serif" font-size="11" lengthAdjust="spacing" textLength="99" x="533.5" y="565.4189">toDto(testList, client)</text><!--MD5=[df38be88ccee13e832d6fafd6288a4ca]
class Test--><rect codeLine="46" fill="#FEFECE" filter="url(#f5a6t1eie34cd)" height="89.5078" id="Test" style="stroke:#A80036;stroke-width:1.5;" width="132" x="291" y="657"/><ellipse cx="340.75" cy="673" fill="#ADD1B2" rx="11" ry="11" style="stroke:#A80036;stroke-width:1.0;"/><path d="M342.75,669.5 Q342.9531,669 343.1875,668.75 Q343.4219,668.5 343.6875,668.5 Q344.1563,668.5 344.4531,668.7813 Q344.75,669.0625 344.75,669.7188 L344.75,671.2813 Q344.75,671.9375 344.4688,672.2188 Q344.1875,672.5 343.75,672.5 Q343.3594,672.5 343.1094,672.3281 Q342.8594,672.1563 342.75,671.7031 Q342.7031,671.3906 342.5313,671.2188 Q342.2188,670.8906 341.6563,670.7031 Q341.0938,670.5 340.5313,670.5 Q339.8281,670.5 339.2344,670.7813 Q338.6563,671.0625 338.2031,671.6875 Q337.75,672.3125 337.75,673.1719 L337.75,674.0938 Q337.75,675.125 338.5938,675.8125 Q339.4375,676.5 340.9375,676.5 Q341.8281,676.5 342.4531,676.2969 Q342.8125,676.1875 343.2188,675.8281 Q343.4844,675.625 343.625,675.5625 Q343.7656,675.5 343.9375,675.5 Q344.2656,675.5 344.5,675.7656 Q344.75,676.0156 344.75,676.375 Q344.75,676.7188 344.4063,677.125 Q343.9063,677.7188 343.1094,678.0469 Q342.0625,678.5 340.7813,678.5 Q339.2813,678.5 338.0781,677.9063 Q337.1094,677.4375 336.4219,676.4219 Q335.75,675.4063 335.75,674.2031 L335.75,673.1094 Q335.75,671.8594 336.3438,670.7656 Q336.9531,669.6719 338,669.0938 Q339.0625,668.5 340.25,668.5 Q340.9688,668.5 341.5938,668.75 Q342.2188,669 342.75,669.5 Z " fill="#000000"/><text fill="#000000" font-family="sans-serif" font-size="12" lengthAdjust="spacing" textLength="24" x="361.25" y="677.9102">Test</text><line style="stroke:#A80036;stroke-width:1.5;" x1="292" x2="422" y1="689" y2="689"/><rect fill="none" height="6" style="stroke:#C82930;stroke-width:1.0;" width="6" x="299" y="697"/><text fill="#000000" font-family="sans-serif" font-size="11" lengthAdjust="spacing" textLength="60" x="311" y="704.4189">String idTest</text><rect fill="none" height="6" style="stroke:#C82930;stroke-width:1.0;" width="6" x="299" y="710.8359"/><text fill="#000000" font-family="sans-serif" font-size="11" lengthAdjust="spacing" textLength="106" x="311" y="718.2549">TestReport testReport</text><line style="stroke:#A80036;stroke-width:1.0;" x1="292" x2="422" y1="724.6719" y2="724.6719"/><ellipse cx="302" cy="735.6719" fill="#84BE84" rx="3" ry="3" style="stroke:#038048;stroke-width:1.0;"/><text fill="#000000" font-family="sans-serif" font-size="11" lengthAdjust="spacing" textLength="76" x="311" y="740.0908">getTestReport()</text><!--MD5=[ed6624c6556d5e7b1bd23032162d20b7]
class Client--><rect codeLine="53" fill="#FEFECE" filter="url(#f5a6t1eie34cd)" height="75.6719" id="Client" style="stroke:#A80036;stroke-width:1.5;" width="68" x="62" y="664"/><ellipse cx="78.8" cy="680" fill="#ADD1B2" rx="11" ry="11" style="stroke:#A80036;stroke-width:1.0;"/><path d="M80.8,676.5 Q81.0031,676 81.2375,675.75 Q81.4719,675.5 81.7375,675.5 Q82.2063,675.5 82.5031,675.7813 Q82.8,676.0625 82.8,676.7188 L82.8,678.2813 Q82.8,678.9375 82.5188,679.2188 Q82.2375,679.5 81.8,679.5 Q81.4094,679.5 81.1594,679.3281 Q80.9094,679.1563 80.8,678.7031 Q80.7531,678.3906 80.5813,678.2188 Q80.2688,677.8906 79.7063,677.7031 Q79.1438,677.5 78.5813,677.5 Q77.8781,677.5 77.2844,677.7813 Q76.7063,678.0625 76.2531,678.6875 Q75.8,679.3125 75.8,680.1719 L75.8,681.0938 Q75.8,682.125 76.6438,682.8125 Q77.4875,683.5 78.9875,683.5 Q79.8781,683.5 80.5031,683.2969 Q80.8625,683.1875 81.2688,682.8281 Q81.5344,682.625 81.675,682.5625 Q81.8156,682.5 81.9875,682.5 Q82.3156,682.5 82.55,682.7656 Q82.8,683.0156 82.8,683.375 Q82.8,683.7188 82.4563,684.125 Q81.9563,684.7188 81.1594,685.0469 Q80.1125,685.5 78.8313,685.5 Q77.3313,685.5 76.1281,684.9063 Q75.1594,684.4375 74.4719,683.4219 Q73.8,682.4063 73.8,681.2031 L73.8,680.1094 Q73.8,678.8594 74.3938,677.7656 Q75.0031,676.6719 76.05,676.0938 Q77.1125,675.5 78.3,675.5 Q79.0188,675.5 79.6438,675.75 Q80.2688,676 80.8,676.5 Z " fill="#000000"/><text fill="#000000" font-family="sans-serif" font-size="12" lengthAdjust="spacing" textLength="32" x="93.2" y="684.9102">Client</text><line style="stroke:#A80036;stroke-width:1.5;" x1="63" x2="129" y1="696" y2="696"/><rect fill="none" height="6" style="stroke:#C82930;stroke-width:1.0;" width="6" x="70" y="704"/><text fill="#000000" font-family="sans-serif" font-size="11" lengthAdjust="spacing" textLength="42" x="82" y="711.4189">String tin</text><line style="stroke:#A80036;stroke-width:1.0;" x1="63" x2="129" y1="717.8359" y2="717.8359"/><ellipse cx="73" cy="728.8359" fill="#84BE84" rx="3" ry="3" style="stroke:#038048;stroke-width:1.0;"/><text fill="#000000" font-family="sans-serif" font-size="11" lengthAdjust="spacing" textLength="37" x="82" y="733.2549">getTin()</text><!--MD5=[3933042722406f60c8a6c836266f8b33]
link CheckTestUI to CheckTestController--><path codeLine="59" d="M517.39,55.28 C502.54,70.58 482.19,91.53 462.08,112.24 " fill="none" id="CheckTestUI-to-CheckTestController" style="stroke:#A80036;stroke-width:1.0;stroke-dasharray:7.0,7.0;"/><polygon fill="#A80036" points="458.59,115.83,467.7315,112.1648,462.0752,112.2448,461.9952,106.5885,458.59,115.83" style="stroke:#A80036;stroke-width:1.0;"/><!--MD5=[c0bd8518dd06491ba55761c691863efa]
link CheckTestController to TestStore--><path codeLine="60" d="M367.91,261.27 C346.96,332.57 315.54,439.47 298.34,498 " fill="none" id="CheckTestController-to-TestStore" style="stroke:#A80036;stroke-width:1.0;stroke-dasharray:7.0,7.0;"/><polygon fill="#A80036" points="296.93,502.81,303.3106,495.3075,298.3431,498.0139,295.6368,493.0464,296.93,502.81" style="stroke:#A80036;stroke-width:1.0;"/><!--MD5=[fa96b0c2cf06d204bfef6c280a68cf77]
link CheckTestController to ClientStore--><path codeLine="61" d="M307.87,205.89 C244.32,223.28 159.47,257.51 115,322 C79.11,374.06 81.85,450.57 88.17,497.73 " fill="none" id="CheckTestController-to-ClientStore" style="stroke:#A80036;stroke-width:1.0;stroke-dasharray:7.0,7.0;"/><polygon fill="#A80036" points="88.87,502.77,91.5953,493.3057,88.1829,497.8174,83.6712,494.405,88.87,502.77" style="stroke:#A80036;stroke-width:1.0;"/><!--MD5=[2e5093c3928216f0b606e2203bb4fe87]
link CheckTestController to Company--><path codeLine="62" d="M314.72,261.04 C294.92,280.12 273.85,300.41 255.19,318.38 " fill="none" id="CheckTestController-to-Company" style="stroke:#A80036;stroke-width:1.0;stroke-dasharray:7.0,7.0;"/><polygon fill="#A80036" points="251.49,321.95,260.7451,318.5822,255.0892,318.4793,255.1921,312.8234,251.49,321.95" style="stroke:#A80036;stroke-width:1.0;"/><!--MD5=[992903efd39658ec77c072802426d3a7]
link CheckTestController to TestMapper--><path codeLine="63" d="M462.1,261.04 C489.41,287.76 519.16,316.87 541.4,338.64 " fill="none" id="CheckTestController-to-TestMapper" style="stroke:#A80036;stroke-width:1.0;stroke-dasharray:7.0,7.0;"/><polygon fill="#A80036" points="545.19,342.34,541.5618,333.1838,541.6189,338.8404,535.9624,338.8975,545.19,342.34" style="stroke:#A80036;stroke-width:1.0;"/><!--MD5=[f6fda4afaf882dd39139bcbf06c50c8c]
link TestMapper to TestDTO--><path codeLine="64" d="M576,404.86 C576,433.08 576,475.13 576,504.81 " fill="none" id="TestMapper-to-TestDTO" style="stroke:#A80036;stroke-width:1.0;stroke-dasharray:7.0,7.0;"/><polygon fill="#A80036" points="576,509.84,580,500.84,576,504.84,572,500.84,576,509.84" style="stroke:#A80036;stroke-width:1.0;"/><!--MD5=[2156411b22f49f60283b2ec7bf6624f0]
link CheckTestController to TestDTO--><path codeLine="65" d="M417.59,261.23 C437.49,308.77 465.81,371.91 496,425 C512.07,453.26 533.17,483.36 549.67,505.68 " fill="none" id="CheckTestController-to-TestDTO" style="stroke:#A80036;stroke-width:1.0;stroke-dasharray:7.0,7.0;"/><polygon fill="#A80036" points="552.69,509.76,550.5505,500.1463,549.7152,505.7412,544.1204,504.906,552.69,509.76" style="stroke:#A80036;stroke-width:1.0;"/><!--MD5=[7866d5b3fa52645b7432cf023af16b92]
link CheckTestUI to TestDTO--><path codeLine="66" d="M552.82,55.12 C578.58,103.09 635.9,217.64 656,322 C664.66,366.95 669.7,381.32 656,425 C646.54,455.15 626.08,484.31 608.22,505.73 " fill="none" id="CheckTestUI-to-TestDTO" style="stroke:#A80036;stroke-width:1.0;stroke-dasharray:7.0,7.0;"/><polygon fill="#A80036" points="604.92,509.64,613.7877,505.3548,608.1504,505.8236,607.6815,500.1862,604.92,509.64" style="stroke:#A80036;stroke-width:1.0;"/><!--MD5=[7f6cf7f175eae0af66201860de5de971]
link Company to TestStore--><path codeLine="67" d="M225.58,425.05 C237.89,448.48 252.35,475.99 264.04,498.22 " fill="none" id="Company-to-TestStore" style="stroke:#A80036;stroke-width:1.0;"/><polygon fill="#A80036" points="266.49,502.88,265.8419,493.0525,264.163,498.4545,258.761,496.7756,266.49,502.88" style="stroke:#A80036;stroke-width:1.0;"/><text fill="#000000" font-family="sans-serif" font-size="13" lengthAdjust="spacing" textLength="28" x="252" y="469.4951">uses</text><text fill="#000000" font-family="sans-serif" font-size="13" lengthAdjust="spacing" textLength="7" x="221.8256" y="446.9199">1</text><text fill="#000000" font-family="sans-serif" font-size="13" lengthAdjust="spacing" textLength="5" x="257.5695" y="492.2205">*</text><!--MD5=[a11230341c8e65219708844feaa40162]
link Company to ClientStore--><path codeLine="68" d="M167.54,425.05 C152.89,448.58 135.69,476.22 121.83,498.5 " fill="none" id="Company-to-ClientStore" style="stroke:#A80036;stroke-width:1.0;"/><polygon fill="#A80036" points="119.1,502.88,127.2536,497.3557,121.7436,498.636,120.4632,493.1259,119.1,502.88" style="stroke:#A80036;stroke-width:1.0;"/><text fill="#000000" font-family="sans-serif" font-size="13" lengthAdjust="spacing" textLength="28" x="149" y="469.4951">uses</text><text fill="#000000" font-family="sans-serif" font-size="13" lengthAdjust="spacing" textLength="7" x="155.6238" y="446.9199">1</text><text fill="#000000" font-family="sans-serif" font-size="13" lengthAdjust="spacing" textLength="5" x="117.7694" y="492.2205">*</text><!--MD5=[b0f4f6db8206580012ef9cd998ed01c5]
link TestStore to Test--><path codeLine="69" d="M302.65,579.28 C312.37,601.05 324.75,628.77 335.24,652.26 " fill="none" id="TestStore-to-Test" style="stroke:#A80036;stroke-width:1.0;"/><polygon fill="#A80036" points="337.31,656.9,337.3157,647.0511,335.282,652.3298,330.0033,650.296,337.31,656.9" style="stroke:#A80036;stroke-width:1.0;"/><text fill="#000000" font-family="sans-serif" font-size="13" lengthAdjust="spacing" textLength="37" x="325" y="623.4951">knows</text><text fill="#000000" font-family="sans-serif" font-size="13" lengthAdjust="spacing" textLength="7" x="297.7458" y="600.2052">1</text><text fill="#000000" font-family="sans-serif" font-size="13" lengthAdjust="spacing" textLength="5" x="328.7735" y="645.9995">*</text><!--MD5=[6693af9352d3b56e637cd55745955464]
link CheckTestController to Test--><path codeLine="70" d="M387.24,261.25 C384.69,348.02 378.9,498.45 367,627 C366.26,635.02 365.29,643.5 364.24,651.75 " fill="none" id="CheckTestController-to-Test" style="stroke:#A80036;stroke-width:1.0;stroke-dasharray:7.0,7.0;"/><polygon fill="#A80036" points="363.58,656.85,368.7042,648.4392,364.223,651.8915,360.7707,647.4103,363.58,656.85" style="stroke:#A80036;stroke-width:1.0;"/><!--MD5=[1d934105a045dbf126514c6917bd5072]
link ClientStore to Client--><path codeLine="71" d="M96,579.28 C96,603.1 96,634.05 96,658.78 " fill="none" id="ClientStore-to-Client" style="stroke:#A80036;stroke-width:1.0;"/><polygon fill="#A80036" points="96,663.96,100,654.96,96,658.96,92,654.96,96,663.96" style="stroke:#A80036;stroke-width:1.0;"/><text fill="#000000" font-family="sans-serif" font-size="13" lengthAdjust="spacing" textLength="37" x="97" y="623.4951">knows</text><text fill="#000000" font-family="sans-serif" font-size="13" lengthAdjust="spacing" textLength="7" x="88.4422" y="600.2052">1</text><text fill="#000000" font-family="sans-serif" font-size="13" lengthAdjust="spacing" textLength="5" x="90.5391" y="653.0292">*</text><!--MD5=[d8e5443fa3cf38fcdc298793712dc3ab]
@startuml

class CheckTestUI{

}

class CheckTestController{
-TestStore testStore
-ClientStore clientStore
-AuthFacade authFacade
-List<Test> clientTestList
-Client client
- -
+getClientTests()
+getTestReport(String idTest)
}


class TestStore{
List<Test> testList
- -
+getTestList()
}

class ClientStore{
-List<Client> clientList
- -
+getClientFromEmail(String email)
}

class Company{
-TestStore testStore
-ClientStore clientStore
- -
+getTestStore()
+getClientStore()
}

class TestMapper{
+toDto(testList, client)
}

class TestDTO{
+toDto(testList, client)
}

class Test{
-String idTest
-TestReport testReport
- -
+getTestReport()
}

class Client{
-String tin
- -
+getTin()
}

CheckTestUI ..> CheckTestController
CheckTestController ..> TestStore
CheckTestController ..> ClientStore
CheckTestController ..> Company
CheckTestController ..> TestMapper
TestMapper ..> TestDTO
CheckTestController ..> TestDTO
CheckTestUI ..> TestDTO
Company "1" - -> "*" TestStore : uses
Company "1" - -> "*" ClientStore : uses
TestStore "1" - -> "*" Test : knows
CheckTestController ..> Test
ClientStore "1" - -> "*" Client : knows

@enduml

PlantUML version 1.2021.7(Sun May 23 13:40:07 BST 2021)
(GPL source distribution)
Java Runtime: OpenJDK Runtime Environment
JVM: Dynamic Code Evolution 64-Bit Server VM
Default Encoding: Cp1252
Language: pt
Country: PT
--></g></svg>