<?xml version="1.0" encoding="UTF-8" standalone="no"?><svg xmlns="http://www.w3.org/2000/svg" xmlns:xlink="http://www.w3.org/1999/xlink" contentScriptType="application/ecmascript" contentStyleType="text/css" height="237px" preserveAspectRatio="none" style="width:656px;height:237px;" version="1.1" viewBox="0 0 656 237" width="656px" zoomAndPan="magnify"><defs><filter height="300%" id="fhz8psg6msrp3" width="300%" x="-1" y="-1"><feGaussianBlur result="blurOut" stdDeviation="2.0"/><feColorMatrix in="blurOut" result="blurOut2" type="matrix" values="0 0 0 0 0 0 0 0 0 0 0 0 0 0 0 0 0 0 .4 0"/><feOffset dx="4.0" dy="4.0" in="blurOut2" result="blurOut3"/><feBlend in="SourceGraphic" in2="blurOut3" mode="normal"/></filter></defs><g><!--MD5=[02e4b9b7573f1156f41e60aa5b4e25a4]
class Company--><rect codeLine="6" fill="#FEFECE" filter="url(#fhz8psg6msrp3)" height="53.8359" id="Company" style="stroke:#A80036;stroke-width:1.5;" width="85" x="7" y="141.5"/><ellipse cx="22" cy="157.5" fill="#ADD1B2" rx="11" ry="11" style="stroke:#A80036;stroke-width:1.0;"/><path d="M24,154 Q24.2031,153.5 24.4375,153.25 Q24.6719,153 24.9375,153 Q25.4063,153 25.7031,153.2813 Q26,153.5625 26,154.2188 L26,155.7813 Q26,156.4375 25.7188,156.7188 Q25.4375,157 25,157 Q24.6094,157 24.3594,156.8281 Q24.1094,156.6563 24,156.2031 Q23.9531,155.8906 23.7813,155.7188 Q23.4688,155.3906 22.9063,155.2031 Q22.3438,155 21.7813,155 Q21.0781,155 20.4844,155.2813 Q19.9063,155.5625 19.4531,156.1875 Q19,156.8125 19,157.6719 L19,158.5938 Q19,159.625 19.8438,160.3125 Q20.6875,161 22.1875,161 Q23.0781,161 23.7031,160.7969 Q24.0625,160.6875 24.4688,160.3281 Q24.7344,160.125 24.875,160.0625 Q25.0156,160 25.1875,160 Q25.5156,160 25.75,160.2656 Q26,160.5156 26,160.875 Q26,161.2188 25.6563,161.625 Q25.1563,162.2188 24.3594,162.5469 Q23.3125,163 22.0313,163 Q20.5313,163 19.3281,162.4063 Q18.3594,161.9375 17.6719,160.9219 Q17,159.9063 17,158.7031 L17,157.6094 Q17,156.3594 17.5938,155.2656 Q18.2031,154.1719 19.25,153.5938 Q20.3125,153 21.5,153 Q22.2188,153 22.8438,153.25 Q23.4688,153.5 24,154 Z " fill="#000000"/><text fill="#000000" font-family="sans-serif" font-size="12" lengthAdjust="spacing" textLength="53" x="36" y="162.4102">Company</text><line style="stroke:#A80036;stroke-width:1.5;" x1="8" x2="91" y1="173.5" y2="173.5"/><text fill="#000000" font-family="sans-serif" font-size="11" lengthAdjust="spacing" textLength="64" x="13" y="188.9189">-chemicalLab</text><!--MD5=[ed6624c6556d5e7b1bd23032162d20b7]
class Client--><rect codeLine="10" fill="#FEFECE" filter="url(#fhz8psg6msrp3)" height="136.8516" id="Client" style="stroke:#A80036;stroke-width:1.5;" width="107" x="337" y="7"/><ellipse cx="371.35" cy="23" fill="#ADD1B2" rx="11" ry="11" style="stroke:#A80036;stroke-width:1.0;"/><path d="M373.35,19.5 Q373.5531,19 373.7875,18.75 Q374.0219,18.5 374.2875,18.5 Q374.7563,18.5 375.0531,18.7813 Q375.35,19.0625 375.35,19.7188 L375.35,21.2813 Q375.35,21.9375 375.0688,22.2188 Q374.7875,22.5 374.35,22.5 Q373.9594,22.5 373.7094,22.3281 Q373.4594,22.1563 373.35,21.7031 Q373.3031,21.3906 373.1313,21.2188 Q372.8188,20.8906 372.2563,20.7031 Q371.6938,20.5 371.1313,20.5 Q370.4281,20.5 369.8344,20.7813 Q369.2563,21.0625 368.8031,21.6875 Q368.35,22.3125 368.35,23.1719 L368.35,24.0938 Q368.35,25.125 369.1938,25.8125 Q370.0375,26.5 371.5375,26.5 Q372.4281,26.5 373.0531,26.2969 Q373.4125,26.1875 373.8188,25.8281 Q374.0844,25.625 374.225,25.5625 Q374.3656,25.5 374.5375,25.5 Q374.8656,25.5 375.1,25.7656 Q375.35,26.0156 375.35,26.375 Q375.35,26.7188 375.0063,27.125 Q374.5063,27.7188 373.7094,28.0469 Q372.6625,28.5 371.3813,28.5 Q369.8813,28.5 368.6781,27.9063 Q367.7094,27.4375 367.0219,26.4219 Q366.35,25.4063 366.35,24.2031 L366.35,23.1094 Q366.35,21.8594 366.9438,20.7656 Q367.5531,19.6719 368.6,19.0938 Q369.6625,18.5 370.85,18.5 Q371.5688,18.5 372.1938,18.75 Q372.8188,19 373.35,19.5 Z " fill="#000000"/><text fill="#000000" font-family="sans-serif" font-size="12" lengthAdjust="spacing" textLength="32" x="389.65" y="27.9102">Client</text><line style="stroke:#A80036;stroke-width:1.5;" x1="338" x2="443" y1="39" y2="39"/><text fill="#000000" font-family="sans-serif" font-size="11" lengthAdjust="spacing" textLength="95" x="343" y="54.4189">-citizenCardNumber</text><text fill="#000000" font-family="sans-serif" font-size="11" lengthAdjust="spacing" textLength="93" x="343" y="68.2549">-healthCareService</text><text fill="#000000" font-family="sans-serif" font-size="11" lengthAdjust="spacing" textLength="15" x="343" y="82.0908">-tin</text><text fill="#000000" font-family="sans-serif" font-size="11" lengthAdjust="spacing" textLength="46" x="343" y="95.9268">-birthdate</text><text fill="#000000" font-family="sans-serif" font-size="11" lengthAdjust="spacing" textLength="30" x="343" y="109.7627">-name</text><text fill="#000000" font-family="sans-serif" font-size="11" lengthAdjust="spacing" textLength="71" x="343" y="123.5986">-phoneNumber</text><text fill="#000000" font-family="sans-serif" font-size="11" lengthAdjust="spacing" textLength="22" x="343" y="137.4346">-sex</text><!--MD5=[df38be88ccee13e832d6fafd6288a4ca]
class Test--><rect codeLine="20" fill="#FEFECE" filter="url(#fhz8psg6msrp3)" height="109.1797" id="Test" style="stroke:#A80036;stroke-width:1.5;" width="77" x="565" y="114"/><ellipse cx="589.45" cy="130" fill="#ADD1B2" rx="11" ry="11" style="stroke:#A80036;stroke-width:1.0;"/><path d="M591.45,126.5 Q591.6531,126 591.8875,125.75 Q592.1219,125.5 592.3875,125.5 Q592.8563,125.5 593.1531,125.7813 Q593.45,126.0625 593.45,126.7188 L593.45,128.2813 Q593.45,128.9375 593.1688,129.2188 Q592.8875,129.5 592.45,129.5 Q592.0594,129.5 591.8094,129.3281 Q591.5594,129.1563 591.45,128.7031 Q591.4031,128.3906 591.2313,128.2188 Q590.9188,127.8906 590.3563,127.7031 Q589.7938,127.5 589.2313,127.5 Q588.5281,127.5 587.9344,127.7813 Q587.3563,128.0625 586.9031,128.6875 Q586.45,129.3125 586.45,130.1719 L586.45,131.0938 Q586.45,132.125 587.2938,132.8125 Q588.1375,133.5 589.6375,133.5 Q590.5281,133.5 591.1531,133.2969 Q591.5125,133.1875 591.9188,132.8281 Q592.1844,132.625 592.325,132.5625 Q592.4656,132.5 592.6375,132.5 Q592.9656,132.5 593.2,132.7656 Q593.45,133.0156 593.45,133.375 Q593.45,133.7188 593.1063,134.125 Q592.6063,134.7188 591.8094,135.0469 Q590.7625,135.5 589.4813,135.5 Q587.9813,135.5 586.7781,134.9063 Q585.8094,134.4375 585.1219,133.4219 Q584.45,132.4063 584.45,131.2031 L584.45,130.1094 Q584.45,128.8594 585.0438,127.7656 Q585.6531,126.6719 586.7,126.0938 Q587.7625,125.5 588.95,125.5 Q589.6688,125.5 590.2938,125.75 Q590.9188,126 591.45,126.5 Z " fill="#000000"/><text fill="#000000" font-family="sans-serif" font-size="12" lengthAdjust="spacing" textLength="24" x="605.55" y="134.9102">Test</text><line style="stroke:#A80036;stroke-width:1.5;" x1="566" x2="641" y1="146" y2="146"/><text fill="#000000" font-family="sans-serif" font-size="11" lengthAdjust="spacing" textLength="15" x="571" y="161.4189">-tin</text><text fill="#000000" font-family="sans-serif" font-size="11" lengthAdjust="spacing" textLength="33" x="571" y="175.2549">-idTest</text><text fill="#000000" font-family="sans-serif" font-size="11" lengthAdjust="spacing" textLength="47" x="571" y="189.0908">-nhsCode</text><text fill="#000000" font-family="sans-serif" font-size="11" lengthAdjust="spacing" textLength="65" x="571" y="202.9268">-creationDate</text><text fill="#000000" font-family="sans-serif" font-size="11" lengthAdjust="spacing" textLength="28" x="571" y="216.7627">-state</text><!--MD5=[6eee883fdf517d3604e8bd0f2058e9aa]
link Company to Client--><path codeLine="28" d="M92.07,157.1 C153.68,140.19 269.22,108.5 336.73,89.98 " fill="none" id="Company-Client" style="stroke:#A80036;stroke-width:1.0;"/><polygon fill="#000000" points="131.8218,90.353,122.3215,89.9118,123.8766,95.5802,131.8218,90.353" style="stroke:#000000;stroke-width:1.0;"/><text fill="#000000" font-family="sans-serif" font-size="13" lengthAdjust="spacing" textLength="170" x="136" y="96.9951">can access the information of</text><text fill="#000000" font-family="sans-serif" font-size="13" lengthAdjust="spacing" textLength="7" x="99.9883" y="151.3051">1</text><text fill="#000000" font-family="sans-serif" font-size="13" lengthAdjust="spacing" textLength="5" x="324.1687" y="106.5295">*</text><!--MD5=[7e4bc624457760b649895ff2ead938fa]
link Company to Test--><path codeLine="29" d="M92.15,171.38 C163.97,175.95 315.76,183.94 444,179.5 C485.35,178.07 532.66,174.54 564.75,171.86 " fill="none" id="Company-Test" style="stroke:#A80036;stroke-width:1.0;"/><polygon fill="#000000" points="368,170.6809,358.9579,167.7327,358.9519,173.6106,368,170.6809" style="stroke:#000000;stroke-width:1.0;"/><text fill="#000000" font-family="sans-serif" font-size="13" lengthAdjust="spacing" textLength="50" x="372" y="175.9951">performs</text><text fill="#000000" font-family="sans-serif" font-size="13" lengthAdjust="spacing" textLength="7" x="100.082" y="186.7894">1</text><text fill="#000000" font-family="sans-serif" font-size="13" lengthAdjust="spacing" textLength="5" x="551.8867" y="187.537">*</text><!--MD5=[502b51bc079239060389dab43b7d3470]
link Client to Test--><path codeLine="30" d="M444.2,98.73 C481.67,115.24 531.12,137.04 564.71,151.84 " fill="none" id="Client-Test" style="stroke:#A80036;stroke-width:1.0;"/><polygon fill="#000000" points="483.5754,107.6922,476.4837,101.3551,474.1132,106.7338,483.5754,107.6922" style="stroke:#000000;stroke-width:1.0;"/><text fill="#000000" font-family="sans-serif" font-size="13" lengthAdjust="spacing" textLength="46" x="488" y="110.9951">asks for</text><text fill="#000000" font-family="sans-serif" font-size="13" lengthAdjust="spacing" textLength="7" x="451.8862" y="116.4552">1</text><text fill="#000000" font-family="sans-serif" font-size="13" lengthAdjust="spacing" textLength="5" x="552.0972" y="163.7543">*</text><!--MD5=[ad017c77b028aa33e101bbcc39b58361]
@startuml
hide methods
left to right direction
skinparam classAttributeIconSize 0


class Company{
-chemicalLab
}

class Client{
-citizenCardNumber
-healthCareService
-tin
-birthdate
-name
-phoneNumber
-sex
}

class Test{
-tin
-idTest
-nhsCode
-creationDate
-state
}

Company "1" - - "*" Client : can access the information of >
Company "1" - - "*" Test : performs >
Client "1" - - "*" Test : asks for >

@enduml

PlantUML version 1.2021.2(Sun Mar 07 11:10:27 GMT 2021)
(GPL source distribution)
Java Runtime: OpenJDK Runtime Environment
JVM: OpenJDK 64-Bit Server VM
Default Encoding: Cp1252
Language: pt
Country: PT
--></g></svg>