<?xml version="1.0" encoding="UTF-8" standalone="no"?><svg xmlns="http://www.w3.org/2000/svg" xmlns:xlink="http://www.w3.org/1999/xlink" contentScriptType="application/ecmascript" contentStyleType="text/css" height="1258.75px" preserveAspectRatio="none" style="width:1442px;height:1258px;" version="1.1" viewBox="0 0 1442 1258" width="1442.5px" zoomAndPan="magnify"><defs><filter height="300%" id="f1o4p5takyi2mp" width="300%" x="-1" y="-1"><feGaussianBlur result="blurOut" stdDeviation="2.5"/><feColorMatrix in="blurOut" result="blurOut2" type="matrix" values="0 0 0 0 0 0 0 0 0 0 0 0 0 0 0 0 0 0 .4 0"/><feOffset dx="5.0" dy="5.0" in="blurOut2" result="blurOut3"/><feBlend in="SourceGraphic" in2="blurOut3" mode="normal"/></filter></defs><g><!--MD5=[a126dd63c8621c017159ae62771fbe54]
class RegisterEmployeeUI--><rect codeLine="3" fill="#FEFECE" filter="url(#f1o4p5takyi2mp)" height="60" id="RegisterEmployeeUI" style="stroke:#A80036;stroke-width:1.875;" width="182.5" x="215.625" y="8.75"/><ellipse cx="234.375" cy="28.75" fill="#ADD1B2" rx="13.75" ry="13.75" style="stroke:#A80036;stroke-width:1.25;"/><path d="M236.875,24.375 Q237.1289,23.75 237.4219,23.4375 Q237.7148,23.125 238.0469,23.125 Q238.6328,23.125 239.0039,23.4766 Q239.375,23.8281 239.375,24.6484 L239.375,26.6016 Q239.375,27.4219 239.0234,27.7734 Q238.6719,28.125 238.125,28.125 Q237.6367,28.125 237.3242,27.9102 Q237.0117,27.6953 236.875,27.1289 Q236.8164,26.7383 236.6016,26.5234 Q236.2109,26.1133 235.5078,25.8789 Q234.8047,25.625 234.1016,25.625 Q233.2227,25.625 232.4805,25.9766 Q231.7578,26.3281 231.1914,27.1094 Q230.625,27.8906 230.625,28.9648 L230.625,30.1172 Q230.625,31.4063 231.6797,32.2656 Q232.7344,33.125 234.6094,33.125 Q235.7227,33.125 236.5039,32.8711 Q236.9531,32.7344 237.4609,32.2852 Q237.793,32.0313 237.9688,31.9531 Q238.1445,31.875 238.3594,31.875 Q238.7695,31.875 239.0625,32.207 Q239.375,32.5195 239.375,32.9688 Q239.375,33.3984 238.9453,33.9063 Q238.3203,34.6484 237.3242,35.0586 Q236.0156,35.625 234.4141,35.625 Q232.5391,35.625 231.0352,34.8828 Q229.8242,34.2969 228.9648,33.0273 Q228.125,31.7578 228.125,30.2539 L228.125,28.8867 Q228.125,27.3242 228.8672,25.957 Q229.6289,24.5898 230.9375,23.8672 Q232.2656,23.125 233.75,23.125 Q234.6484,23.125 235.4297,23.4375 Q236.2109,23.75 236.875,24.375 Z " fill="#000000"/><text fill="#000000" font-family="sans-serif" font-size="15" lengthAdjust="spacing" textLength="142.5" x="251.875" y="34.8877">RegisterEmployeeUI</text><line style="stroke:#A80036;stroke-width:1.875;" x1="216.875" x2="396.875" y1="48.75" y2="48.75"/><line style="stroke:#A80036;stroke-width:1.875;" x1="216.875" x2="396.875" y1="58.75" y2="58.75"/><!--MD5=[6a4e699b59c2ecf8286aba2faa72e4bd]
class RegisterEmployeeController--><rect codeLine="6" fill="#FEFECE" filter="url(#f1o4p5takyi2mp)" height="77.2949" id="RegisterEmployeeController" style="stroke:#A80036;stroke-width:1.875;" width="235" x="189.375" y="143.75"/><ellipse cx="208.125" cy="163.75" fill="#ADD1B2" rx="13.75" ry="13.75" style="stroke:#A80036;stroke-width:1.25;"/><path d="M210.625,159.375 Q210.8789,158.75 211.1719,158.4375 Q211.4648,158.125 211.7969,158.125 Q212.3828,158.125 212.7539,158.4766 Q213.125,158.8281 213.125,159.6484 L213.125,161.6016 Q213.125,162.4219 212.7734,162.7734 Q212.4219,163.125 211.875,163.125 Q211.3867,163.125 211.0742,162.9102 Q210.7617,162.6953 210.625,162.1289 Q210.5664,161.7383 210.3516,161.5234 Q209.9609,161.1133 209.2578,160.8789 Q208.5547,160.625 207.8516,160.625 Q206.9727,160.625 206.2305,160.9766 Q205.5078,161.3281 204.9414,162.1094 Q204.375,162.8906 204.375,163.9648 L204.375,165.1172 Q204.375,166.4063 205.4297,167.2656 Q206.4844,168.125 208.3594,168.125 Q209.4727,168.125 210.2539,167.8711 Q210.7031,167.7344 211.2109,167.2852 Q211.543,167.0313 211.7188,166.9531 Q211.8945,166.875 212.1094,166.875 Q212.5195,166.875 212.8125,167.207 Q213.125,167.5195 213.125,167.9688 Q213.125,168.3984 212.6953,168.9063 Q212.0703,169.6484 211.0742,170.0586 Q209.7656,170.625 208.1641,170.625 Q206.2891,170.625 204.7852,169.8828 Q203.5742,169.2969 202.7148,168.0273 Q201.875,166.7578 201.875,165.2539 L201.875,163.8867 Q201.875,162.3242 202.6172,160.957 Q203.3789,159.5898 204.6875,158.8672 Q206.0156,158.125 207.5,158.125 Q208.3984,158.125 209.1797,158.4375 Q209.9609,158.75 210.625,159.375 Z " fill="#000000"/><text fill="#000000" font-family="sans-serif" font-size="15" lengthAdjust="spacing" textLength="195" x="225.625" y="169.8877">RegisterEmployeeController</text><line style="stroke:#A80036;stroke-width:1.875;" x1="190.625" x2="423.125" y1="183.75" y2="183.75"/><line style="stroke:#A80036;stroke-width:1.875;" x1="190.625" x2="423.125" y1="193.75" y2="193.75"/><text fill="#000000" font-family="sans-serif" font-size="13.75" lengthAdjust="spacing" textLength="191.25" x="196.875" y="213.0237">+authenticate(email, password)</text><!--MD5=[8ae808d068a8995f06b9b3ec51357f0b]
class AuthFacade--><rect codeLine="10" fill="#FEFECE" filter="url(#f1o4p5takyi2mp)" height="94.5898" id="AuthFacade" style="stroke:#A80036;stroke-width:1.875;" width="173.75" x="8.75" y="365"/><ellipse cx="51.125" cy="385" fill="#ADD1B2" rx="13.75" ry="13.75" style="stroke:#A80036;stroke-width:1.25;"/><path d="M53.625,380.625 Q53.8789,380 54.1719,379.6875 Q54.4648,379.375 54.7969,379.375 Q55.3828,379.375 55.7539,379.7266 Q56.125,380.0781 56.125,380.8984 L56.125,382.8516 Q56.125,383.6719 55.7734,384.0234 Q55.4219,384.375 54.875,384.375 Q54.3867,384.375 54.0742,384.1602 Q53.7617,383.9453 53.625,383.3789 Q53.5664,382.9883 53.3516,382.7734 Q52.9609,382.3633 52.2578,382.1289 Q51.5547,381.875 50.8516,381.875 Q49.9727,381.875 49.2305,382.2266 Q48.5078,382.5781 47.9414,383.3594 Q47.375,384.1406 47.375,385.2148 L47.375,386.3672 Q47.375,387.6563 48.4297,388.5156 Q49.4844,389.375 51.3594,389.375 Q52.4727,389.375 53.2539,389.1211 Q53.7031,388.9844 54.2109,388.5352 Q54.543,388.2813 54.7188,388.2031 Q54.8945,388.125 55.1094,388.125 Q55.5195,388.125 55.8125,388.457 Q56.125,388.7695 56.125,389.2188 Q56.125,389.6484 55.6953,390.1563 Q55.0703,390.8984 54.0742,391.3086 Q52.7656,391.875 51.1641,391.875 Q49.2891,391.875 47.7852,391.1328 Q46.5742,390.5469 45.7148,389.2773 Q44.875,388.0078 44.875,386.5039 L44.875,385.1367 Q44.875,383.5742 45.6172,382.207 Q46.3789,380.8398 47.6875,380.1172 Q49.0156,379.375 50.5,379.375 Q51.3984,379.375 52.1797,379.6875 Q52.9609,380 53.625,380.625 Z " fill="#000000"/><text fill="#000000" font-family="sans-serif" font-size="15" lengthAdjust="spacing" textLength="81.25" x="73.875" y="391.1377">AuthFacade</text><line style="stroke:#A80036;stroke-width:1.875;" x1="10" x2="181.25" y1="405" y2="405"/><line style="stroke:#A80036;stroke-width:1.875;" x1="10" x2="181.25" y1="415" y2="415"/><text fill="#000000" font-family="sans-serif" font-size="13.75" lengthAdjust="spacing" textLength="158.75" x="16.25" y="434.2737">+getCurrentUserSession()</text><text fill="#000000" font-family="sans-serif" font-size="13.75" lengthAdjust="spacing" textLength="105" x="16.25" y="451.5686">+existUser(email)</text><!--MD5=[c5b08e60048ef1bcd788d24cf324082e]
class UserSession--><rect codeLine="15" fill="#FEFECE" filter="url(#f1o4p5takyi2mp)" height="77.2949" id="UserSession" style="stroke:#A80036;stroke-width:1.875;" width="160" x="226.875" y="373.75"/><ellipse cx="258.5625" cy="393.75" fill="#ADD1B2" rx="13.75" ry="13.75" style="stroke:#A80036;stroke-width:1.25;"/><path d="M261.0625,389.375 Q261.3164,388.75 261.6094,388.4375 Q261.9023,388.125 262.2344,388.125 Q262.8203,388.125 263.1914,388.4766 Q263.5625,388.8281 263.5625,389.6484 L263.5625,391.6016 Q263.5625,392.4219 263.2109,392.7734 Q262.8594,393.125 262.3125,393.125 Q261.8242,393.125 261.5117,392.9102 Q261.1992,392.6953 261.0625,392.1289 Q261.0039,391.7383 260.7891,391.5234 Q260.3984,391.1133 259.6953,390.8789 Q258.9922,390.625 258.2891,390.625 Q257.4102,390.625 256.668,390.9766 Q255.9453,391.3281 255.3789,392.1094 Q254.8125,392.8906 254.8125,393.9648 L254.8125,395.1172 Q254.8125,396.4063 255.8672,397.2656 Q256.9219,398.125 258.7969,398.125 Q259.9102,398.125 260.6914,397.8711 Q261.1406,397.7344 261.6484,397.2852 Q261.9805,397.0313 262.1563,396.9531 Q262.332,396.875 262.5469,396.875 Q262.957,396.875 263.25,397.207 Q263.5625,397.5195 263.5625,397.9688 Q263.5625,398.3984 263.1328,398.9063 Q262.5078,399.6484 261.5117,400.0586 Q260.2031,400.625 258.6016,400.625 Q256.7266,400.625 255.2227,399.8828 Q254.0117,399.2969 253.1523,398.0273 Q252.3125,396.7578 252.3125,395.2539 L252.3125,393.8867 Q252.3125,392.3242 253.0547,390.957 Q253.8164,389.5898 255.125,388.8672 Q256.4531,388.125 257.9375,388.125 Q258.8359,388.125 259.6172,388.4375 Q260.3984,388.75 261.0625,389.375 Z " fill="#000000"/><text fill="#000000" font-family="sans-serif" font-size="15" lengthAdjust="spacing" textLength="91.25" x="278.9375" y="399.8877">UserSession</text><line style="stroke:#A80036;stroke-width:1.875;" x1="228.125" x2="385.625" y1="413.75" y2="413.75"/><line style="stroke:#A80036;stroke-width:1.875;" x1="228.125" x2="385.625" y1="423.75" y2="423.75"/><text fill="#000000" font-family="sans-serif" font-size="13.75" lengthAdjust="spacing" textLength="145" x="234.375" y="443.0237">+isLoggedInWithRole(id)</text><!--MD5=[da547346deef918ea16944ba046651ef]
class Administrator--><rect codeLine="20" fill="#FEFECE" filter="url(#f1o4p5takyi2mp)" height="232.9492" id="Administrator" style="stroke:#A80036;stroke-width:1.875;" width="571.25" x="431.25" y="296.25"/><ellipse cx="665.9375" cy="316.25" fill="#ADD1B2" rx="13.75" ry="13.75" style="stroke:#A80036;stroke-width:1.25;"/><path d="M668.4375,311.875 Q668.6914,311.25 668.9844,310.9375 Q669.2773,310.625 669.6094,310.625 Q670.1953,310.625 670.5664,310.9766 Q670.9375,311.3281 670.9375,312.1484 L670.9375,314.1016 Q670.9375,314.9219 670.5859,315.2734 Q670.2344,315.625 669.6875,315.625 Q669.1992,315.625 668.8867,315.4102 Q668.5742,315.1953 668.4375,314.6289 Q668.3789,314.2383 668.1641,314.0234 Q667.7734,313.6133 667.0703,313.3789 Q666.3672,313.125 665.6641,313.125 Q664.7852,313.125 664.043,313.4766 Q663.3203,313.8281 662.7539,314.6094 Q662.1875,315.3906 662.1875,316.4648 L662.1875,317.6172 Q662.1875,318.9063 663.2422,319.7656 Q664.2969,320.625 666.1719,320.625 Q667.2852,320.625 668.0664,320.3711 Q668.5156,320.2344 669.0234,319.7852 Q669.3555,319.5313 669.5313,319.4531 Q669.707,319.375 669.9219,319.375 Q670.332,319.375 670.625,319.707 Q670.9375,320.0195 670.9375,320.4688 Q670.9375,320.8984 670.5078,321.4063 Q669.8828,322.1484 668.8867,322.5586 Q667.5781,323.125 665.9766,323.125 Q664.1016,323.125 662.5977,322.3828 Q661.3867,321.7969 660.5273,320.5273 Q659.6875,319.2578 659.6875,317.7539 L659.6875,316.3867 Q659.6875,314.8242 660.4297,313.457 Q661.1914,312.0898 662.5,311.3672 Q663.8281,310.625 665.3125,310.625 Q666.2109,310.625 666.9922,310.9375 Q667.7734,311.25 668.4375,311.875 Z " fill="#000000"/><text fill="#000000" font-family="sans-serif" font-size="15" lengthAdjust="spacing" textLength="91.25" x="691.5625" y="322.3877">Administrator</text><line style="stroke:#A80036;stroke-width:1.875;" x1="432.5" x2="1001.25" y1="336.25" y2="336.25"/><line style="stroke:#A80036;stroke-width:1.875;" x1="432.5" x2="1001.25" y1="346.25" y2="346.25"/><text fill="#000000" font-family="sans-serif" font-size="13.75" lengthAdjust="spacing" textLength="411.25" x="438.75" y="365.5237">+createReceptionist(name, address, phone number, email, soc, role)</text><text fill="#000000" font-family="sans-serif" font-size="13.75" lengthAdjust="spacing" textLength="473.75" x="438.75" y="382.8186">+createLaboratoryCoordinator(name, address, phone number, email, soc, role)</text><text fill="#000000" font-family="sans-serif" font-size="13.75" lengthAdjust="spacing" textLength="556.25" x="438.75" y="400.1135">+createSpecialistDoctor(name, address, phone number, email, soc, role,doctorIndexNumber)</text><text fill="#000000" font-family="sans-serif" font-size="13.75" lengthAdjust="spacing" textLength="473.75" x="438.75" y="417.4084">+createChemistryTechnologist(name, address, phone number, email, soc, role)</text><text fill="#000000" font-family="sans-serif" font-size="13.75" lengthAdjust="spacing" textLength="417.5" x="438.75" y="434.7034">+createAdministrator(name, address, phone number, email, soc, role)</text><text fill="#000000" font-family="sans-serif" font-size="13.75" lengthAdjust="spacing" textLength="146.25" x="438.75" y="451.9983">+saveReceptionist(emp)</text><text fill="#000000" font-family="sans-serif" font-size="13.75" lengthAdjust="spacing" textLength="208.75" x="438.75" y="469.2932">+saveLaboratoryCoordinator(emp)</text><text fill="#000000" font-family="sans-serif" font-size="13.75" lengthAdjust="spacing" textLength="208.75" x="438.75" y="486.5881">+saveChemistryTechnologist(emp)</text><text fill="#000000" font-family="sans-serif" font-size="13.75" lengthAdjust="spacing" textLength="146.25" x="438.75" y="503.8831">+saveReceptionist(emp)</text><text fill="#000000" font-family="sans-serif" font-size="13.75" lengthAdjust="spacing" textLength="152.5" x="438.75" y="521.178">+saveAdministrator(emp)</text><!--MD5=[7421f545a0d8420c5bec41e74b387d9c]
class Employee--><rect codeLine="33" fill="#FEFECE" filter="url(#f1o4p5takyi2mp)" height="146.4746" id="Employee" style="stroke:#A80036;stroke-width:1.875;" width="121.25" x="660" y="738.75"/><ellipse cx="684.375" cy="758.75" fill="#ADD1B2" rx="13.75" ry="13.75" style="stroke:#A80036;stroke-width:1.25;"/><path d="M686.875,754.375 Q687.1289,753.75 687.4219,753.4375 Q687.7148,753.125 688.0469,753.125 Q688.6328,753.125 689.0039,753.4766 Q689.375,753.8281 689.375,754.6484 L689.375,756.6016 Q689.375,757.4219 689.0234,757.7734 Q688.6719,758.125 688.125,758.125 Q687.6367,758.125 687.3242,757.9102 Q687.0117,757.6953 686.875,757.1289 Q686.8164,756.7383 686.6016,756.5234 Q686.2109,756.1133 685.5078,755.8789 Q684.8047,755.625 684.1016,755.625 Q683.2227,755.625 682.4805,755.9766 Q681.7578,756.3281 681.1914,757.1094 Q680.625,757.8906 680.625,758.9648 L680.625,760.1172 Q680.625,761.4063 681.6797,762.2656 Q682.7344,763.125 684.6094,763.125 Q685.7227,763.125 686.5039,762.8711 Q686.9531,762.7344 687.4609,762.2852 Q687.793,762.0313 687.9688,761.9531 Q688.1445,761.875 688.3594,761.875 Q688.7695,761.875 689.0625,762.207 Q689.375,762.5195 689.375,762.9688 Q689.375,763.3984 688.9453,763.9063 Q688.3203,764.6484 687.3242,765.0586 Q686.0156,765.625 684.4141,765.625 Q682.5391,765.625 681.0352,764.8828 Q679.8242,764.2969 678.9648,763.0273 Q678.125,761.7578 678.125,760.2539 L678.125,758.8867 Q678.125,757.3242 678.8672,755.957 Q679.6289,754.5898 680.9375,753.8672 Q682.2656,753.125 683.75,753.125 Q684.6484,753.125 685.4297,753.4375 Q686.2109,753.75 686.875,754.375 Z " fill="#000000"/><text fill="#000000" font-family="sans-serif" font-size="15" lengthAdjust="spacing" textLength="68.75" x="703.125" y="764.8877">Employee</text><line style="stroke:#A80036;stroke-width:1.875;" x1="661.25" x2="780" y1="778.75" y2="778.75"/><text fill="#000000" font-family="sans-serif" font-size="13.75" lengthAdjust="spacing" textLength="76.25" x="667.5" y="798.0237">-String name</text><text fill="#000000" font-family="sans-serif" font-size="13.75" lengthAdjust="spacing" textLength="92.5" x="667.5" y="815.3186">-String function</text><text fill="#000000" font-family="sans-serif" font-size="13.75" lengthAdjust="spacing" textLength="106.25" x="667.5" y="832.6135">-Int phoneNumber</text><text fill="#000000" font-family="sans-serif" font-size="13.75" lengthAdjust="spacing" textLength="73.75" x="667.5" y="849.9084">-String email</text><text fill="#000000" font-family="sans-serif" font-size="13.75" lengthAdjust="spacing" textLength="93.75" x="667.5" y="867.2034">-String address</text><line style="stroke:#A80036;stroke-width:1.875;" x1="661.25" x2="780" y1="875.2246" y2="875.2246"/><!--MD5=[4689ca8e4e77b7b6e8001ca58433eb09]
class employeeStore--><rect codeLine="41" fill="#FEFECE" filter="url(#f1o4p5takyi2mp)" height="94.5898" id="employeeStore" style="stroke:#A80036;stroke-width:1.875;" width="143.75" x="648.75" y="1147.5"/><ellipse cx="667.5" cy="1167.5" fill="#ADD1B2" rx="13.75" ry="13.75" style="stroke:#A80036;stroke-width:1.25;"/><path d="M670,1163.125 Q670.2539,1162.5 670.5469,1162.1875 Q670.8398,1161.875 671.1719,1161.875 Q671.7578,1161.875 672.1289,1162.2266 Q672.5,1162.5781 672.5,1163.3984 L672.5,1165.3516 Q672.5,1166.1719 672.1484,1166.5234 Q671.7969,1166.875 671.25,1166.875 Q670.7617,1166.875 670.4492,1166.6602 Q670.1367,1166.4453 670,1165.8789 Q669.9414,1165.4883 669.7266,1165.2734 Q669.3359,1164.8633 668.6328,1164.6289 Q667.9297,1164.375 667.2266,1164.375 Q666.3477,1164.375 665.6055,1164.7266 Q664.8828,1165.0781 664.3164,1165.8594 Q663.75,1166.6406 663.75,1167.7148 L663.75,1168.8672 Q663.75,1170.1563 664.8047,1171.0156 Q665.8594,1171.875 667.7344,1171.875 Q668.8477,1171.875 669.6289,1171.6211 Q670.0781,1171.4844 670.5859,1171.0352 Q670.918,1170.7813 671.0938,1170.7031 Q671.2695,1170.625 671.4844,1170.625 Q671.8945,1170.625 672.1875,1170.957 Q672.5,1171.2695 672.5,1171.7188 Q672.5,1172.1484 672.0703,1172.6563 Q671.4453,1173.3984 670.4492,1173.8086 Q669.1406,1174.375 667.5391,1174.375 Q665.6641,1174.375 664.1602,1173.6328 Q662.9492,1173.0469 662.0898,1171.7773 Q661.25,1170.5078 661.25,1169.0039 L661.25,1167.6367 Q661.25,1166.0742 661.9922,1164.707 Q662.7539,1163.3398 664.0625,1162.6172 Q665.3906,1161.875 666.875,1161.875 Q667.7734,1161.875 668.5547,1162.1875 Q669.3359,1162.5 670,1163.125 Z " fill="#000000"/><text fill="#000000" font-family="sans-serif" font-size="15" lengthAdjust="spacing" textLength="103.75" x="685" y="1173.6377">employeeStore</text><line style="stroke:#A80036;stroke-width:1.875;" x1="650" x2="791.25" y1="1187.5" y2="1187.5"/><line style="stroke:#A80036;stroke-width:1.875;" x1="650" x2="791.25" y1="1197.5" y2="1197.5"/><text fill="#000000" font-family="sans-serif" font-size="13.75" lengthAdjust="spacing" textLength="93.75" x="656.25" y="1216.7737">+getEmployee()</text><text fill="#000000" font-family="sans-serif" font-size="13.75" lengthAdjust="spacing" textLength="122.5" x="656.25" y="1234.0686">+addEmployee(emp)</text><!--MD5=[99b8db98afdc2c8404e39242ef4c1e65]
class Platform--><rect codeLine="46" fill="#FEFECE" filter="url(#f1o4p5takyi2mp)" height="111.8848" id="Platform" style="stroke:#A80036;stroke-width:1.875;" width="127.5" x="656.875" y="960"/><ellipse cx="689.125" cy="980" fill="#ADD1B2" rx="13.75" ry="13.75" style="stroke:#A80036;stroke-width:1.25;"/><path d="M691.625,975.625 Q691.8789,975 692.1719,974.6875 Q692.4648,974.375 692.7969,974.375 Q693.3828,974.375 693.7539,974.7266 Q694.125,975.0781 694.125,975.8984 L694.125,977.8516 Q694.125,978.6719 693.7734,979.0234 Q693.4219,979.375 692.875,979.375 Q692.3867,979.375 692.0742,979.1602 Q691.7617,978.9453 691.625,978.3789 Q691.5664,977.9883 691.3516,977.7734 Q690.9609,977.3633 690.2578,977.1289 Q689.5547,976.875 688.8516,976.875 Q687.9727,976.875 687.2305,977.2266 Q686.5078,977.5781 685.9414,978.3594 Q685.375,979.1406 685.375,980.2148 L685.375,981.3672 Q685.375,982.6563 686.4297,983.5156 Q687.4844,984.375 689.3594,984.375 Q690.4727,984.375 691.2539,984.1211 Q691.7031,983.9844 692.2109,983.5352 Q692.543,983.2813 692.7188,983.2031 Q692.8945,983.125 693.1094,983.125 Q693.5195,983.125 693.8125,983.457 Q694.125,983.7695 694.125,984.2188 Q694.125,984.6484 693.6953,985.1563 Q693.0703,985.8984 692.0742,986.3086 Q690.7656,986.875 689.1641,986.875 Q687.2891,986.875 685.7852,986.1328 Q684.5742,985.5469 683.7148,984.2773 Q682.875,983.0078 682.875,981.5039 L682.875,980.1367 Q682.875,978.5742 683.6172,977.207 Q684.3789,975.8398 685.6875,975.1172 Q687.0156,974.375 688.5,974.375 Q689.3984,974.375 690.1797,974.6875 Q690.9609,975 691.625,975.625 Z " fill="#000000"/><text fill="#000000" font-family="sans-serif" font-size="15" lengthAdjust="spacing" textLength="57.5" x="709.625" y="986.1377">Platform</text><line style="stroke:#A80036;stroke-width:1.875;" x1="658.125" x2="783.125" y1="1000" y2="1000"/><text fill="#000000" font-family="sans-serif" font-size="13.75" lengthAdjust="spacing" textLength="112.5" x="664.375" y="1019.2737">-String designation</text><line style="stroke:#A80036;stroke-width:1.875;" x1="658.125" x2="783.125" y1="1027.2949" y2="1027.2949"/><text fill="#000000" font-family="sans-serif" font-size="13.75" lengthAdjust="spacing" textLength="101.25" x="664.375" y="1046.5686">+getEmployees()</text><text fill="#000000" font-family="sans-serif" font-size="13.75" lengthAdjust="spacing" textLength="97.5" x="664.375" y="1063.8635">+addEmployee()</text><!--MD5=[03960189e81aa2c066c762ffabbee709]
class Receptionist--><rect codeLine="52" fill="#FEFECE" filter="url(#f1o4p5takyi2mp)" height="60" id="Receptionist" style="stroke:#A80036;stroke-width:1.875;" width="126.25" x="286.25" y="603.75"/><ellipse cx="305" cy="623.75" fill="#ADD1B2" rx="13.75" ry="13.75" style="stroke:#A80036;stroke-width:1.25;"/><path d="M307.5,619.375 Q307.7539,618.75 308.0469,618.4375 Q308.3398,618.125 308.6719,618.125 Q309.2578,618.125 309.6289,618.4766 Q310,618.8281 310,619.6484 L310,621.6016 Q310,622.4219 309.6484,622.7734 Q309.2969,623.125 308.75,623.125 Q308.2617,623.125 307.9492,622.9102 Q307.6367,622.6953 307.5,622.1289 Q307.4414,621.7383 307.2266,621.5234 Q306.8359,621.1133 306.1328,620.8789 Q305.4297,620.625 304.7266,620.625 Q303.8477,620.625 303.1055,620.9766 Q302.3828,621.3281 301.8164,622.1094 Q301.25,622.8906 301.25,623.9648 L301.25,625.1172 Q301.25,626.4063 302.3047,627.2656 Q303.3594,628.125 305.2344,628.125 Q306.3477,628.125 307.1289,627.8711 Q307.5781,627.7344 308.0859,627.2852 Q308.418,627.0313 308.5938,626.9531 Q308.7695,626.875 308.9844,626.875 Q309.3945,626.875 309.6875,627.207 Q310,627.5195 310,627.9688 Q310,628.3984 309.5703,628.9063 Q308.9453,629.6484 307.9492,630.0586 Q306.6406,630.625 305.0391,630.625 Q303.1641,630.625 301.6602,629.8828 Q300.4492,629.2969 299.5898,628.0273 Q298.75,626.7578 298.75,625.2539 L298.75,623.8867 Q298.75,622.3242 299.4922,620.957 Q300.2539,619.5898 301.5625,618.8672 Q302.8906,618.125 304.375,618.125 Q305.2734,618.125 306.0547,618.4375 Q306.8359,618.75 307.5,619.375 Z " fill="#000000"/><text fill="#000000" font-family="sans-serif" font-size="15" lengthAdjust="spacing" textLength="86.25" x="322.5" y="629.8877">Receptionist</text><line style="stroke:#A80036;stroke-width:1.875;" x1="287.5" x2="411.25" y1="643.75" y2="643.75"/><line style="stroke:#A80036;stroke-width:1.875;" x1="287.5" x2="411.25" y1="653.75" y2="653.75"/><!--MD5=[052425de1c0eb6cc1c1b48342b0bb88f]
class LaboratoryCoordinator--><rect codeLine="56" fill="#FEFECE" filter="url(#f1o4p5takyi2mp)" height="60" id="LaboratoryCoordinator" style="stroke:#A80036;stroke-width:1.875;" width="193.75" x="456.25" y="603.75"/><ellipse cx="475" cy="623.75" fill="#ADD1B2" rx="13.75" ry="13.75" style="stroke:#A80036;stroke-width:1.25;"/><path d="M477.5,619.375 Q477.7539,618.75 478.0469,618.4375 Q478.3398,618.125 478.6719,618.125 Q479.2578,618.125 479.6289,618.4766 Q480,618.8281 480,619.6484 L480,621.6016 Q480,622.4219 479.6484,622.7734 Q479.2969,623.125 478.75,623.125 Q478.2617,623.125 477.9492,622.9102 Q477.6367,622.6953 477.5,622.1289 Q477.4414,621.7383 477.2266,621.5234 Q476.8359,621.1133 476.1328,620.8789 Q475.4297,620.625 474.7266,620.625 Q473.8477,620.625 473.1055,620.9766 Q472.3828,621.3281 471.8164,622.1094 Q471.25,622.8906 471.25,623.9648 L471.25,625.1172 Q471.25,626.4063 472.3047,627.2656 Q473.3594,628.125 475.2344,628.125 Q476.3477,628.125 477.1289,627.8711 Q477.5781,627.7344 478.0859,627.2852 Q478.418,627.0313 478.5938,626.9531 Q478.7695,626.875 478.9844,626.875 Q479.3945,626.875 479.6875,627.207 Q480,627.5195 480,627.9688 Q480,628.3984 479.5703,628.9063 Q478.9453,629.6484 477.9492,630.0586 Q476.6406,630.625 475.0391,630.625 Q473.1641,630.625 471.6602,629.8828 Q470.4492,629.2969 469.5898,628.0273 Q468.75,626.7578 468.75,625.2539 L468.75,623.8867 Q468.75,622.3242 469.4922,620.957 Q470.2539,619.5898 471.5625,618.8672 Q472.8906,618.125 474.375,618.125 Q475.2734,618.125 476.0547,618.4375 Q476.8359,618.75 477.5,619.375 Z " fill="#000000"/><text fill="#000000" font-family="sans-serif" font-size="15" lengthAdjust="spacing" textLength="153.75" x="492.5" y="629.8877">LaboratoryCoordinator</text><line style="stroke:#A80036;stroke-width:1.875;" x1="457.5" x2="648.75" y1="643.75" y2="643.75"/><line style="stroke:#A80036;stroke-width:1.875;" x1="457.5" x2="648.75" y1="653.75" y2="653.75"/><!--MD5=[7d96fd15f3014691d2fcaf89c5791e2a]
class SpecialistDoctor--><rect codeLine="60" fill="#FEFECE" filter="url(#f1o4p5takyi2mp)" height="60" id="SpecialistDoctor" style="stroke:#A80036;stroke-width:1.875;" width="152.5" x="783.125" y="603.75"/><ellipse cx="801.875" cy="623.75" fill="#ADD1B2" rx="13.75" ry="13.75" style="stroke:#A80036;stroke-width:1.25;"/><path d="M804.375,619.375 Q804.6289,618.75 804.9219,618.4375 Q805.2148,618.125 805.5469,618.125 Q806.1328,618.125 806.5039,618.4766 Q806.875,618.8281 806.875,619.6484 L806.875,621.6016 Q806.875,622.4219 806.5234,622.7734 Q806.1719,623.125 805.625,623.125 Q805.1367,623.125 804.8242,622.9102 Q804.5117,622.6953 804.375,622.1289 Q804.3164,621.7383 804.1016,621.5234 Q803.7109,621.1133 803.0078,620.8789 Q802.3047,620.625 801.6016,620.625 Q800.7227,620.625 799.9805,620.9766 Q799.2578,621.3281 798.6914,622.1094 Q798.125,622.8906 798.125,623.9648 L798.125,625.1172 Q798.125,626.4063 799.1797,627.2656 Q800.2344,628.125 802.1094,628.125 Q803.2227,628.125 804.0039,627.8711 Q804.4531,627.7344 804.9609,627.2852 Q805.293,627.0313 805.4688,626.9531 Q805.6445,626.875 805.8594,626.875 Q806.2695,626.875 806.5625,627.207 Q806.875,627.5195 806.875,627.9688 Q806.875,628.3984 806.4453,628.9063 Q805.8203,629.6484 804.8242,630.0586 Q803.5156,630.625 801.9141,630.625 Q800.0391,630.625 798.5352,629.8828 Q797.3242,629.2969 796.4648,628.0273 Q795.625,626.7578 795.625,625.2539 L795.625,623.8867 Q795.625,622.3242 796.3672,620.957 Q797.1289,619.5898 798.4375,618.8672 Q799.7656,618.125 801.25,618.125 Q802.1484,618.125 802.9297,618.4375 Q803.7109,618.75 804.375,619.375 Z " fill="#000000"/><text fill="#000000" font-family="sans-serif" font-size="15" lengthAdjust="spacing" textLength="112.5" x="819.375" y="629.8877">SpecialistDoctor</text><line style="stroke:#A80036;stroke-width:1.875;" x1="784.375" x2="934.375" y1="643.75" y2="643.75"/><line style="stroke:#A80036;stroke-width:1.875;" x1="784.375" x2="934.375" y1="653.75" y2="653.75"/><!--MD5=[1d2f3d5e54c9664a612b7009d6f7f68b]
class ChemistryTechnologist--><rect codeLine="64" fill="#FEFECE" filter="url(#f1o4p5takyi2mp)" height="60" id="ChemistryTechnologist" style="stroke:#A80036;stroke-width:1.875;" width="198.75" x="980" y="603.75"/><ellipse cx="998.75" cy="623.75" fill="#ADD1B2" rx="13.75" ry="13.75" style="stroke:#A80036;stroke-width:1.25;"/><path d="M1001.25,619.375 Q1001.5039,618.75 1001.7969,618.4375 Q1002.0898,618.125 1002.4219,618.125 Q1003.0078,618.125 1003.3789,618.4766 Q1003.75,618.8281 1003.75,619.6484 L1003.75,621.6016 Q1003.75,622.4219 1003.3984,622.7734 Q1003.0469,623.125 1002.5,623.125 Q1002.0117,623.125 1001.6992,622.9102 Q1001.3867,622.6953 1001.25,622.1289 Q1001.1914,621.7383 1000.9766,621.5234 Q1000.5859,621.1133 999.8828,620.8789 Q999.1797,620.625 998.4766,620.625 Q997.5977,620.625 996.8555,620.9766 Q996.1328,621.3281 995.5664,622.1094 Q995,622.8906 995,623.9648 L995,625.1172 Q995,626.4063 996.0547,627.2656 Q997.1094,628.125 998.9844,628.125 Q1000.0977,628.125 1000.8789,627.8711 Q1001.3281,627.7344 1001.8359,627.2852 Q1002.168,627.0313 1002.3438,626.9531 Q1002.5195,626.875 1002.7344,626.875 Q1003.1445,626.875 1003.4375,627.207 Q1003.75,627.5195 1003.75,627.9688 Q1003.75,628.3984 1003.3203,628.9063 Q1002.6953,629.6484 1001.6992,630.0586 Q1000.3906,630.625 998.7891,630.625 Q996.9141,630.625 995.4102,629.8828 Q994.1992,629.2969 993.3398,628.0273 Q992.5,626.7578 992.5,625.2539 L992.5,623.8867 Q992.5,622.3242 993.2422,620.957 Q994.0039,619.5898 995.3125,618.8672 Q996.6406,618.125 998.125,618.125 Q999.0234,618.125 999.8047,618.4375 Q1000.5859,618.75 1001.25,619.375 Z " fill="#000000"/><text fill="#000000" font-family="sans-serif" font-size="15" lengthAdjust="spacing" textLength="158.75" x="1016.25" y="629.8877">ChemistryTechnologist</text><line style="stroke:#A80036;stroke-width:1.875;" x1="981.25" x2="1177.5" y1="643.75" y2="643.75"/><line style="stroke:#A80036;stroke-width:1.875;" x1="981.25" x2="1177.5" y1="653.75" y2="653.75"/><!--MD5=[aecf777879c9b57ecd87deb43958b955]
class MedicalLabTechnicians--><rect codeLine="67" fill="#FEFECE" filter="url(#f1o4p5takyi2mp)" height="60" id="MedicalLabTechnicians" style="stroke:#A80036;stroke-width:1.875;" width="202.5" x="1223.125" y="603.75"/><ellipse cx="1241.875" cy="623.75" fill="#ADD1B2" rx="13.75" ry="13.75" style="stroke:#A80036;stroke-width:1.25;"/><path d="M1244.375,619.375 Q1244.6289,618.75 1244.9219,618.4375 Q1245.2148,618.125 1245.5469,618.125 Q1246.1328,618.125 1246.5039,618.4766 Q1246.875,618.8281 1246.875,619.6484 L1246.875,621.6016 Q1246.875,622.4219 1246.5234,622.7734 Q1246.1719,623.125 1245.625,623.125 Q1245.1367,623.125 1244.8242,622.9102 Q1244.5117,622.6953 1244.375,622.1289 Q1244.3164,621.7383 1244.1016,621.5234 Q1243.7109,621.1133 1243.0078,620.8789 Q1242.3047,620.625 1241.6016,620.625 Q1240.7227,620.625 1239.9805,620.9766 Q1239.2578,621.3281 1238.6914,622.1094 Q1238.125,622.8906 1238.125,623.9648 L1238.125,625.1172 Q1238.125,626.4063 1239.1797,627.2656 Q1240.2344,628.125 1242.1094,628.125 Q1243.2227,628.125 1244.0039,627.8711 Q1244.4531,627.7344 1244.9609,627.2852 Q1245.293,627.0313 1245.4688,626.9531 Q1245.6445,626.875 1245.8594,626.875 Q1246.2695,626.875 1246.5625,627.207 Q1246.875,627.5195 1246.875,627.9688 Q1246.875,628.3984 1246.4453,628.9063 Q1245.8203,629.6484 1244.8242,630.0586 Q1243.5156,630.625 1241.9141,630.625 Q1240.0391,630.625 1238.5352,629.8828 Q1237.3242,629.2969 1236.4648,628.0273 Q1235.625,626.7578 1235.625,625.2539 L1235.625,623.8867 Q1235.625,622.3242 1236.3672,620.957 Q1237.1289,619.5898 1238.4375,618.8672 Q1239.7656,618.125 1241.25,618.125 Q1242.1484,618.125 1242.9297,618.4375 Q1243.7109,618.75 1244.375,619.375 Z " fill="#000000"/><text fill="#000000" font-family="sans-serif" font-size="15" lengthAdjust="spacing" textLength="162.5" x="1259.375" y="629.8877">MedicalLabTechnicians</text><line style="stroke:#A80036;stroke-width:1.875;" x1="1224.375" x2="1424.375" y1="643.75" y2="643.75"/><line style="stroke:#A80036;stroke-width:1.875;" x1="1224.375" x2="1424.375" y1="653.75" y2="653.75"/><!--MD5=[3fd241ca11f270f6bde54c00b8a8581a]
link RegisterEmployeeUI to RegisterEmployeeController--><path codeLine="71" d="M306.875,68.925 C306.875,88.3875 306.875,114.4125 306.875,136.525 " fill="none" id="RegisterEmployeeUI-to-RegisterEmployeeController" style="stroke:#A80036;stroke-width:1.25;stroke-dasharray:7.0,7.0;"/><polygon fill="#A80036" points="306.875,143.25,311.875,132,306.875,137,301.875,132,306.875,143.25" style="stroke:#A80036;stroke-width:1.25;"/><!--MD5=[a569f6895d642c91e505293a30d28875]
link RegisterEmployeeController to AuthFacade--><path codeLine="72" d="M271.9875,221.3125 C236.8625,259.15 182.4,317.8 143.2875,359.925 " fill="none" id="RegisterEmployeeController-to-AuthFacade" style="stroke:#A80036;stroke-width:1.25;stroke-dasharray:7.0,7.0;"/><polygon fill="#A80036" points="138.6,364.975,149.9219,360.1401,142.8556,360.3976,142.5981,353.3312,138.6,364.975" style="stroke:#A80036;stroke-width:1.25;"/><!--MD5=[05d3f7653ac06d8db0ef91b4517c77fc]
link RegisterEmployeeController to UserSession--><path codeLine="73" d="M306.875,221.3125 C306.875,261.325 306.875,324.6125 306.875,367.0125 " fill="none" id="RegisterEmployeeController-to-UserSession" style="stroke:#A80036;stroke-width:1.25;stroke-dasharray:7.0,7.0;"/><polygon fill="#A80036" points="306.875,373.625,311.875,362.375,306.875,367.375,301.875,362.375,306.875,373.625" style="stroke:#A80036;stroke-width:1.25;"/><!--MD5=[75dc4ced29956637c2af5ece588f518b]
link RegisterEmployeeController to Administrator--><path codeLine="74" d="M374.575,221.3125 C410.525,241.2625 456.9125,267 503.85,293.05 " fill="none" id="RegisterEmployeeController-to-Administrator" style="stroke:#A80036;stroke-width:1.25;stroke-dasharray:7.0,7.0;"/><polygon fill="#A80036" points="509.575,296.225,502.1689,286.3907,504.1115,293.1897,497.3125,295.1323,509.575,296.225" style="stroke:#A80036;stroke-width:1.25;"/><!--MD5=[020250475aebc24ba5d0c773fd881bc9]
link Administrator to Platform--><path codeLine="75" d="M430.7125,519.6625 C347.7875,553.1375 276.1625,586.0125 264.375,603.75 C145.625,782.4 495.225,934.225 650.45,991.0625 " fill="none" id="Administrator-to-Platform" style="stroke:#A80036;stroke-width:1.25;stroke-dasharray:7.0,7.0;"/><polygon fill="#A80036" points="656.3375,993.2125,647.4819,984.6603,650.4659,991.0709,644.0553,994.0549,656.3375,993.2125" style="stroke:#A80036;stroke-width:1.25;"/><!--MD5=[8f7dd94d56b58fc07b233ccd3dd98f8c]
link Administrator to Employee--><path codeLine="76" d="M717.9625,529.075 C718.5875,594.4375 719.3375,674.4875 719.8875,732.5 " fill="none" id="Administrator-to-Employee" style="stroke:#A80036;stroke-width:1.25;"/><polygon fill="#A80036" points="719.95,738.75,724.8534,727.4576,719.8964,732.5002,714.8538,727.5433,719.95,738.75" style="stroke:#A80036;stroke-width:1.25;"/><!--MD5=[b482d663aae385f5ae82dde2f71259c6]
link Employee to Platform--><path codeLine="77" d="M720.625,885.4375 C720.625,907.6875 720.625,931.9625 720.625,953.4125 " fill="none" id="Employee-to-Platform" style="stroke:#A80036;stroke-width:1.25;"/><polygon fill="#A80036" points="720.625,959.975,725.625,948.725,720.625,953.725,715.625,948.725,720.625,959.975" style="stroke:#A80036;stroke-width:1.25;"/><!--MD5=[6ad259fab676f7a9df610dd3bf381c42]
link Platform to employeeStore--><path codeLine="78" d="M720.625,1072.7875 C720.625,1094.375 720.625,1119.0375 720.625,1140.4375 " fill="none" id="Platform-to-employeeStore" style="stroke:#A80036;stroke-width:1.25;stroke-dasharray:7.0,7.0;"/><polygon fill="#A80036" points="720.625,1146.9625,725.625,1135.7125,720.625,1140.7125,715.625,1135.7125,720.625,1146.9625" style="stroke:#A80036;stroke-width:1.25;"/><!--MD5=[64c52275ea9d22bde431e3436d41be0c]
link Administrator to Receptionist--><path codeLine="79" d="M523.4375,528.8875 C479.3,555.1625 435.9125,580.9875 403.5,600.2875 " fill="none" id="Administrator-to-Receptionist" style="stroke:#A80036;stroke-width:1.25;stroke-dasharray:7.0,7.0;"/><polygon fill="#A80036" points="397.9875,603.5625,410.2126,602.1098,403.3594,600.3679,405.1012,593.5148,397.9875,603.5625" style="stroke:#A80036;stroke-width:1.25;"/><!--MD5=[47c5981d91142fd3d377d484079759cf]
link Receptionist to Platform--><path codeLine="80" d="M373.6875,664.0625 C413.925,711.675 497.55,808.65 574.375,885 C598.775,909.25 626.75,934.65 651.65,956.5 " fill="none" id="Receptionist-to-Platform" style="stroke:#A80036;stroke-width:1.25;stroke-dasharray:7.0,7.0;"/><polygon fill="#A80036" points="656.6,960.825,651.423,949.6553,651.8953,956.7106,644.84,957.1829,656.6,960.825" style="stroke:#A80036;stroke-width:1.25;"/><!--MD5=[06bb7d2a85a007b79d10922b2d5e4cdd]
link Receptionist to Employee--><path codeLine="81" d="M410.2625,663.8 C477.2875,695.5125 584.7,746.325 653.95,779.0875 " fill="none" id="Receptionist-to-Employee" style="stroke:#A80036;stroke-width:1.25;"/><polygon fill="#A80036" points="659.7,781.8,651.6696,772.4686,654.0506,779.1268,647.3924,781.5077,659.7,781.8" style="stroke:#A80036;stroke-width:1.25;"/><!--MD5=[895b5d6471ae6b8c5e8b65346cbf0c43]
link Administrator to LaboratoryCoordinator--><path codeLine="83" d="M630.6875,528.8875 C611.6625,554.2875 592.9625,579.275 578.6875,598.35 " fill="none" id="Administrator-to-LaboratoryCoordinator" style="stroke:#A80036;stroke-width:1.25;stroke-dasharray:7.0,7.0;"/><polygon fill="#A80036" points="574.7875,603.5625,585.5375,597.5625,578.5375,598.5625,577.5375,591.5625,574.7875,603.5625" style="stroke:#A80036;stroke-width:1.25;"/><!--MD5=[c30bbcae6da28549a1435232ebb1ce5f]
link LaboratoryCoordinator to Platform--><path codeLine="84" d="M560.5625,663.9875 C573.2625,711.4875 601.4,808.3 638.125,885 C649.4125,908.5625 664.1,933.075 677.95,954.3875 " fill="none" id="LaboratoryCoordinator-to-Platform" style="stroke:#A80036;stroke-width:1.25;stroke-dasharray:7.0,7.0;"/><polygon fill="#A80036" points="681.45,959.725,679.447,947.578,678.0162,954.5028,671.0914,953.072,681.45,959.725" style="stroke:#A80036;stroke-width:1.25;"/><!--MD5=[bc1c1d8da623d615fbfb1cbca2838790]
link LaboratoryCoordinator to Employee--><path codeLine="85" d="M580.7875,664 C601.075,685.275 629.5,715.075 655.425,742.25 " fill="none" id="LaboratoryCoordinator-to-Employee" style="stroke:#A80036;stroke-width:1.25;"/><polygon fill="#A80036" points="659.8875,746.95,655.7245,735.3642,655.5674,742.4335,648.498,742.2764,659.8875,746.95" style="stroke:#A80036;stroke-width:1.25;"/><!--MD5=[8d5414aa3f51c089e97e4166fe43df86]
link Administrator to ChemistryTechnologist--><path codeLine="87" d="M907.675,528.8875 C951.2125,555.1625 994.0125,580.9875 1025.9875,600.2875 " fill="none" id="Administrator-to-ChemistryTechnologist" style="stroke:#A80036;stroke-width:1.25;stroke-dasharray:7.0,7.0;"/><polygon fill="#A80036" points="1031.425,603.5625,1024.3754,593.4697,1026.0736,600.3338,1019.2094,602.032,1031.425,603.5625" style="stroke:#A80036;stroke-width:1.25;"/><!--MD5=[88b1af14106ade8eb3422707b3557e33]
link ChemistryTechnologist to Platform--><path codeLine="88" d="M1055.0875,663.8 C1014.9375,711.0375 931.75,807.475 856.875,885 C834.0875,908.5875 808.2375,933.65 785.225,955.4125 " fill="none" id="ChemistryTechnologist-to-Platform" style="stroke:#A80036;stroke-width:1.25;stroke-dasharray:7.0,7.0;"/><polygon fill="#A80036" points="780.6625,959.7125,792.2816,955.6431,785.2137,955.429,785.4279,948.3611,780.6625,959.7125" style="stroke:#A80036;stroke-width:1.25;"/><!--MD5=[61f668149dcf52e3c4809c037e9ba332]
link ChemistryTechnologist to Employee--><path codeLine="89" d="M1020.5375,663.8 C956.475,695.1625 854.2375,745.2125 787.2625,778 " fill="none" id="ChemistryTechnologist-to-Employee" style="stroke:#A80036;stroke-width:1.25;"/><polygon fill="#A80036" points="781.3,780.925,793.6023,780.4604,786.9115,778.1729,789.1989,771.482,781.3,780.925" style="stroke:#A80036;stroke-width:1.25;"/><!--MD5=[e5130ffff11de51b8d2878a0a724816b]
link Administrator to SpecialistDoctor--><path codeLine="91" d="M791.875,528.8875 C808.2875,554.075 824.425,578.85 836.8125,597.8625 " fill="none" id="Administrator-to-SpecialistDoctor" style="stroke:#A80036;stroke-width:1.25;stroke-dasharray:7.0,7.0;"/><polygon fill="#A80036" points="840.525,603.5625,838.5701,591.4076,837.1119,598.3267,830.1928,596.8686,840.525,603.5625" style="stroke:#A80036;stroke-width:1.25;"/><!--MD5=[c206e76050e9a5196b212df16a0c5e70]
link SpecialistDoctor to Platform--><path codeLine="92" d="M856.125,664.1 C850.0875,711.75 834.7625,808.775 803.125,885 C793.2125,908.9 778.9875,933.3125 765.15,954.425 " fill="none" id="SpecialistDoctor-to-Platform" style="stroke:#A80036;stroke-width:1.25;stroke-dasharray:7.0,7.0;"/><polygon fill="#A80036" points="761.65,959.725,772.0244,953.0968,765.0962,954.511,763.682,947.5828,761.65,959.725" style="stroke:#A80036;stroke-width:1.25;"/><!--MD5=[e66f8c4fa516e197a55cf1b13c3927b3]
link SpecialistDoctor to Employee--><path codeLine="93" d="M836.4625,664 C821.3875,683.0875 800.875,709.0375 781.3125,733.8125 " fill="none" id="SpecialistDoctor-to-Employee" style="stroke:#A80036;stroke-width:1.25;"/><polygon fill="#A80036" points="777.4125,738.75,788.3167,733.035,781.2928,733.8504,780.4774,726.8265,777.4125,738.75" style="stroke:#A80036;stroke-width:1.25;"/><!--MD5=[c0de18404c366f0245bf82bdd959d2af]
link Administrator to MedicalLabTechnicians--><path codeLine="95" d="M1002.8375,516.725 C1088.7,547.6375 1176.4625,579.2375 1238.5625,601.6 " fill="none" id="Administrator-to-MedicalLabTechnicians" style="stroke:#A80036;stroke-width:1.25;stroke-dasharray:7.0,7.0;"/><polygon fill="#A80036" points="1244.4875,603.7375,1235.6089,595.2091,1238.6101,601.6116,1232.2076,604.6129,1244.4875,603.7375" style="stroke:#A80036;stroke-width:1.25;"/><!--MD5=[1d4b6294485ddbc9c1019e65030ee230]
link MedicalLabTechnicians to Platform--><path codeLine="96" d="M1283.9,663.875 C1216.4375,711.625 1076.25,809.3 953.125,885 C899.3625,918.05 836.8625,952.8 790.2125,978.05 " fill="none" id="MedicalLabTechnicians-to-Platform" style="stroke:#A80036;stroke-width:1.25;stroke-dasharray:7.0,7.0;"/><polygon fill="#A80036" points="784.6,981.0875,796.8754,980.1515,790.1018,978.1222,792.131,971.3486,784.6,981.0875" style="stroke:#A80036;stroke-width:1.25;"/><!--MD5=[3ca2d4eed330d11abe8796f273ebd5c4]
link MedicalLabTechnicians to Employee--><path codeLine="97" d="M1225.35,663.8 C1101.8625,699.725 894.075,760.175 787.7375,791.1 " fill="none" id="MedicalLabTechnicians-to-Employee" style="stroke:#A80036;stroke-width:1.25;"/><polygon fill="#A80036" points="781.5,792.9125,793.7,794.5625,787.5,791.1625,790.9,784.9625,781.5,792.9125" style="stroke:#A80036;stroke-width:1.25;"/><!--MD5=[af00a16b4d47c6b5fac8173cf1c4f407]
@startuml
skinparam classAttributeIconSize 0

class RegisterEmployeeUI{
}

class RegisterEmployeeController{
    +authenticate(email, password)
}

class AuthFacade{
  +getCurrentUserSession()
  +existUser(email)
}

class UserSession
{
  +isLoggedInWithRole(id)
}

class Administrator{
+createReceptionist(name, address, phone number, email, soc, role)
+createLaboratoryCoordinator(name, address, phone number, email, soc, role)
+createSpecialistDoctor(name, address, phone number, email, soc, role,doctorIndexNumber)
+createChemistryTechnologist(name, address, phone number, email, soc, role)
+createAdministrator(name, address, phone number, email, soc, role)
+saveReceptionist(emp)
+saveLaboratoryCoordinator(emp)
+saveChemistryTechnologist(emp)
+saveReceptionist(emp)
+saveAdministrator(emp)
}

class Employee{
  -String name
  -String function
  -Int phoneNumber
  -String email
  -String address
}

class employeeStore{
  +getEmployee()
  +addEmployee(emp)
}

class Platform {
  -String designation
  +getEmployees()
  +addEmployee()
}

class Receptionist{

}

class LaboratoryCoordinator{

}

class SpecialistDoctor{

}

class ChemistryTechnologist{
}

class MedicalLabTechnicians{
}


RegisterEmployeeUI ..> RegisterEmployeeController
RegisterEmployeeController ..> AuthFacade
RegisterEmployeeController ..> UserSession
RegisterEmployeeController ..> Administrator
Administrator ..> Platform
Administrator - -> Employee
Employee - -> Platform
Platform ..> employeeStore
Administrator ..> Receptionist
Receptionist ..> Platform
Receptionist - -> Employee

Administrator ..> LaboratoryCoordinator
LaboratoryCoordinator ..> Platform
LaboratoryCoordinator - -> Employee

Administrator ..> ChemistryTechnologist
ChemistryTechnologist ..> Platform
ChemistryTechnologist - -> Employee

Administrator ..> SpecialistDoctor
SpecialistDoctor ..> Platform
SpecialistDoctor - -> Employee

Administrator ..> MedicalLabTechnicians
MedicalLabTechnicians ..> Platform
MedicalLabTechnicians - -> Employee
@enduml

PlantUML version 1.2021.5(Sun Apr 25 12:20:28 BST 2021)
(GPL source distribution)
Java Runtime: OpenJDK Runtime Environment
JVM: OpenJDK 64-Bit Server VM
Default Encoding: Cp1252
Language: pt
Country: PT
--></g></svg>