<?xml version="1.0" encoding="UTF-8" standalone="no"?><svg xmlns="http://www.w3.org/2000/svg" xmlns:xlink="http://www.w3.org/1999/xlink" contentScriptType="application/ecmascript" contentStyleType="text/css" height="900px" preserveAspectRatio="none" style="width:1061px;height:900px;" version="1.1" viewBox="0 0 1061 900" width="1061px" zoomAndPan="magnify"><defs><filter height="300%" id="f14dqfcytxfctr" width="300%" x="-1" y="-1"><feGaussianBlur result="blurOut" stdDeviation="2.0"/><feColorMatrix in="blurOut" result="blurOut2" type="matrix" values="0 0 0 0 0 0 0 0 0 0 0 0 0 0 0 0 0 0 .4 0"/><feOffset dx="4.0" dy="4.0" in="blurOut2" result="blurOut3"/><feBlend in="SourceGraphic" in2="blurOut3" mode="normal"/></filter></defs><g><!--MD5=[6cdae4f2110b6208c7ed0352c27b455a]
class ValidateTestReportController--><rect codeLine="3" fill="#FEFECE" filter="url(#f14dqfcytxfctr)" height="151.6406" id="ValidateTestReportController" style="stroke:#A80036;stroke-width:1.5;" width="199" x="626.5" y="129"/><ellipse cx="641.5" cy="145" fill="#ADD1B2" rx="11" ry="11" style="stroke:#A80036;stroke-width:1.0;"/><path d="M643.9731,151.1431 Q643.3921,151.4419 642.7529,151.5913 Q642.1138,151.7407 641.4082,151.7407 Q638.9014,151.7407 637.5815,150.0889 Q636.2617,148.437 636.2617,145.3159 Q636.2617,142.1865 637.5815,140.5347 Q638.9014,138.8828 641.4082,138.8828 Q642.1138,138.8828 642.7612,139.0322 Q643.4087,139.1816 643.9731,139.4805 L643.9731,142.2031 Q643.3423,141.6221 642.7488,141.3523 Q642.1553,141.0825 641.5244,141.0825 Q640.1797,141.0825 639.4949,142.1492 Q638.8101,143.2158 638.8101,145.3159 Q638.8101,147.4077 639.4949,148.4744 Q640.1797,149.541 641.5244,149.541 Q642.1553,149.541 642.7488,149.2712 Q643.3423,149.0015 643.9731,148.4204 Z " fill="#000000"/><text fill="#000000" font-family="sans-serif" font-size="12" lengthAdjust="spacing" textLength="167" x="655.5" y="149.5352">ValidateTestReportController</text><line style="stroke:#A80036;stroke-width:1.5;" x1="627.5" x2="824.5" y1="161" y2="161"/><text fill="#000000" font-family="sans-serif" font-size="11" lengthAdjust="spacing" textLength="108" x="632.5" y="175.6348">-TestStore testStore</text><text fill="#000000" font-family="sans-serif" font-size="11" lengthAdjust="spacing" textLength="180" x="632.5" y="188.5898">-TestReportStore testReportStore</text><text fill="#000000" font-family="sans-serif" font-size="11" lengthAdjust="spacing" textLength="64" x="632.5" y="201.5449">-String date</text><line style="stroke:#A80036;stroke-width:1.0;" x1="627.5" x2="824.5" y1="207.8652" y2="207.8652"/><text fill="#000000" font-family="sans-serif" font-size="11" lengthAdjust="spacing" textLength="165" x="632.5" y="222.5">+findTestReport(String idTest)</text><text fill="#000000" font-family="sans-serif" font-size="11" lengthAdjust="spacing" textLength="135" x="632.5" y="235.4551">+testReportsToValidate()</text><text fill="#000000" font-family="sans-serif" font-size="11" lengthAdjust="spacing" textLength="185" x="632.5" y="248.4102">+validateTestReport(String idTest)</text><text fill="#000000" font-family="sans-serif" font-size="11" lengthAdjust="spacing" textLength="131" x="632.5" y="261.3652">+validateAllTestReport()</text><text fill="#000000" font-family="sans-serif" font-size="11" lengthAdjust="spacing" textLength="166" x="632.5" y="274.3203">+clientMessage(String clientId)</text><!--MD5=[93ac61241720cfa02bf523214db01df7]
class LabCoordinatorUI--><rect codeLine="15" fill="#FEFECE" filter="url(#f14dqfcytxfctr)" height="60.9551" id="LabCoordinatorUI" style="stroke:#A80036;stroke-width:1.5;" width="198" x="627" y="7"/><ellipse cx="671.75" cy="23" fill="#ADD1B2" rx="11" ry="11" style="stroke:#A80036;stroke-width:1.0;"/><path d="M674.2231,29.1431 Q673.6421,29.4419 673.0029,29.5913 Q672.3638,29.7407 671.6582,29.7407 Q669.1514,29.7407 667.8315,28.0889 Q666.5117,26.437 666.5117,23.3159 Q666.5117,20.1865 667.8315,18.5347 Q669.1514,16.8828 671.6582,16.8828 Q672.3638,16.8828 673.0112,17.0322 Q673.6587,17.1816 674.2231,17.4805 L674.2231,20.2031 Q673.5923,19.6221 672.9988,19.3523 Q672.4053,19.0825 671.7744,19.0825 Q670.4297,19.0825 669.7449,20.1492 Q669.0601,21.2158 669.0601,23.3159 Q669.0601,25.4077 669.7449,26.4744 Q670.4297,27.541 671.7744,27.541 Q672.4053,27.541 672.9988,27.2712 Q673.5923,27.0015 674.2231,26.4204 Z " fill="#000000"/><text fill="#000000" font-family="sans-serif" font-size="12" lengthAdjust="spacing" textLength="100" x="692.25" y="27.5352">LabCoordinatorUI</text><line style="stroke:#A80036;stroke-width:1.5;" x1="628" x2="824" y1="39" y2="39"/><text fill="#000000" font-family="sans-serif" font-size="11" lengthAdjust="spacing" textLength="186" x="633" y="53.6348">-ValidateTestReportController vtrc</text><line style="stroke:#A80036;stroke-width:1.5;" x1="628" x2="824" y1="59.9551" y2="59.9551"/><!--MD5=[02e4b9b7573f1156f41e60aa5b4e25a4]
class Company--><rect codeLine="19" fill="#FEFECE" filter="url(#f14dqfcytxfctr)" height="112.7754" id="Company" style="stroke:#A80036;stroke-width:1.5;" width="192" x="519" y="342"/><ellipse cx="583.75" cy="358" fill="#ADD1B2" rx="11" ry="11" style="stroke:#A80036;stroke-width:1.0;"/><path d="M586.2231,364.1431 Q585.6421,364.4419 585.0029,364.5913 Q584.3638,364.7407 583.6582,364.7407 Q581.1514,364.7407 579.8315,363.0889 Q578.5117,361.437 578.5117,358.3159 Q578.5117,355.1865 579.8315,353.5347 Q581.1514,351.8828 583.6582,351.8828 Q584.3638,351.8828 585.0112,352.0322 Q585.6587,352.1816 586.2231,352.4805 L586.2231,355.2031 Q585.5923,354.6221 584.9988,354.3523 Q584.4053,354.0825 583.7744,354.0825 Q582.4297,354.0825 581.7449,355.1492 Q581.0601,356.2158 581.0601,358.3159 Q581.0601,360.4077 581.7449,361.4744 Q582.4297,362.541 583.7744,362.541 Q584.4053,362.541 584.9988,362.2712 Q585.5923,362.0015 586.2231,361.4204 Z " fill="#000000"/><text fill="#000000" font-family="sans-serif" font-size="12" lengthAdjust="spacing" textLength="54" x="604.25" y="362.5352">Company</text><line style="stroke:#A80036;stroke-width:1.5;" x1="520" x2="710" y1="374" y2="374"/><text fill="#000000" font-family="sans-serif" font-size="11" lengthAdjust="spacing" textLength="104" x="525" y="388.6348">-String designation</text><text fill="#000000" font-family="sans-serif" font-size="11" lengthAdjust="spacing" textLength="180" x="525" y="401.5898">-TestReportStore testReportStore</text><text fill="#000000" font-family="sans-serif" font-size="11" lengthAdjust="spacing" textLength="108" x="525" y="414.5449">-TestStore testStore</text><line style="stroke:#A80036;stroke-width:1.0;" x1="520" x2="710" y1="420.8652" y2="420.8652"/><text fill="#000000" font-family="sans-serif" font-size="11" lengthAdjust="spacing" textLength="121" x="525" y="435.5">+getTestReportStore()</text><text fill="#000000" font-family="sans-serif" font-size="11" lengthAdjust="spacing" textLength="85" x="525" y="448.4551">+getTestStore()</text><!--MD5=[1440c33e6e2d06f1d65157f758d3adef]
class TestReport--><rect codeLine="28" fill="#FEFECE" filter="url(#f14dqfcytxfctr)" height="86.8652" id="TestReport" style="stroke:#A80036;stroke-width:1.5;" width="149" x="437.5" y="754.5"/><ellipse cx="476.35" cy="770.5" fill="#ADD1B2" rx="11" ry="11" style="stroke:#A80036;stroke-width:1.0;"/><path d="M478.8231,776.6431 Q478.2421,776.9419 477.6029,777.0913 Q476.9638,777.2407 476.2582,777.2407 Q473.7514,777.2407 472.4315,775.5889 Q471.1117,773.937 471.1117,770.8159 Q471.1117,767.6865 472.4315,766.0347 Q473.7514,764.3828 476.2582,764.3828 Q476.9638,764.3828 477.6112,764.5322 Q478.2587,764.6816 478.8231,764.9805 L478.8231,767.7031 Q478.1923,767.1221 477.5988,766.8523 Q477.0053,766.5825 476.3744,766.5825 Q475.0297,766.5825 474.3449,767.6492 Q473.6601,768.7158 473.6601,770.8159 Q473.6601,772.9077 474.3449,773.9744 Q475.0297,775.041 476.3744,775.041 Q477.0053,775.041 477.5988,774.7712 Q478.1923,774.5015 478.8231,773.9204 Z " fill="#000000"/><text fill="#000000" font-family="sans-serif" font-size="12" lengthAdjust="spacing" textLength="64" x="495.65" y="775.0352">TestReport</text><line style="stroke:#A80036;stroke-width:1.5;" x1="438.5" x2="585.5" y1="786.5" y2="786.5"/><text fill="#000000" font-family="sans-serif" font-size="11" lengthAdjust="spacing" textLength="74" x="443.5" y="801.1348">-String idTest</text><text fill="#000000" font-family="sans-serif" font-size="11" lengthAdjust="spacing" textLength="137" x="443.5" y="814.0898">-TestDiagnosis diagnosis</text><text fill="#000000" font-family="sans-serif" font-size="11" lengthAdjust="spacing" textLength="75" x="443.5" y="827.0449">-String report</text><line style="stroke:#A80036;stroke-width:1.5;" x1="438.5" x2="585.5" y1="833.3652" y2="833.3652"/><!--MD5=[57e3c8a04059ff4826a5f4587a33ba8c]
class TestDiagnosis--><rect codeLine="34" fill="#FEFECE" filter="url(#f14dqfcytxfctr)" height="73.9102" id="TestDiagnosis" style="stroke:#A80036;stroke-width:1.5;" width="325" x="420.5" y="545"/><ellipse cx="538.75" cy="561" fill="#ADD1B2" rx="11" ry="11" style="stroke:#A80036;stroke-width:1.0;"/><path d="M541.2231,567.1431 Q540.6421,567.4419 540.0029,567.5913 Q539.3638,567.7407 538.6582,567.7407 Q536.1514,567.7407 534.8315,566.0889 Q533.5117,564.437 533.5117,561.3159 Q533.5117,558.1865 534.8315,556.5347 Q536.1514,554.8828 538.6582,554.8828 Q539.3638,554.8828 540.0112,555.0322 Q540.6587,555.1816 541.2231,555.4805 L541.2231,558.2031 Q540.5923,557.6221 539.9988,557.3523 Q539.4053,557.0825 538.7744,557.0825 Q537.4297,557.0825 536.7449,558.1492 Q536.0601,559.2158 536.0601,561.3159 Q536.0601,563.4077 536.7449,564.4744 Q537.4297,565.541 538.7744,565.541 Q539.4053,565.541 539.9988,565.2712 Q540.5923,565.0015 541.2231,564.4204 Z " fill="#000000"/><text fill="#000000" font-family="sans-serif" font-size="12" lengthAdjust="spacing" textLength="80" x="559.25" y="565.5352">TestDiagnosis</text><line style="stroke:#A80036;stroke-width:1.5;" x1="421.5" x2="744.5" y1="577" y2="577"/><text fill="#000000" font-family="sans-serif" font-size="11" lengthAdjust="spacing" textLength="93" x="426.5" y="591.6348">-String diagnosis</text><line style="stroke:#A80036;stroke-width:1.0;" x1="421.5" x2="744.5" y1="597.9551" y2="597.9551"/><text fill="#000000" font-family="sans-serif" font-size="11" lengthAdjust="spacing" textLength="313" x="426.5" y="612.5898">+createDiagnosis(List&lt;TestParameter&gt; testParameterList)</text><!--MD5=[1ff1bfbbcbf479255e0754c35514d0f2]
class TestReportStore--><rect codeLine="40" fill="#FEFECE" filter="url(#f14dqfcytxfctr)" height="99.8203" id="TestReportStore" style="stroke:#A80036;stroke-width:1.5;" width="378" x="7" y="532"/><ellipse cx="145.25" cy="548" fill="#ADD1B2" rx="11" ry="11" style="stroke:#A80036;stroke-width:1.0;"/><path d="M147.7231,554.1431 Q147.1421,554.4419 146.5029,554.5913 Q145.8638,554.7407 145.1582,554.7407 Q142.6514,554.7407 141.3315,553.0889 Q140.0117,551.437 140.0117,548.3159 Q140.0117,545.1865 141.3315,543.5347 Q142.6514,541.8828 145.1582,541.8828 Q145.8638,541.8828 146.5112,542.0322 Q147.1587,542.1816 147.7231,542.4805 L147.7231,545.2031 Q147.0923,544.6221 146.4988,544.3523 Q145.9053,544.0825 145.2744,544.0825 Q143.9297,544.0825 143.2449,545.1492 Q142.5601,546.2158 142.5601,548.3159 Q142.5601,550.4077 143.2449,551.4744 Q143.9297,552.541 145.2744,552.541 Q145.9053,552.541 146.4988,552.2712 Q147.0923,552.0015 147.7231,551.4204 Z " fill="#000000"/><text fill="#000000" font-family="sans-serif" font-size="12" lengthAdjust="spacing" textLength="93" x="165.75" y="552.5352">TestReportStore</text><line style="stroke:#A80036;stroke-width:1.5;" x1="8" x2="384" y1="564" y2="564"/><text fill="#000000" font-family="sans-serif" font-size="11" lengthAdjust="spacing" textLength="189" x="13" y="578.6348">-List&lt;TestReport&gt; testReportStore</text><line style="stroke:#A80036;stroke-width:1.0;" x1="8" x2="384" y1="584.9551" y2="584.9551"/><text fill="#000000" font-family="sans-serif" font-size="11" lengthAdjust="spacing" textLength="366" x="13" y="599.5898">+createReport(String idTest, TestDiagnosis diagnosis, String report)</text><text fill="#000000" font-family="sans-serif" font-size="11" lengthAdjust="spacing" textLength="212" x="13" y="612.5449">+validateReport(TestReport testReport)</text><text fill="#000000" font-family="sans-serif" font-size="11" lengthAdjust="spacing" textLength="195" x="13" y="625.5">+saveReport(TestReport testReport)</text><!--MD5=[df38be88ccee13e832d6fafd6288a4ca]
class Test--><rect codeLine="48" fill="#FEFECE" filter="url(#f14dqfcytxfctr)" height="177.5508" id="Test" style="stroke:#A80036;stroke-width:1.5;" width="386" x="661" y="709"/><ellipse cx="837.25" cy="725" fill="#ADD1B2" rx="11" ry="11" style="stroke:#A80036;stroke-width:1.0;"/><path d="M839.7231,731.1431 Q839.1421,731.4419 838.5029,731.5913 Q837.8638,731.7407 837.1582,731.7407 Q834.6514,731.7407 833.3315,730.0889 Q832.0117,728.437 832.0117,725.3159 Q832.0117,722.1865 833.3315,720.5347 Q834.6514,718.8828 837.1582,718.8828 Q837.8638,718.8828 838.5112,719.0322 Q839.1587,719.1816 839.7231,719.4805 L839.7231,722.2031 Q839.0923,721.6221 838.4988,721.3523 Q837.9053,721.0825 837.2744,721.0825 Q835.9297,721.0825 835.2449,722.1492 Q834.5601,723.2158 834.5601,725.3159 Q834.5601,727.4077 835.2449,728.4744 Q835.9297,729.541 837.2744,729.541 Q837.9053,729.541 838.4988,729.2712 Q839.0923,729.0015 839.7231,728.4204 Z " fill="#000000"/><text fill="#000000" font-family="sans-serif" font-size="12" lengthAdjust="spacing" textLength="25" x="857.75" y="729.5352">Test</text><line style="stroke:#A80036;stroke-width:1.5;" x1="662" x2="1046" y1="741" y2="741"/><text fill="#000000" font-family="sans-serif" font-size="11" lengthAdjust="spacing" textLength="52" x="667" y="755.6348">String tin;</text><text fill="#000000" font-family="sans-serif" font-size="11" lengthAdjust="spacing" textLength="71" x="667" y="768.5898">String idTest;</text><text fill="#000000" font-family="sans-serif" font-size="11" lengthAdjust="spacing" textLength="86" x="667" y="781.5449">String nhsCode;</text><text fill="#000000" font-family="sans-serif" font-size="11" lengthAdjust="spacing" textLength="61" x="667" y="794.5">String date;</text><text fill="#000000" font-family="sans-serif" font-size="11" lengthAdjust="spacing" textLength="114" x="667" y="807.4551">String validationDate;</text><text fill="#000000" font-family="sans-serif" font-size="11" lengthAdjust="spacing" textLength="101" x="667" y="820.4102">TestType testType;</text><text fill="#000000" font-family="sans-serif" font-size="11" lengthAdjust="spacing" textLength="58" x="667" y="833.3652">State state;</text><line style="stroke:#A80036;stroke-width:1.0;" x1="662" x2="1046" y1="839.6855" y2="839.6855"/><text fill="#000000" font-family="sans-serif" font-size="11" lengthAdjust="spacing" textLength="180" x="667" y="854.3203">+checkNshCode(String nhsCode)</text><text fill="#000000" font-family="sans-serif" font-size="11" lengthAdjust="spacing" textLength="374" x="667" y="867.2754">+testParameterCreator(String idTest, List&lt;Parameter&gt; parameterList)</text><text fill="#000000" font-family="sans-serif" font-size="11" lengthAdjust="spacing" textLength="247" x="667" y="880.2305">+registerValidationDate(String validationDate)</text><!--MD5=[0f6f7964b844a64b0496af0dda7914bd]
class TestStore--><rect codeLine="62" fill="#FEFECE" filter="url(#f14dqfcytxfctr)" height="86.8652" id="TestStore" style="stroke:#A80036;stroke-width:1.5;" width="147" x="780.5" y="538.5"/><ellipse cx="822.95" cy="554.5" fill="#ADD1B2" rx="11" ry="11" style="stroke:#A80036;stroke-width:1.0;"/><path d="M825.4231,560.6431 Q824.8421,560.9419 824.2029,561.0913 Q823.5638,561.2407 822.8582,561.2407 Q820.3514,561.2407 819.0315,559.5889 Q817.7117,557.937 817.7117,554.8159 Q817.7117,551.6865 819.0315,550.0347 Q820.3514,548.3828 822.8582,548.3828 Q823.5638,548.3828 824.2112,548.5322 Q824.8587,548.6816 825.4231,548.9805 L825.4231,551.7031 Q824.7923,551.1221 824.1988,550.8523 Q823.6053,550.5825 822.9744,550.5825 Q821.6297,550.5825 820.9449,551.6492 Q820.2601,552.7158 820.2601,554.8159 Q820.2601,556.9077 820.9449,557.9744 Q821.6297,559.041 822.9744,559.041 Q823.6053,559.041 824.1988,558.7712 Q824.7923,558.5015 825.4231,557.9204 Z " fill="#000000"/><text fill="#000000" font-family="sans-serif" font-size="12" lengthAdjust="spacing" textLength="54" x="843.05" y="559.0352">TestStore</text><line style="stroke:#A80036;stroke-width:1.5;" x1="781.5" x2="926.5" y1="570.5" y2="570.5"/><text fill="#000000" font-family="sans-serif" font-size="11" lengthAdjust="spacing" textLength="117" x="786.5" y="585.1348">-List&lt;Test&gt; testStore</text><line style="stroke:#A80036;stroke-width:1.0;" x1="781.5" x2="926.5" y1="591.4551" y2="591.4551"/><text fill="#000000" font-family="sans-serif" font-size="11" lengthAdjust="spacing" textLength="135" x="786.5" y="606.0898">+checkState(String state)</text><text fill="#000000" font-family="sans-serif" font-size="11" lengthAdjust="spacing" textLength="76" x="786.5" y="619.0449">+getTestList()</text><!--MD5=[144698ec4d0188f6929a3b58a3eeb1f6]
class TestMapper--><rect codeLine="69" fill="#FEFECE" filter="url(#f14dqfcytxfctr)" height="60.9551" id="TestMapper" style="stroke:#A80036;stroke-width:1.5;" width="161" x="817.5" y="368"/><ellipse cx="859.05" cy="384" fill="#ADD1B2" rx="11" ry="11" style="stroke:#A80036;stroke-width:1.0;"/><path d="M861.5231,390.1431 Q860.9421,390.4419 860.3029,390.5913 Q859.6638,390.7407 858.9582,390.7407 Q856.4514,390.7407 855.1315,389.0889 Q853.8117,387.437 853.8117,384.3159 Q853.8117,381.1865 855.1315,379.5347 Q856.4514,377.8828 858.9582,377.8828 Q859.6638,377.8828 860.3112,378.0322 Q860.9587,378.1816 861.5231,378.4805 L861.5231,381.2031 Q860.8923,380.6221 860.2988,380.3523 Q859.7053,380.0825 859.0744,380.0825 Q857.7297,380.0825 857.0449,381.1492 Q856.3601,382.2158 856.3601,384.3159 Q856.3601,386.4077 857.0449,387.4744 Q857.7297,388.541 859.0744,388.541 Q859.7053,388.541 860.2988,388.2712 Q860.8923,388.0015 861.5231,387.4204 Z " fill="#000000"/><text fill="#000000" font-family="sans-serif" font-size="12" lengthAdjust="spacing" textLength="70" x="878.95" y="388.5352">TestMapper</text><line style="stroke:#A80036;stroke-width:1.5;" x1="818.5" x2="977.5" y1="400" y2="400"/><line style="stroke:#A80036;stroke-width:1.5;" x1="818.5" x2="977.5" y1="408" y2="408"/><text fill="#000000" font-family="sans-serif" font-size="11" lengthAdjust="spacing" textLength="149" x="823.5" y="422.6348">+toDto(List&lt;Test&gt; testList)</text><!--MD5=[f313fbedc92faa8095eef91a50b78720]
link LabCoordinatorUI to ValidateTestReportController--><path codeLine="73" d="M726,68.09 C726,83.77 726,103.88 726,123.79 " fill="none" id="LabCoordinatorUI-to-ValidateTestReportController" style="stroke:#A80036;stroke-width:1.0;stroke-dasharray:7.0,7.0;"/><polygon fill="#A80036" points="726,128.84,730,119.84,726,123.84,722,119.84,726,128.84" style="stroke:#A80036;stroke-width:1.0;"/><!--MD5=[b2998224af144f28f164c3db49d4eeb5]
link ValidateTestReportController to Company--><path codeLine="74" d="M682.45,281.14 C671.64,299.78 660.2,319.52 649.87,337.34 " fill="none" id="ValidateTestReportController-to-Company" style="stroke:#A80036;stroke-width:1.0;stroke-dasharray:7.0,7.0;"/><polygon fill="#A80036" points="647.27,341.83,655.2493,336.0567,649.7814,337.5065,648.3316,332.0385,647.27,341.83" style="stroke:#A80036;stroke-width:1.0;"/><!--MD5=[af4b3bf749fdd36a77de340bfe5a95de]
link ValidateTestReportController to TestReportStore--><path codeLine="75" d="M626.35,262.72 C586.67,286.21 541.01,314.39 501,342 C413.92,402.11 318.7,478.58 258.22,528.62 " fill="none" id="ValidateTestReportController-to-TestReportStore" style="stroke:#A80036;stroke-width:1.0;stroke-dasharray:7.0,7.0;"/><polygon fill="#A80036" points="254.29,531.88,263.7657,529.1947,258.1323,528.6805,258.6465,523.047,254.29,531.88" style="stroke:#A80036;stroke-width:1.0;"/><!--MD5=[ec87fa99682143dce4d3b43b14922937]
link ValidateTestReportController to TestStore--><path codeLine="76" d="M745.87,281.1 C759.64,330.9 779.19,397.43 800,455 C809.56,481.44 821.79,510.31 832.2,533.73 " fill="none" id="ValidateTestReportController-to-TestStore" style="stroke:#A80036;stroke-width:1.0;stroke-dasharray:7.0,7.0;"/><polygon fill="#A80036" points="834.25,538.34,834.23,528.4912,832.21,533.7751,826.9261,531.7551,834.25,538.34" style="stroke:#A80036;stroke-width:1.0;"/><!--MD5=[2a0e11b4a64df5a93a36844ac9a2f860]
link ValidateTestReportController to TestMapper--><path codeLine="77" d="M793.49,281.14 C819.29,309.86 847.42,341.19 867.99,364.09 " fill="none" id="ValidateTestReportController-to-TestMapper" style="stroke:#A80036;stroke-width:1.0;stroke-dasharray:7.0,7.0;"/><polygon fill="#A80036" points="871.49,367.98,868.4604,358.6087,868.1523,364.2572,862.5038,363.9491,871.49,367.98" style="stroke:#A80036;stroke-width:1.0;"/><!--MD5=[7f6cf7f175eae0af66201860de5de971]
link Company to TestStore--><path codeLine="78" d="M658.59,455.08 C672.95,471.36 689.7,488.42 707,502 C729.21,519.44 738.13,518.64 763,532 C767.06,534.18 771.23,536.42 775.43,538.68 " fill="none" id="Company-to-TestStore" style="stroke:#A80036;stroke-width:1.0;"/><polygon fill="#A80036" points="780.01,541.14,773.9656,533.3641,775.6026,538.7789,770.1878,540.4159,780.01,541.14" style="stroke:#A80036;stroke-width:1.0;"/><text fill="#000000" font-family="sans-serif" font-size="13" lengthAdjust="spacing" textLength="29" x="708" y="498.5684">uses</text><!--MD5=[008e18fcfcea10a74787e1d894b1b1e0]
link Company to TestReportStore--><path codeLine="79" d="M518.75,447.89 C482.46,465.58 440.62,485.33 402,502 C380.08,511.46 356.63,520.99 333.69,530 " fill="none" id="Company-to-TestReportStore" style="stroke:#A80036;stroke-width:1.0;"/><polygon fill="#A80036" points="328.8,531.92,338.6386,532.3699,333.4571,530.1002,335.7268,524.9186,328.8,531.92" style="stroke:#A80036;stroke-width:1.0;"/><text fill="#000000" font-family="sans-serif" font-size="13" lengthAdjust="spacing" textLength="29" x="439" y="498.5684">uses</text><!--MD5=[953ab60379ef55181e4437b26a98b286]
link TestDiagnosis to TestReport--><path codeLine="80" d="M570.96,619.3 C559.1,655.02 540.94,709.77 527.91,749.06 " fill="none" id="TestDiagnosis-to-TestReport" style="stroke:#A80036;stroke-width:1.0;"/><polygon fill="#A80036" points="526.18,754.25,532.8274,746.9828,527.7654,749.508,525.2402,744.4461,526.18,754.25" style="stroke:#A80036;stroke-width:1.0;"/><text fill="#000000" font-family="sans-serif" font-size="13" lengthAdjust="spacing" textLength="57" x="557" y="675.5684">is part of</text><!--MD5=[aa14684521c50ecb607508101c65e86c]
link TestReportStore to TestReport--><path codeLine="81" d="M268.5,632.1 C321.58,668.04 393.08,716.47 444.86,751.53 " fill="none" id="TestReportStore-to-TestReport" style="stroke:#A80036;stroke-width:1.0;"/><polygon fill="#A80036" points="449.18,754.46,443.983,746.094,445.044,751.6504,439.4876,752.7115,449.18,754.46" style="stroke:#A80036;stroke-width:1.0;"/><text fill="#000000" font-family="sans-serif" font-size="13" lengthAdjust="spacing" textLength="68" x="337" y="675.5684">can access</text><!--MD5=[b0f4f6db8206580012ef9cd998ed01c5]
link TestStore to Test--><path codeLine="82" d="M854,625.54 C854,648.03 854,676.58 854,703.9 " fill="none" id="TestStore-to-Test" style="stroke:#A80036;stroke-width:1.0;"/><polygon fill="#A80036" points="854,708.98,858,699.98,854,703.98,850,699.98,854,708.98" style="stroke:#A80036;stroke-width:1.0;"/><text fill="#000000" font-family="sans-serif" font-size="13" lengthAdjust="spacing" textLength="68" x="855" y="675.5684">can access</text><!--MD5=[54e2947392899b3eb8ed60eb2315ef70]
@startuml
skinparam classAttributeIconSize 0

class ValidateTestReportController {
  -TestStore testStore
  -TestReportStore testReportStore
  -String date
  - -
  +findTestReport(String idTest)
  +testReportsToValidate()
  +validateTestReport(String idTest)
  +validateAllTestReport()
  +clientMessage(String clientId)
}

class LabCoordinatorUI {
    -ValidateTestReportController vtrc
}

class Company{
    -String designation
    -TestReportStore testReportStore
    -TestStore testStore
    - -
    +getTestReportStore()
    +getTestStore()
}

class TestReport{
    -String idTest
    -TestDiagnosis diagnosis
    -String report
}

class TestDiagnosis{
    -String diagnosis
    - -
    +createDiagnosis(List<TestParameter> testParameterList)
}

class TestReportStore{
    -List<TestReport> testReportStore
    - -
    +createReport(String idTest, TestDiagnosis diagnosis, String report)
    +validateReport(TestReport testReport)
    +saveReport(TestReport testReport)
}

class Test{
    String tin;
    String idTest;
    String nhsCode;
    String date;
    String validationDate;
    TestType testType;
    State state;
    - -
    +checkNshCode(String nhsCode)
    +testParameterCreator(String idTest, List<Parameter> parameterList)
    +registerValidationDate(String validationDate)
}

class TestStore{
    -List<Test> testStore
    - -
    +checkState(String state)
    +getTestList()
}

class TestMapper{
    +toDto(List<Test> testList)
}

LabCoordinatorUI ..> ValidateTestReportController
ValidateTestReportController ..> Company
ValidateTestReportController ..> TestReportStore
ValidateTestReportController ..> TestStore
ValidateTestReportController ..> TestMapper
Company - -> TestStore : uses
Company - -> TestReportStore : uses
TestDiagnosis - -> TestReport : is part of
TestReportStore - -> TestReport : can access
TestStore - -> Test : can access



@enduml

PlantUML version 1.2021.00(Sun Jan 10 10:25:05 WET 2021)
(GPL source distribution)
Java Runtime: OpenJDK Runtime Environment
JVM: OpenJDK 64-Bit Server VM
Default Encoding: UTF-8
Language: en
Country: PT
--></g></svg>