<?xml version="1.0" encoding="UTF-8" standalone="no"?><svg xmlns="http://www.w3.org/2000/svg" xmlns:xlink="http://www.w3.org/1999/xlink" contentScriptType="application/ecmascript" contentStyleType="text/css" height="791px" preserveAspectRatio="none" style="width:1388px;height:791px;" version="1.1" viewBox="0 0 1388 791" width="1388px" zoomAndPan="magnify"><defs><filter height="300%" id="fy7qhd4pw7jbh" width="300%" x="-1" y="-1"><feGaussianBlur result="blurOut" stdDeviation="2.0"/><feColorMatrix in="blurOut" result="blurOut2" type="matrix" values="0 0 0 0 0 0 0 0 0 0 0 0 0 0 0 0 0 0 .4 0"/><feOffset dx="4.0" dy="4.0" in="blurOut2" result="blurOut3"/><feBlend in="SourceGraphic" in2="blurOut3" mode="normal"/></filter></defs><g><!--MD5=[8ae808d068a8995f06b9b3ec51357f0b]
class AuthFacade--><rect codeLine="4" fill="#FEFECE" filter="url(#fy7qhd4pw7jbh)" height="75.6719" id="AuthFacade" style="stroke:#A80036;stroke-width:1.5;" width="144" x="552" y="198.91"/><ellipse cx="588.15" cy="214.91" fill="#ADD1B2" rx="11" ry="11" style="stroke:#A80036;stroke-width:1.0;"/><path d="M590.15,211.41 Q590.3531,210.91 590.5875,210.66 Q590.8219,210.41 591.0875,210.41 Q591.5563,210.41 591.8531,210.6912 Q592.15,210.9725 592.15,211.6287 L592.15,213.1912 Q592.15,213.8475 591.8688,214.1287 Q591.5875,214.41 591.15,214.41 Q590.7594,214.41 590.5094,214.2381 Q590.2594,214.0662 590.15,213.6131 Q590.1031,213.3006 589.9313,213.1287 Q589.6188,212.8006 589.0563,212.6131 Q588.4938,212.41 587.9313,212.41 Q587.2281,212.41 586.6344,212.6912 Q586.0563,212.9725 585.6031,213.5975 Q585.15,214.2225 585.15,215.0819 L585.15,216.0037 Q585.15,217.035 585.9938,217.7225 Q586.8375,218.41 588.3375,218.41 Q589.2281,218.41 589.8531,218.2069 Q590.2125,218.0975 590.6188,217.7381 Q590.8844,217.535 591.025,217.4725 Q591.1656,217.41 591.3375,217.41 Q591.6656,217.41 591.9,217.6756 Q592.15,217.9256 592.15,218.285 Q592.15,218.6287 591.8063,219.035 Q591.3063,219.6287 590.5094,219.9569 Q589.4625,220.41 588.1813,220.41 Q586.6813,220.41 585.4781,219.8162 Q584.5094,219.3475 583.8219,218.3319 Q583.15,217.3162 583.15,216.1131 L583.15,215.0194 Q583.15,213.7694 583.7438,212.6756 Q584.3531,211.5819 585.4,211.0037 Q586.4625,210.41 587.65,210.41 Q588.3688,210.41 588.9938,210.66 Q589.6188,210.91 590.15,211.41 Z " fill="#000000"/><text fill="#000000" font-family="sans-serif" font-size="12" lengthAdjust="spacing" textLength="65" x="606.85" y="219.8202">AuthFacade</text><line style="stroke:#A80036;stroke-width:1.5;" x1="553" x2="695" y1="230.91" y2="230.91"/><line style="stroke:#A80036;stroke-width:1.0;" x1="553" x2="695" y1="238.91" y2="238.91"/><text fill="#000000" font-family="sans-serif" font-size="11" lengthAdjust="spacing" textLength="132" x="558" y="254.3289">+doLogin(email, password)</text><text fill="#000000" font-family="sans-serif" font-size="11" lengthAdjust="spacing" textLength="104" x="558" y="268.1649">+getCurrentSession()</text><!--MD5=[c5b08e60048ef1bcd788d24cf324082e]
class UserSession--><rect codeLine="10" fill="#FEFECE" filter="url(#fy7qhd4pw7jbh)" height="61.8359" id="UserSession" style="stroke:#A80036;stroke-width:1.5;" width="128" x="560" y="309.91"/><ellipse cx="585.35" cy="325.91" fill="#ADD1B2" rx="11" ry="11" style="stroke:#A80036;stroke-width:1.0;"/><path d="M587.35,322.41 Q587.5531,321.91 587.7875,321.66 Q588.0219,321.41 588.2875,321.41 Q588.7563,321.41 589.0531,321.6912 Q589.35,321.9725 589.35,322.6287 L589.35,324.1912 Q589.35,324.8475 589.0688,325.1287 Q588.7875,325.41 588.35,325.41 Q587.9594,325.41 587.7094,325.2381 Q587.4594,325.0662 587.35,324.6131 Q587.3031,324.3006 587.1313,324.1287 Q586.8188,323.8006 586.2563,323.6131 Q585.6938,323.41 585.1313,323.41 Q584.4281,323.41 583.8344,323.6912 Q583.2563,323.9725 582.8031,324.5975 Q582.35,325.2225 582.35,326.0819 L582.35,327.0037 Q582.35,328.035 583.1938,328.7225 Q584.0375,329.41 585.5375,329.41 Q586.4281,329.41 587.0531,329.2069 Q587.4125,329.0975 587.8188,328.7381 Q588.0844,328.535 588.225,328.4725 Q588.3656,328.41 588.5375,328.41 Q588.8656,328.41 589.1,328.6756 Q589.35,328.9256 589.35,329.285 Q589.35,329.6287 589.0063,330.035 Q588.5063,330.6287 587.7094,330.9569 Q586.6625,331.41 585.3813,331.41 Q583.8813,331.41 582.6781,330.8162 Q581.7094,330.3475 581.0219,329.3319 Q580.35,328.3162 580.35,327.1131 L580.35,326.0194 Q580.35,324.7694 580.9438,323.6756 Q581.5531,322.5819 582.6,322.0037 Q583.6625,321.41 584.85,321.41 Q585.5688,321.41 586.1938,321.66 Q586.8188,321.91 587.35,322.41 Z " fill="#000000"/><text fill="#000000" font-family="sans-serif" font-size="12" lengthAdjust="spacing" textLength="73" x="601.65" y="330.8202">UserSession</text><line style="stroke:#A80036;stroke-width:1.5;" x1="561" x2="687" y1="341.91" y2="341.91"/><line style="stroke:#A80036;stroke-width:1.0;" x1="561" x2="687" y1="349.91" y2="349.91"/><text fill="#000000" font-family="sans-serif" font-size="11" lengthAdjust="spacing" textLength="116" x="566" y="365.3289">+isLoggedInWithRole(id)</text><!--MD5=[1f6362a5c8f21d8d6a0fce68f3a92a4e]
class Parameter--><rect codeLine="15" fill="#FEFECE" filter="url(#fy7qhd4pw7jbh)" height="103.3438" id="Parameter" style="stroke:#A80036;stroke-width:1.5;" width="90" x="1284" y="294.41"/><ellipse cx="1299" cy="310.41" fill="#ADD1B2" rx="11" ry="11" style="stroke:#A80036;stroke-width:1.0;"/><path d="M1301,306.91 Q1301.2031,306.41 1301.4375,306.16 Q1301.6719,305.91 1301.9375,305.91 Q1302.4063,305.91 1302.7031,306.1912 Q1303,306.4725 1303,307.1287 L1303,308.6912 Q1303,309.3475 1302.7188,309.6287 Q1302.4375,309.91 1302,309.91 Q1301.6094,309.91 1301.3594,309.7381 Q1301.1094,309.5662 1301,309.1131 Q1300.9531,308.8006 1300.7813,308.6287 Q1300.4688,308.3006 1299.9063,308.1131 Q1299.3438,307.91 1298.7813,307.91 Q1298.0781,307.91 1297.4844,308.1912 Q1296.9063,308.4725 1296.4531,309.0975 Q1296,309.7225 1296,310.5819 L1296,311.5037 Q1296,312.535 1296.8438,313.2225 Q1297.6875,313.91 1299.1875,313.91 Q1300.0781,313.91 1300.7031,313.7069 Q1301.0625,313.5975 1301.4688,313.2381 Q1301.7344,313.035 1301.875,312.9725 Q1302.0156,312.91 1302.1875,312.91 Q1302.5156,312.91 1302.75,313.1756 Q1303,313.4256 1303,313.785 Q1303,314.1287 1302.6563,314.535 Q1302.1563,315.1287 1301.3594,315.4569 Q1300.3125,315.91 1299.0313,315.91 Q1297.5313,315.91 1296.3281,315.3162 Q1295.3594,314.8475 1294.6719,313.8319 Q1294,312.8162 1294,311.6131 L1294,310.5194 Q1294,309.2694 1294.5938,308.1756 Q1295.2031,307.0819 1296.25,306.5037 Q1297.3125,305.91 1298.5,305.91 Q1299.2188,305.91 1299.8438,306.16 Q1300.4688,306.41 1301,306.91 Z " fill="#000000"/><text fill="#000000" font-family="sans-serif" font-size="12" lengthAdjust="spacing" textLength="58" x="1313" y="315.3202">Parameter</text><line style="stroke:#A80036;stroke-width:1.5;" x1="1285" x2="1373" y1="326.41" y2="326.41"/><text fill="#000000" font-family="sans-serif" font-size="11" lengthAdjust="spacing" textLength="28" x="1290" y="341.8289">-code</text><text fill="#000000" font-family="sans-serif" font-size="11" lengthAdjust="spacing" textLength="30" x="1290" y="355.6649">-name</text><text fill="#000000" font-family="sans-serif" font-size="11" lengthAdjust="spacing" textLength="57" x="1290" y="369.5008">-description</text><text fill="#000000" font-family="sans-serif" font-size="11" lengthAdjust="spacing" textLength="47" x="1290" y="383.3368">-category</text><line style="stroke:#A80036;stroke-width:1.5;" x1="1285" x2="1373" y1="389.7537" y2="389.7537"/><!--MD5=[be7802b157a16874d39c59ca0e2b25be]
class ParameterStore--><rect codeLine="22" fill="#FEFECE" filter="url(#fy7qhd4pw7jbh)" height="117.1797" id="ParameterStore" style="stroke:#A80036;stroke-width:1.5;" width="261" x="843" y="67.41"/><ellipse cx="925.75" cy="83.41" fill="#ADD1B2" rx="11" ry="11" style="stroke:#A80036;stroke-width:1.0;"/><path d="M927.75,79.91 Q927.9531,79.41 928.1875,79.16 Q928.4219,78.91 928.6875,78.91 Q929.1563,78.91 929.4531,79.1912 Q929.75,79.4725 929.75,80.1287 L929.75,81.6912 Q929.75,82.3475 929.4688,82.6287 Q929.1875,82.91 928.75,82.91 Q928.3594,82.91 928.1094,82.7381 Q927.8594,82.5662 927.75,82.1131 Q927.7031,81.8006 927.5313,81.6287 Q927.2188,81.3006 926.6563,81.1131 Q926.0938,80.91 925.5313,80.91 Q924.8281,80.91 924.2344,81.1912 Q923.6563,81.4725 923.2031,82.0975 Q922.75,82.7225 922.75,83.5819 L922.75,84.5037 Q922.75,85.535 923.5938,86.2225 Q924.4375,86.91 925.9375,86.91 Q926.8281,86.91 927.4531,86.7069 Q927.8125,86.5975 928.2188,86.2381 Q928.4844,86.035 928.625,85.9725 Q928.7656,85.91 928.9375,85.91 Q929.2656,85.91 929.5,86.1756 Q929.75,86.4256 929.75,86.785 Q929.75,87.1287 929.4063,87.535 Q928.9063,88.1287 928.1094,88.4569 Q927.0625,88.91 925.7813,88.91 Q924.2813,88.91 923.0781,88.3162 Q922.1094,87.8475 921.4219,86.8319 Q920.75,85.8162 920.75,84.6131 L920.75,83.5194 Q920.75,82.2694 921.3438,81.1756 Q921.9531,80.0819 923,79.5037 Q924.0625,78.91 925.25,78.91 Q925.9688,78.91 926.5938,79.16 Q927.2188,79.41 927.75,79.91 Z " fill="#000000"/><text fill="#000000" font-family="sans-serif" font-size="12" lengthAdjust="spacing" textLength="87" x="946.25" y="88.3202">ParameterStore</text><line style="stroke:#A80036;stroke-width:1.5;" x1="844" x2="1103" y1="99.41" y2="99.41"/><line style="stroke:#A80036;stroke-width:1.5;" x1="844" x2="1103" y1="107.41" y2="107.41"/><text fill="#000000" font-family="sans-serif" font-size="11" lengthAdjust="spacing" textLength="249" x="849" y="122.8289">+createParameter(code,name,description,category)</text><text fill="#000000" font-family="sans-serif" font-size="11" lengthAdjust="spacing" textLength="110" x="849" y="136.6649">+validateParameter(pr)</text><text fill="#000000" font-family="sans-serif" font-size="11" lengthAdjust="spacing" textLength="97" x="849" y="150.5008">+saveParameter(pr)</text><text fill="#000000" font-family="sans-serif" font-size="11" lengthAdjust="spacing" textLength="91" x="849" y="164.3368">+addParameter(pr)</text><text fill="#000000" font-family="sans-serif" font-size="11" lengthAdjust="spacing" textLength="78" x="849" y="178.1727">+getParameter()</text><!--MD5=[d802db621b5b215a6f0466f93cefcb42]
class ParameterCategoryStore--><rect codeLine="32" fill="#FEFECE" filter="url(#fy7qhd4pw7jbh)" height="131.0156" id="ParameterCategoryStore" style="stroke:#A80036;stroke-width:1.5;" width="203" x="872" y="521.41"/><ellipse cx="902.75" cy="537.41" fill="#ADD1B2" rx="11" ry="11" style="stroke:#A80036;stroke-width:1.0;"/><path d="M904.75,533.91 Q904.9531,533.41 905.1875,533.16 Q905.4219,532.91 905.6875,532.91 Q906.1563,532.91 906.4531,533.1913 Q906.75,533.4725 906.75,534.1288 L906.75,535.6913 Q906.75,536.3475 906.4688,536.6288 Q906.1875,536.91 905.75,536.91 Q905.3594,536.91 905.1094,536.7381 Q904.8594,536.5663 904.75,536.1131 Q904.7031,535.8006 904.5313,535.6288 Q904.2188,535.3006 903.6563,535.1131 Q903.0938,534.91 902.5313,534.91 Q901.8281,534.91 901.2344,535.1913 Q900.6563,535.4725 900.2031,536.0975 Q899.75,536.7225 899.75,537.5819 L899.75,538.5038 Q899.75,539.535 900.5938,540.2225 Q901.4375,540.91 902.9375,540.91 Q903.8281,540.91 904.4531,540.7069 Q904.8125,540.5975 905.2188,540.2381 Q905.4844,540.035 905.625,539.9725 Q905.7656,539.91 905.9375,539.91 Q906.2656,539.91 906.5,540.1756 Q906.75,540.4256 906.75,540.785 Q906.75,541.1288 906.4063,541.535 Q905.9063,542.1288 905.1094,542.4569 Q904.0625,542.91 902.7813,542.91 Q901.2813,542.91 900.0781,542.3163 Q899.1094,541.8475 898.4219,540.8319 Q897.75,539.8163 897.75,538.6131 L897.75,537.5194 Q897.75,536.2694 898.3438,535.1756 Q898.9531,534.0819 900,533.5038 Q901.0625,532.91 902.25,532.91 Q902.9688,532.91 903.5938,533.16 Q904.2188,533.41 904.75,533.91 Z " fill="#000000"/><text fill="#000000" font-family="sans-serif" font-size="12" lengthAdjust="spacing" textLength="136" x="920.25" y="542.3202">ParameterCategoryStore</text><line style="stroke:#A80036;stroke-width:1.5;" x1="873" x2="1074" y1="553.41" y2="553.41"/><line style="stroke:#A80036;stroke-width:1.5;" x1="873" x2="1074" y1="561.41" y2="561.41"/><text fill="#000000" font-family="sans-serif" font-size="11" lengthAdjust="spacing" textLength="191" x="878" y="576.8289">+createParameterCategory(code,name)</text><text fill="#000000" font-family="sans-serif" font-size="11" lengthAdjust="spacing" textLength="156" x="878" y="590.6649">+validateParameterCategory(pc)</text><text fill="#000000" font-family="sans-serif" font-size="11" lengthAdjust="spacing" textLength="143" x="878" y="604.5008">+saveParameterCategory(pc)</text><text fill="#000000" font-family="sans-serif" font-size="11" lengthAdjust="spacing" textLength="137" x="878" y="618.3368">+addParameterCategory(pc)</text><text fill="#000000" font-family="sans-serif" font-size="11" lengthAdjust="spacing" textLength="122" x="878" y="632.1727">+getParameterCategory()</text><text fill="#000000" font-family="sans-serif" font-size="11" lengthAdjust="spacing" textLength="81" x="878" y="646.0086">+getCategories()</text><!--MD5=[99b8db98afdc2c8404e39242ef4c1e65]
class Platform--><rect codeLine="41" fill="#FEFECE" filter="url(#fy7qhd4pw7jbh)" height="75.6719" id="Platform" style="stroke:#A80036;stroke-width:1.5;" width="160" x="544" y="87.91"/><ellipse cx="596.75" cy="103.91" fill="#ADD1B2" rx="11" ry="11" style="stroke:#A80036;stroke-width:1.0;"/><path d="M598.75,100.41 Q598.9531,99.91 599.1875,99.66 Q599.4219,99.41 599.6875,99.41 Q600.1563,99.41 600.4531,99.6912 Q600.75,99.9725 600.75,100.6287 L600.75,102.1912 Q600.75,102.8475 600.4688,103.1287 Q600.1875,103.41 599.75,103.41 Q599.3594,103.41 599.1094,103.2381 Q598.8594,103.0662 598.75,102.6131 Q598.7031,102.3006 598.5313,102.1287 Q598.2188,101.8006 597.6563,101.6131 Q597.0938,101.41 596.5313,101.41 Q595.8281,101.41 595.2344,101.6912 Q594.6563,101.9725 594.2031,102.5975 Q593.75,103.2225 593.75,104.0819 L593.75,105.0037 Q593.75,106.035 594.5938,106.7225 Q595.4375,107.41 596.9375,107.41 Q597.8281,107.41 598.4531,107.2069 Q598.8125,107.0975 599.2188,106.7381 Q599.4844,106.535 599.625,106.4725 Q599.7656,106.41 599.9375,106.41 Q600.2656,106.41 600.5,106.6756 Q600.75,106.9256 600.75,107.285 Q600.75,107.6287 600.4063,108.035 Q599.9063,108.6287 599.1094,108.9569 Q598.0625,109.41 596.7813,109.41 Q595.2813,109.41 594.0781,108.8162 Q593.1094,108.3475 592.4219,107.3319 Q591.75,106.3162 591.75,105.1131 L591.75,104.0194 Q591.75,102.7694 592.3438,101.6756 Q592.9531,100.5819 594,100.0037 Q595.0625,99.41 596.25,99.41 Q596.9688,99.41 597.5938,99.66 Q598.2188,99.91 598.75,100.41 Z " fill="#000000"/><text fill="#000000" font-family="sans-serif" font-size="12" lengthAdjust="spacing" textLength="46" x="617.25" y="108.8202">Platform</text><line style="stroke:#A80036;stroke-width:1.5;" x1="545" x2="703" y1="119.91" y2="119.91"/><text fill="#000000" font-family="sans-serif" font-size="11" lengthAdjust="spacing" textLength="59" x="550" y="135.3289">-designation</text><line style="stroke:#A80036;stroke-width:1.5;" x1="545" x2="703" y1="141.7459" y2="141.7459"/><text fill="#000000" font-family="sans-serif" font-size="11" lengthAdjust="spacing" textLength="148" x="550" y="157.1649">+getParameterCategoryStore()</text><!--MD5=[5518e6815e09c51d4db6e17774f331d2]
class CreateParameterUI--><rect codeLine="46" fill="#FEFECE" filter="url(#fy7qhd4pw7jbh)" height="48" id="CreateParameterUI" style="stroke:#A80036;stroke-width:1.5;" width="139" x="7" y="704.91"/><ellipse cx="22" cy="720.91" fill="#ADD1B2" rx="11" ry="11" style="stroke:#A80036;stroke-width:1.0;"/><path d="M24,717.41 Q24.2031,716.91 24.4375,716.66 Q24.6719,716.41 24.9375,716.41 Q25.4063,716.41 25.7031,716.6913 Q26,716.9725 26,717.6288 L26,719.1913 Q26,719.8475 25.7188,720.1288 Q25.4375,720.41 25,720.41 Q24.6094,720.41 24.3594,720.2381 Q24.1094,720.0663 24,719.6131 Q23.9531,719.3006 23.7813,719.1288 Q23.4688,718.8006 22.9063,718.6131 Q22.3438,718.41 21.7813,718.41 Q21.0781,718.41 20.4844,718.6913 Q19.9063,718.9725 19.4531,719.5975 Q19,720.2225 19,721.0819 L19,722.0038 Q19,723.035 19.8438,723.7225 Q20.6875,724.41 22.1875,724.41 Q23.0781,724.41 23.7031,724.2069 Q24.0625,724.0975 24.4688,723.7381 Q24.7344,723.535 24.875,723.4725 Q25.0156,723.41 25.1875,723.41 Q25.5156,723.41 25.75,723.6756 Q26,723.9256 26,724.285 Q26,724.6288 25.6563,725.035 Q25.1563,725.6288 24.3594,725.9569 Q23.3125,726.41 22.0313,726.41 Q20.5313,726.41 19.3281,725.8163 Q18.3594,725.3475 17.6719,724.3319 Q17,723.3163 17,722.1131 L17,721.0194 Q17,719.7694 17.5938,718.6756 Q18.2031,717.5819 19.25,717.0038 Q20.3125,716.41 21.5,716.41 Q22.2188,716.41 22.8438,716.66 Q23.4688,716.91 24,717.41 Z " fill="#000000"/><text fill="#000000" font-family="sans-serif" font-size="12" lengthAdjust="spacing" textLength="107" x="36" y="725.8202">CreateParameterUI</text><line style="stroke:#A80036;stroke-width:1.5;" x1="8" x2="145" y1="736.91" y2="736.91"/><line style="stroke:#A80036;stroke-width:1.5;" x1="8" x2="145" y1="744.91" y2="744.91"/><!--MD5=[b9009a04d919d78a73c2eeec1e385786]
class CreateParameterController--><rect codeLine="48" fill="#FEFECE" filter="url(#fy7qhd4pw7jbh)" height="89.5078" id="CreateParameterController" style="stroke:#A80036;stroke-width:1.5;" width="227" x="207" y="379.91"/><ellipse cx="242.7" cy="395.91" fill="#ADD1B2" rx="11" ry="11" style="stroke:#A80036;stroke-width:1.0;"/><path d="M244.7,392.41 Q244.9031,391.91 245.1375,391.66 Q245.3719,391.41 245.6375,391.41 Q246.1063,391.41 246.4031,391.6912 Q246.7,391.9725 246.7,392.6287 L246.7,394.1912 Q246.7,394.8475 246.4188,395.1287 Q246.1375,395.41 245.7,395.41 Q245.3094,395.41 245.0594,395.2381 Q244.8094,395.0662 244.7,394.6131 Q244.6531,394.3006 244.4813,394.1287 Q244.1688,393.8006 243.6063,393.6131 Q243.0438,393.41 242.4813,393.41 Q241.7781,393.41 241.1844,393.6912 Q240.6063,393.9725 240.1531,394.5975 Q239.7,395.2225 239.7,396.0819 L239.7,397.0037 Q239.7,398.035 240.5438,398.7225 Q241.3875,399.41 242.8875,399.41 Q243.7781,399.41 244.4031,399.2069 Q244.7625,399.0975 245.1688,398.7381 Q245.4344,398.535 245.575,398.4725 Q245.7156,398.41 245.8875,398.41 Q246.2156,398.41 246.45,398.6756 Q246.7,398.9256 246.7,399.285 Q246.7,399.6287 246.3563,400.035 Q245.8563,400.6287 245.0594,400.9569 Q244.0125,401.41 242.7313,401.41 Q241.2313,401.41 240.0281,400.8162 Q239.0594,400.3475 238.3719,399.3319 Q237.7,398.3162 237.7,397.1131 L237.7,396.0194 Q237.7,394.7694 238.2938,393.6756 Q238.9031,392.5819 239.95,392.0037 Q241.0125,391.41 242.2,391.41 Q242.9188,391.41 243.5438,391.66 Q244.1688,391.91 244.7,392.41 Z " fill="#000000"/><text fill="#000000" font-family="sans-serif" font-size="12" lengthAdjust="spacing" textLength="149" x="261.3" y="400.8202">CreateParameterController</text><line style="stroke:#A80036;stroke-width:1.5;" x1="208" x2="433" y1="411.91" y2="411.91"/><line style="stroke:#A80036;stroke-width:1.5;" x1="208" x2="433" y1="419.91" y2="419.91"/><text fill="#000000" font-family="sans-serif" font-size="11" lengthAdjust="spacing" textLength="147" x="213" y="435.3289">+createParameter(code,name)</text><text fill="#000000" font-family="sans-serif" font-size="11" lengthAdjust="spacing" textLength="87" x="213" y="449.1649">+saveParameter()</text><text fill="#000000" font-family="sans-serif" font-size="11" lengthAdjust="spacing" textLength="215" x="213" y="463.0008">+List&lt;CategoriesDTO&gt; getListOfCategories()</text><!--MD5=[d63babda4aaccf35fa117b37a096c517]
class CategoriesMapper--><rect codeLine="54" fill="#FEFECE" filter="url(#fy7qhd4pw7jbh)" height="75.6719" id="CategoriesMapper" style="stroke:#A80036;stroke-width:1.5;" width="258" x="495" y="548.91"/><ellipse cx="568.75" cy="564.91" fill="#ADD1B2" rx="11" ry="11" style="stroke:#A80036;stroke-width:1.0;"/><path d="M570.75,561.41 Q570.9531,560.91 571.1875,560.66 Q571.4219,560.41 571.6875,560.41 Q572.1563,560.41 572.4531,560.6913 Q572.75,560.9725 572.75,561.6288 L572.75,563.1913 Q572.75,563.8475 572.4688,564.1288 Q572.1875,564.41 571.75,564.41 Q571.3594,564.41 571.1094,564.2381 Q570.8594,564.0663 570.75,563.6131 Q570.7031,563.3006 570.5313,563.1288 Q570.2188,562.8006 569.6563,562.6131 Q569.0938,562.41 568.5313,562.41 Q567.8281,562.41 567.2344,562.6913 Q566.6563,562.9725 566.2031,563.5975 Q565.75,564.2225 565.75,565.0819 L565.75,566.0038 Q565.75,567.035 566.5938,567.7225 Q567.4375,568.41 568.9375,568.41 Q569.8281,568.41 570.4531,568.2069 Q570.8125,568.0975 571.2188,567.7381 Q571.4844,567.535 571.625,567.4725 Q571.7656,567.41 571.9375,567.41 Q572.2656,567.41 572.5,567.6756 Q572.75,567.9256 572.75,568.285 Q572.75,568.6288 572.4063,569.035 Q571.9063,569.6288 571.1094,569.9569 Q570.0625,570.41 568.7813,570.41 Q567.2813,570.41 566.0781,569.8163 Q565.1094,569.3475 564.4219,568.3319 Q563.75,567.3163 563.75,566.1131 L563.75,565.0194 Q563.75,563.7694 564.3438,562.6756 Q564.9531,561.5819 566,561.0038 Q567.0625,560.41 568.25,560.41 Q568.9688,560.41 569.5938,560.66 Q570.2188,560.91 570.75,561.41 Z " fill="#000000"/><text fill="#000000" font-family="sans-serif" font-size="12" lengthAdjust="spacing" textLength="102" x="589.25" y="569.8202">CategoriesMapper</text><line style="stroke:#A80036;stroke-width:1.5;" x1="496" x2="752" y1="580.91" y2="580.91"/><line style="stroke:#A80036;stroke-width:1.5;" x1="496" x2="752" y1="588.91" y2="588.91"/><text fill="#000000" font-family="sans-serif" font-size="11" lengthAdjust="spacing" textLength="246" x="501" y="604.3289">+List&lt;CategoriesDTO&gt; toDTO(List&lt;Categories&gt; list)</text><text fill="#000000" font-family="sans-serif" font-size="11" lengthAdjust="spacing" textLength="189" x="501" y="618.1649">+CategoriesDTO toDTO(Categories obj)</text><!--MD5=[727fa3925923eb9cd04fc9d9261763cb]
class CategoriesDTO--><rect codeLine="59" fill="#FEFECE" filter="url(#fy7qhd4pw7jbh)" height="89.5078" id="CategoriesDTO" style="stroke:#A80036;stroke-width:1.5;" width="152" x="897.5" y="687.91"/><ellipse cx="927.8" cy="703.91" fill="#ADD1B2" rx="11" ry="11" style="stroke:#A80036;stroke-width:1.0;"/><path d="M929.8,700.41 Q930.0031,699.91 930.2375,699.66 Q930.4719,699.41 930.7375,699.41 Q931.2063,699.41 931.5031,699.6913 Q931.8,699.9725 931.8,700.6288 L931.8,702.1913 Q931.8,702.8475 931.5188,703.1288 Q931.2375,703.41 930.8,703.41 Q930.4094,703.41 930.1594,703.2381 Q929.9094,703.0663 929.8,702.6131 Q929.7531,702.3006 929.5813,702.1288 Q929.2688,701.8006 928.7063,701.6131 Q928.1438,701.41 927.5813,701.41 Q926.8781,701.41 926.2844,701.6913 Q925.7063,701.9725 925.2531,702.5975 Q924.8,703.2225 924.8,704.0819 L924.8,705.0038 Q924.8,706.035 925.6438,706.7225 Q926.4875,707.41 927.9875,707.41 Q928.8781,707.41 929.5031,707.2069 Q929.8625,707.0975 930.2688,706.7381 Q930.5344,706.535 930.675,706.4725 Q930.8156,706.41 930.9875,706.41 Q931.3156,706.41 931.55,706.6756 Q931.8,706.9256 931.8,707.285 Q931.8,707.6288 931.4563,708.035 Q930.9563,708.6288 930.1594,708.9569 Q929.1125,709.41 927.8313,709.41 Q926.3313,709.41 925.1281,708.8163 Q924.1594,708.3475 923.4719,707.3319 Q922.8,706.3163 922.8,705.1131 L922.8,704.0194 Q922.8,702.7694 923.3938,701.6756 Q924.0031,700.5819 925.05,700.0038 Q926.1125,699.41 927.3,699.41 Q928.0188,699.41 928.6438,699.66 Q929.2688,699.91 929.8,700.41 Z " fill="#000000"/><text fill="#000000" font-family="sans-serif" font-size="12" lengthAdjust="spacing" textLength="86" x="945.2" y="708.8202">CategoriesDTO</text><line style="stroke:#A80036;stroke-width:1.5;" x1="898.5" x2="1048.5" y1="719.91" y2="719.91"/><text fill="#000000" font-family="sans-serif" font-size="11" lengthAdjust="spacing" textLength="28" x="903.5" y="735.3289">-code</text><text fill="#000000" font-family="sans-serif" font-size="11" lengthAdjust="spacing" textLength="30" x="903.5" y="749.1649">-name</text><line style="stroke:#A80036;stroke-width:1.5;" x1="898.5" x2="1048.5" y1="755.5819" y2="755.5819"/><text fill="#000000" font-family="sans-serif" font-size="11" lengthAdjust="spacing" textLength="140" x="903.5" y="771.0008">+CategoriesDTO(code,name)</text><!--MD5=[7421f545a0d8420c5bec41e74b387d9c]
class Employee--><rect codeLine="65" fill="#FEFECE" filter="url(#fy7qhd4pw7jbh)" height="117.1797" id="Employee" style="stroke:#A80036;stroke-width:1.5;" width="87" x="1285.5" y="432.41"/><ellipse cx="1300.5" cy="448.41" fill="#ADD1B2" rx="11" ry="11" style="stroke:#A80036;stroke-width:1.0;"/><path d="M1302.5,444.91 Q1302.7031,444.41 1302.9375,444.16 Q1303.1719,443.91 1303.4375,443.91 Q1303.9063,443.91 1304.2031,444.1912 Q1304.5,444.4725 1304.5,445.1287 L1304.5,446.6912 Q1304.5,447.3475 1304.2188,447.6287 Q1303.9375,447.91 1303.5,447.91 Q1303.1094,447.91 1302.8594,447.7381 Q1302.6094,447.5662 1302.5,447.1131 Q1302.4531,446.8006 1302.2813,446.6287 Q1301.9688,446.3006 1301.4063,446.1131 Q1300.8438,445.91 1300.2813,445.91 Q1299.5781,445.91 1298.9844,446.1912 Q1298.4063,446.4725 1297.9531,447.0975 Q1297.5,447.7225 1297.5,448.5819 L1297.5,449.5037 Q1297.5,450.535 1298.3438,451.2225 Q1299.1875,451.91 1300.6875,451.91 Q1301.5781,451.91 1302.2031,451.7069 Q1302.5625,451.5975 1302.9688,451.2381 Q1303.2344,451.035 1303.375,450.9725 Q1303.5156,450.91 1303.6875,450.91 Q1304.0156,450.91 1304.25,451.1756 Q1304.5,451.4256 1304.5,451.785 Q1304.5,452.1287 1304.1563,452.535 Q1303.6563,453.1287 1302.8594,453.4569 Q1301.8125,453.91 1300.5313,453.91 Q1299.0313,453.91 1297.8281,453.3162 Q1296.8594,452.8475 1296.1719,451.8319 Q1295.5,450.8162 1295.5,449.6131 L1295.5,448.5194 Q1295.5,447.2694 1296.0938,446.1756 Q1296.7031,445.0819 1297.75,444.5037 Q1298.8125,443.91 1300,443.91 Q1300.7188,443.91 1301.3438,444.16 Q1301.9688,444.41 1302.5,444.91 Z " fill="#000000"/><text fill="#000000" font-family="sans-serif" font-size="12" lengthAdjust="spacing" textLength="55" x="1314.5" y="453.3202">Employee</text><line style="stroke:#A80036;stroke-width:1.5;" x1="1286.5" x2="1371.5" y1="464.41" y2="464.41"/><text fill="#000000" font-family="sans-serif" font-size="11" lengthAdjust="spacing" textLength="30" x="1291.5" y="479.8289">-name</text><text fill="#000000" font-family="sans-serif" font-size="11" lengthAdjust="spacing" textLength="43" x="1291.5" y="493.6649">-function</text><text fill="#000000" font-family="sans-serif" font-size="11" lengthAdjust="spacing" textLength="71" x="1291.5" y="507.5008">-phoneNumber</text><text fill="#000000" font-family="sans-serif" font-size="11" lengthAdjust="spacing" textLength="28" x="1291.5" y="521.3368">-email</text><text fill="#000000" font-family="sans-serif" font-size="11" lengthAdjust="spacing" textLength="44" x="1291.5" y="535.1727">-address</text><line style="stroke:#A80036;stroke-width:1.5;" x1="1286.5" x2="1371.5" y1="541.5897" y2="541.5897"/><!--MD5=[da547346deef918ea16944ba046651ef]
class Administrator--><rect codeLine="73" fill="#FEFECE" filter="url(#fy7qhd4pw7jbh)" height="75.6719" id="Administrator" style="stroke:#A80036;stroke-width:1.5;" width="105" x="921" y="409.91"/><ellipse cx="936" cy="425.91" fill="#ADD1B2" rx="11" ry="11" style="stroke:#A80036;stroke-width:1.0;"/><path d="M938,422.41 Q938.2031,421.91 938.4375,421.66 Q938.6719,421.41 938.9375,421.41 Q939.4063,421.41 939.7031,421.6912 Q940,421.9725 940,422.6287 L940,424.1912 Q940,424.8475 939.7188,425.1287 Q939.4375,425.41 939,425.41 Q938.6094,425.41 938.3594,425.2381 Q938.1094,425.0662 938,424.6131 Q937.9531,424.3006 937.7813,424.1287 Q937.4688,423.8006 936.9063,423.6131 Q936.3438,423.41 935.7813,423.41 Q935.0781,423.41 934.4844,423.6912 Q933.9063,423.9725 933.4531,424.5975 Q933,425.2225 933,426.0819 L933,427.0037 Q933,428.035 933.8438,428.7225 Q934.6875,429.41 936.1875,429.41 Q937.0781,429.41 937.7031,429.2069 Q938.0625,429.0975 938.4688,428.7381 Q938.7344,428.535 938.875,428.4725 Q939.0156,428.41 939.1875,428.41 Q939.5156,428.41 939.75,428.6756 Q940,428.9256 940,429.285 Q940,429.6287 939.6563,430.035 Q939.1563,430.6287 938.3594,430.9569 Q937.3125,431.41 936.0313,431.41 Q934.5313,431.41 933.3281,430.8162 Q932.3594,430.3475 931.6719,429.3319 Q931,428.3162 931,427.1131 L931,426.0194 Q931,424.7694 931.5938,423.6756 Q932.2031,422.5819 933.25,422.0037 Q934.3125,421.41 935.5,421.41 Q936.2188,421.41 936.8438,421.66 Q937.4688,421.91 938,422.41 Z " fill="#000000"/><text fill="#000000" font-family="sans-serif" font-size="12" lengthAdjust="spacing" textLength="73" x="950" y="430.8202">Administrator</text><line style="stroke:#A80036;stroke-width:1.5;" x1="922" x2="1025" y1="441.91" y2="441.91"/><text fill="#000000" font-family="sans-serif" font-size="11" lengthAdjust="spacing" textLength="58" x="927" y="457.3289">-idEmployee</text><text fill="#000000" font-family="sans-serif" font-size="11" lengthAdjust="spacing" textLength="22" x="927" y="471.1649">-soc</text><line style="stroke:#A80036;stroke-width:1.5;" x1="922" x2="1025" y1="477.5819" y2="477.5819"/><!--MD5=[9d3dd688f78c4545f26622cd23f9dd25]
link CreateParameterUI to CreateParameterController--><path codeLine="79" d="M96.69,704.8 C136.24,655.13 227.49,540.49 280.13,474.37 " fill="none" id="CreateParameterUI-to-CreateParameterController" style="stroke:#A80036;stroke-width:1.0;stroke-dasharray:7.0,7.0;"/><polygon fill="#A80036" points="283.54,470.08,274.7983,474.6169,280.42,473.9871,281.0497,479.6088,283.54,470.08" style="stroke:#A80036;stroke-width:1.0;"/><!--MD5=[84696d16ce82a7382a128a946269989c]
link CreateParameterUI to CategoriesDTO--><path codeLine="80" d="M146.24,729.22 C309.19,729.95 718.22,731.77 892.18,732.55 " fill="none" id="CreateParameterUI-to-CategoriesDTO" style="stroke:#A80036;stroke-width:1.0;stroke-dasharray:7.0,7.0;"/><polygon fill="#A80036" points="897.26,732.57,888.283,728.5186,892.2601,732.5414,888.2373,736.5185,897.26,732.57" style="stroke:#A80036;stroke-width:1.0;"/><!--MD5=[c225f117cc71c0157415f0e7d9a3073c]
link CreateParameterController to AuthFacade--><path codeLine="81" d="M373.38,379.66 C406.66,352.06 451.61,317.33 495,291.91 C511.21,282.41 529.38,273.61 546.81,265.96 " fill="none" id="CreateParameterController-to-AuthFacade" style="stroke:#A80036;stroke-width:1.0;stroke-dasharray:7.0,7.0;"/><polygon fill="#A80036" points="551.71,263.84,541.8614,263.7715,547.1269,265.8388,545.0595,271.1044,551.71,263.84" style="stroke:#A80036;stroke-width:1.0;"/><!--MD5=[abd2b2ff02538f19d037cd7b3931e91f]
link CreateParameterController to UserSession--><path codeLine="82" d="M434.2,393.51 C474.69,382.23 519.1,369.86 554.67,359.95 " fill="none" id="CreateParameterController-to-UserSession" style="stroke:#A80036;stroke-width:1.0;stroke-dasharray:7.0,7.0;"/><polygon fill="#A80036" points="559.85,358.5,550.1062,357.0652,555.0338,359.8434,552.2556,364.771,559.85,358.5" style="stroke:#A80036;stroke-width:1.0;"/><!--MD5=[ca0e047ef2b39d2dd394c7db5026d55c]
link CreateParameterController to Platform--><path codeLine="83" d="M343.81,379.6 C372.3,325.81 426.25,236.42 495,180.91 C508.05,170.38 523.41,161.51 538.89,154.19 " fill="none" id="CreateParameterController-to-Platform" style="stroke:#A80036;stroke-width:1.0;stroke-dasharray:7.0,7.0;"/><polygon fill="#A80036" points="543.69,151.97,533.8422,152.1156,539.1515,154.068,537.199,159.3772,543.69,151.97" style="stroke:#A80036;stroke-width:1.0;"/><!--MD5=[c56d23af98be554523068ac4fbdb568e]
link CreateParameterController to Parameter--><path codeLine="84" d="M434.03,416.08 C652.15,398.96 1124.55,361.88 1278.45,349.8 " fill="none" id="CreateParameterController-to-Parameter" style="stroke:#A80036;stroke-width:1.0;stroke-dasharray:7.0,7.0;"/><polygon fill="#A80036" points="1283.79,349.38,1274.4989,346.1126,1278.806,349.7799,1275.1387,354.0869,1283.79,349.38" style="stroke:#A80036;stroke-width:1.0;"/><!--MD5=[46706d5726812879537e05899d80bc9e]
link CreateParameterController to ParameterStore--><path codeLine="85" d="M328.16,379.74 C342.53,300.62 384.58,138.84 495,69.91 C597.37,6 736.41,32.14 838.05,67 " fill="none" id="CreateParameterController-to-ParameterStore" style="stroke:#A80036;stroke-width:1.0;stroke-dasharray:7.0,7.0;"/><polygon fill="#A80036" points="842.86,68.67,835.6531,61.9573,838.1325,67.0418,833.048,69.5212,842.86,68.67" style="stroke:#A80036;stroke-width:1.0;"/><!--MD5=[d4acd0f9b6f472dc8c1d58fc6da00ca5]
link CreateParameterController to ParameterCategoryStore--><path codeLine="86" d="M434.18,452.77 C521.25,474.32 644.78,504.93 753,531.91 C790.06,541.15 830.63,551.3 866.69,560.34 " fill="none" id="CreateParameterController-to-ParameterCategoryStore" style="stroke:#A80036;stroke-width:1.0;stroke-dasharray:7.0,7.0;"/><polygon fill="#A80036" points="871.98,561.67,864.2189,555.6066,867.1293,560.4573,862.2786,563.3677,871.98,561.67" style="stroke:#A80036;stroke-width:1.0;"/><!--MD5=[1890845a8958533c6f74c90e74f302d7]
link CreateParameterController to CategoriesMapper--><path codeLine="87" d="M381.8,470.09 C406.54,487.51 435.92,506.83 464,521.91 C480.33,530.68 498.1,539.02 515.66,546.63 " fill="none" id="CreateParameterController-to-CategoriesMapper" style="stroke:#A80036;stroke-width:1.0;stroke-dasharray:7.0,7.0;"/><polygon fill="#A80036" points="520.6,548.76,513.9034,541.5381,516.0043,546.7904,510.752,548.8913,520.6,548.76" style="stroke:#A80036;stroke-width:1.0;"/><!--MD5=[92d11745b69533c6ab721fd9e30f8120]
link CategoriesMapper to CategoriesDTO--><path codeLine="88" d="M740.39,625 C764.64,633.84 789.86,643.68 813,653.91 C826.82,660.02 829.54,663.05 843,669.91 C858.98,678.06 876.18,686.59 892.66,694.64 " fill="none" id="CategoriesMapper-to-CategoriesDTO" style="stroke:#A80036;stroke-width:1.0;stroke-dasharray:7.0,7.0;"/><polygon fill="#A80036" points="897.28,696.9,890.9609,689.3456,892.7908,694.6983,887.4382,696.5283,897.28,696.9" style="stroke:#A80036;stroke-width:1.0;"/><!--MD5=[a0dfdbafa24c42482eca2931f2f0f86e]
link CategoriesMapper to ParameterCategoryStore--><path codeLine="89" d="M753.41,586.91 C790.63,586.91 830.84,586.91 866.53,586.91 " fill="none" id="CategoriesMapper-to-ParameterCategoryStore" style="stroke:#A80036;stroke-width:1.0;stroke-dasharray:7.0,7.0;"/><polygon fill="#A80036" points="871.76,586.91,862.76,582.91,866.76,586.91,862.76,590.91,871.76,586.91" style="stroke:#A80036;stroke-width:1.0;"/><!--MD5=[8bfc4f455939e876d57ccda40ea6d2ae]
link CreateParameterController to CategoriesDTO--><path codeLine="90" d="M344.49,470.06 C372.75,520.67 425.61,601.09 495,642.91 C560.67,682.49 773.88,711.25 891.96,724.59 " fill="none" id="CreateParameterController-to-CategoriesDTO" style="stroke:#A80036;stroke-width:1.0;stroke-dasharray:7.0,7.0;"/><polygon fill="#A80036" points="897.16,725.17,888.6615,720.1925,892.1911,724.6131,887.7705,728.1428,897.16,725.17" style="stroke:#A80036;stroke-width:1.0;"/><!--MD5=[46db4adb1bbce10e1e4e87065d1f66a9]
link Platform to ParameterCategoryStore--><path codeLine="91" d="M704.26,147.05 C722.34,155.1 740.03,166.07 753,180.91 C851.08,293.11 754.45,384.05 843,503.91 C850.08,513.49 858.63,522.26 867.92,530.2 " fill="none" id="Platform-to-ParameterCategoryStore" style="stroke:#A80036;stroke-width:1.0;"/><polygon fill="#A80036" points="871.94,533.55,867.5835,524.717,868.0977,530.3505,862.4643,530.8647,871.94,533.55" style="stroke:#A80036;stroke-width:1.0;"/><text fill="#000000" font-family="sans-serif" font-size="13" lengthAdjust="spacing" textLength="28" x="784" y="224.4051">uses</text><text fill="#000000" font-family="sans-serif" font-size="13" lengthAdjust="spacing" textLength="7" x="711.9816" y="163.2628">1</text><text fill="#000000" font-family="sans-serif" font-size="13" lengthAdjust="spacing" textLength="7" x="856.8963" y="543.5851">1</text><!--MD5=[8a147455420d6b9e722437e7d47d25c9]
link Platform to ParameterStore--><path codeLine="92" d="M704.29,125.91 C743.73,125.91 792.51,125.91 837.6,125.91 " fill="none" id="Platform-to-ParameterStore" style="stroke:#A80036;stroke-width:1.0;"/><polygon fill="#A80036" points="842.8,125.91,833.8,121.91,837.8,125.91,833.8,129.91,842.8,125.91" style="stroke:#A80036;stroke-width:1.0;"/><text fill="#000000" font-family="sans-serif" font-size="13" lengthAdjust="spacing" textLength="28" x="784" y="122.4051">uses</text><text fill="#000000" font-family="sans-serif" font-size="13" lengthAdjust="spacing" textLength="7" x="712.0144" y="140.1739">1</text><text fill="#000000" font-family="sans-serif" font-size="13" lengthAdjust="spacing" textLength="7" x="828.0416" y="139.8726">1</text><!--MD5=[a0992dda039fed1bb57aff5aacace800]
link ParameterStore to Parameter--><path codeLine="93" d="M1068.77,184.58 C1136.6,226.8 1225.34,282.02 1279.43,315.68 " fill="none" id="ParameterStore-to-Parameter" style="stroke:#A80036;stroke-width:1.0;"/><polygon fill="#A80036" points="1283.91,318.47,1278.3857,310.3164,1279.666,315.8264,1274.1559,317.1068,1283.91,318.47" style="stroke:#A80036;stroke-width:1.0;"/><text fill="#000000" font-family="sans-serif" font-size="13" lengthAdjust="spacing" textLength="118" x="1135" y="226.4051">capable of analysing</text><text fill="#000000" font-family="sans-serif" font-size="13" lengthAdjust="spacing" textLength="7" x="1072.9545" y="206.211">1</text><text fill="#000000" font-family="sans-serif" font-size="13" lengthAdjust="spacing" textLength="5" x="1271.0279" y="328.746">*</text><!--MD5=[4816e9029af7918ac30a965ff8ded5aa]
link Administrator to Parameter--><path codeLine="94" d="M1026.25,446.43 C1083.93,443.16 1178.97,432.89 1254,400.91 C1262.7,397.2 1271.32,392.28 1279.44,386.9 " fill="none" id="Administrator-to-Parameter" style="stroke:#A80036;stroke-width:1.0;"/><polygon fill="#A80036" points="1283.9,383.86,1274.2104,385.6241,1279.7686,386.6762,1278.7164,392.2344,1283.9,383.86" style="stroke:#A80036;stroke-width:1.0;"/><text fill="#000000" font-family="sans-serif" font-size="13" lengthAdjust="spacing" textLength="83" x="1152.5" y="397.4051">asks to create</text><text fill="#000000" font-family="sans-serif" font-size="13" lengthAdjust="spacing" textLength="7" x="1034.1602" y="460.8898">1</text><text fill="#000000" font-family="sans-serif" font-size="13" lengthAdjust="spacing" textLength="5" x="1271.0163" y="404.9662">*</text><!--MD5=[8f7dd94d56b58fc07b233ccd3dd98f8c]
link Administrator to Employee--><path codeLine="95" d="M1026.15,455.9 C1057.34,460.59 1097.9,466.45 1134,470.91 C1183.69,477.05 1240.7,482.77 1279.99,486.51 " fill="none" id="Administrator-to-Employee" style="stroke:#A80036;stroke-width:1.0;"/><polygon fill="#A80036" points="1285.18,487,1276.5965,482.1705,1280.2022,486.5293,1275.8434,490.135,1285.18,487" style="stroke:#A80036;stroke-width:1.0;"/><text fill="#000000" font-family="sans-serif" font-size="13" lengthAdjust="spacing" textLength="10" x="1189" y="467.4051">is</text><text fill="#000000" font-family="sans-serif" font-size="13" lengthAdjust="spacing" textLength="7" x="1034.0461" y="471.6915">1</text><text fill="#000000" font-family="sans-serif" font-size="13" lengthAdjust="spacing" textLength="5" x="1272.5083" y="501.1868">*</text><!--MD5=[ffc8e2f6aa356fec2ccacbf517579c0c]
@startuml
skinparam classAttributeIconSize 0
left to right direction

class AuthFacade{
    - -
    +doLogin(email, password)
    +getCurrentSession()
}

class UserSession{
    - -
    +isLoggedInWithRole(id)
}

class Parameter {
  -code
  -name
  -description
  -category
}

class ParameterStore{
    +createParameter(code,name,description,category)
    +validateParameter(pr)
    +saveParameter(pr)
    +addParameter(pr)
    +getParameter()
}



class ParameterCategoryStore{
    +createParameterCategory(code,name)
    +validateParameterCategory(pc)
    +saveParameterCategory(pc)
    +addParameterCategory(pc)
    +getParameterCategory()
    +getCategories()
}

class Platform {
  -designation
  +getParameterCategoryStore()
}

class CreateParameterUI{}

class CreateParameterController{
    +createParameter(code,name)
    +saveParameter()
    +List<CategoriesDTO> getListOfCategories()
}

class CategoriesMapper{
    +List<CategoriesDTO> toDTO(List<Categories> list)
    +CategoriesDTO toDTO(Categories obj)
}

class CategoriesDTO{
    -code
    -name
    +CategoriesDTO(code,name)
}

class Employee{
    -name
    -function
    -phoneNumber
    -email
    -address
}

class Administrator{
    -idEmployee
    -soc
}


CreateParameterUI ..> CreateParameterController
CreateParameterUI ..> CategoriesDTO
CreateParameterController ..> AuthFacade
CreateParameterController ..> UserSession
CreateParameterController ..> Platform
CreateParameterController ..> Parameter
CreateParameterController ..> ParameterStore
CreateParameterController ..> ParameterCategoryStore
CreateParameterController ..> CategoriesMapper
CategoriesMapper ..> CategoriesDTO
CategoriesMapper ..> ParameterCategoryStore
CreateParameterController ..> CategoriesDTO
Platform "1" - -> "1" ParameterCategoryStore : uses
Platform "1" - -> "1" ParameterStore : uses
ParameterStore "1" - -> "*" Parameter : capable of analysing
Administrator "1" - -> "*" Parameter : asks to create
Administrator "1" - -> "*" Employee : is

@enduml

PlantUML version 1.2021.2(Sun Mar 07 11:10:27 GMT 2021)
(GPL source distribution)
Java Runtime: OpenJDK Runtime Environment
JVM: OpenJDK 64-Bit Server VM
Default Encoding: Cp1252
Language: pt
Country: PT
--></g></svg>