<?xml version="1.0" encoding="UTF-8" standalone="no"?><svg xmlns="http://www.w3.org/2000/svg" xmlns:xlink="http://www.w3.org/1999/xlink" contentScriptType="application/ecmascript" contentStyleType="text/css" height="325px" preserveAspectRatio="none" style="width:1141px;height:325px;" version="1.1" viewBox="0 0 1141 325" width="1141px" zoomAndPan="magnify"><defs><filter height="300%" id="f1nxmr95u517lz" width="300%" x="-1" y="-1"><feGaussianBlur result="blurOut" stdDeviation="2.0"/><feColorMatrix in="blurOut" result="blurOut2" type="matrix" values="0 0 0 0 0 0 0 0 0 0 0 0 0 0 0 0 0 0 .4 0"/><feOffset dx="4.0" dy="4.0" in="blurOut2" result="blurOut3"/><feBlend in="SourceGraphic" in2="blurOut3" mode="normal"/></filter></defs><g><!--MD5=[1934a092c0e7d4da7dc7075b6f4b6b03]
class ClinicalAnalysisLaboratory--><rect codeLine="5" fill="#FEFECE" filter="url(#f1nxmr95u517lz)" height="123.0156" id="ClinicalAnalysisLaboratory" style="stroke:#A80036;stroke-width:1.5;" width="177" x="7" y="188"/><ellipse cx="22" cy="204" fill="#ADD1B2" rx="11" ry="11" style="stroke:#A80036;stroke-width:1.0;"/><path d="M24,200.5 Q24.2031,200 24.4375,199.75 Q24.6719,199.5 24.9375,199.5 Q25.4063,199.5 25.7031,199.7813 Q26,200.0625 26,200.7188 L26,202.2813 Q26,202.9375 25.7188,203.2188 Q25.4375,203.5 25,203.5 Q24.6094,203.5 24.3594,203.3281 Q24.1094,203.1563 24,202.7031 Q23.9531,202.3906 23.7813,202.2188 Q23.4688,201.8906 22.9063,201.7031 Q22.3438,201.5 21.7813,201.5 Q21.0781,201.5 20.4844,201.7813 Q19.9063,202.0625 19.4531,202.6875 Q19,203.3125 19,204.1719 L19,205.0938 Q19,206.125 19.8438,206.8125 Q20.6875,207.5 22.1875,207.5 Q23.0781,207.5 23.7031,207.2969 Q24.0625,207.1875 24.4688,206.8281 Q24.7344,206.625 24.875,206.5625 Q25.0156,206.5 25.1875,206.5 Q25.5156,206.5 25.75,206.7656 Q26,207.0156 26,207.375 Q26,207.7188 25.6563,208.125 Q25.1563,208.7188 24.3594,209.0469 Q23.3125,209.5 22.0313,209.5 Q20.5313,209.5 19.3281,208.9063 Q18.3594,208.4375 17.6719,207.4219 Q17,206.4063 17,205.2031 L17,204.1094 Q17,202.8594 17.5938,201.7656 Q18.2031,200.6719 19.25,200.0938 Q20.3125,199.5 21.5,199.5 Q22.2188,199.5 22.8438,199.75 Q23.4688,200 24,200.5 Z " fill="#000000"/><text fill="#000000" font-family="sans-serif" font-size="12" lengthAdjust="spacing" textLength="145" x="36" y="208.9102">ClinicalAnalysisLaboratory</text><line style="stroke:#A80036;stroke-width:1.5;" x1="8" x2="183" y1="220" y2="220"/><text fill="#000000" font-family="sans-serif" font-size="11" lengthAdjust="spacing" textLength="65" x="13" y="235.4189">-idLaboratory</text><text fill="#000000" font-family="sans-serif" font-size="11" lengthAdjust="spacing" textLength="30" x="13" y="249.2549">-name</text><text fill="#000000" font-family="sans-serif" font-size="11" lengthAdjust="spacing" textLength="44" x="13" y="263.0908">-address</text><text fill="#000000" font-family="sans-serif" font-size="11" lengthAdjust="spacing" textLength="71" x="13" y="276.9268">-phoneNumber</text><text fill="#000000" font-family="sans-serif" font-size="11" lengthAdjust="spacing" textLength="15" x="13" y="290.7627">-tin</text><text fill="#000000" font-family="sans-serif" font-size="11" lengthAdjust="spacing" textLength="46" x="13" y="304.5986">-testType</text><!--MD5=[99b8db98afdc2c8404e39242ef4c1e65]
class Platform--><rect codeLine="14" fill="#FEFECE" filter="url(#f1nxmr95u517lz)" height="53.8359" id="Platform" style="stroke:#A80036;stroke-width:1.5;" width="78" x="1049" y="34.5"/><ellipse cx="1064" cy="50.5" fill="#ADD1B2" rx="11" ry="11" style="stroke:#A80036;stroke-width:1.0;"/><path d="M1066,47 Q1066.2031,46.5 1066.4375,46.25 Q1066.6719,46 1066.9375,46 Q1067.4063,46 1067.7031,46.2813 Q1068,46.5625 1068,47.2188 L1068,48.7813 Q1068,49.4375 1067.7188,49.7188 Q1067.4375,50 1067,50 Q1066.6094,50 1066.3594,49.8281 Q1066.1094,49.6563 1066,49.2031 Q1065.9531,48.8906 1065.7813,48.7188 Q1065.4688,48.3906 1064.9063,48.2031 Q1064.3438,48 1063.7813,48 Q1063.0781,48 1062.4844,48.2813 Q1061.9063,48.5625 1061.4531,49.1875 Q1061,49.8125 1061,50.6719 L1061,51.5938 Q1061,52.625 1061.8438,53.3125 Q1062.6875,54 1064.1875,54 Q1065.0781,54 1065.7031,53.7969 Q1066.0625,53.6875 1066.4688,53.3281 Q1066.7344,53.125 1066.875,53.0625 Q1067.0156,53 1067.1875,53 Q1067.5156,53 1067.75,53.2656 Q1068,53.5156 1068,53.875 Q1068,54.2188 1067.6563,54.625 Q1067.1563,55.2188 1066.3594,55.5469 Q1065.3125,56 1064.0313,56 Q1062.5313,56 1061.3281,55.4063 Q1060.3594,54.9375 1059.6719,53.9219 Q1059,52.9063 1059,51.7031 L1059,50.6094 Q1059,49.3594 1059.5938,48.2656 Q1060.2031,47.1719 1061.25,46.5938 Q1062.3125,46 1063.5,46 Q1064.2188,46 1064.8438,46.25 Q1065.4688,46.5 1066,47 Z " fill="#000000"/><text fill="#000000" font-family="sans-serif" font-size="12" lengthAdjust="spacing" textLength="46" x="1078" y="55.4102">Platform</text><line style="stroke:#A80036;stroke-width:1.5;" x1="1050" x2="1126" y1="66.5" y2="66.5"/><text fill="#000000" font-family="sans-serif" font-size="11" lengthAdjust="spacing" textLength="59" x="1055" y="81.9189">-designation</text><!--MD5=[7421f545a0d8420c5bec41e74b387d9c]
class Employee--><rect codeLine="18" fill="#FEFECE" filter="url(#f1nxmr95u517lz)" height="109.1797" id="Employee" style="stroke:#A80036;stroke-width:1.5;" width="87" x="857.5" y="7"/><ellipse cx="872.5" cy="23" fill="#ADD1B2" rx="11" ry="11" style="stroke:#A80036;stroke-width:1.0;"/><path d="M874.5,19.5 Q874.7031,19 874.9375,18.75 Q875.1719,18.5 875.4375,18.5 Q875.9063,18.5 876.2031,18.7813 Q876.5,19.0625 876.5,19.7188 L876.5,21.2813 Q876.5,21.9375 876.2188,22.2188 Q875.9375,22.5 875.5,22.5 Q875.1094,22.5 874.8594,22.3281 Q874.6094,22.1563 874.5,21.7031 Q874.4531,21.3906 874.2813,21.2188 Q873.9688,20.8906 873.4063,20.7031 Q872.8438,20.5 872.2813,20.5 Q871.5781,20.5 870.9844,20.7813 Q870.4063,21.0625 869.9531,21.6875 Q869.5,22.3125 869.5,23.1719 L869.5,24.0938 Q869.5,25.125 870.3438,25.8125 Q871.1875,26.5 872.6875,26.5 Q873.5781,26.5 874.2031,26.2969 Q874.5625,26.1875 874.9688,25.8281 Q875.2344,25.625 875.375,25.5625 Q875.5156,25.5 875.6875,25.5 Q876.0156,25.5 876.25,25.7656 Q876.5,26.0156 876.5,26.375 Q876.5,26.7188 876.1563,27.125 Q875.6563,27.7188 874.8594,28.0469 Q873.8125,28.5 872.5313,28.5 Q871.0313,28.5 869.8281,27.9063 Q868.8594,27.4375 868.1719,26.4219 Q867.5,25.4063 867.5,24.2031 L867.5,23.1094 Q867.5,21.8594 868.0938,20.7656 Q868.7031,19.6719 869.75,19.0938 Q870.8125,18.5 872,18.5 Q872.7188,18.5 873.3438,18.75 Q873.9688,19 874.5,19.5 Z " fill="#000000"/><text fill="#000000" font-family="sans-serif" font-size="12" lengthAdjust="spacing" textLength="55" x="886.5" y="27.9102">Employee</text><line style="stroke:#A80036;stroke-width:1.5;" x1="858.5" x2="943.5" y1="39" y2="39"/><text fill="#000000" font-family="sans-serif" font-size="11" lengthAdjust="spacing" textLength="30" x="863.5" y="54.4189">-name</text><text fill="#000000" font-family="sans-serif" font-size="11" lengthAdjust="spacing" textLength="43" x="863.5" y="68.2549">-function</text><text fill="#000000" font-family="sans-serif" font-size="11" lengthAdjust="spacing" textLength="71" x="863.5" y="82.0908">-phoneNumber</text><text fill="#000000" font-family="sans-serif" font-size="11" lengthAdjust="spacing" textLength="28" x="863.5" y="95.9268">-email</text><text fill="#000000" font-family="sans-serif" font-size="11" lengthAdjust="spacing" textLength="44" x="863.5" y="109.7627">-address</text><!--MD5=[da547346deef918ea16944ba046651ef]
class Administrator--><rect codeLine="26" fill="#FEFECE" filter="url(#f1nxmr95u517lz)" height="67.6719" id="Administrator" style="stroke:#A80036;stroke-width:1.5;" width="105" x="638.5" y="69.5"/><ellipse cx="653.5" cy="85.5" fill="#ADD1B2" rx="11" ry="11" style="stroke:#A80036;stroke-width:1.0;"/><path d="M655.5,82 Q655.7031,81.5 655.9375,81.25 Q656.1719,81 656.4375,81 Q656.9063,81 657.2031,81.2813 Q657.5,81.5625 657.5,82.2188 L657.5,83.7813 Q657.5,84.4375 657.2188,84.7188 Q656.9375,85 656.5,85 Q656.1094,85 655.8594,84.8281 Q655.6094,84.6563 655.5,84.2031 Q655.4531,83.8906 655.2813,83.7188 Q654.9688,83.3906 654.4063,83.2031 Q653.8438,83 653.2813,83 Q652.5781,83 651.9844,83.2813 Q651.4063,83.5625 650.9531,84.1875 Q650.5,84.8125 650.5,85.6719 L650.5,86.5938 Q650.5,87.625 651.3438,88.3125 Q652.1875,89 653.6875,89 Q654.5781,89 655.2031,88.7969 Q655.5625,88.6875 655.9688,88.3281 Q656.2344,88.125 656.375,88.0625 Q656.5156,88 656.6875,88 Q657.0156,88 657.25,88.2656 Q657.5,88.5156 657.5,88.875 Q657.5,89.2188 657.1563,89.625 Q656.6563,90.2188 655.8594,90.5469 Q654.8125,91 653.5313,91 Q652.0313,91 650.8281,90.4063 Q649.8594,89.9375 649.1719,88.9219 Q648.5,87.9063 648.5,86.7031 L648.5,85.6094 Q648.5,84.3594 649.0938,83.2656 Q649.7031,82.1719 650.75,81.5938 Q651.8125,81 653,81 Q653.7188,81 654.3438,81.25 Q654.9688,81.5 655.5,82 Z " fill="#000000"/><text fill="#000000" font-family="sans-serif" font-size="12" lengthAdjust="spacing" textLength="73" x="667.5" y="90.4102">Administrator</text><line style="stroke:#A80036;stroke-width:1.5;" x1="639.5" x2="742.5" y1="101.5" y2="101.5"/><text fill="#000000" font-family="sans-serif" font-size="11" lengthAdjust="spacing" textLength="58" x="644.5" y="116.9189">-idEmployee</text><text fill="#000000" font-family="sans-serif" font-size="11" lengthAdjust="spacing" textLength="22" x="644.5" y="130.7549">-soc</text><!--MD5=[c205b6d306292bbc5c8991a0afd5f433]
class ParametersCategory--><rect codeLine="31" fill="#FEFECE" filter="url(#f1nxmr95u517lz)" height="67.6719" id="ParametersCategory" style="stroke:#A80036;stroke-width:1.5;" width="146" x="298" y="156.5"/><ellipse cx="313" cy="172.5" fill="#ADD1B2" rx="11" ry="11" style="stroke:#A80036;stroke-width:1.0;"/><path d="M315,169 Q315.2031,168.5 315.4375,168.25 Q315.6719,168 315.9375,168 Q316.4063,168 316.7031,168.2813 Q317,168.5625 317,169.2188 L317,170.7813 Q317,171.4375 316.7188,171.7188 Q316.4375,172 316,172 Q315.6094,172 315.3594,171.8281 Q315.1094,171.6563 315,171.2031 Q314.9531,170.8906 314.7813,170.7188 Q314.4688,170.3906 313.9063,170.2031 Q313.3438,170 312.7813,170 Q312.0781,170 311.4844,170.2813 Q310.9063,170.5625 310.4531,171.1875 Q310,171.8125 310,172.6719 L310,173.5938 Q310,174.625 310.8438,175.3125 Q311.6875,176 313.1875,176 Q314.0781,176 314.7031,175.7969 Q315.0625,175.6875 315.4688,175.3281 Q315.7344,175.125 315.875,175.0625 Q316.0156,175 316.1875,175 Q316.5156,175 316.75,175.2656 Q317,175.5156 317,175.875 Q317,176.2188 316.6563,176.625 Q316.1563,177.2188 315.3594,177.5469 Q314.3125,178 313.0313,178 Q311.5313,178 310.3281,177.4063 Q309.3594,176.9375 308.6719,175.9219 Q308,174.9063 308,173.7031 L308,172.6094 Q308,171.3594 308.5938,170.2656 Q309.2031,169.1719 310.25,168.5938 Q311.3125,168 312.5,168 Q313.2188,168 313.8438,168.25 Q314.4688,168.5 315,169 Z " fill="#000000"/><text fill="#000000" font-family="sans-serif" font-size="12" lengthAdjust="spacing" textLength="114" x="327" y="177.4102">ParametersCategory</text><line style="stroke:#A80036;stroke-width:1.5;" x1="299" x2="443" y1="188.5" y2="188.5"/><text fill="#000000" font-family="sans-serif" font-size="11" lengthAdjust="spacing" textLength="28" x="304" y="203.9189">-code</text><text fill="#000000" font-family="sans-serif" font-size="11" lengthAdjust="spacing" textLength="30" x="304" y="217.7549">-name</text><!--MD5=[1f6362a5c8f21d8d6a0fce68f3a92a4e]
class Parameter--><rect codeLine="36" fill="#FEFECE" filter="url(#f1nxmr95u517lz)" height="81.5078" id="Parameter" style="stroke:#A80036;stroke-width:1.5;" width="90" x="856" y="151.5"/><ellipse cx="871" cy="167.5" fill="#ADD1B2" rx="11" ry="11" style="stroke:#A80036;stroke-width:1.0;"/><path d="M873,164 Q873.2031,163.5 873.4375,163.25 Q873.6719,163 873.9375,163 Q874.4063,163 874.7031,163.2813 Q875,163.5625 875,164.2188 L875,165.7813 Q875,166.4375 874.7188,166.7188 Q874.4375,167 874,167 Q873.6094,167 873.3594,166.8281 Q873.1094,166.6563 873,166.2031 Q872.9531,165.8906 872.7813,165.7188 Q872.4688,165.3906 871.9063,165.2031 Q871.3438,165 870.7813,165 Q870.0781,165 869.4844,165.2813 Q868.9063,165.5625 868.4531,166.1875 Q868,166.8125 868,167.6719 L868,168.5938 Q868,169.625 868.8438,170.3125 Q869.6875,171 871.1875,171 Q872.0781,171 872.7031,170.7969 Q873.0625,170.6875 873.4688,170.3281 Q873.7344,170.125 873.875,170.0625 Q874.0156,170 874.1875,170 Q874.5156,170 874.75,170.2656 Q875,170.5156 875,170.875 Q875,171.2188 874.6563,171.625 Q874.1563,172.2188 873.3594,172.5469 Q872.3125,173 871.0313,173 Q869.5313,173 868.3281,172.4063 Q867.3594,171.9375 866.6719,170.9219 Q866,169.9063 866,168.7031 L866,167.6094 Q866,166.3594 866.5938,165.2656 Q867.2031,164.1719 868.25,163.5938 Q869.3125,163 870.5,163 Q871.2188,163 871.8438,163.25 Q872.4688,163.5 873,164 Z " fill="#000000"/><text fill="#000000" font-family="sans-serif" font-size="12" lengthAdjust="spacing" textLength="58" x="885" y="172.4102">Parameter</text><line style="stroke:#A80036;stroke-width:1.5;" x1="857" x2="945" y1="183.5" y2="183.5"/><text fill="#000000" font-family="sans-serif" font-size="11" lengthAdjust="spacing" textLength="28" x="862" y="198.9189">-code</text><text fill="#000000" font-family="sans-serif" font-size="11" lengthAdjust="spacing" textLength="30" x="862" y="212.7549">-name</text><text fill="#000000" font-family="sans-serif" font-size="11" lengthAdjust="spacing" textLength="57" x="862" y="226.5908">-description</text><!--MD5=[63ebae975f1983e94833a8f48fa30fd9]
link ClinicalAnalysisLaboratory to Parameter--><path codeLine="43" d="M184.06,249.89 C254.39,249.69 355.63,248.22 444,242.5 C595.6,232.68 774.45,209.73 855.77,198.68 " fill="none" id="ClinicalAnalysisLaboratory-Parameter" style="stroke:#A80036;stroke-width:1.0;"/><polygon fill="#000000" points="483.9855,219.2957,474.7432,217.0529,475.19,222.9137,483.9855,219.2957" style="stroke:#000000;stroke-width:1.0;"/><text fill="#000000" font-family="sans-serif" font-size="13" lengthAdjust="spacing" textLength="118" x="488" y="224.9951">capable of analysing</text><text fill="#000000" font-family="sans-serif" font-size="13" lengthAdjust="spacing" textLength="7" x="191.9714" y="264.1206">1</text><text fill="#000000" font-family="sans-serif" font-size="13" lengthAdjust="spacing" textLength="5" x="842.8647" y="214.5936">*</text><!--MD5=[39d692d92ddd6d250b774484c295acbe]
link ParametersCategory to Administrator--><path codeLine="44" d="M444.16,170.76 C503.35,154.57 585.7,132.04 638.43,117.61 " fill="none" id="ParametersCategory-Administrator" style="stroke:#A80036;stroke-width:1.0;"/><polygon fill="#000000" points="512.3228,117.3563,502.8227,116.9085,504.3739,122.578,512.3228,117.3563" style="stroke:#000000;stroke-width:1.0;"/><text fill="#000000" font-family="sans-serif" font-size="13" lengthAdjust="spacing" textLength="61" x="516.5" y="123.9951">created by</text><text fill="#000000" font-family="sans-serif" font-size="13" lengthAdjust="spacing" textLength="5" x="451.9624" y="183.0795">*</text><text fill="#000000" font-family="sans-serif" font-size="13" lengthAdjust="spacing" textLength="7" x="623.5452" y="134.2621">1</text><!--MD5=[8f7dd94d56b58fc07b233ccd3dd98f8c]
link Administrator to Employee--><path codeLine="45" d="M743.68,93.06 C778.69,85.99 824.4,76.76 857.34,70.11 " fill="none" id="Administrator-Employee" style="stroke:#A80036;stroke-width:1.0;"/><polygon fill="#000000" points="797.9011,68.6862,788.4533,67.5956,789.6166,73.3572,797.9011,68.6862" style="stroke:#000000;stroke-width:1.0;"/><text fill="#000000" font-family="sans-serif" font-size="13" lengthAdjust="spacing" textLength="10" x="802" y="74.9951">is</text><text fill="#000000" font-family="sans-serif" font-size="13" lengthAdjust="spacing" textLength="7" x="751.5803" y="106.2598">1</text><text fill="#000000" font-family="sans-serif" font-size="13" lengthAdjust="spacing" textLength="5" x="844.4063" y="86.4747">*</text><!--MD5=[8f8a94fdc25bb6da32e761019cf941a7]
link ClinicalAnalysisLaboratory to ParametersCategory--><path codeLine="46" d="M184.17,230.59 C220.88,222.67 263.04,213.57 297.92,206.05 " fill="none" id="ClinicalAnalysisLaboratory-ParametersCategory" style="stroke:#A80036;stroke-width:1.0;"/><polygon fill="#000000" points="223.8876,202.6214,214.4261,201.656,215.6657,207.4017,223.8876,202.6214" style="stroke:#000000;stroke-width:1.0;"/><text fill="#000000" font-family="sans-serif" font-size="13" lengthAdjust="spacing" textLength="39" x="228" y="208.9951">adopts</text><text fill="#000000" font-family="sans-serif" font-size="13" lengthAdjust="spacing" textLength="7" x="192.0909" y="243.162">1</text><text fill="#000000" font-family="sans-serif" font-size="13" lengthAdjust="spacing" textLength="5" x="285.1258" y="222.0088">*</text><!--MD5=[4816e9029af7918ac30a965ff8ded5aa]
link Administrator to Parameter--><path codeLine="47" d="M743.68,125.61 C778.21,140.39 823.15,159.62 855.97,173.66 " fill="none" id="Administrator-Parameter" style="stroke:#A80036;stroke-width:1.0;"/><polygon fill="#000000" points="784.5968,133.6428,777.4373,127.3825,775.1249,132.7864,784.5968,133.6428" style="stroke:#000000;stroke-width:1.0;"/><text fill="#000000" font-family="sans-serif" font-size="13" lengthAdjust="spacing" textLength="36" x="789" y="136.9951">create</text><text fill="#000000" font-family="sans-serif" font-size="13" lengthAdjust="spacing" textLength="7" x="751.5803" y="143.3871">1</text><text fill="#000000" font-family="sans-serif" font-size="13" lengthAdjust="spacing" textLength="5" x="843.0978" y="185.4296">*</text><!--MD5=[098d103e04607394cbdaa890003edd6e]
link Parameter to ParametersCategory--><path codeLine="48" d="M855.88,192.33 C764.76,191.99 555.08,191.19 444.03,190.77 " fill="none" id="Parameter-ParametersCategory" style="stroke:#A80036;stroke-width:1.0;"/><polygon fill="#000000" points="637,182.6568,646.0339,185.63,646.0562,179.7522,637,182.6568" style="stroke:#000000;stroke-width:1.0;"/><text fill="#000000" font-family="sans-serif" font-size="13" lengthAdjust="spacing" textLength="93" x="651" y="187.9951">presented under</text><text fill="#000000" font-family="sans-serif" font-size="13" lengthAdjust="spacing" textLength="5" x="842.9929" y="207.1918">*</text><text fill="#000000" font-family="sans-serif" font-size="13" lengthAdjust="spacing" textLength="7" x="451.9222" y="205.153">1</text><!--MD5=[b482d663aae385f5ae82dde2f71259c6]
link Employee to Platform--><path codeLine="49" d="M944.91,61.5 C976.29,61.5 1018.48,61.5 1048.72,61.5 " fill="none" id="Employee-Platform" style="stroke:#A80036;stroke-width:1.0;"/><polygon fill="#000000" points="986,52.6758,976.9549,49.7369,976.9549,55.6147,986,52.6758" style="stroke:#000000;stroke-width:1.0;"/><text fill="#000000" font-family="sans-serif" font-size="13" lengthAdjust="spacing" textLength="28" x="990" y="57.9951">uses</text><text fill="#000000" font-family="sans-serif" font-size="13" lengthAdjust="spacing" textLength="5" x="952.5967" y="76.3344">*</text><text fill="#000000" font-family="sans-serif" font-size="13" lengthAdjust="spacing" textLength="7" x="1034.0998" y="76.466">1</text><!--MD5=[ae60cf615a77867b731db6a82b9c694b]
@startuml
hide methods
left to right direction
skinparam classAttributeIconSize 0

class ClinicalAnalysisLaboratory{
    -idLaboratory
    -name
    -address
    -phoneNumber
    -tin
    -testType
}

class Platform{
    -designation
}

class Employee{
    -name
    -function
    -phoneNumber
    -email
    -address
}

class Administrator{
    -idEmployee
    -soc
}

class ParametersCategory{
    -code
    -name
}

class Parameter{
    -code
    -name
    -description
}


ClinicalAnalysisLaboratory "1" - - "*" Parameter : capable of analysing >
ParametersCategory "*" - - "1" Administrator : created by >
Administrator "1" - - "*" Employee : is >
ClinicalAnalysisLaboratory "1" - - "*" ParametersCategory : adopts >
Administrator "1" - - "*" Parameter : create >
Parameter "*" - - "1" ParametersCategory : presented under >
Employee "*" - - "1" Platform : uses >
@enduml

PlantUML version 1.2021.2(Sun Mar 07 11:10:27 GMT 2021)
(GPL source distribution)
Java Runtime: OpenJDK Runtime Environment
JVM: OpenJDK 64-Bit Server VM
Default Encoding: Cp1252
Language: pt
Country: PT
--></g></svg>